%TF.GenerationSoftware,KiCad,Pcbnew,(5.1.10)-1*%
%TF.CreationDate,2021-06-25T15:36:54-07:00*%
%TF.ProjectId,laser,6c617365-722e-46b6-9963-61645f706362,rev?*%
%TF.SameCoordinates,Original*%
%TF.FileFunction,Copper,L4,Bot*%
%TF.FilePolarity,Positive*%
%FSLAX46Y46*%
G04 Gerber Fmt 4.6, Leading zero omitted, Abs format (unit mm)*
G04 Created by KiCad (PCBNEW (5.1.10)-1) date 2021-06-25 15:36:54*
%MOMM*%
%LPD*%
G01*
G04 APERTURE LIST*
%TA.AperFunction,ComponentPad*%
%ADD10R,1.650000X1.650000*%
%TD*%
%TA.AperFunction,ComponentPad*%
%ADD11C,1.650000*%
%TD*%
%TA.AperFunction,SMDPad,CuDef*%
%ADD12R,1.800000X0.450000*%
%TD*%
%TA.AperFunction,SMDPad,CuDef*%
%ADD13R,2.000000X3.500000*%
%TD*%
%TA.AperFunction,ComponentPad*%
%ADD14C,1.524000*%
%TD*%
%TA.AperFunction,ViaPad*%
%ADD15C,0.800000*%
%TD*%
%TA.AperFunction,ViaPad*%
%ADD16C,1.000000*%
%TD*%
%TA.AperFunction,ViaPad*%
%ADD17C,1.800000*%
%TD*%
%TA.AperFunction,ViaPad*%
%ADD18C,2.489200*%
%TD*%
%TA.AperFunction,Conductor*%
%ADD19C,0.250000*%
%TD*%
%TA.AperFunction,Conductor*%
%ADD20C,0.500000*%
%TD*%
%TA.AperFunction,Conductor*%
%ADD21C,1.000000*%
%TD*%
%TA.AperFunction,Conductor*%
%ADD22C,0.700000*%
%TD*%
%TA.AperFunction,Conductor*%
%ADD23C,0.254000*%
%TD*%
%TA.AperFunction,Conductor*%
%ADD24C,0.100000*%
%TD*%
G04 APERTURE END LIST*
D10*
%TO.P,J601,1*%
%TO.N,/ArduinoNano/D12-MISO*%
X202420000Y-114240000D03*
D11*
%TO.P,J601,3*%
%TO.N,/ArduinoNano/D13-SCK*%
X204960000Y-114240000D03*
%TO.P,J601,5*%
%TO.N,/ArduinoNano/RESET*%
X207500000Y-114240000D03*
%TO.P,J601,2*%
%TO.N,5.0V*%
X202420000Y-116780000D03*
%TO.P,J601,4*%
%TO.N,/ArduinoNano/D11-MOSI*%
X204960000Y-116780000D03*
%TO.P,J601,6*%
%TO.N,GND*%
X207500000Y-116780000D03*
%TD*%
%TO.P,R202,2*%
%TO.N,Net-(IC202-Pad3)*%
%TA.AperFunction,SMDPad,CuDef*%
G36*
G01*
X186180000Y-87250001D02*
X186180000Y-86349999D01*
G75*
G02*
X186429999Y-86100000I249999J0D01*
G01*
X186955001Y-86100000D01*
G75*
G02*
X187205000Y-86349999I0J-249999D01*
G01*
X187205000Y-87250001D01*
G75*
G02*
X186955001Y-87500000I-249999J0D01*
G01*
X186429999Y-87500000D01*
G75*
G02*
X186180000Y-87250001I0J249999D01*
G01*
G37*
%TD.AperFunction*%
%TO.P,R202,1*%
%TO.N,Net-(C205-Pad1)*%
%TA.AperFunction,SMDPad,CuDef*%
G36*
G01*
X184355000Y-87250001D02*
X184355000Y-86349999D01*
G75*
G02*
X184604999Y-86100000I249999J0D01*
G01*
X185130001Y-86100000D01*
G75*
G02*
X185380000Y-86349999I0J-249999D01*
G01*
X185380000Y-87250001D01*
G75*
G02*
X185130001Y-87500000I-249999J0D01*
G01*
X184604999Y-87500000D01*
G75*
G02*
X184355000Y-87250001I0J249999D01*
G01*
G37*
%TD.AperFunction*%
%TD*%
%TO.P,C211,2*%
%TO.N,3.3V*%
%TA.AperFunction,SMDPad,CuDef*%
G36*
G01*
X188615000Y-91350001D02*
X188615000Y-89149999D01*
G75*
G02*
X188864999Y-88900000I249999J0D01*
G01*
X189515001Y-88900000D01*
G75*
G02*
X189765000Y-89149999I0J-249999D01*
G01*
X189765000Y-91350001D01*
G75*
G02*
X189515001Y-91600000I-249999J0D01*
G01*
X188864999Y-91600000D01*
G75*
G02*
X188615000Y-91350001I0J249999D01*
G01*
G37*
%TD.AperFunction*%
%TO.P,C211,1*%
%TO.N,GND*%
%TA.AperFunction,SMDPad,CuDef*%
G36*
G01*
X185665000Y-91350001D02*
X185665000Y-89149999D01*
G75*
G02*
X185914999Y-88900000I249999J0D01*
G01*
X186565001Y-88900000D01*
G75*
G02*
X186815000Y-89149999I0J-249999D01*
G01*
X186815000Y-91350001D01*
G75*
G02*
X186565001Y-91600000I-249999J0D01*
G01*
X185914999Y-91600000D01*
G75*
G02*
X185665000Y-91350001I0J249999D01*
G01*
G37*
%TD.AperFunction*%
%TD*%
%TO.P,C209,2*%
%TO.N,GND*%
%TA.AperFunction,SMDPad,CuDef*%
G36*
G01*
X186755000Y-93249999D02*
X186755000Y-95450001D01*
G75*
G02*
X186505001Y-95700000I-249999J0D01*
G01*
X185854999Y-95700000D01*
G75*
G02*
X185605000Y-95450001I0J249999D01*
G01*
X185605000Y-93249999D01*
G75*
G02*
X185854999Y-93000000I249999J0D01*
G01*
X186505001Y-93000000D01*
G75*
G02*
X186755000Y-93249999I0J-249999D01*
G01*
G37*
%TD.AperFunction*%
%TO.P,C209,1*%
%TO.N,Net-(C209-Pad1)*%
%TA.AperFunction,SMDPad,CuDef*%
G36*
G01*
X189705000Y-93249999D02*
X189705000Y-95450001D01*
G75*
G02*
X189455001Y-95700000I-249999J0D01*
G01*
X188804999Y-95700000D01*
G75*
G02*
X188555000Y-95450001I0J249999D01*
G01*
X188555000Y-93249999D01*
G75*
G02*
X188804999Y-93000000I249999J0D01*
G01*
X189455001Y-93000000D01*
G75*
G02*
X189705000Y-93249999I0J-249999D01*
G01*
G37*
%TD.AperFunction*%
%TD*%
%TO.P,C208,2*%
%TO.N,5.0V*%
%TA.AperFunction,SMDPad,CuDef*%
G36*
G01*
X186470000Y-84420001D02*
X186470000Y-82219999D01*
G75*
G02*
X186719999Y-81970000I249999J0D01*
G01*
X187370001Y-81970000D01*
G75*
G02*
X187620000Y-82219999I0J-249999D01*
G01*
X187620000Y-84420001D01*
G75*
G02*
X187370001Y-84670000I-249999J0D01*
G01*
X186719999Y-84670000D01*
G75*
G02*
X186470000Y-84420001I0J249999D01*
G01*
G37*
%TD.AperFunction*%
%TO.P,C208,1*%
%TO.N,GND*%
%TA.AperFunction,SMDPad,CuDef*%
G36*
G01*
X183520000Y-84420001D02*
X183520000Y-82219999D01*
G75*
G02*
X183769999Y-81970000I249999J0D01*
G01*
X184420001Y-81970000D01*
G75*
G02*
X184670000Y-82219999I0J-249999D01*
G01*
X184670000Y-84420001D01*
G75*
G02*
X184420001Y-84670000I-249999J0D01*
G01*
X183769999Y-84670000D01*
G75*
G02*
X183520000Y-84420001I0J249999D01*
G01*
G37*
%TD.AperFunction*%
%TD*%
%TO.P,C204,2*%
%TO.N,Net-(C204-Pad2)*%
%TA.AperFunction,SMDPad,CuDef*%
G36*
G01*
X204200000Y-86179999D02*
X204200000Y-88380001D01*
G75*
G02*
X203950001Y-88630000I-249999J0D01*
G01*
X203299999Y-88630000D01*
G75*
G02*
X203050000Y-88380001I0J249999D01*
G01*
X203050000Y-86179999D01*
G75*
G02*
X203299999Y-85930000I249999J0D01*
G01*
X203950001Y-85930000D01*
G75*
G02*
X204200000Y-86179999I0J-249999D01*
G01*
G37*
%TD.AperFunction*%
%TO.P,C204,1*%
%TO.N,GND*%
%TA.AperFunction,SMDPad,CuDef*%
G36*
G01*
X207150000Y-86179999D02*
X207150000Y-88380001D01*
G75*
G02*
X206900001Y-88630000I-249999J0D01*
G01*
X206249999Y-88630000D01*
G75*
G02*
X206000000Y-88380001I0J249999D01*
G01*
X206000000Y-86179999D01*
G75*
G02*
X206249999Y-85930000I249999J0D01*
G01*
X206900001Y-85930000D01*
G75*
G02*
X207150000Y-86179999I0J-249999D01*
G01*
G37*
%TD.AperFunction*%
%TD*%
%TO.P,C202,2*%
%TO.N,GND*%
%TA.AperFunction,SMDPad,CuDef*%
G36*
G01*
X195460000Y-84289999D02*
X195460000Y-86490001D01*
G75*
G02*
X195210001Y-86740000I-249999J0D01*
G01*
X194559999Y-86740000D01*
G75*
G02*
X194310000Y-86490001I0J249999D01*
G01*
X194310000Y-84289999D01*
G75*
G02*
X194559999Y-84040000I249999J0D01*
G01*
X195210001Y-84040000D01*
G75*
G02*
X195460000Y-84289999I0J-249999D01*
G01*
G37*
%TD.AperFunction*%
%TO.P,C202,1*%
%TO.N,4.2V*%
%TA.AperFunction,SMDPad,CuDef*%
G36*
G01*
X198410000Y-84289999D02*
X198410000Y-86490001D01*
G75*
G02*
X198160001Y-86740000I-249999J0D01*
G01*
X197509999Y-86740000D01*
G75*
G02*
X197260000Y-86490001I0J249999D01*
G01*
X197260000Y-84289999D01*
G75*
G02*
X197509999Y-84040000I249999J0D01*
G01*
X198160001Y-84040000D01*
G75*
G02*
X198410000Y-84289999I0J-249999D01*
G01*
G37*
%TD.AperFunction*%
%TD*%
%TO.P,C201,2*%
%TO.N,GND*%
%TA.AperFunction,SMDPad,CuDef*%
G36*
G01*
X203200000Y-85100001D02*
X203200000Y-82899999D01*
G75*
G02*
X203449999Y-82650000I249999J0D01*
G01*
X204100001Y-82650000D01*
G75*
G02*
X204350000Y-82899999I0J-249999D01*
G01*
X204350000Y-85100001D01*
G75*
G02*
X204100001Y-85350000I-249999J0D01*
G01*
X203449999Y-85350000D01*
G75*
G02*
X203200000Y-85100001I0J249999D01*
G01*
G37*
%TD.AperFunction*%
%TO.P,C201,1*%
%TO.N,4.2V*%
%TA.AperFunction,SMDPad,CuDef*%
G36*
G01*
X200250000Y-85100001D02*
X200250000Y-82899999D01*
G75*
G02*
X200499999Y-82650000I249999J0D01*
G01*
X201150001Y-82650000D01*
G75*
G02*
X201400000Y-82899999I0J-249999D01*
G01*
X201400000Y-85100001D01*
G75*
G02*
X201150001Y-85350000I-249999J0D01*
G01*
X200499999Y-85350000D01*
G75*
G02*
X200250000Y-85100001I0J249999D01*
G01*
G37*
%TD.AperFunction*%
%TD*%
%TO.P,C505,1*%
%TO.N,3.3V*%
%TA.AperFunction,SMDPad,CuDef*%
G36*
G01*
X171600000Y-109740000D02*
X171940000Y-109740000D01*
G75*
G02*
X172080000Y-109880000I0J-140000D01*
G01*
X172080000Y-110160000D01*
G75*
G02*
X171940000Y-110300000I-140000J0D01*
G01*
X171600000Y-110300000D01*
G75*
G02*
X171460000Y-110160000I0J140000D01*
G01*
X171460000Y-109880000D01*
G75*
G02*
X171600000Y-109740000I140000J0D01*
G01*
G37*
%TD.AperFunction*%
%TO.P,C505,2*%
%TO.N,GND*%
%TA.AperFunction,SMDPad,CuDef*%
G36*
G01*
X171600000Y-110700000D02*
X171940000Y-110700000D01*
G75*
G02*
X172080000Y-110840000I0J-140000D01*
G01*
X172080000Y-111120000D01*
G75*
G02*
X171940000Y-111260000I-140000J0D01*
G01*
X171600000Y-111260000D01*
G75*
G02*
X171460000Y-111120000I0J140000D01*
G01*
X171460000Y-110840000D01*
G75*
G02*
X171600000Y-110700000I140000J0D01*
G01*
G37*
%TD.AperFunction*%
%TD*%
%TO.P,C506,2*%
%TO.N,GND*%
%TA.AperFunction,SMDPad,CuDef*%
G36*
G01*
X178530000Y-104400000D02*
X178870000Y-104400000D01*
G75*
G02*
X179010000Y-104540000I0J-140000D01*
G01*
X179010000Y-104820000D01*
G75*
G02*
X178870000Y-104960000I-140000J0D01*
G01*
X178530000Y-104960000D01*
G75*
G02*
X178390000Y-104820000I0J140000D01*
G01*
X178390000Y-104540000D01*
G75*
G02*
X178530000Y-104400000I140000J0D01*
G01*
G37*
%TD.AperFunction*%
%TO.P,C506,1*%
%TO.N,3.3V*%
%TA.AperFunction,SMDPad,CuDef*%
G36*
G01*
X178530000Y-103440000D02*
X178870000Y-103440000D01*
G75*
G02*
X179010000Y-103580000I0J-140000D01*
G01*
X179010000Y-103860000D01*
G75*
G02*
X178870000Y-104000000I-140000J0D01*
G01*
X178530000Y-104000000D01*
G75*
G02*
X178390000Y-103860000I0J140000D01*
G01*
X178390000Y-103580000D01*
G75*
G02*
X178530000Y-103440000I140000J0D01*
G01*
G37*
%TD.AperFunction*%
%TD*%
%TO.P,C206,2*%
%TO.N,Net-(C205-Pad1)*%
%TA.AperFunction,SMDPad,CuDef*%
G36*
G01*
X190770000Y-85150000D02*
X190430000Y-85150000D01*
G75*
G02*
X190290000Y-85010000I0J140000D01*
G01*
X190290000Y-84730000D01*
G75*
G02*
X190430000Y-84590000I140000J0D01*
G01*
X190770000Y-84590000D01*
G75*
G02*
X190910000Y-84730000I0J-140000D01*
G01*
X190910000Y-85010000D01*
G75*
G02*
X190770000Y-85150000I-140000J0D01*
G01*
G37*
%TD.AperFunction*%
%TO.P,C206,1*%
%TO.N,GND*%
%TA.AperFunction,SMDPad,CuDef*%
G36*
G01*
X190770000Y-86110000D02*
X190430000Y-86110000D01*
G75*
G02*
X190290000Y-85970000I0J140000D01*
G01*
X190290000Y-85690000D01*
G75*
G02*
X190430000Y-85550000I140000J0D01*
G01*
X190770000Y-85550000D01*
G75*
G02*
X190910000Y-85690000I0J-140000D01*
G01*
X190910000Y-85970000D01*
G75*
G02*
X190770000Y-86110000I-140000J0D01*
G01*
G37*
%TD.AperFunction*%
%TD*%
%TO.P,C210,1*%
%TO.N,GND*%
%TA.AperFunction,SMDPad,CuDef*%
G36*
G01*
X191870000Y-86110000D02*
X191530000Y-86110000D01*
G75*
G02*
X191390000Y-85970000I0J140000D01*
G01*
X191390000Y-85690000D01*
G75*
G02*
X191530000Y-85550000I140000J0D01*
G01*
X191870000Y-85550000D01*
G75*
G02*
X192010000Y-85690000I0J-140000D01*
G01*
X192010000Y-85970000D01*
G75*
G02*
X191870000Y-86110000I-140000J0D01*
G01*
G37*
%TD.AperFunction*%
%TO.P,C210,2*%
%TO.N,Net-(C205-Pad1)*%
%TA.AperFunction,SMDPad,CuDef*%
G36*
G01*
X191870000Y-85150000D02*
X191530000Y-85150000D01*
G75*
G02*
X191390000Y-85010000I0J140000D01*
G01*
X191390000Y-84730000D01*
G75*
G02*
X191530000Y-84590000I140000J0D01*
G01*
X191870000Y-84590000D01*
G75*
G02*
X192010000Y-84730000I0J-140000D01*
G01*
X192010000Y-85010000D01*
G75*
G02*
X191870000Y-85150000I-140000J0D01*
G01*
G37*
%TD.AperFunction*%
%TD*%
%TO.P,C307,2*%
%TO.N,GND*%
%TA.AperFunction,SMDPad,CuDef*%
G36*
G01*
X160760000Y-86110000D02*
X160420000Y-86110000D01*
G75*
G02*
X160280000Y-85970000I0J140000D01*
G01*
X160280000Y-85690000D01*
G75*
G02*
X160420000Y-85550000I140000J0D01*
G01*
X160760000Y-85550000D01*
G75*
G02*
X160900000Y-85690000I0J-140000D01*
G01*
X160900000Y-85970000D01*
G75*
G02*
X160760000Y-86110000I-140000J0D01*
G01*
G37*
%TD.AperFunction*%
%TO.P,C307,1*%
%TO.N,4.2V*%
%TA.AperFunction,SMDPad,CuDef*%
G36*
G01*
X160760000Y-87070000D02*
X160420000Y-87070000D01*
G75*
G02*
X160280000Y-86930000I0J140000D01*
G01*
X160280000Y-86650000D01*
G75*
G02*
X160420000Y-86510000I140000J0D01*
G01*
X160760000Y-86510000D01*
G75*
G02*
X160900000Y-86650000I0J-140000D01*
G01*
X160900000Y-86930000D01*
G75*
G02*
X160760000Y-87070000I-140000J0D01*
G01*
G37*
%TD.AperFunction*%
%TD*%
%TO.P,C308,2*%
%TO.N,GND*%
%TA.AperFunction,SMDPad,CuDef*%
G36*
G01*
X177930000Y-85740000D02*
X177590000Y-85740000D01*
G75*
G02*
X177450000Y-85600000I0J140000D01*
G01*
X177450000Y-85320000D01*
G75*
G02*
X177590000Y-85180000I140000J0D01*
G01*
X177930000Y-85180000D01*
G75*
G02*
X178070000Y-85320000I0J-140000D01*
G01*
X178070000Y-85600000D01*
G75*
G02*
X177930000Y-85740000I-140000J0D01*
G01*
G37*
%TD.AperFunction*%
%TO.P,C308,1*%
%TO.N,4.2V*%
%TA.AperFunction,SMDPad,CuDef*%
G36*
G01*
X177930000Y-86700000D02*
X177590000Y-86700000D01*
G75*
G02*
X177450000Y-86560000I0J140000D01*
G01*
X177450000Y-86280000D01*
G75*
G02*
X177590000Y-86140000I140000J0D01*
G01*
X177930000Y-86140000D01*
G75*
G02*
X178070000Y-86280000I0J-140000D01*
G01*
X178070000Y-86560000D01*
G75*
G02*
X177930000Y-86700000I-140000J0D01*
G01*
G37*
%TD.AperFunction*%
%TD*%
%TO.P,C403,1*%
%TO.N,3.3V*%
%TA.AperFunction,SMDPad,CuDef*%
G36*
G01*
X164630000Y-119620000D02*
X164630000Y-119960000D01*
G75*
G02*
X164490000Y-120100000I-140000J0D01*
G01*
X164210000Y-120100000D01*
G75*
G02*
X164070000Y-119960000I0J140000D01*
G01*
X164070000Y-119620000D01*
G75*
G02*
X164210000Y-119480000I140000J0D01*
G01*
X164490000Y-119480000D01*
G75*
G02*
X164630000Y-119620000I0J-140000D01*
G01*
G37*
%TD.AperFunction*%
%TO.P,C403,2*%
%TO.N,GND*%
%TA.AperFunction,SMDPad,CuDef*%
G36*
G01*
X163670000Y-119620000D02*
X163670000Y-119960000D01*
G75*
G02*
X163530000Y-120100000I-140000J0D01*
G01*
X163250000Y-120100000D01*
G75*
G02*
X163110000Y-119960000I0J140000D01*
G01*
X163110000Y-119620000D01*
G75*
G02*
X163250000Y-119480000I140000J0D01*
G01*
X163530000Y-119480000D01*
G75*
G02*
X163670000Y-119620000I0J-140000D01*
G01*
G37*
%TD.AperFunction*%
%TD*%
%TO.P,C404,2*%
%TO.N,GND*%
%TA.AperFunction,SMDPad,CuDef*%
G36*
G01*
X163640000Y-120780000D02*
X163640000Y-121120000D01*
G75*
G02*
X163500000Y-121260000I-140000J0D01*
G01*
X163220000Y-121260000D01*
G75*
G02*
X163080000Y-121120000I0J140000D01*
G01*
X163080000Y-120780000D01*
G75*
G02*
X163220000Y-120640000I140000J0D01*
G01*
X163500000Y-120640000D01*
G75*
G02*
X163640000Y-120780000I0J-140000D01*
G01*
G37*
%TD.AperFunction*%
%TO.P,C404,1*%
%TO.N,3.3V*%
%TA.AperFunction,SMDPad,CuDef*%
G36*
G01*
X164600000Y-120780000D02*
X164600000Y-121120000D01*
G75*
G02*
X164460000Y-121260000I-140000J0D01*
G01*
X164180000Y-121260000D01*
G75*
G02*
X164040000Y-121120000I0J140000D01*
G01*
X164040000Y-120780000D01*
G75*
G02*
X164180000Y-120640000I140000J0D01*
G01*
X164460000Y-120640000D01*
G75*
G02*
X164600000Y-120780000I0J-140000D01*
G01*
G37*
%TD.AperFunction*%
%TD*%
%TO.P,C504,1*%
%TO.N,3.3V*%
%TA.AperFunction,SMDPad,CuDef*%
G36*
G01*
X172800000Y-109750000D02*
X173140000Y-109750000D01*
G75*
G02*
X173280000Y-109890000I0J-140000D01*
G01*
X173280000Y-110170000D01*
G75*
G02*
X173140000Y-110310000I-140000J0D01*
G01*
X172800000Y-110310000D01*
G75*
G02*
X172660000Y-110170000I0J140000D01*
G01*
X172660000Y-109890000D01*
G75*
G02*
X172800000Y-109750000I140000J0D01*
G01*
G37*
%TD.AperFunction*%
%TO.P,C504,2*%
%TO.N,GND*%
%TA.AperFunction,SMDPad,CuDef*%
G36*
G01*
X172800000Y-110710000D02*
X173140000Y-110710000D01*
G75*
G02*
X173280000Y-110850000I0J-140000D01*
G01*
X173280000Y-111130000D01*
G75*
G02*
X173140000Y-111270000I-140000J0D01*
G01*
X172800000Y-111270000D01*
G75*
G02*
X172660000Y-111130000I0J140000D01*
G01*
X172660000Y-110850000D01*
G75*
G02*
X172800000Y-110710000I140000J0D01*
G01*
G37*
%TD.AperFunction*%
%TD*%
%TO.P,C507,1*%
%TO.N,3.3V*%
%TA.AperFunction,SMDPad,CuDef*%
G36*
G01*
X179930000Y-103490000D02*
X180270000Y-103490000D01*
G75*
G02*
X180410000Y-103630000I0J-140000D01*
G01*
X180410000Y-103910000D01*
G75*
G02*
X180270000Y-104050000I-140000J0D01*
G01*
X179930000Y-104050000D01*
G75*
G02*
X179790000Y-103910000I0J140000D01*
G01*
X179790000Y-103630000D01*
G75*
G02*
X179930000Y-103490000I140000J0D01*
G01*
G37*
%TD.AperFunction*%
%TO.P,C507,2*%
%TO.N,GND*%
%TA.AperFunction,SMDPad,CuDef*%
G36*
G01*
X179930000Y-104450000D02*
X180270000Y-104450000D01*
G75*
G02*
X180410000Y-104590000I0J-140000D01*
G01*
X180410000Y-104870000D01*
G75*
G02*
X180270000Y-105010000I-140000J0D01*
G01*
X179930000Y-105010000D01*
G75*
G02*
X179790000Y-104870000I0J140000D01*
G01*
X179790000Y-104590000D01*
G75*
G02*
X179930000Y-104450000I140000J0D01*
G01*
G37*
%TD.AperFunction*%
%TD*%
D12*
%TO.P,IC602,1*%
%TO.N,/ArduinoNano/RX*%
X191640000Y-117115000D03*
%TO.P,IC602,2*%
%TO.N,Net-(IC602-Pad2)*%
X191640000Y-116465000D03*
%TO.P,IC602,3*%
%TO.N,Net-(IC602-Pad3)*%
X191640000Y-115815000D03*
%TO.P,IC602,4*%
%TO.N,5.0V*%
X191640000Y-115165000D03*
%TO.P,IC602,5*%
%TO.N,/ArduinoNano/TX*%
X191640000Y-114515000D03*
%TO.P,IC602,6*%
%TO.N,Net-(IC602-Pad6)*%
X191640000Y-113865000D03*
%TO.P,IC602,7*%
%TO.N,GND*%
X191640000Y-113215000D03*
%TO.P,IC602,8*%
%TO.N,Net-(IC602-Pad8)*%
X191640000Y-112565000D03*
%TO.P,IC602,9*%
%TO.N,Net-(IC602-Pad9)*%
X191640000Y-111915000D03*
%TO.P,IC602,10*%
%TO.N,Net-(IC602-Pad10)*%
X191640000Y-111265000D03*
%TO.P,IC602,11*%
%TO.N,Net-(IC602-Pad11)*%
X191640000Y-110615000D03*
%TO.P,IC602,12*%
%TO.N,Net-(IC602-Pad12)*%
X191640000Y-109965000D03*
%TO.P,IC602,13*%
%TO.N,Net-(IC602-Pad13)*%
X191640000Y-109315000D03*
%TO.P,IC602,14*%
%TO.N,Net-(IC602-Pad14)*%
X191640000Y-108665000D03*
%TO.P,IC602,15*%
%TO.N,Net-(IC602-Pad15)*%
X198740000Y-108665000D03*
%TO.P,IC602,16*%
%TO.N,Net-(IC602-Pad16)*%
X198740000Y-109315000D03*
%TO.P,IC602,17*%
%TO.N,Net-(IC602-Pad17)*%
X198740000Y-109965000D03*
%TO.P,IC602,18*%
%TO.N,GND*%
X198740000Y-110615000D03*
%TO.P,IC602,19*%
%TO.N,Net-(IC602-Pad19)*%
X198740000Y-111265000D03*
%TO.P,IC602,20*%
%TO.N,5.0V*%
X198740000Y-111915000D03*
%TO.P,IC602,21*%
%TO.N,GND*%
X198740000Y-112565000D03*
%TO.P,IC602,22*%
%TO.N,Net-(IC602-Pad22)*%
X198740000Y-113215000D03*
%TO.P,IC602,23*%
%TO.N,Net-(IC602-Pad23)*%
X198740000Y-113865000D03*
%TO.P,IC602,24*%
%TO.N,Net-(IC602-Pad24)*%
X198740000Y-114515000D03*
%TO.P,IC602,25*%
%TO.N,GND*%
X198740000Y-115165000D03*
%TO.P,IC602,26*%
X198740000Y-115815000D03*
%TO.P,IC602,27*%
%TO.N,Net-(IC602-Pad27)*%
X198740000Y-116465000D03*
%TO.P,IC602,28*%
%TO.N,Net-(IC602-Pad28)*%
X198740000Y-117115000D03*
%TD*%
D13*
%TO.P,L201,1*%
%TO.N,Net-(C204-Pad2)*%
X201160000Y-94970000D03*
%TO.P,L201,2*%
%TO.N,5.0V*%
X192160000Y-94970000D03*
%TD*%
D14*
%TO.P,U101,3*%
%TO.N,MODULATION_SIGNAL*%
X206000000Y-120320000D03*
%TO.P,U101,2*%
%TO.N,5V_EXTERNAL_Power_Source*%
X206000000Y-122860000D03*
%TO.P,U101,1*%
%TO.N,GND*%
X206000000Y-125400000D03*
%TD*%
%TO.P,C305,1*%
%TO.N,GND*%
%TA.AperFunction,SMDPad,CuDef*%
G36*
G01*
X168750000Y-85359999D02*
X168750000Y-87560001D01*
G75*
G02*
X168500001Y-87810000I-249999J0D01*
G01*
X167849999Y-87810000D01*
G75*
G02*
X167600000Y-87560001I0J249999D01*
G01*
X167600000Y-85359999D01*
G75*
G02*
X167849999Y-85110000I249999J0D01*
G01*
X168500001Y-85110000D01*
G75*
G02*
X168750000Y-85359999I0J-249999D01*
G01*
G37*
%TD.AperFunction*%
%TO.P,C305,2*%
%TO.N,4.2V*%
%TA.AperFunction,SMDPad,CuDef*%
G36*
G01*
X165800000Y-85359999D02*
X165800000Y-87560001D01*
G75*
G02*
X165550001Y-87810000I-249999J0D01*
G01*
X164899999Y-87810000D01*
G75*
G02*
X164650000Y-87560001I0J249999D01*
G01*
X164650000Y-85359999D01*
G75*
G02*
X164899999Y-85110000I249999J0D01*
G01*
X165550001Y-85110000D01*
G75*
G02*
X165800000Y-85359999I0J-249999D01*
G01*
G37*
%TD.AperFunction*%
%TD*%
%TO.P,C306,2*%
%TO.N,4.2V*%
%TA.AperFunction,SMDPad,CuDef*%
G36*
G01*
X179890000Y-84949999D02*
X179890000Y-87150001D01*
G75*
G02*
X179640001Y-87400000I-249999J0D01*
G01*
X178989999Y-87400000D01*
G75*
G02*
X178740000Y-87150001I0J249999D01*
G01*
X178740000Y-84949999D01*
G75*
G02*
X178989999Y-84700000I249999J0D01*
G01*
X179640001Y-84700000D01*
G75*
G02*
X179890000Y-84949999I0J-249999D01*
G01*
G37*
%TD.AperFunction*%
%TO.P,C306,1*%
%TO.N,GND*%
%TA.AperFunction,SMDPad,CuDef*%
G36*
G01*
X182840000Y-84949999D02*
X182840000Y-87150001D01*
G75*
G02*
X182590001Y-87400000I-249999J0D01*
G01*
X181939999Y-87400000D01*
G75*
G02*
X181690000Y-87150001I0J249999D01*
G01*
X181690000Y-84949999D01*
G75*
G02*
X181939999Y-84700000I249999J0D01*
G01*
X182590001Y-84700000D01*
G75*
G02*
X182840000Y-84949999I0J-249999D01*
G01*
G37*
%TD.AperFunction*%
%TD*%
D15*
%TO.N,Butterfly_Thermistor*%
X188090000Y-130930000D03*
X173890000Y-114280000D03*
X169510000Y-109070000D03*
X147840000Y-95200000D03*
%TO.N,4.2V*%
X165170000Y-84140000D03*
X197140000Y-83700000D03*
X180840002Y-83940000D03*
D16*
%TO.N,TEC_Plus*%
X157310000Y-98910000D03*
X176819999Y-99999999D03*
D15*
X163170001Y-99999999D03*
D16*
X178400000Y-99990000D03*
X179490000Y-84000000D03*
%TO.N,TEC_Minus*%
X163780000Y-84130000D03*
D15*
%TO.N,3.3V*%
X192500000Y-118930000D03*
X188070000Y-129200000D03*
X190050000Y-119070000D03*
X138020000Y-124670000D03*
X165250000Y-112400000D03*
X165280000Y-118410000D03*
X139130000Y-127140000D03*
X139160000Y-129050000D03*
X184810000Y-125920000D03*
X180900000Y-102290000D03*
X173440000Y-108670000D03*
X181720000Y-120790000D03*
X184690000Y-119100000D03*
X181480000Y-128499998D03*
X177750000Y-118120000D03*
X190740000Y-89120000D03*
X185760000Y-99610000D03*
%TO.N,Net-(C204-Pad2)*%
X202274999Y-87164999D03*
%TO.N,Net-(C205-Pad1)*%
X185640000Y-85460000D03*
D16*
X193464023Y-83840830D03*
D15*
%TO.N,5.0V*%
X207650000Y-93230000D03*
X188820000Y-96390000D03*
X207610000Y-94500000D03*
X188470000Y-84130000D03*
X196380000Y-105450000D03*
X193980000Y-116520000D03*
X188390000Y-99460000D03*
X190790000Y-96990000D03*
X191910000Y-101290000D03*
X201360000Y-119580000D03*
X196728047Y-111597281D03*
%TO.N,Net-(C209-Pad1)*%
X192920000Y-89890000D03*
%TO.N,REFERENCE_2.5V*%
X158330000Y-121330000D03*
X174080000Y-112110000D03*
X172200000Y-101410000D03*
X186260000Y-109770000D03*
X175188513Y-117720949D03*
X176030000Y-122350009D03*
%TO.N,Net-(C304-Pad2)*%
X155080000Y-89230000D03*
X161910000Y-97870000D03*
%TO.N,MODULATION_SIGNAL*%
X155990000Y-122590000D03*
%TO.N,Net-(C408-Pad1)*%
X163650000Y-123520000D03*
X166279933Y-118421763D03*
X166010000Y-127860000D03*
%TO.N,Thermal_Control_to_Power_OpAmps*%
X175110000Y-110250000D03*
X180650000Y-100190000D03*
%TO.N,Net-(C602-Pad1)*%
X200245000Y-110820152D03*
X200214990Y-107000000D03*
%TO.N,Net-(IC202-Pad1)*%
X190810000Y-83930000D03*
X201790000Y-90170000D03*
%TO.N,Net-(IC202-Pad3)*%
X187680000Y-87725000D03*
D17*
%TO.N,5V_EXTERNAL_Power_Source*%
X211700001Y-89149999D03*
X211700001Y-91399999D03*
D15*
%TO.N,Arduino_D5_Output*%
X196976300Y-113587972D03*
X191370000Y-105170000D03*
X182184849Y-97485151D03*
X168230000Y-97420000D03*
%TO.N,To_Arduino_AtoD_Pos*%
X174010000Y-84110002D03*
X184780000Y-101250000D03*
%TO.N,To_Arduino_AtoD_Neg*%
X184921272Y-102652691D03*
X159355000Y-83914998D03*
%TO.N,/ArduinoNano/RESET*%
X189000000Y-102900000D03*
X188030000Y-112260000D03*
%TO.N,/ArduinoNano/RX*%
X187690000Y-117140000D03*
%TO.N,/ArduinoNano/TX*%
X188760000Y-117150000D03*
%TO.N,Net-(IC602-Pad15)*%
X202330000Y-105810000D03*
%TO.N,Net-(IC602-Pad16)*%
X202875073Y-106703054D03*
%TO.N,Current_to_AtoD*%
X164847500Y-123497500D03*
X196100000Y-125260000D03*
%TO.N,DtoA_Output_to_Current*%
X179520000Y-119440000D03*
X168750000Y-114550000D03*
%TO.N,DtoA_Output_(Setpoint)*%
X182580000Y-127740000D03*
X176920000Y-107270000D03*
%TO.N,Net-(R504-Pad1)*%
X177712420Y-102692115D03*
X181870000Y-105260000D03*
X184350000Y-106380000D03*
%TO.N,Monitor+_To_AIN2*%
X193050150Y-127392520D03*
X137950000Y-96810000D03*
%TO.N,GND*%
X159900000Y-89670000D03*
X168060000Y-89670000D03*
X166820000Y-89650000D03*
X164420000Y-89640000D03*
X163270000Y-89620000D03*
X162130000Y-89620000D03*
X172150000Y-126880000D03*
X178160000Y-120170000D03*
X181250000Y-115060000D03*
X184010000Y-115550000D03*
D16*
X199520000Y-84890000D03*
X196800000Y-89450000D03*
D15*
X186410000Y-92400000D03*
D18*
X126263400Y-93225600D03*
X130835400Y-83929200D03*
X130835400Y-129674600D03*
X205841600Y-129700000D03*
X126263400Y-121165600D03*
X152374600Y-93200200D03*
X205867000Y-83903800D03*
X152298400Y-121267200D03*
D15*
X178700000Y-106450000D03*
X168420000Y-111950000D03*
X167200000Y-112300000D03*
X161500000Y-113400000D03*
X160900000Y-125180000D03*
X158250000Y-123520000D03*
X156100000Y-126550000D03*
D16*
X143080000Y-89120000D03*
X135460000Y-89140000D03*
D15*
X145620000Y-124470000D03*
X143080000Y-124680000D03*
X184650000Y-84850000D03*
X170650000Y-85200000D03*
X156663700Y-86063700D03*
X184863700Y-95486300D03*
X192960000Y-103450000D03*
X194210000Y-118890000D03*
X200310000Y-127120000D03*
X196750000Y-130680000D03*
D16*
X199550000Y-86080000D03*
D15*
X193870000Y-87160000D03*
X183740000Y-124460000D03*
X174850000Y-126400000D03*
X184360000Y-129540000D03*
X167760000Y-101100000D03*
X165720000Y-97950000D03*
X188100000Y-127940000D03*
X195240000Y-128160000D03*
X191520000Y-130190000D03*
X158880000Y-113430000D03*
X182200000Y-84000000D03*
X201910012Y-88354993D03*
X168150000Y-84010000D03*
X175340000Y-84250000D03*
X193170000Y-113240000D03*
X197040000Y-112590000D03*
X200984029Y-103573059D03*
X139170002Y-89259998D03*
X159630000Y-97900000D03*
X173450000Y-97870000D03*
X170340000Y-101110000D03*
X168470002Y-129940000D03*
X168180000Y-120080000D03*
X161330000Y-121390000D03*
X171019995Y-112050005D03*
X184679475Y-118100053D03*
X175910000Y-113760000D03*
X172359998Y-120780000D03*
X176712660Y-106037340D03*
X205900000Y-91970000D03*
X208450000Y-88740000D03*
X195100000Y-116620000D03*
X204920000Y-86230000D03*
X190380000Y-94010000D03*
X200310000Y-115800000D03*
X160996089Y-89626089D03*
X165620000Y-89630000D03*
X159900000Y-90670000D03*
X159900000Y-91670000D03*
X162130000Y-90620000D03*
X162130000Y-91620000D03*
X160996089Y-90626089D03*
X160996089Y-91626089D03*
X164420000Y-90640000D03*
X164420000Y-91640000D03*
X165620000Y-90630000D03*
X165620000Y-91630000D03*
X163270000Y-90620000D03*
X163270000Y-91620000D03*
X168060000Y-90670000D03*
X168060000Y-91670000D03*
X166820000Y-90650000D03*
X166820000Y-91650000D03*
X173550000Y-90800000D03*
X181710000Y-90800000D03*
X180470000Y-91780000D03*
X179270000Y-90760000D03*
X179270000Y-91760000D03*
X181710000Y-91800000D03*
X175780000Y-90750000D03*
X180470000Y-90780000D03*
X178070000Y-91770000D03*
X174646089Y-91756089D03*
X176920000Y-91750000D03*
X174646089Y-90756089D03*
X176920000Y-90750000D03*
X178070000Y-90770000D03*
X175780000Y-91750000D03*
X173550000Y-89800000D03*
X173550000Y-91800000D03*
X175780000Y-89750000D03*
X174646089Y-89756089D03*
X178070000Y-89770000D03*
X179270000Y-89760000D03*
X176920000Y-89750000D03*
X181710000Y-89800000D03*
X180470000Y-89780000D03*
X160617660Y-83917660D03*
X171875000Y-97795010D03*
X169516551Y-97795010D03*
X156372340Y-93727660D03*
X177760000Y-84520000D03*
X196940000Y-110620000D03*
X193380000Y-105300000D03*
X192573361Y-85595010D03*
%TO.N,/AtoD_DtoA/SDA*%
X178370000Y-121495000D03*
X175790000Y-120870000D03*
%TO.N,Net-(C808-Pad1)*%
X192480000Y-124365000D03*
X201130000Y-130370000D03*
%TO.N,Net-(C601-Pad1)*%
X196810000Y-116610000D03*
X201050000Y-100380000D03*
%TD*%
D19*
%TO.N,Butterfly_Thermistor*%
X176020000Y-116410000D02*
X173890000Y-114280000D01*
X176930000Y-117320000D02*
X176020000Y-116410000D01*
X182276998Y-130930000D02*
X176930000Y-125583002D01*
X176930000Y-125583002D02*
X176930000Y-117320000D01*
X188090000Y-130930000D02*
X182276998Y-130930000D01*
%TO.N,4.2V*%
X164895000Y-86790000D02*
X165225000Y-86460000D01*
X160590000Y-86790000D02*
X164895000Y-86790000D01*
X165246299Y-86460000D02*
X165225000Y-86460000D01*
X165225000Y-84195000D02*
X165170000Y-84140000D01*
X165225000Y-86460000D02*
X165225000Y-84195000D01*
X197835000Y-85390000D02*
X199160001Y-84064999D01*
X199225000Y-84000000D02*
X199160001Y-84064999D01*
X200825000Y-84000000D02*
X199225000Y-84000000D01*
D20*
X178945000Y-86420000D02*
X177760000Y-86420000D01*
X179315000Y-86050000D02*
X178945000Y-86420000D01*
D19*
X197835000Y-84395000D02*
X197140000Y-83700000D01*
X197835000Y-85390000D02*
X197835000Y-84395000D01*
D20*
X179315000Y-86050000D02*
X180840002Y-84524998D01*
X180840002Y-84524998D02*
X180840002Y-83940000D01*
D21*
%TO.N,TEC_Plus*%
X158399999Y-99999999D02*
X163170001Y-99999999D01*
X157310000Y-98910000D02*
X158399999Y-99999999D01*
X163170001Y-99999999D02*
X176819999Y-99999999D01*
X178909999Y-83419999D02*
X179490000Y-84000000D01*
X176659999Y-83991999D02*
X177231999Y-83419999D01*
X176659999Y-86817955D02*
X176659999Y-83991999D01*
X177231999Y-83419999D02*
X178909999Y-83419999D01*
X177942054Y-88100010D02*
X176659999Y-86817955D01*
X181638012Y-88100010D02*
X177942054Y-88100010D01*
X183284851Y-97983153D02*
X183284851Y-89746849D01*
X183284851Y-89746849D02*
X181638012Y-88100010D01*
X182178005Y-99089999D02*
X183284851Y-97983153D01*
X179300001Y-99089999D02*
X182178005Y-99089999D01*
X178400000Y-99990000D02*
X179300001Y-99089999D01*
D19*
%TO.N,3.3V*%
X164350000Y-120920000D02*
X164320000Y-120950000D01*
X164350000Y-119790000D02*
X164350000Y-120920000D01*
X165280000Y-118860000D02*
X164350000Y-119790000D01*
X165280000Y-118410000D02*
X165280000Y-118860000D01*
X180900000Y-102970000D02*
X180100000Y-103770000D01*
X180900000Y-102290000D02*
X180900000Y-102970000D01*
X178750000Y-103770000D02*
X178700000Y-103720000D01*
X180100000Y-103770000D02*
X178750000Y-103770000D01*
X173440000Y-109560000D02*
X172970000Y-110030000D01*
X173440000Y-108670000D02*
X173440000Y-109560000D01*
X172960000Y-110020000D02*
X172970000Y-110030000D01*
X171770000Y-110020000D02*
X172960000Y-110020000D01*
X189610000Y-90250000D02*
X190740000Y-89120000D01*
X189190000Y-90250000D02*
X189610000Y-90250000D01*
X181720000Y-128259998D02*
X181480000Y-128499998D01*
X181720000Y-120790000D02*
X181720000Y-128259998D01*
%TO.N,Net-(C204-Pad2)*%
X202274999Y-87164999D02*
X202274999Y-87164999D01*
D21*
X203010013Y-93119987D02*
X201160000Y-94970000D01*
X203509999Y-87164999D02*
X203625000Y-87280000D01*
X202274999Y-87164999D02*
X203509999Y-87164999D01*
X203625000Y-92505000D02*
X203010013Y-93119987D01*
X203625000Y-87280000D02*
X203625000Y-92505000D01*
D22*
%TO.N,Net-(C205-Pad1)*%
X191266001Y-84880001D02*
X190600000Y-84880001D01*
X191276002Y-84870000D02*
X191266001Y-84880001D01*
X191700000Y-84870000D02*
X191276002Y-84870000D01*
X188546002Y-85460000D02*
X185640000Y-85460000D01*
X189136002Y-84870000D02*
X188546002Y-85460000D01*
X190600000Y-84870000D02*
X189136002Y-84870000D01*
X184867500Y-86232500D02*
X185640000Y-85460000D01*
X184867500Y-86800000D02*
X184867500Y-86232500D01*
X192729170Y-83840830D02*
X193464023Y-83840830D01*
X191700000Y-84870000D02*
X192729170Y-83840830D01*
D21*
%TO.N,5.0V*%
X191355685Y-96990000D02*
X190790000Y-96990000D01*
X192160000Y-96185685D02*
X191355685Y-96990000D01*
X192160000Y-94970000D02*
X192160000Y-96185685D01*
D20*
X187855000Y-84130000D02*
X187045000Y-83320000D01*
X188470000Y-84130000D02*
X187855000Y-84130000D01*
D19*
X192625000Y-115165000D02*
X193980000Y-116520000D01*
X191640000Y-115165000D02*
X192625000Y-115165000D01*
X198740000Y-111915000D02*
X199800002Y-111915000D01*
X201269999Y-115629999D02*
X202420000Y-116780000D01*
X199800002Y-111915000D02*
X201269999Y-113384997D01*
X201269999Y-113384997D02*
X201269999Y-115629999D01*
X197590000Y-111915000D02*
X197272281Y-111597281D01*
X197272281Y-111597281D02*
X196728047Y-111597281D01*
X198740000Y-111915000D02*
X197590000Y-111915000D01*
%TO.N,Net-(C209-Pad1)*%
X189130000Y-93680000D02*
X192920000Y-89890000D01*
X189130000Y-94350000D02*
X189130000Y-93680000D01*
%TO.N,REFERENCE_2.5V*%
X174165001Y-112024999D02*
X174080000Y-112110000D01*
X174165001Y-103375001D02*
X174165001Y-112024999D01*
X172200000Y-101410000D02*
X174165001Y-103375001D01*
X175188513Y-117720949D02*
X175188513Y-118286634D01*
X175188513Y-118286634D02*
X175064999Y-118410148D01*
X175064999Y-121385008D02*
X176030000Y-122350009D01*
X175064999Y-118410148D02*
X175064999Y-121385008D01*
%TO.N,Net-(C304-Pad2)*%
X161540000Y-97870000D02*
X161910000Y-97870000D01*
X155080000Y-91410000D02*
X161540000Y-97870000D01*
X155080000Y-89230000D02*
X155080000Y-91410000D01*
%TO.N,Net-(C408-Pad1)*%
X163650000Y-123520000D02*
X166130000Y-121040000D01*
X166130000Y-118571696D02*
X166279933Y-118421763D01*
X166130000Y-121040000D02*
X166130000Y-118571696D01*
X163650000Y-123520000D02*
X166010000Y-125880000D01*
X166010000Y-125880000D02*
X166010000Y-127860000D01*
%TO.N,Thermal_Control_to_Power_OpAmps*%
X177364419Y-101967114D02*
X178872886Y-101967114D01*
X175110000Y-110250000D02*
X175110000Y-104221533D01*
X175110000Y-104221533D02*
X177364419Y-101967114D01*
X178872886Y-101967114D02*
X180650000Y-100190000D01*
%TO.N,Net-(IC202-Pad1)*%
X194749002Y-83015812D02*
X195960000Y-84226810D01*
X195960000Y-85753190D02*
X200376810Y-90170000D01*
X195960000Y-84226810D02*
X195960000Y-85753190D01*
X200376810Y-90170000D02*
X201790000Y-90170000D01*
X191724188Y-83015812D02*
X194749002Y-83015812D01*
X190810000Y-83930000D02*
X191724188Y-83015812D01*
%TO.N,Net-(IC202-Pad3)*%
X187617500Y-87725000D02*
X186692500Y-86800000D01*
X187680000Y-87725000D02*
X187617500Y-87725000D01*
%TO.N,Arduino_D5_Output*%
X196976300Y-113587972D02*
X195240000Y-111851672D01*
X195240000Y-109040000D02*
X191370000Y-105170000D01*
X195240000Y-111851672D02*
X195240000Y-109040000D01*
X168580000Y-97070000D02*
X168230000Y-97420000D01*
X181769698Y-97070000D02*
X168580000Y-97070000D01*
X182184849Y-97485151D02*
X181769698Y-97070000D01*
%TO.N,/ArduinoNano/RESET*%
X189000000Y-102900000D02*
X189000000Y-111290000D01*
X189000000Y-111290000D02*
X188030000Y-112260000D01*
X208650001Y-115390001D02*
X207500000Y-114240000D01*
X208650001Y-117332001D02*
X208650001Y-115390001D01*
X189786409Y-117930001D02*
X208052001Y-117930001D01*
X189391400Y-118325010D02*
X189786409Y-117930001D01*
X208052001Y-117930001D02*
X208650001Y-117332001D01*
X186964999Y-117488001D02*
X187802008Y-118325010D01*
X186964999Y-113325001D02*
X186964999Y-117488001D01*
X187802008Y-118325010D02*
X189391400Y-118325010D01*
X188030000Y-112260000D02*
X186964999Y-113325001D01*
%TO.N,/ArduinoNano/RX*%
X188425001Y-117875001D02*
X189204999Y-117875001D01*
X187690000Y-117140000D02*
X188425001Y-117875001D01*
X189965000Y-117115000D02*
X191640000Y-117115000D01*
X189204999Y-117875001D02*
X189965000Y-117115000D01*
%TO.N,/ArduinoNano/TX*%
X190490000Y-114515000D02*
X191640000Y-114515000D01*
X188760000Y-116245000D02*
X190490000Y-114515000D01*
X188760000Y-117150000D02*
X188760000Y-116245000D01*
%TO.N,Net-(IC602-Pad15)*%
X199890000Y-108665000D02*
X202330000Y-106225000D01*
X202330000Y-106225000D02*
X202330000Y-105810000D01*
X198740000Y-108665000D02*
X199890000Y-108665000D01*
%TO.N,Net-(IC602-Pad16)*%
X200263127Y-109315000D02*
X202875073Y-106703054D01*
X198740000Y-109315000D02*
X200263127Y-109315000D01*
%TO.N,DtoA_Output_(Setpoint)*%
X182580000Y-112930000D02*
X176920000Y-107270000D01*
X182580000Y-127740000D02*
X182580000Y-112930000D01*
%TO.N,Monitor+_To_AIN2*%
X188787669Y-131655001D02*
X181235001Y-131655001D01*
X193050150Y-127392520D02*
X188787669Y-131655001D01*
X155404917Y-96810000D02*
X137950000Y-96810000D01*
X156211210Y-97616293D02*
X155404917Y-96810000D01*
X156211210Y-106631210D02*
X156211210Y-97616293D01*
X181235001Y-131655001D02*
X156211210Y-106631210D01*
%TO.N,GND*%
X191700000Y-85830000D02*
X190600000Y-85830000D01*
X168175000Y-86460000D02*
X168175000Y-84035000D01*
X168175000Y-84035000D02*
X168150000Y-84010000D01*
X175600000Y-84180000D02*
X175620000Y-84160000D01*
X198740000Y-115165000D02*
X198740000Y-115815000D01*
X193145000Y-113215000D02*
X193170000Y-113240000D01*
X191640000Y-113215000D02*
X193145000Y-113215000D01*
X197590000Y-110615000D02*
X198740000Y-110615000D01*
X197065000Y-112565000D02*
X197040000Y-112590000D01*
X198740000Y-112565000D02*
X197065000Y-112565000D01*
D20*
X182265000Y-84065000D02*
X182200000Y-84000000D01*
X182265000Y-86050000D02*
X182265000Y-84065000D01*
X175630000Y-84170000D02*
X175620000Y-84160000D01*
D19*
X163360000Y-119820000D02*
X163390000Y-119790000D01*
X163360000Y-120950000D02*
X163360000Y-119820000D01*
X161770000Y-120950000D02*
X161330000Y-121390000D01*
X163360000Y-120950000D02*
X161770000Y-120950000D01*
X178700000Y-104680000D02*
X178700000Y-106450000D01*
X180050000Y-104680000D02*
X180100000Y-104730000D01*
X178700000Y-104680000D02*
X180050000Y-104680000D01*
X171780000Y-110990000D02*
X171770000Y-110980000D01*
X172970000Y-110990000D02*
X171780000Y-110990000D01*
X171770000Y-111300000D02*
X171019995Y-112050005D01*
X171770000Y-110980000D02*
X171770000Y-111300000D01*
X207995000Y-88740000D02*
X208450000Y-88740000D01*
X206415000Y-87160000D02*
X207995000Y-88740000D01*
X186240000Y-92230000D02*
X186410000Y-92400000D01*
X186240000Y-90250000D02*
X186240000Y-92230000D01*
X192940000Y-88090000D02*
X193870000Y-87160000D01*
X192940000Y-88175000D02*
X192940000Y-88090000D01*
X200295000Y-115815000D02*
X200310000Y-115800000D01*
X194885000Y-86145000D02*
X193870000Y-87160000D01*
X194885000Y-85390000D02*
X194885000Y-86145000D01*
X198740000Y-115815000D02*
X200295000Y-115815000D01*
X160590000Y-83945320D02*
X160617660Y-83917660D01*
X160590000Y-85830000D02*
X160590000Y-83945320D01*
D20*
X177760000Y-85460000D02*
X177760000Y-84520000D01*
D19*
X196945000Y-110615000D02*
X196940000Y-110620000D01*
X198740000Y-110615000D02*
X196945000Y-110615000D01*
X191700000Y-85830000D02*
X192338371Y-85830000D01*
X192338371Y-85830000D02*
X192573361Y-85595010D01*
%TO.N,Net-(C808-Pad1)*%
X192480000Y-124365000D02*
X193105000Y-124365000D01*
X199110000Y-130370000D02*
X201130000Y-130370000D01*
X193105000Y-124365000D02*
X199110000Y-130370000D01*
%TD*%
D23*
%TO.N,GND*%
X197950804Y-130981400D02*
X191231865Y-130981400D01*
X193316887Y-128896379D01*
X193495560Y-128860839D01*
X193773456Y-128745730D01*
X194023556Y-128578619D01*
X194236249Y-128365926D01*
X194403360Y-128115826D01*
X194518469Y-127837930D01*
X194566394Y-127596990D01*
X197950804Y-130981400D01*
%TA.AperFunction,Conductor*%
D24*
G36*
X197950804Y-130981400D02*
G01*
X191231865Y-130981400D01*
X193316887Y-128896379D01*
X193495560Y-128860839D01*
X193773456Y-128745730D01*
X194023556Y-128578619D01*
X194236249Y-128365926D01*
X194403360Y-128115826D01*
X194518469Y-127837930D01*
X194566394Y-127596990D01*
X197950804Y-130981400D01*
G37*
%TD.AperFunction*%
D23*
X164775544Y-116966139D02*
X164556694Y-117056790D01*
X164306594Y-117223901D01*
X164093901Y-117436594D01*
X163926790Y-117686694D01*
X163811681Y-117964590D01*
X163753000Y-118259604D01*
X163753000Y-118435323D01*
X163723053Y-118444407D01*
X163503063Y-118561994D01*
X163310240Y-118720240D01*
X163161153Y-118901903D01*
X163104250Y-118845000D01*
X162982652Y-118854765D01*
X162863122Y-118891623D01*
X162753079Y-118951092D01*
X162656753Y-119030887D01*
X162577844Y-119127941D01*
X162519386Y-119238524D01*
X162483625Y-119358387D01*
X162471935Y-119482923D01*
X162475000Y-119504250D01*
X162633750Y-119663000D01*
X162937547Y-119663000D01*
X162937547Y-119917000D01*
X162633750Y-119917000D01*
X162475000Y-120075750D01*
X162471935Y-120097077D01*
X162483625Y-120221613D01*
X162519386Y-120341476D01*
X162519465Y-120341625D01*
X162489386Y-120398524D01*
X162453625Y-120518387D01*
X162441935Y-120642923D01*
X162445000Y-120664250D01*
X162603750Y-120823000D01*
X162907547Y-120823000D01*
X162907547Y-121077000D01*
X162603750Y-121077000D01*
X162445000Y-121235750D01*
X162441935Y-121257077D01*
X162453625Y-121381613D01*
X162489386Y-121501476D01*
X162547844Y-121612059D01*
X162626753Y-121709113D01*
X162723079Y-121788908D01*
X162833122Y-121848377D01*
X162952652Y-121885235D01*
X163074250Y-121895000D01*
X163131153Y-121838097D01*
X163280240Y-122019760D01*
X163296789Y-122033342D01*
X163204590Y-122051681D01*
X162926694Y-122166790D01*
X162676594Y-122333901D01*
X162463901Y-122546594D01*
X162296790Y-122796694D01*
X162181681Y-123074590D01*
X162123000Y-123369604D01*
X162123000Y-123670396D01*
X162181681Y-123965410D01*
X162296790Y-124243306D01*
X162463901Y-124493406D01*
X162676594Y-124706099D01*
X162926694Y-124873210D01*
X163204590Y-124988319D01*
X163383264Y-125023859D01*
X164758000Y-126398596D01*
X164758001Y-126985221D01*
X164656790Y-127136694D01*
X164541681Y-127414590D01*
X164483000Y-127709604D01*
X164483000Y-128010396D01*
X164541681Y-128305410D01*
X164656790Y-128583306D01*
X164823901Y-128833406D01*
X165036594Y-129046099D01*
X165286694Y-129213210D01*
X165564590Y-129328319D01*
X165859604Y-129387000D01*
X166160396Y-129387000D01*
X166455410Y-129328319D01*
X166733306Y-129213210D01*
X166983406Y-129046099D01*
X167196099Y-128833406D01*
X167363210Y-128583306D01*
X167478319Y-128305410D01*
X167537000Y-128010396D01*
X167537000Y-127709604D01*
X167478319Y-127414590D01*
X167363210Y-127136694D01*
X167262000Y-126985222D01*
X167262000Y-125941495D01*
X167268057Y-125879999D01*
X167262000Y-125818502D01*
X167243884Y-125634565D01*
X167172293Y-125398562D01*
X167056036Y-125181061D01*
X166959916Y-125063938D01*
X166938783Y-125038187D01*
X166899581Y-124990419D01*
X166851814Y-124951218D01*
X166168944Y-124268348D01*
X166200710Y-124220806D01*
X166315819Y-123942910D01*
X166374500Y-123647896D01*
X166374500Y-123347104D01*
X166315819Y-123052090D01*
X166200710Y-122774194D01*
X166186968Y-122753627D01*
X166971809Y-121968786D01*
X167019581Y-121929581D01*
X167176036Y-121738939D01*
X167292293Y-121521438D01*
X167363884Y-121285435D01*
X167382000Y-121101498D01*
X167382000Y-121101496D01*
X167388057Y-121040000D01*
X167382000Y-120978504D01*
X167382000Y-119572595D01*
X178790805Y-130981400D01*
X128997000Y-130981400D01*
X128997000Y-126275951D01*
X129002944Y-126215600D01*
X128979223Y-125974752D01*
X128908970Y-125743160D01*
X128794886Y-125529724D01*
X128641354Y-125342646D01*
X128454276Y-125189114D01*
X128240840Y-125075030D01*
X128009248Y-125004777D01*
X127828752Y-124987000D01*
X127828751Y-124987000D01*
X127768400Y-124981056D01*
X127708048Y-124987000D01*
X124018600Y-124987000D01*
X124018600Y-124519604D01*
X136493000Y-124519604D01*
X136493000Y-124820396D01*
X136551681Y-125115410D01*
X136666790Y-125393306D01*
X136833901Y-125643406D01*
X137046594Y-125856099D01*
X137296694Y-126023210D01*
X137574590Y-126138319D01*
X137869604Y-126197000D01*
X137923584Y-126197000D01*
X137776790Y-126416694D01*
X137661681Y-126694590D01*
X137603000Y-126989604D01*
X137603000Y-127290396D01*
X137661681Y-127585410D01*
X137776790Y-127863306D01*
X137943901Y-128113406D01*
X137947140Y-128116645D01*
X137806790Y-128326694D01*
X137691681Y-128604590D01*
X137633000Y-128899604D01*
X137633000Y-129200396D01*
X137691681Y-129495410D01*
X137806790Y-129773306D01*
X137973901Y-130023406D01*
X138186594Y-130236099D01*
X138436694Y-130403210D01*
X138714590Y-130518319D01*
X139009604Y-130577000D01*
X139310396Y-130577000D01*
X139605410Y-130518319D01*
X139883306Y-130403210D01*
X140133406Y-130236099D01*
X140346099Y-130023406D01*
X140513210Y-129773306D01*
X140628319Y-129495410D01*
X140687000Y-129200396D01*
X140687000Y-128899604D01*
X140628319Y-128604590D01*
X140513210Y-128326694D01*
X140346099Y-128076594D01*
X140342860Y-128073355D01*
X140483210Y-127863306D01*
X140598319Y-127585410D01*
X140657000Y-127290396D01*
X140657000Y-126989604D01*
X140598319Y-126694590D01*
X140483210Y-126416694D01*
X140316099Y-126166594D01*
X140103406Y-125953901D01*
X139853306Y-125786790D01*
X139575410Y-125671681D01*
X139280396Y-125613000D01*
X139226416Y-125613000D01*
X139373210Y-125393306D01*
X139488319Y-125115410D01*
X139547000Y-124820396D01*
X139547000Y-124519604D01*
X139488319Y-124224590D01*
X139373210Y-123946694D01*
X139206099Y-123696594D01*
X138993406Y-123483901D01*
X138743306Y-123316790D01*
X138465410Y-123201681D01*
X138170396Y-123143000D01*
X137869604Y-123143000D01*
X137574590Y-123201681D01*
X137296694Y-123316790D01*
X137046594Y-123483901D01*
X136833901Y-123696594D01*
X136666790Y-123946694D01*
X136551681Y-124224590D01*
X136493000Y-124519604D01*
X124018600Y-124519604D01*
X124018600Y-122439604D01*
X154463000Y-122439604D01*
X154463000Y-122740396D01*
X154521681Y-123035410D01*
X154636790Y-123313306D01*
X154803901Y-123563406D01*
X155016594Y-123776099D01*
X155266694Y-123943210D01*
X155544590Y-124058319D01*
X155839604Y-124117000D01*
X156140396Y-124117000D01*
X156435410Y-124058319D01*
X156713306Y-123943210D01*
X156963406Y-123776099D01*
X157176099Y-123563406D01*
X157343210Y-123313306D01*
X157458319Y-123035410D01*
X157517000Y-122740396D01*
X157517000Y-122623279D01*
X157606694Y-122683210D01*
X157884590Y-122798319D01*
X158179604Y-122857000D01*
X158480396Y-122857000D01*
X158775410Y-122798319D01*
X159053306Y-122683210D01*
X159303406Y-122516099D01*
X159516099Y-122303406D01*
X159683210Y-122053306D01*
X159798319Y-121775410D01*
X159857000Y-121480396D01*
X159857000Y-121179604D01*
X159798319Y-120884590D01*
X159683210Y-120606694D01*
X159516099Y-120356594D01*
X159303406Y-120143901D01*
X159053306Y-119976790D01*
X158775410Y-119861681D01*
X158480396Y-119803000D01*
X158179604Y-119803000D01*
X157884590Y-119861681D01*
X157606694Y-119976790D01*
X157356594Y-120143901D01*
X157143901Y-120356594D01*
X156976790Y-120606694D01*
X156861681Y-120884590D01*
X156803000Y-121179604D01*
X156803000Y-121296721D01*
X156713306Y-121236790D01*
X156435410Y-121121681D01*
X156140396Y-121063000D01*
X155839604Y-121063000D01*
X155544590Y-121121681D01*
X155266694Y-121236790D01*
X155016594Y-121403901D01*
X154803901Y-121616594D01*
X154636790Y-121866694D01*
X154521681Y-122144590D01*
X154463000Y-122439604D01*
X124018600Y-122439604D01*
X124018600Y-116979400D01*
X155724249Y-116979400D01*
X155784600Y-116985344D01*
X155917498Y-116972255D01*
X156025448Y-116961623D01*
X156257040Y-116891370D01*
X156470476Y-116777286D01*
X156657554Y-116623754D01*
X156811086Y-116436676D01*
X156925170Y-116223240D01*
X156995423Y-115991648D01*
X157008001Y-115863938D01*
X157013200Y-115811152D01*
X157019144Y-115750800D01*
X157013200Y-115690448D01*
X157013200Y-109203795D01*
X164775544Y-116966139D01*
%TA.AperFunction,Conductor*%
D24*
G36*
X164775544Y-116966139D02*
G01*
X164556694Y-117056790D01*
X164306594Y-117223901D01*
X164093901Y-117436594D01*
X163926790Y-117686694D01*
X163811681Y-117964590D01*
X163753000Y-118259604D01*
X163753000Y-118435323D01*
X163723053Y-118444407D01*
X163503063Y-118561994D01*
X163310240Y-118720240D01*
X163161153Y-118901903D01*
X163104250Y-118845000D01*
X162982652Y-118854765D01*
X162863122Y-118891623D01*
X162753079Y-118951092D01*
X162656753Y-119030887D01*
X162577844Y-119127941D01*
X162519386Y-119238524D01*
X162483625Y-119358387D01*
X162471935Y-119482923D01*
X162475000Y-119504250D01*
X162633750Y-119663000D01*
X162937547Y-119663000D01*
X162937547Y-119917000D01*
X162633750Y-119917000D01*
X162475000Y-120075750D01*
X162471935Y-120097077D01*
X162483625Y-120221613D01*
X162519386Y-120341476D01*
X162519465Y-120341625D01*
X162489386Y-120398524D01*
X162453625Y-120518387D01*
X162441935Y-120642923D01*
X162445000Y-120664250D01*
X162603750Y-120823000D01*
X162907547Y-120823000D01*
X162907547Y-121077000D01*
X162603750Y-121077000D01*
X162445000Y-121235750D01*
X162441935Y-121257077D01*
X162453625Y-121381613D01*
X162489386Y-121501476D01*
X162547844Y-121612059D01*
X162626753Y-121709113D01*
X162723079Y-121788908D01*
X162833122Y-121848377D01*
X162952652Y-121885235D01*
X163074250Y-121895000D01*
X163131153Y-121838097D01*
X163280240Y-122019760D01*
X163296789Y-122033342D01*
X163204590Y-122051681D01*
X162926694Y-122166790D01*
X162676594Y-122333901D01*
X162463901Y-122546594D01*
X162296790Y-122796694D01*
X162181681Y-123074590D01*
X162123000Y-123369604D01*
X162123000Y-123670396D01*
X162181681Y-123965410D01*
X162296790Y-124243306D01*
X162463901Y-124493406D01*
X162676594Y-124706099D01*
X162926694Y-124873210D01*
X163204590Y-124988319D01*
X163383264Y-125023859D01*
X164758000Y-126398596D01*
X164758001Y-126985221D01*
X164656790Y-127136694D01*
X164541681Y-127414590D01*
X164483000Y-127709604D01*
X164483000Y-128010396D01*
X164541681Y-128305410D01*
X164656790Y-128583306D01*
X164823901Y-128833406D01*
X165036594Y-129046099D01*
X165286694Y-129213210D01*
X165564590Y-129328319D01*
X165859604Y-129387000D01*
X166160396Y-129387000D01*
X166455410Y-129328319D01*
X166733306Y-129213210D01*
X166983406Y-129046099D01*
X167196099Y-128833406D01*
X167363210Y-128583306D01*
X167478319Y-128305410D01*
X167537000Y-128010396D01*
X167537000Y-127709604D01*
X167478319Y-127414590D01*
X167363210Y-127136694D01*
X167262000Y-126985222D01*
X167262000Y-125941495D01*
X167268057Y-125879999D01*
X167262000Y-125818502D01*
X167243884Y-125634565D01*
X167172293Y-125398562D01*
X167056036Y-125181061D01*
X166959916Y-125063938D01*
X166938783Y-125038187D01*
X166899581Y-124990419D01*
X166851814Y-124951218D01*
X166168944Y-124268348D01*
X166200710Y-124220806D01*
X166315819Y-123942910D01*
X166374500Y-123647896D01*
X166374500Y-123347104D01*
X166315819Y-123052090D01*
X166200710Y-122774194D01*
X166186968Y-122753627D01*
X166971809Y-121968786D01*
X167019581Y-121929581D01*
X167176036Y-121738939D01*
X167292293Y-121521438D01*
X167363884Y-121285435D01*
X167382000Y-121101498D01*
X167382000Y-121101496D01*
X167388057Y-121040000D01*
X167382000Y-120978504D01*
X167382000Y-119572595D01*
X178790805Y-130981400D01*
X128997000Y-130981400D01*
X128997000Y-126275951D01*
X129002944Y-126215600D01*
X128979223Y-125974752D01*
X128908970Y-125743160D01*
X128794886Y-125529724D01*
X128641354Y-125342646D01*
X128454276Y-125189114D01*
X128240840Y-125075030D01*
X128009248Y-125004777D01*
X127828752Y-124987000D01*
X127828751Y-124987000D01*
X127768400Y-124981056D01*
X127708048Y-124987000D01*
X124018600Y-124987000D01*
X124018600Y-124519604D01*
X136493000Y-124519604D01*
X136493000Y-124820396D01*
X136551681Y-125115410D01*
X136666790Y-125393306D01*
X136833901Y-125643406D01*
X137046594Y-125856099D01*
X137296694Y-126023210D01*
X137574590Y-126138319D01*
X137869604Y-126197000D01*
X137923584Y-126197000D01*
X137776790Y-126416694D01*
X137661681Y-126694590D01*
X137603000Y-126989604D01*
X137603000Y-127290396D01*
X137661681Y-127585410D01*
X137776790Y-127863306D01*
X137943901Y-128113406D01*
X137947140Y-128116645D01*
X137806790Y-128326694D01*
X137691681Y-128604590D01*
X137633000Y-128899604D01*
X137633000Y-129200396D01*
X137691681Y-129495410D01*
X137806790Y-129773306D01*
X137973901Y-130023406D01*
X138186594Y-130236099D01*
X138436694Y-130403210D01*
X138714590Y-130518319D01*
X139009604Y-130577000D01*
X139310396Y-130577000D01*
X139605410Y-130518319D01*
X139883306Y-130403210D01*
X140133406Y-130236099D01*
X140346099Y-130023406D01*
X140513210Y-129773306D01*
X140628319Y-129495410D01*
X140687000Y-129200396D01*
X140687000Y-128899604D01*
X140628319Y-128604590D01*
X140513210Y-128326694D01*
X140346099Y-128076594D01*
X140342860Y-128073355D01*
X140483210Y-127863306D01*
X140598319Y-127585410D01*
X140657000Y-127290396D01*
X140657000Y-126989604D01*
X140598319Y-126694590D01*
X140483210Y-126416694D01*
X140316099Y-126166594D01*
X140103406Y-125953901D01*
X139853306Y-125786790D01*
X139575410Y-125671681D01*
X139280396Y-125613000D01*
X139226416Y-125613000D01*
X139373210Y-125393306D01*
X139488319Y-125115410D01*
X139547000Y-124820396D01*
X139547000Y-124519604D01*
X139488319Y-124224590D01*
X139373210Y-123946694D01*
X139206099Y-123696594D01*
X138993406Y-123483901D01*
X138743306Y-123316790D01*
X138465410Y-123201681D01*
X138170396Y-123143000D01*
X137869604Y-123143000D01*
X137574590Y-123201681D01*
X137296694Y-123316790D01*
X137046594Y-123483901D01*
X136833901Y-123696594D01*
X136666790Y-123946694D01*
X136551681Y-124224590D01*
X136493000Y-124519604D01*
X124018600Y-124519604D01*
X124018600Y-122439604D01*
X154463000Y-122439604D01*
X154463000Y-122740396D01*
X154521681Y-123035410D01*
X154636790Y-123313306D01*
X154803901Y-123563406D01*
X155016594Y-123776099D01*
X155266694Y-123943210D01*
X155544590Y-124058319D01*
X155839604Y-124117000D01*
X156140396Y-124117000D01*
X156435410Y-124058319D01*
X156713306Y-123943210D01*
X156963406Y-123776099D01*
X157176099Y-123563406D01*
X157343210Y-123313306D01*
X157458319Y-123035410D01*
X157517000Y-122740396D01*
X157517000Y-122623279D01*
X157606694Y-122683210D01*
X157884590Y-122798319D01*
X158179604Y-122857000D01*
X158480396Y-122857000D01*
X158775410Y-122798319D01*
X159053306Y-122683210D01*
X159303406Y-122516099D01*
X159516099Y-122303406D01*
X159683210Y-122053306D01*
X159798319Y-121775410D01*
X159857000Y-121480396D01*
X159857000Y-121179604D01*
X159798319Y-120884590D01*
X159683210Y-120606694D01*
X159516099Y-120356594D01*
X159303406Y-120143901D01*
X159053306Y-119976790D01*
X158775410Y-119861681D01*
X158480396Y-119803000D01*
X158179604Y-119803000D01*
X157884590Y-119861681D01*
X157606694Y-119976790D01*
X157356594Y-120143901D01*
X157143901Y-120356594D01*
X156976790Y-120606694D01*
X156861681Y-120884590D01*
X156803000Y-121179604D01*
X156803000Y-121296721D01*
X156713306Y-121236790D01*
X156435410Y-121121681D01*
X156140396Y-121063000D01*
X155839604Y-121063000D01*
X155544590Y-121121681D01*
X155266694Y-121236790D01*
X155016594Y-121403901D01*
X154803901Y-121616594D01*
X154636790Y-121866694D01*
X154521681Y-122144590D01*
X154463000Y-122439604D01*
X124018600Y-122439604D01*
X124018600Y-116979400D01*
X155724249Y-116979400D01*
X155784600Y-116985344D01*
X155917498Y-116972255D01*
X156025448Y-116961623D01*
X156257040Y-116891370D01*
X156470476Y-116777286D01*
X156657554Y-116623754D01*
X156811086Y-116436676D01*
X156925170Y-116223240D01*
X156995423Y-115991648D01*
X157008001Y-115863938D01*
X157013200Y-115811152D01*
X157019144Y-115750800D01*
X157013200Y-115690448D01*
X157013200Y-109203795D01*
X164775544Y-116966139D01*
G37*
%TD.AperFunction*%
D23*
X202561928Y-82650000D02*
X202565000Y-83714250D01*
X202723750Y-83873000D01*
X203648000Y-83873000D01*
X203648000Y-83853000D01*
X203902000Y-83853000D01*
X203902000Y-83873000D01*
X204826250Y-83873000D01*
X204985000Y-83714250D01*
X204988072Y-82650000D01*
X204979444Y-82562400D01*
X206753001Y-82562400D01*
X206753000Y-85402750D01*
X206702000Y-85453750D01*
X206702000Y-87153000D01*
X206722000Y-87153000D01*
X206722000Y-87407000D01*
X206702000Y-87407000D01*
X206702000Y-89106250D01*
X206860750Y-89265000D01*
X207150000Y-89268072D01*
X207274482Y-89255812D01*
X207394180Y-89219502D01*
X207504494Y-89160537D01*
X207601185Y-89081185D01*
X207680537Y-88984494D01*
X207739502Y-88874180D01*
X207775812Y-88754482D01*
X207788072Y-88630000D01*
X207787823Y-88543659D01*
X207981600Y-88562744D01*
X208041951Y-88556800D01*
X209751703Y-88556800D01*
X209750897Y-88558745D01*
X209673001Y-88950357D01*
X209673001Y-89349641D01*
X209750897Y-89741253D01*
X209903697Y-90110144D01*
X210013850Y-90274999D01*
X209903697Y-90439854D01*
X209750897Y-90808745D01*
X209673001Y-91200357D01*
X209673001Y-91599641D01*
X209750897Y-91991253D01*
X209903697Y-92360144D01*
X210125527Y-92692136D01*
X210407864Y-92974473D01*
X210739856Y-93196303D01*
X211108747Y-93349103D01*
X211500359Y-93426999D01*
X211756801Y-93426999D01*
X211756800Y-124987000D01*
X208041952Y-124987000D01*
X207981600Y-124981056D01*
X207921249Y-124987000D01*
X207921248Y-124987000D01*
X207740752Y-125004777D01*
X207509160Y-125075030D01*
X207374639Y-125146933D01*
X207360922Y-125055867D01*
X207267636Y-124796977D01*
X207205656Y-124681020D01*
X206965567Y-124614041D01*
X207081977Y-124497631D01*
X207028803Y-124444457D01*
X207204167Y-124327282D01*
X207467282Y-124064167D01*
X207674010Y-123754777D01*
X207816407Y-123411001D01*
X207889000Y-123046050D01*
X207889000Y-122673950D01*
X207816407Y-122308999D01*
X207674010Y-121965223D01*
X207467282Y-121655833D01*
X207401449Y-121590000D01*
X207467282Y-121524167D01*
X207674010Y-121214777D01*
X207816407Y-120871001D01*
X207889000Y-120506050D01*
X207889000Y-120133950D01*
X207816407Y-119768999D01*
X207674010Y-119425223D01*
X207511494Y-119182001D01*
X207990505Y-119182001D01*
X208052001Y-119188058D01*
X208113497Y-119182001D01*
X208113499Y-119182001D01*
X208297436Y-119163885D01*
X208533439Y-119092294D01*
X208750940Y-118976037D01*
X208941582Y-118819582D01*
X208980789Y-118771808D01*
X209491805Y-118260791D01*
X209539582Y-118221582D01*
X209696037Y-118030940D01*
X209812294Y-117813439D01*
X209883885Y-117577436D01*
X209902001Y-117393499D01*
X209902001Y-117393497D01*
X209908058Y-117332001D01*
X209902001Y-117270505D01*
X209902001Y-115451496D01*
X209908058Y-115390000D01*
X209897808Y-115285931D01*
X209883885Y-115144566D01*
X209812294Y-114908563D01*
X209696037Y-114691062D01*
X209539582Y-114500420D01*
X209491814Y-114461218D01*
X209452000Y-114421404D01*
X209452000Y-114047745D01*
X209376986Y-113670623D01*
X209229840Y-113315381D01*
X209016217Y-112995672D01*
X208744328Y-112723783D01*
X208424619Y-112510160D01*
X208069377Y-112363014D01*
X207692255Y-112288000D01*
X207307745Y-112288000D01*
X206930623Y-112363014D01*
X206575381Y-112510160D01*
X206255672Y-112723783D01*
X206230000Y-112749455D01*
X206204328Y-112723783D01*
X205884619Y-112510160D01*
X205529377Y-112363014D01*
X205152255Y-112288000D01*
X204767745Y-112288000D01*
X204390623Y-112363014D01*
X204035381Y-112510160D01*
X203971202Y-112553043D01*
X203874157Y-112473400D01*
X203678371Y-112368750D01*
X203465931Y-112304307D01*
X203245000Y-112282547D01*
X201938144Y-112282547D01*
X201438331Y-111782734D01*
X201598210Y-111543458D01*
X201713319Y-111265562D01*
X201772000Y-110970548D01*
X201772000Y-110669756D01*
X201713319Y-110374742D01*
X201598210Y-110096846D01*
X201459488Y-109889234D01*
X203141810Y-108206913D01*
X203320483Y-108171373D01*
X203598379Y-108056264D01*
X203848479Y-107889153D01*
X204061172Y-107676460D01*
X204228283Y-107426360D01*
X204237263Y-107404679D01*
X205073000Y-107404679D01*
X205073000Y-107715321D01*
X205133604Y-108019994D01*
X205252481Y-108306989D01*
X205425064Y-108565279D01*
X205644721Y-108784936D01*
X205903011Y-108957519D01*
X206190006Y-109076396D01*
X206494679Y-109137000D01*
X206805321Y-109137000D01*
X207109994Y-109076396D01*
X207396989Y-108957519D01*
X207655279Y-108784936D01*
X207874936Y-108565279D01*
X208047519Y-108306989D01*
X208166396Y-108019994D01*
X208227000Y-107715321D01*
X208227000Y-107404679D01*
X208166396Y-107100006D01*
X208047519Y-106813011D01*
X207874936Y-106554721D01*
X207655279Y-106335064D01*
X207396989Y-106162481D01*
X207109994Y-106043604D01*
X206805321Y-105983000D01*
X206494679Y-105983000D01*
X206190006Y-106043604D01*
X205903011Y-106162481D01*
X205644721Y-106335064D01*
X205425064Y-106554721D01*
X205252481Y-106813011D01*
X205133604Y-107100006D01*
X205073000Y-107404679D01*
X204237263Y-107404679D01*
X204343392Y-107148464D01*
X204402073Y-106853450D01*
X204402073Y-106552658D01*
X204343392Y-106257644D01*
X204228283Y-105979748D01*
X204061172Y-105729648D01*
X203848479Y-105516955D01*
X203825583Y-105501656D01*
X203798319Y-105364590D01*
X203683210Y-105086694D01*
X203516099Y-104836594D01*
X203303406Y-104623901D01*
X203053306Y-104456790D01*
X202775410Y-104341681D01*
X202480396Y-104283000D01*
X202179604Y-104283000D01*
X201884590Y-104341681D01*
X201606694Y-104456790D01*
X201356594Y-104623901D01*
X201143901Y-104836594D01*
X200976790Y-105086694D01*
X200861681Y-105364590D01*
X200815654Y-105595990D01*
X200660400Y-105531681D01*
X200365386Y-105473000D01*
X200064594Y-105473000D01*
X199769580Y-105531681D01*
X199491684Y-105646790D01*
X199241584Y-105813901D01*
X199028891Y-106026594D01*
X198861780Y-106276694D01*
X198746671Y-106554590D01*
X198687990Y-106849604D01*
X198687990Y-107150396D01*
X198719249Y-107307547D01*
X197840000Y-107307547D01*
X197619069Y-107329307D01*
X197406629Y-107393750D01*
X197210843Y-107498400D01*
X197039235Y-107639235D01*
X196898400Y-107810843D01*
X196793750Y-108006629D01*
X196729307Y-108219069D01*
X196707547Y-108440000D01*
X196707547Y-108890000D01*
X196717396Y-108990000D01*
X196707547Y-109090000D01*
X196707547Y-109540000D01*
X196717396Y-109640000D01*
X196707547Y-109740000D01*
X196707547Y-110070281D01*
X196577651Y-110070281D01*
X196492000Y-110087318D01*
X196492000Y-109101495D01*
X196498057Y-109039999D01*
X196489933Y-108957519D01*
X196473884Y-108794565D01*
X196402293Y-108558562D01*
X196289047Y-108346694D01*
X196286036Y-108341060D01*
X196205893Y-108243406D01*
X196129581Y-108150419D01*
X196081808Y-108111213D01*
X193270199Y-105299604D01*
X194853000Y-105299604D01*
X194853000Y-105600396D01*
X194911681Y-105895410D01*
X195026790Y-106173306D01*
X195193901Y-106423406D01*
X195406594Y-106636099D01*
X195656694Y-106803210D01*
X195934590Y-106918319D01*
X196229604Y-106977000D01*
X196530396Y-106977000D01*
X196825410Y-106918319D01*
X197103306Y-106803210D01*
X197353406Y-106636099D01*
X197566099Y-106423406D01*
X197733210Y-106173306D01*
X197848319Y-105895410D01*
X197907000Y-105600396D01*
X197907000Y-105299604D01*
X197848319Y-105004590D01*
X197733210Y-104726694D01*
X197566099Y-104476594D01*
X197353406Y-104263901D01*
X197103306Y-104096790D01*
X196825410Y-103981681D01*
X196530396Y-103923000D01*
X196229604Y-103923000D01*
X195934590Y-103981681D01*
X195656694Y-104096790D01*
X195406594Y-104263901D01*
X195193901Y-104476594D01*
X195026790Y-104726694D01*
X194911681Y-105004590D01*
X194853000Y-105299604D01*
X193270199Y-105299604D01*
X192873859Y-104903264D01*
X192838319Y-104724590D01*
X192723210Y-104446694D01*
X192556099Y-104196594D01*
X192343406Y-103983901D01*
X192224842Y-103904679D01*
X205073000Y-103904679D01*
X205073000Y-104215321D01*
X205133604Y-104519994D01*
X205252481Y-104806989D01*
X205425064Y-105065279D01*
X205644721Y-105284936D01*
X205903011Y-105457519D01*
X206190006Y-105576396D01*
X206494679Y-105637000D01*
X206805321Y-105637000D01*
X207109994Y-105576396D01*
X207396989Y-105457519D01*
X207655279Y-105284936D01*
X207874936Y-105065279D01*
X208047519Y-104806989D01*
X208166396Y-104519994D01*
X208227000Y-104215321D01*
X208227000Y-103904679D01*
X208166396Y-103600006D01*
X208047519Y-103313011D01*
X207874936Y-103054721D01*
X207655279Y-102835064D01*
X207396989Y-102662481D01*
X207109994Y-102543604D01*
X206805321Y-102483000D01*
X206494679Y-102483000D01*
X206190006Y-102543604D01*
X205903011Y-102662481D01*
X205644721Y-102835064D01*
X205425064Y-103054721D01*
X205252481Y-103313011D01*
X205133604Y-103600006D01*
X205073000Y-103904679D01*
X192224842Y-103904679D01*
X192093306Y-103816790D01*
X191815410Y-103701681D01*
X191520396Y-103643000D01*
X191219604Y-103643000D01*
X190924590Y-103701681D01*
X190646694Y-103816790D01*
X190396594Y-103983901D01*
X190252000Y-104128495D01*
X190252000Y-103774778D01*
X190353210Y-103623306D01*
X190468319Y-103345410D01*
X190527000Y-103050396D01*
X190527000Y-102749604D01*
X190468319Y-102454590D01*
X190353210Y-102176694D01*
X190186099Y-101926594D01*
X189973406Y-101713901D01*
X189723306Y-101546790D01*
X189445410Y-101431681D01*
X189150396Y-101373000D01*
X188849604Y-101373000D01*
X188554590Y-101431681D01*
X188276694Y-101546790D01*
X188026594Y-101713901D01*
X187813901Y-101926594D01*
X187646790Y-102176694D01*
X187531681Y-102454590D01*
X187473000Y-102749604D01*
X187473000Y-103050396D01*
X187531681Y-103345410D01*
X187646790Y-103623306D01*
X187748000Y-103774778D01*
X187748001Y-109423539D01*
X187728319Y-109324590D01*
X187613210Y-109046694D01*
X187446099Y-108796594D01*
X187233406Y-108583901D01*
X186983306Y-108416790D01*
X186705410Y-108301681D01*
X186410396Y-108243000D01*
X186109604Y-108243000D01*
X185814590Y-108301681D01*
X185536694Y-108416790D01*
X185286594Y-108583901D01*
X185073901Y-108796594D01*
X184906790Y-109046694D01*
X184791681Y-109324590D01*
X184733000Y-109619604D01*
X184733000Y-109920396D01*
X184791681Y-110215410D01*
X184906790Y-110493306D01*
X185073901Y-110743406D01*
X185286594Y-110956099D01*
X185536694Y-111123210D01*
X185814590Y-111238319D01*
X186109604Y-111297000D01*
X186410396Y-111297000D01*
X186705410Y-111238319D01*
X186983306Y-111123210D01*
X187055570Y-111074925D01*
X186843901Y-111286594D01*
X186676790Y-111536694D01*
X186561681Y-111814590D01*
X186526141Y-111993264D01*
X186123191Y-112396214D01*
X186075418Y-112435420D01*
X185918963Y-112626063D01*
X185802706Y-112843564D01*
X185731115Y-113079567D01*
X185714945Y-113243750D01*
X185706942Y-113325001D01*
X185712999Y-113386497D01*
X185713000Y-117426496D01*
X185706942Y-117488001D01*
X185731116Y-117733435D01*
X185802706Y-117969438D01*
X185918963Y-118186939D01*
X186032275Y-118325010D01*
X186075419Y-118377582D01*
X186123187Y-118416784D01*
X186873221Y-119166818D01*
X186912427Y-119214591D01*
X187026932Y-119308562D01*
X187103068Y-119371046D01*
X187160383Y-119401681D01*
X187320570Y-119487303D01*
X187556573Y-119558894D01*
X187740510Y-119577010D01*
X187740511Y-119577010D01*
X187802007Y-119583067D01*
X187863503Y-119577010D01*
X188607197Y-119577010D01*
X188696790Y-119793306D01*
X188863901Y-120043406D01*
X189076594Y-120256099D01*
X189326694Y-120423210D01*
X189604590Y-120538319D01*
X189899604Y-120597000D01*
X190200396Y-120597000D01*
X190495410Y-120538319D01*
X190773306Y-120423210D01*
X191023406Y-120256099D01*
X191236099Y-120043406D01*
X191323338Y-119912843D01*
X191526594Y-120116099D01*
X191776694Y-120283210D01*
X192054590Y-120398319D01*
X192349604Y-120457000D01*
X192650396Y-120457000D01*
X192945410Y-120398319D01*
X193223306Y-120283210D01*
X193473406Y-120116099D01*
X193686099Y-119903406D01*
X193853210Y-119653306D01*
X193968319Y-119375410D01*
X194006790Y-119182001D01*
X199882251Y-119182001D01*
X199833000Y-119429604D01*
X199833000Y-119730396D01*
X199891681Y-120025410D01*
X200006790Y-120303306D01*
X200173901Y-120553406D01*
X200386594Y-120766099D01*
X200636694Y-120933210D01*
X200914590Y-121048319D01*
X201209604Y-121107000D01*
X201510396Y-121107000D01*
X201805410Y-121048319D01*
X202083306Y-120933210D01*
X202333406Y-120766099D01*
X202546099Y-120553406D01*
X202713210Y-120303306D01*
X202828319Y-120025410D01*
X202887000Y-119730396D01*
X202887000Y-119429604D01*
X202837749Y-119182001D01*
X204488506Y-119182001D01*
X204325990Y-119425223D01*
X204183593Y-119768999D01*
X204111000Y-120133950D01*
X204111000Y-120506050D01*
X204183593Y-120871001D01*
X204325990Y-121214777D01*
X204532718Y-121524167D01*
X204598551Y-121590000D01*
X204532718Y-121655833D01*
X204325990Y-121965223D01*
X204183593Y-122308999D01*
X204111000Y-122673950D01*
X204111000Y-123046050D01*
X204183593Y-123411001D01*
X204325990Y-123754777D01*
X204532718Y-124064167D01*
X204795833Y-124327282D01*
X204971197Y-124444457D01*
X204918023Y-124497631D01*
X205034433Y-124614041D01*
X204794344Y-124681020D01*
X204677244Y-124930048D01*
X204610977Y-125197135D01*
X204598090Y-125472017D01*
X204639078Y-125744133D01*
X204732364Y-126003023D01*
X204794344Y-126118980D01*
X205034435Y-126185960D01*
X205820395Y-125400000D01*
X205806253Y-125385858D01*
X205985858Y-125206253D01*
X206000000Y-125220395D01*
X206014143Y-125206253D01*
X206193748Y-125385858D01*
X206179605Y-125400000D01*
X206193748Y-125414143D01*
X206014143Y-125593748D01*
X206000000Y-125579605D01*
X205214040Y-126365565D01*
X205281020Y-126605656D01*
X205530048Y-126722756D01*
X205797135Y-126789023D01*
X206072017Y-126801910D01*
X206344133Y-126760922D01*
X206603023Y-126667636D01*
X206718980Y-126605656D01*
X206753001Y-126483707D01*
X206753000Y-130981400D01*
X202529563Y-130981400D01*
X202598319Y-130815410D01*
X202657000Y-130520396D01*
X202657000Y-130219604D01*
X202598319Y-129924590D01*
X202483210Y-129646694D01*
X202316099Y-129396594D01*
X202103406Y-129183901D01*
X201853306Y-129016790D01*
X201575410Y-128901681D01*
X201280396Y-128843000D01*
X200979604Y-128843000D01*
X200684590Y-128901681D01*
X200406694Y-129016790D01*
X200255222Y-129118000D01*
X199628596Y-129118000D01*
X197003442Y-126492847D01*
X197073406Y-126446099D01*
X197286099Y-126233406D01*
X197453210Y-125983306D01*
X197568319Y-125705410D01*
X197627000Y-125410396D01*
X197627000Y-125109604D01*
X197568319Y-124814590D01*
X197453210Y-124536694D01*
X197286099Y-124286594D01*
X197073406Y-124073901D01*
X196823306Y-123906790D01*
X196545410Y-123791681D01*
X196250396Y-123733000D01*
X195949604Y-123733000D01*
X195654590Y-123791681D01*
X195376694Y-123906790D01*
X195126594Y-124073901D01*
X194913901Y-124286594D01*
X194867153Y-124356558D01*
X194033787Y-123523192D01*
X193994581Y-123475419D01*
X193803939Y-123318964D01*
X193586438Y-123202707D01*
X193408045Y-123148592D01*
X193203306Y-123011790D01*
X192925410Y-122896681D01*
X192630396Y-122838000D01*
X192329604Y-122838000D01*
X192034590Y-122896681D01*
X191756694Y-123011790D01*
X191506594Y-123178901D01*
X191293901Y-123391594D01*
X191126790Y-123641694D01*
X191011681Y-123919590D01*
X190953000Y-124214604D01*
X190953000Y-124515396D01*
X191011681Y-124810410D01*
X191126790Y-125088306D01*
X191293901Y-125338406D01*
X191506594Y-125551099D01*
X191756694Y-125718210D01*
X192034590Y-125833319D01*
X192329604Y-125892000D01*
X192630396Y-125892000D01*
X192823079Y-125853674D01*
X192845681Y-125876276D01*
X192604740Y-125924201D01*
X192326844Y-126039310D01*
X192076744Y-126206421D01*
X191864051Y-126419114D01*
X191696940Y-126669214D01*
X191581831Y-126947110D01*
X191546291Y-127125783D01*
X189597000Y-129075075D01*
X189597000Y-129049604D01*
X189538319Y-128754590D01*
X189423210Y-128476694D01*
X189256099Y-128226594D01*
X189043406Y-128013901D01*
X188793306Y-127846790D01*
X188515410Y-127731681D01*
X188220396Y-127673000D01*
X187919604Y-127673000D01*
X187624590Y-127731681D01*
X187346694Y-127846790D01*
X187096594Y-128013901D01*
X186883901Y-128226594D01*
X186716790Y-128476694D01*
X186601681Y-128754590D01*
X186543000Y-129049604D01*
X186543000Y-129350396D01*
X186601681Y-129645410D01*
X186615180Y-129678000D01*
X182795594Y-129678000D01*
X182628548Y-129510955D01*
X182666099Y-129473404D01*
X182815297Y-129250112D01*
X183025410Y-129208319D01*
X183303306Y-129093210D01*
X183553406Y-128926099D01*
X183766099Y-128713406D01*
X183933210Y-128463306D01*
X184048319Y-128185410D01*
X184107000Y-127890396D01*
X184107000Y-127589604D01*
X184048319Y-127294590D01*
X184021388Y-127229574D01*
X184086694Y-127273210D01*
X184364590Y-127388319D01*
X184659604Y-127447000D01*
X184960396Y-127447000D01*
X185255410Y-127388319D01*
X185533306Y-127273210D01*
X185783406Y-127106099D01*
X185996099Y-126893406D01*
X186163210Y-126643306D01*
X186278319Y-126365410D01*
X186337000Y-126070396D01*
X186337000Y-125769604D01*
X186278319Y-125474590D01*
X186163210Y-125196694D01*
X185996099Y-124946594D01*
X185783406Y-124733901D01*
X185533306Y-124566790D01*
X185255410Y-124451681D01*
X184960396Y-124393000D01*
X184659604Y-124393000D01*
X184364590Y-124451681D01*
X184086694Y-124566790D01*
X183836594Y-124733901D01*
X183832000Y-124738495D01*
X183832000Y-120363211D01*
X183966694Y-120453210D01*
X184244590Y-120568319D01*
X184539604Y-120627000D01*
X184840396Y-120627000D01*
X185135410Y-120568319D01*
X185413306Y-120453210D01*
X185663406Y-120286099D01*
X185876099Y-120073406D01*
X186043210Y-119823306D01*
X186158319Y-119545410D01*
X186217000Y-119250396D01*
X186217000Y-118949604D01*
X186158319Y-118654590D01*
X186043210Y-118376694D01*
X185876099Y-118126594D01*
X185663406Y-117913901D01*
X185413306Y-117746790D01*
X185135410Y-117631681D01*
X184840396Y-117573000D01*
X184539604Y-117573000D01*
X184244590Y-117631681D01*
X183966694Y-117746790D01*
X183832000Y-117836789D01*
X183832000Y-112991496D01*
X183838057Y-112930000D01*
X183831622Y-112864666D01*
X183813884Y-112684565D01*
X183742293Y-112448562D01*
X183626036Y-112231061D01*
X183469581Y-112040419D01*
X183421808Y-112001213D01*
X178423859Y-107003264D01*
X178388319Y-106824590D01*
X178273210Y-106546694D01*
X178106099Y-106296594D01*
X177893406Y-106083901D01*
X177643306Y-105916790D01*
X177365410Y-105801681D01*
X177070396Y-105743000D01*
X176769604Y-105743000D01*
X176474590Y-105801681D01*
X176362000Y-105848318D01*
X176362000Y-104740128D01*
X177036977Y-104065151D01*
X177267010Y-104160434D01*
X177299808Y-104166958D01*
X177354407Y-104346947D01*
X177471994Y-104566937D01*
X177630240Y-104759760D01*
X177811903Y-104908847D01*
X177755000Y-104965750D01*
X177764765Y-105087348D01*
X177801623Y-105206878D01*
X177861092Y-105316921D01*
X177940887Y-105413247D01*
X178037941Y-105492156D01*
X178148524Y-105550614D01*
X178268387Y-105586375D01*
X178392923Y-105598065D01*
X178414250Y-105595000D01*
X178573000Y-105436250D01*
X178573000Y-105132453D01*
X178827000Y-105132453D01*
X178827000Y-105436250D01*
X178985750Y-105595000D01*
X179007077Y-105598065D01*
X179131613Y-105586375D01*
X179251476Y-105550614D01*
X179362059Y-105492156D01*
X179369251Y-105486308D01*
X179437941Y-105542156D01*
X179548524Y-105600614D01*
X179668387Y-105636375D01*
X179792923Y-105648065D01*
X179814250Y-105645000D01*
X179973000Y-105486250D01*
X179973000Y-105182453D01*
X180227000Y-105182453D01*
X180227000Y-105486250D01*
X180385750Y-105645000D01*
X180389780Y-105645579D01*
X180401681Y-105705410D01*
X180516790Y-105983306D01*
X180683901Y-106233406D01*
X180896594Y-106446099D01*
X181146694Y-106613210D01*
X181424590Y-106728319D01*
X181719604Y-106787000D01*
X182020396Y-106787000D01*
X182315410Y-106728319D01*
X182593306Y-106613210D01*
X182823000Y-106459734D01*
X182823000Y-106530396D01*
X182881681Y-106825410D01*
X182996790Y-107103306D01*
X183163901Y-107353406D01*
X183376594Y-107566099D01*
X183626694Y-107733210D01*
X183904590Y-107848319D01*
X184199604Y-107907000D01*
X184500396Y-107907000D01*
X184795410Y-107848319D01*
X185073306Y-107733210D01*
X185323406Y-107566099D01*
X185536099Y-107353406D01*
X185703210Y-107103306D01*
X185818319Y-106825410D01*
X185877000Y-106530396D01*
X185877000Y-106229604D01*
X185818319Y-105934590D01*
X185703210Y-105656694D01*
X185536099Y-105406594D01*
X185323406Y-105193901D01*
X185073306Y-105026790D01*
X184795410Y-104911681D01*
X184500396Y-104853000D01*
X184199604Y-104853000D01*
X183904590Y-104911681D01*
X183626694Y-105026790D01*
X183397000Y-105180266D01*
X183397000Y-105109604D01*
X183338319Y-104814590D01*
X183223210Y-104536694D01*
X183056099Y-104286594D01*
X182843406Y-104073901D01*
X182593306Y-103906790D01*
X182315410Y-103791681D01*
X182020396Y-103733000D01*
X181893463Y-103733000D01*
X181946036Y-103668939D01*
X182062293Y-103451438D01*
X182133884Y-103215434D01*
X182136604Y-103187820D01*
X182253210Y-103013306D01*
X182368319Y-102735410D01*
X182427000Y-102440396D01*
X182427000Y-102139604D01*
X182368319Y-101844590D01*
X182253210Y-101566694D01*
X182086099Y-101316594D01*
X181874876Y-101105371D01*
X182003210Y-100913306D01*
X182084524Y-100716999D01*
X182098091Y-100716999D01*
X182178005Y-100724870D01*
X182257919Y-100716999D01*
X182257930Y-100716999D01*
X182496953Y-100693457D01*
X182803643Y-100600424D01*
X183086291Y-100449345D01*
X183334034Y-100246028D01*
X183384985Y-100183944D01*
X184263708Y-99305221D01*
X184233000Y-99459604D01*
X184233000Y-99760396D01*
X184244645Y-99818938D01*
X184056694Y-99896790D01*
X183806594Y-100063901D01*
X183593901Y-100276594D01*
X183426790Y-100526694D01*
X183311681Y-100804590D01*
X183253000Y-101099604D01*
X183253000Y-101400396D01*
X183311681Y-101695410D01*
X183426790Y-101973306D01*
X183502769Y-102087016D01*
X183452953Y-102207281D01*
X183394272Y-102502295D01*
X183394272Y-102803087D01*
X183452953Y-103098101D01*
X183568062Y-103375997D01*
X183735173Y-103626097D01*
X183947866Y-103838790D01*
X184197966Y-104005901D01*
X184475862Y-104121010D01*
X184770876Y-104179691D01*
X185071668Y-104179691D01*
X185366682Y-104121010D01*
X185644578Y-104005901D01*
X185894678Y-103838790D01*
X186107371Y-103626097D01*
X186274482Y-103375997D01*
X186389591Y-103098101D01*
X186448272Y-102803087D01*
X186448272Y-102502295D01*
X186389591Y-102207281D01*
X186274482Y-101929385D01*
X186198503Y-101815675D01*
X186248319Y-101695410D01*
X186307000Y-101400396D01*
X186307000Y-101139604D01*
X190383000Y-101139604D01*
X190383000Y-101440396D01*
X190441681Y-101735410D01*
X190556790Y-102013306D01*
X190723901Y-102263406D01*
X190936594Y-102476099D01*
X191186694Y-102643210D01*
X191464590Y-102758319D01*
X191759604Y-102817000D01*
X192060396Y-102817000D01*
X192355410Y-102758319D01*
X192633306Y-102643210D01*
X192883406Y-102476099D01*
X193096099Y-102263406D01*
X193263210Y-102013306D01*
X193378319Y-101735410D01*
X193437000Y-101440396D01*
X193437000Y-101139604D01*
X193378319Y-100844590D01*
X193263210Y-100566694D01*
X193096099Y-100316594D01*
X193009109Y-100229604D01*
X199523000Y-100229604D01*
X199523000Y-100530396D01*
X199581681Y-100825410D01*
X199696790Y-101103306D01*
X199863901Y-101353406D01*
X200076594Y-101566099D01*
X200326694Y-101733210D01*
X200604590Y-101848319D01*
X200899604Y-101907000D01*
X201200396Y-101907000D01*
X201495410Y-101848319D01*
X201773306Y-101733210D01*
X202023406Y-101566099D01*
X202236099Y-101353406D01*
X202403210Y-101103306D01*
X202518319Y-100825410D01*
X202577000Y-100530396D01*
X202577000Y-100229604D01*
X202518319Y-99934590D01*
X202403210Y-99656694D01*
X202236099Y-99406594D01*
X202023406Y-99193901D01*
X201773306Y-99026790D01*
X201495410Y-98911681D01*
X201200396Y-98853000D01*
X200899604Y-98853000D01*
X200604590Y-98911681D01*
X200326694Y-99026790D01*
X200076594Y-99193901D01*
X199863901Y-99406594D01*
X199696790Y-99656694D01*
X199581681Y-99934590D01*
X199523000Y-100229604D01*
X193009109Y-100229604D01*
X192883406Y-100103901D01*
X192633306Y-99936790D01*
X192355410Y-99821681D01*
X192060396Y-99763000D01*
X191759604Y-99763000D01*
X191464590Y-99821681D01*
X191186694Y-99936790D01*
X190936594Y-100103901D01*
X190723901Y-100316594D01*
X190556790Y-100566694D01*
X190441681Y-100844590D01*
X190383000Y-101139604D01*
X186307000Y-101139604D01*
X186307000Y-101099604D01*
X186295355Y-101041062D01*
X186483306Y-100963210D01*
X186733406Y-100796099D01*
X186946099Y-100583406D01*
X187113210Y-100333306D01*
X187122320Y-100311312D01*
X187203901Y-100433406D01*
X187416594Y-100646099D01*
X187666694Y-100813210D01*
X187944590Y-100928319D01*
X188239604Y-100987000D01*
X188540396Y-100987000D01*
X188835410Y-100928319D01*
X189113306Y-100813210D01*
X189363406Y-100646099D01*
X189576099Y-100433406D01*
X189743210Y-100183306D01*
X189858319Y-99905410D01*
X189917000Y-99610396D01*
X189917000Y-99309604D01*
X189858319Y-99014590D01*
X189743210Y-98736694D01*
X189576099Y-98486594D01*
X189363406Y-98273901D01*
X189113306Y-98106790D01*
X188835410Y-97991681D01*
X188540396Y-97933000D01*
X188239604Y-97933000D01*
X187944590Y-97991681D01*
X187666694Y-98106790D01*
X187416594Y-98273901D01*
X187203901Y-98486594D01*
X187036790Y-98736694D01*
X187027680Y-98758688D01*
X186946099Y-98636594D01*
X186733406Y-98423901D01*
X186483306Y-98256790D01*
X186205410Y-98141681D01*
X185910396Y-98083000D01*
X185609604Y-98083000D01*
X185314590Y-98141681D01*
X185036694Y-98256790D01*
X184867826Y-98369623D01*
X184888309Y-98302101D01*
X184911851Y-98063078D01*
X184911851Y-98063077D01*
X184919723Y-97983153D01*
X184911851Y-97903228D01*
X184911851Y-95700000D01*
X184966928Y-95700000D01*
X184979188Y-95824482D01*
X185015498Y-95944180D01*
X185074463Y-96054494D01*
X185153815Y-96151185D01*
X185250506Y-96230537D01*
X185360820Y-96289502D01*
X185480518Y-96325812D01*
X185605000Y-96338072D01*
X185894250Y-96335000D01*
X186053000Y-96176250D01*
X186053000Y-94477000D01*
X186307000Y-94477000D01*
X186307000Y-96176250D01*
X186465750Y-96335000D01*
X186755000Y-96338072D01*
X186879482Y-96325812D01*
X186999180Y-96289502D01*
X187109494Y-96230537D01*
X187206185Y-96151185D01*
X187285537Y-96054494D01*
X187344502Y-95944180D01*
X187380812Y-95824482D01*
X187393072Y-95700000D01*
X187390000Y-94635750D01*
X187231250Y-94477000D01*
X186307000Y-94477000D01*
X186053000Y-94477000D01*
X185128750Y-94477000D01*
X184970000Y-94635750D01*
X184966928Y-95700000D01*
X184911851Y-95700000D01*
X184911851Y-93000000D01*
X184966928Y-93000000D01*
X184970000Y-94064250D01*
X185128750Y-94223000D01*
X186053000Y-94223000D01*
X186053000Y-92523750D01*
X186307000Y-92523750D01*
X186307000Y-94223000D01*
X187231250Y-94223000D01*
X187390000Y-94064250D01*
X187393072Y-93000000D01*
X187380812Y-92875518D01*
X187344502Y-92755820D01*
X187285537Y-92645506D01*
X187206185Y-92548815D01*
X187109494Y-92469463D01*
X186999180Y-92410498D01*
X186879482Y-92374188D01*
X186755000Y-92361928D01*
X186465750Y-92365000D01*
X186307000Y-92523750D01*
X186053000Y-92523750D01*
X185894250Y-92365000D01*
X185605000Y-92361928D01*
X185480518Y-92374188D01*
X185360820Y-92410498D01*
X185250506Y-92469463D01*
X185153815Y-92548815D01*
X185074463Y-92645506D01*
X185015498Y-92755820D01*
X184979188Y-92875518D01*
X184966928Y-93000000D01*
X184911851Y-93000000D01*
X184911851Y-91600000D01*
X185026928Y-91600000D01*
X185039188Y-91724482D01*
X185075498Y-91844180D01*
X185134463Y-91954494D01*
X185213815Y-92051185D01*
X185310506Y-92130537D01*
X185420820Y-92189502D01*
X185540518Y-92225812D01*
X185665000Y-92238072D01*
X185954250Y-92235000D01*
X186113000Y-92076250D01*
X186113000Y-90377000D01*
X186367000Y-90377000D01*
X186367000Y-92076250D01*
X186525750Y-92235000D01*
X186815000Y-92238072D01*
X186939482Y-92225812D01*
X187059180Y-92189502D01*
X187169494Y-92130537D01*
X187266185Y-92051185D01*
X187345537Y-91954494D01*
X187404502Y-91844180D01*
X187440812Y-91724482D01*
X187453072Y-91600000D01*
X187450000Y-90535750D01*
X187291250Y-90377000D01*
X186367000Y-90377000D01*
X186113000Y-90377000D01*
X185188750Y-90377000D01*
X185030000Y-90535750D01*
X185026928Y-91600000D01*
X184911851Y-91600000D01*
X184911851Y-89826763D01*
X184919722Y-89746848D01*
X184911851Y-89666934D01*
X184911851Y-89666924D01*
X184888309Y-89427901D01*
X184795276Y-89121211D01*
X184644197Y-88838563D01*
X184605983Y-88791999D01*
X184491829Y-88652901D01*
X184491826Y-88652898D01*
X184463620Y-88618529D01*
X184604999Y-88632453D01*
X185087988Y-88632453D01*
X185075498Y-88655820D01*
X185039188Y-88775518D01*
X185026928Y-88900000D01*
X185030000Y-89964250D01*
X185188750Y-90123000D01*
X186113000Y-90123000D01*
X186113000Y-90103000D01*
X186367000Y-90103000D01*
X186367000Y-90123000D01*
X187291250Y-90123000D01*
X187450000Y-89964250D01*
X187452100Y-89236584D01*
X187482547Y-89242640D01*
X187482547Y-91350001D01*
X187509110Y-91619704D01*
X187587780Y-91879042D01*
X187715532Y-92118050D01*
X187836298Y-92265203D01*
X187827458Y-92272458D01*
X187655532Y-92481950D01*
X187527780Y-92720958D01*
X187449110Y-92980296D01*
X187422547Y-93249999D01*
X187422547Y-95450001D01*
X187448288Y-95711361D01*
X187351681Y-95944590D01*
X187293000Y-96239604D01*
X187293000Y-96540396D01*
X187351681Y-96835410D01*
X187466790Y-97113306D01*
X187633901Y-97363406D01*
X187846594Y-97576099D01*
X188096694Y-97743210D01*
X188374590Y-97858319D01*
X188669604Y-97917000D01*
X188970396Y-97917000D01*
X189265410Y-97858319D01*
X189383210Y-97809524D01*
X189430654Y-97898286D01*
X189633971Y-98146029D01*
X189881714Y-98349346D01*
X190164362Y-98500425D01*
X190471052Y-98593458D01*
X190710075Y-98617000D01*
X191275771Y-98617000D01*
X191355685Y-98624871D01*
X191435599Y-98617000D01*
X191435610Y-98617000D01*
X191674633Y-98593458D01*
X191981323Y-98500425D01*
X192263971Y-98349346D01*
X192511714Y-98146029D01*
X192562665Y-98083945D01*
X192794157Y-97852453D01*
X193160000Y-97852453D01*
X193380931Y-97830693D01*
X193593371Y-97766250D01*
X193789157Y-97661600D01*
X193960765Y-97520765D01*
X194101600Y-97349157D01*
X194206250Y-97153371D01*
X194270693Y-96940931D01*
X194292453Y-96720000D01*
X194292453Y-93220000D01*
X194270693Y-92999069D01*
X194206250Y-92786629D01*
X194101600Y-92590843D01*
X193960765Y-92419235D01*
X193789157Y-92278400D01*
X193593371Y-92173750D01*
X193380931Y-92109307D01*
X193160000Y-92087547D01*
X192493049Y-92087547D01*
X193186737Y-91393859D01*
X193365410Y-91358319D01*
X193643306Y-91243210D01*
X193893406Y-91076099D01*
X194106099Y-90863406D01*
X194273210Y-90613306D01*
X194388319Y-90335410D01*
X194447000Y-90040396D01*
X194447000Y-89739604D01*
X194388319Y-89444590D01*
X194273210Y-89166694D01*
X194106099Y-88916594D01*
X193893406Y-88703901D01*
X193643306Y-88536790D01*
X193365410Y-88421681D01*
X193070396Y-88363000D01*
X192769604Y-88363000D01*
X192474590Y-88421681D01*
X192196694Y-88536790D01*
X192161093Y-88560578D01*
X192093210Y-88396694D01*
X191926099Y-88146594D01*
X191713406Y-87933901D01*
X191463306Y-87766790D01*
X191185410Y-87651681D01*
X190890396Y-87593000D01*
X190589604Y-87593000D01*
X190294590Y-87651681D01*
X190016694Y-87766790D01*
X189916137Y-87833980D01*
X189784704Y-87794110D01*
X189515001Y-87767547D01*
X189207000Y-87767547D01*
X189207000Y-87574604D01*
X189148319Y-87279590D01*
X189033210Y-87001694D01*
X188952082Y-86880277D01*
X189113960Y-86831172D01*
X189370549Y-86694022D01*
X189595452Y-86509450D01*
X189641711Y-86453083D01*
X189714355Y-86380439D01*
X189761092Y-86466921D01*
X189840887Y-86563247D01*
X189937941Y-86642156D01*
X190048524Y-86700614D01*
X190168387Y-86736375D01*
X190292923Y-86748065D01*
X190314250Y-86745000D01*
X190473000Y-86586250D01*
X190473000Y-86351639D01*
X190527444Y-86357001D01*
X190727000Y-86357001D01*
X190727000Y-86586250D01*
X190885750Y-86745000D01*
X190907077Y-86748065D01*
X191031613Y-86736375D01*
X191150000Y-86701054D01*
X191268387Y-86736375D01*
X191392923Y-86748065D01*
X191414250Y-86745000D01*
X191573000Y-86586250D01*
X191573000Y-86347000D01*
X191627447Y-86347000D01*
X191700000Y-86354146D01*
X191772553Y-86347000D01*
X191772556Y-86347000D01*
X191827000Y-86341638D01*
X191827000Y-86586250D01*
X191985750Y-86745000D01*
X192007077Y-86748065D01*
X192131613Y-86736375D01*
X192251476Y-86700614D01*
X192362059Y-86642156D01*
X192459113Y-86563247D01*
X192538908Y-86466921D01*
X192598377Y-86356878D01*
X192635235Y-86237348D01*
X192645000Y-86115750D01*
X192588097Y-86058847D01*
X192769760Y-85909760D01*
X192864624Y-85794169D01*
X193209680Y-85449113D01*
X193303778Y-85467830D01*
X193624268Y-85467830D01*
X193675000Y-85457739D01*
X193675000Y-85517002D01*
X193833748Y-85517002D01*
X193675000Y-85675750D01*
X193671928Y-86740000D01*
X193684188Y-86864482D01*
X193720498Y-86984180D01*
X193779463Y-87094494D01*
X193858815Y-87191185D01*
X193955506Y-87270537D01*
X194065820Y-87329502D01*
X194185518Y-87365812D01*
X194310000Y-87378072D01*
X194599250Y-87375000D01*
X194758000Y-87216250D01*
X194758000Y-86103731D01*
X194761646Y-86115750D01*
X194797707Y-86234627D01*
X194913964Y-86452128D01*
X195012000Y-86571586D01*
X195012000Y-87216250D01*
X195170750Y-87375000D01*
X195460000Y-87378072D01*
X195584482Y-87365812D01*
X195704180Y-87329502D01*
X195744282Y-87308067D01*
X199448023Y-91011808D01*
X199487229Y-91059581D01*
X199677871Y-91216036D01*
X199895372Y-91332293D01*
X200131375Y-91403884D01*
X200315312Y-91422000D01*
X200315314Y-91422000D01*
X200376810Y-91428057D01*
X200438306Y-91422000D01*
X200915222Y-91422000D01*
X201066694Y-91523210D01*
X201344590Y-91638319D01*
X201639604Y-91697000D01*
X201940396Y-91697000D01*
X201998001Y-91685542D01*
X201998001Y-91831074D01*
X201741528Y-92087547D01*
X200160000Y-92087547D01*
X199939069Y-92109307D01*
X199726629Y-92173750D01*
X199530843Y-92278400D01*
X199359235Y-92419235D01*
X199218400Y-92590843D01*
X199113750Y-92786629D01*
X199049307Y-92999069D01*
X199027547Y-93220000D01*
X199027547Y-96720000D01*
X199049307Y-96940931D01*
X199113750Y-97153371D01*
X199218400Y-97349157D01*
X199359235Y-97520765D01*
X199530843Y-97661600D01*
X199726629Y-97766250D01*
X199939069Y-97830693D01*
X200160000Y-97852453D01*
X202160000Y-97852453D01*
X202380931Y-97830693D01*
X202593371Y-97766250D01*
X202789157Y-97661600D01*
X202960765Y-97520765D01*
X203101600Y-97349157D01*
X203206250Y-97153371D01*
X203270693Y-96940931D01*
X203292453Y-96720000D01*
X203292453Y-95138472D01*
X204081321Y-94349604D01*
X206083000Y-94349604D01*
X206083000Y-94650396D01*
X206141681Y-94945410D01*
X206256790Y-95223306D01*
X206423901Y-95473406D01*
X206636594Y-95686099D01*
X206886694Y-95853210D01*
X207164590Y-95968319D01*
X207459604Y-96027000D01*
X207760396Y-96027000D01*
X208055410Y-95968319D01*
X208333306Y-95853210D01*
X208583406Y-95686099D01*
X208796099Y-95473406D01*
X208963210Y-95223306D01*
X209078319Y-94945410D01*
X209137000Y-94650396D01*
X209137000Y-94349604D01*
X209078319Y-94054590D01*
X209019788Y-93913284D01*
X209118319Y-93675410D01*
X209177000Y-93380396D01*
X209177000Y-93079604D01*
X209118319Y-92784590D01*
X209003210Y-92506694D01*
X208836099Y-92256594D01*
X208623406Y-92043901D01*
X208373306Y-91876790D01*
X208095410Y-91761681D01*
X207800396Y-91703000D01*
X207499604Y-91703000D01*
X207204590Y-91761681D01*
X206926694Y-91876790D01*
X206676594Y-92043901D01*
X206463901Y-92256594D01*
X206296790Y-92506694D01*
X206181681Y-92784590D01*
X206123000Y-93079604D01*
X206123000Y-93380396D01*
X206181681Y-93675410D01*
X206240212Y-93816716D01*
X206141681Y-94054590D01*
X206083000Y-94349604D01*
X204081321Y-94349604D01*
X204718945Y-93711980D01*
X204781029Y-93661029D01*
X204984346Y-93413286D01*
X205135425Y-93130638D01*
X205228458Y-92823948D01*
X205252000Y-92584925D01*
X205252000Y-92584915D01*
X205259871Y-92505000D01*
X205252000Y-92425086D01*
X205252000Y-88827354D01*
X205305890Y-88649704D01*
X205307830Y-88630000D01*
X205361928Y-88630000D01*
X205374188Y-88754482D01*
X205410498Y-88874180D01*
X205469463Y-88984494D01*
X205548815Y-89081185D01*
X205645506Y-89160537D01*
X205755820Y-89219502D01*
X205875518Y-89255812D01*
X206000000Y-89268072D01*
X206289250Y-89265000D01*
X206448000Y-89106250D01*
X206448000Y-87407000D01*
X205523750Y-87407000D01*
X205365000Y-87565750D01*
X205361928Y-88630000D01*
X205307830Y-88630000D01*
X205332453Y-88380001D01*
X205332453Y-86179999D01*
X205307831Y-85930000D01*
X205361928Y-85930000D01*
X205365000Y-86994250D01*
X205523750Y-87153000D01*
X206448000Y-87153000D01*
X206448000Y-85453750D01*
X206289250Y-85295000D01*
X206000000Y-85291928D01*
X205875518Y-85304188D01*
X205755820Y-85340498D01*
X205645506Y-85399463D01*
X205548815Y-85478815D01*
X205469463Y-85575506D01*
X205410498Y-85685820D01*
X205374188Y-85805518D01*
X205361928Y-85930000D01*
X205307831Y-85930000D01*
X205305890Y-85910296D01*
X205227220Y-85650958D01*
X205099468Y-85411950D01*
X204987858Y-85275953D01*
X204985000Y-84285750D01*
X204826250Y-84127000D01*
X203902000Y-84127000D01*
X203902000Y-84147000D01*
X203648000Y-84147000D01*
X203648000Y-84127000D01*
X202723750Y-84127000D01*
X202565000Y-84285750D01*
X202562898Y-85013990D01*
X202532453Y-85030263D01*
X202532453Y-82899999D01*
X202505890Y-82630296D01*
X202485294Y-82562400D01*
X202570556Y-82562400D01*
X202561928Y-82650000D01*
%TA.AperFunction,Conductor*%
D24*
G36*
X202561928Y-82650000D02*
G01*
X202565000Y-83714250D01*
X202723750Y-83873000D01*
X203648000Y-83873000D01*
X203648000Y-83853000D01*
X203902000Y-83853000D01*
X203902000Y-83873000D01*
X204826250Y-83873000D01*
X204985000Y-83714250D01*
X204988072Y-82650000D01*
X204979444Y-82562400D01*
X206753001Y-82562400D01*
X206753000Y-85402750D01*
X206702000Y-85453750D01*
X206702000Y-87153000D01*
X206722000Y-87153000D01*
X206722000Y-87407000D01*
X206702000Y-87407000D01*
X206702000Y-89106250D01*
X206860750Y-89265000D01*
X207150000Y-89268072D01*
X207274482Y-89255812D01*
X207394180Y-89219502D01*
X207504494Y-89160537D01*
X207601185Y-89081185D01*
X207680537Y-88984494D01*
X207739502Y-88874180D01*
X207775812Y-88754482D01*
X207788072Y-88630000D01*
X207787823Y-88543659D01*
X207981600Y-88562744D01*
X208041951Y-88556800D01*
X209751703Y-88556800D01*
X209750897Y-88558745D01*
X209673001Y-88950357D01*
X209673001Y-89349641D01*
X209750897Y-89741253D01*
X209903697Y-90110144D01*
X210013850Y-90274999D01*
X209903697Y-90439854D01*
X209750897Y-90808745D01*
X209673001Y-91200357D01*
X209673001Y-91599641D01*
X209750897Y-91991253D01*
X209903697Y-92360144D01*
X210125527Y-92692136D01*
X210407864Y-92974473D01*
X210739856Y-93196303D01*
X211108747Y-93349103D01*
X211500359Y-93426999D01*
X211756801Y-93426999D01*
X211756800Y-124987000D01*
X208041952Y-124987000D01*
X207981600Y-124981056D01*
X207921249Y-124987000D01*
X207921248Y-124987000D01*
X207740752Y-125004777D01*
X207509160Y-125075030D01*
X207374639Y-125146933D01*
X207360922Y-125055867D01*
X207267636Y-124796977D01*
X207205656Y-124681020D01*
X206965567Y-124614041D01*
X207081977Y-124497631D01*
X207028803Y-124444457D01*
X207204167Y-124327282D01*
X207467282Y-124064167D01*
X207674010Y-123754777D01*
X207816407Y-123411001D01*
X207889000Y-123046050D01*
X207889000Y-122673950D01*
X207816407Y-122308999D01*
X207674010Y-121965223D01*
X207467282Y-121655833D01*
X207401449Y-121590000D01*
X207467282Y-121524167D01*
X207674010Y-121214777D01*
X207816407Y-120871001D01*
X207889000Y-120506050D01*
X207889000Y-120133950D01*
X207816407Y-119768999D01*
X207674010Y-119425223D01*
X207511494Y-119182001D01*
X207990505Y-119182001D01*
X208052001Y-119188058D01*
X208113497Y-119182001D01*
X208113499Y-119182001D01*
X208297436Y-119163885D01*
X208533439Y-119092294D01*
X208750940Y-118976037D01*
X208941582Y-118819582D01*
X208980789Y-118771808D01*
X209491805Y-118260791D01*
X209539582Y-118221582D01*
X209696037Y-118030940D01*
X209812294Y-117813439D01*
X209883885Y-117577436D01*
X209902001Y-117393499D01*
X209902001Y-117393497D01*
X209908058Y-117332001D01*
X209902001Y-117270505D01*
X209902001Y-115451496D01*
X209908058Y-115390000D01*
X209897808Y-115285931D01*
X209883885Y-115144566D01*
X209812294Y-114908563D01*
X209696037Y-114691062D01*
X209539582Y-114500420D01*
X209491814Y-114461218D01*
X209452000Y-114421404D01*
X209452000Y-114047745D01*
X209376986Y-113670623D01*
X209229840Y-113315381D01*
X209016217Y-112995672D01*
X208744328Y-112723783D01*
X208424619Y-112510160D01*
X208069377Y-112363014D01*
X207692255Y-112288000D01*
X207307745Y-112288000D01*
X206930623Y-112363014D01*
X206575381Y-112510160D01*
X206255672Y-112723783D01*
X206230000Y-112749455D01*
X206204328Y-112723783D01*
X205884619Y-112510160D01*
X205529377Y-112363014D01*
X205152255Y-112288000D01*
X204767745Y-112288000D01*
X204390623Y-112363014D01*
X204035381Y-112510160D01*
X203971202Y-112553043D01*
X203874157Y-112473400D01*
X203678371Y-112368750D01*
X203465931Y-112304307D01*
X203245000Y-112282547D01*
X201938144Y-112282547D01*
X201438331Y-111782734D01*
X201598210Y-111543458D01*
X201713319Y-111265562D01*
X201772000Y-110970548D01*
X201772000Y-110669756D01*
X201713319Y-110374742D01*
X201598210Y-110096846D01*
X201459488Y-109889234D01*
X203141810Y-108206913D01*
X203320483Y-108171373D01*
X203598379Y-108056264D01*
X203848479Y-107889153D01*
X204061172Y-107676460D01*
X204228283Y-107426360D01*
X204237263Y-107404679D01*
X205073000Y-107404679D01*
X205073000Y-107715321D01*
X205133604Y-108019994D01*
X205252481Y-108306989D01*
X205425064Y-108565279D01*
X205644721Y-108784936D01*
X205903011Y-108957519D01*
X206190006Y-109076396D01*
X206494679Y-109137000D01*
X206805321Y-109137000D01*
X207109994Y-109076396D01*
X207396989Y-108957519D01*
X207655279Y-108784936D01*
X207874936Y-108565279D01*
X208047519Y-108306989D01*
X208166396Y-108019994D01*
X208227000Y-107715321D01*
X208227000Y-107404679D01*
X208166396Y-107100006D01*
X208047519Y-106813011D01*
X207874936Y-106554721D01*
X207655279Y-106335064D01*
X207396989Y-106162481D01*
X207109994Y-106043604D01*
X206805321Y-105983000D01*
X206494679Y-105983000D01*
X206190006Y-106043604D01*
X205903011Y-106162481D01*
X205644721Y-106335064D01*
X205425064Y-106554721D01*
X205252481Y-106813011D01*
X205133604Y-107100006D01*
X205073000Y-107404679D01*
X204237263Y-107404679D01*
X204343392Y-107148464D01*
X204402073Y-106853450D01*
X204402073Y-106552658D01*
X204343392Y-106257644D01*
X204228283Y-105979748D01*
X204061172Y-105729648D01*
X203848479Y-105516955D01*
X203825583Y-105501656D01*
X203798319Y-105364590D01*
X203683210Y-105086694D01*
X203516099Y-104836594D01*
X203303406Y-104623901D01*
X203053306Y-104456790D01*
X202775410Y-104341681D01*
X202480396Y-104283000D01*
X202179604Y-104283000D01*
X201884590Y-104341681D01*
X201606694Y-104456790D01*
X201356594Y-104623901D01*
X201143901Y-104836594D01*
X200976790Y-105086694D01*
X200861681Y-105364590D01*
X200815654Y-105595990D01*
X200660400Y-105531681D01*
X200365386Y-105473000D01*
X200064594Y-105473000D01*
X199769580Y-105531681D01*
X199491684Y-105646790D01*
X199241584Y-105813901D01*
X199028891Y-106026594D01*
X198861780Y-106276694D01*
X198746671Y-106554590D01*
X198687990Y-106849604D01*
X198687990Y-107150396D01*
X198719249Y-107307547D01*
X197840000Y-107307547D01*
X197619069Y-107329307D01*
X197406629Y-107393750D01*
X197210843Y-107498400D01*
X197039235Y-107639235D01*
X196898400Y-107810843D01*
X196793750Y-108006629D01*
X196729307Y-108219069D01*
X196707547Y-108440000D01*
X196707547Y-108890000D01*
X196717396Y-108990000D01*
X196707547Y-109090000D01*
X196707547Y-109540000D01*
X196717396Y-109640000D01*
X196707547Y-109740000D01*
X196707547Y-110070281D01*
X196577651Y-110070281D01*
X196492000Y-110087318D01*
X196492000Y-109101495D01*
X196498057Y-109039999D01*
X196489933Y-108957519D01*
X196473884Y-108794565D01*
X196402293Y-108558562D01*
X196289047Y-108346694D01*
X196286036Y-108341060D01*
X196205893Y-108243406D01*
X196129581Y-108150419D01*
X196081808Y-108111213D01*
X193270199Y-105299604D01*
X194853000Y-105299604D01*
X194853000Y-105600396D01*
X194911681Y-105895410D01*
X195026790Y-106173306D01*
X195193901Y-106423406D01*
X195406594Y-106636099D01*
X195656694Y-106803210D01*
X195934590Y-106918319D01*
X196229604Y-106977000D01*
X196530396Y-106977000D01*
X196825410Y-106918319D01*
X197103306Y-106803210D01*
X197353406Y-106636099D01*
X197566099Y-106423406D01*
X197733210Y-106173306D01*
X197848319Y-105895410D01*
X197907000Y-105600396D01*
X197907000Y-105299604D01*
X197848319Y-105004590D01*
X197733210Y-104726694D01*
X197566099Y-104476594D01*
X197353406Y-104263901D01*
X197103306Y-104096790D01*
X196825410Y-103981681D01*
X196530396Y-103923000D01*
X196229604Y-103923000D01*
X195934590Y-103981681D01*
X195656694Y-104096790D01*
X195406594Y-104263901D01*
X195193901Y-104476594D01*
X195026790Y-104726694D01*
X194911681Y-105004590D01*
X194853000Y-105299604D01*
X193270199Y-105299604D01*
X192873859Y-104903264D01*
X192838319Y-104724590D01*
X192723210Y-104446694D01*
X192556099Y-104196594D01*
X192343406Y-103983901D01*
X192224842Y-103904679D01*
X205073000Y-103904679D01*
X205073000Y-104215321D01*
X205133604Y-104519994D01*
X205252481Y-104806989D01*
X205425064Y-105065279D01*
X205644721Y-105284936D01*
X205903011Y-105457519D01*
X206190006Y-105576396D01*
X206494679Y-105637000D01*
X206805321Y-105637000D01*
X207109994Y-105576396D01*
X207396989Y-105457519D01*
X207655279Y-105284936D01*
X207874936Y-105065279D01*
X208047519Y-104806989D01*
X208166396Y-104519994D01*
X208227000Y-104215321D01*
X208227000Y-103904679D01*
X208166396Y-103600006D01*
X208047519Y-103313011D01*
X207874936Y-103054721D01*
X207655279Y-102835064D01*
X207396989Y-102662481D01*
X207109994Y-102543604D01*
X206805321Y-102483000D01*
X206494679Y-102483000D01*
X206190006Y-102543604D01*
X205903011Y-102662481D01*
X205644721Y-102835064D01*
X205425064Y-103054721D01*
X205252481Y-103313011D01*
X205133604Y-103600006D01*
X205073000Y-103904679D01*
X192224842Y-103904679D01*
X192093306Y-103816790D01*
X191815410Y-103701681D01*
X191520396Y-103643000D01*
X191219604Y-103643000D01*
X190924590Y-103701681D01*
X190646694Y-103816790D01*
X190396594Y-103983901D01*
X190252000Y-104128495D01*
X190252000Y-103774778D01*
X190353210Y-103623306D01*
X190468319Y-103345410D01*
X190527000Y-103050396D01*
X190527000Y-102749604D01*
X190468319Y-102454590D01*
X190353210Y-102176694D01*
X190186099Y-101926594D01*
X189973406Y-101713901D01*
X189723306Y-101546790D01*
X189445410Y-101431681D01*
X189150396Y-101373000D01*
X188849604Y-101373000D01*
X188554590Y-101431681D01*
X188276694Y-101546790D01*
X188026594Y-101713901D01*
X187813901Y-101926594D01*
X187646790Y-102176694D01*
X187531681Y-102454590D01*
X187473000Y-102749604D01*
X187473000Y-103050396D01*
X187531681Y-103345410D01*
X187646790Y-103623306D01*
X187748000Y-103774778D01*
X187748001Y-109423539D01*
X187728319Y-109324590D01*
X187613210Y-109046694D01*
X187446099Y-108796594D01*
X187233406Y-108583901D01*
X186983306Y-108416790D01*
X186705410Y-108301681D01*
X186410396Y-108243000D01*
X186109604Y-108243000D01*
X185814590Y-108301681D01*
X185536694Y-108416790D01*
X185286594Y-108583901D01*
X185073901Y-108796594D01*
X184906790Y-109046694D01*
X184791681Y-109324590D01*
X184733000Y-109619604D01*
X184733000Y-109920396D01*
X184791681Y-110215410D01*
X184906790Y-110493306D01*
X185073901Y-110743406D01*
X185286594Y-110956099D01*
X185536694Y-111123210D01*
X185814590Y-111238319D01*
X186109604Y-111297000D01*
X186410396Y-111297000D01*
X186705410Y-111238319D01*
X186983306Y-111123210D01*
X187055570Y-111074925D01*
X186843901Y-111286594D01*
X186676790Y-111536694D01*
X186561681Y-111814590D01*
X186526141Y-111993264D01*
X186123191Y-112396214D01*
X186075418Y-112435420D01*
X185918963Y-112626063D01*
X185802706Y-112843564D01*
X185731115Y-113079567D01*
X185714945Y-113243750D01*
X185706942Y-113325001D01*
X185712999Y-113386497D01*
X185713000Y-117426496D01*
X185706942Y-117488001D01*
X185731116Y-117733435D01*
X185802706Y-117969438D01*
X185918963Y-118186939D01*
X186032275Y-118325010D01*
X186075419Y-118377582D01*
X186123187Y-118416784D01*
X186873221Y-119166818D01*
X186912427Y-119214591D01*
X187026932Y-119308562D01*
X187103068Y-119371046D01*
X187160383Y-119401681D01*
X187320570Y-119487303D01*
X187556573Y-119558894D01*
X187740510Y-119577010D01*
X187740511Y-119577010D01*
X187802007Y-119583067D01*
X187863503Y-119577010D01*
X188607197Y-119577010D01*
X188696790Y-119793306D01*
X188863901Y-120043406D01*
X189076594Y-120256099D01*
X189326694Y-120423210D01*
X189604590Y-120538319D01*
X189899604Y-120597000D01*
X190200396Y-120597000D01*
X190495410Y-120538319D01*
X190773306Y-120423210D01*
X191023406Y-120256099D01*
X191236099Y-120043406D01*
X191323338Y-119912843D01*
X191526594Y-120116099D01*
X191776694Y-120283210D01*
X192054590Y-120398319D01*
X192349604Y-120457000D01*
X192650396Y-120457000D01*
X192945410Y-120398319D01*
X193223306Y-120283210D01*
X193473406Y-120116099D01*
X193686099Y-119903406D01*
X193853210Y-119653306D01*
X193968319Y-119375410D01*
X194006790Y-119182001D01*
X199882251Y-119182001D01*
X199833000Y-119429604D01*
X199833000Y-119730396D01*
X199891681Y-120025410D01*
X200006790Y-120303306D01*
X200173901Y-120553406D01*
X200386594Y-120766099D01*
X200636694Y-120933210D01*
X200914590Y-121048319D01*
X201209604Y-121107000D01*
X201510396Y-121107000D01*
X201805410Y-121048319D01*
X202083306Y-120933210D01*
X202333406Y-120766099D01*
X202546099Y-120553406D01*
X202713210Y-120303306D01*
X202828319Y-120025410D01*
X202887000Y-119730396D01*
X202887000Y-119429604D01*
X202837749Y-119182001D01*
X204488506Y-119182001D01*
X204325990Y-119425223D01*
X204183593Y-119768999D01*
X204111000Y-120133950D01*
X204111000Y-120506050D01*
X204183593Y-120871001D01*
X204325990Y-121214777D01*
X204532718Y-121524167D01*
X204598551Y-121590000D01*
X204532718Y-121655833D01*
X204325990Y-121965223D01*
X204183593Y-122308999D01*
X204111000Y-122673950D01*
X204111000Y-123046050D01*
X204183593Y-123411001D01*
X204325990Y-123754777D01*
X204532718Y-124064167D01*
X204795833Y-124327282D01*
X204971197Y-124444457D01*
X204918023Y-124497631D01*
X205034433Y-124614041D01*
X204794344Y-124681020D01*
X204677244Y-124930048D01*
X204610977Y-125197135D01*
X204598090Y-125472017D01*
X204639078Y-125744133D01*
X204732364Y-126003023D01*
X204794344Y-126118980D01*
X205034435Y-126185960D01*
X205820395Y-125400000D01*
X205806253Y-125385858D01*
X205985858Y-125206253D01*
X206000000Y-125220395D01*
X206014143Y-125206253D01*
X206193748Y-125385858D01*
X206179605Y-125400000D01*
X206193748Y-125414143D01*
X206014143Y-125593748D01*
X206000000Y-125579605D01*
X205214040Y-126365565D01*
X205281020Y-126605656D01*
X205530048Y-126722756D01*
X205797135Y-126789023D01*
X206072017Y-126801910D01*
X206344133Y-126760922D01*
X206603023Y-126667636D01*
X206718980Y-126605656D01*
X206753001Y-126483707D01*
X206753000Y-130981400D01*
X202529563Y-130981400D01*
X202598319Y-130815410D01*
X202657000Y-130520396D01*
X202657000Y-130219604D01*
X202598319Y-129924590D01*
X202483210Y-129646694D01*
X202316099Y-129396594D01*
X202103406Y-129183901D01*
X201853306Y-129016790D01*
X201575410Y-128901681D01*
X201280396Y-128843000D01*
X200979604Y-128843000D01*
X200684590Y-128901681D01*
X200406694Y-129016790D01*
X200255222Y-129118000D01*
X199628596Y-129118000D01*
X197003442Y-126492847D01*
X197073406Y-126446099D01*
X197286099Y-126233406D01*
X197453210Y-125983306D01*
X197568319Y-125705410D01*
X197627000Y-125410396D01*
X197627000Y-125109604D01*
X197568319Y-124814590D01*
X197453210Y-124536694D01*
X197286099Y-124286594D01*
X197073406Y-124073901D01*
X196823306Y-123906790D01*
X196545410Y-123791681D01*
X196250396Y-123733000D01*
X195949604Y-123733000D01*
X195654590Y-123791681D01*
X195376694Y-123906790D01*
X195126594Y-124073901D01*
X194913901Y-124286594D01*
X194867153Y-124356558D01*
X194033787Y-123523192D01*
X193994581Y-123475419D01*
X193803939Y-123318964D01*
X193586438Y-123202707D01*
X193408045Y-123148592D01*
X193203306Y-123011790D01*
X192925410Y-122896681D01*
X192630396Y-122838000D01*
X192329604Y-122838000D01*
X192034590Y-122896681D01*
X191756694Y-123011790D01*
X191506594Y-123178901D01*
X191293901Y-123391594D01*
X191126790Y-123641694D01*
X191011681Y-123919590D01*
X190953000Y-124214604D01*
X190953000Y-124515396D01*
X191011681Y-124810410D01*
X191126790Y-125088306D01*
X191293901Y-125338406D01*
X191506594Y-125551099D01*
X191756694Y-125718210D01*
X192034590Y-125833319D01*
X192329604Y-125892000D01*
X192630396Y-125892000D01*
X192823079Y-125853674D01*
X192845681Y-125876276D01*
X192604740Y-125924201D01*
X192326844Y-126039310D01*
X192076744Y-126206421D01*
X191864051Y-126419114D01*
X191696940Y-126669214D01*
X191581831Y-126947110D01*
X191546291Y-127125783D01*
X189597000Y-129075075D01*
X189597000Y-129049604D01*
X189538319Y-128754590D01*
X189423210Y-128476694D01*
X189256099Y-128226594D01*
X189043406Y-128013901D01*
X188793306Y-127846790D01*
X188515410Y-127731681D01*
X188220396Y-127673000D01*
X187919604Y-127673000D01*
X187624590Y-127731681D01*
X187346694Y-127846790D01*
X187096594Y-128013901D01*
X186883901Y-128226594D01*
X186716790Y-128476694D01*
X186601681Y-128754590D01*
X186543000Y-129049604D01*
X186543000Y-129350396D01*
X186601681Y-129645410D01*
X186615180Y-129678000D01*
X182795594Y-129678000D01*
X182628548Y-129510955D01*
X182666099Y-129473404D01*
X182815297Y-129250112D01*
X183025410Y-129208319D01*
X183303306Y-129093210D01*
X183553406Y-128926099D01*
X183766099Y-128713406D01*
X183933210Y-128463306D01*
X184048319Y-128185410D01*
X184107000Y-127890396D01*
X184107000Y-127589604D01*
X184048319Y-127294590D01*
X184021388Y-127229574D01*
X184086694Y-127273210D01*
X184364590Y-127388319D01*
X184659604Y-127447000D01*
X184960396Y-127447000D01*
X185255410Y-127388319D01*
X185533306Y-127273210D01*
X185783406Y-127106099D01*
X185996099Y-126893406D01*
X186163210Y-126643306D01*
X186278319Y-126365410D01*
X186337000Y-126070396D01*
X186337000Y-125769604D01*
X186278319Y-125474590D01*
X186163210Y-125196694D01*
X185996099Y-124946594D01*
X185783406Y-124733901D01*
X185533306Y-124566790D01*
X185255410Y-124451681D01*
X184960396Y-124393000D01*
X184659604Y-124393000D01*
X184364590Y-124451681D01*
X184086694Y-124566790D01*
X183836594Y-124733901D01*
X183832000Y-124738495D01*
X183832000Y-120363211D01*
X183966694Y-120453210D01*
X184244590Y-120568319D01*
X184539604Y-120627000D01*
X184840396Y-120627000D01*
X185135410Y-120568319D01*
X185413306Y-120453210D01*
X185663406Y-120286099D01*
X185876099Y-120073406D01*
X186043210Y-119823306D01*
X186158319Y-119545410D01*
X186217000Y-119250396D01*
X186217000Y-118949604D01*
X186158319Y-118654590D01*
X186043210Y-118376694D01*
X185876099Y-118126594D01*
X185663406Y-117913901D01*
X185413306Y-117746790D01*
X185135410Y-117631681D01*
X184840396Y-117573000D01*
X184539604Y-117573000D01*
X184244590Y-117631681D01*
X183966694Y-117746790D01*
X183832000Y-117836789D01*
X183832000Y-112991496D01*
X183838057Y-112930000D01*
X183831622Y-112864666D01*
X183813884Y-112684565D01*
X183742293Y-112448562D01*
X183626036Y-112231061D01*
X183469581Y-112040419D01*
X183421808Y-112001213D01*
X178423859Y-107003264D01*
X178388319Y-106824590D01*
X178273210Y-106546694D01*
X178106099Y-106296594D01*
X177893406Y-106083901D01*
X177643306Y-105916790D01*
X177365410Y-105801681D01*
X177070396Y-105743000D01*
X176769604Y-105743000D01*
X176474590Y-105801681D01*
X176362000Y-105848318D01*
X176362000Y-104740128D01*
X177036977Y-104065151D01*
X177267010Y-104160434D01*
X177299808Y-104166958D01*
X177354407Y-104346947D01*
X177471994Y-104566937D01*
X177630240Y-104759760D01*
X177811903Y-104908847D01*
X177755000Y-104965750D01*
X177764765Y-105087348D01*
X177801623Y-105206878D01*
X177861092Y-105316921D01*
X177940887Y-105413247D01*
X178037941Y-105492156D01*
X178148524Y-105550614D01*
X178268387Y-105586375D01*
X178392923Y-105598065D01*
X178414250Y-105595000D01*
X178573000Y-105436250D01*
X178573000Y-105132453D01*
X178827000Y-105132453D01*
X178827000Y-105436250D01*
X178985750Y-105595000D01*
X179007077Y-105598065D01*
X179131613Y-105586375D01*
X179251476Y-105550614D01*
X179362059Y-105492156D01*
X179369251Y-105486308D01*
X179437941Y-105542156D01*
X179548524Y-105600614D01*
X179668387Y-105636375D01*
X179792923Y-105648065D01*
X179814250Y-105645000D01*
X179973000Y-105486250D01*
X179973000Y-105182453D01*
X180227000Y-105182453D01*
X180227000Y-105486250D01*
X180385750Y-105645000D01*
X180389780Y-105645579D01*
X180401681Y-105705410D01*
X180516790Y-105983306D01*
X180683901Y-106233406D01*
X180896594Y-106446099D01*
X181146694Y-106613210D01*
X181424590Y-106728319D01*
X181719604Y-106787000D01*
X182020396Y-106787000D01*
X182315410Y-106728319D01*
X182593306Y-106613210D01*
X182823000Y-106459734D01*
X182823000Y-106530396D01*
X182881681Y-106825410D01*
X182996790Y-107103306D01*
X183163901Y-107353406D01*
X183376594Y-107566099D01*
X183626694Y-107733210D01*
X183904590Y-107848319D01*
X184199604Y-107907000D01*
X184500396Y-107907000D01*
X184795410Y-107848319D01*
X185073306Y-107733210D01*
X185323406Y-107566099D01*
X185536099Y-107353406D01*
X185703210Y-107103306D01*
X185818319Y-106825410D01*
X185877000Y-106530396D01*
X185877000Y-106229604D01*
X185818319Y-105934590D01*
X185703210Y-105656694D01*
X185536099Y-105406594D01*
X185323406Y-105193901D01*
X185073306Y-105026790D01*
X184795410Y-104911681D01*
X184500396Y-104853000D01*
X184199604Y-104853000D01*
X183904590Y-104911681D01*
X183626694Y-105026790D01*
X183397000Y-105180266D01*
X183397000Y-105109604D01*
X183338319Y-104814590D01*
X183223210Y-104536694D01*
X183056099Y-104286594D01*
X182843406Y-104073901D01*
X182593306Y-103906790D01*
X182315410Y-103791681D01*
X182020396Y-103733000D01*
X181893463Y-103733000D01*
X181946036Y-103668939D01*
X182062293Y-103451438D01*
X182133884Y-103215434D01*
X182136604Y-103187820D01*
X182253210Y-103013306D01*
X182368319Y-102735410D01*
X182427000Y-102440396D01*
X182427000Y-102139604D01*
X182368319Y-101844590D01*
X182253210Y-101566694D01*
X182086099Y-101316594D01*
X181874876Y-101105371D01*
X182003210Y-100913306D01*
X182084524Y-100716999D01*
X182098091Y-100716999D01*
X182178005Y-100724870D01*
X182257919Y-100716999D01*
X182257930Y-100716999D01*
X182496953Y-100693457D01*
X182803643Y-100600424D01*
X183086291Y-100449345D01*
X183334034Y-100246028D01*
X183384985Y-100183944D01*
X184263708Y-99305221D01*
X184233000Y-99459604D01*
X184233000Y-99760396D01*
X184244645Y-99818938D01*
X184056694Y-99896790D01*
X183806594Y-100063901D01*
X183593901Y-100276594D01*
X183426790Y-100526694D01*
X183311681Y-100804590D01*
X183253000Y-101099604D01*
X183253000Y-101400396D01*
X183311681Y-101695410D01*
X183426790Y-101973306D01*
X183502769Y-102087016D01*
X183452953Y-102207281D01*
X183394272Y-102502295D01*
X183394272Y-102803087D01*
X183452953Y-103098101D01*
X183568062Y-103375997D01*
X183735173Y-103626097D01*
X183947866Y-103838790D01*
X184197966Y-104005901D01*
X184475862Y-104121010D01*
X184770876Y-104179691D01*
X185071668Y-104179691D01*
X185366682Y-104121010D01*
X185644578Y-104005901D01*
X185894678Y-103838790D01*
X186107371Y-103626097D01*
X186274482Y-103375997D01*
X186389591Y-103098101D01*
X186448272Y-102803087D01*
X186448272Y-102502295D01*
X186389591Y-102207281D01*
X186274482Y-101929385D01*
X186198503Y-101815675D01*
X186248319Y-101695410D01*
X186307000Y-101400396D01*
X186307000Y-101139604D01*
X190383000Y-101139604D01*
X190383000Y-101440396D01*
X190441681Y-101735410D01*
X190556790Y-102013306D01*
X190723901Y-102263406D01*
X190936594Y-102476099D01*
X191186694Y-102643210D01*
X191464590Y-102758319D01*
X191759604Y-102817000D01*
X192060396Y-102817000D01*
X192355410Y-102758319D01*
X192633306Y-102643210D01*
X192883406Y-102476099D01*
X193096099Y-102263406D01*
X193263210Y-102013306D01*
X193378319Y-101735410D01*
X193437000Y-101440396D01*
X193437000Y-101139604D01*
X193378319Y-100844590D01*
X193263210Y-100566694D01*
X193096099Y-100316594D01*
X193009109Y-100229604D01*
X199523000Y-100229604D01*
X199523000Y-100530396D01*
X199581681Y-100825410D01*
X199696790Y-101103306D01*
X199863901Y-101353406D01*
X200076594Y-101566099D01*
X200326694Y-101733210D01*
X200604590Y-101848319D01*
X200899604Y-101907000D01*
X201200396Y-101907000D01*
X201495410Y-101848319D01*
X201773306Y-101733210D01*
X202023406Y-101566099D01*
X202236099Y-101353406D01*
X202403210Y-101103306D01*
X202518319Y-100825410D01*
X202577000Y-100530396D01*
X202577000Y-100229604D01*
X202518319Y-99934590D01*
X202403210Y-99656694D01*
X202236099Y-99406594D01*
X202023406Y-99193901D01*
X201773306Y-99026790D01*
X201495410Y-98911681D01*
X201200396Y-98853000D01*
X200899604Y-98853000D01*
X200604590Y-98911681D01*
X200326694Y-99026790D01*
X200076594Y-99193901D01*
X199863901Y-99406594D01*
X199696790Y-99656694D01*
X199581681Y-99934590D01*
X199523000Y-100229604D01*
X193009109Y-100229604D01*
X192883406Y-100103901D01*
X192633306Y-99936790D01*
X192355410Y-99821681D01*
X192060396Y-99763000D01*
X191759604Y-99763000D01*
X191464590Y-99821681D01*
X191186694Y-99936790D01*
X190936594Y-100103901D01*
X190723901Y-100316594D01*
X190556790Y-100566694D01*
X190441681Y-100844590D01*
X190383000Y-101139604D01*
X186307000Y-101139604D01*
X186307000Y-101099604D01*
X186295355Y-101041062D01*
X186483306Y-100963210D01*
X186733406Y-100796099D01*
X186946099Y-100583406D01*
X187113210Y-100333306D01*
X187122320Y-100311312D01*
X187203901Y-100433406D01*
X187416594Y-100646099D01*
X187666694Y-100813210D01*
X187944590Y-100928319D01*
X188239604Y-100987000D01*
X188540396Y-100987000D01*
X188835410Y-100928319D01*
X189113306Y-100813210D01*
X189363406Y-100646099D01*
X189576099Y-100433406D01*
X189743210Y-100183306D01*
X189858319Y-99905410D01*
X189917000Y-99610396D01*
X189917000Y-99309604D01*
X189858319Y-99014590D01*
X189743210Y-98736694D01*
X189576099Y-98486594D01*
X189363406Y-98273901D01*
X189113306Y-98106790D01*
X188835410Y-97991681D01*
X188540396Y-97933000D01*
X188239604Y-97933000D01*
X187944590Y-97991681D01*
X187666694Y-98106790D01*
X187416594Y-98273901D01*
X187203901Y-98486594D01*
X187036790Y-98736694D01*
X187027680Y-98758688D01*
X186946099Y-98636594D01*
X186733406Y-98423901D01*
X186483306Y-98256790D01*
X186205410Y-98141681D01*
X185910396Y-98083000D01*
X185609604Y-98083000D01*
X185314590Y-98141681D01*
X185036694Y-98256790D01*
X184867826Y-98369623D01*
X184888309Y-98302101D01*
X184911851Y-98063078D01*
X184911851Y-98063077D01*
X184919723Y-97983153D01*
X184911851Y-97903228D01*
X184911851Y-95700000D01*
X184966928Y-95700000D01*
X184979188Y-95824482D01*
X185015498Y-95944180D01*
X185074463Y-96054494D01*
X185153815Y-96151185D01*
X185250506Y-96230537D01*
X185360820Y-96289502D01*
X185480518Y-96325812D01*
X185605000Y-96338072D01*
X185894250Y-96335000D01*
X186053000Y-96176250D01*
X186053000Y-94477000D01*
X186307000Y-94477000D01*
X186307000Y-96176250D01*
X186465750Y-96335000D01*
X186755000Y-96338072D01*
X186879482Y-96325812D01*
X186999180Y-96289502D01*
X187109494Y-96230537D01*
X187206185Y-96151185D01*
X187285537Y-96054494D01*
X187344502Y-95944180D01*
X187380812Y-95824482D01*
X187393072Y-95700000D01*
X187390000Y-94635750D01*
X187231250Y-94477000D01*
X186307000Y-94477000D01*
X186053000Y-94477000D01*
X185128750Y-94477000D01*
X184970000Y-94635750D01*
X184966928Y-95700000D01*
X184911851Y-95700000D01*
X184911851Y-93000000D01*
X184966928Y-93000000D01*
X184970000Y-94064250D01*
X185128750Y-94223000D01*
X186053000Y-94223000D01*
X186053000Y-92523750D01*
X186307000Y-92523750D01*
X186307000Y-94223000D01*
X187231250Y-94223000D01*
X187390000Y-94064250D01*
X187393072Y-93000000D01*
X187380812Y-92875518D01*
X187344502Y-92755820D01*
X187285537Y-92645506D01*
X187206185Y-92548815D01*
X187109494Y-92469463D01*
X186999180Y-92410498D01*
X186879482Y-92374188D01*
X186755000Y-92361928D01*
X186465750Y-92365000D01*
X186307000Y-92523750D01*
X186053000Y-92523750D01*
X185894250Y-92365000D01*
X185605000Y-92361928D01*
X185480518Y-92374188D01*
X185360820Y-92410498D01*
X185250506Y-92469463D01*
X185153815Y-92548815D01*
X185074463Y-92645506D01*
X185015498Y-92755820D01*
X184979188Y-92875518D01*
X184966928Y-93000000D01*
X184911851Y-93000000D01*
X184911851Y-91600000D01*
X185026928Y-91600000D01*
X185039188Y-91724482D01*
X185075498Y-91844180D01*
X185134463Y-91954494D01*
X185213815Y-92051185D01*
X185310506Y-92130537D01*
X185420820Y-92189502D01*
X185540518Y-92225812D01*
X185665000Y-92238072D01*
X185954250Y-92235000D01*
X186113000Y-92076250D01*
X186113000Y-90377000D01*
X186367000Y-90377000D01*
X186367000Y-92076250D01*
X186525750Y-92235000D01*
X186815000Y-92238072D01*
X186939482Y-92225812D01*
X187059180Y-92189502D01*
X187169494Y-92130537D01*
X187266185Y-92051185D01*
X187345537Y-91954494D01*
X187404502Y-91844180D01*
X187440812Y-91724482D01*
X187453072Y-91600000D01*
X187450000Y-90535750D01*
X187291250Y-90377000D01*
X186367000Y-90377000D01*
X186113000Y-90377000D01*
X185188750Y-90377000D01*
X185030000Y-90535750D01*
X185026928Y-91600000D01*
X184911851Y-91600000D01*
X184911851Y-89826763D01*
X184919722Y-89746848D01*
X184911851Y-89666934D01*
X184911851Y-89666924D01*
X184888309Y-89427901D01*
X184795276Y-89121211D01*
X184644197Y-88838563D01*
X184605983Y-88791999D01*
X184491829Y-88652901D01*
X184491826Y-88652898D01*
X184463620Y-88618529D01*
X184604999Y-88632453D01*
X185087988Y-88632453D01*
X185075498Y-88655820D01*
X185039188Y-88775518D01*
X185026928Y-88900000D01*
X185030000Y-89964250D01*
X185188750Y-90123000D01*
X186113000Y-90123000D01*
X186113000Y-90103000D01*
X186367000Y-90103000D01*
X186367000Y-90123000D01*
X187291250Y-90123000D01*
X187450000Y-89964250D01*
X187452100Y-89236584D01*
X187482547Y-89242640D01*
X187482547Y-91350001D01*
X187509110Y-91619704D01*
X187587780Y-91879042D01*
X187715532Y-92118050D01*
X187836298Y-92265203D01*
X187827458Y-92272458D01*
X187655532Y-92481950D01*
X187527780Y-92720958D01*
X187449110Y-92980296D01*
X187422547Y-93249999D01*
X187422547Y-95450001D01*
X187448288Y-95711361D01*
X187351681Y-95944590D01*
X187293000Y-96239604D01*
X187293000Y-96540396D01*
X187351681Y-96835410D01*
X187466790Y-97113306D01*
X187633901Y-97363406D01*
X187846594Y-97576099D01*
X188096694Y-97743210D01*
X188374590Y-97858319D01*
X188669604Y-97917000D01*
X188970396Y-97917000D01*
X189265410Y-97858319D01*
X189383210Y-97809524D01*
X189430654Y-97898286D01*
X189633971Y-98146029D01*
X189881714Y-98349346D01*
X190164362Y-98500425D01*
X190471052Y-98593458D01*
X190710075Y-98617000D01*
X191275771Y-98617000D01*
X191355685Y-98624871D01*
X191435599Y-98617000D01*
X191435610Y-98617000D01*
X191674633Y-98593458D01*
X191981323Y-98500425D01*
X192263971Y-98349346D01*
X192511714Y-98146029D01*
X192562665Y-98083945D01*
X192794157Y-97852453D01*
X193160000Y-97852453D01*
X193380931Y-97830693D01*
X193593371Y-97766250D01*
X193789157Y-97661600D01*
X193960765Y-97520765D01*
X194101600Y-97349157D01*
X194206250Y-97153371D01*
X194270693Y-96940931D01*
X194292453Y-96720000D01*
X194292453Y-93220000D01*
X194270693Y-92999069D01*
X194206250Y-92786629D01*
X194101600Y-92590843D01*
X193960765Y-92419235D01*
X193789157Y-92278400D01*
X193593371Y-92173750D01*
X193380931Y-92109307D01*
X193160000Y-92087547D01*
X192493049Y-92087547D01*
X193186737Y-91393859D01*
X193365410Y-91358319D01*
X193643306Y-91243210D01*
X193893406Y-91076099D01*
X194106099Y-90863406D01*
X194273210Y-90613306D01*
X194388319Y-90335410D01*
X194447000Y-90040396D01*
X194447000Y-89739604D01*
X194388319Y-89444590D01*
X194273210Y-89166694D01*
X194106099Y-88916594D01*
X193893406Y-88703901D01*
X193643306Y-88536790D01*
X193365410Y-88421681D01*
X193070396Y-88363000D01*
X192769604Y-88363000D01*
X192474590Y-88421681D01*
X192196694Y-88536790D01*
X192161093Y-88560578D01*
X192093210Y-88396694D01*
X191926099Y-88146594D01*
X191713406Y-87933901D01*
X191463306Y-87766790D01*
X191185410Y-87651681D01*
X190890396Y-87593000D01*
X190589604Y-87593000D01*
X190294590Y-87651681D01*
X190016694Y-87766790D01*
X189916137Y-87833980D01*
X189784704Y-87794110D01*
X189515001Y-87767547D01*
X189207000Y-87767547D01*
X189207000Y-87574604D01*
X189148319Y-87279590D01*
X189033210Y-87001694D01*
X188952082Y-86880277D01*
X189113960Y-86831172D01*
X189370549Y-86694022D01*
X189595452Y-86509450D01*
X189641711Y-86453083D01*
X189714355Y-86380439D01*
X189761092Y-86466921D01*
X189840887Y-86563247D01*
X189937941Y-86642156D01*
X190048524Y-86700614D01*
X190168387Y-86736375D01*
X190292923Y-86748065D01*
X190314250Y-86745000D01*
X190473000Y-86586250D01*
X190473000Y-86351639D01*
X190527444Y-86357001D01*
X190727000Y-86357001D01*
X190727000Y-86586250D01*
X190885750Y-86745000D01*
X190907077Y-86748065D01*
X191031613Y-86736375D01*
X191150000Y-86701054D01*
X191268387Y-86736375D01*
X191392923Y-86748065D01*
X191414250Y-86745000D01*
X191573000Y-86586250D01*
X191573000Y-86347000D01*
X191627447Y-86347000D01*
X191700000Y-86354146D01*
X191772553Y-86347000D01*
X191772556Y-86347000D01*
X191827000Y-86341638D01*
X191827000Y-86586250D01*
X191985750Y-86745000D01*
X192007077Y-86748065D01*
X192131613Y-86736375D01*
X192251476Y-86700614D01*
X192362059Y-86642156D01*
X192459113Y-86563247D01*
X192538908Y-86466921D01*
X192598377Y-86356878D01*
X192635235Y-86237348D01*
X192645000Y-86115750D01*
X192588097Y-86058847D01*
X192769760Y-85909760D01*
X192864624Y-85794169D01*
X193209680Y-85449113D01*
X193303778Y-85467830D01*
X193624268Y-85467830D01*
X193675000Y-85457739D01*
X193675000Y-85517002D01*
X193833748Y-85517002D01*
X193675000Y-85675750D01*
X193671928Y-86740000D01*
X193684188Y-86864482D01*
X193720498Y-86984180D01*
X193779463Y-87094494D01*
X193858815Y-87191185D01*
X193955506Y-87270537D01*
X194065820Y-87329502D01*
X194185518Y-87365812D01*
X194310000Y-87378072D01*
X194599250Y-87375000D01*
X194758000Y-87216250D01*
X194758000Y-86103731D01*
X194761646Y-86115750D01*
X194797707Y-86234627D01*
X194913964Y-86452128D01*
X195012000Y-86571586D01*
X195012000Y-87216250D01*
X195170750Y-87375000D01*
X195460000Y-87378072D01*
X195584482Y-87365812D01*
X195704180Y-87329502D01*
X195744282Y-87308067D01*
X199448023Y-91011808D01*
X199487229Y-91059581D01*
X199677871Y-91216036D01*
X199895372Y-91332293D01*
X200131375Y-91403884D01*
X200315312Y-91422000D01*
X200315314Y-91422000D01*
X200376810Y-91428057D01*
X200438306Y-91422000D01*
X200915222Y-91422000D01*
X201066694Y-91523210D01*
X201344590Y-91638319D01*
X201639604Y-91697000D01*
X201940396Y-91697000D01*
X201998001Y-91685542D01*
X201998001Y-91831074D01*
X201741528Y-92087547D01*
X200160000Y-92087547D01*
X199939069Y-92109307D01*
X199726629Y-92173750D01*
X199530843Y-92278400D01*
X199359235Y-92419235D01*
X199218400Y-92590843D01*
X199113750Y-92786629D01*
X199049307Y-92999069D01*
X199027547Y-93220000D01*
X199027547Y-96720000D01*
X199049307Y-96940931D01*
X199113750Y-97153371D01*
X199218400Y-97349157D01*
X199359235Y-97520765D01*
X199530843Y-97661600D01*
X199726629Y-97766250D01*
X199939069Y-97830693D01*
X200160000Y-97852453D01*
X202160000Y-97852453D01*
X202380931Y-97830693D01*
X202593371Y-97766250D01*
X202789157Y-97661600D01*
X202960765Y-97520765D01*
X203101600Y-97349157D01*
X203206250Y-97153371D01*
X203270693Y-96940931D01*
X203292453Y-96720000D01*
X203292453Y-95138472D01*
X204081321Y-94349604D01*
X206083000Y-94349604D01*
X206083000Y-94650396D01*
X206141681Y-94945410D01*
X206256790Y-95223306D01*
X206423901Y-95473406D01*
X206636594Y-95686099D01*
X206886694Y-95853210D01*
X207164590Y-95968319D01*
X207459604Y-96027000D01*
X207760396Y-96027000D01*
X208055410Y-95968319D01*
X208333306Y-95853210D01*
X208583406Y-95686099D01*
X208796099Y-95473406D01*
X208963210Y-95223306D01*
X209078319Y-94945410D01*
X209137000Y-94650396D01*
X209137000Y-94349604D01*
X209078319Y-94054590D01*
X209019788Y-93913284D01*
X209118319Y-93675410D01*
X209177000Y-93380396D01*
X209177000Y-93079604D01*
X209118319Y-92784590D01*
X209003210Y-92506694D01*
X208836099Y-92256594D01*
X208623406Y-92043901D01*
X208373306Y-91876790D01*
X208095410Y-91761681D01*
X207800396Y-91703000D01*
X207499604Y-91703000D01*
X207204590Y-91761681D01*
X206926694Y-91876790D01*
X206676594Y-92043901D01*
X206463901Y-92256594D01*
X206296790Y-92506694D01*
X206181681Y-92784590D01*
X206123000Y-93079604D01*
X206123000Y-93380396D01*
X206181681Y-93675410D01*
X206240212Y-93816716D01*
X206141681Y-94054590D01*
X206083000Y-94349604D01*
X204081321Y-94349604D01*
X204718945Y-93711980D01*
X204781029Y-93661029D01*
X204984346Y-93413286D01*
X205135425Y-93130638D01*
X205228458Y-92823948D01*
X205252000Y-92584925D01*
X205252000Y-92584915D01*
X205259871Y-92505000D01*
X205252000Y-92425086D01*
X205252000Y-88827354D01*
X205305890Y-88649704D01*
X205307830Y-88630000D01*
X205361928Y-88630000D01*
X205374188Y-88754482D01*
X205410498Y-88874180D01*
X205469463Y-88984494D01*
X205548815Y-89081185D01*
X205645506Y-89160537D01*
X205755820Y-89219502D01*
X205875518Y-89255812D01*
X206000000Y-89268072D01*
X206289250Y-89265000D01*
X206448000Y-89106250D01*
X206448000Y-87407000D01*
X205523750Y-87407000D01*
X205365000Y-87565750D01*
X205361928Y-88630000D01*
X205307830Y-88630000D01*
X205332453Y-88380001D01*
X205332453Y-86179999D01*
X205307831Y-85930000D01*
X205361928Y-85930000D01*
X205365000Y-86994250D01*
X205523750Y-87153000D01*
X206448000Y-87153000D01*
X206448000Y-85453750D01*
X206289250Y-85295000D01*
X206000000Y-85291928D01*
X205875518Y-85304188D01*
X205755820Y-85340498D01*
X205645506Y-85399463D01*
X205548815Y-85478815D01*
X205469463Y-85575506D01*
X205410498Y-85685820D01*
X205374188Y-85805518D01*
X205361928Y-85930000D01*
X205307831Y-85930000D01*
X205305890Y-85910296D01*
X205227220Y-85650958D01*
X205099468Y-85411950D01*
X204987858Y-85275953D01*
X204985000Y-84285750D01*
X204826250Y-84127000D01*
X203902000Y-84127000D01*
X203902000Y-84147000D01*
X203648000Y-84147000D01*
X203648000Y-84127000D01*
X202723750Y-84127000D01*
X202565000Y-84285750D01*
X202562898Y-85013990D01*
X202532453Y-85030263D01*
X202532453Y-82899999D01*
X202505890Y-82630296D01*
X202485294Y-82562400D01*
X202570556Y-82562400D01*
X202561928Y-82650000D01*
G37*
%TD.AperFunction*%
D23*
X157491713Y-101359345D02*
X157586482Y-101410000D01*
X157774361Y-101510424D01*
X158081051Y-101603457D01*
X158320074Y-101626999D01*
X158320084Y-101626999D01*
X158399998Y-101634870D01*
X158479913Y-101626999D01*
X170686248Y-101626999D01*
X170731681Y-101855410D01*
X170846790Y-102133306D01*
X171013901Y-102383406D01*
X171226594Y-102596099D01*
X171476694Y-102763210D01*
X171754590Y-102878319D01*
X171933263Y-102913859D01*
X172913001Y-103893597D01*
X172913001Y-107235476D01*
X172716694Y-107316790D01*
X172466594Y-107483901D01*
X172253901Y-107696594D01*
X172086790Y-107946694D01*
X171971681Y-108224590D01*
X171913000Y-108519604D01*
X171913000Y-108607547D01*
X171600000Y-108607547D01*
X171351757Y-108631997D01*
X171113053Y-108704407D01*
X171005618Y-108761832D01*
X170978319Y-108624590D01*
X170863210Y-108346694D01*
X170696099Y-108096594D01*
X170483406Y-107883901D01*
X170233306Y-107716790D01*
X169955410Y-107601681D01*
X169660396Y-107543000D01*
X169359604Y-107543000D01*
X169064590Y-107601681D01*
X168786694Y-107716790D01*
X168536594Y-107883901D01*
X168323901Y-108096594D01*
X168156790Y-108346694D01*
X168041681Y-108624590D01*
X167983000Y-108919604D01*
X167983000Y-109220396D01*
X168041681Y-109515410D01*
X168156790Y-109793306D01*
X168323901Y-110043406D01*
X168536594Y-110256099D01*
X168786694Y-110423210D01*
X169064590Y-110538319D01*
X169359604Y-110597000D01*
X169660396Y-110597000D01*
X169955410Y-110538319D01*
X170233306Y-110423210D01*
X170346051Y-110347876D01*
X170351997Y-110408243D01*
X170424407Y-110646947D01*
X170541994Y-110866937D01*
X170700240Y-111059760D01*
X170881903Y-111208847D01*
X170825000Y-111265750D01*
X170834765Y-111387348D01*
X170871623Y-111506878D01*
X170931092Y-111616921D01*
X171010887Y-111713247D01*
X171107941Y-111792156D01*
X171218524Y-111850614D01*
X171338387Y-111886375D01*
X171462923Y-111898065D01*
X171484250Y-111895000D01*
X171643000Y-111736250D01*
X171643000Y-111432453D01*
X171897000Y-111432453D01*
X171897000Y-111736250D01*
X172055750Y-111895000D01*
X172077077Y-111898065D01*
X172201613Y-111886375D01*
X172321476Y-111850614D01*
X172360542Y-111829963D01*
X172418524Y-111860614D01*
X172538387Y-111896375D01*
X172565078Y-111898880D01*
X172553000Y-111959604D01*
X172553000Y-112260396D01*
X172611681Y-112555410D01*
X172726790Y-112833306D01*
X172893901Y-113083406D01*
X172910495Y-113100000D01*
X172703901Y-113306594D01*
X172536790Y-113556694D01*
X172421681Y-113834590D01*
X172363000Y-114129604D01*
X172363000Y-114430396D01*
X172421681Y-114725410D01*
X172536790Y-115003306D01*
X172703901Y-115253406D01*
X172916594Y-115466099D01*
X173166694Y-115633210D01*
X173444590Y-115748319D01*
X173623264Y-115783859D01*
X174310509Y-116471104D01*
X174215107Y-116534850D01*
X174002414Y-116747543D01*
X173835303Y-116997643D01*
X173720194Y-117275539D01*
X173661513Y-117570553D01*
X173661513Y-117871345D01*
X173720194Y-118166359D01*
X173809676Y-118382387D01*
X173806942Y-118410148D01*
X173812999Y-118471644D01*
X173813000Y-121323503D01*
X173806942Y-121385008D01*
X173827458Y-121593306D01*
X173831116Y-121630443D01*
X173837373Y-121651070D01*
X173902706Y-121866445D01*
X174018963Y-122083946D01*
X174133254Y-122223210D01*
X174175419Y-122274589D01*
X174223187Y-122313791D01*
X174526141Y-122616745D01*
X174561681Y-122795419D01*
X174676790Y-123073315D01*
X174843901Y-123323415D01*
X175056594Y-123536108D01*
X175306694Y-123703219D01*
X175584590Y-123818328D01*
X175678000Y-123836908D01*
X175678000Y-124327405D01*
X165750199Y-114399604D01*
X167223000Y-114399604D01*
X167223000Y-114700396D01*
X167281681Y-114995410D01*
X167396790Y-115273306D01*
X167563901Y-115523406D01*
X167776594Y-115736099D01*
X168026694Y-115903210D01*
X168304590Y-116018319D01*
X168599604Y-116077000D01*
X168900396Y-116077000D01*
X169195410Y-116018319D01*
X169473306Y-115903210D01*
X169723406Y-115736099D01*
X169936099Y-115523406D01*
X170103210Y-115273306D01*
X170218319Y-114995410D01*
X170277000Y-114700396D01*
X170277000Y-114399604D01*
X170218319Y-114104590D01*
X170103210Y-113826694D01*
X169936099Y-113576594D01*
X169723406Y-113363901D01*
X169473306Y-113196790D01*
X169195410Y-113081681D01*
X168900396Y-113023000D01*
X168599604Y-113023000D01*
X168304590Y-113081681D01*
X168026694Y-113196790D01*
X167776594Y-113363901D01*
X167563901Y-113576594D01*
X167396790Y-113826694D01*
X167281681Y-114104590D01*
X167223000Y-114399604D01*
X165750199Y-114399604D01*
X165277595Y-113927000D01*
X165400396Y-113927000D01*
X165695410Y-113868319D01*
X165973306Y-113753210D01*
X166223406Y-113586099D01*
X166436099Y-113373406D01*
X166603210Y-113123306D01*
X166718319Y-112845410D01*
X166777000Y-112550396D01*
X166777000Y-112249604D01*
X166718319Y-111954590D01*
X166603210Y-111676694D01*
X166436099Y-111426594D01*
X166223406Y-111213901D01*
X165973306Y-111046790D01*
X165695410Y-110931681D01*
X165400396Y-110873000D01*
X165099604Y-110873000D01*
X164804590Y-110931681D01*
X164526694Y-111046790D01*
X164276594Y-111213901D01*
X164063901Y-111426594D01*
X163896790Y-111676694D01*
X163781681Y-111954590D01*
X163723000Y-112249604D01*
X163723000Y-112372405D01*
X157463210Y-106112615D01*
X157463210Y-101335953D01*
X157491713Y-101359345D01*
%TA.AperFunction,Conductor*%
D24*
G36*
X157491713Y-101359345D02*
G01*
X157586482Y-101410000D01*
X157774361Y-101510424D01*
X158081051Y-101603457D01*
X158320074Y-101626999D01*
X158320084Y-101626999D01*
X158399998Y-101634870D01*
X158479913Y-101626999D01*
X170686248Y-101626999D01*
X170731681Y-101855410D01*
X170846790Y-102133306D01*
X171013901Y-102383406D01*
X171226594Y-102596099D01*
X171476694Y-102763210D01*
X171754590Y-102878319D01*
X171933263Y-102913859D01*
X172913001Y-103893597D01*
X172913001Y-107235476D01*
X172716694Y-107316790D01*
X172466594Y-107483901D01*
X172253901Y-107696594D01*
X172086790Y-107946694D01*
X171971681Y-108224590D01*
X171913000Y-108519604D01*
X171913000Y-108607547D01*
X171600000Y-108607547D01*
X171351757Y-108631997D01*
X171113053Y-108704407D01*
X171005618Y-108761832D01*
X170978319Y-108624590D01*
X170863210Y-108346694D01*
X170696099Y-108096594D01*
X170483406Y-107883901D01*
X170233306Y-107716790D01*
X169955410Y-107601681D01*
X169660396Y-107543000D01*
X169359604Y-107543000D01*
X169064590Y-107601681D01*
X168786694Y-107716790D01*
X168536594Y-107883901D01*
X168323901Y-108096594D01*
X168156790Y-108346694D01*
X168041681Y-108624590D01*
X167983000Y-108919604D01*
X167983000Y-109220396D01*
X168041681Y-109515410D01*
X168156790Y-109793306D01*
X168323901Y-110043406D01*
X168536594Y-110256099D01*
X168786694Y-110423210D01*
X169064590Y-110538319D01*
X169359604Y-110597000D01*
X169660396Y-110597000D01*
X169955410Y-110538319D01*
X170233306Y-110423210D01*
X170346051Y-110347876D01*
X170351997Y-110408243D01*
X170424407Y-110646947D01*
X170541994Y-110866937D01*
X170700240Y-111059760D01*
X170881903Y-111208847D01*
X170825000Y-111265750D01*
X170834765Y-111387348D01*
X170871623Y-111506878D01*
X170931092Y-111616921D01*
X171010887Y-111713247D01*
X171107941Y-111792156D01*
X171218524Y-111850614D01*
X171338387Y-111886375D01*
X171462923Y-111898065D01*
X171484250Y-111895000D01*
X171643000Y-111736250D01*
X171643000Y-111432453D01*
X171897000Y-111432453D01*
X171897000Y-111736250D01*
X172055750Y-111895000D01*
X172077077Y-111898065D01*
X172201613Y-111886375D01*
X172321476Y-111850614D01*
X172360542Y-111829963D01*
X172418524Y-111860614D01*
X172538387Y-111896375D01*
X172565078Y-111898880D01*
X172553000Y-111959604D01*
X172553000Y-112260396D01*
X172611681Y-112555410D01*
X172726790Y-112833306D01*
X172893901Y-113083406D01*
X172910495Y-113100000D01*
X172703901Y-113306594D01*
X172536790Y-113556694D01*
X172421681Y-113834590D01*
X172363000Y-114129604D01*
X172363000Y-114430396D01*
X172421681Y-114725410D01*
X172536790Y-115003306D01*
X172703901Y-115253406D01*
X172916594Y-115466099D01*
X173166694Y-115633210D01*
X173444590Y-115748319D01*
X173623264Y-115783859D01*
X174310509Y-116471104D01*
X174215107Y-116534850D01*
X174002414Y-116747543D01*
X173835303Y-116997643D01*
X173720194Y-117275539D01*
X173661513Y-117570553D01*
X173661513Y-117871345D01*
X173720194Y-118166359D01*
X173809676Y-118382387D01*
X173806942Y-118410148D01*
X173812999Y-118471644D01*
X173813000Y-121323503D01*
X173806942Y-121385008D01*
X173827458Y-121593306D01*
X173831116Y-121630443D01*
X173837373Y-121651070D01*
X173902706Y-121866445D01*
X174018963Y-122083946D01*
X174133254Y-122223210D01*
X174175419Y-122274589D01*
X174223187Y-122313791D01*
X174526141Y-122616745D01*
X174561681Y-122795419D01*
X174676790Y-123073315D01*
X174843901Y-123323415D01*
X175056594Y-123536108D01*
X175306694Y-123703219D01*
X175584590Y-123818328D01*
X175678000Y-123836908D01*
X175678000Y-124327405D01*
X165750199Y-114399604D01*
X167223000Y-114399604D01*
X167223000Y-114700396D01*
X167281681Y-114995410D01*
X167396790Y-115273306D01*
X167563901Y-115523406D01*
X167776594Y-115736099D01*
X168026694Y-115903210D01*
X168304590Y-116018319D01*
X168599604Y-116077000D01*
X168900396Y-116077000D01*
X169195410Y-116018319D01*
X169473306Y-115903210D01*
X169723406Y-115736099D01*
X169936099Y-115523406D01*
X170103210Y-115273306D01*
X170218319Y-114995410D01*
X170277000Y-114700396D01*
X170277000Y-114399604D01*
X170218319Y-114104590D01*
X170103210Y-113826694D01*
X169936099Y-113576594D01*
X169723406Y-113363901D01*
X169473306Y-113196790D01*
X169195410Y-113081681D01*
X168900396Y-113023000D01*
X168599604Y-113023000D01*
X168304590Y-113081681D01*
X168026694Y-113196790D01*
X167776594Y-113363901D01*
X167563901Y-113576594D01*
X167396790Y-113826694D01*
X167281681Y-114104590D01*
X167223000Y-114399604D01*
X165750199Y-114399604D01*
X165277595Y-113927000D01*
X165400396Y-113927000D01*
X165695410Y-113868319D01*
X165973306Y-113753210D01*
X166223406Y-113586099D01*
X166436099Y-113373406D01*
X166603210Y-113123306D01*
X166718319Y-112845410D01*
X166777000Y-112550396D01*
X166777000Y-112249604D01*
X166718319Y-111954590D01*
X166603210Y-111676694D01*
X166436099Y-111426594D01*
X166223406Y-111213901D01*
X165973306Y-111046790D01*
X165695410Y-110931681D01*
X165400396Y-110873000D01*
X165099604Y-110873000D01*
X164804590Y-110931681D01*
X164526694Y-111046790D01*
X164276594Y-111213901D01*
X164063901Y-111426594D01*
X163896790Y-111676694D01*
X163781681Y-111954590D01*
X163723000Y-112249604D01*
X163723000Y-112372405D01*
X157463210Y-106112615D01*
X157463210Y-101335953D01*
X157491713Y-101359345D01*
G37*
%TD.AperFunction*%
D23*
X176474590Y-108738319D02*
X176653264Y-108773859D01*
X181328001Y-113448596D01*
X181328001Y-119311057D01*
X181274590Y-119321681D01*
X181047000Y-119415952D01*
X181047000Y-119289604D01*
X180988319Y-118994590D01*
X180873210Y-118716694D01*
X180706099Y-118466594D01*
X180493406Y-118253901D01*
X180243306Y-118086790D01*
X179965410Y-117971681D01*
X179670396Y-117913000D01*
X179369604Y-117913000D01*
X179269694Y-117932873D01*
X179218319Y-117674590D01*
X179103210Y-117396694D01*
X178936099Y-117146594D01*
X178723406Y-116933901D01*
X178473306Y-116766790D01*
X178195410Y-116651681D01*
X177963272Y-116605507D01*
X177858783Y-116478187D01*
X177819581Y-116430419D01*
X177771813Y-116391217D01*
X176861812Y-115481217D01*
X175393859Y-114013264D01*
X175358319Y-113834590D01*
X175243210Y-113556694D01*
X175076099Y-113306594D01*
X175059505Y-113290000D01*
X175266099Y-113083406D01*
X175433210Y-112833306D01*
X175548319Y-112555410D01*
X175607000Y-112260396D01*
X175607000Y-111959604D01*
X175558732Y-111716943D01*
X175833306Y-111603210D01*
X176083406Y-111436099D01*
X176296099Y-111223406D01*
X176463210Y-110973306D01*
X176578319Y-110695410D01*
X176637000Y-110400396D01*
X176637000Y-110099604D01*
X176578319Y-109804590D01*
X176463210Y-109526694D01*
X176362000Y-109375222D01*
X176362000Y-108691682D01*
X176474590Y-108738319D01*
%TA.AperFunction,Conductor*%
D24*
G36*
X176474590Y-108738319D02*
G01*
X176653264Y-108773859D01*
X181328001Y-113448596D01*
X181328001Y-119311057D01*
X181274590Y-119321681D01*
X181047000Y-119415952D01*
X181047000Y-119289604D01*
X180988319Y-118994590D01*
X180873210Y-118716694D01*
X180706099Y-118466594D01*
X180493406Y-118253901D01*
X180243306Y-118086790D01*
X179965410Y-117971681D01*
X179670396Y-117913000D01*
X179369604Y-117913000D01*
X179269694Y-117932873D01*
X179218319Y-117674590D01*
X179103210Y-117396694D01*
X178936099Y-117146594D01*
X178723406Y-116933901D01*
X178473306Y-116766790D01*
X178195410Y-116651681D01*
X177963272Y-116605507D01*
X177858783Y-116478187D01*
X177819581Y-116430419D01*
X177771813Y-116391217D01*
X176861812Y-115481217D01*
X175393859Y-114013264D01*
X175358319Y-113834590D01*
X175243210Y-113556694D01*
X175076099Y-113306594D01*
X175059505Y-113290000D01*
X175266099Y-113083406D01*
X175433210Y-112833306D01*
X175548319Y-112555410D01*
X175607000Y-112260396D01*
X175607000Y-111959604D01*
X175558732Y-111716943D01*
X175833306Y-111603210D01*
X176083406Y-111436099D01*
X176296099Y-111223406D01*
X176463210Y-110973306D01*
X176578319Y-110695410D01*
X176637000Y-110400396D01*
X176637000Y-110099604D01*
X176578319Y-109804590D01*
X176463210Y-109526694D01*
X176362000Y-109375222D01*
X176362000Y-108691682D01*
X176474590Y-108738319D01*
G37*
%TD.AperFunction*%
D23*
X158381594Y-82728899D02*
X158168901Y-82941592D01*
X158001790Y-83191692D01*
X157886681Y-83469588D01*
X157828000Y-83764602D01*
X157828000Y-84065394D01*
X157886681Y-84360408D01*
X158001790Y-84638304D01*
X158168901Y-84888404D01*
X158381594Y-85101097D01*
X158631694Y-85268208D01*
X158909590Y-85383317D01*
X159204604Y-85441998D01*
X159505396Y-85441998D01*
X159658170Y-85411610D01*
X159654765Y-85422652D01*
X159645000Y-85544250D01*
X159701903Y-85601153D01*
X159520240Y-85750240D01*
X159361994Y-85943063D01*
X159244407Y-86163053D01*
X159171997Y-86401757D01*
X159147547Y-86650000D01*
X159147547Y-86930000D01*
X159171997Y-87178243D01*
X159244407Y-87416947D01*
X159361994Y-87636937D01*
X159520240Y-87829760D01*
X159713063Y-87988006D01*
X159933053Y-88105593D01*
X160171757Y-88178003D01*
X160420000Y-88202453D01*
X160760000Y-88202453D01*
X161008243Y-88178003D01*
X161246947Y-88105593D01*
X161365921Y-88042000D01*
X163608510Y-88042000D01*
X163622780Y-88089042D01*
X163750532Y-88328050D01*
X163922458Y-88537542D01*
X164131950Y-88709468D01*
X164370958Y-88837220D01*
X164630296Y-88915890D01*
X164899999Y-88942453D01*
X165550001Y-88942453D01*
X165819704Y-88915890D01*
X166079042Y-88837220D01*
X166318050Y-88709468D01*
X166527542Y-88537542D01*
X166699468Y-88328050D01*
X166827220Y-88089042D01*
X166905890Y-87829704D01*
X166907830Y-87810000D01*
X166961928Y-87810000D01*
X166974188Y-87934482D01*
X167010498Y-88054180D01*
X167069463Y-88164494D01*
X167148815Y-88261185D01*
X167245506Y-88340537D01*
X167355820Y-88399502D01*
X167475518Y-88435812D01*
X167600000Y-88448072D01*
X167889250Y-88445000D01*
X168048000Y-88286250D01*
X168048000Y-86587000D01*
X168302000Y-86587000D01*
X168302000Y-88286250D01*
X168460750Y-88445000D01*
X168750000Y-88448072D01*
X168874482Y-88435812D01*
X168994180Y-88399502D01*
X169104494Y-88340537D01*
X169201185Y-88261185D01*
X169280537Y-88164494D01*
X169339502Y-88054180D01*
X169375812Y-87934482D01*
X169388072Y-87810000D01*
X169385000Y-86745750D01*
X169226250Y-86587000D01*
X168302000Y-86587000D01*
X168048000Y-86587000D01*
X167123750Y-86587000D01*
X166965000Y-86745750D01*
X166961928Y-87810000D01*
X166907830Y-87810000D01*
X166932453Y-87560001D01*
X166932453Y-85359999D01*
X166907831Y-85110000D01*
X166961928Y-85110000D01*
X166965000Y-86174250D01*
X167123750Y-86333000D01*
X168048000Y-86333000D01*
X168048000Y-84633750D01*
X168302000Y-84633750D01*
X168302000Y-86333000D01*
X169226250Y-86333000D01*
X169385000Y-86174250D01*
X169388072Y-85110000D01*
X169375812Y-84985518D01*
X169339502Y-84865820D01*
X169280537Y-84755506D01*
X169201185Y-84658815D01*
X169104494Y-84579463D01*
X168994180Y-84520498D01*
X168874482Y-84484188D01*
X168750000Y-84471928D01*
X168460750Y-84475000D01*
X168302000Y-84633750D01*
X168048000Y-84633750D01*
X167889250Y-84475000D01*
X167600000Y-84471928D01*
X167475518Y-84484188D01*
X167355820Y-84520498D01*
X167245506Y-84579463D01*
X167148815Y-84658815D01*
X167069463Y-84755506D01*
X167010498Y-84865820D01*
X166974188Y-84985518D01*
X166961928Y-85110000D01*
X166907831Y-85110000D01*
X166905890Y-85090296D01*
X166827220Y-84830958D01*
X166699468Y-84591950D01*
X166649201Y-84530700D01*
X166697000Y-84290396D01*
X166697000Y-83989604D01*
X166638319Y-83694590D01*
X166523210Y-83416694D01*
X166356099Y-83166594D01*
X166143406Y-82953901D01*
X165893306Y-82786790D01*
X165615410Y-82671681D01*
X165320396Y-82613000D01*
X165019604Y-82613000D01*
X164724590Y-82671681D01*
X164601993Y-82722463D01*
X164550673Y-82688172D01*
X164254578Y-82565525D01*
X164238868Y-82562400D01*
X175788673Y-82562400D01*
X175566049Y-82785024D01*
X175503971Y-82835970D01*
X175453025Y-82898048D01*
X175453021Y-82898052D01*
X175300653Y-83083714D01*
X175238482Y-83200027D01*
X175196099Y-83136596D01*
X174983406Y-82923903D01*
X174733306Y-82756792D01*
X174455410Y-82641683D01*
X174160396Y-82583002D01*
X173859604Y-82583002D01*
X173564590Y-82641683D01*
X173286694Y-82756792D01*
X173036594Y-82923903D01*
X172823901Y-83136596D01*
X172656790Y-83386696D01*
X172541681Y-83664592D01*
X172483000Y-83959606D01*
X172483000Y-84260398D01*
X172541681Y-84555412D01*
X172656790Y-84833308D01*
X172823901Y-85083408D01*
X173036594Y-85296101D01*
X173286694Y-85463212D01*
X173564590Y-85578321D01*
X173859604Y-85637002D01*
X174160396Y-85637002D01*
X174455410Y-85578321D01*
X174733306Y-85463212D01*
X174983406Y-85296101D01*
X175033000Y-85246507D01*
X175032999Y-86738040D01*
X175025128Y-86817955D01*
X175032999Y-86897869D01*
X175032999Y-86897879D01*
X175056541Y-87136902D01*
X175149574Y-87443592D01*
X175300653Y-87726240D01*
X175503970Y-87973984D01*
X175566054Y-88024935D01*
X176735074Y-89193955D01*
X176786025Y-89256039D01*
X177033768Y-89459356D01*
X177316416Y-89610435D01*
X177573971Y-89688563D01*
X177623106Y-89703468D01*
X177942054Y-89734882D01*
X178021979Y-89727010D01*
X180964087Y-89727010D01*
X181657852Y-90420776D01*
X181657851Y-95818000D01*
X168641496Y-95818000D01*
X168580000Y-95811943D01*
X168518504Y-95818000D01*
X168518502Y-95818000D01*
X168334565Y-95836116D01*
X168147044Y-95893000D01*
X168079604Y-95893000D01*
X167784590Y-95951681D01*
X167506694Y-96066790D01*
X167256594Y-96233901D01*
X167043901Y-96446594D01*
X166876790Y-96696694D01*
X166761681Y-96974590D01*
X166703000Y-97269604D01*
X166703000Y-97570396D01*
X166761681Y-97865410D01*
X166876790Y-98143306D01*
X167030266Y-98372999D01*
X163354465Y-98372999D01*
X163378319Y-98315410D01*
X163437000Y-98020396D01*
X163437000Y-97719604D01*
X163378319Y-97424590D01*
X163263210Y-97146694D01*
X163096099Y-96896594D01*
X162883406Y-96683901D01*
X162633306Y-96516790D01*
X162355410Y-96401681D01*
X162060396Y-96343000D01*
X161783595Y-96343000D01*
X156332000Y-90891405D01*
X156332000Y-90104778D01*
X156433210Y-89953306D01*
X156548319Y-89675410D01*
X156607000Y-89380396D01*
X156607000Y-89079604D01*
X156548319Y-88784590D01*
X156433210Y-88506694D01*
X156266099Y-88256594D01*
X156053406Y-88043901D01*
X155803306Y-87876790D01*
X155525410Y-87761681D01*
X155230396Y-87703000D01*
X154929604Y-87703000D01*
X154634590Y-87761681D01*
X154356694Y-87876790D01*
X154106594Y-88043901D01*
X153893901Y-88256594D01*
X153726790Y-88506694D01*
X153611681Y-88784590D01*
X153553000Y-89079604D01*
X153553000Y-89380396D01*
X153611681Y-89675410D01*
X153726790Y-89953306D01*
X153828000Y-90104779D01*
X153828001Y-91348495D01*
X153821943Y-91410000D01*
X153846117Y-91655434D01*
X153917707Y-91891437D01*
X154033964Y-92108938D01*
X154129880Y-92225812D01*
X154190420Y-92299581D01*
X154238188Y-92338783D01*
X160272404Y-98372999D01*
X159073923Y-98372999D01*
X158403947Y-97703022D01*
X158347152Y-97646227D01*
X158280365Y-97601602D01*
X158218285Y-97550654D01*
X158147458Y-97512796D01*
X158080673Y-97468172D01*
X158006466Y-97437434D01*
X157935638Y-97399576D01*
X157858789Y-97376264D01*
X157784578Y-97345525D01*
X157705791Y-97329853D01*
X157628947Y-97306543D01*
X157549034Y-97298672D01*
X157470245Y-97283000D01*
X157418442Y-97283000D01*
X157373503Y-97134855D01*
X157287839Y-96974590D01*
X157257246Y-96917353D01*
X157220431Y-96872495D01*
X157100791Y-96726712D01*
X157053013Y-96687501D01*
X156333705Y-95968193D01*
X156294498Y-95920419D01*
X156103856Y-95763964D01*
X155886355Y-95647707D01*
X155650352Y-95576116D01*
X155466415Y-95558000D01*
X155466413Y-95558000D01*
X155404917Y-95551943D01*
X155343421Y-95558000D01*
X149325706Y-95558000D01*
X149367000Y-95350396D01*
X149367000Y-95049604D01*
X149308319Y-94754590D01*
X149193210Y-94476694D01*
X149026099Y-94226594D01*
X148813406Y-94013901D01*
X148563306Y-93846790D01*
X148285410Y-93731681D01*
X147990396Y-93673000D01*
X147689604Y-93673000D01*
X147394590Y-93731681D01*
X147116694Y-93846790D01*
X146866594Y-94013901D01*
X146653901Y-94226594D01*
X146486790Y-94476694D01*
X146371681Y-94754590D01*
X146313000Y-95049604D01*
X146313000Y-95350396D01*
X146354294Y-95558000D01*
X138824778Y-95558000D01*
X138673306Y-95456790D01*
X138395410Y-95341681D01*
X138100396Y-95283000D01*
X137799604Y-95283000D01*
X137504590Y-95341681D01*
X137226694Y-95456790D01*
X136976594Y-95623901D01*
X136763901Y-95836594D01*
X136596790Y-96086694D01*
X136481681Y-96364590D01*
X136441937Y-96564400D01*
X124018600Y-96564400D01*
X124018600Y-88556800D01*
X127708049Y-88556800D01*
X127768400Y-88562744D01*
X128009248Y-88539023D01*
X128240840Y-88468770D01*
X128454276Y-88354686D01*
X128641354Y-88201154D01*
X128794886Y-88014076D01*
X128908970Y-87800640D01*
X128979223Y-87569048D01*
X128997000Y-87388552D01*
X128997000Y-87388551D01*
X129002944Y-87328200D01*
X128997000Y-87267848D01*
X128997000Y-82562400D01*
X158630778Y-82562400D01*
X158381594Y-82728899D01*
%TA.AperFunction,Conductor*%
D24*
G36*
X158381594Y-82728899D02*
G01*
X158168901Y-82941592D01*
X158001790Y-83191692D01*
X157886681Y-83469588D01*
X157828000Y-83764602D01*
X157828000Y-84065394D01*
X157886681Y-84360408D01*
X158001790Y-84638304D01*
X158168901Y-84888404D01*
X158381594Y-85101097D01*
X158631694Y-85268208D01*
X158909590Y-85383317D01*
X159204604Y-85441998D01*
X159505396Y-85441998D01*
X159658170Y-85411610D01*
X159654765Y-85422652D01*
X159645000Y-85544250D01*
X159701903Y-85601153D01*
X159520240Y-85750240D01*
X159361994Y-85943063D01*
X159244407Y-86163053D01*
X159171997Y-86401757D01*
X159147547Y-86650000D01*
X159147547Y-86930000D01*
X159171997Y-87178243D01*
X159244407Y-87416947D01*
X159361994Y-87636937D01*
X159520240Y-87829760D01*
X159713063Y-87988006D01*
X159933053Y-88105593D01*
X160171757Y-88178003D01*
X160420000Y-88202453D01*
X160760000Y-88202453D01*
X161008243Y-88178003D01*
X161246947Y-88105593D01*
X161365921Y-88042000D01*
X163608510Y-88042000D01*
X163622780Y-88089042D01*
X163750532Y-88328050D01*
X163922458Y-88537542D01*
X164131950Y-88709468D01*
X164370958Y-88837220D01*
X164630296Y-88915890D01*
X164899999Y-88942453D01*
X165550001Y-88942453D01*
X165819704Y-88915890D01*
X166079042Y-88837220D01*
X166318050Y-88709468D01*
X166527542Y-88537542D01*
X166699468Y-88328050D01*
X166827220Y-88089042D01*
X166905890Y-87829704D01*
X166907830Y-87810000D01*
X166961928Y-87810000D01*
X166974188Y-87934482D01*
X167010498Y-88054180D01*
X167069463Y-88164494D01*
X167148815Y-88261185D01*
X167245506Y-88340537D01*
X167355820Y-88399502D01*
X167475518Y-88435812D01*
X167600000Y-88448072D01*
X167889250Y-88445000D01*
X168048000Y-88286250D01*
X168048000Y-86587000D01*
X168302000Y-86587000D01*
X168302000Y-88286250D01*
X168460750Y-88445000D01*
X168750000Y-88448072D01*
X168874482Y-88435812D01*
X168994180Y-88399502D01*
X169104494Y-88340537D01*
X169201185Y-88261185D01*
X169280537Y-88164494D01*
X169339502Y-88054180D01*
X169375812Y-87934482D01*
X169388072Y-87810000D01*
X169385000Y-86745750D01*
X169226250Y-86587000D01*
X168302000Y-86587000D01*
X168048000Y-86587000D01*
X167123750Y-86587000D01*
X166965000Y-86745750D01*
X166961928Y-87810000D01*
X166907830Y-87810000D01*
X166932453Y-87560001D01*
X166932453Y-85359999D01*
X166907831Y-85110000D01*
X166961928Y-85110000D01*
X166965000Y-86174250D01*
X167123750Y-86333000D01*
X168048000Y-86333000D01*
X168048000Y-84633750D01*
X168302000Y-84633750D01*
X168302000Y-86333000D01*
X169226250Y-86333000D01*
X169385000Y-86174250D01*
X169388072Y-85110000D01*
X169375812Y-84985518D01*
X169339502Y-84865820D01*
X169280537Y-84755506D01*
X169201185Y-84658815D01*
X169104494Y-84579463D01*
X168994180Y-84520498D01*
X168874482Y-84484188D01*
X168750000Y-84471928D01*
X168460750Y-84475000D01*
X168302000Y-84633750D01*
X168048000Y-84633750D01*
X167889250Y-84475000D01*
X167600000Y-84471928D01*
X167475518Y-84484188D01*
X167355820Y-84520498D01*
X167245506Y-84579463D01*
X167148815Y-84658815D01*
X167069463Y-84755506D01*
X167010498Y-84865820D01*
X166974188Y-84985518D01*
X166961928Y-85110000D01*
X166907831Y-85110000D01*
X166905890Y-85090296D01*
X166827220Y-84830958D01*
X166699468Y-84591950D01*
X166649201Y-84530700D01*
X166697000Y-84290396D01*
X166697000Y-83989604D01*
X166638319Y-83694590D01*
X166523210Y-83416694D01*
X166356099Y-83166594D01*
X166143406Y-82953901D01*
X165893306Y-82786790D01*
X165615410Y-82671681D01*
X165320396Y-82613000D01*
X165019604Y-82613000D01*
X164724590Y-82671681D01*
X164601993Y-82722463D01*
X164550673Y-82688172D01*
X164254578Y-82565525D01*
X164238868Y-82562400D01*
X175788673Y-82562400D01*
X175566049Y-82785024D01*
X175503971Y-82835970D01*
X175453025Y-82898048D01*
X175453021Y-82898052D01*
X175300653Y-83083714D01*
X175238482Y-83200027D01*
X175196099Y-83136596D01*
X174983406Y-82923903D01*
X174733306Y-82756792D01*
X174455410Y-82641683D01*
X174160396Y-82583002D01*
X173859604Y-82583002D01*
X173564590Y-82641683D01*
X173286694Y-82756792D01*
X173036594Y-82923903D01*
X172823901Y-83136596D01*
X172656790Y-83386696D01*
X172541681Y-83664592D01*
X172483000Y-83959606D01*
X172483000Y-84260398D01*
X172541681Y-84555412D01*
X172656790Y-84833308D01*
X172823901Y-85083408D01*
X173036594Y-85296101D01*
X173286694Y-85463212D01*
X173564590Y-85578321D01*
X173859604Y-85637002D01*
X174160396Y-85637002D01*
X174455410Y-85578321D01*
X174733306Y-85463212D01*
X174983406Y-85296101D01*
X175033000Y-85246507D01*
X175032999Y-86738040D01*
X175025128Y-86817955D01*
X175032999Y-86897869D01*
X175032999Y-86897879D01*
X175056541Y-87136902D01*
X175149574Y-87443592D01*
X175300653Y-87726240D01*
X175503970Y-87973984D01*
X175566054Y-88024935D01*
X176735074Y-89193955D01*
X176786025Y-89256039D01*
X177033768Y-89459356D01*
X177316416Y-89610435D01*
X177573971Y-89688563D01*
X177623106Y-89703468D01*
X177942054Y-89734882D01*
X178021979Y-89727010D01*
X180964087Y-89727010D01*
X181657852Y-90420776D01*
X181657851Y-95818000D01*
X168641496Y-95818000D01*
X168580000Y-95811943D01*
X168518504Y-95818000D01*
X168518502Y-95818000D01*
X168334565Y-95836116D01*
X168147044Y-95893000D01*
X168079604Y-95893000D01*
X167784590Y-95951681D01*
X167506694Y-96066790D01*
X167256594Y-96233901D01*
X167043901Y-96446594D01*
X166876790Y-96696694D01*
X166761681Y-96974590D01*
X166703000Y-97269604D01*
X166703000Y-97570396D01*
X166761681Y-97865410D01*
X166876790Y-98143306D01*
X167030266Y-98372999D01*
X163354465Y-98372999D01*
X163378319Y-98315410D01*
X163437000Y-98020396D01*
X163437000Y-97719604D01*
X163378319Y-97424590D01*
X163263210Y-97146694D01*
X163096099Y-96896594D01*
X162883406Y-96683901D01*
X162633306Y-96516790D01*
X162355410Y-96401681D01*
X162060396Y-96343000D01*
X161783595Y-96343000D01*
X156332000Y-90891405D01*
X156332000Y-90104778D01*
X156433210Y-89953306D01*
X156548319Y-89675410D01*
X156607000Y-89380396D01*
X156607000Y-89079604D01*
X156548319Y-88784590D01*
X156433210Y-88506694D01*
X156266099Y-88256594D01*
X156053406Y-88043901D01*
X155803306Y-87876790D01*
X155525410Y-87761681D01*
X155230396Y-87703000D01*
X154929604Y-87703000D01*
X154634590Y-87761681D01*
X154356694Y-87876790D01*
X154106594Y-88043901D01*
X153893901Y-88256594D01*
X153726790Y-88506694D01*
X153611681Y-88784590D01*
X153553000Y-89079604D01*
X153553000Y-89380396D01*
X153611681Y-89675410D01*
X153726790Y-89953306D01*
X153828000Y-90104779D01*
X153828001Y-91348495D01*
X153821943Y-91410000D01*
X153846117Y-91655434D01*
X153917707Y-91891437D01*
X154033964Y-92108938D01*
X154129880Y-92225812D01*
X154190420Y-92299581D01*
X154238188Y-92338783D01*
X160272404Y-98372999D01*
X159073923Y-98372999D01*
X158403947Y-97703022D01*
X158347152Y-97646227D01*
X158280365Y-97601602D01*
X158218285Y-97550654D01*
X158147458Y-97512796D01*
X158080673Y-97468172D01*
X158006466Y-97437434D01*
X157935638Y-97399576D01*
X157858789Y-97376264D01*
X157784578Y-97345525D01*
X157705791Y-97329853D01*
X157628947Y-97306543D01*
X157549034Y-97298672D01*
X157470245Y-97283000D01*
X157418442Y-97283000D01*
X157373503Y-97134855D01*
X157287839Y-96974590D01*
X157257246Y-96917353D01*
X157220431Y-96872495D01*
X157100791Y-96726712D01*
X157053013Y-96687501D01*
X156333705Y-95968193D01*
X156294498Y-95920419D01*
X156103856Y-95763964D01*
X155886355Y-95647707D01*
X155650352Y-95576116D01*
X155466415Y-95558000D01*
X155466413Y-95558000D01*
X155404917Y-95551943D01*
X155343421Y-95558000D01*
X149325706Y-95558000D01*
X149367000Y-95350396D01*
X149367000Y-95049604D01*
X149308319Y-94754590D01*
X149193210Y-94476694D01*
X149026099Y-94226594D01*
X148813406Y-94013901D01*
X148563306Y-93846790D01*
X148285410Y-93731681D01*
X147990396Y-93673000D01*
X147689604Y-93673000D01*
X147394590Y-93731681D01*
X147116694Y-93846790D01*
X146866594Y-94013901D01*
X146653901Y-94226594D01*
X146486790Y-94476694D01*
X146371681Y-94754590D01*
X146313000Y-95049604D01*
X146313000Y-95350396D01*
X146354294Y-95558000D01*
X138824778Y-95558000D01*
X138673306Y-95456790D01*
X138395410Y-95341681D01*
X138100396Y-95283000D01*
X137799604Y-95283000D01*
X137504590Y-95341681D01*
X137226694Y-95456790D01*
X136976594Y-95623901D01*
X136763901Y-95836594D01*
X136596790Y-96086694D01*
X136481681Y-96364590D01*
X136441937Y-96564400D01*
X124018600Y-96564400D01*
X124018600Y-88556800D01*
X127708049Y-88556800D01*
X127768400Y-88562744D01*
X128009248Y-88539023D01*
X128240840Y-88468770D01*
X128454276Y-88354686D01*
X128641354Y-88201154D01*
X128794886Y-88014076D01*
X128908970Y-87800640D01*
X128979223Y-87569048D01*
X128997000Y-87388552D01*
X128997000Y-87388551D01*
X129002944Y-87328200D01*
X128997000Y-87267848D01*
X128997000Y-82562400D01*
X158630778Y-82562400D01*
X158381594Y-82728899D01*
G37*
%TD.AperFunction*%
D23*
X199731950Y-86249468D02*
X199970958Y-86377220D01*
X200230296Y-86455890D01*
X200499999Y-86482453D01*
X200794992Y-86482453D01*
X200764574Y-86539361D01*
X200671541Y-86846051D01*
X200640127Y-87164999D01*
X200671541Y-87483947D01*
X200764574Y-87790637D01*
X200915653Y-88073285D01*
X201118970Y-88321028D01*
X201366713Y-88524345D01*
X201602506Y-88650379D01*
X201344590Y-88701681D01*
X201066694Y-88816790D01*
X200915222Y-88918000D01*
X200895405Y-88918000D01*
X199276106Y-87298701D01*
X199309468Y-87258050D01*
X199437220Y-87019042D01*
X199515890Y-86759704D01*
X199542453Y-86490001D01*
X199542453Y-86093952D01*
X199731950Y-86249468D01*
%TA.AperFunction,Conductor*%
D24*
G36*
X199731950Y-86249468D02*
G01*
X199970958Y-86377220D01*
X200230296Y-86455890D01*
X200499999Y-86482453D01*
X200794992Y-86482453D01*
X200764574Y-86539361D01*
X200671541Y-86846051D01*
X200640127Y-87164999D01*
X200671541Y-87483947D01*
X200764574Y-87790637D01*
X200915653Y-88073285D01*
X201118970Y-88321028D01*
X201366713Y-88524345D01*
X201602506Y-88650379D01*
X201344590Y-88701681D01*
X201066694Y-88816790D01*
X200915222Y-88918000D01*
X200895405Y-88918000D01*
X199276106Y-87298701D01*
X199309468Y-87258050D01*
X199437220Y-87019042D01*
X199515890Y-86759704D01*
X199542453Y-86490001D01*
X199542453Y-86093952D01*
X199731950Y-86249468D01*
G37*
%TD.AperFunction*%
D23*
X182392000Y-85923000D02*
X182412000Y-85923000D01*
X182412000Y-86177000D01*
X182392000Y-86177000D01*
X182392000Y-86197000D01*
X182138000Y-86197000D01*
X182138000Y-86177000D01*
X182118000Y-86177000D01*
X182118000Y-85923000D01*
X182138000Y-85923000D01*
X182138000Y-85903000D01*
X182392000Y-85903000D01*
X182392000Y-85923000D01*
%TA.AperFunction,Conductor*%
D24*
G36*
X182392000Y-85923000D02*
G01*
X182412000Y-85923000D01*
X182412000Y-86177000D01*
X182392000Y-86177000D01*
X182392000Y-86197000D01*
X182138000Y-86197000D01*
X182138000Y-86177000D01*
X182118000Y-86177000D01*
X182118000Y-85923000D01*
X182138000Y-85923000D01*
X182138000Y-85903000D01*
X182392000Y-85903000D01*
X182392000Y-85923000D01*
G37*
%TD.AperFunction*%
D23*
X182885000Y-83034250D02*
X183043750Y-83193000D01*
X183968000Y-83193000D01*
X183968000Y-83173000D01*
X184222000Y-83173000D01*
X184222000Y-83193000D01*
X185146250Y-83193000D01*
X185305000Y-83034250D01*
X185306362Y-82562400D01*
X185337547Y-82562400D01*
X185337547Y-83963246D01*
X185306050Y-83969511D01*
X185305000Y-83605750D01*
X185146250Y-83447000D01*
X184222000Y-83447000D01*
X184222000Y-83467000D01*
X183968000Y-83467000D01*
X183968000Y-83447000D01*
X183043750Y-83447000D01*
X182885000Y-83605750D01*
X182883671Y-84066229D01*
X182840000Y-84061928D01*
X182550750Y-84065000D01*
X182392002Y-84223748D01*
X182392002Y-84065000D01*
X182367002Y-84065000D01*
X182367002Y-83789604D01*
X182308321Y-83494590D01*
X182193212Y-83216694D01*
X182026101Y-82966594D01*
X181813408Y-82753901D01*
X181563308Y-82586790D01*
X181504426Y-82562400D01*
X182883638Y-82562400D01*
X182885000Y-83034250D01*
%TA.AperFunction,Conductor*%
D24*
G36*
X182885000Y-83034250D02*
G01*
X183043750Y-83193000D01*
X183968000Y-83193000D01*
X183968000Y-83173000D01*
X184222000Y-83173000D01*
X184222000Y-83193000D01*
X185146250Y-83193000D01*
X185305000Y-83034250D01*
X185306362Y-82562400D01*
X185337547Y-82562400D01*
X185337547Y-83963246D01*
X185306050Y-83969511D01*
X185305000Y-83605750D01*
X185146250Y-83447000D01*
X184222000Y-83447000D01*
X184222000Y-83467000D01*
X183968000Y-83467000D01*
X183968000Y-83447000D01*
X183043750Y-83447000D01*
X182885000Y-83605750D01*
X182883671Y-84066229D01*
X182840000Y-84061928D01*
X182550750Y-84065000D01*
X182392002Y-84223748D01*
X182392002Y-84065000D01*
X182367002Y-84065000D01*
X182367002Y-83789604D01*
X182308321Y-83494590D01*
X182193212Y-83216694D01*
X182026101Y-82966594D01*
X181813408Y-82753901D01*
X181563308Y-82586790D01*
X181504426Y-82562400D01*
X182883638Y-82562400D01*
X182885000Y-83034250D01*
G37*
%TD.AperFunction*%
%TD*%
M02*
