%TF.GenerationSoftware,KiCad,Pcbnew,(5.1.10)-1*%
%TF.CreationDate,2021-06-25T15:36:54-07:00*%
%TF.ProjectId,laser,6c617365-722e-46b6-9963-61645f706362,rev?*%
%TF.SameCoordinates,Original*%
%TF.FileFunction,Copper,L1,Top*%
%TF.FilePolarity,Positive*%
%FSLAX46Y46*%
G04 Gerber Fmt 4.6, Leading zero omitted, Abs format (unit mm)*
G04 Created by KiCad (PCBNEW (5.1.10)-1) date 2021-06-25 15:36:54*
%MOMM*%
%LPD*%
G01*
G04 APERTURE LIST*
%TA.AperFunction,ComponentPad*%
%ADD10R,1.650000X1.650000*%
%TD*%
%TA.AperFunction,ComponentPad*%
%ADD11C,1.650000*%
%TD*%
%TA.AperFunction,SMDPad,CuDef*%
%ADD12R,0.558000X1.969999*%
%TD*%
%TA.AperFunction,SMDPad,CuDef*%
%ADD13R,12.000000X3.810000*%
%TD*%
%TA.AperFunction,SMDPad,CuDef*%
%ADD14R,1.000000X1.400000*%
%TD*%
%TA.AperFunction,SMDPad,CuDef*%
%ADD15R,1.040000X5.250000*%
%TD*%
%TA.AperFunction,SMDPad,CuDef*%
%ADD16R,0.850000X0.300000*%
%TD*%
%TA.AperFunction,SMDPad,CuDef*%
%ADD17R,1.700000X2.540000*%
%TD*%
%TA.AperFunction,SMDPad,CuDef*%
%ADD18R,1.050000X0.550000*%
%TD*%
%TA.AperFunction,SMDPad,CuDef*%
%ADD19R,0.799999X0.250000*%
%TD*%
%TA.AperFunction,SMDPad,CuDef*%
%ADD20R,1.700000X2.440000*%
%TD*%
%TA.AperFunction,SMDPad,CuDef*%
%ADD21R,1.525000X0.700000*%
%TD*%
%TA.AperFunction,SMDPad,CuDef*%
%ADD22R,0.650000X1.525000*%
%TD*%
%TA.AperFunction,SMDPad,CuDef*%
%ADD23R,0.450000X1.475000*%
%TD*%
%TA.AperFunction,SMDPad,CuDef*%
%ADD24R,2.200000X2.500000*%
%TD*%
%TA.AperFunction,SMDPad,CuDef*%
%ADD25R,2.000000X0.500000*%
%TD*%
%TA.AperFunction,SMDPad,CuDef*%
%ADD26R,0.600000X1.300000*%
%TD*%
%TA.AperFunction,SMDPad,CuDef*%
%ADD27R,2.410000X1.650000*%
%TD*%
%TA.AperFunction,ComponentPad*%
%ADD28C,1.524000*%
%TD*%
%TA.AperFunction,SMDPad,CuDef*%
%ADD29R,1.309599X0.568000*%
%TD*%
%TA.AperFunction,SMDPad,CuDef*%
%ADD30R,1.315199X0.405600*%
%TD*%
%TA.AperFunction,SMDPad,CuDef*%
%ADD31R,1.300000X1.100000*%
%TD*%
%TA.AperFunction,SMDPad,CuDef*%
%ADD32R,0.600000X1.500000*%
%TD*%
%TA.AperFunction,SMDPad,CuDef*%
%ADD33R,1.500000X0.600000*%
%TD*%
%TA.AperFunction,ViaPad*%
%ADD34C,0.800000*%
%TD*%
%TA.AperFunction,ViaPad*%
%ADD35C,1.000000*%
%TD*%
%TA.AperFunction,ViaPad*%
%ADD36C,1.800000*%
%TD*%
%TA.AperFunction,ViaPad*%
%ADD37C,2.489200*%
%TD*%
%TA.AperFunction,Conductor*%
%ADD38C,0.250000*%
%TD*%
%TA.AperFunction,Conductor*%
%ADD39C,0.500000*%
%TD*%
%TA.AperFunction,Conductor*%
%ADD40C,1.000000*%
%TD*%
%TA.AperFunction,Conductor*%
%ADD41C,0.700000*%
%TD*%
%TA.AperFunction,Conductor*%
%ADD42C,0.050000*%
%TD*%
%TA.AperFunction,Conductor*%
%ADD43C,0.100000*%
%TD*%
G04 APERTURE END LIST*
D10*
%TO.P,J601,1*%
%TO.N,/ArduinoNano/D12-MISO*%
X202420000Y-114240000D03*
D11*
%TO.P,J601,3*%
%TO.N,/ArduinoNano/D13-SCK*%
X204960000Y-114240000D03*
%TO.P,J601,5*%
%TO.N,/ArduinoNano/RESET*%
X207500000Y-114240000D03*
%TO.P,J601,2*%
%TO.N,5.0V*%
X202420000Y-116780000D03*
%TO.P,J601,4*%
%TO.N,/ArduinoNano/D11-MOSI*%
X204960000Y-116780000D03*
%TO.P,J601,6*%
%TO.N,GND*%
X207500000Y-116780000D03*
%TD*%
D12*
%TO.P,U301,1*%
%TO.N,GND*%
X158085000Y-95436300D03*
%TO.P,U301,2*%
%TO.N,Net-(U301-Pad2)*%
X159355000Y-95436300D03*
%TO.P,U301,3*%
%TO.N,Net-(R305-Pad1)*%
X160625000Y-95436300D03*
%TO.P,U301,4*%
%TO.N,Net-(U301-Pad4)*%
X161895000Y-95436300D03*
%TO.P,U301,5*%
%TO.N,Net-(C304-Pad2)*%
X163165000Y-95436300D03*
%TO.P,U301,6*%
%TO.N,REFERENCE_2.5V*%
X164435000Y-95436300D03*
%TO.P,U301,7*%
%TO.N,Net-(U301-Pad7)*%
X165705000Y-95436300D03*
%TO.P,U301,8*%
%TO.N,Arduino_D5_Output*%
X166975000Y-95436300D03*
%TO.P,U301,9*%
%TO.N,Net-(U301-Pad9)*%
X168245000Y-95436300D03*
%TO.P,U301,10*%
%TO.N,GND*%
X169515000Y-95436300D03*
%TO.P,U301,11*%
X169515000Y-86063700D03*
%TO.P,U301,12*%
%TO.N,4.2V*%
X168245000Y-86063700D03*
%TO.P,U301,13*%
X166975000Y-86063700D03*
%TO.P,U301,14*%
%TO.N,TEC_Minus*%
X165705000Y-86063700D03*
%TO.P,U301,15*%
X164435000Y-86063700D03*
%TO.P,U301,16*%
%TO.N,Net-(U301-Pad16)*%
X163165000Y-86063700D03*
%TO.P,U301,17*%
%TO.N,GND*%
X161895000Y-86063700D03*
%TO.P,U301,18*%
X160625000Y-86063700D03*
%TO.P,U301,19*%
%TO.N,To_Arduino_AtoD_Neg*%
X159355000Y-86063700D03*
%TO.P,U301,20*%
%TO.N,GND*%
X158085000Y-86063700D03*
D13*
%TO.P,U301,EPAD*%
X163800000Y-90750000D03*
%TD*%
%TO.P,U302,EPAD*%
%TO.N,GND*%
X177590000Y-90800000D03*
D12*
%TO.P,U302,20*%
X171875000Y-86113700D03*
%TO.P,U302,19*%
%TO.N,To_Arduino_AtoD_Pos*%
X173145000Y-86113700D03*
%TO.P,U302,18*%
%TO.N,GND*%
X174415000Y-86113700D03*
%TO.P,U302,17*%
X175685000Y-86113700D03*
%TO.P,U302,16*%
%TO.N,Net-(U302-Pad16)*%
X176955000Y-86113700D03*
%TO.P,U302,15*%
%TO.N,TEC_Plus*%
X178225000Y-86113700D03*
%TO.P,U302,14*%
X179495000Y-86113700D03*
%TO.P,U302,13*%
%TO.N,4.2V*%
X180765000Y-86113700D03*
%TO.P,U302,12*%
X182035000Y-86113700D03*
%TO.P,U302,11*%
%TO.N,GND*%
X183305000Y-86113700D03*
%TO.P,U302,10*%
X183305000Y-95486300D03*
%TO.P,U302,9*%
%TO.N,Net-(U302-Pad9)*%
X182035000Y-95486300D03*
%TO.P,U302,8*%
%TO.N,Arduino_D5_Output*%
X180765000Y-95486300D03*
%TO.P,U302,7*%
%TO.N,Net-(U302-Pad7)*%
X179495000Y-95486300D03*
%TO.P,U302,6*%
%TO.N,REFERENCE_2.5V*%
X178225000Y-95486300D03*
%TO.P,U302,5*%
%TO.N,Net-(C301-Pad1)*%
X176955000Y-95486300D03*
%TO.P,U302,4*%
%TO.N,Net-(U302-Pad4)*%
X175685000Y-95486300D03*
%TO.P,U302,3*%
%TO.N,Net-(R306-Pad1)*%
X174415000Y-95486300D03*
%TO.P,U302,2*%
%TO.N,Net-(U302-Pad2)*%
X173145000Y-95486300D03*
%TO.P,U302,1*%
%TO.N,GND*%
X171875000Y-95486300D03*
%TD*%
D14*
%TO.P,U402,1*%
%TO.N,LASER_V-*%
X145090000Y-126940000D03*
%TO.P,U402,2*%
%TO.N,Net-(C411-Pad2)*%
X145090000Y-129540000D03*
%TD*%
%TO.P,R901,2*%
%TO.N,GND*%
%TA.AperFunction,SMDPad,CuDef*%
G36*
G01*
X138140000Y-89445000D02*
X138140000Y-89075000D01*
G75*
G02*
X138275000Y-88940000I135000J0D01*
G01*
X138545000Y-88940000D01*
G75*
G02*
X138680000Y-89075000I0J-135000D01*
G01*
X138680000Y-89445000D01*
G75*
G02*
X138545000Y-89580000I-135000J0D01*
G01*
X138275000Y-89580000D01*
G75*
G02*
X138140000Y-89445000I0J135000D01*
G01*
G37*
%TD.AperFunction*%
%TO.P,R901,1*%
%TO.N,Monitor+_To_AIN2*%
%TA.AperFunction,SMDPad,CuDef*%
G36*
G01*
X137120000Y-89445000D02*
X137120000Y-89075000D01*
G75*
G02*
X137255000Y-88940000I135000J0D01*
G01*
X137525000Y-88940000D01*
G75*
G02*
X137660000Y-89075000I0J-135000D01*
G01*
X137660000Y-89445000D01*
G75*
G02*
X137525000Y-89580000I-135000J0D01*
G01*
X137255000Y-89580000D01*
G75*
G02*
X137120000Y-89445000I0J135000D01*
G01*
G37*
%TD.AperFunction*%
%TD*%
%TO.P,C502,1*%
%TO.N,Butterfly_Thermistor*%
%TA.AperFunction,SMDPad,CuDef*%
G36*
G01*
X168800000Y-109890000D02*
X169140000Y-109890000D01*
G75*
G02*
X169280000Y-110030000I0J-140000D01*
G01*
X169280000Y-110310000D01*
G75*
G02*
X169140000Y-110450000I-140000J0D01*
G01*
X168800000Y-110450000D01*
G75*
G02*
X168660000Y-110310000I0J140000D01*
G01*
X168660000Y-110030000D01*
G75*
G02*
X168800000Y-109890000I140000J0D01*
G01*
G37*
%TD.AperFunction*%
%TO.P,C502,2*%
%TO.N,GND*%
%TA.AperFunction,SMDPad,CuDef*%
G36*
G01*
X168800000Y-110850000D02*
X169140000Y-110850000D01*
G75*
G02*
X169280000Y-110990000I0J-140000D01*
G01*
X169280000Y-111270000D01*
G75*
G02*
X169140000Y-111410000I-140000J0D01*
G01*
X168800000Y-111410000D01*
G75*
G02*
X168660000Y-111270000I0J140000D01*
G01*
X168660000Y-110990000D01*
G75*
G02*
X168800000Y-110850000I140000J0D01*
G01*
G37*
%TD.AperFunction*%
%TD*%
D15*
%TO.P,B1,1*%
%TO.N,Butterfly_Thermistor*%
X145620000Y-93280000D03*
%TO.P,B1,2*%
%TO.N,GND*%
X143080000Y-93280000D03*
%TO.P,B1,3*%
%TO.N,LASER_V-*%
X140540000Y-93280000D03*
%TO.P,B1,4*%
%TO.N,Monitor+_To_AIN2*%
X138000000Y-93280000D03*
%TO.P,B1,5*%
%TO.N,GND*%
X135460000Y-93280000D03*
%TO.P,B1,6*%
%TO.N,TEC_Plus*%
X132920000Y-93280000D03*
%TO.P,B1,7*%
%TO.N,TEC_Minus*%
X130380000Y-93280000D03*
%TO.P,B1,8*%
%TO.N,GND*%
X145620000Y-120280000D03*
%TO.P,B1,9*%
X143080000Y-120280000D03*
%TO.P,B1,10*%
%TO.N,Net-(B1-Pad10)*%
X140540000Y-120280000D03*
%TO.P,B1,11*%
%TO.N,3.3V*%
X138000000Y-120280000D03*
%TO.P,B1,12*%
%TO.N,Net-(B1-Pad12)*%
X135460000Y-120280000D03*
%TO.P,B1,13*%
%TO.N,Net-(B1-Pad13)*%
X132920000Y-120280000D03*
%TO.P,B1,14*%
%TO.N,Net-(B1-Pad14)*%
X130380000Y-120280000D03*
%TD*%
%TO.P,C203,2*%
%TO.N,GND*%
%TA.AperFunction,SMDPad,CuDef*%
G36*
G01*
X200200000Y-88220000D02*
X200200000Y-87880000D01*
G75*
G02*
X200340000Y-87740000I140000J0D01*
G01*
X200620000Y-87740000D01*
G75*
G02*
X200760000Y-87880000I0J-140000D01*
G01*
X200760000Y-88220000D01*
G75*
G02*
X200620000Y-88360000I-140000J0D01*
G01*
X200340000Y-88360000D01*
G75*
G02*
X200200000Y-88220000I0J140000D01*
G01*
G37*
%TD.AperFunction*%
%TO.P,C203,1*%
%TO.N,Net-(C203-Pad1)*%
%TA.AperFunction,SMDPad,CuDef*%
G36*
G01*
X199240000Y-88220000D02*
X199240000Y-87880000D01*
G75*
G02*
X199380000Y-87740000I140000J0D01*
G01*
X199660000Y-87740000D01*
G75*
G02*
X199800000Y-87880000I0J-140000D01*
G01*
X199800000Y-88220000D01*
G75*
G02*
X199660000Y-88360000I-140000J0D01*
G01*
X199380000Y-88360000D01*
G75*
G02*
X199240000Y-88220000I0J140000D01*
G01*
G37*
%TD.AperFunction*%
%TD*%
%TO.P,C205,1*%
%TO.N,Net-(C205-Pad1)*%
%TA.AperFunction,SMDPad,CuDef*%
G36*
G01*
X202750000Y-92940000D02*
X203090000Y-92940000D01*
G75*
G02*
X203230000Y-93080000I0J-140000D01*
G01*
X203230000Y-93360000D01*
G75*
G02*
X203090000Y-93500000I-140000J0D01*
G01*
X202750000Y-93500000D01*
G75*
G02*
X202610000Y-93360000I0J140000D01*
G01*
X202610000Y-93080000D01*
G75*
G02*
X202750000Y-92940000I140000J0D01*
G01*
G37*
%TD.AperFunction*%
%TO.P,C205,2*%
%TO.N,Net-(C205-Pad2)*%
%TA.AperFunction,SMDPad,CuDef*%
G36*
G01*
X202750000Y-93900000D02*
X203090000Y-93900000D01*
G75*
G02*
X203230000Y-94040000I0J-140000D01*
G01*
X203230000Y-94320000D01*
G75*
G02*
X203090000Y-94460000I-140000J0D01*
G01*
X202750000Y-94460000D01*
G75*
G02*
X202610000Y-94320000I0J140000D01*
G01*
X202610000Y-94040000D01*
G75*
G02*
X202750000Y-93900000I140000J0D01*
G01*
G37*
%TD.AperFunction*%
%TD*%
%TO.P,C207,1*%
%TO.N,GND*%
%TA.AperFunction,SMDPad,CuDef*%
G36*
G01*
X193090000Y-88420000D02*
X193090000Y-88080000D01*
G75*
G02*
X193230000Y-87940000I140000J0D01*
G01*
X193510000Y-87940000D01*
G75*
G02*
X193650000Y-88080000I0J-140000D01*
G01*
X193650000Y-88420000D01*
G75*
G02*
X193510000Y-88560000I-140000J0D01*
G01*
X193230000Y-88560000D01*
G75*
G02*
X193090000Y-88420000I0J140000D01*
G01*
G37*
%TD.AperFunction*%
%TO.P,C207,2*%
%TO.N,Net-(C207-Pad2)*%
%TA.AperFunction,SMDPad,CuDef*%
G36*
G01*
X194050000Y-88420000D02*
X194050000Y-88080000D01*
G75*
G02*
X194190000Y-87940000I140000J0D01*
G01*
X194470000Y-87940000D01*
G75*
G02*
X194610000Y-88080000I0J-140000D01*
G01*
X194610000Y-88420000D01*
G75*
G02*
X194470000Y-88560000I-140000J0D01*
G01*
X194190000Y-88560000D01*
G75*
G02*
X194050000Y-88420000I0J140000D01*
G01*
G37*
%TD.AperFunction*%
%TD*%
%TO.P,C212,2*%
%TO.N,GND*%
%TA.AperFunction,SMDPad,CuDef*%
G36*
G01*
X193840000Y-90590000D02*
X194180000Y-90590000D01*
G75*
G02*
X194320000Y-90730000I0J-140000D01*
G01*
X194320000Y-91010000D01*
G75*
G02*
X194180000Y-91150000I-140000J0D01*
G01*
X193840000Y-91150000D01*
G75*
G02*
X193700000Y-91010000I0J140000D01*
G01*
X193700000Y-90730000D01*
G75*
G02*
X193840000Y-90590000I140000J0D01*
G01*
G37*
%TD.AperFunction*%
%TO.P,C212,1*%
%TO.N,Net-(C209-Pad1)*%
%TA.AperFunction,SMDPad,CuDef*%
G36*
G01*
X193840000Y-89630000D02*
X194180000Y-89630000D01*
G75*
G02*
X194320000Y-89770000I0J-140000D01*
G01*
X194320000Y-90050000D01*
G75*
G02*
X194180000Y-90190000I-140000J0D01*
G01*
X193840000Y-90190000D01*
G75*
G02*
X193700000Y-90050000I0J140000D01*
G01*
X193700000Y-89770000D01*
G75*
G02*
X193840000Y-89630000I140000J0D01*
G01*
G37*
%TD.AperFunction*%
%TD*%
%TO.P,C301,1*%
%TO.N,Net-(C301-Pad1)*%
%TA.AperFunction,SMDPad,CuDef*%
G36*
G01*
X178240000Y-97730000D02*
X178580000Y-97730000D01*
G75*
G02*
X178720000Y-97870000I0J-140000D01*
G01*
X178720000Y-98150000D01*
G75*
G02*
X178580000Y-98290000I-140000J0D01*
G01*
X178240000Y-98290000D01*
G75*
G02*
X178100000Y-98150000I0J140000D01*
G01*
X178100000Y-97870000D01*
G75*
G02*
X178240000Y-97730000I140000J0D01*
G01*
G37*
%TD.AperFunction*%
%TO.P,C301,2*%
%TO.N,TEC_Plus*%
%TA.AperFunction,SMDPad,CuDef*%
G36*
G01*
X178240000Y-98690000D02*
X178580000Y-98690000D01*
G75*
G02*
X178720000Y-98830000I0J-140000D01*
G01*
X178720000Y-99110000D01*
G75*
G02*
X178580000Y-99250000I-140000J0D01*
G01*
X178240000Y-99250000D01*
G75*
G02*
X178100000Y-99110000I0J140000D01*
G01*
X178100000Y-98830000D01*
G75*
G02*
X178240000Y-98690000I140000J0D01*
G01*
G37*
%TD.AperFunction*%
%TD*%
%TO.P,C302,2*%
%TO.N,REFERENCE_2.5V*%
%TA.AperFunction,SMDPad,CuDef*%
G36*
G01*
X170800000Y-100010000D02*
X170800000Y-99670000D01*
G75*
G02*
X170940000Y-99530000I140000J0D01*
G01*
X171220000Y-99530000D01*
G75*
G02*
X171360000Y-99670000I0J-140000D01*
G01*
X171360000Y-100010000D01*
G75*
G02*
X171220000Y-100150000I-140000J0D01*
G01*
X170940000Y-100150000D01*
G75*
G02*
X170800000Y-100010000I0J140000D01*
G01*
G37*
%TD.AperFunction*%
%TO.P,C302,1*%
%TO.N,GND*%
%TA.AperFunction,SMDPad,CuDef*%
G36*
G01*
X169840000Y-100010000D02*
X169840000Y-99670000D01*
G75*
G02*
X169980000Y-99530000I140000J0D01*
G01*
X170260000Y-99530000D01*
G75*
G02*
X170400000Y-99670000I0J-140000D01*
G01*
X170400000Y-100010000D01*
G75*
G02*
X170260000Y-100150000I-140000J0D01*
G01*
X169980000Y-100150000D01*
G75*
G02*
X169840000Y-100010000I0J140000D01*
G01*
G37*
%TD.AperFunction*%
%TD*%
%TO.P,C303,1*%
%TO.N,GND*%
%TA.AperFunction,SMDPad,CuDef*%
G36*
G01*
X167120000Y-99610000D02*
X167120000Y-99950000D01*
G75*
G02*
X166980000Y-100090000I-140000J0D01*
G01*
X166700000Y-100090000D01*
G75*
G02*
X166560000Y-99950000I0J140000D01*
G01*
X166560000Y-99610000D01*
G75*
G02*
X166700000Y-99470000I140000J0D01*
G01*
X166980000Y-99470000D01*
G75*
G02*
X167120000Y-99610000I0J-140000D01*
G01*
G37*
%TD.AperFunction*%
%TO.P,C303,2*%
%TO.N,REFERENCE_2.5V*%
%TA.AperFunction,SMDPad,CuDef*%
G36*
G01*
X166160000Y-99610000D02*
X166160000Y-99950000D01*
G75*
G02*
X166020000Y-100090000I-140000J0D01*
G01*
X165740000Y-100090000D01*
G75*
G02*
X165600000Y-99950000I0J140000D01*
G01*
X165600000Y-99610000D01*
G75*
G02*
X165740000Y-99470000I140000J0D01*
G01*
X166020000Y-99470000D01*
G75*
G02*
X166160000Y-99610000I0J-140000D01*
G01*
G37*
%TD.AperFunction*%
%TD*%
%TO.P,C304,2*%
%TO.N,Net-(C304-Pad2)*%
%TA.AperFunction,SMDPad,CuDef*%
G36*
G01*
X152980000Y-87150000D02*
X153320000Y-87150000D01*
G75*
G02*
X153460000Y-87290000I0J-140000D01*
G01*
X153460000Y-87570000D01*
G75*
G02*
X153320000Y-87710000I-140000J0D01*
G01*
X152980000Y-87710000D01*
G75*
G02*
X152840000Y-87570000I0J140000D01*
G01*
X152840000Y-87290000D01*
G75*
G02*
X152980000Y-87150000I140000J0D01*
G01*
G37*
%TD.AperFunction*%
%TO.P,C304,1*%
%TO.N,TEC_Minus*%
%TA.AperFunction,SMDPad,CuDef*%
G36*
G01*
X152980000Y-86190000D02*
X153320000Y-86190000D01*
G75*
G02*
X153460000Y-86330000I0J-140000D01*
G01*
X153460000Y-86610000D01*
G75*
G02*
X153320000Y-86750000I-140000J0D01*
G01*
X152980000Y-86750000D01*
G75*
G02*
X152840000Y-86610000I0J140000D01*
G01*
X152840000Y-86330000D01*
G75*
G02*
X152980000Y-86190000I140000J0D01*
G01*
G37*
%TD.AperFunction*%
%TD*%
%TO.P,C401,2*%
%TO.N,MODULATION_SIGNAL*%
%TA.AperFunction,SMDPad,CuDef*%
G36*
G01*
X156530000Y-120740000D02*
X156870000Y-120740000D01*
G75*
G02*
X157010000Y-120880000I0J-140000D01*
G01*
X157010000Y-121160000D01*
G75*
G02*
X156870000Y-121300000I-140000J0D01*
G01*
X156530000Y-121300000D01*
G75*
G02*
X156390000Y-121160000I0J140000D01*
G01*
X156390000Y-120880000D01*
G75*
G02*
X156530000Y-120740000I140000J0D01*
G01*
G37*
%TD.AperFunction*%
%TO.P,C401,1*%
%TO.N,Net-(C401-Pad1)*%
%TA.AperFunction,SMDPad,CuDef*%
G36*
G01*
X156530000Y-119780000D02*
X156870000Y-119780000D01*
G75*
G02*
X157010000Y-119920000I0J-140000D01*
G01*
X157010000Y-120200000D01*
G75*
G02*
X156870000Y-120340000I-140000J0D01*
G01*
X156530000Y-120340000D01*
G75*
G02*
X156390000Y-120200000I0J140000D01*
G01*
X156390000Y-119920000D01*
G75*
G02*
X156530000Y-119780000I140000J0D01*
G01*
G37*
%TD.AperFunction*%
%TD*%
%TO.P,C402,1*%
%TO.N,GND*%
%TA.AperFunction,SMDPad,CuDef*%
G36*
G01*
X159400000Y-124000000D02*
X159060000Y-124000000D01*
G75*
G02*
X158920000Y-123860000I0J140000D01*
G01*
X158920000Y-123580000D01*
G75*
G02*
X159060000Y-123440000I140000J0D01*
G01*
X159400000Y-123440000D01*
G75*
G02*
X159540000Y-123580000I0J-140000D01*
G01*
X159540000Y-123860000D01*
G75*
G02*
X159400000Y-124000000I-140000J0D01*
G01*
G37*
%TD.AperFunction*%
%TO.P,C402,2*%
%TO.N,REFERENCE_2.5V*%
%TA.AperFunction,SMDPad,CuDef*%
G36*
G01*
X159400000Y-123040000D02*
X159060000Y-123040000D01*
G75*
G02*
X158920000Y-122900000I0J140000D01*
G01*
X158920000Y-122620000D01*
G75*
G02*
X159060000Y-122480000I140000J0D01*
G01*
X159400000Y-122480000D01*
G75*
G02*
X159540000Y-122620000I0J-140000D01*
G01*
X159540000Y-122900000D01*
G75*
G02*
X159400000Y-123040000I-140000J0D01*
G01*
G37*
%TD.AperFunction*%
%TD*%
%TO.P,C405,2*%
%TO.N,GND*%
%TA.AperFunction,SMDPad,CuDef*%
G36*
G01*
X168980000Y-120920000D02*
X168980000Y-121260000D01*
G75*
G02*
X168840000Y-121400000I-140000J0D01*
G01*
X168560000Y-121400000D01*
G75*
G02*
X168420000Y-121260000I0J140000D01*
G01*
X168420000Y-120920000D01*
G75*
G02*
X168560000Y-120780000I140000J0D01*
G01*
X168840000Y-120780000D01*
G75*
G02*
X168980000Y-120920000I0J-140000D01*
G01*
G37*
%TD.AperFunction*%
%TO.P,C405,1*%
%TO.N,Net-(C405-Pad1)*%
%TA.AperFunction,SMDPad,CuDef*%
G36*
G01*
X169940000Y-120920000D02*
X169940000Y-121260000D01*
G75*
G02*
X169800000Y-121400000I-140000J0D01*
G01*
X169520000Y-121400000D01*
G75*
G02*
X169380000Y-121260000I0J140000D01*
G01*
X169380000Y-120920000D01*
G75*
G02*
X169520000Y-120780000I140000J0D01*
G01*
X169800000Y-120780000D01*
G75*
G02*
X169940000Y-120920000I0J-140000D01*
G01*
G37*
%TD.AperFunction*%
%TD*%
%TO.P,C406,1*%
%TO.N,Net-(C406-Pad1)*%
%TA.AperFunction,SMDPad,CuDef*%
G36*
G01*
X170990000Y-129800000D02*
X170990000Y-130140000D01*
G75*
G02*
X170850000Y-130280000I-140000J0D01*
G01*
X170570000Y-130280000D01*
G75*
G02*
X170430000Y-130140000I0J140000D01*
G01*
X170430000Y-129800000D01*
G75*
G02*
X170570000Y-129660000I140000J0D01*
G01*
X170850000Y-129660000D01*
G75*
G02*
X170990000Y-129800000I0J-140000D01*
G01*
G37*
%TD.AperFunction*%
%TO.P,C406,2*%
%TO.N,GND*%
%TA.AperFunction,SMDPad,CuDef*%
G36*
G01*
X170030000Y-129800000D02*
X170030000Y-130140000D01*
G75*
G02*
X169890000Y-130280000I-140000J0D01*
G01*
X169610000Y-130280000D01*
G75*
G02*
X169470000Y-130140000I0J140000D01*
G01*
X169470000Y-129800000D01*
G75*
G02*
X169610000Y-129660000I140000J0D01*
G01*
X169890000Y-129660000D01*
G75*
G02*
X170030000Y-129800000I0J-140000D01*
G01*
G37*
%TD.AperFunction*%
%TD*%
%TO.P,C407,2*%
%TO.N,Net-(C407-Pad2)*%
%TA.AperFunction,SMDPad,CuDef*%
G36*
G01*
X159560000Y-115560000D02*
X159560000Y-115220000D01*
G75*
G02*
X159700000Y-115080000I140000J0D01*
G01*
X159980000Y-115080000D01*
G75*
G02*
X160120000Y-115220000I0J-140000D01*
G01*
X160120000Y-115560000D01*
G75*
G02*
X159980000Y-115700000I-140000J0D01*
G01*
X159700000Y-115700000D01*
G75*
G02*
X159560000Y-115560000I0J140000D01*
G01*
G37*
%TD.AperFunction*%
%TO.P,C407,1*%
%TO.N,GND*%
%TA.AperFunction,SMDPad,CuDef*%
G36*
G01*
X158600000Y-115560000D02*
X158600000Y-115220000D01*
G75*
G02*
X158740000Y-115080000I140000J0D01*
G01*
X159020000Y-115080000D01*
G75*
G02*
X159160000Y-115220000I0J-140000D01*
G01*
X159160000Y-115560000D01*
G75*
G02*
X159020000Y-115700000I-140000J0D01*
G01*
X158740000Y-115700000D01*
G75*
G02*
X158600000Y-115560000I0J140000D01*
G01*
G37*
%TD.AperFunction*%
%TD*%
%TO.P,C408,1*%
%TO.N,Net-(C408-Pad1)*%
%TA.AperFunction,SMDPad,CuDef*%
G36*
G01*
X162110000Y-123350000D02*
X162110000Y-123690000D01*
G75*
G02*
X161970000Y-123830000I-140000J0D01*
G01*
X161690000Y-123830000D01*
G75*
G02*
X161550000Y-123690000I0J140000D01*
G01*
X161550000Y-123350000D01*
G75*
G02*
X161690000Y-123210000I140000J0D01*
G01*
X161970000Y-123210000D01*
G75*
G02*
X162110000Y-123350000I0J-140000D01*
G01*
G37*
%TD.AperFunction*%
%TO.P,C408,2*%
%TO.N,GND*%
%TA.AperFunction,SMDPad,CuDef*%
G36*
G01*
X161150000Y-123350000D02*
X161150000Y-123690000D01*
G75*
G02*
X161010000Y-123830000I-140000J0D01*
G01*
X160730000Y-123830000D01*
G75*
G02*
X160590000Y-123690000I0J140000D01*
G01*
X160590000Y-123350000D01*
G75*
G02*
X160730000Y-123210000I140000J0D01*
G01*
X161010000Y-123210000D01*
G75*
G02*
X161150000Y-123350000I0J-140000D01*
G01*
G37*
%TD.AperFunction*%
%TD*%
%TO.P,C409,2*%
%TO.N,Net-(C408-Pad1)*%
%TA.AperFunction,SMDPad,CuDef*%
G36*
G01*
X165830000Y-116280000D02*
X165830000Y-115940000D01*
G75*
G02*
X165970000Y-115800000I140000J0D01*
G01*
X166250000Y-115800000D01*
G75*
G02*
X166390000Y-115940000I0J-140000D01*
G01*
X166390000Y-116280000D01*
G75*
G02*
X166250000Y-116420000I-140000J0D01*
G01*
X165970000Y-116420000D01*
G75*
G02*
X165830000Y-116280000I0J140000D01*
G01*
G37*
%TD.AperFunction*%
%TO.P,C409,1*%
%TO.N,Net-(C407-Pad2)*%
%TA.AperFunction,SMDPad,CuDef*%
G36*
G01*
X164870000Y-116280000D02*
X164870000Y-115940000D01*
G75*
G02*
X165010000Y-115800000I140000J0D01*
G01*
X165290000Y-115800000D01*
G75*
G02*
X165430000Y-115940000I0J-140000D01*
G01*
X165430000Y-116280000D01*
G75*
G02*
X165290000Y-116420000I-140000J0D01*
G01*
X165010000Y-116420000D01*
G75*
G02*
X164870000Y-116280000I0J140000D01*
G01*
G37*
%TD.AperFunction*%
%TD*%
%TO.P,C410,1*%
%TO.N,3.3V*%
%TA.AperFunction,SMDPad,CuDef*%
G36*
G01*
X140350000Y-127330000D02*
X140350000Y-126990000D01*
G75*
G02*
X140490000Y-126850000I140000J0D01*
G01*
X140770000Y-126850000D01*
G75*
G02*
X140910000Y-126990000I0J-140000D01*
G01*
X140910000Y-127330000D01*
G75*
G02*
X140770000Y-127470000I-140000J0D01*
G01*
X140490000Y-127470000D01*
G75*
G02*
X140350000Y-127330000I0J140000D01*
G01*
G37*
%TD.AperFunction*%
%TO.P,C410,2*%
%TO.N,LASER_V-*%
%TA.AperFunction,SMDPad,CuDef*%
G36*
G01*
X141310000Y-127330000D02*
X141310000Y-126990000D01*
G75*
G02*
X141450000Y-126850000I140000J0D01*
G01*
X141730000Y-126850000D01*
G75*
G02*
X141870000Y-126990000I0J-140000D01*
G01*
X141870000Y-127330000D01*
G75*
G02*
X141730000Y-127470000I-140000J0D01*
G01*
X141450000Y-127470000D01*
G75*
G02*
X141310000Y-127330000I0J140000D01*
G01*
G37*
%TD.AperFunction*%
%TD*%
%TO.P,C411,2*%
%TO.N,Net-(C411-Pad2)*%
%TA.AperFunction,SMDPad,CuDef*%
G36*
G01*
X141300000Y-129240000D02*
X141300000Y-128900000D01*
G75*
G02*
X141440000Y-128760000I140000J0D01*
G01*
X141720000Y-128760000D01*
G75*
G02*
X141860000Y-128900000I0J-140000D01*
G01*
X141860000Y-129240000D01*
G75*
G02*
X141720000Y-129380000I-140000J0D01*
G01*
X141440000Y-129380000D01*
G75*
G02*
X141300000Y-129240000I0J140000D01*
G01*
G37*
%TD.AperFunction*%
%TO.P,C411,1*%
%TO.N,3.3V*%
%TA.AperFunction,SMDPad,CuDef*%
G36*
G01*
X140340000Y-129240000D02*
X140340000Y-128900000D01*
G75*
G02*
X140480000Y-128760000I140000J0D01*
G01*
X140760000Y-128760000D01*
G75*
G02*
X140900000Y-128900000I0J-140000D01*
G01*
X140900000Y-129240000D01*
G75*
G02*
X140760000Y-129380000I-140000J0D01*
G01*
X140480000Y-129380000D01*
G75*
G02*
X140340000Y-129240000I0J140000D01*
G01*
G37*
%TD.AperFunction*%
%TD*%
%TO.P,C501,2*%
%TO.N,GND*%
%TA.AperFunction,SMDPad,CuDef*%
G36*
G01*
X176430000Y-104600000D02*
X176770000Y-104600000D01*
G75*
G02*
X176910000Y-104740000I0J-140000D01*
G01*
X176910000Y-105020000D01*
G75*
G02*
X176770000Y-105160000I-140000J0D01*
G01*
X176430000Y-105160000D01*
G75*
G02*
X176290000Y-105020000I0J140000D01*
G01*
X176290000Y-104740000D01*
G75*
G02*
X176430000Y-104600000I140000J0D01*
G01*
G37*
%TD.AperFunction*%
%TO.P,C501,1*%
%TO.N,Net-(C501-Pad1)*%
%TA.AperFunction,SMDPad,CuDef*%
G36*
G01*
X176430000Y-103640000D02*
X176770000Y-103640000D01*
G75*
G02*
X176910000Y-103780000I0J-140000D01*
G01*
X176910000Y-104060000D01*
G75*
G02*
X176770000Y-104200000I-140000J0D01*
G01*
X176430000Y-104200000D01*
G75*
G02*
X176290000Y-104060000I0J140000D01*
G01*
X176290000Y-103780000D01*
G75*
G02*
X176430000Y-103640000I140000J0D01*
G01*
G37*
%TD.AperFunction*%
%TD*%
%TO.P,C503,1*%
%TO.N,REFERENCE_2.5V*%
%TA.AperFunction,SMDPad,CuDef*%
G36*
G01*
X174600000Y-112520000D02*
X174940000Y-112520000D01*
G75*
G02*
X175080000Y-112660000I0J-140000D01*
G01*
X175080000Y-112940000D01*
G75*
G02*
X174940000Y-113080000I-140000J0D01*
G01*
X174600000Y-113080000D01*
G75*
G02*
X174460000Y-112940000I0J140000D01*
G01*
X174460000Y-112660000D01*
G75*
G02*
X174600000Y-112520000I140000J0D01*
G01*
G37*
%TD.AperFunction*%
%TO.P,C503,2*%
%TO.N,GND*%
%TA.AperFunction,SMDPad,CuDef*%
G36*
G01*
X174600000Y-113480000D02*
X174940000Y-113480000D01*
G75*
G02*
X175080000Y-113620000I0J-140000D01*
G01*
X175080000Y-113900000D01*
G75*
G02*
X174940000Y-114040000I-140000J0D01*
G01*
X174600000Y-114040000D01*
G75*
G02*
X174460000Y-113900000I0J140000D01*
G01*
X174460000Y-113620000D01*
G75*
G02*
X174600000Y-113480000I140000J0D01*
G01*
G37*
%TD.AperFunction*%
%TD*%
%TO.P,C508,1*%
%TO.N,Net-(C508-Pad1)*%
%TA.AperFunction,SMDPad,CuDef*%
G36*
G01*
X183050000Y-110629999D02*
X183050000Y-113530001D01*
G75*
G02*
X182800001Y-113780000I-249999J0D01*
G01*
X181899999Y-113780000D01*
G75*
G02*
X181650000Y-113530001I0J249999D01*
G01*
X181650000Y-110629999D01*
G75*
G02*
X181899999Y-110380000I249999J0D01*
G01*
X182800001Y-110380000D01*
G75*
G02*
X183050000Y-110629999I0J-249999D01*
G01*
G37*
%TD.AperFunction*%
%TO.P,C508,2*%
%TO.N,Thermal_Control_to_Power_OpAmps*%
%TA.AperFunction,SMDPad,CuDef*%
G36*
G01*
X178950000Y-110629999D02*
X178950000Y-113530001D01*
G75*
G02*
X178700001Y-113780000I-249999J0D01*
G01*
X177799999Y-113780000D01*
G75*
G02*
X177550000Y-113530001I0J249999D01*
G01*
X177550000Y-110629999D01*
G75*
G02*
X177799999Y-110380000I249999J0D01*
G01*
X178700001Y-110380000D01*
G75*
G02*
X178950000Y-110629999I0J-249999D01*
G01*
G37*
%TD.AperFunction*%
%TD*%
%TO.P,C601,1*%
%TO.N,Net-(C601-Pad1)*%
%TA.AperFunction,SMDPad,CuDef*%
G36*
G01*
X200880000Y-101040000D02*
X201220000Y-101040000D01*
G75*
G02*
X201360000Y-101180000I0J-140000D01*
G01*
X201360000Y-101460000D01*
G75*
G02*
X201220000Y-101600000I-140000J0D01*
G01*
X200880000Y-101600000D01*
G75*
G02*
X200740000Y-101460000I0J140000D01*
G01*
X200740000Y-101180000D01*
G75*
G02*
X200880000Y-101040000I140000J0D01*
G01*
G37*
%TD.AperFunction*%
%TO.P,C601,2*%
%TO.N,GND*%
%TA.AperFunction,SMDPad,CuDef*%
G36*
G01*
X200880000Y-102000000D02*
X201220000Y-102000000D01*
G75*
G02*
X201360000Y-102140000I0J-140000D01*
G01*
X201360000Y-102420000D01*
G75*
G02*
X201220000Y-102560000I-140000J0D01*
G01*
X200880000Y-102560000D01*
G75*
G02*
X200740000Y-102420000I0J140000D01*
G01*
X200740000Y-102140000D01*
G75*
G02*
X200880000Y-102000000I140000J0D01*
G01*
G37*
%TD.AperFunction*%
%TD*%
%TO.P,C602,2*%
%TO.N,GND*%
%TA.AperFunction,SMDPad,CuDef*%
G36*
G01*
X200870000Y-106070000D02*
X200870000Y-105730000D01*
G75*
G02*
X201010000Y-105590000I140000J0D01*
G01*
X201290000Y-105590000D01*
G75*
G02*
X201430000Y-105730000I0J-140000D01*
G01*
X201430000Y-106070000D01*
G75*
G02*
X201290000Y-106210000I-140000J0D01*
G01*
X201010000Y-106210000D01*
G75*
G02*
X200870000Y-106070000I0J140000D01*
G01*
G37*
%TD.AperFunction*%
%TO.P,C602,1*%
%TO.N,Net-(C602-Pad1)*%
%TA.AperFunction,SMDPad,CuDef*%
G36*
G01*
X199910000Y-106070000D02*
X199910000Y-105730000D01*
G75*
G02*
X200050000Y-105590000I140000J0D01*
G01*
X200330000Y-105590000D01*
G75*
G02*
X200470000Y-105730000I0J-140000D01*
G01*
X200470000Y-106070000D01*
G75*
G02*
X200330000Y-106210000I-140000J0D01*
G01*
X200050000Y-106210000D01*
G75*
G02*
X199910000Y-106070000I0J140000D01*
G01*
G37*
%TD.AperFunction*%
%TD*%
%TO.P,C603,2*%
%TO.N,GND*%
%TA.AperFunction,SMDPad,CuDef*%
G36*
G01*
X189480000Y-95340000D02*
X189480000Y-95000000D01*
G75*
G02*
X189620000Y-94860000I140000J0D01*
G01*
X189900000Y-94860000D01*
G75*
G02*
X190040000Y-95000000I0J-140000D01*
G01*
X190040000Y-95340000D01*
G75*
G02*
X189900000Y-95480000I-140000J0D01*
G01*
X189620000Y-95480000D01*
G75*
G02*
X189480000Y-95340000I0J140000D01*
G01*
G37*
%TD.AperFunction*%
%TO.P,C603,1*%
%TO.N,5.0V*%
%TA.AperFunction,SMDPad,CuDef*%
G36*
G01*
X188520000Y-95340000D02*
X188520000Y-95000000D01*
G75*
G02*
X188660000Y-94860000I140000J0D01*
G01*
X188940000Y-94860000D01*
G75*
G02*
X189080000Y-95000000I0J-140000D01*
G01*
X189080000Y-95340000D01*
G75*
G02*
X188940000Y-95480000I-140000J0D01*
G01*
X188660000Y-95480000D01*
G75*
G02*
X188520000Y-95340000I0J140000D01*
G01*
G37*
%TD.AperFunction*%
%TD*%
%TO.P,C605,2*%
%TO.N,GND*%
%TA.AperFunction,SMDPad,CuDef*%
G36*
G01*
X193710000Y-101120000D02*
X193710000Y-100780000D01*
G75*
G02*
X193850000Y-100640000I140000J0D01*
G01*
X194130000Y-100640000D01*
G75*
G02*
X194270000Y-100780000I0J-140000D01*
G01*
X194270000Y-101120000D01*
G75*
G02*
X194130000Y-101260000I-140000J0D01*
G01*
X193850000Y-101260000D01*
G75*
G02*
X193710000Y-101120000I0J140000D01*
G01*
G37*
%TD.AperFunction*%
%TO.P,C605,1*%
%TO.N,5.0V*%
%TA.AperFunction,SMDPad,CuDef*%
G36*
G01*
X192750000Y-101120000D02*
X192750000Y-100780000D01*
G75*
G02*
X192890000Y-100640000I140000J0D01*
G01*
X193170000Y-100640000D01*
G75*
G02*
X193310000Y-100780000I0J-140000D01*
G01*
X193310000Y-101120000D01*
G75*
G02*
X193170000Y-101260000I-140000J0D01*
G01*
X192890000Y-101260000D01*
G75*
G02*
X192750000Y-101120000I0J140000D01*
G01*
G37*
%TD.AperFunction*%
%TD*%
%TO.P,C606,1*%
%TO.N,Net-(C606-Pad1)*%
%TA.AperFunction,SMDPad,CuDef*%
G36*
G01*
X194150000Y-104690000D02*
X193810000Y-104690000D01*
G75*
G02*
X193670000Y-104550000I0J140000D01*
G01*
X193670000Y-104270000D01*
G75*
G02*
X193810000Y-104130000I140000J0D01*
G01*
X194150000Y-104130000D01*
G75*
G02*
X194290000Y-104270000I0J-140000D01*
G01*
X194290000Y-104550000D01*
G75*
G02*
X194150000Y-104690000I-140000J0D01*
G01*
G37*
%TD.AperFunction*%
%TO.P,C606,2*%
%TO.N,GND*%
%TA.AperFunction,SMDPad,CuDef*%
G36*
G01*
X194150000Y-103730000D02*
X193810000Y-103730000D01*
G75*
G02*
X193670000Y-103590000I0J140000D01*
G01*
X193670000Y-103310000D01*
G75*
G02*
X193810000Y-103170000I140000J0D01*
G01*
X194150000Y-103170000D01*
G75*
G02*
X194290000Y-103310000I0J-140000D01*
G01*
X194290000Y-103590000D01*
G75*
G02*
X194150000Y-103730000I-140000J0D01*
G01*
G37*
%TD.AperFunction*%
%TD*%
%TO.P,C702,1*%
%TO.N,3.3V*%
%TA.AperFunction,SMDPad,CuDef*%
G36*
G01*
X164990000Y-110180000D02*
X164990000Y-109840000D01*
G75*
G02*
X165130000Y-109700000I140000J0D01*
G01*
X165410000Y-109700000D01*
G75*
G02*
X165550000Y-109840000I0J-140000D01*
G01*
X165550000Y-110180000D01*
G75*
G02*
X165410000Y-110320000I-140000J0D01*
G01*
X165130000Y-110320000D01*
G75*
G02*
X164990000Y-110180000I0J140000D01*
G01*
G37*
%TD.AperFunction*%
%TO.P,C702,2*%
%TO.N,GND*%
%TA.AperFunction,SMDPad,CuDef*%
G36*
G01*
X165950000Y-110180000D02*
X165950000Y-109840000D01*
G75*
G02*
X166090000Y-109700000I140000J0D01*
G01*
X166370000Y-109700000D01*
G75*
G02*
X166510000Y-109840000I0J-140000D01*
G01*
X166510000Y-110180000D01*
G75*
G02*
X166370000Y-110320000I-140000J0D01*
G01*
X166090000Y-110320000D01*
G75*
G02*
X165950000Y-110180000I0J140000D01*
G01*
G37*
%TD.AperFunction*%
%TD*%
%TO.P,C703,2*%
%TO.N,GND*%
%TA.AperFunction,SMDPad,CuDef*%
G36*
G01*
X162730000Y-112280000D02*
X163070000Y-112280000D01*
G75*
G02*
X163210000Y-112420000I0J-140000D01*
G01*
X163210000Y-112700000D01*
G75*
G02*
X163070000Y-112840000I-140000J0D01*
G01*
X162730000Y-112840000D01*
G75*
G02*
X162590000Y-112700000I0J140000D01*
G01*
X162590000Y-112420000D01*
G75*
G02*
X162730000Y-112280000I140000J0D01*
G01*
G37*
%TD.AperFunction*%
%TO.P,C703,1*%
%TO.N,Net-(C703-Pad1)*%
%TA.AperFunction,SMDPad,CuDef*%
G36*
G01*
X162730000Y-111320000D02*
X163070000Y-111320000D01*
G75*
G02*
X163210000Y-111460000I0J-140000D01*
G01*
X163210000Y-111740000D01*
G75*
G02*
X163070000Y-111880000I-140000J0D01*
G01*
X162730000Y-111880000D01*
G75*
G02*
X162590000Y-111740000I0J140000D01*
G01*
X162590000Y-111460000D01*
G75*
G02*
X162730000Y-111320000I140000J0D01*
G01*
G37*
%TD.AperFunction*%
%TD*%
%TO.P,C704,2*%
%TO.N,GND*%
%TA.AperFunction,SMDPad,CuDef*%
G36*
G01*
X165940000Y-111480000D02*
X165940000Y-111140000D01*
G75*
G02*
X166080000Y-111000000I140000J0D01*
G01*
X166360000Y-111000000D01*
G75*
G02*
X166500000Y-111140000I0J-140000D01*
G01*
X166500000Y-111480000D01*
G75*
G02*
X166360000Y-111620000I-140000J0D01*
G01*
X166080000Y-111620000D01*
G75*
G02*
X165940000Y-111480000I0J140000D01*
G01*
G37*
%TD.AperFunction*%
%TO.P,C704,1*%
%TO.N,3.3V*%
%TA.AperFunction,SMDPad,CuDef*%
G36*
G01*
X164980000Y-111480000D02*
X164980000Y-111140000D01*
G75*
G02*
X165120000Y-111000000I140000J0D01*
G01*
X165400000Y-111000000D01*
G75*
G02*
X165540000Y-111140000I0J-140000D01*
G01*
X165540000Y-111480000D01*
G75*
G02*
X165400000Y-111620000I-140000J0D01*
G01*
X165120000Y-111620000D01*
G75*
G02*
X164980000Y-111480000I0J140000D01*
G01*
G37*
%TD.AperFunction*%
%TD*%
%TO.P,C705,1*%
%TO.N,REFERENCE_2.5V*%
%TA.AperFunction,SMDPad,CuDef*%
G36*
G01*
X165550000Y-101270000D02*
X165550000Y-100930000D01*
G75*
G02*
X165690000Y-100790000I140000J0D01*
G01*
X165970000Y-100790000D01*
G75*
G02*
X166110000Y-100930000I0J-140000D01*
G01*
X166110000Y-101270000D01*
G75*
G02*
X165970000Y-101410000I-140000J0D01*
G01*
X165690000Y-101410000D01*
G75*
G02*
X165550000Y-101270000I0J140000D01*
G01*
G37*
%TD.AperFunction*%
%TO.P,C705,2*%
%TO.N,GND*%
%TA.AperFunction,SMDPad,CuDef*%
G36*
G01*
X166510000Y-101270000D02*
X166510000Y-100930000D01*
G75*
G02*
X166650000Y-100790000I140000J0D01*
G01*
X166930000Y-100790000D01*
G75*
G02*
X167070000Y-100930000I0J-140000D01*
G01*
X167070000Y-101270000D01*
G75*
G02*
X166930000Y-101410000I-140000J0D01*
G01*
X166650000Y-101410000D01*
G75*
G02*
X166510000Y-101270000I0J140000D01*
G01*
G37*
%TD.AperFunction*%
%TD*%
%TO.P,C801,1*%
%TO.N,REFERENCE_2.5V*%
%TA.AperFunction,SMDPad,CuDef*%
G36*
G01*
X181930000Y-129710000D02*
X181930000Y-129370000D01*
G75*
G02*
X182070000Y-129230000I140000J0D01*
G01*
X182350000Y-129230000D01*
G75*
G02*
X182490000Y-129370000I0J-140000D01*
G01*
X182490000Y-129710000D01*
G75*
G02*
X182350000Y-129850000I-140000J0D01*
G01*
X182070000Y-129850000D01*
G75*
G02*
X181930000Y-129710000I0J140000D01*
G01*
G37*
%TD.AperFunction*%
%TO.P,C801,2*%
%TO.N,GND*%
%TA.AperFunction,SMDPad,CuDef*%
G36*
G01*
X182890000Y-129710000D02*
X182890000Y-129370000D01*
G75*
G02*
X183030000Y-129230000I140000J0D01*
G01*
X183310000Y-129230000D01*
G75*
G02*
X183450000Y-129370000I0J-140000D01*
G01*
X183450000Y-129710000D01*
G75*
G02*
X183310000Y-129850000I-140000J0D01*
G01*
X183030000Y-129850000D01*
G75*
G02*
X182890000Y-129710000I0J140000D01*
G01*
G37*
%TD.AperFunction*%
%TD*%
%TO.P,C802,2*%
%TO.N,GND*%
%TA.AperFunction,SMDPad,CuDef*%
G36*
G01*
X182710000Y-118430000D02*
X182370000Y-118430000D01*
G75*
G02*
X182230000Y-118290000I0J140000D01*
G01*
X182230000Y-118010000D01*
G75*
G02*
X182370000Y-117870000I140000J0D01*
G01*
X182710000Y-117870000D01*
G75*
G02*
X182850000Y-118010000I0J-140000D01*
G01*
X182850000Y-118290000D01*
G75*
G02*
X182710000Y-118430000I-140000J0D01*
G01*
G37*
%TD.AperFunction*%
%TO.P,C802,1*%
%TO.N,3.3V*%
%TA.AperFunction,SMDPad,CuDef*%
G36*
G01*
X182710000Y-119390000D02*
X182370000Y-119390000D01*
G75*
G02*
X182230000Y-119250000I0J140000D01*
G01*
X182230000Y-118970000D01*
G75*
G02*
X182370000Y-118830000I140000J0D01*
G01*
X182710000Y-118830000D01*
G75*
G02*
X182850000Y-118970000I0J-140000D01*
G01*
X182850000Y-119250000D01*
G75*
G02*
X182710000Y-119390000I-140000J0D01*
G01*
G37*
%TD.AperFunction*%
%TD*%
%TO.P,C803,2*%
%TO.N,GND*%
%TA.AperFunction,SMDPad,CuDef*%
G36*
G01*
X183900000Y-118420000D02*
X183560000Y-118420000D01*
G75*
G02*
X183420000Y-118280000I0J140000D01*
G01*
X183420000Y-118000000D01*
G75*
G02*
X183560000Y-117860000I140000J0D01*
G01*
X183900000Y-117860000D01*
G75*
G02*
X184040000Y-118000000I0J-140000D01*
G01*
X184040000Y-118280000D01*
G75*
G02*
X183900000Y-118420000I-140000J0D01*
G01*
G37*
%TD.AperFunction*%
%TO.P,C803,1*%
%TO.N,3.3V*%
%TA.AperFunction,SMDPad,CuDef*%
G36*
G01*
X183900000Y-119380000D02*
X183560000Y-119380000D01*
G75*
G02*
X183420000Y-119240000I0J140000D01*
G01*
X183420000Y-118960000D01*
G75*
G02*
X183560000Y-118820000I140000J0D01*
G01*
X183900000Y-118820000D01*
G75*
G02*
X184040000Y-118960000I0J-140000D01*
G01*
X184040000Y-119240000D01*
G75*
G02*
X183900000Y-119380000I-140000J0D01*
G01*
G37*
%TD.AperFunction*%
%TD*%
%TO.P,C804,1*%
%TO.N,REFERENCE_2.5V*%
%TA.AperFunction,SMDPad,CuDef*%
G36*
G01*
X174730000Y-124280000D02*
X175070000Y-124280000D01*
G75*
G02*
X175210000Y-124420000I0J-140000D01*
G01*
X175210000Y-124700000D01*
G75*
G02*
X175070000Y-124840000I-140000J0D01*
G01*
X174730000Y-124840000D01*
G75*
G02*
X174590000Y-124700000I0J140000D01*
G01*
X174590000Y-124420000D01*
G75*
G02*
X174730000Y-124280000I140000J0D01*
G01*
G37*
%TD.AperFunction*%
%TO.P,C804,2*%
%TO.N,GND*%
%TA.AperFunction,SMDPad,CuDef*%
G36*
G01*
X174730000Y-125240000D02*
X175070000Y-125240000D01*
G75*
G02*
X175210000Y-125380000I0J-140000D01*
G01*
X175210000Y-125660000D01*
G75*
G02*
X175070000Y-125800000I-140000J0D01*
G01*
X174730000Y-125800000D01*
G75*
G02*
X174590000Y-125660000I0J140000D01*
G01*
X174590000Y-125380000D01*
G75*
G02*
X174730000Y-125240000I140000J0D01*
G01*
G37*
%TD.AperFunction*%
%TD*%
%TO.P,C805,1*%
%TO.N,3.3V*%
%TA.AperFunction,SMDPad,CuDef*%
G36*
G01*
X182720000Y-126730000D02*
X182380000Y-126730000D01*
G75*
G02*
X182240000Y-126590000I0J140000D01*
G01*
X182240000Y-126310000D01*
G75*
G02*
X182380000Y-126170000I140000J0D01*
G01*
X182720000Y-126170000D01*
G75*
G02*
X182860000Y-126310000I0J-140000D01*
G01*
X182860000Y-126590000D01*
G75*
G02*
X182720000Y-126730000I-140000J0D01*
G01*
G37*
%TD.AperFunction*%
%TO.P,C805,2*%
%TO.N,GND*%
%TA.AperFunction,SMDPad,CuDef*%
G36*
G01*
X182720000Y-125770000D02*
X182380000Y-125770000D01*
G75*
G02*
X182240000Y-125630000I0J140000D01*
G01*
X182240000Y-125350000D01*
G75*
G02*
X182380000Y-125210000I140000J0D01*
G01*
X182720000Y-125210000D01*
G75*
G02*
X182860000Y-125350000I0J-140000D01*
G01*
X182860000Y-125630000D01*
G75*
G02*
X182720000Y-125770000I-140000J0D01*
G01*
G37*
%TD.AperFunction*%
%TD*%
%TO.P,C806,2*%
%TO.N,GND*%
%TA.AperFunction,SMDPad,CuDef*%
G36*
G01*
X183910000Y-125780000D02*
X183570000Y-125780000D01*
G75*
G02*
X183430000Y-125640000I0J140000D01*
G01*
X183430000Y-125360000D01*
G75*
G02*
X183570000Y-125220000I140000J0D01*
G01*
X183910000Y-125220000D01*
G75*
G02*
X184050000Y-125360000I0J-140000D01*
G01*
X184050000Y-125640000D01*
G75*
G02*
X183910000Y-125780000I-140000J0D01*
G01*
G37*
%TD.AperFunction*%
%TO.P,C806,1*%
%TO.N,3.3V*%
%TA.AperFunction,SMDPad,CuDef*%
G36*
G01*
X183910000Y-126740000D02*
X183570000Y-126740000D01*
G75*
G02*
X183430000Y-126600000I0J140000D01*
G01*
X183430000Y-126320000D01*
G75*
G02*
X183570000Y-126180000I140000J0D01*
G01*
X183910000Y-126180000D01*
G75*
G02*
X184050000Y-126320000I0J-140000D01*
G01*
X184050000Y-126600000D01*
G75*
G02*
X183910000Y-126740000I-140000J0D01*
G01*
G37*
%TD.AperFunction*%
%TD*%
%TO.P,C807,1*%
%TO.N,Net-(C807-Pad1)*%
%TA.AperFunction,SMDPad,CuDef*%
G36*
G01*
X194680000Y-130850000D02*
X194680000Y-130510000D01*
G75*
G02*
X194820000Y-130370000I140000J0D01*
G01*
X195100000Y-130370000D01*
G75*
G02*
X195240000Y-130510000I0J-140000D01*
G01*
X195240000Y-130850000D01*
G75*
G02*
X195100000Y-130990000I-140000J0D01*
G01*
X194820000Y-130990000D01*
G75*
G02*
X194680000Y-130850000I0J140000D01*
G01*
G37*
%TD.AperFunction*%
%TO.P,C807,2*%
%TO.N,GND*%
%TA.AperFunction,SMDPad,CuDef*%
G36*
G01*
X195640000Y-130850000D02*
X195640000Y-130510000D01*
G75*
G02*
X195780000Y-130370000I140000J0D01*
G01*
X196060000Y-130370000D01*
G75*
G02*
X196200000Y-130510000I0J-140000D01*
G01*
X196200000Y-130850000D01*
G75*
G02*
X196060000Y-130990000I-140000J0D01*
G01*
X195780000Y-130990000D01*
G75*
G02*
X195640000Y-130850000I0J140000D01*
G01*
G37*
%TD.AperFunction*%
%TD*%
%TO.P,C808,1*%
%TO.N,Net-(C808-Pad1)*%
%TA.AperFunction,SMDPad,CuDef*%
G36*
G01*
X197950000Y-127870000D02*
X197950000Y-127530000D01*
G75*
G02*
X198090000Y-127390000I140000J0D01*
G01*
X198370000Y-127390000D01*
G75*
G02*
X198510000Y-127530000I0J-140000D01*
G01*
X198510000Y-127870000D01*
G75*
G02*
X198370000Y-128010000I-140000J0D01*
G01*
X198090000Y-128010000D01*
G75*
G02*
X197950000Y-127870000I0J140000D01*
G01*
G37*
%TD.AperFunction*%
%TO.P,C808,2*%
%TO.N,GND*%
%TA.AperFunction,SMDPad,CuDef*%
G36*
G01*
X198910000Y-127870000D02*
X198910000Y-127530000D01*
G75*
G02*
X199050000Y-127390000I140000J0D01*
G01*
X199330000Y-127390000D01*
G75*
G02*
X199470000Y-127530000I0J-140000D01*
G01*
X199470000Y-127870000D01*
G75*
G02*
X199330000Y-128010000I-140000J0D01*
G01*
X199050000Y-128010000D01*
G75*
G02*
X198910000Y-127870000I0J140000D01*
G01*
G37*
%TD.AperFunction*%
%TD*%
%TO.P,C809,2*%
%TO.N,GND*%
%TA.AperFunction,SMDPad,CuDef*%
G36*
G01*
X194870000Y-120110000D02*
X194870000Y-120450000D01*
G75*
G02*
X194730000Y-120590000I-140000J0D01*
G01*
X194450000Y-120590000D01*
G75*
G02*
X194310000Y-120450000I0J140000D01*
G01*
X194310000Y-120110000D01*
G75*
G02*
X194450000Y-119970000I140000J0D01*
G01*
X194730000Y-119970000D01*
G75*
G02*
X194870000Y-120110000I0J-140000D01*
G01*
G37*
%TD.AperFunction*%
%TO.P,C809,1*%
%TO.N,REFERENCE_2.5V*%
%TA.AperFunction,SMDPad,CuDef*%
G36*
G01*
X195830000Y-120110000D02*
X195830000Y-120450000D01*
G75*
G02*
X195690000Y-120590000I-140000J0D01*
G01*
X195410000Y-120590000D01*
G75*
G02*
X195270000Y-120450000I0J140000D01*
G01*
X195270000Y-120110000D01*
G75*
G02*
X195410000Y-119970000I140000J0D01*
G01*
X195690000Y-119970000D01*
G75*
G02*
X195830000Y-120110000I0J-140000D01*
G01*
G37*
%TD.AperFunction*%
%TD*%
%TO.P,C810,1*%
%TO.N,3.3V*%
%TA.AperFunction,SMDPad,CuDef*%
G36*
G01*
X192220000Y-120000000D02*
X192220000Y-119660000D01*
G75*
G02*
X192360000Y-119520000I140000J0D01*
G01*
X192640000Y-119520000D01*
G75*
G02*
X192780000Y-119660000I0J-140000D01*
G01*
X192780000Y-120000000D01*
G75*
G02*
X192640000Y-120140000I-140000J0D01*
G01*
X192360000Y-120140000D01*
G75*
G02*
X192220000Y-120000000I0J140000D01*
G01*
G37*
%TD.AperFunction*%
%TO.P,C810,2*%
%TO.N,GND*%
%TA.AperFunction,SMDPad,CuDef*%
G36*
G01*
X193180000Y-120000000D02*
X193180000Y-119660000D01*
G75*
G02*
X193320000Y-119520000I140000J0D01*
G01*
X193600000Y-119520000D01*
G75*
G02*
X193740000Y-119660000I0J-140000D01*
G01*
X193740000Y-120000000D01*
G75*
G02*
X193600000Y-120140000I-140000J0D01*
G01*
X193320000Y-120140000D01*
G75*
G02*
X193180000Y-120000000I0J140000D01*
G01*
G37*
%TD.AperFunction*%
%TD*%
%TO.P,C811,2*%
%TO.N,GND*%
%TA.AperFunction,SMDPad,CuDef*%
G36*
G01*
X193165001Y-121205001D02*
X193165001Y-120865001D01*
G75*
G02*
X193305001Y-120725001I140000J0D01*
G01*
X193585001Y-120725001D01*
G75*
G02*
X193725001Y-120865001I0J-140000D01*
G01*
X193725001Y-121205001D01*
G75*
G02*
X193585001Y-121345001I-140000J0D01*
G01*
X193305001Y-121345001D01*
G75*
G02*
X193165001Y-121205001I0J140000D01*
G01*
G37*
%TD.AperFunction*%
%TO.P,C811,1*%
%TO.N,3.3V*%
%TA.AperFunction,SMDPad,CuDef*%
G36*
G01*
X192205001Y-121205001D02*
X192205001Y-120865001D01*
G75*
G02*
X192345001Y-120725001I140000J0D01*
G01*
X192625001Y-120725001D01*
G75*
G02*
X192765001Y-120865001I0J-140000D01*
G01*
X192765001Y-121205001D01*
G75*
G02*
X192625001Y-121345001I-140000J0D01*
G01*
X192345001Y-121345001D01*
G75*
G02*
X192205001Y-121205001I0J140000D01*
G01*
G37*
%TD.AperFunction*%
%TD*%
D16*
%TO.P,IC201,1*%
%TO.N,4.2V*%
X198080000Y-84740000D03*
%TO.P,IC201,2*%
X198080000Y-85240000D03*
%TO.P,IC201,3*%
X198080000Y-85740000D03*
%TO.P,IC201,4*%
%TO.N,Net-(IC201-Pad4)*%
X198080000Y-86240000D03*
%TO.P,IC201,5*%
%TO.N,Net-(C204-Pad2)*%
X200980000Y-86240000D03*
%TO.P,IC201,6*%
%TO.N,GND*%
X200980000Y-85740000D03*
%TO.P,IC201,7*%
%TO.N,Net-(C204-Pad2)*%
X200980000Y-85240000D03*
%TO.P,IC201,8*%
X200980000Y-84740000D03*
D17*
%TO.P,IC201,9*%
%TO.N,GND*%
X199530000Y-85490000D03*
%TD*%
D18*
%TO.P,IC202,1*%
%TO.N,Net-(IC202-Pad1)*%
X189700000Y-84600000D03*
%TO.P,IC202,2*%
%TO.N,GND*%
X189700000Y-85550000D03*
%TO.P,IC202,3*%
%TO.N,Net-(IC202-Pad3)*%
X189700000Y-86500000D03*
%TO.P,IC202,4*%
%TO.N,Net-(IC202-Pad4)*%
X192300000Y-86500000D03*
%TO.P,IC202,5*%
%TO.N,Net-(C205-Pad1)*%
X192300000Y-84600000D03*
%TD*%
D19*
%TO.P,IC203,1*%
%TO.N,Net-(C207-Pad2)*%
X195430000Y-88889999D03*
%TO.P,IC203,2*%
%TO.N,3.3V*%
X195430000Y-89390000D03*
%TO.P,IC203,3*%
%TO.N,Net-(C209-Pad1)*%
X195430000Y-89890000D03*
%TO.P,IC203,4*%
%TO.N,GND*%
X195430000Y-90390001D03*
%TO.P,IC203,5*%
%TO.N,Net-(C203-Pad1)*%
X198230000Y-90390001D03*
%TO.P,IC203,6*%
X198230000Y-89890000D03*
%TO.P,IC203,7*%
%TO.N,4.2V*%
X198230000Y-89390000D03*
%TO.P,IC203,8*%
X198230000Y-88889999D03*
D20*
%TO.P,IC203,9*%
%TO.N,GND*%
X196830000Y-89640000D03*
%TD*%
D21*
%TO.P,IC204,1*%
%TO.N,Net-(C205-Pad1)*%
X204536000Y-90690000D03*
%TO.P,IC204,2*%
%TO.N,GND*%
X204536000Y-91960000D03*
%TO.P,IC204,3*%
%TO.N,Net-(C205-Pad1)*%
X204536000Y-93230000D03*
%TO.P,IC204,4*%
%TO.N,Net-(C205-Pad2)*%
X204536000Y-94500000D03*
%TO.P,IC204,5*%
%TO.N,5.0V*%
X209960000Y-94500000D03*
%TO.P,IC204,6*%
X209960000Y-93230000D03*
%TO.P,IC204,7*%
%TO.N,5V_EXTERNAL_Power_Source*%
X209960000Y-91960000D03*
%TO.P,IC204,8*%
X209960000Y-90690000D03*
%TD*%
D22*
%TO.P,IC701,1*%
%TO.N,Net-(C703-Pad1)*%
X163925000Y-108332000D03*
%TO.P,IC701,2*%
%TO.N,3.3V*%
X165195000Y-108332000D03*
%TO.P,IC701,3*%
%TO.N,GND*%
X166465000Y-108332000D03*
%TO.P,IC701,4*%
X167735000Y-108332000D03*
%TO.P,IC701,5*%
%TO.N,Net-(IC701-Pad5)*%
X167735000Y-102908000D03*
%TO.P,IC701,6*%
%TO.N,REFERENCE_2.5V*%
X166465000Y-102908000D03*
%TO.P,IC701,7*%
X165195000Y-102908000D03*
%TO.P,IC701,8*%
%TO.N,Net-(IC701-Pad8)*%
X163925000Y-102908000D03*
%TD*%
D23*
%TO.P,IC801,1*%
%TO.N,GND*%
X189570000Y-128730000D03*
%TO.P,IC801,2*%
X190220000Y-128730000D03*
%TO.P,IC801,3*%
%TO.N,3.3V*%
X190870000Y-128730000D03*
%TO.P,IC801,4*%
%TO.N,GND*%
X191520000Y-128730000D03*
%TO.P,IC801,5*%
X192170000Y-128730000D03*
%TO.P,IC801,6*%
%TO.N,Net-(C807-Pad1)*%
X192820000Y-128730000D03*
%TO.P,IC801,7*%
%TO.N,Monitor+_To_AIN2*%
X193470000Y-128730000D03*
%TO.P,IC801,8*%
%TO.N,GND*%
X194120000Y-128730000D03*
%TO.P,IC801,9*%
%TO.N,REFERENCE_2.5V*%
X194120000Y-122854000D03*
%TO.P,IC801,10*%
%TO.N,GND*%
X193470000Y-122854000D03*
%TO.P,IC801,11*%
%TO.N,Net-(C808-Pad1)*%
X192820000Y-122854000D03*
%TO.P,IC801,12*%
%TO.N,3.3V*%
X192170000Y-122854000D03*
%TO.P,IC801,13*%
X191520000Y-122854000D03*
%TO.P,IC801,14*%
%TO.N,Net-(IC801-Pad14)*%
X190870000Y-122854000D03*
%TO.P,IC801,15*%
%TO.N,/AtoD_DtoA/SDA*%
X190220000Y-122854000D03*
%TO.P,IC801,16*%
%TO.N,/AtoD_DtoA/SCL*%
X189570000Y-122854000D03*
%TD*%
D24*
%TO.P,J602,9*%
%TO.N,Net-(J602-Pad9)*%
X209950000Y-101610000D03*
%TO.P,J602,8*%
%TO.N,Net-(J602-Pad8)*%
X209950000Y-110010000D03*
%TO.P,J602,7*%
%TO.N,Net-(J602-Pad7)*%
X204650000Y-101610000D03*
%TO.P,J602,6*%
%TO.N,Net-(J602-Pad6)*%
X204650000Y-110010000D03*
D25*
%TO.P,J602,5*%
%TO.N,GND*%
X204400000Y-104210000D03*
%TO.P,J602,4*%
%TO.N,Net-(J602-Pad4)*%
X204400000Y-105010000D03*
%TO.P,J602,3*%
%TO.N,Net-(IC602-Pad15)*%
X204400000Y-105810000D03*
%TO.P,J602,2*%
%TO.N,Net-(IC602-Pad16)*%
X204400000Y-106610000D03*
%TO.P,J602,1*%
%TO.N,Net-(J602-Pad1)*%
X204400000Y-107410000D03*
%TD*%
D26*
%TO.P,Q401,1*%
%TO.N,Net-(Q401-Pad1)*%
X162230000Y-127640000D03*
%TO.P,Q401,2*%
%TO.N,Current_to_AtoD*%
X160330000Y-127640000D03*
%TO.P,Q401,3*%
%TO.N,Net-(C411-Pad2)*%
X161280000Y-130040000D03*
%TD*%
%TO.P,R201,1*%
%TO.N,Net-(C205-Pad1)*%
%TA.AperFunction,SMDPad,CuDef*%
G36*
G01*
X185380000Y-88635000D02*
X185380000Y-88265000D01*
G75*
G02*
X185515000Y-88130000I135000J0D01*
G01*
X185785000Y-88130000D01*
G75*
G02*
X185920000Y-88265000I0J-135000D01*
G01*
X185920000Y-88635000D01*
G75*
G02*
X185785000Y-88770000I-135000J0D01*
G01*
X185515000Y-88770000D01*
G75*
G02*
X185380000Y-88635000I0J135000D01*
G01*
G37*
%TD.AperFunction*%
%TO.P,R201,2*%
%TO.N,Net-(IC202-Pad4)*%
%TA.AperFunction,SMDPad,CuDef*%
G36*
G01*
X186400000Y-88635000D02*
X186400000Y-88265000D01*
G75*
G02*
X186535000Y-88130000I135000J0D01*
G01*
X186805000Y-88130000D01*
G75*
G02*
X186940000Y-88265000I0J-135000D01*
G01*
X186940000Y-88635000D01*
G75*
G02*
X186805000Y-88770000I-135000J0D01*
G01*
X186535000Y-88770000D01*
G75*
G02*
X186400000Y-88635000I0J135000D01*
G01*
G37*
%TD.AperFunction*%
%TD*%
%TO.P,R203,2*%
%TO.N,GND*%
%TA.AperFunction,SMDPad,CuDef*%
G36*
G01*
X188385000Y-86210000D02*
X188015000Y-86210000D01*
G75*
G02*
X187880000Y-86075000I0J135000D01*
G01*
X187880000Y-85805000D01*
G75*
G02*
X188015000Y-85670000I135000J0D01*
G01*
X188385000Y-85670000D01*
G75*
G02*
X188520000Y-85805000I0J-135000D01*
G01*
X188520000Y-86075000D01*
G75*
G02*
X188385000Y-86210000I-135000J0D01*
G01*
G37*
%TD.AperFunction*%
%TO.P,R203,1*%
%TO.N,Net-(IC202-Pad3)*%
%TA.AperFunction,SMDPad,CuDef*%
G36*
G01*
X188385000Y-87230000D02*
X188015000Y-87230000D01*
G75*
G02*
X187880000Y-87095000I0J135000D01*
G01*
X187880000Y-86825000D01*
G75*
G02*
X188015000Y-86690000I135000J0D01*
G01*
X188385000Y-86690000D01*
G75*
G02*
X188520000Y-86825000I0J-135000D01*
G01*
X188520000Y-87095000D01*
G75*
G02*
X188385000Y-87230000I-135000J0D01*
G01*
G37*
%TD.AperFunction*%
%TD*%
%TO.P,R204,1*%
%TO.N,Net-(IC202-Pad1)*%
%TA.AperFunction,SMDPad,CuDef*%
G36*
G01*
X201585000Y-92920000D02*
X201955000Y-92920000D01*
G75*
G02*
X202090000Y-93055000I0J-135000D01*
G01*
X202090000Y-93325000D01*
G75*
G02*
X201955000Y-93460000I-135000J0D01*
G01*
X201585000Y-93460000D01*
G75*
G02*
X201450000Y-93325000I0J135000D01*
G01*
X201450000Y-93055000D01*
G75*
G02*
X201585000Y-92920000I135000J0D01*
G01*
G37*
%TD.AperFunction*%
%TO.P,R204,2*%
%TO.N,Net-(C205-Pad2)*%
%TA.AperFunction,SMDPad,CuDef*%
G36*
G01*
X201585000Y-93940000D02*
X201955000Y-93940000D01*
G75*
G02*
X202090000Y-94075000I0J-135000D01*
G01*
X202090000Y-94345000D01*
G75*
G02*
X201955000Y-94480000I-135000J0D01*
G01*
X201585000Y-94480000D01*
G75*
G02*
X201450000Y-94345000I0J135000D01*
G01*
X201450000Y-94075000D01*
G75*
G02*
X201585000Y-93940000I135000J0D01*
G01*
G37*
%TD.AperFunction*%
%TD*%
%TO.P,R301,2*%
%TO.N,Thermal_Control_to_Power_OpAmps*%
%TA.AperFunction,SMDPad,CuDef*%
G36*
G01*
X180285000Y-98770000D02*
X180655000Y-98770000D01*
G75*
G02*
X180790000Y-98905000I0J-135000D01*
G01*
X180790000Y-99175000D01*
G75*
G02*
X180655000Y-99310000I-135000J0D01*
G01*
X180285000Y-99310000D01*
G75*
G02*
X180150000Y-99175000I0J135000D01*
G01*
X180150000Y-98905000D01*
G75*
G02*
X180285000Y-98770000I135000J0D01*
G01*
G37*
%TD.AperFunction*%
%TO.P,R301,1*%
%TO.N,Net-(C301-Pad1)*%
%TA.AperFunction,SMDPad,CuDef*%
G36*
G01*
X180285000Y-97750000D02*
X180655000Y-97750000D01*
G75*
G02*
X180790000Y-97885000I0J-135000D01*
G01*
X180790000Y-98155000D01*
G75*
G02*
X180655000Y-98290000I-135000J0D01*
G01*
X180285000Y-98290000D01*
G75*
G02*
X180150000Y-98155000I0J135000D01*
G01*
X180150000Y-97885000D01*
G75*
G02*
X180285000Y-97750000I135000J0D01*
G01*
G37*
%TD.AperFunction*%
%TD*%
%TO.P,R302,2*%
%TO.N,GND*%
%TA.AperFunction,SMDPad,CuDef*%
G36*
G01*
X166745000Y-98040000D02*
X167115000Y-98040000D01*
G75*
G02*
X167250000Y-98175000I0J-135000D01*
G01*
X167250000Y-98445000D01*
G75*
G02*
X167115000Y-98580000I-135000J0D01*
G01*
X166745000Y-98580000D01*
G75*
G02*
X166610000Y-98445000I0J135000D01*
G01*
X166610000Y-98175000D01*
G75*
G02*
X166745000Y-98040000I135000J0D01*
G01*
G37*
%TD.AperFunction*%
%TO.P,R302,1*%
%TO.N,Arduino_D5_Output*%
%TA.AperFunction,SMDPad,CuDef*%
G36*
G01*
X166745000Y-97020000D02*
X167115000Y-97020000D01*
G75*
G02*
X167250000Y-97155000I0J-135000D01*
G01*
X167250000Y-97425000D01*
G75*
G02*
X167115000Y-97560000I-135000J0D01*
G01*
X166745000Y-97560000D01*
G75*
G02*
X166610000Y-97425000I0J135000D01*
G01*
X166610000Y-97155000D01*
G75*
G02*
X166745000Y-97020000I135000J0D01*
G01*
G37*
%TD.AperFunction*%
%TD*%
%TO.P,R303,1*%
%TO.N,TEC_Plus*%
%TA.AperFunction,SMDPad,CuDef*%
G36*
G01*
X163395000Y-99160000D02*
X163025000Y-99160000D01*
G75*
G02*
X162890000Y-99025000I0J135000D01*
G01*
X162890000Y-98755000D01*
G75*
G02*
X163025000Y-98620000I135000J0D01*
G01*
X163395000Y-98620000D01*
G75*
G02*
X163530000Y-98755000I0J-135000D01*
G01*
X163530000Y-99025000D01*
G75*
G02*
X163395000Y-99160000I-135000J0D01*
G01*
G37*
%TD.AperFunction*%
%TO.P,R303,2*%
%TO.N,Net-(C304-Pad2)*%
%TA.AperFunction,SMDPad,CuDef*%
G36*
G01*
X163395000Y-98140000D02*
X163025000Y-98140000D01*
G75*
G02*
X162890000Y-98005000I0J135000D01*
G01*
X162890000Y-97735000D01*
G75*
G02*
X163025000Y-97600000I135000J0D01*
G01*
X163395000Y-97600000D01*
G75*
G02*
X163530000Y-97735000I0J-135000D01*
G01*
X163530000Y-98005000D01*
G75*
G02*
X163395000Y-98140000I-135000J0D01*
G01*
G37*
%TD.AperFunction*%
%TD*%
%TO.P,R304,1*%
%TO.N,Net-(C301-Pad1)*%
%TA.AperFunction,SMDPad,CuDef*%
G36*
G01*
X176645000Y-97710000D02*
X177015000Y-97710000D01*
G75*
G02*
X177150000Y-97845000I0J-135000D01*
G01*
X177150000Y-98115000D01*
G75*
G02*
X177015000Y-98250000I-135000J0D01*
G01*
X176645000Y-98250000D01*
G75*
G02*
X176510000Y-98115000I0J135000D01*
G01*
X176510000Y-97845000D01*
G75*
G02*
X176645000Y-97710000I135000J0D01*
G01*
G37*
%TD.AperFunction*%
%TO.P,R304,2*%
%TO.N,TEC_Plus*%
%TA.AperFunction,SMDPad,CuDef*%
G36*
G01*
X176645000Y-98730000D02*
X177015000Y-98730000D01*
G75*
G02*
X177150000Y-98865000I0J-135000D01*
G01*
X177150000Y-99135000D01*
G75*
G02*
X177015000Y-99270000I-135000J0D01*
G01*
X176645000Y-99270000D01*
G75*
G02*
X176510000Y-99135000I0J135000D01*
G01*
X176510000Y-98865000D01*
G75*
G02*
X176645000Y-98730000I135000J0D01*
G01*
G37*
%TD.AperFunction*%
%TD*%
%TO.P,R305,2*%
%TO.N,GND*%
%TA.AperFunction,SMDPad,CuDef*%
G36*
G01*
X160475000Y-98600000D02*
X160845000Y-98600000D01*
G75*
G02*
X160980000Y-98735000I0J-135000D01*
G01*
X160980000Y-99005000D01*
G75*
G02*
X160845000Y-99140000I-135000J0D01*
G01*
X160475000Y-99140000D01*
G75*
G02*
X160340000Y-99005000I0J135000D01*
G01*
X160340000Y-98735000D01*
G75*
G02*
X160475000Y-98600000I135000J0D01*
G01*
G37*
%TD.AperFunction*%
%TO.P,R305,1*%
%TO.N,Net-(R305-Pad1)*%
%TA.AperFunction,SMDPad,CuDef*%
G36*
G01*
X160475000Y-97580000D02*
X160845000Y-97580000D01*
G75*
G02*
X160980000Y-97715000I0J-135000D01*
G01*
X160980000Y-97985000D01*
G75*
G02*
X160845000Y-98120000I-135000J0D01*
G01*
X160475000Y-98120000D01*
G75*
G02*
X160340000Y-97985000I0J135000D01*
G01*
X160340000Y-97715000D01*
G75*
G02*
X160475000Y-97580000I135000J0D01*
G01*
G37*
%TD.AperFunction*%
%TD*%
%TO.P,R306,1*%
%TO.N,Net-(R306-Pad1)*%
%TA.AperFunction,SMDPad,CuDef*%
G36*
G01*
X174245000Y-97650000D02*
X174615000Y-97650000D01*
G75*
G02*
X174750000Y-97785000I0J-135000D01*
G01*
X174750000Y-98055000D01*
G75*
G02*
X174615000Y-98190000I-135000J0D01*
G01*
X174245000Y-98190000D01*
G75*
G02*
X174110000Y-98055000I0J135000D01*
G01*
X174110000Y-97785000D01*
G75*
G02*
X174245000Y-97650000I135000J0D01*
G01*
G37*
%TD.AperFunction*%
%TO.P,R306,2*%
%TO.N,GND*%
%TA.AperFunction,SMDPad,CuDef*%
G36*
G01*
X174245000Y-98670000D02*
X174615000Y-98670000D01*
G75*
G02*
X174750000Y-98805000I0J-135000D01*
G01*
X174750000Y-99075000D01*
G75*
G02*
X174615000Y-99210000I-135000J0D01*
G01*
X174245000Y-99210000D01*
G75*
G02*
X174110000Y-99075000I0J135000D01*
G01*
X174110000Y-98805000D01*
G75*
G02*
X174245000Y-98670000I135000J0D01*
G01*
G37*
%TD.AperFunction*%
%TD*%
%TO.P,R307,2*%
%TO.N,Net-(C304-Pad2)*%
%TA.AperFunction,SMDPad,CuDef*%
G36*
G01*
X154895000Y-87200000D02*
X155265000Y-87200000D01*
G75*
G02*
X155400000Y-87335000I0J-135000D01*
G01*
X155400000Y-87605000D01*
G75*
G02*
X155265000Y-87740000I-135000J0D01*
G01*
X154895000Y-87740000D01*
G75*
G02*
X154760000Y-87605000I0J135000D01*
G01*
X154760000Y-87335000D01*
G75*
G02*
X154895000Y-87200000I135000J0D01*
G01*
G37*
%TD.AperFunction*%
%TO.P,R307,1*%
%TO.N,TEC_Minus*%
%TA.AperFunction,SMDPad,CuDef*%
G36*
G01*
X154895000Y-86180000D02*
X155265000Y-86180000D01*
G75*
G02*
X155400000Y-86315000I0J-135000D01*
G01*
X155400000Y-86585000D01*
G75*
G02*
X155265000Y-86720000I-135000J0D01*
G01*
X154895000Y-86720000D01*
G75*
G02*
X154760000Y-86585000I0J135000D01*
G01*
X154760000Y-86315000D01*
G75*
G02*
X154895000Y-86180000I135000J0D01*
G01*
G37*
%TD.AperFunction*%
%TD*%
%TO.P,R308,2*%
%TO.N,To_Arduino_AtoD_Neg*%
%TA.AperFunction,SMDPad,CuDef*%
G36*
G01*
X157430000Y-84115000D02*
X157430000Y-83745000D01*
G75*
G02*
X157565000Y-83610000I135000J0D01*
G01*
X157835000Y-83610000D01*
G75*
G02*
X157970000Y-83745000I0J-135000D01*
G01*
X157970000Y-84115000D01*
G75*
G02*
X157835000Y-84250000I-135000J0D01*
G01*
X157565000Y-84250000D01*
G75*
G02*
X157430000Y-84115000I0J135000D01*
G01*
G37*
%TD.AperFunction*%
%TO.P,R308,1*%
%TO.N,GND*%
%TA.AperFunction,SMDPad,CuDef*%
G36*
G01*
X156410000Y-84115000D02*
X156410000Y-83745000D01*
G75*
G02*
X156545000Y-83610000I135000J0D01*
G01*
X156815000Y-83610000D01*
G75*
G02*
X156950000Y-83745000I0J-135000D01*
G01*
X156950000Y-84115000D01*
G75*
G02*
X156815000Y-84250000I-135000J0D01*
G01*
X156545000Y-84250000D01*
G75*
G02*
X156410000Y-84115000I0J135000D01*
G01*
G37*
%TD.AperFunction*%
%TD*%
%TO.P,R309,1*%
%TO.N,GND*%
%TA.AperFunction,SMDPad,CuDef*%
G36*
G01*
X171670000Y-84315000D02*
X171670000Y-83945000D01*
G75*
G02*
X171805000Y-83810000I135000J0D01*
G01*
X172075000Y-83810000D01*
G75*
G02*
X172210000Y-83945000I0J-135000D01*
G01*
X172210000Y-84315000D01*
G75*
G02*
X172075000Y-84450000I-135000J0D01*
G01*
X171805000Y-84450000D01*
G75*
G02*
X171670000Y-84315000I0J135000D01*
G01*
G37*
%TD.AperFunction*%
%TO.P,R309,2*%
%TO.N,To_Arduino_AtoD_Pos*%
%TA.AperFunction,SMDPad,CuDef*%
G36*
G01*
X172690000Y-84315000D02*
X172690000Y-83945000D01*
G75*
G02*
X172825000Y-83810000I135000J0D01*
G01*
X173095000Y-83810000D01*
G75*
G02*
X173230000Y-83945000I0J-135000D01*
G01*
X173230000Y-84315000D01*
G75*
G02*
X173095000Y-84450000I-135000J0D01*
G01*
X172825000Y-84450000D01*
G75*
G02*
X172690000Y-84315000I0J135000D01*
G01*
G37*
%TD.AperFunction*%
%TD*%
%TO.P,R401,2*%
%TO.N,Net-(C401-Pad1)*%
%TA.AperFunction,SMDPad,CuDef*%
G36*
G01*
X159160000Y-119865000D02*
X159160000Y-120235000D01*
G75*
G02*
X159025000Y-120370000I-135000J0D01*
G01*
X158755000Y-120370000D01*
G75*
G02*
X158620000Y-120235000I0J135000D01*
G01*
X158620000Y-119865000D01*
G75*
G02*
X158755000Y-119730000I135000J0D01*
G01*
X159025000Y-119730000D01*
G75*
G02*
X159160000Y-119865000I0J-135000D01*
G01*
G37*
%TD.AperFunction*%
%TO.P,R401,1*%
%TO.N,Net-(R401-Pad1)*%
%TA.AperFunction,SMDPad,CuDef*%
G36*
G01*
X160180000Y-119865000D02*
X160180000Y-120235000D01*
G75*
G02*
X160045000Y-120370000I-135000J0D01*
G01*
X159775000Y-120370000D01*
G75*
G02*
X159640000Y-120235000I0J135000D01*
G01*
X159640000Y-119865000D01*
G75*
G02*
X159775000Y-119730000I135000J0D01*
G01*
X160045000Y-119730000D01*
G75*
G02*
X160180000Y-119865000I0J-135000D01*
G01*
G37*
%TD.AperFunction*%
%TD*%
%TO.P,R402,1*%
%TO.N,Net-(R401-Pad1)*%
%TA.AperFunction,SMDPad,CuDef*%
G36*
G01*
X158600000Y-118655000D02*
X158600000Y-118285000D01*
G75*
G02*
X158735000Y-118150000I135000J0D01*
G01*
X159005000Y-118150000D01*
G75*
G02*
X159140000Y-118285000I0J-135000D01*
G01*
X159140000Y-118655000D01*
G75*
G02*
X159005000Y-118790000I-135000J0D01*
G01*
X158735000Y-118790000D01*
G75*
G02*
X158600000Y-118655000I0J135000D01*
G01*
G37*
%TD.AperFunction*%
%TO.P,R402,2*%
%TO.N,Net-(R402-Pad2)*%
%TA.AperFunction,SMDPad,CuDef*%
G36*
G01*
X159620000Y-118655000D02*
X159620000Y-118285000D01*
G75*
G02*
X159755000Y-118150000I135000J0D01*
G01*
X160025000Y-118150000D01*
G75*
G02*
X160160000Y-118285000I0J-135000D01*
G01*
X160160000Y-118655000D01*
G75*
G02*
X160025000Y-118790000I-135000J0D01*
G01*
X159755000Y-118790000D01*
G75*
G02*
X159620000Y-118655000I0J135000D01*
G01*
G37*
%TD.AperFunction*%
%TD*%
%TO.P,R403,2*%
%TO.N,DtoA_Output_to_Current*%
%TA.AperFunction,SMDPad,CuDef*%
G36*
G01*
X169015000Y-116755000D02*
X168465000Y-116755000D01*
G75*
G02*
X168265000Y-116555000I0J200000D01*
G01*
X168265000Y-116155000D01*
G75*
G02*
X168465000Y-115955000I200000J0D01*
G01*
X169015000Y-115955000D01*
G75*
G02*
X169215000Y-116155000I0J-200000D01*
G01*
X169215000Y-116555000D01*
G75*
G02*
X169015000Y-116755000I-200000J0D01*
G01*
G37*
%TD.AperFunction*%
%TO.P,R403,1*%
%TO.N,Net-(C405-Pad1)*%
%TA.AperFunction,SMDPad,CuDef*%
G36*
G01*
X169015000Y-118405000D02*
X168465000Y-118405000D01*
G75*
G02*
X168265000Y-118205000I0J200000D01*
G01*
X168265000Y-117805000D01*
G75*
G02*
X168465000Y-117605000I200000J0D01*
G01*
X169015000Y-117605000D01*
G75*
G02*
X169215000Y-117805000I0J-200000D01*
G01*
X169215000Y-118205000D01*
G75*
G02*
X169015000Y-118405000I-200000J0D01*
G01*
G37*
%TD.AperFunction*%
%TD*%
%TO.P,R404,2*%
%TO.N,Net-(C405-Pad1)*%
%TA.AperFunction,SMDPad,CuDef*%
G36*
G01*
X169455000Y-125015000D02*
X169455000Y-125565000D01*
G75*
G02*
X169255000Y-125765000I-200000J0D01*
G01*
X168855000Y-125765000D01*
G75*
G02*
X168655000Y-125565000I0J200000D01*
G01*
X168655000Y-125015000D01*
G75*
G02*
X168855000Y-124815000I200000J0D01*
G01*
X169255000Y-124815000D01*
G75*
G02*
X169455000Y-125015000I0J-200000D01*
G01*
G37*
%TD.AperFunction*%
%TO.P,R404,1*%
%TO.N,Net-(C406-Pad1)*%
%TA.AperFunction,SMDPad,CuDef*%
G36*
G01*
X171105000Y-125015000D02*
X171105000Y-125565000D01*
G75*
G02*
X170905000Y-125765000I-200000J0D01*
G01*
X170505000Y-125765000D01*
G75*
G02*
X170305000Y-125565000I0J200000D01*
G01*
X170305000Y-125015000D01*
G75*
G02*
X170505000Y-124815000I200000J0D01*
G01*
X170905000Y-124815000D01*
G75*
G02*
X171105000Y-125015000I0J-200000D01*
G01*
G37*
%TD.AperFunction*%
%TD*%
%TO.P,R405,1*%
%TO.N,Net-(R402-Pad2)*%
%TA.AperFunction,SMDPad,CuDef*%
G36*
G01*
X158600000Y-117105000D02*
X158600000Y-116735000D01*
G75*
G02*
X158735000Y-116600000I135000J0D01*
G01*
X159005000Y-116600000D01*
G75*
G02*
X159140000Y-116735000I0J-135000D01*
G01*
X159140000Y-117105000D01*
G75*
G02*
X159005000Y-117240000I-135000J0D01*
G01*
X158735000Y-117240000D01*
G75*
G02*
X158600000Y-117105000I0J135000D01*
G01*
G37*
%TD.AperFunction*%
%TO.P,R405,2*%
%TO.N,Net-(C407-Pad2)*%
%TA.AperFunction,SMDPad,CuDef*%
G36*
G01*
X159620000Y-117105000D02*
X159620000Y-116735000D01*
G75*
G02*
X159755000Y-116600000I135000J0D01*
G01*
X160025000Y-116600000D01*
G75*
G02*
X160160000Y-116735000I0J-135000D01*
G01*
X160160000Y-117105000D01*
G75*
G02*
X160025000Y-117240000I-135000J0D01*
G01*
X159755000Y-117240000D01*
G75*
G02*
X159620000Y-117105000I0J135000D01*
G01*
G37*
%TD.AperFunction*%
%TD*%
%TO.P,R406,1*%
%TO.N,Net-(C408-Pad1)*%
%TA.AperFunction,SMDPad,CuDef*%
G36*
G01*
X168665000Y-128075000D02*
X168665000Y-127525000D01*
G75*
G02*
X168865000Y-127325000I200000J0D01*
G01*
X169265000Y-127325000D01*
G75*
G02*
X169465000Y-127525000I0J-200000D01*
G01*
X169465000Y-128075000D01*
G75*
G02*
X169265000Y-128275000I-200000J0D01*
G01*
X168865000Y-128275000D01*
G75*
G02*
X168665000Y-128075000I0J200000D01*
G01*
G37*
%TD.AperFunction*%
%TO.P,R406,2*%
%TO.N,Net-(C406-Pad1)*%
%TA.AperFunction,SMDPad,CuDef*%
G36*
G01*
X170315000Y-128075000D02*
X170315000Y-127525000D01*
G75*
G02*
X170515000Y-127325000I200000J0D01*
G01*
X170915000Y-127325000D01*
G75*
G02*
X171115000Y-127525000I0J-200000D01*
G01*
X171115000Y-128075000D01*
G75*
G02*
X170915000Y-128275000I-200000J0D01*
G01*
X170515000Y-128275000D01*
G75*
G02*
X170315000Y-128075000I0J200000D01*
G01*
G37*
%TD.AperFunction*%
%TD*%
D27*
%TO.P,R407,E1*%
%TO.N,GND*%
X148925000Y-125825000D03*
%TO.P,R407,E2*%
%TO.N,Current_to_AtoD*%
X148925000Y-129255000D03*
%TO.P,R407,I1*%
%TO.N,GND*%
X153115000Y-125825000D03*
%TO.P,R407,I2*%
%TO.N,Current_to_AtoD*%
X153115000Y-129255000D03*
%TD*%
%TO.P,R501,1*%
%TO.N,Butterfly_Thermistor*%
%TA.AperFunction,SMDPad,CuDef*%
G36*
G01*
X171245000Y-113475000D02*
X171245000Y-112925000D01*
G75*
G02*
X171445000Y-112725000I200000J0D01*
G01*
X171845000Y-112725000D01*
G75*
G02*
X172045000Y-112925000I0J-200000D01*
G01*
X172045000Y-113475000D01*
G75*
G02*
X171845000Y-113675000I-200000J0D01*
G01*
X171445000Y-113675000D01*
G75*
G02*
X171245000Y-113475000I0J200000D01*
G01*
G37*
%TD.AperFunction*%
%TO.P,R501,2*%
%TO.N,REFERENCE_2.5V*%
%TA.AperFunction,SMDPad,CuDef*%
G36*
G01*
X172895000Y-113475000D02*
X172895000Y-112925000D01*
G75*
G02*
X173095000Y-112725000I200000J0D01*
G01*
X173495000Y-112725000D01*
G75*
G02*
X173695000Y-112925000I0J-200000D01*
G01*
X173695000Y-113475000D01*
G75*
G02*
X173495000Y-113675000I-200000J0D01*
G01*
X173095000Y-113675000D01*
G75*
G02*
X172895000Y-113475000I0J200000D01*
G01*
G37*
%TD.AperFunction*%
%TD*%
%TO.P,R502,1*%
%TO.N,DtoA_Output_(Setpoint)*%
%TA.AperFunction,SMDPad,CuDef*%
G36*
G01*
X174505000Y-105895000D02*
X173955000Y-105895000D01*
G75*
G02*
X173755000Y-105695000I0J200000D01*
G01*
X173755000Y-105295000D01*
G75*
G02*
X173955000Y-105095000I200000J0D01*
G01*
X174505000Y-105095000D01*
G75*
G02*
X174705000Y-105295000I0J-200000D01*
G01*
X174705000Y-105695000D01*
G75*
G02*
X174505000Y-105895000I-200000J0D01*
G01*
G37*
%TD.AperFunction*%
%TO.P,R502,2*%
%TO.N,Net-(C501-Pad1)*%
%TA.AperFunction,SMDPad,CuDef*%
G36*
G01*
X174505000Y-104245000D02*
X173955000Y-104245000D01*
G75*
G02*
X173755000Y-104045000I0J200000D01*
G01*
X173755000Y-103645000D01*
G75*
G02*
X173955000Y-103445000I200000J0D01*
G01*
X174505000Y-103445000D01*
G75*
G02*
X174705000Y-103645000I0J-200000D01*
G01*
X174705000Y-104045000D01*
G75*
G02*
X174505000Y-104245000I-200000J0D01*
G01*
G37*
%TD.AperFunction*%
%TD*%
%TO.P,R503,1*%
%TO.N,Net-(R503-Pad1)*%
%TA.AperFunction,SMDPad,CuDef*%
G36*
G01*
X172155000Y-106845000D02*
X172155000Y-107395000D01*
G75*
G02*
X171955000Y-107595000I-200000J0D01*
G01*
X171555000Y-107595000D01*
G75*
G02*
X171355000Y-107395000I0J200000D01*
G01*
X171355000Y-106845000D01*
G75*
G02*
X171555000Y-106645000I200000J0D01*
G01*
X171955000Y-106645000D01*
G75*
G02*
X172155000Y-106845000I0J-200000D01*
G01*
G37*
%TD.AperFunction*%
%TO.P,R503,2*%
%TO.N,Net-(R503-Pad2)*%
%TA.AperFunction,SMDPad,CuDef*%
G36*
G01*
X170505000Y-106845000D02*
X170505000Y-107395000D01*
G75*
G02*
X170305000Y-107595000I-200000J0D01*
G01*
X169905000Y-107595000D01*
G75*
G02*
X169705000Y-107395000I0J200000D01*
G01*
X169705000Y-106845000D01*
G75*
G02*
X169905000Y-106645000I200000J0D01*
G01*
X170305000Y-106645000D01*
G75*
G02*
X170505000Y-106845000I0J-200000D01*
G01*
G37*
%TD.AperFunction*%
%TD*%
%TO.P,R504,1*%
%TO.N,Net-(R504-Pad1)*%
%TA.AperFunction,SMDPad,CuDef*%
G36*
G01*
X177395000Y-101475000D02*
X177395000Y-102025000D01*
G75*
G02*
X177195000Y-102225000I-200000J0D01*
G01*
X176795000Y-102225000D01*
G75*
G02*
X176595000Y-102025000I0J200000D01*
G01*
X176595000Y-101475000D01*
G75*
G02*
X176795000Y-101275000I200000J0D01*
G01*
X177195000Y-101275000D01*
G75*
G02*
X177395000Y-101475000I0J-200000D01*
G01*
G37*
%TD.AperFunction*%
%TO.P,R504,2*%
%TO.N,Net-(R504-Pad2)*%
%TA.AperFunction,SMDPad,CuDef*%
G36*
G01*
X175745000Y-101475000D02*
X175745000Y-102025000D01*
G75*
G02*
X175545000Y-102225000I-200000J0D01*
G01*
X175145000Y-102225000D01*
G75*
G02*
X174945000Y-102025000I0J200000D01*
G01*
X174945000Y-101475000D01*
G75*
G02*
X175145000Y-101275000I200000J0D01*
G01*
X175545000Y-101275000D01*
G75*
G02*
X175745000Y-101475000I0J-200000D01*
G01*
G37*
%TD.AperFunction*%
%TD*%
%TO.P,R505,2*%
%TO.N,REFERENCE_2.5V*%
%TA.AperFunction,SMDPad,CuDef*%
G36*
G01*
X185975000Y-108425000D02*
X186525000Y-108425000D01*
G75*
G02*
X186725000Y-108625000I0J-200000D01*
G01*
X186725000Y-109025000D01*
G75*
G02*
X186525000Y-109225000I-200000J0D01*
G01*
X185975000Y-109225000D01*
G75*
G02*
X185775000Y-109025000I0J200000D01*
G01*
X185775000Y-108625000D01*
G75*
G02*
X185975000Y-108425000I200000J0D01*
G01*
G37*
%TD.AperFunction*%
%TO.P,R505,1*%
%TO.N,Net-(R504-Pad1)*%
%TA.AperFunction,SMDPad,CuDef*%
G36*
G01*
X185975000Y-106775000D02*
X186525000Y-106775000D01*
G75*
G02*
X186725000Y-106975000I0J-200000D01*
G01*
X186725000Y-107375000D01*
G75*
G02*
X186525000Y-107575000I-200000J0D01*
G01*
X185975000Y-107575000D01*
G75*
G02*
X185775000Y-107375000I0J200000D01*
G01*
X185775000Y-106975000D01*
G75*
G02*
X185975000Y-106775000I200000J0D01*
G01*
G37*
%TD.AperFunction*%
%TD*%
%TO.P,R506,1*%
%TO.N,Net-(R506-Pad1)*%
%TA.AperFunction,SMDPad,CuDef*%
G36*
G01*
X180775000Y-108675000D02*
X180775000Y-109225000D01*
G75*
G02*
X180575000Y-109425000I-200000J0D01*
G01*
X180175000Y-109425000D01*
G75*
G02*
X179975000Y-109225000I0J200000D01*
G01*
X179975000Y-108675000D01*
G75*
G02*
X180175000Y-108475000I200000J0D01*
G01*
X180575000Y-108475000D01*
G75*
G02*
X180775000Y-108675000I0J-200000D01*
G01*
G37*
%TD.AperFunction*%
%TO.P,R506,2*%
%TO.N,Net-(R503-Pad1)*%
%TA.AperFunction,SMDPad,CuDef*%
G36*
G01*
X179125000Y-108675000D02*
X179125000Y-109225000D01*
G75*
G02*
X178925000Y-109425000I-200000J0D01*
G01*
X178525000Y-109425000D01*
G75*
G02*
X178325000Y-109225000I0J200000D01*
G01*
X178325000Y-108675000D01*
G75*
G02*
X178525000Y-108475000I200000J0D01*
G01*
X178925000Y-108475000D01*
G75*
G02*
X179125000Y-108675000I0J-200000D01*
G01*
G37*
%TD.AperFunction*%
%TD*%
%TO.P,R507,2*%
%TO.N,Net-(R507-Pad2)*%
%TA.AperFunction,SMDPad,CuDef*%
G36*
G01*
X176075000Y-112165000D02*
X176625000Y-112165000D01*
G75*
G02*
X176825000Y-112365000I0J-200000D01*
G01*
X176825000Y-112765000D01*
G75*
G02*
X176625000Y-112965000I-200000J0D01*
G01*
X176075000Y-112965000D01*
G75*
G02*
X175875000Y-112765000I0J200000D01*
G01*
X175875000Y-112365000D01*
G75*
G02*
X176075000Y-112165000I200000J0D01*
G01*
G37*
%TD.AperFunction*%
%TO.P,R507,1*%
%TO.N,Net-(R506-Pad1)*%
%TA.AperFunction,SMDPad,CuDef*%
G36*
G01*
X176075000Y-110515000D02*
X176625000Y-110515000D01*
G75*
G02*
X176825000Y-110715000I0J-200000D01*
G01*
X176825000Y-111115000D01*
G75*
G02*
X176625000Y-111315000I-200000J0D01*
G01*
X176075000Y-111315000D01*
G75*
G02*
X175875000Y-111115000I0J200000D01*
G01*
X175875000Y-110715000D01*
G75*
G02*
X176075000Y-110515000I200000J0D01*
G01*
G37*
%TD.AperFunction*%
%TD*%
%TO.P,R508,1*%
%TO.N,Net-(R507-Pad2)*%
%TA.AperFunction,SMDPad,CuDef*%
G36*
G01*
X181775000Y-108950001D02*
X181775000Y-108049999D01*
G75*
G02*
X182024999Y-107800000I249999J0D01*
G01*
X182550001Y-107800000D01*
G75*
G02*
X182800000Y-108049999I0J-249999D01*
G01*
X182800000Y-108950001D01*
G75*
G02*
X182550001Y-109200000I-249999J0D01*
G01*
X182024999Y-109200000D01*
G75*
G02*
X181775000Y-108950001I0J249999D01*
G01*
G37*
%TD.AperFunction*%
%TO.P,R508,2*%
%TO.N,Net-(C508-Pad1)*%
%TA.AperFunction,SMDPad,CuDef*%
G36*
G01*
X183600000Y-108950001D02*
X183600000Y-108049999D01*
G75*
G02*
X183849999Y-107800000I249999J0D01*
G01*
X184375001Y-107800000D01*
G75*
G02*
X184625000Y-108049999I0J-249999D01*
G01*
X184625000Y-108950001D01*
G75*
G02*
X184375001Y-109200000I-249999J0D01*
G01*
X183849999Y-109200000D01*
G75*
G02*
X183600000Y-108950001I0J249999D01*
G01*
G37*
%TD.AperFunction*%
%TD*%
%TO.P,R801,1*%
%TO.N,/AtoD_DtoA/SCL*%
%TA.AperFunction,SMDPad,CuDef*%
G36*
G01*
X174500000Y-118225000D02*
X174500000Y-118595000D01*
G75*
G02*
X174365000Y-118730000I-135000J0D01*
G01*
X174095000Y-118730000D01*
G75*
G02*
X173960000Y-118595000I0J135000D01*
G01*
X173960000Y-118225000D01*
G75*
G02*
X174095000Y-118090000I135000J0D01*
G01*
X174365000Y-118090000D01*
G75*
G02*
X174500000Y-118225000I0J-135000D01*
G01*
G37*
%TD.AperFunction*%
%TO.P,R801,2*%
%TO.N,SCL_CPU_to_AtoD*%
%TA.AperFunction,SMDPad,CuDef*%
G36*
G01*
X173480000Y-118225000D02*
X173480000Y-118595000D01*
G75*
G02*
X173345000Y-118730000I-135000J0D01*
G01*
X173075000Y-118730000D01*
G75*
G02*
X172940000Y-118595000I0J135000D01*
G01*
X172940000Y-118225000D01*
G75*
G02*
X173075000Y-118090000I135000J0D01*
G01*
X173345000Y-118090000D01*
G75*
G02*
X173480000Y-118225000I0J-135000D01*
G01*
G37*
%TD.AperFunction*%
%TD*%
%TO.P,R802,2*%
%TO.N,SDA_CPU_to_AtoD*%
%TA.AperFunction,SMDPad,CuDef*%
G36*
G01*
X173500000Y-121815000D02*
X173500000Y-122185000D01*
G75*
G02*
X173365000Y-122320000I-135000J0D01*
G01*
X173095000Y-122320000D01*
G75*
G02*
X172960000Y-122185000I0J135000D01*
G01*
X172960000Y-121815000D01*
G75*
G02*
X173095000Y-121680000I135000J0D01*
G01*
X173365000Y-121680000D01*
G75*
G02*
X173500000Y-121815000I0J-135000D01*
G01*
G37*
%TD.AperFunction*%
%TO.P,R802,1*%
%TO.N,/AtoD_DtoA/SDA*%
%TA.AperFunction,SMDPad,CuDef*%
G36*
G01*
X174520000Y-121815000D02*
X174520000Y-122185000D01*
G75*
G02*
X174385000Y-122320000I-135000J0D01*
G01*
X174115000Y-122320000D01*
G75*
G02*
X173980000Y-122185000I0J135000D01*
G01*
X173980000Y-121815000D01*
G75*
G02*
X174115000Y-121680000I135000J0D01*
G01*
X174385000Y-121680000D01*
G75*
G02*
X174520000Y-121815000I0J-135000D01*
G01*
G37*
%TD.AperFunction*%
%TD*%
%TO.P,R803,2*%
%TO.N,GND*%
%TA.AperFunction,SMDPad,CuDef*%
G36*
G01*
X173480000Y-119425000D02*
X173480000Y-119795000D01*
G75*
G02*
X173345000Y-119930000I-135000J0D01*
G01*
X173075000Y-119930000D01*
G75*
G02*
X172940000Y-119795000I0J135000D01*
G01*
X172940000Y-119425000D01*
G75*
G02*
X173075000Y-119290000I135000J0D01*
G01*
X173345000Y-119290000D01*
G75*
G02*
X173480000Y-119425000I0J-135000D01*
G01*
G37*
%TD.AperFunction*%
%TO.P,R803,1*%
%TO.N,/AtoD_DtoA/SCL*%
%TA.AperFunction,SMDPad,CuDef*%
G36*
G01*
X174500000Y-119425000D02*
X174500000Y-119795000D01*
G75*
G02*
X174365000Y-119930000I-135000J0D01*
G01*
X174095000Y-119930000D01*
G75*
G02*
X173960000Y-119795000I0J135000D01*
G01*
X173960000Y-119425000D01*
G75*
G02*
X174095000Y-119290000I135000J0D01*
G01*
X174365000Y-119290000D01*
G75*
G02*
X174500000Y-119425000I0J-135000D01*
G01*
G37*
%TD.AperFunction*%
%TD*%
%TO.P,R804,1*%
%TO.N,/AtoD_DtoA/SDA*%
%TA.AperFunction,SMDPad,CuDef*%
G36*
G01*
X174510000Y-120595000D02*
X174510000Y-120965000D01*
G75*
G02*
X174375000Y-121100000I-135000J0D01*
G01*
X174105000Y-121100000D01*
G75*
G02*
X173970000Y-120965000I0J135000D01*
G01*
X173970000Y-120595000D01*
G75*
G02*
X174105000Y-120460000I135000J0D01*
G01*
X174375000Y-120460000D01*
G75*
G02*
X174510000Y-120595000I0J-135000D01*
G01*
G37*
%TD.AperFunction*%
%TO.P,R804,2*%
%TO.N,GND*%
%TA.AperFunction,SMDPad,CuDef*%
G36*
G01*
X173490000Y-120595000D02*
X173490000Y-120965000D01*
G75*
G02*
X173355000Y-121100000I-135000J0D01*
G01*
X173085000Y-121100000D01*
G75*
G02*
X172950000Y-120965000I0J135000D01*
G01*
X172950000Y-120595000D01*
G75*
G02*
X173085000Y-120460000I135000J0D01*
G01*
X173355000Y-120460000D01*
G75*
G02*
X173490000Y-120595000I0J-135000D01*
G01*
G37*
%TD.AperFunction*%
%TD*%
%TO.P,R805,2*%
%TO.N,Butterfly_Thermistor*%
%TA.AperFunction,SMDPad,CuDef*%
G36*
G01*
X192990000Y-130475000D02*
X192990000Y-130845000D01*
G75*
G02*
X192855000Y-130980000I-135000J0D01*
G01*
X192585000Y-130980000D01*
G75*
G02*
X192450000Y-130845000I0J135000D01*
G01*
X192450000Y-130475000D01*
G75*
G02*
X192585000Y-130340000I135000J0D01*
G01*
X192855000Y-130340000D01*
G75*
G02*
X192990000Y-130475000I0J-135000D01*
G01*
G37*
%TD.AperFunction*%
%TO.P,R805,1*%
%TO.N,Net-(C807-Pad1)*%
%TA.AperFunction,SMDPad,CuDef*%
G36*
G01*
X194010000Y-130475000D02*
X194010000Y-130845000D01*
G75*
G02*
X193875000Y-130980000I-135000J0D01*
G01*
X193605000Y-130980000D01*
G75*
G02*
X193470000Y-130845000I0J135000D01*
G01*
X193470000Y-130475000D01*
G75*
G02*
X193605000Y-130340000I135000J0D01*
G01*
X193875000Y-130340000D01*
G75*
G02*
X194010000Y-130475000I0J-135000D01*
G01*
G37*
%TD.AperFunction*%
%TD*%
%TO.P,R806,1*%
%TO.N,Net-(C808-Pad1)*%
%TA.AperFunction,SMDPad,CuDef*%
G36*
G01*
X199445000Y-129020000D02*
X199815000Y-129020000D01*
G75*
G02*
X199950000Y-129155000I0J-135000D01*
G01*
X199950000Y-129425000D01*
G75*
G02*
X199815000Y-129560000I-135000J0D01*
G01*
X199445000Y-129560000D01*
G75*
G02*
X199310000Y-129425000I0J135000D01*
G01*
X199310000Y-129155000D01*
G75*
G02*
X199445000Y-129020000I135000J0D01*
G01*
G37*
%TD.AperFunction*%
%TO.P,R806,2*%
%TO.N,Current_to_AtoD*%
%TA.AperFunction,SMDPad,CuDef*%
G36*
G01*
X199445000Y-130040000D02*
X199815000Y-130040000D01*
G75*
G02*
X199950000Y-130175000I0J-135000D01*
G01*
X199950000Y-130445000D01*
G75*
G02*
X199815000Y-130580000I-135000J0D01*
G01*
X199445000Y-130580000D01*
G75*
G02*
X199310000Y-130445000I0J135000D01*
G01*
X199310000Y-130175000D01*
G75*
G02*
X199445000Y-130040000I135000J0D01*
G01*
G37*
%TD.AperFunction*%
%TD*%
%TO.P,R807,2*%
%TO.N,Net-(IC801-Pad14)*%
%TA.AperFunction,SMDPad,CuDef*%
G36*
G01*
X190135000Y-120800000D02*
X190505000Y-120800000D01*
G75*
G02*
X190640000Y-120935000I0J-135000D01*
G01*
X190640000Y-121205000D01*
G75*
G02*
X190505000Y-121340000I-135000J0D01*
G01*
X190135000Y-121340000D01*
G75*
G02*
X190000000Y-121205000I0J135000D01*
G01*
X190000000Y-120935000D01*
G75*
G02*
X190135000Y-120800000I135000J0D01*
G01*
G37*
%TD.AperFunction*%
%TO.P,R807,1*%
%TO.N,3.3V*%
%TA.AperFunction,SMDPad,CuDef*%
G36*
G01*
X190135000Y-119780000D02*
X190505000Y-119780000D01*
G75*
G02*
X190640000Y-119915000I0J-135000D01*
G01*
X190640000Y-120185000D01*
G75*
G02*
X190505000Y-120320000I-135000J0D01*
G01*
X190135000Y-120320000D01*
G75*
G02*
X190000000Y-120185000I0J135000D01*
G01*
X190000000Y-119915000D01*
G75*
G02*
X190135000Y-119780000I135000J0D01*
G01*
G37*
%TD.AperFunction*%
%TD*%
%TO.P,RP1A601,1*%
%TO.N,/ArduinoNano/RX*%
%TA.AperFunction,SMDPad,CuDef*%
G36*
G01*
X187055000Y-116290000D02*
X186685000Y-116290000D01*
G75*
G02*
X186550000Y-116155000I0J135000D01*
G01*
X186550000Y-115885000D01*
G75*
G02*
X186685000Y-115750000I135000J0D01*
G01*
X187055000Y-115750000D01*
G75*
G02*
X187190000Y-115885000I0J-135000D01*
G01*
X187190000Y-116155000D01*
G75*
G02*
X187055000Y-116290000I-135000J0D01*
G01*
G37*
%TD.AperFunction*%
%TO.P,RP1A601,2*%
%TO.N,/ArduinoNano/D0-RX*%
%TA.AperFunction,SMDPad,CuDef*%
G36*
G01*
X187055000Y-115270000D02*
X186685000Y-115270000D01*
G75*
G02*
X186550000Y-115135000I0J135000D01*
G01*
X186550000Y-114865000D01*
G75*
G02*
X186685000Y-114730000I135000J0D01*
G01*
X187055000Y-114730000D01*
G75*
G02*
X187190000Y-114865000I0J-135000D01*
G01*
X187190000Y-115135000D01*
G75*
G02*
X187055000Y-115270000I-135000J0D01*
G01*
G37*
%TD.AperFunction*%
%TD*%
%TO.P,RP1B601,2*%
%TO.N,/ArduinoNano/D1-TX*%
%TA.AperFunction,SMDPad,CuDef*%
G36*
G01*
X188185000Y-115260000D02*
X187815000Y-115260000D01*
G75*
G02*
X187680000Y-115125000I0J135000D01*
G01*
X187680000Y-114855000D01*
G75*
G02*
X187815000Y-114720000I135000J0D01*
G01*
X188185000Y-114720000D01*
G75*
G02*
X188320000Y-114855000I0J-135000D01*
G01*
X188320000Y-115125000D01*
G75*
G02*
X188185000Y-115260000I-135000J0D01*
G01*
G37*
%TD.AperFunction*%
%TO.P,RP1B601,1*%
%TO.N,/ArduinoNano/TX*%
%TA.AperFunction,SMDPad,CuDef*%
G36*
G01*
X188185000Y-116280000D02*
X187815000Y-116280000D01*
G75*
G02*
X187680000Y-116145000I0J135000D01*
G01*
X187680000Y-115875000D01*
G75*
G02*
X187815000Y-115740000I135000J0D01*
G01*
X188185000Y-115740000D01*
G75*
G02*
X188320000Y-115875000I0J-135000D01*
G01*
X188320000Y-116145000D01*
G75*
G02*
X188185000Y-116280000I-135000J0D01*
G01*
G37*
%TD.AperFunction*%
%TD*%
%TO.P,RP1D601,1*%
%TO.N,5.0V*%
%TA.AperFunction,SMDPad,CuDef*%
G36*
G01*
X187730000Y-100715000D02*
X187730000Y-100345000D01*
G75*
G02*
X187865000Y-100210000I135000J0D01*
G01*
X188135000Y-100210000D01*
G75*
G02*
X188270000Y-100345000I0J-135000D01*
G01*
X188270000Y-100715000D01*
G75*
G02*
X188135000Y-100850000I-135000J0D01*
G01*
X187865000Y-100850000D01*
G75*
G02*
X187730000Y-100715000I0J135000D01*
G01*
G37*
%TD.AperFunction*%
%TO.P,RP1D601,2*%
%TO.N,/ArduinoNano/RESET*%
%TA.AperFunction,SMDPad,CuDef*%
G36*
G01*
X188750000Y-100715000D02*
X188750000Y-100345000D01*
G75*
G02*
X188885000Y-100210000I135000J0D01*
G01*
X189155000Y-100210000D01*
G75*
G02*
X189290000Y-100345000I0J-135000D01*
G01*
X189290000Y-100715000D01*
G75*
G02*
X189155000Y-100850000I-135000J0D01*
G01*
X188885000Y-100850000D01*
G75*
G02*
X188750000Y-100715000I0J135000D01*
G01*
G37*
%TD.AperFunction*%
%TD*%
D28*
%TO.P,U101,3*%
%TO.N,MODULATION_SIGNAL*%
X206000000Y-120320000D03*
%TO.P,U101,2*%
%TO.N,5V_EXTERNAL_Power_Source*%
X206000000Y-122860000D03*
%TO.P,U101,1*%
%TO.N,GND*%
X206000000Y-125400000D03*
%TD*%
D29*
%TO.P,U201,1*%
%TO.N,Net-(IC202-Pad4)*%
X187994000Y-90659999D03*
%TO.P,U201,2*%
%TO.N,GND*%
X187994000Y-92560001D03*
%TO.P,U201,3*%
%TO.N,Net-(U201-Pad3)*%
X189892650Y-91610000D03*
%TD*%
D19*
%TO.P,U401,1*%
%TO.N,Net-(R402-Pad2)*%
X162480000Y-119659999D03*
%TO.P,U401,2*%
%TO.N,Net-(R401-Pad1)*%
X162480000Y-120160000D03*
%TO.P,U401,3*%
%TO.N,REFERENCE_2.5V*%
X162480000Y-120660000D03*
%TO.P,U401,4*%
%TO.N,GND*%
X162480000Y-121160001D03*
%TO.P,U401,5*%
%TO.N,Net-(C408-Pad1)*%
X165280000Y-121160001D03*
%TO.P,U401,6*%
%TO.N,Current_to_AtoD*%
X165280000Y-120660000D03*
%TO.P,U401,7*%
%TO.N,Net-(Q401-Pad1)*%
X165280000Y-120160000D03*
%TO.P,U401,8*%
%TO.N,3.3V*%
X165280000Y-119659999D03*
D20*
%TO.P,U401,9*%
%TO.N,GND*%
X163880000Y-120410000D03*
%TD*%
D19*
%TO.P,U501,1*%
%TO.N,Net-(R503-Pad2)*%
X171020000Y-109749999D03*
%TO.P,U501,2*%
X171020000Y-110250000D03*
%TO.P,U501,3*%
%TO.N,Butterfly_Thermistor*%
X171020000Y-110750000D03*
%TO.P,U501,4*%
%TO.N,GND*%
X171020000Y-111250001D03*
%TO.P,U501,5*%
%TO.N,REFERENCE_2.5V*%
X173820000Y-111250001D03*
%TO.P,U501,6*%
%TO.N,Net-(R507-Pad2)*%
X173820000Y-110750000D03*
%TO.P,U501,7*%
%TO.N,Thermal_Control_to_Power_OpAmps*%
X173820000Y-110250000D03*
%TO.P,U501,8*%
%TO.N,3.3V*%
X173820000Y-109749999D03*
D20*
%TO.P,U501,9*%
%TO.N,GND*%
X172420000Y-110500000D03*
%TD*%
%TO.P,U502,9*%
%TO.N,GND*%
X179500000Y-104250000D03*
D19*
%TO.P,U502,8*%
%TO.N,3.3V*%
X180900000Y-103499999D03*
%TO.P,U502,7*%
%TO.N,Net-(R506-Pad1)*%
X180900000Y-104000000D03*
%TO.P,U502,6*%
%TO.N,Net-(R503-Pad1)*%
X180900000Y-104500000D03*
%TO.P,U502,5*%
%TO.N,Net-(R504-Pad1)*%
X180900000Y-105000001D03*
%TO.P,U502,4*%
%TO.N,GND*%
X178100000Y-105000001D03*
%TO.P,U502,3*%
%TO.N,Net-(C501-Pad1)*%
X178100000Y-104500000D03*
%TO.P,U502,2*%
%TO.N,Net-(R504-Pad2)*%
X178100000Y-104000000D03*
%TO.P,U502,1*%
X178100000Y-103499999D03*
%TD*%
D30*
%TO.P,U801,8*%
%TO.N,GND*%
X180806998Y-118154640D03*
%TO.P,U801,7*%
%TO.N,3.3V*%
X180806998Y-118804880D03*
%TO.P,U801,6*%
%TO.N,DtoA_Output_to_Current*%
X180806998Y-119455120D03*
%TO.P,U801,5*%
%TO.N,3.3V*%
X180806998Y-120105360D03*
%TO.P,U801,4*%
%TO.N,/AtoD_DtoA/SDA*%
X176393002Y-120105360D03*
%TO.P,U801,3*%
%TO.N,/AtoD_DtoA/SCL*%
X176393002Y-119455120D03*
%TO.P,U801,2*%
%TO.N,3.3V*%
X176393002Y-118804880D03*
%TO.P,U801,1*%
%TO.N,REFERENCE_2.5V*%
X176393002Y-118154640D03*
%TD*%
%TO.P,U802,1*%
%TO.N,REFERENCE_2.5V*%
X176483002Y-125794640D03*
%TO.P,U802,2*%
%TO.N,GND*%
X176483002Y-126444880D03*
%TO.P,U802,3*%
%TO.N,/AtoD_DtoA/SCL*%
X176483002Y-127095120D03*
%TO.P,U802,4*%
%TO.N,/AtoD_DtoA/SDA*%
X176483002Y-127745360D03*
%TO.P,U802,5*%
%TO.N,3.3V*%
X180896998Y-127745360D03*
%TO.P,U802,6*%
%TO.N,DtoA_Output_(Setpoint)*%
X180896998Y-127095120D03*
%TO.P,U802,7*%
%TO.N,3.3V*%
X180896998Y-126444880D03*
%TO.P,U802,8*%
%TO.N,GND*%
X180896998Y-125794640D03*
%TD*%
D31*
%TO.P,Y601,1*%
%TO.N,Net-(C601-Pad1)*%
X198640000Y-101710000D03*
%TO.P,Y601,2*%
%TO.N,GND*%
X196340000Y-101710000D03*
%TO.P,Y601,3*%
%TO.N,Net-(C602-Pad1)*%
X196340000Y-103610000D03*
%TO.P,Y601,4*%
%TO.N,GND*%
X198640000Y-103610000D03*
%TD*%
D32*
%TO.P,IC601,1*%
%TO.N,/ArduinoNano/D3*%
X191580000Y-115260000D03*
%TO.P,IC601,2*%
%TO.N,/ArduinoNano/D4*%
X192380000Y-115260000D03*
%TO.P,IC601,3*%
%TO.N,Net-(IC601-Pad3)*%
X193180000Y-115260000D03*
%TO.P,IC601,4*%
%TO.N,5.0V*%
X193980000Y-115260000D03*
%TO.P,IC601,5*%
%TO.N,GND*%
X194780000Y-115260000D03*
%TO.P,IC601,6*%
%TO.N,Net-(IC601-Pad6)*%
X195580000Y-115260000D03*
%TO.P,IC601,7*%
%TO.N,Net-(C601-Pad1)*%
X196380000Y-115260000D03*
%TO.P,IC601,8*%
%TO.N,Net-(C602-Pad1)*%
X197180000Y-115260000D03*
D33*
%TO.P,IC601,9*%
%TO.N,Arduino_D5_Output*%
X198630000Y-113810000D03*
%TO.P,IC601,10*%
%TO.N,/ArduinoNano/D6*%
X198630000Y-113010000D03*
%TO.P,IC601,11*%
%TO.N,/ArduinoNano/D7*%
X198630000Y-112210000D03*
%TO.P,IC601,12*%
%TO.N,/ArduinoNano/D8*%
X198630000Y-111410000D03*
%TO.P,IC601,13*%
%TO.N,/ArduinoNano/D9*%
X198630000Y-110610000D03*
%TO.P,IC601,14*%
%TO.N,/ArduinoNano/D10*%
X198630000Y-109810000D03*
%TO.P,IC601,15*%
%TO.N,/ArduinoNano/D11-MOSI*%
X198630000Y-109010000D03*
%TO.P,IC601,16*%
%TO.N,/ArduinoNano/D12-MISO*%
X198630000Y-108210000D03*
D32*
%TO.P,IC601,17*%
%TO.N,/ArduinoNano/D13-SCK*%
X197180000Y-106760000D03*
%TO.P,IC601,18*%
%TO.N,5.0V*%
X196380000Y-106760000D03*
%TO.P,IC601,19*%
%TO.N,/ArduinoNano/A6*%
X195580000Y-106760000D03*
%TO.P,IC601,20*%
%TO.N,Net-(C606-Pad1)*%
X194780000Y-106760000D03*
%TO.P,IC601,21*%
%TO.N,GND*%
X193980000Y-106760000D03*
%TO.P,IC601,22*%
%TO.N,/ArduinoNano/A7*%
X193180000Y-106760000D03*
%TO.P,IC601,23*%
%TO.N,/ArduinoNano/A0*%
X192380000Y-106760000D03*
%TO.P,IC601,24*%
%TO.N,/ArduinoNano/A1*%
X191580000Y-106760000D03*
D33*
%TO.P,IC601,25*%
%TO.N,To_Arduino_AtoD_Pos*%
X190130000Y-108210000D03*
%TO.P,IC601,26*%
%TO.N,To_Arduino_AtoD_Neg*%
X190130000Y-109010000D03*
%TO.P,IC601,27*%
%TO.N,SDA_CPU_to_AtoD*%
X190130000Y-109810000D03*
%TO.P,IC601,28*%
%TO.N,SCL_CPU_to_AtoD*%
X190130000Y-110610000D03*
%TO.P,IC601,29*%
%TO.N,/ArduinoNano/RESET*%
X190130000Y-111410000D03*
%TO.P,IC601,30*%
%TO.N,/ArduinoNano/D0-RX*%
X190130000Y-112210000D03*
%TO.P,IC601,31*%
%TO.N,/ArduinoNano/D1-TX*%
X190130000Y-113010000D03*
%TO.P,IC601,32*%
%TO.N,/ArduinoNano/D2*%
X190130000Y-113810000D03*
%TD*%
D34*
%TO.N,Butterfly_Thermistor*%
X188090000Y-130930000D03*
X173890000Y-114280000D03*
X169510000Y-109070000D03*
X147840000Y-95200000D03*
%TO.N,4.2V*%
X165170000Y-84140000D03*
X197140000Y-83700000D03*
X180840002Y-83940000D03*
D35*
%TO.N,TEC_Plus*%
X157310000Y-98910000D03*
X176819999Y-99999999D03*
D34*
X163170001Y-99999999D03*
D35*
X178400000Y-99990000D03*
X179490000Y-84000000D03*
%TO.N,TEC_Minus*%
X163780000Y-84130000D03*
D34*
%TO.N,3.3V*%
X192500000Y-118930000D03*
X188070000Y-129200000D03*
X190050000Y-119070000D03*
X138020000Y-124670000D03*
X165250000Y-112400000D03*
X165280000Y-118410000D03*
X139130000Y-127140000D03*
X139160000Y-129050000D03*
X184810000Y-125920000D03*
X180900000Y-102290000D03*
X173440000Y-108670000D03*
X181720000Y-120790000D03*
X184690000Y-119100000D03*
X181480000Y-128499998D03*
X177750000Y-118120000D03*
X190740000Y-89120000D03*
X185760000Y-99610000D03*
%TO.N,Net-(C204-Pad2)*%
X202274999Y-87164999D03*
%TO.N,Net-(C205-Pad1)*%
X185640000Y-85460000D03*
D35*
X193464023Y-83840830D03*
D34*
%TO.N,5.0V*%
X207650000Y-93230000D03*
X188820000Y-96390000D03*
X207610000Y-94500000D03*
X188470000Y-84130000D03*
X196380000Y-105450000D03*
X193980000Y-116520000D03*
X188390000Y-99460000D03*
X190790000Y-96990000D03*
X191910000Y-101290000D03*
X201360000Y-119580000D03*
X196728047Y-111597281D03*
%TO.N,Net-(C209-Pad1)*%
X192920000Y-89890000D03*
%TO.N,REFERENCE_2.5V*%
X158330000Y-121330000D03*
X174080000Y-112110000D03*
X172200000Y-101410000D03*
X186260000Y-109770000D03*
X175188513Y-117720949D03*
X176030000Y-122350009D03*
%TO.N,Net-(C304-Pad2)*%
X155080000Y-89230000D03*
X161910000Y-97870000D03*
%TO.N,MODULATION_SIGNAL*%
X155990000Y-122590000D03*
%TO.N,Net-(C408-Pad1)*%
X163650000Y-123520000D03*
X166279933Y-118421763D03*
X166010000Y-127860000D03*
%TO.N,Thermal_Control_to_Power_OpAmps*%
X175110000Y-110250000D03*
X180650000Y-100190000D03*
%TO.N,Net-(C602-Pad1)*%
X200245000Y-110820152D03*
X200214990Y-107000000D03*
%TO.N,Net-(IC202-Pad1)*%
X190810000Y-83930000D03*
X201790000Y-90170000D03*
%TO.N,Net-(IC202-Pad3)*%
X187680000Y-87725000D03*
D36*
%TO.N,5V_EXTERNAL_Power_Source*%
X211700001Y-89149999D03*
X211700001Y-91399999D03*
D34*
%TO.N,Arduino_D5_Output*%
X196976300Y-113587972D03*
X191370000Y-105170000D03*
X182184849Y-97485151D03*
X168230000Y-97420000D03*
%TO.N,To_Arduino_AtoD_Pos*%
X174010000Y-84110002D03*
X184780000Y-101250000D03*
%TO.N,To_Arduino_AtoD_Neg*%
X184921272Y-102652691D03*
X159355000Y-83914998D03*
%TO.N,/ArduinoNano/RESET*%
X189000000Y-102900000D03*
X188030000Y-112260000D03*
%TO.N,/ArduinoNano/RX*%
X187690000Y-117140000D03*
%TO.N,/ArduinoNano/TX*%
X188760000Y-117150000D03*
%TO.N,Net-(IC602-Pad15)*%
X202330000Y-105810000D03*
%TO.N,Net-(IC602-Pad16)*%
X202875073Y-106703054D03*
%TO.N,Current_to_AtoD*%
X164847500Y-123497500D03*
X196100000Y-125260000D03*
%TO.N,DtoA_Output_to_Current*%
X179520000Y-119440000D03*
X168750000Y-114550000D03*
%TO.N,DtoA_Output_(Setpoint)*%
X182580000Y-127740000D03*
X176920000Y-107270000D03*
%TO.N,Net-(R504-Pad1)*%
X177712420Y-102692115D03*
X181870000Y-105260000D03*
X184350000Y-106380000D03*
%TO.N,Monitor+_To_AIN2*%
X193050150Y-127392520D03*
X137950000Y-96810000D03*
%TO.N,GND*%
X159900000Y-89670000D03*
X168060000Y-89670000D03*
X166820000Y-89650000D03*
X164420000Y-89640000D03*
X163270000Y-89620000D03*
X162130000Y-89620000D03*
X172150000Y-126880000D03*
X178160000Y-120170000D03*
X181250000Y-115060000D03*
X184010000Y-115550000D03*
D35*
X199520000Y-84890000D03*
X196800000Y-89450000D03*
D34*
X186410000Y-92400000D03*
D37*
X126263400Y-93225600D03*
X130835400Y-83929200D03*
X130835400Y-129674600D03*
X205841600Y-129700000D03*
X126263400Y-121165600D03*
X152374600Y-93200200D03*
X205867000Y-83903800D03*
X152298400Y-121267200D03*
D34*
X178700000Y-106450000D03*
X168420000Y-111950000D03*
X167200000Y-112300000D03*
X161500000Y-113400000D03*
X160900000Y-125180000D03*
X158250000Y-123520000D03*
X156100000Y-126550000D03*
D35*
X143080000Y-89120000D03*
X135460000Y-89140000D03*
D34*
X145620000Y-124470000D03*
X143080000Y-124680000D03*
X184650000Y-84850000D03*
X170650000Y-85200000D03*
X156663700Y-86063700D03*
X184863700Y-95486300D03*
X192960000Y-103450000D03*
X194210000Y-118890000D03*
X200310000Y-127120000D03*
X196750000Y-130680000D03*
D35*
X199550000Y-86080000D03*
D34*
X193870000Y-87160000D03*
X183740000Y-124460000D03*
X174850000Y-126400000D03*
X184360000Y-129540000D03*
X167760000Y-101100000D03*
X165720000Y-97950000D03*
X188100000Y-127940000D03*
X195240000Y-128160000D03*
X191520000Y-130190000D03*
X158880000Y-113430000D03*
X182200000Y-84000000D03*
X201910012Y-88354993D03*
X168150000Y-84010000D03*
X175340000Y-84250000D03*
X193170000Y-113240000D03*
X197040000Y-112590000D03*
X200984029Y-103573059D03*
X139170002Y-89259998D03*
X159630000Y-97900000D03*
X173450000Y-97870000D03*
X170340000Y-101110000D03*
X168470002Y-129940000D03*
X168180000Y-120080000D03*
X161330000Y-121390000D03*
X171019995Y-112050005D03*
X184679475Y-118100053D03*
X175910000Y-113760000D03*
X172359998Y-120780000D03*
X176712660Y-106037340D03*
X205900000Y-91970000D03*
X208450000Y-88740000D03*
X195100000Y-116620000D03*
X204920000Y-86230000D03*
X190380000Y-94010000D03*
X200310000Y-115800000D03*
X160996089Y-89626089D03*
X165620000Y-89630000D03*
X159900000Y-90670000D03*
X159900000Y-91670000D03*
X162130000Y-90620000D03*
X162130000Y-91620000D03*
X160996089Y-90626089D03*
X160996089Y-91626089D03*
X164420000Y-90640000D03*
X164420000Y-91640000D03*
X165620000Y-90630000D03*
X165620000Y-91630000D03*
X163270000Y-90620000D03*
X163270000Y-91620000D03*
X168060000Y-90670000D03*
X168060000Y-91670000D03*
X166820000Y-90650000D03*
X166820000Y-91650000D03*
X173550000Y-90800000D03*
X181710000Y-90800000D03*
X180470000Y-91780000D03*
X179270000Y-90760000D03*
X179270000Y-91760000D03*
X181710000Y-91800000D03*
X175780000Y-90750000D03*
X180470000Y-90780000D03*
X178070000Y-91770000D03*
X174646089Y-91756089D03*
X176920000Y-91750000D03*
X174646089Y-90756089D03*
X176920000Y-90750000D03*
X178070000Y-90770000D03*
X175780000Y-91750000D03*
X173550000Y-89800000D03*
X173550000Y-91800000D03*
X175780000Y-89750000D03*
X174646089Y-89756089D03*
X178070000Y-89770000D03*
X179270000Y-89760000D03*
X176920000Y-89750000D03*
X181710000Y-89800000D03*
X180470000Y-89780000D03*
X160617660Y-83917660D03*
X171875000Y-97795010D03*
X169516551Y-97795010D03*
X156372340Y-93727660D03*
X177760000Y-84520000D03*
X196940000Y-110620000D03*
X193380000Y-105300000D03*
X192573361Y-85595010D03*
%TO.N,/AtoD_DtoA/SDA*%
X178370000Y-121495000D03*
X175790000Y-120870000D03*
%TO.N,Net-(C808-Pad1)*%
X192480000Y-124365000D03*
X201130000Y-130370000D03*
%TO.N,Net-(C601-Pad1)*%
X196810000Y-116610000D03*
X201050000Y-100380000D03*
%TD*%
D38*
%TO.N,Butterfly_Thermistor*%
X170410000Y-110750000D02*
X171020000Y-110750000D01*
X170294994Y-110865006D02*
X170410000Y-110750000D01*
X170294994Y-112398006D02*
X170294994Y-110865006D01*
X171096988Y-113200000D02*
X170294994Y-112398006D01*
X171645000Y-113200000D02*
X171096988Y-113200000D01*
X168977626Y-110170000D02*
X168970000Y-110170000D01*
X169557626Y-110750000D02*
X168977626Y-110170000D01*
X171020000Y-110750000D02*
X169557626Y-110750000D01*
X188104999Y-130915001D02*
X188090000Y-130930000D01*
X192464999Y-130915001D02*
X188104999Y-130915001D01*
X192720000Y-130660000D02*
X192464999Y-130915001D01*
X172250000Y-114280000D02*
X173890000Y-114280000D01*
X171645000Y-113200000D02*
X171645000Y-113675000D01*
X171645000Y-113675000D02*
X172250000Y-114280000D01*
X168970000Y-109610000D02*
X169510000Y-109070000D01*
X168970000Y-110170000D02*
X168970000Y-109610000D01*
X145920000Y-93280000D02*
X145620000Y-93280000D01*
X147840000Y-95200000D02*
X145920000Y-93280000D01*
%TO.N,4.2V*%
X198080000Y-85740000D02*
X198080000Y-85240000D01*
X198230000Y-89390000D02*
X198230000Y-88889999D01*
X166975000Y-86063700D02*
X168245000Y-86063700D01*
X182035000Y-86113700D02*
X180765000Y-86113700D01*
D39*
X166536299Y-84140000D02*
X165170000Y-84140000D01*
X166975000Y-84578701D02*
X166536299Y-84140000D01*
X166975000Y-86063700D02*
X166975000Y-84578701D01*
D38*
X198230000Y-87956996D02*
X198230000Y-88889999D01*
X197329999Y-87056995D02*
X198230000Y-87956996D01*
X197329999Y-85815001D02*
X197329999Y-87056995D01*
X197405000Y-85740000D02*
X197329999Y-85815001D01*
X198080000Y-85740000D02*
X197405000Y-85740000D01*
X198080000Y-84740000D02*
X198080000Y-85240000D01*
X198080000Y-84740000D02*
X198080000Y-84640000D01*
X198080000Y-84640000D02*
X197140000Y-83700000D01*
X180765000Y-86113700D02*
X180765000Y-84015002D01*
X180765000Y-84015002D02*
X180840002Y-83940000D01*
%TO.N,LASER_V-*%
X144870000Y-127160000D02*
X145090000Y-126940000D01*
X141590000Y-127160000D02*
X144870000Y-127160000D01*
X140540000Y-96155000D02*
X140540000Y-93280000D01*
X141120010Y-96735010D02*
X140540000Y-96155000D01*
X156400000Y-97796740D02*
X155338270Y-96735010D01*
X156400000Y-116550000D02*
X156400000Y-97796740D01*
X155338270Y-96735010D02*
X141120010Y-96735010D01*
X155870000Y-117080000D02*
X156400000Y-116550000D01*
X154162590Y-117080000D02*
X155870000Y-117080000D01*
X145090000Y-126152590D02*
X154162590Y-117080000D01*
X145090000Y-126940000D02*
X145090000Y-126152590D01*
%TO.N,TEC_Plus*%
X178380000Y-99000000D02*
X178410000Y-98970000D01*
X176830000Y-99000000D02*
X178380000Y-99000000D01*
D40*
X132920000Y-89655000D02*
X135455000Y-87120000D01*
X132920000Y-93280000D02*
X132920000Y-89655000D01*
X135455000Y-87120000D02*
X146210000Y-87120000D01*
X146210000Y-87120000D02*
X150090000Y-91000000D01*
X150090000Y-93793610D02*
X152206390Y-95910000D01*
X150090000Y-91000000D02*
X150090000Y-93793610D01*
X152206390Y-95910000D02*
X155680000Y-95910000D01*
X155680000Y-95910000D02*
X157310000Y-97540000D01*
X157310000Y-97540000D02*
X157310000Y-98910000D01*
D39*
X163170001Y-98929999D02*
X163210000Y-98890000D01*
X163170001Y-99999999D02*
X163170001Y-98929999D01*
X176819999Y-99010001D02*
X176830000Y-99000000D01*
X176819999Y-99999999D02*
X176819999Y-99010001D01*
X178410000Y-99980000D02*
X178400000Y-99990000D01*
X178410000Y-98970000D02*
X178410000Y-99980000D01*
X179495000Y-86113700D02*
X178225000Y-86113700D01*
X179490000Y-86108700D02*
X179495000Y-86113700D01*
X179490000Y-84000000D02*
X179490000Y-86108700D01*
%TO.N,TEC_Minus*%
X164435000Y-86063700D02*
X165705000Y-86063700D01*
X155060000Y-86470000D02*
X155080000Y-86450000D01*
D41*
X164435000Y-84785000D02*
X163780000Y-84130000D01*
X164435000Y-86063700D02*
X164435000Y-84785000D01*
D40*
X155080000Y-84029118D02*
X155080000Y-86450000D01*
X156294121Y-82814997D02*
X155080000Y-84029118D01*
X162464997Y-82814997D02*
X156294121Y-82814997D01*
X163780000Y-84130000D02*
X162464997Y-82814997D01*
D41*
X153170000Y-86450000D02*
X153150000Y-86470000D01*
X155080000Y-86450000D02*
X153170000Y-86450000D01*
D40*
X153129990Y-86449990D02*
X153150000Y-86449990D01*
X152080000Y-85400000D02*
X153129990Y-86449990D01*
X134635000Y-85400000D02*
X152080000Y-85400000D01*
X130380000Y-89655000D02*
X134635000Y-85400000D01*
X130380000Y-93280000D02*
X130380000Y-89655000D01*
D38*
%TO.N,3.3V*%
X191520000Y-122854000D02*
X192170000Y-122854000D01*
X192440000Y-121080002D02*
X192485001Y-121035001D01*
X192485001Y-119844999D02*
X192500000Y-119830000D01*
X192485001Y-121035001D02*
X192485001Y-119844999D01*
X182550000Y-119100000D02*
X182540000Y-119110000D01*
X183730000Y-119100000D02*
X182550000Y-119100000D01*
X182540000Y-119110000D02*
X182405120Y-119244880D01*
X165270000Y-108407000D02*
X165195000Y-108332000D01*
X165270000Y-110010000D02*
X165270000Y-108407000D01*
X165260000Y-110020000D02*
X165270000Y-110010000D01*
X165260000Y-111310000D02*
X165260000Y-110020000D01*
X194187626Y-89120000D02*
X191640000Y-89120000D01*
X194457626Y-89390000D02*
X194187626Y-89120000D01*
X195430000Y-89390000D02*
X194457626Y-89390000D01*
X192500000Y-119830000D02*
X192500000Y-118930000D01*
X192500000Y-118930000D02*
X192500000Y-118930000D01*
X190870000Y-128730000D02*
X190870000Y-129717500D01*
X190407501Y-130179999D02*
X189049999Y-130179999D01*
X190870000Y-129717500D02*
X190407501Y-130179999D01*
X189049999Y-130179999D02*
X188070000Y-129200000D01*
X192170000Y-122854000D02*
X192170000Y-121350002D01*
X190050000Y-119070000D02*
X190050000Y-119070000D01*
X190320000Y-119340000D02*
X190050000Y-119070000D01*
X190320000Y-120050000D02*
X190320000Y-119340000D01*
X138000000Y-124650000D02*
X138020000Y-124670000D01*
X138000000Y-120280000D02*
X138000000Y-124650000D01*
X165260000Y-112390000D02*
X165250000Y-112400000D01*
X165260000Y-111310000D02*
X165260000Y-112390000D01*
X165280000Y-119659999D02*
X165280000Y-118410000D01*
X139150000Y-127160000D02*
X139130000Y-127140000D01*
X140630000Y-127160000D02*
X139150000Y-127160000D01*
X139180000Y-129070000D02*
X139160000Y-129050000D01*
X140620000Y-129070000D02*
X139180000Y-129070000D01*
X182544880Y-126444880D02*
X182550000Y-126450000D01*
X180896998Y-126444880D02*
X182544880Y-126444880D01*
X183730000Y-126450000D02*
X183740000Y-126460000D01*
X182550000Y-126450000D02*
X183730000Y-126450000D01*
X184270000Y-126460000D02*
X184810000Y-125920000D01*
X183740000Y-126460000D02*
X184270000Y-126460000D01*
X180900000Y-103499999D02*
X180900000Y-102290000D01*
X173820000Y-109050000D02*
X173440000Y-108670000D01*
X173820000Y-109749999D02*
X173820000Y-109050000D01*
X181720000Y-120370000D02*
X181720000Y-120790000D01*
X181455360Y-120105360D02*
X181720000Y-120370000D01*
X180806998Y-120105360D02*
X181455360Y-120105360D01*
X182524880Y-119094880D02*
X182540000Y-119110000D01*
X183730000Y-119100000D02*
X184690000Y-119100000D01*
X182234880Y-118804880D02*
X182540000Y-119110000D01*
X180806998Y-118804880D02*
X182234880Y-118804880D01*
X192170000Y-121350002D02*
X192485001Y-121035001D01*
X180896998Y-127745360D02*
X180896998Y-127916996D01*
X180896998Y-127916996D02*
X181480000Y-128499998D01*
X177065120Y-118804880D02*
X177750000Y-118120000D01*
X176393002Y-118804880D02*
X177065120Y-118804880D01*
X190740000Y-89120000D02*
X191640000Y-89120000D01*
X191640000Y-91350000D02*
X191640000Y-89120000D01*
X185760000Y-97230000D02*
X191640000Y-91350000D01*
X185760000Y-99610000D02*
X185760000Y-97230000D01*
%TO.N,Net-(C203-Pad1)*%
X198840002Y-89890000D02*
X198230000Y-89890000D01*
X199520000Y-89210002D02*
X198840002Y-89890000D01*
X199520000Y-88050000D02*
X199520000Y-89210002D01*
X198230000Y-90390001D02*
X198230000Y-89890000D01*
%TO.N,Net-(C204-Pad2)*%
X200980000Y-85240000D02*
X200980000Y-84740000D01*
X201640002Y-86240000D02*
X200980000Y-86240000D01*
X201730001Y-85315001D02*
X201730001Y-86150001D01*
X201730001Y-86150001D02*
X201640002Y-86240000D01*
X201655000Y-85240000D02*
X201730001Y-85315001D01*
X200980000Y-85240000D02*
X201655000Y-85240000D01*
X201640002Y-86530002D02*
X201640002Y-86240000D01*
X202274999Y-87164999D02*
X201640002Y-86530002D01*
%TO.N,Net-(C205-Pad1)*%
X185640000Y-88440000D02*
X185650000Y-88450000D01*
D41*
X203073500Y-90690000D02*
X204536000Y-90690000D01*
X202920000Y-90843500D02*
X203073500Y-90690000D01*
X202920000Y-93220000D02*
X202920000Y-90843500D01*
X202930000Y-93230000D02*
X202920000Y-93220000D01*
X204536000Y-93230000D02*
X202930000Y-93230000D01*
X185650000Y-85470000D02*
X185640000Y-85460000D01*
X185650000Y-88450000D02*
X185650000Y-85470000D01*
D40*
X203375000Y-85299998D02*
X200675001Y-82599999D01*
X194704854Y-82599999D02*
X193464023Y-83840830D01*
X200675001Y-82599999D02*
X194704854Y-82599999D01*
X203375000Y-90388500D02*
X203375000Y-85299998D01*
X203073500Y-90690000D02*
X203375000Y-90388500D01*
D38*
X192300000Y-84600000D02*
X192704853Y-84600000D01*
X192704853Y-84600000D02*
X193464023Y-83840830D01*
%TO.N,Net-(C205-Pad2)*%
X203240000Y-94500000D02*
X202920000Y-94180000D01*
X204536000Y-94500000D02*
X203240000Y-94500000D01*
X202890000Y-94210000D02*
X202920000Y-94180000D01*
X201770000Y-94210000D02*
X202890000Y-94210000D01*
%TO.N,Net-(C207-Pad2)*%
X194969999Y-88889999D02*
X194330000Y-88250000D01*
X195430000Y-88889999D02*
X194969999Y-88889999D01*
D41*
%TO.N,5.0V*%
X209960000Y-93230000D02*
X207650000Y-93230000D01*
D38*
X207650000Y-93230000D02*
X207650000Y-93230000D01*
X207610000Y-94500000D02*
X207610000Y-94500000D01*
X188800000Y-96370000D02*
X188820000Y-96390000D01*
X188800000Y-95170000D02*
X188800000Y-96370000D01*
D41*
X209960000Y-94500000D02*
X207610000Y-94500000D01*
D38*
X196380000Y-106760000D02*
X196380000Y-105450000D01*
X193980000Y-115260000D02*
X193980000Y-116520000D01*
X188000000Y-100530000D02*
X188000000Y-99850000D01*
X188000000Y-99850000D02*
X188390000Y-99460000D01*
X192250000Y-100950000D02*
X191910000Y-101290000D01*
X193030000Y-100950000D02*
X192250000Y-100950000D01*
X202420000Y-118520000D02*
X201360000Y-119580000D01*
X202420000Y-116780000D02*
X202420000Y-118520000D01*
%TO.N,Net-(C209-Pad1)*%
X194030000Y-89890000D02*
X194010000Y-89910000D01*
X195430000Y-89890000D02*
X194030000Y-89890000D01*
X192940000Y-89910000D02*
X192920000Y-89890000D01*
X194010000Y-89910000D02*
X192940000Y-89910000D01*
%TO.N,Net-(C301-Pad1)*%
X178380000Y-97980000D02*
X178410000Y-98010000D01*
X176830000Y-97980000D02*
X178380000Y-97980000D01*
X180470000Y-98020000D02*
X178180000Y-98020000D01*
D39*
X176955000Y-97855000D02*
X176830000Y-97980000D01*
X176955000Y-95486300D02*
X176955000Y-97855000D01*
D38*
%TO.N,REFERENCE_2.5V*%
X194120000Y-122020000D02*
X194120000Y-122854000D01*
X165195000Y-102908000D02*
X166465000Y-102908000D01*
X165830000Y-99830000D02*
X165880000Y-99780000D01*
X165830000Y-101100000D02*
X165830000Y-99830000D01*
X164435000Y-98025000D02*
X164435000Y-95436300D01*
X165880000Y-99470000D02*
X164435000Y-98025000D01*
X171080000Y-99530000D02*
X171080000Y-99840000D01*
X170604999Y-99054999D02*
X171080000Y-99530000D01*
X166295001Y-99054999D02*
X170604999Y-99054999D01*
X165880000Y-99470000D02*
X166295001Y-99054999D01*
X165880000Y-99780000D02*
X165880000Y-99470000D01*
X159600554Y-121330000D02*
X158330000Y-121330000D01*
X160270554Y-120660000D02*
X159600554Y-121330000D01*
X162480000Y-120660000D02*
X160270554Y-120660000D01*
X162480000Y-120660000D02*
X160996996Y-120660000D01*
X160996996Y-120660000D02*
X159230000Y-122426996D01*
X159230000Y-122426996D02*
X159230000Y-122760000D01*
X173695000Y-112800000D02*
X173295000Y-113200000D01*
X174770000Y-112800000D02*
X173695000Y-112800000D01*
X173820000Y-111850000D02*
X174080000Y-112110000D01*
X173820000Y-111250001D02*
X173820000Y-111850000D01*
X175248362Y-124560000D02*
X174900000Y-124560000D01*
X176483002Y-125794640D02*
X175248362Y-124560000D01*
X195550000Y-120280000D02*
X195550000Y-120590000D01*
X195550000Y-120590000D02*
X194120000Y-122020000D01*
X165195000Y-101735000D02*
X165830000Y-101100000D01*
X165195000Y-102908000D02*
X165195000Y-101735000D01*
X194120000Y-122854000D02*
X194120000Y-123841500D01*
X194120000Y-123841500D02*
X192871500Y-125090000D01*
X192871500Y-125090000D02*
X188200000Y-125090000D01*
X188200000Y-125090000D02*
X184770000Y-128520000D01*
X184770000Y-128520000D02*
X182920000Y-128520000D01*
X182210000Y-129230000D02*
X182210000Y-129540000D01*
X182920000Y-128520000D02*
X182210000Y-129230000D01*
X177278164Y-125794640D02*
X176483002Y-125794640D01*
X181023524Y-129540000D02*
X177278164Y-125794640D01*
X182210000Y-129540000D02*
X181023524Y-129540000D01*
X174080000Y-112110000D02*
X174770000Y-112800000D01*
X171080000Y-99840000D02*
X172190000Y-100950000D01*
X172190000Y-101400000D02*
X172200000Y-101410000D01*
X172190000Y-100950000D02*
X172190000Y-101400000D01*
X186260000Y-108835000D02*
X186250000Y-108825000D01*
X186260000Y-109770000D02*
X186260000Y-108835000D01*
X175959311Y-117720949D02*
X175188513Y-117720949D01*
X176393002Y-118154640D02*
X175959311Y-117720949D01*
X175850000Y-123610000D02*
X174900000Y-124560000D01*
X175850000Y-122350000D02*
X175850000Y-123610000D01*
X178300002Y-96796301D02*
X178225000Y-96721299D01*
X180225999Y-96796301D02*
X178300002Y-96796301D01*
X181375002Y-97945304D02*
X180225999Y-96796301D01*
X181375002Y-100538002D02*
X181375002Y-97945304D01*
X178225000Y-96721299D02*
X178225000Y-95486300D01*
X180963004Y-100950000D02*
X181375002Y-100538002D01*
X172190000Y-100950000D02*
X180963004Y-100950000D01*
%TO.N,Net-(C304-Pad2)*%
X153190000Y-87470000D02*
X153150000Y-87430000D01*
X155080000Y-87470000D02*
X153190000Y-87470000D01*
D39*
X163210000Y-95481300D02*
X163165000Y-95436300D01*
X163210000Y-97870000D02*
X163210000Y-95481300D01*
D38*
X155080000Y-89230000D02*
X155080000Y-87470000D01*
D39*
X161910000Y-97870000D02*
X163210000Y-97870000D01*
D38*
%TO.N,MODULATION_SIGNAL*%
X156700000Y-121020000D02*
X156700000Y-121880000D01*
X156700000Y-121880000D02*
X155990000Y-122590000D01*
X155990000Y-122590000D02*
X155990000Y-122590000D01*
%TO.N,Net-(C401-Pad1)*%
X156850000Y-120050000D02*
X156840000Y-120060000D01*
X156710000Y-120050000D02*
X156700000Y-120060000D01*
X158890000Y-120050000D02*
X156710000Y-120050000D01*
%TO.N,Net-(C405-Pad1)*%
X169660000Y-121486410D02*
X169660000Y-121090000D01*
X169055000Y-122091410D02*
X169660000Y-121486410D01*
X169055000Y-125290000D02*
X169055000Y-122091410D01*
X169660000Y-121090000D02*
X169660000Y-120005000D01*
X168740000Y-119085000D02*
X169660000Y-120005000D01*
X168740000Y-118005000D02*
X168740000Y-119085000D01*
%TO.N,Net-(C406-Pad1)*%
X170710000Y-127805000D02*
X170715000Y-127800000D01*
X170710000Y-129970000D02*
X170710000Y-127805000D01*
X170715000Y-125300000D02*
X170705000Y-125290000D01*
X170715000Y-127800000D02*
X170715000Y-125300000D01*
%TO.N,Net-(C407-Pad2)*%
X159890000Y-115440000D02*
X159840000Y-115390000D01*
X159890000Y-116920000D02*
X159890000Y-115440000D01*
X164430000Y-115390000D02*
X165150000Y-116110000D01*
X159840000Y-115390000D02*
X164430000Y-115390000D01*
%TO.N,Net-(C408-Pad1)*%
X163750000Y-123520000D02*
X163650000Y-123520000D01*
X165280000Y-121990000D02*
X163750000Y-123520000D01*
X165280000Y-121160001D02*
X165280000Y-121990000D01*
X163650000Y-123520000D02*
X161830000Y-123520000D01*
X169055000Y-127810000D02*
X169065000Y-127800000D01*
X166279933Y-116279933D02*
X166110000Y-116110000D01*
X166279933Y-118421763D02*
X166279933Y-116279933D01*
X166070000Y-127800000D02*
X166010000Y-127860000D01*
X169065000Y-127800000D02*
X166070000Y-127800000D01*
%TO.N,Net-(C411-Pad2)*%
X144620000Y-129070000D02*
X145090000Y-129540000D01*
X141580000Y-129070000D02*
X144620000Y-129070000D01*
X145090000Y-129540000D02*
X145120000Y-129540000D01*
X145120000Y-129540000D02*
X146470000Y-130890000D01*
X160430000Y-130890000D02*
X161280000Y-130040000D01*
X146470000Y-130890000D02*
X160430000Y-130890000D01*
%TO.N,Net-(C501-Pad1)*%
X176607626Y-103920000D02*
X176600000Y-103920000D01*
X177187626Y-104500000D02*
X176607626Y-103920000D01*
X178100000Y-104500000D02*
X177187626Y-104500000D01*
X174305000Y-103920000D02*
X174230000Y-103845000D01*
X176600000Y-103920000D02*
X174305000Y-103920000D01*
%TO.N,Net-(C508-Pad1)*%
X184112500Y-110317500D02*
X182350000Y-112080000D01*
X184112500Y-108500000D02*
X184112500Y-110317500D01*
%TO.N,Thermal_Control_to_Power_OpAmps*%
X176642488Y-111640010D02*
X175820012Y-111640010D01*
X177082478Y-112080000D02*
X176642488Y-111640010D01*
X174430002Y-110250000D02*
X173820000Y-110250000D01*
X178250000Y-112080000D02*
X177082478Y-112080000D01*
X175110000Y-110250000D02*
X173820000Y-110250000D01*
X175110000Y-110929998D02*
X175110000Y-110250000D01*
X175820012Y-111640010D02*
X175110000Y-110929998D01*
X180470000Y-100010000D02*
X180650000Y-100190000D01*
X180470000Y-99040000D02*
X180470000Y-100010000D01*
%TO.N,Net-(C602-Pad1)*%
X199860000Y-107000000D02*
X200214990Y-107000000D01*
X200214990Y-107000000D02*
X199691412Y-107000000D01*
X200245000Y-113830002D02*
X200245000Y-110820152D01*
X197525013Y-114914987D02*
X199160015Y-114914987D01*
X197180000Y-115260000D02*
X197525013Y-114914987D01*
X199160015Y-114914987D02*
X200245000Y-113830002D01*
X200214990Y-105924990D02*
X200190000Y-105900000D01*
X200214990Y-107000000D02*
X200214990Y-105924990D01*
X198630000Y-105900000D02*
X196340000Y-103610000D01*
X200190000Y-105900000D02*
X198630000Y-105900000D01*
%TO.N,Net-(C606-Pad1)*%
X193960000Y-104430000D02*
X193980000Y-104410000D01*
X194780000Y-105210000D02*
X193980000Y-104410000D01*
X194780000Y-106760000D02*
X194780000Y-105210000D01*
%TO.N,Net-(C703-Pad1)*%
X163925000Y-110575000D02*
X162900000Y-111600000D01*
X163925000Y-108332000D02*
X163925000Y-110575000D01*
%TO.N,Net-(C807-Pad1)*%
X193760000Y-130680000D02*
X193740000Y-130660000D01*
X194960000Y-130680000D02*
X193760000Y-130680000D01*
X192830000Y-128740000D02*
X192820000Y-128730000D01*
X192820000Y-129740000D02*
X193740000Y-130660000D01*
X192820000Y-128730000D02*
X192820000Y-129740000D01*
%TO.N,Net-(IC202-Pad1)*%
X190370000Y-83930000D02*
X190810000Y-83930000D01*
X189700000Y-84600000D02*
X190370000Y-83930000D01*
X201770000Y-93190000D02*
X201770000Y-90190000D01*
X201770000Y-90190000D02*
X201790000Y-90170000D01*
%TO.N,Net-(IC202-Pad3)*%
X188130000Y-86890000D02*
X188200000Y-86960000D01*
X189700000Y-86500000D02*
X188660000Y-86500000D01*
X188660000Y-86500000D02*
X188200000Y-86960000D01*
X188200000Y-87205000D02*
X187680000Y-87725000D01*
X188200000Y-86960000D02*
X188200000Y-87205000D01*
%TO.N,Net-(IC202-Pad4)*%
X186670000Y-89335999D02*
X187994000Y-90659999D01*
X186670000Y-88450000D02*
X186670000Y-89335999D01*
X190350000Y-88450000D02*
X186670000Y-88450000D01*
X192300000Y-86500000D02*
X190350000Y-88450000D01*
D41*
%TO.N,5V_EXTERNAL_Power_Source*%
X210160000Y-90690000D02*
X211700001Y-89149999D01*
X209960000Y-90690000D02*
X210160000Y-90690000D01*
X211140000Y-91960000D02*
X211700001Y-91399999D01*
X209960000Y-91960000D02*
X211140000Y-91960000D01*
D38*
%TO.N,Arduino_D5_Output*%
X197198328Y-113810000D02*
X196976300Y-113587972D01*
X198630000Y-113810000D02*
X197198328Y-113810000D01*
X180765000Y-96065302D02*
X180765000Y-95486300D01*
X189869698Y-105170000D02*
X180765000Y-96065302D01*
X191370000Y-105170000D02*
X189869698Y-105170000D01*
X166930000Y-95481300D02*
X166975000Y-95436300D01*
X166930000Y-97290000D02*
X166930000Y-95481300D01*
X180700000Y-95421300D02*
X180765000Y-95486300D01*
D39*
X168100000Y-97290000D02*
X168230000Y-97420000D01*
X166930000Y-97290000D02*
X168100000Y-97290000D01*
D38*
%TO.N,/ArduinoNano/D11-MOSI*%
X203809999Y-115629999D02*
X204960000Y-116780000D01*
X201574997Y-115629999D02*
X203809999Y-115629999D01*
X200970001Y-115025003D02*
X201574997Y-115629999D01*
X200970001Y-110351409D02*
X200970001Y-115025003D01*
X199628592Y-109010000D02*
X200970001Y-110351409D01*
X198630000Y-109010000D02*
X199628592Y-109010000D01*
%TO.N,/ArduinoNano/D12-MISO*%
X199465002Y-108210000D02*
X198630000Y-108210000D01*
X202420000Y-111164998D02*
X199465002Y-108210000D01*
X202420000Y-114240000D02*
X202420000Y-111164998D01*
%TO.N,/ArduinoNano/D13-SCK*%
X202870010Y-110815008D02*
X202870010Y-112150010D01*
X198815002Y-106760000D02*
X202870010Y-110815008D01*
X202870010Y-112150010D02*
X204960000Y-114240000D01*
X197180000Y-106760000D02*
X198815002Y-106760000D01*
D39*
%TO.N,To_Arduino_AtoD_Pos*%
X173145000Y-84315000D02*
X172960000Y-84130000D01*
X173145000Y-86113700D02*
X173145000Y-84315000D01*
X173990002Y-84130000D02*
X174010000Y-84110002D01*
X172960000Y-84130000D02*
X173990002Y-84130000D01*
D38*
X190130000Y-106600000D02*
X184780000Y-101250000D01*
X190130000Y-108210000D02*
X190130000Y-106600000D01*
%TO.N,To_Arduino_AtoD_Neg*%
X159355000Y-86063700D02*
X159355000Y-84828701D01*
X189054999Y-106786418D02*
X184921272Y-102652691D01*
X189130000Y-109010000D02*
X189054999Y-108934999D01*
X189054999Y-108934999D02*
X189054999Y-106786418D01*
X190130000Y-109010000D02*
X189130000Y-109010000D01*
X159355000Y-86063700D02*
X159355000Y-83914998D01*
X157715002Y-83914998D02*
X157700000Y-83930000D01*
X159355000Y-83914998D02*
X157715002Y-83914998D01*
%TO.N,/ArduinoNano/RESET*%
X207500000Y-114240000D02*
X207214998Y-114240000D01*
X189000000Y-100550000D02*
X189020000Y-100530000D01*
X189000000Y-102900000D02*
X189000000Y-100550000D01*
X188880000Y-111410000D02*
X188030000Y-112260000D01*
X190130000Y-111410000D02*
X188880000Y-111410000D01*
%TO.N,/ArduinoNano/D0-RX*%
X186870000Y-114633590D02*
X186870000Y-115000000D01*
X189293590Y-112210000D02*
X186870000Y-114633590D01*
X190130000Y-112210000D02*
X189293590Y-112210000D01*
%TO.N,/ArduinoNano/D1-TX*%
X190130000Y-113010000D02*
X189130000Y-113010000D01*
X188000000Y-114140000D02*
X188000000Y-114990000D01*
X189130000Y-113010000D02*
X188000000Y-114140000D01*
%TO.N,/ArduinoNano/RX*%
X186870000Y-116320000D02*
X187690000Y-117140000D01*
X186870000Y-116020000D02*
X186870000Y-116320000D01*
%TO.N,/ArduinoNano/TX*%
X188820000Y-117090000D02*
X188760000Y-117150000D01*
X188000000Y-116390000D02*
X188760000Y-117150000D01*
X188000000Y-116010000D02*
X188000000Y-116390000D01*
%TO.N,Net-(IC602-Pad15)*%
X204400000Y-105810000D02*
X202330000Y-105810000D01*
%TO.N,Net-(IC602-Pad16)*%
X202968127Y-106610000D02*
X202875073Y-106703054D01*
X204400000Y-106610000D02*
X202968127Y-106610000D01*
%TO.N,Net-(IC801-Pad14)*%
X190870000Y-122854000D02*
X190870000Y-121620000D01*
X190870000Y-121620000D02*
X190320000Y-121070000D01*
%TO.N,Net-(Q401-Pad1)*%
X162230000Y-127190000D02*
X162230000Y-127640000D01*
X166455011Y-122964989D02*
X162230000Y-127190000D01*
X166455011Y-120588600D02*
X166455011Y-122964989D01*
X166026411Y-120160000D02*
X166455011Y-120588600D01*
X165280000Y-120160000D02*
X166026411Y-120160000D01*
%TO.N,Current_to_AtoD*%
X160705000Y-127640000D02*
X160330000Y-127640000D01*
X166005001Y-122339999D02*
X164847500Y-123497500D01*
X166005001Y-120775000D02*
X166005001Y-122339999D01*
X165890001Y-120660000D02*
X166005001Y-120775000D01*
X165280000Y-120660000D02*
X165890001Y-120660000D01*
X164847500Y-123497500D02*
X160705000Y-127640000D01*
X196100000Y-125260000D02*
X197060000Y-126220000D01*
X199342374Y-130310000D02*
X199630000Y-130310000D01*
X197060000Y-128027626D02*
X199342374Y-130310000D01*
X197060000Y-126220000D02*
X197060000Y-128027626D01*
X148925000Y-129255000D02*
X153115000Y-129255000D01*
X158715000Y-129255000D02*
X160330000Y-127640000D01*
X153115000Y-129255000D02*
X158715000Y-129255000D01*
%TO.N,Net-(R305-Pad1)*%
X160660000Y-95471300D02*
X160625000Y-95436300D01*
X160660000Y-97850000D02*
X160660000Y-95471300D01*
%TO.N,Net-(R306-Pad1)*%
X174415000Y-97905000D02*
X174430000Y-97920000D01*
X174415000Y-95486300D02*
X174415000Y-97905000D01*
%TO.N,Net-(R401-Pad1)*%
X160020000Y-120160000D02*
X159910000Y-120050000D01*
X162480000Y-120160000D02*
X160020000Y-120160000D01*
X159910000Y-119510000D02*
X158870000Y-118470000D01*
X159910000Y-120050000D02*
X159910000Y-119510000D01*
%TO.N,Net-(R402-Pad2)*%
X161079999Y-119659999D02*
X159890000Y-118470000D01*
X162480000Y-119659999D02*
X161079999Y-119659999D01*
X158870000Y-117450000D02*
X159890000Y-118470000D01*
X158870000Y-116920000D02*
X158870000Y-117450000D01*
%TO.N,DtoA_Output_to_Current*%
X179535120Y-119455120D02*
X179520000Y-119440000D01*
X180806998Y-119455120D02*
X179535120Y-119455120D01*
X168740000Y-114560000D02*
X168750000Y-114550000D01*
X168740000Y-116355000D02*
X168740000Y-114560000D01*
%TO.N,DtoA_Output_(Setpoint)*%
X181935120Y-127095120D02*
X180896998Y-127095120D01*
X182580000Y-127740000D02*
X181935120Y-127095120D01*
X175145000Y-105495000D02*
X176920000Y-107270000D01*
X174230000Y-105495000D02*
X175145000Y-105495000D01*
%TO.N,Net-(R503-Pad1)*%
X178715000Y-108960000D02*
X178725000Y-108950000D01*
X182595001Y-104911999D02*
X182183002Y-104500000D01*
X182595001Y-105608001D02*
X182595001Y-104911999D01*
X180053012Y-108149990D02*
X182595001Y-105608001D01*
X179525010Y-108149990D02*
X180053012Y-108149990D01*
X182183002Y-104500000D02*
X180900000Y-104500000D01*
X178725000Y-108950000D02*
X179525010Y-108149990D01*
X177526998Y-108950000D02*
X178725000Y-108950000D01*
X175696998Y-107120000D02*
X177526998Y-108950000D01*
X171755000Y-107120000D02*
X175696998Y-107120000D01*
%TO.N,Net-(R503-Pad2)*%
X171045000Y-109724999D02*
X171020000Y-109749999D01*
X171020000Y-109749999D02*
X171020000Y-110250000D01*
X171020000Y-108035000D02*
X171020000Y-109749999D01*
X170105000Y-107120000D02*
X171020000Y-108035000D01*
%TO.N,Net-(R504-Pad1)*%
X176995000Y-101974695D02*
X177712420Y-102692115D01*
X176995000Y-101750000D02*
X176995000Y-101974695D01*
X181610001Y-105000001D02*
X181870000Y-105260000D01*
X180900000Y-105000001D02*
X181610001Y-105000001D01*
X185145000Y-107175000D02*
X184350000Y-106380000D01*
X186250000Y-107175000D02*
X185145000Y-107175000D01*
%TO.N,Net-(R504-Pad2)*%
X175745000Y-101750000D02*
X177494999Y-103499999D01*
X177494999Y-103499999D02*
X178100000Y-103499999D01*
X175345000Y-101750000D02*
X175745000Y-101750000D01*
X178100000Y-103499999D02*
X178100000Y-104000000D01*
%TO.N,Net-(R506-Pad1)*%
X182319412Y-104000000D02*
X180900000Y-104000000D01*
X183045010Y-104725598D02*
X182319412Y-104000000D01*
X183045011Y-105794401D02*
X183045010Y-104725598D01*
X180375000Y-108464412D02*
X183045011Y-105794401D01*
X180375000Y-108950000D02*
X180375000Y-108464412D01*
X179574990Y-109750010D02*
X180375000Y-108950000D01*
X177514990Y-109750010D02*
X179574990Y-109750010D01*
X176350000Y-110915000D02*
X177514990Y-109750010D01*
%TO.N,Net-(R507-Pad2)*%
X174430001Y-110750000D02*
X173820000Y-110750000D01*
X174545001Y-110865000D02*
X174430001Y-110750000D01*
X174545001Y-111215001D02*
X174545001Y-110865000D01*
X175524990Y-112194990D02*
X174545001Y-111215001D01*
X175979990Y-112194990D02*
X175524990Y-112194990D01*
X176350000Y-112565000D02*
X175979990Y-112194990D01*
X178938180Y-114105010D02*
X180410000Y-112633190D01*
X177490010Y-114105010D02*
X178938180Y-114105010D01*
X176350000Y-112965000D02*
X177490010Y-114105010D01*
X176350000Y-112565000D02*
X176350000Y-112965000D01*
X180410000Y-110377500D02*
X182287500Y-108500000D01*
X180410000Y-112633190D02*
X180410000Y-110377500D01*
%TO.N,Monitor+_To_AIN2*%
X138000000Y-89870000D02*
X137390000Y-89260000D01*
X138000000Y-93280000D02*
X138000000Y-89870000D01*
X193470000Y-127812370D02*
X193050150Y-127392520D01*
X193470000Y-128730000D02*
X193470000Y-127812370D01*
X137950000Y-93330000D02*
X138000000Y-93280000D01*
X137950000Y-96810000D02*
X137950000Y-93330000D01*
%TO.N,GND*%
X158870000Y-115400000D02*
X158880000Y-115390000D01*
X176600000Y-106150000D02*
X176600000Y-106150000D01*
X178100000Y-105000001D02*
X178250002Y-105000000D01*
X178250002Y-106000002D02*
X178700000Y-106450000D01*
X178700000Y-106450000D02*
X178700000Y-106450000D01*
X168970000Y-111130000D02*
X168970000Y-111150000D01*
X168970000Y-111130000D02*
X168970000Y-111200000D01*
X168970000Y-111130000D02*
X168970000Y-111400000D01*
X168970000Y-111400000D02*
X168420000Y-111950000D01*
X168420000Y-111950000D02*
X168420000Y-111950000D01*
X166220000Y-111310000D02*
X166220000Y-111320000D01*
X166220000Y-111320000D02*
X167200000Y-112300000D01*
X167200000Y-112300000D02*
X167200000Y-112300000D01*
X162900000Y-112560000D02*
X162340000Y-112560000D01*
X162340000Y-112560000D02*
X161500000Y-113400000D01*
X161500000Y-113400000D02*
X161500000Y-113400000D01*
X159230000Y-123720000D02*
X158450000Y-123720000D01*
X158450000Y-123720000D02*
X158250000Y-123520000D01*
X158250000Y-123520000D02*
X158250000Y-123520000D01*
X152505000Y-125215000D02*
X154765000Y-125215000D01*
X154765000Y-125215000D02*
X156100000Y-126550000D01*
X156100000Y-126550000D02*
X156100000Y-126550000D01*
X143080000Y-89120000D02*
X143080000Y-89120000D01*
X135460000Y-89140000D02*
X135460000Y-89140000D01*
X158105000Y-95206300D02*
X158105000Y-95695000D01*
X145620000Y-124470000D02*
X145620000Y-124470000D01*
X143080000Y-124680000D02*
X143080000Y-124680000D01*
X183305000Y-86113700D02*
X183386300Y-86113700D01*
D39*
X183386300Y-86113700D02*
X184650000Y-84850000D01*
D38*
X184650000Y-84850000D02*
X184650000Y-84850000D01*
D39*
X184650000Y-84850000D02*
X184650000Y-84850000D01*
X171875000Y-86113700D02*
X171563700Y-86113700D01*
X171563700Y-86113700D02*
X170650000Y-85200000D01*
X170650000Y-85200000D02*
X170650000Y-85200000D01*
X169786300Y-86063700D02*
X170650000Y-85200000D01*
X169515000Y-86063700D02*
X169786300Y-86063700D01*
X158085000Y-86063700D02*
X156663700Y-86063700D01*
X156663700Y-86063700D02*
X156663700Y-86063700D01*
X171875000Y-97575000D02*
X171875000Y-97575000D01*
X169515000Y-97565000D02*
X169515000Y-97565000D01*
X183305000Y-95486300D02*
X184863700Y-95486300D01*
X184863700Y-95486300D02*
X184863700Y-95486300D01*
X183305000Y-95486300D02*
X183305000Y-92717178D01*
X183305000Y-86113700D02*
X183305000Y-88882822D01*
X166078801Y-89230979D02*
X166078801Y-92269021D01*
X158085000Y-95436300D02*
X158085000Y-92667178D01*
X165968801Y-90785779D02*
X165913022Y-90730000D01*
X166078801Y-92269021D02*
X166078801Y-90805779D01*
X158085000Y-86063700D02*
X158085000Y-88832822D01*
X161521199Y-92269021D02*
X161521199Y-89230979D01*
X169515000Y-86063700D02*
X169515000Y-88832822D01*
X179868801Y-91531621D02*
X179813022Y-91587400D01*
X171875000Y-86113700D02*
X171875000Y-87598699D01*
D38*
X167735000Y-108332000D02*
X166465000Y-108332000D01*
X193980000Y-103450000D02*
X192960000Y-103450000D01*
X192960000Y-103450000D02*
X192960000Y-103450000D01*
X193445001Y-119844999D02*
X193460000Y-119830000D01*
X193445001Y-121035001D02*
X193445001Y-119844999D01*
X194590000Y-120280000D02*
X194590000Y-119270000D01*
X194590000Y-119270000D02*
X194210000Y-118890000D01*
X194210000Y-118890000D02*
X194210000Y-118890000D01*
X182550000Y-118140000D02*
X182540000Y-118150000D01*
X183730000Y-118140000D02*
X182550000Y-118140000D01*
X199730000Y-127700000D02*
X200310000Y-127120000D01*
X199190000Y-127700000D02*
X199730000Y-127700000D01*
X195920000Y-130680000D02*
X196750000Y-130680000D01*
X196750000Y-130680000D02*
X196750000Y-130680000D01*
X199780000Y-85740000D02*
X199705000Y-85665000D01*
X200980000Y-85740000D02*
X199780000Y-85740000D01*
X199550000Y-85510000D02*
X199530000Y-85490000D01*
X199705000Y-85665000D02*
X199550000Y-85510000D01*
X196079999Y-90390001D02*
X196830000Y-89640000D01*
X195430000Y-90390001D02*
X196079999Y-90390001D01*
X193370000Y-87940000D02*
X193870000Y-87440000D01*
X193370000Y-88250000D02*
X193370000Y-87940000D01*
X193870000Y-87440000D02*
X193870000Y-87160000D01*
X193870000Y-87160000D02*
X193870000Y-87160000D01*
X186570001Y-92560001D02*
X186410000Y-92400000D01*
X187994000Y-92560001D02*
X186570001Y-92560001D01*
X175910000Y-113760000D02*
X175910000Y-113760000D01*
X183730000Y-125490000D02*
X183740000Y-125500000D01*
X182550000Y-125490000D02*
X183730000Y-125490000D01*
X183740000Y-125500000D02*
X183740000Y-124460000D01*
X183740000Y-124460000D02*
X183740000Y-124460000D01*
X181201638Y-125490000D02*
X180896998Y-125794640D01*
X182550000Y-125490000D02*
X181201638Y-125490000D01*
X174850000Y-125720000D02*
X174850000Y-125720000D01*
X183170000Y-129540000D02*
X184360000Y-129540000D01*
X184360000Y-129540000D02*
X184360000Y-129540000D01*
X189570000Y-128730000D02*
X189870000Y-128730000D01*
X189870000Y-128730000D02*
X190220000Y-128730000D01*
X160870000Y-125150000D02*
X160900000Y-125180000D01*
X160870000Y-123520000D02*
X160870000Y-125150000D01*
X148925000Y-125825000D02*
X153115000Y-125825000D01*
X163129999Y-121160001D02*
X163880000Y-120410000D01*
X162480000Y-121160001D02*
X163129999Y-121160001D01*
X166230000Y-108567000D02*
X166465000Y-108332000D01*
X166230000Y-110010000D02*
X166230000Y-108567000D01*
X166220000Y-110020000D02*
X166230000Y-110010000D01*
X166220000Y-111310000D02*
X166220000Y-110020000D01*
X166790000Y-101100000D02*
X167760000Y-101100000D01*
X170430000Y-100880000D02*
X170430000Y-100880000D01*
X167760000Y-101100000D02*
X167760000Y-101100000D01*
X166930000Y-98310000D02*
X166080000Y-98310000D01*
X166080000Y-98310000D02*
X165720000Y-97950000D01*
X165720000Y-97950000D02*
X165720000Y-97950000D01*
X178250002Y-105150003D02*
X178100000Y-105000001D01*
X178250002Y-106000002D02*
X178250002Y-105150003D01*
X178749999Y-105000001D02*
X179500000Y-104250000D01*
X178100000Y-105000001D02*
X178749999Y-105000001D01*
X160590000Y-86028700D02*
X160625000Y-86063700D01*
X161895000Y-86063700D02*
X160625000Y-86063700D01*
X165096879Y-88989899D02*
X164981100Y-89105678D01*
X165953801Y-89290979D02*
X165652721Y-88989899D01*
X165843801Y-92189021D02*
X165843801Y-89270979D01*
X161947279Y-92510101D02*
X165652721Y-92510101D01*
X165652721Y-88989899D02*
X165096879Y-88989899D01*
X161646199Y-92209021D02*
X161947279Y-92510101D01*
X161646199Y-87547500D02*
X161646199Y-92209021D01*
X161895000Y-87298699D02*
X161646199Y-87547500D01*
X165652721Y-92510101D02*
X165953801Y-92209021D01*
X161895000Y-86063700D02*
X161895000Y-87298699D01*
X179743801Y-92259021D02*
X179743801Y-89340979D01*
X178886879Y-89039899D02*
X178771100Y-89155678D01*
X179442721Y-92560101D02*
X179743801Y-92259021D01*
X179743801Y-89340979D02*
X179442721Y-89039899D01*
X175685000Y-87348699D02*
X175436199Y-87597500D01*
X175685000Y-86113700D02*
X175685000Y-87348699D01*
X174415000Y-86113700D02*
X175685000Y-86113700D01*
X192170000Y-128730000D02*
X191520000Y-128730000D01*
X189570000Y-128730000D02*
X188890000Y-128730000D01*
X188890000Y-128730000D02*
X188100000Y-127940000D01*
X193460000Y-119640000D02*
X194210000Y-118890000D01*
X193460000Y-119830000D02*
X193460000Y-119640000D01*
X194120000Y-128730000D02*
X194670000Y-128730000D01*
X194670000Y-128730000D02*
X195240000Y-128160000D01*
X191520000Y-128730000D02*
X191520000Y-130190000D01*
X191520000Y-130190000D02*
X191520000Y-130190000D01*
X171669999Y-111250001D02*
X172420000Y-110500000D01*
X171020000Y-111250001D02*
X171669999Y-111250001D01*
X158880000Y-115390000D02*
X158880000Y-113430000D01*
X158880000Y-113430000D02*
X158880000Y-113430000D01*
X193470000Y-121060000D02*
X193445001Y-121035001D01*
X189700000Y-85550000D02*
X188590000Y-85550000D01*
X188590000Y-85550000D02*
X188200000Y-85940000D01*
X200480000Y-88050000D02*
X201605019Y-88050000D01*
X201605019Y-88050000D02*
X201910012Y-88354993D01*
D39*
X171720000Y-84130000D02*
X170650000Y-85200000D01*
X171940000Y-84130000D02*
X171720000Y-84130000D01*
D38*
X138410000Y-89260000D02*
X139170000Y-89260000D01*
X139170000Y-89260000D02*
X139170002Y-89259998D01*
X160660000Y-98870000D02*
X160600000Y-98870000D01*
X160600000Y-98870000D02*
X159630000Y-97900000D01*
X174430000Y-98940000D02*
X173450000Y-97960000D01*
X173450000Y-97960000D02*
X173450000Y-97870000D01*
X166840000Y-101050000D02*
X166790000Y-101100000D01*
X166840000Y-99780000D02*
X166840000Y-101050000D01*
X170120000Y-99840000D02*
X170120000Y-100890000D01*
X170120000Y-100890000D02*
X170340000Y-101110000D01*
X168500002Y-129970000D02*
X168470002Y-129940000D01*
X169750000Y-129970000D02*
X168500002Y-129970000D01*
X168700000Y-120600000D02*
X168180000Y-120080000D01*
X168700000Y-121090000D02*
X168700000Y-120600000D01*
X161559999Y-121160001D02*
X161330000Y-121390000D01*
X162480000Y-121160001D02*
X161559999Y-121160001D01*
X171020000Y-111250001D02*
X171020000Y-112050000D01*
X171020000Y-112050000D02*
X171019995Y-112050005D01*
X184639528Y-118140000D02*
X184679475Y-118100053D01*
X183730000Y-118140000D02*
X184639528Y-118140000D01*
X174770000Y-113760000D02*
X175910000Y-113760000D01*
X173220000Y-120780000D02*
X172359998Y-120780000D01*
X182535360Y-118154640D02*
X182540000Y-118150000D01*
X180806998Y-118154640D02*
X182535360Y-118154640D01*
X174900000Y-126350000D02*
X174850000Y-126400000D01*
X174900000Y-125520000D02*
X174900000Y-126350000D01*
X176438122Y-126400000D02*
X176483002Y-126444880D01*
X174850000Y-126400000D02*
X176438122Y-126400000D01*
X193470000Y-122854000D02*
X193470000Y-121060000D01*
X176600000Y-105924680D02*
X176712660Y-106037340D01*
X176600000Y-104880000D02*
X176600000Y-105924680D01*
X173210000Y-120770000D02*
X173220000Y-120780000D01*
X173210000Y-119610000D02*
X173210000Y-120770000D01*
X204536000Y-91960000D02*
X205890000Y-91960000D01*
X205890000Y-91960000D02*
X205900000Y-91970000D01*
X198990000Y-103960000D02*
X198640000Y-103610000D01*
X194950001Y-90870000D02*
X195430000Y-90390001D01*
X194010000Y-90870000D02*
X194950001Y-90870000D01*
X193940000Y-90940000D02*
X194010000Y-90870000D01*
X201050000Y-103507088D02*
X200984029Y-103573059D01*
X201050000Y-102280000D02*
X201050000Y-103507088D01*
X198676941Y-103573059D02*
X198640000Y-103610000D01*
X200984029Y-103573059D02*
X198676941Y-103573059D01*
X194780000Y-116300000D02*
X195100000Y-116620000D01*
X194780000Y-115260000D02*
X194780000Y-116300000D01*
X195580000Y-100950000D02*
X196340000Y-101710000D01*
X193990000Y-100950000D02*
X195580000Y-100950000D01*
X193990000Y-103440000D02*
X193980000Y-103450000D01*
X193990000Y-100950000D02*
X193990000Y-103440000D01*
X189760000Y-95170000D02*
X189760000Y-94630000D01*
X189760000Y-94630000D02*
X190380000Y-94010000D01*
D39*
X179618801Y-90915779D02*
X179563022Y-90860000D01*
D38*
X175436199Y-87597500D02*
X175436199Y-92259021D01*
D39*
X171875000Y-94001301D02*
X171875000Y-86113700D01*
X171875000Y-95486300D02*
X171875000Y-94001301D01*
D38*
X200584030Y-103973058D02*
X200584030Y-105161552D01*
X200584030Y-105161552D02*
X201034999Y-105612521D01*
X200984029Y-103573059D02*
X200584030Y-103973058D01*
X201034999Y-105612521D02*
X201034999Y-105900000D01*
X156680000Y-86047400D02*
X156663700Y-86063700D01*
X156680000Y-83930000D02*
X156680000Y-86047400D01*
D39*
X169515000Y-95436300D02*
X169515000Y-92667178D01*
X171875000Y-95486300D02*
X171875000Y-97795010D01*
X169515000Y-97793459D02*
X169516551Y-97795010D01*
X169515000Y-95436300D02*
X169515000Y-97793459D01*
X158085000Y-95436300D02*
X156376360Y-93727660D01*
X156376360Y-93727660D02*
X156372340Y-93727660D01*
D40*
X135460000Y-93280000D02*
X135460000Y-89140000D01*
X143080000Y-93280000D02*
X143080000Y-89120000D01*
X143080000Y-120280000D02*
X143080000Y-124680000D01*
X145620000Y-124455850D02*
X145612925Y-124462925D01*
X145620000Y-120280000D02*
X145620000Y-124455850D01*
D38*
X201620970Y-104210000D02*
X200984029Y-103573059D01*
X204400000Y-104210000D02*
X201620970Y-104210000D01*
X193980000Y-105900000D02*
X193380000Y-105300000D01*
X193980000Y-106760000D02*
X193980000Y-105900000D01*
X192528351Y-85550000D02*
X192573361Y-85595010D01*
X189700000Y-85550000D02*
X192528351Y-85550000D01*
%TO.N,SDA_CPU_to_AtoD*%
X188040588Y-109810000D02*
X189130000Y-109810000D01*
X171634997Y-118735591D02*
X174380598Y-115989989D01*
X171634997Y-121128001D02*
X171634997Y-118735591D01*
X174380598Y-115989989D02*
X181860599Y-115989989D01*
X172506996Y-122000000D02*
X171634997Y-121128001D01*
X181860599Y-115989989D02*
X188040588Y-109810000D01*
X173230000Y-122000000D02*
X172506996Y-122000000D01*
X189130000Y-109810000D02*
X190130000Y-109810000D01*
%TO.N,SCL_CPU_to_AtoD*%
X189130000Y-110610000D02*
X190130000Y-110610000D01*
X174566998Y-116440000D02*
X182046998Y-116440000D01*
X187876998Y-110610000D02*
X189130000Y-110610000D01*
X173210000Y-118410000D02*
X173210000Y-117796998D01*
X173210000Y-117796998D02*
X174566998Y-116440000D01*
X182046998Y-116440000D02*
X187876998Y-110610000D01*
%TO.N,/AtoD_DtoA/SDA*%
X174240000Y-121990000D02*
X174250000Y-122000000D01*
X174250000Y-120790000D02*
X174240000Y-120780000D01*
X174250000Y-122000000D02*
X174250000Y-120790000D01*
X174914640Y-120105360D02*
X174240000Y-120780000D01*
X176393002Y-120105360D02*
X174914640Y-120105360D01*
X174015360Y-127745360D02*
X176483002Y-127745360D01*
X172950000Y-126680000D02*
X174015360Y-127745360D01*
X172950000Y-123300000D02*
X172950000Y-126680000D01*
X174250000Y-122000000D02*
X172950000Y-123300000D01*
X178540010Y-121665010D02*
X178370000Y-121495000D01*
X190018510Y-121665010D02*
X178540010Y-121665010D01*
X190220000Y-121866500D02*
X190018510Y-121665010D01*
X190220000Y-122854000D02*
X190220000Y-121866500D01*
X176393002Y-120105360D02*
X176393002Y-120266998D01*
X176393002Y-120266998D02*
X175790000Y-120870000D01*
%TO.N,/AtoD_DtoA/SCL*%
X174230000Y-119610000D02*
X174230000Y-118410000D01*
X177375603Y-120568161D02*
X176318765Y-121624999D01*
X177375603Y-119642559D02*
X177375603Y-120568161D01*
X177188164Y-119455120D02*
X177375603Y-119642559D01*
X176393002Y-119455120D02*
X177188164Y-119455120D01*
X176393002Y-119455120D02*
X174384880Y-119455120D01*
X174384880Y-119455120D02*
X174230000Y-119610000D01*
X174035001Y-127125001D02*
X176453121Y-127125001D01*
X176453121Y-127125001D02*
X176483002Y-127095120D01*
X173400000Y-126490000D02*
X174035001Y-127125001D01*
X177606993Y-122854000D02*
X176377992Y-121624999D01*
X175635001Y-121624999D02*
X173400000Y-123860000D01*
X176318765Y-121624999D02*
X175635001Y-121624999D01*
X176377992Y-121624999D02*
X176318765Y-121624999D01*
X189570000Y-122854000D02*
X177606993Y-122854000D01*
X173400000Y-123860000D02*
X173400000Y-126490000D01*
%TO.N,Net-(C808-Pad1)*%
X192820000Y-124025000D02*
X192480000Y-124365000D01*
X192820000Y-122854000D02*
X192820000Y-124025000D01*
X200050000Y-129290000D02*
X201130000Y-130370000D01*
X199630000Y-129290000D02*
X200050000Y-129290000D01*
X198230000Y-127890000D02*
X199630000Y-129290000D01*
X198230000Y-127700000D02*
X198230000Y-127890000D01*
%TO.N,Net-(J602-Pad1)*%
X204400000Y-107410000D02*
X203610000Y-107410000D01*
%TO.N,Net-(C601-Pad1)*%
X200660000Y-101710000D02*
X201050000Y-101320000D01*
X198640000Y-101710000D02*
X200660000Y-101710000D01*
X196380000Y-115260000D02*
X196380000Y-116180000D01*
X196380000Y-116180000D02*
X196810000Y-116610000D01*
X201050000Y-101320000D02*
X201050000Y-100380000D01*
%TD*%
D42*
%TO.N,GND*%
X188660787Y-109013412D02*
X188683659Y-109088812D01*
X188720802Y-109158301D01*
X188745954Y-109188949D01*
X188746875Y-109410000D01*
X188060223Y-109410000D01*
X188040587Y-109408066D01*
X188020951Y-109410000D01*
X188020941Y-109410000D01*
X187962174Y-109415788D01*
X187886774Y-109438660D01*
X187817285Y-109475803D01*
X187817283Y-109475804D01*
X187817284Y-109475804D01*
X187771637Y-109513265D01*
X187771635Y-109513267D01*
X187756377Y-109525789D01*
X187743855Y-109541047D01*
X181694914Y-115589989D01*
X174400244Y-115589989D01*
X174380598Y-115588054D01*
X174302184Y-115595777D01*
X174226783Y-115618649D01*
X174157295Y-115655792D01*
X174111647Y-115693254D01*
X174111645Y-115693256D01*
X174096387Y-115705778D01*
X174083865Y-115721036D01*
X171366045Y-118438858D01*
X171350787Y-118451380D01*
X171338265Y-118466638D01*
X171338262Y-118466641D01*
X171300800Y-118512289D01*
X171263658Y-118581777D01*
X171240785Y-118657178D01*
X171233062Y-118735591D01*
X171234998Y-118755247D01*
X171234997Y-121108354D01*
X171233062Y-121128001D01*
X171234997Y-121147647D01*
X171240785Y-121206414D01*
X171263657Y-121281814D01*
X171300800Y-121351303D01*
X171350786Y-121412212D01*
X171366049Y-121424738D01*
X172210263Y-122268953D01*
X172222785Y-122284211D01*
X172238043Y-122296733D01*
X172238045Y-122296735D01*
X172283693Y-122334197D01*
X172353182Y-122371340D01*
X172428582Y-122394212D01*
X172506996Y-122401935D01*
X172526643Y-122400000D01*
X172745764Y-122400000D01*
X172752992Y-122413523D01*
X172804146Y-122475854D01*
X172866477Y-122527008D01*
X172937591Y-122565019D01*
X173014753Y-122588426D01*
X173088614Y-122595701D01*
X172681052Y-123003263D01*
X172665789Y-123015789D01*
X172615803Y-123076698D01*
X172578660Y-123146187D01*
X172565917Y-123188197D01*
X172555788Y-123221587D01*
X172548065Y-123300000D01*
X172550000Y-123319647D01*
X172550001Y-126660344D01*
X172548065Y-126680000D01*
X172555788Y-126758413D01*
X172578661Y-126833814D01*
X172615803Y-126903302D01*
X172653265Y-126948950D01*
X172653268Y-126948953D01*
X172665790Y-126964211D01*
X172681048Y-126976733D01*
X173718623Y-128014308D01*
X173731149Y-128029571D01*
X173792057Y-128079557D01*
X173861546Y-128116700D01*
X173936946Y-128139572D01*
X173977387Y-128143555D01*
X174015360Y-128147295D01*
X174035007Y-128145360D01*
X175632207Y-128145360D01*
X175671882Y-128177920D01*
X175719656Y-128203456D01*
X175771494Y-128219180D01*
X175825403Y-128224490D01*
X177140601Y-128224490D01*
X177194510Y-128219180D01*
X177246348Y-128203456D01*
X177294122Y-128177920D01*
X177335996Y-128143555D01*
X177370361Y-128101681D01*
X177395897Y-128053907D01*
X177411621Y-128002069D01*
X177416931Y-127948160D01*
X177416931Y-127542560D01*
X177411621Y-127488651D01*
X177395897Y-127436813D01*
X177387038Y-127420240D01*
X177395897Y-127403667D01*
X177411621Y-127351829D01*
X177416931Y-127297920D01*
X177416931Y-127105762D01*
X177496521Y-127047887D01*
X177567759Y-126970761D01*
X177622581Y-126881218D01*
X177658881Y-126782701D01*
X177673601Y-126755930D01*
X177591553Y-126673882D01*
X177591721Y-126673882D01*
X177987059Y-127069220D01*
X178014500Y-128455000D01*
X173789666Y-128455000D01*
X172155052Y-126968987D01*
X172174627Y-122760279D01*
X172174169Y-122755400D01*
X172172768Y-122750703D01*
X172170478Y-122746371D01*
X172167387Y-122742568D01*
X172163613Y-122739441D01*
X172159301Y-122737111D01*
X172154618Y-122735666D01*
X172150081Y-122735170D01*
X170684964Y-121359149D01*
X170675036Y-118370656D01*
X174030151Y-115164878D01*
X181390305Y-115074998D01*
X181395176Y-115074458D01*
X181399848Y-115072978D01*
X181404142Y-115070616D01*
X181407107Y-115068231D01*
X182485471Y-114056330D01*
X182800001Y-114056330D01*
X182902683Y-114046217D01*
X183001418Y-114016266D01*
X183092414Y-113967628D01*
X183172172Y-113902172D01*
X183237628Y-113822414D01*
X183286266Y-113731418D01*
X183316217Y-113632683D01*
X183326330Y-113530001D01*
X183326330Y-113267296D01*
X186336020Y-110443103D01*
X186456890Y-110419060D01*
X186579732Y-110368177D01*
X186690287Y-110294307D01*
X186784307Y-110200287D01*
X186858177Y-110089732D01*
X186909060Y-109966890D01*
X186924103Y-109891265D01*
X187889893Y-108985000D01*
X188657989Y-108985000D01*
X188660787Y-109013412D01*
%TA.AperFunction,Conductor*%
D43*
G36*
X188660787Y-109013412D02*
G01*
X188683659Y-109088812D01*
X188720802Y-109158301D01*
X188745954Y-109188949D01*
X188746875Y-109410000D01*
X188060223Y-109410000D01*
X188040587Y-109408066D01*
X188020951Y-109410000D01*
X188020941Y-109410000D01*
X187962174Y-109415788D01*
X187886774Y-109438660D01*
X187817285Y-109475803D01*
X187817283Y-109475804D01*
X187817284Y-109475804D01*
X187771637Y-109513265D01*
X187771635Y-109513267D01*
X187756377Y-109525789D01*
X187743855Y-109541047D01*
X181694914Y-115589989D01*
X174400244Y-115589989D01*
X174380598Y-115588054D01*
X174302184Y-115595777D01*
X174226783Y-115618649D01*
X174157295Y-115655792D01*
X174111647Y-115693254D01*
X174111645Y-115693256D01*
X174096387Y-115705778D01*
X174083865Y-115721036D01*
X171366045Y-118438858D01*
X171350787Y-118451380D01*
X171338265Y-118466638D01*
X171338262Y-118466641D01*
X171300800Y-118512289D01*
X171263658Y-118581777D01*
X171240785Y-118657178D01*
X171233062Y-118735591D01*
X171234998Y-118755247D01*
X171234997Y-121108354D01*
X171233062Y-121128001D01*
X171234997Y-121147647D01*
X171240785Y-121206414D01*
X171263657Y-121281814D01*
X171300800Y-121351303D01*
X171350786Y-121412212D01*
X171366049Y-121424738D01*
X172210263Y-122268953D01*
X172222785Y-122284211D01*
X172238043Y-122296733D01*
X172238045Y-122296735D01*
X172283693Y-122334197D01*
X172353182Y-122371340D01*
X172428582Y-122394212D01*
X172506996Y-122401935D01*
X172526643Y-122400000D01*
X172745764Y-122400000D01*
X172752992Y-122413523D01*
X172804146Y-122475854D01*
X172866477Y-122527008D01*
X172937591Y-122565019D01*
X173014753Y-122588426D01*
X173088614Y-122595701D01*
X172681052Y-123003263D01*
X172665789Y-123015789D01*
X172615803Y-123076698D01*
X172578660Y-123146187D01*
X172565917Y-123188197D01*
X172555788Y-123221587D01*
X172548065Y-123300000D01*
X172550000Y-123319647D01*
X172550001Y-126660344D01*
X172548065Y-126680000D01*
X172555788Y-126758413D01*
X172578661Y-126833814D01*
X172615803Y-126903302D01*
X172653265Y-126948950D01*
X172653268Y-126948953D01*
X172665790Y-126964211D01*
X172681048Y-126976733D01*
X173718623Y-128014308D01*
X173731149Y-128029571D01*
X173792057Y-128079557D01*
X173861546Y-128116700D01*
X173936946Y-128139572D01*
X173977387Y-128143555D01*
X174015360Y-128147295D01*
X174035007Y-128145360D01*
X175632207Y-128145360D01*
X175671882Y-128177920D01*
X175719656Y-128203456D01*
X175771494Y-128219180D01*
X175825403Y-128224490D01*
X177140601Y-128224490D01*
X177194510Y-128219180D01*
X177246348Y-128203456D01*
X177294122Y-128177920D01*
X177335996Y-128143555D01*
X177370361Y-128101681D01*
X177395897Y-128053907D01*
X177411621Y-128002069D01*
X177416931Y-127948160D01*
X177416931Y-127542560D01*
X177411621Y-127488651D01*
X177395897Y-127436813D01*
X177387038Y-127420240D01*
X177395897Y-127403667D01*
X177411621Y-127351829D01*
X177416931Y-127297920D01*
X177416931Y-127105762D01*
X177496521Y-127047887D01*
X177567759Y-126970761D01*
X177622581Y-126881218D01*
X177658881Y-126782701D01*
X177673601Y-126755930D01*
X177591553Y-126673882D01*
X177591721Y-126673882D01*
X177987059Y-127069220D01*
X178014500Y-128455000D01*
X173789666Y-128455000D01*
X172155052Y-126968987D01*
X172174627Y-122760279D01*
X172174169Y-122755400D01*
X172172768Y-122750703D01*
X172170478Y-122746371D01*
X172167387Y-122742568D01*
X172163613Y-122739441D01*
X172159301Y-122737111D01*
X172154618Y-122735666D01*
X172150081Y-122735170D01*
X170684964Y-121359149D01*
X170675036Y-118370656D01*
X174030151Y-115164878D01*
X181390305Y-115074998D01*
X181395176Y-115074458D01*
X181399848Y-115072978D01*
X181404142Y-115070616D01*
X181407107Y-115068231D01*
X182485471Y-114056330D01*
X182800001Y-114056330D01*
X182902683Y-114046217D01*
X183001418Y-114016266D01*
X183092414Y-113967628D01*
X183172172Y-113902172D01*
X183237628Y-113822414D01*
X183286266Y-113731418D01*
X183316217Y-113632683D01*
X183326330Y-113530001D01*
X183326330Y-113267296D01*
X186336020Y-110443103D01*
X186456890Y-110419060D01*
X186579732Y-110368177D01*
X186690287Y-110294307D01*
X186784307Y-110200287D01*
X186858177Y-110089732D01*
X186909060Y-109966890D01*
X186924103Y-109891265D01*
X187889893Y-108985000D01*
X188657989Y-108985000D01*
X188660787Y-109013412D01*
G37*
%TD.AperFunction*%
D42*
X175380940Y-122546899D02*
X175431823Y-122669741D01*
X175450000Y-122696945D01*
X175450000Y-122896740D01*
X174231402Y-124253293D01*
X174228500Y-124257243D01*
X174226424Y-124261682D01*
X174225255Y-124266441D01*
X174225005Y-124270495D01*
X174236251Y-124838409D01*
X174166983Y-124911516D01*
X174111027Y-125000354D01*
X174073478Y-125098402D01*
X174057000Y-125157750D01*
X174190250Y-125291000D01*
X174245213Y-125291000D01*
X174254282Y-125749000D01*
X174190250Y-125749000D01*
X174057000Y-125882250D01*
X174073478Y-125941598D01*
X174111027Y-126039646D01*
X174166983Y-126128484D01*
X174239196Y-126204699D01*
X174263649Y-126222009D01*
X174265005Y-126290495D01*
X174265582Y-126295362D01*
X174267097Y-126300022D01*
X174269492Y-126304298D01*
X174272676Y-126308024D01*
X174276525Y-126311058D01*
X174280892Y-126313282D01*
X174285609Y-126314611D01*
X174288856Y-126314974D01*
X174491816Y-126324274D01*
X174523155Y-126331391D01*
X174537750Y-126333000D01*
X174544081Y-126326669D01*
X174670998Y-126332485D01*
X174670998Y-126333000D01*
X174682246Y-126333000D01*
X176732002Y-126426924D01*
X176732002Y-126615990D01*
X175825403Y-126615990D01*
X175771494Y-126621300D01*
X175766944Y-126622680D01*
X175425653Y-126622680D01*
X175323332Y-126725001D01*
X174200687Y-126725001D01*
X173800000Y-126324315D01*
X173800000Y-124025685D01*
X175363991Y-122461694D01*
X175380940Y-122546899D01*
%TA.AperFunction,Conductor*%
D43*
G36*
X175380940Y-122546899D02*
G01*
X175431823Y-122669741D01*
X175450000Y-122696945D01*
X175450000Y-122896740D01*
X174231402Y-124253293D01*
X174228500Y-124257243D01*
X174226424Y-124261682D01*
X174225255Y-124266441D01*
X174225005Y-124270495D01*
X174236251Y-124838409D01*
X174166983Y-124911516D01*
X174111027Y-125000354D01*
X174073478Y-125098402D01*
X174057000Y-125157750D01*
X174190250Y-125291000D01*
X174245213Y-125291000D01*
X174254282Y-125749000D01*
X174190250Y-125749000D01*
X174057000Y-125882250D01*
X174073478Y-125941598D01*
X174111027Y-126039646D01*
X174166983Y-126128484D01*
X174239196Y-126204699D01*
X174263649Y-126222009D01*
X174265005Y-126290495D01*
X174265582Y-126295362D01*
X174267097Y-126300022D01*
X174269492Y-126304298D01*
X174272676Y-126308024D01*
X174276525Y-126311058D01*
X174280892Y-126313282D01*
X174285609Y-126314611D01*
X174288856Y-126314974D01*
X174491816Y-126324274D01*
X174523155Y-126331391D01*
X174537750Y-126333000D01*
X174544081Y-126326669D01*
X174670998Y-126332485D01*
X174670998Y-126333000D01*
X174682246Y-126333000D01*
X176732002Y-126426924D01*
X176732002Y-126615990D01*
X175825403Y-126615990D01*
X175771494Y-126621300D01*
X175766944Y-126622680D01*
X175425653Y-126622680D01*
X175323332Y-126725001D01*
X174200687Y-126725001D01*
X173800000Y-126324315D01*
X173800000Y-124025685D01*
X175363991Y-122461694D01*
X175380940Y-122546899D01*
G37*
%TD.AperFunction*%
D42*
X178329879Y-118834850D02*
X178320242Y-120820000D01*
X178303518Y-120820000D01*
X178173110Y-120845940D01*
X178050268Y-120896823D01*
X177939713Y-120970693D01*
X177845693Y-121064713D01*
X177771823Y-121175268D01*
X177720940Y-121298110D01*
X177704647Y-121380019D01*
X177160198Y-121841519D01*
X176914064Y-121595385D01*
X177644551Y-120864898D01*
X177659814Y-120852372D01*
X177709800Y-120791464D01*
X177746943Y-120721975D01*
X177769815Y-120646575D01*
X177775603Y-120587808D01*
X177777538Y-120568161D01*
X177775603Y-120548514D01*
X177775603Y-119662206D01*
X177777538Y-119642559D01*
X177769815Y-119564145D01*
X177746943Y-119488745D01*
X177735952Y-119468182D01*
X177709800Y-119419256D01*
X177659814Y-119358348D01*
X177644552Y-119345823D01*
X177484899Y-119186170D01*
X177472375Y-119170909D01*
X177411467Y-119120923D01*
X177350119Y-119088131D01*
X177361857Y-119073828D01*
X177605194Y-118830491D01*
X178329879Y-118834850D01*
%TA.AperFunction,Conductor*%
D43*
G36*
X178329879Y-118834850D02*
G01*
X178320242Y-120820000D01*
X178303518Y-120820000D01*
X178173110Y-120845940D01*
X178050268Y-120896823D01*
X177939713Y-120970693D01*
X177845693Y-121064713D01*
X177771823Y-121175268D01*
X177720940Y-121298110D01*
X177704647Y-121380019D01*
X177160198Y-121841519D01*
X176914064Y-121595385D01*
X177644551Y-120864898D01*
X177659814Y-120852372D01*
X177709800Y-120791464D01*
X177746943Y-120721975D01*
X177769815Y-120646575D01*
X177775603Y-120587808D01*
X177777538Y-120568161D01*
X177775603Y-120548514D01*
X177775603Y-119662206D01*
X177777538Y-119642559D01*
X177769815Y-119564145D01*
X177746943Y-119488745D01*
X177735952Y-119468182D01*
X177709800Y-119419256D01*
X177659814Y-119358348D01*
X177644552Y-119345823D01*
X177484899Y-119186170D01*
X177472375Y-119170909D01*
X177411467Y-119120923D01*
X177350119Y-119088131D01*
X177361857Y-119073828D01*
X177605194Y-118830491D01*
X178329879Y-118834850D01*
G37*
%TD.AperFunction*%
D42*
X188753626Y-111030336D02*
X188726186Y-111038660D01*
X188656697Y-111075803D01*
X188595789Y-111125789D01*
X188583263Y-111141052D01*
X188132208Y-111592107D01*
X188096482Y-111585000D01*
X187963518Y-111585000D01*
X187833110Y-111610940D01*
X187710268Y-111661823D01*
X187599713Y-111735693D01*
X187505693Y-111829713D01*
X187431823Y-111940268D01*
X187380940Y-112063110D01*
X187355000Y-112193518D01*
X187355000Y-112326482D01*
X187380940Y-112456890D01*
X187427562Y-112569445D01*
X182320312Y-117264947D01*
X175650858Y-117228700D01*
X175618800Y-117196642D01*
X175508245Y-117122772D01*
X175385403Y-117071889D01*
X175254995Y-117045949D01*
X175122031Y-117045949D01*
X174991623Y-117071889D01*
X174868781Y-117122772D01*
X174758226Y-117196642D01*
X174664206Y-117290662D01*
X174590336Y-117401217D01*
X174539453Y-117524059D01*
X174513513Y-117654467D01*
X174513513Y-117787431D01*
X174525264Y-117846507D01*
X174522409Y-117844981D01*
X174445247Y-117821574D01*
X174365000Y-117813670D01*
X174095000Y-117813670D01*
X174014753Y-117821574D01*
X173937591Y-117844981D01*
X173866477Y-117882992D01*
X173804146Y-117934146D01*
X173752992Y-117996477D01*
X173720000Y-118058201D01*
X173687008Y-117996477D01*
X173637063Y-117935620D01*
X174732684Y-116840000D01*
X182027352Y-116840000D01*
X182046998Y-116841935D01*
X182066644Y-116840000D01*
X182066645Y-116840000D01*
X182125412Y-116834212D01*
X182200812Y-116811340D01*
X182270301Y-116774197D01*
X182331209Y-116724211D01*
X182343735Y-116708948D01*
X188042684Y-111010000D01*
X188753541Y-111010000D01*
X188753626Y-111030336D01*
%TA.AperFunction,Conductor*%
D43*
G36*
X188753626Y-111030336D02*
G01*
X188726186Y-111038660D01*
X188656697Y-111075803D01*
X188595789Y-111125789D01*
X188583263Y-111141052D01*
X188132208Y-111592107D01*
X188096482Y-111585000D01*
X187963518Y-111585000D01*
X187833110Y-111610940D01*
X187710268Y-111661823D01*
X187599713Y-111735693D01*
X187505693Y-111829713D01*
X187431823Y-111940268D01*
X187380940Y-112063110D01*
X187355000Y-112193518D01*
X187355000Y-112326482D01*
X187380940Y-112456890D01*
X187427562Y-112569445D01*
X182320312Y-117264947D01*
X175650858Y-117228700D01*
X175618800Y-117196642D01*
X175508245Y-117122772D01*
X175385403Y-117071889D01*
X175254995Y-117045949D01*
X175122031Y-117045949D01*
X174991623Y-117071889D01*
X174868781Y-117122772D01*
X174758226Y-117196642D01*
X174664206Y-117290662D01*
X174590336Y-117401217D01*
X174539453Y-117524059D01*
X174513513Y-117654467D01*
X174513513Y-117787431D01*
X174525264Y-117846507D01*
X174522409Y-117844981D01*
X174445247Y-117821574D01*
X174365000Y-117813670D01*
X174095000Y-117813670D01*
X174014753Y-117821574D01*
X173937591Y-117844981D01*
X173866477Y-117882992D01*
X173804146Y-117934146D01*
X173752992Y-117996477D01*
X173720000Y-118058201D01*
X173687008Y-117996477D01*
X173637063Y-117935620D01*
X174732684Y-116840000D01*
X182027352Y-116840000D01*
X182046998Y-116841935D01*
X182066644Y-116840000D01*
X182066645Y-116840000D01*
X182125412Y-116834212D01*
X182200812Y-116811340D01*
X182270301Y-116774197D01*
X182331209Y-116724211D01*
X182343735Y-116708948D01*
X188042684Y-111010000D01*
X188753541Y-111010000D01*
X188753626Y-111030336D01*
G37*
%TD.AperFunction*%
%TD*%
M02*
