M48
; DRILL file {KiCad (5.1.10)-1} date 06/25/21 15:29:55
; FORMAT={-:-/ absolute / metric / decimal}
; #@! TF.CreationDate,2021-06-25T15:29:55-07:00
; #@! TF.GenerationSoftware,Kicad,Pcbnew,(5.1.10)-1
; #@! TF.FileFunction,Plated,1,4,PTH
FMAT,2
METRIC
T1C0.400
T2C0.900
T3C1.016
T4C1.100
%
G90
G05
T1
X126.263Y-93.226
X126.263Y-121.166
X130.835Y-83.929
X130.835Y-129.675
X135.46Y-89.14
X137.95Y-96.81
X138.02Y-124.67
X139.13Y-127.14
X139.16Y-129.05
X139.17Y-89.26
X143.08Y-89.12
X143.08Y-124.68
X145.62Y-124.47
X147.84Y-95.2
X152.298Y-121.267
X152.375Y-93.2
X155.08Y-89.23
X155.99Y-122.59
X156.1Y-126.55
X156.372Y-93.728
X156.664Y-86.064
X157.31Y-98.91
X158.25Y-123.52
X158.33Y-121.33
X158.88Y-113.43
X159.355Y-83.915
X159.63Y-97.9
X159.9Y-89.67
X159.9Y-90.67
X159.9Y-91.67
X160.618Y-83.918
X160.9Y-125.18
X160.996Y-89.626
X160.996Y-90.626
X160.996Y-91.626
X161.33Y-121.39
X161.5Y-113.4
X161.91Y-97.87
X162.13Y-89.62
X162.13Y-90.62
X162.13Y-91.62
X163.17Y-100.0
X163.27Y-89.62
X163.27Y-90.62
X163.27Y-91.62
X163.65Y-123.52
X163.78Y-84.13
X164.42Y-89.64
X164.42Y-90.64
X164.42Y-91.64
X164.847Y-123.497
X165.17Y-84.14
X165.25Y-112.4
X165.28Y-118.41
X165.62Y-89.63
X165.62Y-90.63
X165.62Y-91.63
X165.72Y-97.95
X166.01Y-127.86
X166.28Y-118.422
X166.82Y-89.65
X166.82Y-90.65
X166.82Y-91.65
X167.2Y-112.3
X167.76Y-101.1
X168.06Y-89.67
X168.06Y-90.67
X168.06Y-91.67
X168.15Y-84.01
X168.18Y-120.08
X168.23Y-97.42
X168.42Y-111.95
X168.47Y-129.94
X168.75Y-114.55
X169.51Y-109.07
X169.517Y-97.795
X170.34Y-101.11
X170.65Y-85.2
X171.02Y-112.05
X171.875Y-97.795
X172.15Y-126.88
X172.2Y-101.41
X172.36Y-120.78
X173.44Y-108.67
X173.45Y-97.87
X173.55Y-89.8
X173.55Y-90.8
X173.55Y-91.8
X173.89Y-114.28
X174.01Y-84.11
X174.08Y-112.11
X174.646Y-89.756
X174.646Y-90.756
X174.646Y-91.756
X174.85Y-126.4
X175.11Y-110.25
X175.189Y-117.721
X175.34Y-84.25
X175.78Y-89.75
X175.78Y-90.75
X175.78Y-91.75
X175.79Y-120.87
X175.91Y-113.76
X176.03Y-122.35
X176.713Y-106.037
X176.82Y-100.0
X176.92Y-89.75
X176.92Y-90.75
X176.92Y-91.75
X176.92Y-107.27
X177.712Y-102.692
X177.75Y-118.12
X177.76Y-84.52
X178.07Y-89.77
X178.07Y-90.77
X178.07Y-91.77
X178.16Y-120.17
X178.37Y-121.495
X178.4Y-99.99
X178.7Y-106.45
X179.27Y-89.76
X179.27Y-90.76
X179.27Y-91.76
X179.49Y-84.0
X179.52Y-119.44
X180.47Y-89.78
X180.47Y-90.78
X180.47Y-91.78
X180.65Y-100.19
X180.84Y-83.94
X180.9Y-102.29
X181.25Y-115.06
X181.48Y-128.5
X181.71Y-89.8
X181.71Y-90.8
X181.71Y-91.8
X181.72Y-120.79
X181.87Y-105.26
X182.185Y-97.485
X182.2Y-84.0
X182.58Y-127.74
X183.74Y-124.46
X184.01Y-115.55
X184.35Y-106.38
X184.36Y-129.54
X184.65Y-84.85
X184.679Y-118.1
X184.69Y-119.1
X184.78Y-101.25
X184.81Y-125.92
X184.864Y-95.486
X184.921Y-102.653
X185.64Y-85.46
X185.76Y-99.61
X186.26Y-109.77
X186.41Y-92.4
X187.68Y-87.725
X187.69Y-117.14
X188.03Y-112.26
X188.07Y-129.2
X188.09Y-130.93
X188.1Y-127.94
X188.39Y-99.46
X188.47Y-84.13
X188.76Y-117.15
X188.82Y-96.39
X189.0Y-102.9
X190.05Y-119.07
X190.38Y-94.01
X190.74Y-89.12
X190.79Y-96.99
X190.81Y-83.93
X191.37Y-105.17
X191.52Y-130.19
X191.91Y-101.29
X192.48Y-124.365
X192.5Y-118.93
X192.573Y-85.595
X192.92Y-89.89
X192.96Y-103.45
X193.05Y-127.393
X193.17Y-113.24
X193.38Y-105.3
X193.464Y-83.841
X193.87Y-87.16
X193.98Y-116.52
X194.21Y-118.89
X195.1Y-116.62
X195.24Y-128.16
X196.1Y-125.26
X196.38Y-105.45
X196.728Y-111.597
X196.75Y-130.68
X196.8Y-89.45
X196.81Y-116.61
X196.94Y-110.62
X196.976Y-113.588
X197.04Y-112.59
X197.14Y-83.7
X199.52Y-84.89
X199.55Y-86.08
X200.215Y-107.0
X200.245Y-110.82
X200.31Y-115.8
X200.31Y-127.12
X200.984Y-103.573
X201.05Y-100.38
X201.13Y-130.37
X201.36Y-119.58
X201.79Y-90.17
X201.91Y-88.355
X202.275Y-87.165
X202.33Y-105.81
X202.875Y-106.703
X204.92Y-86.23
X205.842Y-129.7
X205.867Y-83.904
X205.9Y-91.97
X207.61Y-94.5
X207.65Y-93.23
X208.45Y-88.74
T2
X211.7Y-89.15
X211.7Y-91.4
T3
X206.0Y-120.32
X206.0Y-122.86
X206.0Y-125.4
T4
X202.42Y-114.24
X202.42Y-116.78
X204.96Y-114.24
X204.96Y-116.78
X207.5Y-114.24
X207.5Y-116.78
T0
M30
