%FSLAX45Y45*%
G04 Gerber Fmt 4.5, Leading zero omitted, Abs format (unit mm)*
G04 Created by KiCad (PCBNEW (5.1.10)-1) date 2021-07-14 15:22:44*
%MOMM*%
%LPD*%
G01*
G04 APERTURE LIST*
%TA.AperFunction,Profile*%
%ADD10C,0.203200*%
%TD*%
%ADD11C,0.200000*%
%ADD12C,0.300000*%
G04 APERTURE END LIST*
D10*
X15578460Y-9779300D02*
X15578460Y-11575080D01*
X12279000Y-9779300D02*
X15578460Y-9779300D01*
X12279000Y-8732820D02*
X12279000Y-9779300D01*
X20798160Y-8133380D02*
X12776840Y-8133380D01*
X21298540Y-8732820D02*
X21298540Y-8732820D01*
X12776840Y-12621560D02*
X12776840Y-13221000D01*
X15578460Y-11575080D02*
X12279000Y-11575080D01*
X12776840Y-8732820D02*
X12279000Y-8732820D01*
X12279000Y-12621560D02*
X12776840Y-12621560D01*
X21298540Y-12621560D02*
X21298540Y-8732820D01*
X20798160Y-12621560D02*
X21298540Y-12621560D01*
X20798160Y-13221000D02*
X20798160Y-12621560D01*
X12776840Y-13221000D02*
X20798160Y-13221000D01*
X20798160Y-8732820D02*
X20798160Y-8133380D01*
X21298540Y-8732820D02*
X20798160Y-8732820D01*
X12279000Y-11575080D02*
X12279000Y-12621560D01*
X12776840Y-8133380D02*
X12776840Y-8732820D01*
D11*
X13526000Y-8894000D02*
X13566000Y-8934000D01*
X13566000Y-8894000D02*
X13526000Y-8934000D01*
X13738000Y-12693000D02*
X13778000Y-12733000D01*
X13778000Y-12693000D02*
X13738000Y-12733000D01*
X13741000Y-12943000D02*
X13781000Y-12983000D01*
X13781000Y-12943000D02*
X13741000Y-12983000D01*
X13775000Y-9661000D02*
X13815000Y-9701000D01*
X13815000Y-9661000D02*
X13775000Y-9701000D01*
X13782000Y-12447000D02*
X13822000Y-12487000D01*
X13822000Y-12447000D02*
X13782000Y-12487000D01*
X13897000Y-8906000D02*
X13937000Y-8946000D01*
X13937000Y-8906000D02*
X13897000Y-8946000D01*
X14288000Y-8892000D02*
X14328000Y-8932000D01*
X14328000Y-8892000D02*
X14288000Y-8932000D01*
X14764000Y-9500000D02*
X14804000Y-9540000D01*
X14804000Y-9500000D02*
X14764000Y-9540000D01*
X15488000Y-8903000D02*
X15528000Y-8943000D01*
X15528000Y-8903000D02*
X15488000Y-8943000D01*
X15579000Y-12239000D02*
X15619000Y-12279000D01*
X15619000Y-12239000D02*
X15579000Y-12279000D01*
X15590000Y-12635000D02*
X15630000Y-12675000D01*
X15630000Y-12635000D02*
X15590000Y-12675000D01*
X15617234Y-9352766D02*
X15657234Y-9392766D01*
X15657234Y-9352766D02*
X15617234Y-9392766D01*
X15646370Y-8586370D02*
X15686370Y-8626370D01*
X15686370Y-8586370D02*
X15646370Y-8626370D01*
X15720501Y-9871000D02*
X15760501Y-9911000D01*
X15760501Y-9871000D02*
X15720501Y-9911000D01*
X15805000Y-12332000D02*
X15845000Y-12372000D01*
X15845000Y-12332000D02*
X15805000Y-12372000D01*
X15813000Y-12113000D02*
X15853000Y-12153000D01*
X15853000Y-12113000D02*
X15813000Y-12153000D01*
X15868000Y-11323000D02*
X15908000Y-11363000D01*
X15908000Y-11323000D02*
X15868000Y-11363000D01*
X15915500Y-8371500D02*
X15955500Y-8411500D01*
X15955500Y-8371500D02*
X15915500Y-8411500D01*
X15943000Y-9770000D02*
X15983000Y-9810000D01*
X15983000Y-9770000D02*
X15943000Y-9810000D01*
X15970000Y-8947000D02*
X16010000Y-8987000D01*
X16010000Y-8947000D02*
X15970000Y-8987000D01*
X15970000Y-9047000D02*
X16010000Y-9087000D01*
X16010000Y-9047000D02*
X15970000Y-9087000D01*
X15970000Y-9147000D02*
X16010000Y-9187000D01*
X16010000Y-9147000D02*
X15970000Y-9187000D01*
X16041766Y-8371766D02*
X16081766Y-8411766D01*
X16081766Y-8371766D02*
X16041766Y-8411766D01*
X16070000Y-12498000D02*
X16110000Y-12538000D01*
X16110000Y-12498000D02*
X16070000Y-12538000D01*
X16079609Y-8942609D02*
X16119609Y-8982609D01*
X16119609Y-8942609D02*
X16079609Y-8982609D01*
X16079609Y-9042609D02*
X16119609Y-9082609D01*
X16119609Y-9042609D02*
X16079609Y-9082609D01*
X16079609Y-9142609D02*
X16119609Y-9182609D01*
X16119609Y-9142609D02*
X16079609Y-9182609D01*
X16113000Y-12119000D02*
X16153000Y-12159000D01*
X16153000Y-12119000D02*
X16113000Y-12159000D01*
X16130000Y-11320000D02*
X16170000Y-11360000D01*
X16170000Y-11320000D02*
X16130000Y-11360000D01*
X16171000Y-9767000D02*
X16211000Y-9807000D01*
X16211000Y-9767000D02*
X16171000Y-9807000D01*
X16193000Y-8942000D02*
X16233000Y-8982000D01*
X16233000Y-8942000D02*
X16193000Y-8982000D01*
X16193000Y-9042000D02*
X16233000Y-9082000D01*
X16233000Y-9042000D02*
X16193000Y-9082000D01*
X16193000Y-9142000D02*
X16233000Y-9182000D01*
X16233000Y-9142000D02*
X16193000Y-9182000D01*
X16297000Y-9980000D02*
X16337000Y-10020000D01*
X16337000Y-9980000D02*
X16297000Y-10020000D01*
X16307000Y-8942000D02*
X16347000Y-8982000D01*
X16347000Y-8942000D02*
X16307000Y-8982000D01*
X16307000Y-9042000D02*
X16347000Y-9082000D01*
X16347000Y-9042000D02*
X16307000Y-9082000D01*
X16307000Y-9142000D02*
X16347000Y-9182000D01*
X16347000Y-9142000D02*
X16307000Y-9182000D01*
X16345000Y-12332000D02*
X16385000Y-12372000D01*
X16385000Y-12332000D02*
X16345000Y-12372000D01*
X16358000Y-8393000D02*
X16398000Y-8433000D01*
X16398000Y-8393000D02*
X16358000Y-8433000D01*
X16422000Y-8944000D02*
X16462000Y-8984000D01*
X16462000Y-8944000D02*
X16422000Y-8984000D01*
X16422000Y-9044000D02*
X16462000Y-9084000D01*
X16462000Y-9044000D02*
X16422000Y-9084000D01*
X16422000Y-9144000D02*
X16462000Y-9184000D01*
X16462000Y-9144000D02*
X16422000Y-9184000D01*
X16464750Y-12329750D02*
X16504750Y-12369750D01*
X16504750Y-12329750D02*
X16464750Y-12369750D01*
X16497000Y-8394000D02*
X16537000Y-8434000D01*
X16537000Y-8394000D02*
X16497000Y-8434000D01*
X16505000Y-11220000D02*
X16545000Y-11260000D01*
X16545000Y-11220000D02*
X16505000Y-11260000D01*
X16508000Y-11821000D02*
X16548000Y-11861000D01*
X16548000Y-11821000D02*
X16508000Y-11861000D01*
X16542000Y-8943000D02*
X16582000Y-8983000D01*
X16582000Y-8943000D02*
X16542000Y-8983000D01*
X16542000Y-9043000D02*
X16582000Y-9083000D01*
X16582000Y-9043000D02*
X16542000Y-9083000D01*
X16542000Y-9143000D02*
X16582000Y-9183000D01*
X16582000Y-9143000D02*
X16542000Y-9183000D01*
X16552000Y-9775000D02*
X16592000Y-9815000D01*
X16592000Y-9775000D02*
X16552000Y-9815000D01*
X16581000Y-12766000D02*
X16621000Y-12806000D01*
X16621000Y-12766000D02*
X16581000Y-12806000D01*
X16607993Y-11822176D02*
X16647993Y-11862176D01*
X16647993Y-11822176D02*
X16607993Y-11862176D01*
X16662000Y-8945000D02*
X16702000Y-8985000D01*
X16702000Y-8945000D02*
X16662000Y-8985000D01*
X16662000Y-9045000D02*
X16702000Y-9085000D01*
X16702000Y-9045000D02*
X16662000Y-9085000D01*
X16662000Y-9145000D02*
X16702000Y-9185000D01*
X16702000Y-9145000D02*
X16662000Y-9185000D01*
X16700000Y-11210000D02*
X16740000Y-11250000D01*
X16740000Y-11210000D02*
X16700000Y-11250000D01*
X16756000Y-10090000D02*
X16796000Y-10130000D01*
X16796000Y-10090000D02*
X16756000Y-10130000D01*
X16786000Y-8947000D02*
X16826000Y-8987000D01*
X16826000Y-8947000D02*
X16786000Y-8987000D01*
X16786000Y-9047000D02*
X16826000Y-9087000D01*
X16826000Y-9047000D02*
X16786000Y-9087000D01*
X16786000Y-9147000D02*
X16826000Y-9187000D01*
X16826000Y-9147000D02*
X16786000Y-9187000D01*
X16795000Y-8381000D02*
X16835000Y-8421000D01*
X16835000Y-8381000D02*
X16795000Y-8421000D01*
X16798000Y-11988000D02*
X16838000Y-12028000D01*
X16838000Y-11988000D02*
X16798000Y-12028000D01*
X16803000Y-9722000D02*
X16843000Y-9762000D01*
X16843000Y-9722000D02*
X16803000Y-9762000D01*
X16822000Y-11175000D02*
X16862000Y-11215000D01*
X16862000Y-11175000D02*
X16822000Y-11215000D01*
X16827000Y-12974000D02*
X16867000Y-13014000D01*
X16867000Y-12974000D02*
X16827000Y-13014000D01*
X16855000Y-11435000D02*
X16895000Y-11475000D01*
X16895000Y-11435000D02*
X16855000Y-11475000D01*
X16909000Y-10853000D02*
X16949000Y-10893000D01*
X16949000Y-10853000D02*
X16909000Y-10893000D01*
X16931655Y-9759501D02*
X16971655Y-9799501D01*
X16971655Y-9759501D02*
X16931655Y-9799501D01*
X17014000Y-10091000D02*
X17054000Y-10131000D01*
X17054000Y-10091000D02*
X17014000Y-10131000D01*
X17045000Y-8500000D02*
X17085000Y-8540000D01*
X17085000Y-8500000D02*
X17045000Y-8540000D01*
X17082000Y-11185000D02*
X17122000Y-11225000D01*
X17122000Y-11185000D02*
X17082000Y-11225000D01*
X17167500Y-9759501D02*
X17207500Y-9799501D01*
X17207500Y-9759501D02*
X17167500Y-9799501D01*
X17195000Y-12668000D02*
X17235000Y-12708000D01*
X17235000Y-12668000D02*
X17195000Y-12708000D01*
X17216000Y-12058000D02*
X17256000Y-12098000D01*
X17256000Y-12058000D02*
X17216000Y-12098000D01*
X17287000Y-10181000D02*
X17327000Y-10221000D01*
X17327000Y-10181000D02*
X17287000Y-10221000D01*
X17324000Y-10847000D02*
X17364000Y-10887000D01*
X17364000Y-10847000D02*
X17324000Y-10887000D01*
X17325000Y-9767000D02*
X17365000Y-9807000D01*
X17365000Y-9767000D02*
X17325000Y-9807000D01*
X17335000Y-8960000D02*
X17375000Y-9000000D01*
X17375000Y-8960000D02*
X17335000Y-9000000D01*
X17335000Y-9060000D02*
X17375000Y-9100000D01*
X17375000Y-9060000D02*
X17335000Y-9100000D01*
X17335000Y-9160000D02*
X17375000Y-9200000D01*
X17375000Y-9160000D02*
X17335000Y-9200000D01*
X17369000Y-11408000D02*
X17409000Y-11448000D01*
X17409000Y-11408000D02*
X17369000Y-11448000D01*
X17381000Y-8391000D02*
X17421000Y-8431000D01*
X17421000Y-8391000D02*
X17381000Y-8431000D01*
X17388000Y-11191000D02*
X17428000Y-11231000D01*
X17428000Y-11191000D02*
X17388000Y-11231000D01*
X17444609Y-8955609D02*
X17484609Y-8995609D01*
X17484609Y-8955609D02*
X17444609Y-8995609D01*
X17444609Y-9055609D02*
X17484609Y-9095609D01*
X17484609Y-9055609D02*
X17444609Y-9095609D01*
X17444609Y-9155609D02*
X17484609Y-9195609D01*
X17484609Y-9155609D02*
X17444609Y-9195609D01*
X17465000Y-12620000D02*
X17505000Y-12660000D01*
X17505000Y-12620000D02*
X17465000Y-12660000D01*
X17498851Y-11752095D02*
X17538851Y-11792095D01*
X17538851Y-11752095D02*
X17498851Y-11792095D01*
X17514000Y-8405000D02*
X17554000Y-8445000D01*
X17554000Y-8405000D02*
X17514000Y-8445000D01*
X17539000Y-10838000D02*
X17579000Y-10878000D01*
X17579000Y-10838000D02*
X17539000Y-10878000D01*
X17558000Y-8955000D02*
X17598000Y-8995000D01*
X17598000Y-8955000D02*
X17558000Y-8995000D01*
X17558000Y-9055000D02*
X17598000Y-9095000D01*
X17598000Y-9055000D02*
X17558000Y-9095000D01*
X17558000Y-9155000D02*
X17598000Y-9195000D01*
X17598000Y-9155000D02*
X17558000Y-9195000D01*
X17559000Y-12067000D02*
X17599000Y-12107000D01*
X17599000Y-12067000D02*
X17559000Y-12107000D01*
X17571000Y-11356000D02*
X17611000Y-11396000D01*
X17611000Y-11356000D02*
X17571000Y-11396000D01*
X17583000Y-12215001D02*
X17623000Y-12255001D01*
X17623000Y-12215001D02*
X17583000Y-12255001D01*
X17651266Y-10583734D02*
X17691266Y-10623734D01*
X17691266Y-10583734D02*
X17651266Y-10623734D01*
X17662000Y-9980000D02*
X17702000Y-10020000D01*
X17702000Y-9980000D02*
X17662000Y-10020000D01*
X17672000Y-8955000D02*
X17712000Y-8995000D01*
X17712000Y-8955000D02*
X17672000Y-8995000D01*
X17672000Y-9055000D02*
X17712000Y-9095000D01*
X17712000Y-9055000D02*
X17672000Y-9095000D01*
X17672000Y-9155000D02*
X17712000Y-9195000D01*
X17712000Y-9155000D02*
X17672000Y-9195000D01*
X17672000Y-10707000D02*
X17712000Y-10747000D01*
X17712000Y-10707000D02*
X17672000Y-10747000D01*
X17751242Y-10249212D02*
X17791242Y-10289212D01*
X17791242Y-10249212D02*
X17751242Y-10289212D01*
X17755000Y-11792000D02*
X17795000Y-11832000D01*
X17795000Y-11792000D02*
X17755000Y-11832000D01*
X17756000Y-8432000D02*
X17796000Y-8472000D01*
X17796000Y-8432000D02*
X17756000Y-8472000D01*
X17787000Y-8957000D02*
X17827000Y-8997000D01*
X17827000Y-8957000D02*
X17787000Y-8997000D01*
X17787000Y-9057000D02*
X17827000Y-9097000D01*
X17827000Y-9057000D02*
X17787000Y-9097000D01*
X17787000Y-9157000D02*
X17827000Y-9197000D01*
X17827000Y-9157000D02*
X17787000Y-9197000D01*
X17796000Y-11997000D02*
X17836000Y-12037000D01*
X17836000Y-11997000D02*
X17796000Y-12037000D01*
X17817000Y-12129500D02*
X17857000Y-12169500D01*
X17857000Y-12129500D02*
X17817000Y-12169500D01*
X17820000Y-9979000D02*
X17860000Y-10019000D01*
X17860000Y-9979000D02*
X17820000Y-10019000D01*
X17850000Y-10625000D02*
X17890000Y-10665000D01*
X17890000Y-10625000D02*
X17850000Y-10665000D01*
X17907000Y-8956000D02*
X17947000Y-8996000D01*
X17947000Y-8956000D02*
X17907000Y-8996000D01*
X17907000Y-9056000D02*
X17947000Y-9096000D01*
X17947000Y-9056000D02*
X17907000Y-9096000D01*
X17907000Y-9156000D02*
X17947000Y-9196000D01*
X17947000Y-9156000D02*
X17907000Y-9196000D01*
X17929000Y-8380000D02*
X17969000Y-8420000D01*
X17969000Y-8380000D02*
X17929000Y-8420000D01*
X17932000Y-11924000D02*
X17972000Y-11964000D01*
X17972000Y-11924000D02*
X17932000Y-11964000D01*
X18027000Y-8958000D02*
X18067000Y-8998000D01*
X18067000Y-8958000D02*
X18027000Y-8998000D01*
X18027000Y-9058000D02*
X18067000Y-9098000D01*
X18067000Y-9058000D02*
X18027000Y-9098000D01*
X18027000Y-9158000D02*
X18067000Y-9198000D01*
X18067000Y-9158000D02*
X18027000Y-9198000D01*
X18045000Y-9999000D02*
X18085000Y-10039000D01*
X18085000Y-9999000D02*
X18045000Y-10039000D01*
X18064000Y-8374000D02*
X18104000Y-8414000D01*
X18104000Y-8374000D02*
X18064000Y-8414000D01*
X18070000Y-10209000D02*
X18110000Y-10249000D01*
X18110000Y-10209000D02*
X18070000Y-10249000D01*
X18105000Y-11486000D02*
X18145000Y-11526000D01*
X18145000Y-11486000D02*
X18105000Y-11526000D01*
X18128000Y-12830000D02*
X18168000Y-12870000D01*
X18168000Y-12830000D02*
X18128000Y-12870000D01*
X18151000Y-8960000D02*
X18191000Y-9000000D01*
X18191000Y-8960000D02*
X18151000Y-9000000D01*
X18151000Y-9060000D02*
X18191000Y-9100000D01*
X18191000Y-9060000D02*
X18151000Y-9100000D01*
X18151000Y-9160000D02*
X18191000Y-9200000D01*
X18191000Y-9160000D02*
X18151000Y-9200000D01*
X18152000Y-12059000D02*
X18192000Y-12099000D01*
X18192000Y-12059000D02*
X18152000Y-12099000D01*
X18167000Y-10506000D02*
X18207000Y-10546000D01*
X18207000Y-10506000D02*
X18167000Y-10546000D01*
X18198485Y-9728515D02*
X18238485Y-9768515D01*
X18238485Y-9728515D02*
X18198485Y-9768515D01*
X18200000Y-8380000D02*
X18240000Y-8420000D01*
X18240000Y-8380000D02*
X18200000Y-8420000D01*
X18238000Y-12754000D02*
X18278000Y-12794000D01*
X18278000Y-12754000D02*
X18238000Y-12794000D01*
X18354000Y-12426000D02*
X18394000Y-12466000D01*
X18394000Y-12426000D02*
X18354000Y-12466000D01*
X18376000Y-10028000D02*
X18416000Y-10068000D01*
X18416000Y-10028000D02*
X18376000Y-10068000D01*
X18381000Y-10156000D02*
X18421000Y-10196000D01*
X18421000Y-10156000D02*
X18381000Y-10196000D01*
X18381000Y-11535000D02*
X18421000Y-11575000D01*
X18421000Y-11535000D02*
X18381000Y-11575000D01*
X18415000Y-10618000D02*
X18455000Y-10658000D01*
X18455000Y-10618000D02*
X18415000Y-10658000D01*
X18416000Y-12934000D02*
X18456000Y-12974000D01*
X18456000Y-12934000D02*
X18416000Y-12974000D01*
X18445000Y-8465000D02*
X18485000Y-8505000D01*
X18485000Y-8465000D02*
X18445000Y-8505000D01*
X18447948Y-11790005D02*
X18487948Y-11830005D01*
X18487948Y-11790005D02*
X18447948Y-11830005D01*
X18449000Y-11890000D02*
X18489000Y-11930000D01*
X18489000Y-11890000D02*
X18449000Y-11930000D01*
X18461000Y-11036000D02*
X18501000Y-11076000D01*
X18501000Y-11036000D02*
X18461000Y-11076000D01*
X18461000Y-12572000D02*
X18501000Y-12612000D01*
X18501000Y-12572000D02*
X18461000Y-12612000D01*
X18466370Y-9528630D02*
X18506370Y-9568630D01*
X18506370Y-9528630D02*
X18466370Y-9568630D01*
X18544000Y-8526000D02*
X18584000Y-8566000D01*
X18584000Y-8526000D02*
X18544000Y-8566000D01*
X18556000Y-9941000D02*
X18596000Y-9981000D01*
X18596000Y-9941000D02*
X18556000Y-9981000D01*
X18621000Y-9220000D02*
X18661000Y-9260000D01*
X18661000Y-9220000D02*
X18621000Y-9260000D01*
X18748000Y-8752500D02*
X18788000Y-8792500D01*
X18788000Y-8752500D02*
X18748000Y-8792500D01*
X18749000Y-11694000D02*
X18789000Y-11734000D01*
X18789000Y-11694000D02*
X18749000Y-11734000D01*
X18783000Y-11206000D02*
X18823000Y-11246000D01*
X18823000Y-11206000D02*
X18783000Y-11246000D01*
X18787000Y-12900000D02*
X18827000Y-12940000D01*
X18827000Y-12900000D02*
X18787000Y-12940000D01*
X18789000Y-13073000D02*
X18829000Y-13113000D01*
X18829000Y-13073000D02*
X18789000Y-13113000D01*
X18790000Y-12774000D02*
X18830000Y-12814000D01*
X18830000Y-12774000D02*
X18790000Y-12814000D01*
X18819000Y-9926000D02*
X18859000Y-9966000D01*
X18859000Y-9926000D02*
X18819000Y-9966000D01*
X18827000Y-8393000D02*
X18867000Y-8433000D01*
X18867000Y-8393000D02*
X18827000Y-8433000D01*
X18856000Y-11695000D02*
X18896000Y-11735000D01*
X18896000Y-11695000D02*
X18856000Y-11735000D01*
X18862000Y-9619000D02*
X18902000Y-9659000D01*
X18902000Y-9619000D02*
X18862000Y-9659000D01*
X18880000Y-10270000D02*
X18920000Y-10310000D01*
X18920000Y-10270000D02*
X18880000Y-10310000D01*
X18985000Y-11887000D02*
X19025000Y-11927000D01*
X19025000Y-11887000D02*
X18985000Y-11927000D01*
X19018000Y-9381000D02*
X19058000Y-9421000D01*
X19058000Y-9381000D02*
X19018000Y-9421000D01*
X19054000Y-8892000D02*
X19094000Y-8932000D01*
X19094000Y-8892000D02*
X19054000Y-8932000D01*
X19059000Y-9679000D02*
X19099000Y-9719000D01*
X19099000Y-9679000D02*
X19059000Y-9719000D01*
X19061000Y-8373000D02*
X19101000Y-8413000D01*
X19101000Y-8373000D02*
X19061000Y-8413000D01*
X19117000Y-10497000D02*
X19157000Y-10537000D01*
X19157000Y-10497000D02*
X19117000Y-10537000D01*
X19132000Y-12999000D02*
X19172000Y-13039000D01*
X19172000Y-12999000D02*
X19132000Y-13039000D01*
X19171000Y-10109000D02*
X19211000Y-10149000D01*
X19211000Y-10109000D02*
X19171000Y-10149000D01*
X19181000Y-8970000D02*
X19221000Y-9010000D01*
X19221000Y-8970000D02*
X19181000Y-9010000D01*
X19228000Y-12416500D02*
X19268000Y-12456500D01*
X19268000Y-12416500D02*
X19228000Y-12456500D01*
X19230000Y-11873000D02*
X19270000Y-11913000D01*
X19270000Y-11873000D02*
X19230000Y-11913000D01*
X19237336Y-8539501D02*
X19277336Y-8579501D01*
X19277336Y-8539501D02*
X19237336Y-8579501D01*
X19276000Y-10325000D02*
X19316000Y-10365000D01*
X19316000Y-10325000D02*
X19276000Y-10365000D01*
X19285015Y-12719252D02*
X19325015Y-12759252D01*
X19325015Y-12719252D02*
X19285015Y-12759252D01*
X19297000Y-11304000D02*
X19337000Y-11344000D01*
X19337000Y-11304000D02*
X19297000Y-11344000D01*
X19318000Y-10510000D02*
X19358000Y-10550000D01*
X19358000Y-10510000D02*
X19318000Y-10550000D01*
X19326402Y-8364083D02*
X19366402Y-8404083D01*
X19366402Y-8364083D02*
X19326402Y-8404083D01*
X19367000Y-8696000D02*
X19407000Y-8736000D01*
X19407000Y-8696000D02*
X19367000Y-8736000D01*
X19378000Y-11632000D02*
X19418000Y-11672000D01*
X19418000Y-11632000D02*
X19378000Y-11672000D01*
X19401000Y-11869000D02*
X19441000Y-11909000D01*
X19441000Y-11869000D02*
X19401000Y-11909000D01*
X19490000Y-11642000D02*
X19530000Y-11682000D01*
X19530000Y-11642000D02*
X19490000Y-11682000D01*
X19504000Y-12796000D02*
X19544000Y-12836000D01*
X19544000Y-12796000D02*
X19504000Y-12836000D01*
X19590000Y-12506000D02*
X19630000Y-12546000D01*
X19630000Y-12506000D02*
X19590000Y-12546000D01*
X19618000Y-10525000D02*
X19658000Y-10565000D01*
X19658000Y-10525000D02*
X19618000Y-10565000D01*
X19652805Y-11139728D02*
X19692805Y-11179728D01*
X19692805Y-11139728D02*
X19652805Y-11179728D01*
X19655000Y-13048000D02*
X19695000Y-13088000D01*
X19695000Y-13048000D02*
X19655000Y-13088000D01*
X19660000Y-8925000D02*
X19700000Y-8965000D01*
X19700000Y-8925000D02*
X19660000Y-8965000D01*
X19661000Y-11641000D02*
X19701000Y-11681000D01*
X19701000Y-11641000D02*
X19661000Y-11681000D01*
X19674000Y-11042000D02*
X19714000Y-11082000D01*
X19714000Y-11042000D02*
X19674000Y-11082000D01*
X19677630Y-11338797D02*
X19717630Y-11378797D01*
X19717630Y-11338797D02*
X19677630Y-11378797D01*
X19684000Y-11239000D02*
X19724000Y-11279000D01*
X19724000Y-11239000D02*
X19684000Y-11279000D01*
X19694000Y-8350000D02*
X19734000Y-8390000D01*
X19734000Y-8350000D02*
X19694000Y-8390000D01*
X19932000Y-8469000D02*
X19972000Y-8509000D01*
X19972000Y-8469000D02*
X19932000Y-8509000D01*
X19935000Y-8588000D02*
X19975000Y-8628000D01*
X19975000Y-8588000D02*
X19935000Y-8628000D01*
X20001499Y-10680000D02*
X20041499Y-10720000D01*
X20041499Y-10680000D02*
X20001499Y-10720000D01*
X20004001Y-11643000D02*
X20044001Y-11683000D01*
X20044001Y-11643000D02*
X20004001Y-11683000D01*
X20004500Y-11062015D02*
X20044500Y-11102015D01*
X20044500Y-11062015D02*
X20004500Y-11102015D01*
X20011000Y-12692000D02*
X20051000Y-12732000D01*
X20051000Y-12692000D02*
X20011000Y-12732000D01*
X20078403Y-10337306D02*
X20118403Y-10377306D01*
X20118403Y-10337306D02*
X20078403Y-10377306D01*
X20085000Y-10018000D02*
X20125000Y-10058000D01*
X20125000Y-10018000D02*
X20085000Y-10058000D01*
X20093000Y-13017000D02*
X20133000Y-13057000D01*
X20133000Y-13017000D02*
X20093000Y-13057000D01*
X20159000Y-8997000D02*
X20199000Y-9037000D01*
X20199000Y-8997000D02*
X20159000Y-9037000D01*
X20171001Y-8815499D02*
X20211001Y-8855499D01*
X20211001Y-8815499D02*
X20171001Y-8855499D01*
X20184000Y-10716000D02*
X20224000Y-10756000D01*
X20224000Y-10716000D02*
X20184000Y-10756000D01*
X20185513Y-10559204D02*
X20225513Y-10599204D01*
X20225513Y-10559204D02*
X20185513Y-10599204D01*
X20207500Y-8696500D02*
X20247500Y-8736500D01*
X20247500Y-8696500D02*
X20207500Y-8736500D01*
X20570000Y-9177000D02*
X20610000Y-9217000D01*
X20610000Y-9177000D02*
X20570000Y-9217000D01*
X20741000Y-9430000D02*
X20781000Y-9470000D01*
X20781000Y-9430000D02*
X20741000Y-9470000D01*
X20745000Y-9303000D02*
X20785000Y-9343000D01*
X20785000Y-9303000D02*
X20745000Y-9343000D01*
X20825000Y-8854000D02*
X20865000Y-8894000D01*
X20865000Y-8854000D02*
X20825000Y-8894000D01*
X21215000Y-8915000D02*
G75*
G03*
X21215000Y-8915000I-45000J0D01*
G01*
X21215000Y-9140000D02*
G75*
G03*
X21215000Y-9140000I-45000J0D01*
G01*
X20600000Y-11981200D02*
X20600000Y-12082800D01*
X20549200Y-12032000D02*
X20650800Y-12032000D01*
X20600000Y-12235200D02*
X20600000Y-12336800D01*
X20549200Y-12286000D02*
X20650800Y-12286000D01*
X20600000Y-12489200D02*
X20600000Y-12590800D01*
X20549200Y-12540000D02*
X20650800Y-12540000D01*
X20280891Y-11462891D02*
X20280891Y-11385109D01*
X20203109Y-11385109D01*
X20203109Y-11462891D01*
X20280891Y-11462891D01*
X20280891Y-11716891D02*
X20280891Y-11639109D01*
X20203109Y-11639109D01*
X20203109Y-11716891D01*
X20280891Y-11716891D01*
X20534891Y-11462891D02*
X20534891Y-11385109D01*
X20457109Y-11385109D01*
X20457109Y-11462891D01*
X20534891Y-11462891D01*
X20534891Y-11716891D02*
X20534891Y-11639109D01*
X20457109Y-11639109D01*
X20457109Y-11716891D01*
X20534891Y-11716891D01*
X20788891Y-11462891D02*
X20788891Y-11385109D01*
X20711109Y-11385109D01*
X20711109Y-11462891D01*
X20788891Y-11462891D01*
X20788891Y-11716891D02*
X20788891Y-11639109D01*
X20711109Y-11639109D01*
X20711109Y-11716891D01*
X20788891Y-11716891D01*
X12626340Y-9457560D02*
X12761340Y-9322560D01*
X12626340Y-9187560D01*
X12491340Y-9322560D01*
X12626340Y-9457560D01*
X12626340Y-12251560D02*
X12761340Y-12116560D01*
X12626340Y-11981560D01*
X12491340Y-12116560D01*
X12626340Y-12251560D01*
X13083000Y-8528000D02*
X13218000Y-8393000D01*
X13083000Y-8258000D01*
X12948000Y-8393000D01*
X13083000Y-8528000D01*
X13083540Y-13102460D02*
X13218540Y-12967460D01*
X13083540Y-12832460D01*
X12948540Y-12967460D01*
X13083540Y-13102460D01*
X15229840Y-12261720D02*
X15364840Y-12126720D01*
X15229840Y-11991720D01*
X15094840Y-12126720D01*
X15229840Y-12261720D01*
X15237460Y-9455020D02*
X15372460Y-9320020D01*
X15237460Y-9185020D01*
X15102460Y-9320020D01*
X15237460Y-9455020D01*
X20584160Y-13105000D02*
X20719160Y-12970000D01*
X20584160Y-12835000D01*
X20449160Y-12970000D01*
X20584160Y-13105000D01*
X20586700Y-8525380D02*
X20721700Y-8390380D01*
X20586700Y-8255380D01*
X20451700Y-8390380D01*
X20586700Y-8525380D01*
D12*
X12555268Y-13696874D02*
X12555268Y-13396874D01*
X12626697Y-13396874D01*
X12669554Y-13411160D01*
X12698126Y-13439731D01*
X12712411Y-13468303D01*
X12726697Y-13525446D01*
X12726697Y-13568303D01*
X12712411Y-13625446D01*
X12698126Y-13654017D01*
X12669554Y-13682589D01*
X12626697Y-13696874D01*
X12555268Y-13696874D01*
X12855268Y-13696874D02*
X12855268Y-13496874D01*
X12855268Y-13554017D02*
X12869554Y-13525446D01*
X12883840Y-13511160D01*
X12912411Y-13496874D01*
X12940983Y-13496874D01*
X13040983Y-13696874D02*
X13040983Y-13496874D01*
X13040983Y-13396874D02*
X13026697Y-13411160D01*
X13040983Y-13425446D01*
X13055268Y-13411160D01*
X13040983Y-13396874D01*
X13040983Y-13425446D01*
X13226697Y-13696874D02*
X13198126Y-13682589D01*
X13183840Y-13654017D01*
X13183840Y-13396874D01*
X13383840Y-13696874D02*
X13355268Y-13682589D01*
X13340983Y-13654017D01*
X13340983Y-13396874D01*
X13726697Y-13696874D02*
X13726697Y-13396874D01*
X13826697Y-13611160D01*
X13926697Y-13396874D01*
X13926697Y-13696874D01*
X14198126Y-13696874D02*
X14198126Y-13539731D01*
X14183840Y-13511160D01*
X14155268Y-13496874D01*
X14098126Y-13496874D01*
X14069554Y-13511160D01*
X14198126Y-13682589D02*
X14169554Y-13696874D01*
X14098126Y-13696874D01*
X14069554Y-13682589D01*
X14055268Y-13654017D01*
X14055268Y-13625446D01*
X14069554Y-13596874D01*
X14098126Y-13582589D01*
X14169554Y-13582589D01*
X14198126Y-13568303D01*
X14340983Y-13496874D02*
X14340983Y-13796874D01*
X14340983Y-13511160D02*
X14369554Y-13496874D01*
X14426697Y-13496874D01*
X14455268Y-13511160D01*
X14469554Y-13525446D01*
X14483840Y-13554017D01*
X14483840Y-13639731D01*
X14469554Y-13668303D01*
X14455268Y-13682589D01*
X14426697Y-13696874D01*
X14369554Y-13696874D01*
X14340983Y-13682589D01*
X14612411Y-13668303D02*
X14626697Y-13682589D01*
X14612411Y-13696874D01*
X14598126Y-13682589D01*
X14612411Y-13668303D01*
X14612411Y-13696874D01*
X14612411Y-13511160D02*
X14626697Y-13525446D01*
X14612411Y-13539731D01*
X14598126Y-13525446D01*
X14612411Y-13511160D01*
X14612411Y-13539731D01*
X12228840Y-14171160D02*
X12268840Y-14211160D01*
X12268840Y-14171160D02*
X12228840Y-14211160D01*
X12612411Y-14026874D02*
X12640983Y-14026874D01*
X12669554Y-14041160D01*
X12683840Y-14055446D01*
X12698126Y-14084017D01*
X12712411Y-14141160D01*
X12712411Y-14212589D01*
X12698126Y-14269731D01*
X12683840Y-14298303D01*
X12669554Y-14312589D01*
X12640983Y-14326874D01*
X12612411Y-14326874D01*
X12583840Y-14312589D01*
X12569554Y-14298303D01*
X12555268Y-14269731D01*
X12540983Y-14212589D01*
X12540983Y-14141160D01*
X12555268Y-14084017D01*
X12569554Y-14055446D01*
X12583840Y-14041160D01*
X12612411Y-14026874D01*
X12840983Y-14298303D02*
X12855268Y-14312589D01*
X12840983Y-14326874D01*
X12826697Y-14312589D01*
X12840983Y-14298303D01*
X12840983Y-14326874D01*
X13112411Y-14126874D02*
X13112411Y-14326874D01*
X13040983Y-14012589D02*
X12969554Y-14226874D01*
X13155268Y-14226874D01*
X13326697Y-14026874D02*
X13355268Y-14026874D01*
X13383840Y-14041160D01*
X13398126Y-14055446D01*
X13412411Y-14084017D01*
X13426697Y-14141160D01*
X13426697Y-14212589D01*
X13412411Y-14269731D01*
X13398126Y-14298303D01*
X13383840Y-14312589D01*
X13355268Y-14326874D01*
X13326697Y-14326874D01*
X13298126Y-14312589D01*
X13283840Y-14298303D01*
X13269554Y-14269731D01*
X13255268Y-14212589D01*
X13255268Y-14141160D01*
X13269554Y-14084017D01*
X13283840Y-14055446D01*
X13298126Y-14041160D01*
X13326697Y-14026874D01*
X13612411Y-14026874D02*
X13640983Y-14026874D01*
X13669554Y-14041160D01*
X13683840Y-14055446D01*
X13698126Y-14084017D01*
X13712411Y-14141160D01*
X13712411Y-14212589D01*
X13698126Y-14269731D01*
X13683840Y-14298303D01*
X13669554Y-14312589D01*
X13640983Y-14326874D01*
X13612411Y-14326874D01*
X13583840Y-14312589D01*
X13569554Y-14298303D01*
X13555268Y-14269731D01*
X13540983Y-14212589D01*
X13540983Y-14141160D01*
X13555268Y-14084017D01*
X13569554Y-14055446D01*
X13583840Y-14041160D01*
X13612411Y-14026874D01*
X13840983Y-14326874D02*
X13840983Y-14126874D01*
X13840983Y-14155446D02*
X13855268Y-14141160D01*
X13883840Y-14126874D01*
X13926697Y-14126874D01*
X13955268Y-14141160D01*
X13969554Y-14169731D01*
X13969554Y-14326874D01*
X13969554Y-14169731D02*
X13983840Y-14141160D01*
X14012411Y-14126874D01*
X14055268Y-14126874D01*
X14083840Y-14141160D01*
X14098126Y-14169731D01*
X14098126Y-14326874D01*
X14240983Y-14326874D02*
X14240983Y-14126874D01*
X14240983Y-14155446D02*
X14255268Y-14141160D01*
X14283840Y-14126874D01*
X14326697Y-14126874D01*
X14355268Y-14141160D01*
X14369554Y-14169731D01*
X14369554Y-14326874D01*
X14369554Y-14169731D02*
X14383840Y-14141160D01*
X14412411Y-14126874D01*
X14455268Y-14126874D01*
X14483840Y-14141160D01*
X14498126Y-14169731D01*
X14498126Y-14326874D01*
X15083840Y-14012589D02*
X14826697Y-14398303D01*
X15469554Y-14026874D02*
X15498126Y-14026874D01*
X15526697Y-14041160D01*
X15540983Y-14055446D01*
X15555268Y-14084017D01*
X15569554Y-14141160D01*
X15569554Y-14212589D01*
X15555268Y-14269731D01*
X15540983Y-14298303D01*
X15526697Y-14312589D01*
X15498126Y-14326874D01*
X15469554Y-14326874D01*
X15440983Y-14312589D01*
X15426697Y-14298303D01*
X15412411Y-14269731D01*
X15398126Y-14212589D01*
X15398126Y-14141160D01*
X15412411Y-14084017D01*
X15426697Y-14055446D01*
X15440983Y-14041160D01*
X15469554Y-14026874D01*
X15698126Y-14298303D02*
X15712411Y-14312589D01*
X15698126Y-14326874D01*
X15683840Y-14312589D01*
X15698126Y-14298303D01*
X15698126Y-14326874D01*
X15898126Y-14026874D02*
X15926697Y-14026874D01*
X15955268Y-14041160D01*
X15969554Y-14055446D01*
X15983840Y-14084017D01*
X15998126Y-14141160D01*
X15998126Y-14212589D01*
X15983840Y-14269731D01*
X15969554Y-14298303D01*
X15955268Y-14312589D01*
X15926697Y-14326874D01*
X15898126Y-14326874D01*
X15869554Y-14312589D01*
X15855268Y-14298303D01*
X15840983Y-14269731D01*
X15826697Y-14212589D01*
X15826697Y-14141160D01*
X15840983Y-14084017D01*
X15855268Y-14055446D01*
X15869554Y-14041160D01*
X15898126Y-14026874D01*
X16283840Y-14326874D02*
X16112411Y-14326874D01*
X16198126Y-14326874D02*
X16198126Y-14026874D01*
X16169554Y-14069731D01*
X16140983Y-14098303D01*
X16112411Y-14112589D01*
X16555268Y-14026874D02*
X16412411Y-14026874D01*
X16398126Y-14169731D01*
X16412411Y-14155446D01*
X16440983Y-14141160D01*
X16512411Y-14141160D01*
X16540983Y-14155446D01*
X16555268Y-14169731D01*
X16569554Y-14198303D01*
X16569554Y-14269731D01*
X16555268Y-14298303D01*
X16540983Y-14312589D01*
X16512411Y-14326874D01*
X16440983Y-14326874D01*
X16412411Y-14312589D01*
X16398126Y-14298303D01*
X16669554Y-14026874D02*
X16869554Y-14026874D01*
X16740983Y-14326874D01*
X16969554Y-14026874D02*
X16969554Y-14084017D01*
X17083840Y-14026874D02*
X17083840Y-14084017D01*
X17526697Y-14441160D02*
X17512411Y-14426874D01*
X17483840Y-14384017D01*
X17469554Y-14355446D01*
X17455268Y-14312589D01*
X17440983Y-14241160D01*
X17440983Y-14184017D01*
X17455268Y-14112589D01*
X17469554Y-14069731D01*
X17483840Y-14041160D01*
X17512411Y-13998303D01*
X17526697Y-13984017D01*
X17626697Y-14055446D02*
X17640983Y-14041160D01*
X17669554Y-14026874D01*
X17740983Y-14026874D01*
X17769554Y-14041160D01*
X17783840Y-14055446D01*
X17798126Y-14084017D01*
X17798126Y-14112589D01*
X17783840Y-14155446D01*
X17612411Y-14326874D01*
X17798126Y-14326874D01*
X17983840Y-14026874D02*
X18012411Y-14026874D01*
X18040983Y-14041160D01*
X18055268Y-14055446D01*
X18069554Y-14084017D01*
X18083840Y-14141160D01*
X18083840Y-14212589D01*
X18069554Y-14269731D01*
X18055268Y-14298303D01*
X18040983Y-14312589D01*
X18012411Y-14326874D01*
X17983840Y-14326874D01*
X17955268Y-14312589D01*
X17940983Y-14298303D01*
X17926697Y-14269731D01*
X17912411Y-14212589D01*
X17912411Y-14141160D01*
X17926697Y-14084017D01*
X17940983Y-14055446D01*
X17955268Y-14041160D01*
X17983840Y-14026874D01*
X18226697Y-14326874D02*
X18283840Y-14326874D01*
X18312411Y-14312589D01*
X18326697Y-14298303D01*
X18355268Y-14255446D01*
X18369554Y-14198303D01*
X18369554Y-14084017D01*
X18355268Y-14055446D01*
X18340983Y-14041160D01*
X18312411Y-14026874D01*
X18255268Y-14026874D01*
X18226697Y-14041160D01*
X18212411Y-14055446D01*
X18198126Y-14084017D01*
X18198126Y-14155446D01*
X18212411Y-14184017D01*
X18226697Y-14198303D01*
X18255268Y-14212589D01*
X18312411Y-14212589D01*
X18340983Y-14198303D01*
X18355268Y-14184017D01*
X18369554Y-14155446D01*
X18726697Y-14326874D02*
X18726697Y-14026874D01*
X18855268Y-14326874D02*
X18855268Y-14169731D01*
X18840983Y-14141160D01*
X18812411Y-14126874D01*
X18769554Y-14126874D01*
X18740983Y-14141160D01*
X18726697Y-14155446D01*
X19040983Y-14326874D02*
X19012411Y-14312589D01*
X18998126Y-14298303D01*
X18983840Y-14269731D01*
X18983840Y-14184017D01*
X18998126Y-14155446D01*
X19012411Y-14141160D01*
X19040983Y-14126874D01*
X19083840Y-14126874D01*
X19112411Y-14141160D01*
X19126697Y-14155446D01*
X19140983Y-14184017D01*
X19140983Y-14269731D01*
X19126697Y-14298303D01*
X19112411Y-14312589D01*
X19083840Y-14326874D01*
X19040983Y-14326874D01*
X19312411Y-14326874D02*
X19283840Y-14312589D01*
X19269554Y-14284017D01*
X19269554Y-14026874D01*
X19540983Y-14312589D02*
X19512411Y-14326874D01*
X19455268Y-14326874D01*
X19426697Y-14312589D01*
X19412411Y-14284017D01*
X19412411Y-14169731D01*
X19426697Y-14141160D01*
X19455268Y-14126874D01*
X19512411Y-14126874D01*
X19540983Y-14141160D01*
X19555268Y-14169731D01*
X19555268Y-14198303D01*
X19412411Y-14226874D01*
X19669554Y-14312589D02*
X19698126Y-14326874D01*
X19755268Y-14326874D01*
X19783840Y-14312589D01*
X19798126Y-14284017D01*
X19798126Y-14269731D01*
X19783840Y-14241160D01*
X19755268Y-14226874D01*
X19712411Y-14226874D01*
X19683840Y-14212589D01*
X19669554Y-14184017D01*
X19669554Y-14169731D01*
X19683840Y-14141160D01*
X19712411Y-14126874D01*
X19755268Y-14126874D01*
X19783840Y-14141160D01*
X19898126Y-14441160D02*
X19912411Y-14426874D01*
X19940983Y-14384017D01*
X19955268Y-14355446D01*
X19969554Y-14312589D01*
X19983840Y-14241160D01*
X19983840Y-14184017D01*
X19969554Y-14112589D01*
X19955268Y-14069731D01*
X19940983Y-14041160D01*
X19912411Y-13998303D01*
X19898126Y-13984017D01*
X12268840Y-14587160D02*
G75*
G03*
X12268840Y-14587160I-45000J0D01*
G01*
X12612411Y-14422874D02*
X12640983Y-14422874D01*
X12669554Y-14437160D01*
X12683840Y-14451446D01*
X12698126Y-14480017D01*
X12712411Y-14537160D01*
X12712411Y-14608589D01*
X12698126Y-14665731D01*
X12683840Y-14694303D01*
X12669554Y-14708589D01*
X12640983Y-14722874D01*
X12612411Y-14722874D01*
X12583840Y-14708589D01*
X12569554Y-14694303D01*
X12555268Y-14665731D01*
X12540983Y-14608589D01*
X12540983Y-14537160D01*
X12555268Y-14480017D01*
X12569554Y-14451446D01*
X12583840Y-14437160D01*
X12612411Y-14422874D01*
X12840983Y-14694303D02*
X12855268Y-14708589D01*
X12840983Y-14722874D01*
X12826697Y-14708589D01*
X12840983Y-14694303D01*
X12840983Y-14722874D01*
X12998126Y-14722874D02*
X13055268Y-14722874D01*
X13083840Y-14708589D01*
X13098126Y-14694303D01*
X13126697Y-14651446D01*
X13140983Y-14594303D01*
X13140983Y-14480017D01*
X13126697Y-14451446D01*
X13112411Y-14437160D01*
X13083840Y-14422874D01*
X13026697Y-14422874D01*
X12998126Y-14437160D01*
X12983840Y-14451446D01*
X12969554Y-14480017D01*
X12969554Y-14551446D01*
X12983840Y-14580017D01*
X12998126Y-14594303D01*
X13026697Y-14608589D01*
X13083840Y-14608589D01*
X13112411Y-14594303D01*
X13126697Y-14580017D01*
X13140983Y-14551446D01*
X13326697Y-14422874D02*
X13355268Y-14422874D01*
X13383840Y-14437160D01*
X13398126Y-14451446D01*
X13412411Y-14480017D01*
X13426697Y-14537160D01*
X13426697Y-14608589D01*
X13412411Y-14665731D01*
X13398126Y-14694303D01*
X13383840Y-14708589D01*
X13355268Y-14722874D01*
X13326697Y-14722874D01*
X13298126Y-14708589D01*
X13283840Y-14694303D01*
X13269554Y-14665731D01*
X13255268Y-14608589D01*
X13255268Y-14537160D01*
X13269554Y-14480017D01*
X13283840Y-14451446D01*
X13298126Y-14437160D01*
X13326697Y-14422874D01*
X13612411Y-14422874D02*
X13640983Y-14422874D01*
X13669554Y-14437160D01*
X13683840Y-14451446D01*
X13698126Y-14480017D01*
X13712411Y-14537160D01*
X13712411Y-14608589D01*
X13698126Y-14665731D01*
X13683840Y-14694303D01*
X13669554Y-14708589D01*
X13640983Y-14722874D01*
X13612411Y-14722874D01*
X13583840Y-14708589D01*
X13569554Y-14694303D01*
X13555268Y-14665731D01*
X13540983Y-14608589D01*
X13540983Y-14537160D01*
X13555268Y-14480017D01*
X13569554Y-14451446D01*
X13583840Y-14437160D01*
X13612411Y-14422874D01*
X13840983Y-14722874D02*
X13840983Y-14522874D01*
X13840983Y-14551446D02*
X13855268Y-14537160D01*
X13883840Y-14522874D01*
X13926697Y-14522874D01*
X13955268Y-14537160D01*
X13969554Y-14565731D01*
X13969554Y-14722874D01*
X13969554Y-14565731D02*
X13983840Y-14537160D01*
X14012411Y-14522874D01*
X14055268Y-14522874D01*
X14083840Y-14537160D01*
X14098126Y-14565731D01*
X14098126Y-14722874D01*
X14240983Y-14722874D02*
X14240983Y-14522874D01*
X14240983Y-14551446D02*
X14255268Y-14537160D01*
X14283840Y-14522874D01*
X14326697Y-14522874D01*
X14355268Y-14537160D01*
X14369554Y-14565731D01*
X14369554Y-14722874D01*
X14369554Y-14565731D02*
X14383840Y-14537160D01*
X14412411Y-14522874D01*
X14455268Y-14522874D01*
X14483840Y-14537160D01*
X14498126Y-14565731D01*
X14498126Y-14722874D01*
X15083840Y-14408589D02*
X14826697Y-14794303D01*
X15469554Y-14422874D02*
X15498126Y-14422874D01*
X15526697Y-14437160D01*
X15540983Y-14451446D01*
X15555268Y-14480017D01*
X15569554Y-14537160D01*
X15569554Y-14608589D01*
X15555268Y-14665731D01*
X15540983Y-14694303D01*
X15526697Y-14708589D01*
X15498126Y-14722874D01*
X15469554Y-14722874D01*
X15440983Y-14708589D01*
X15426697Y-14694303D01*
X15412411Y-14665731D01*
X15398126Y-14608589D01*
X15398126Y-14537160D01*
X15412411Y-14480017D01*
X15426697Y-14451446D01*
X15440983Y-14437160D01*
X15469554Y-14422874D01*
X15698126Y-14694303D02*
X15712411Y-14708589D01*
X15698126Y-14722874D01*
X15683840Y-14708589D01*
X15698126Y-14694303D01*
X15698126Y-14722874D01*
X15898126Y-14422874D02*
X15926697Y-14422874D01*
X15955268Y-14437160D01*
X15969554Y-14451446D01*
X15983840Y-14480017D01*
X15998126Y-14537160D01*
X15998126Y-14608589D01*
X15983840Y-14665731D01*
X15969554Y-14694303D01*
X15955268Y-14708589D01*
X15926697Y-14722874D01*
X15898126Y-14722874D01*
X15869554Y-14708589D01*
X15855268Y-14694303D01*
X15840983Y-14665731D01*
X15826697Y-14608589D01*
X15826697Y-14537160D01*
X15840983Y-14480017D01*
X15855268Y-14451446D01*
X15869554Y-14437160D01*
X15898126Y-14422874D01*
X16098126Y-14422874D02*
X16283840Y-14422874D01*
X16183840Y-14537160D01*
X16226697Y-14537160D01*
X16255268Y-14551446D01*
X16269554Y-14565731D01*
X16283840Y-14594303D01*
X16283840Y-14665731D01*
X16269554Y-14694303D01*
X16255268Y-14708589D01*
X16226697Y-14722874D01*
X16140983Y-14722874D01*
X16112411Y-14708589D01*
X16098126Y-14694303D01*
X16555268Y-14422874D02*
X16412411Y-14422874D01*
X16398126Y-14565731D01*
X16412411Y-14551446D01*
X16440983Y-14537160D01*
X16512411Y-14537160D01*
X16540983Y-14551446D01*
X16555268Y-14565731D01*
X16569554Y-14594303D01*
X16569554Y-14665731D01*
X16555268Y-14694303D01*
X16540983Y-14708589D01*
X16512411Y-14722874D01*
X16440983Y-14722874D01*
X16412411Y-14708589D01*
X16398126Y-14694303D01*
X16826697Y-14522874D02*
X16826697Y-14722874D01*
X16755268Y-14408589D02*
X16683840Y-14622874D01*
X16869554Y-14622874D01*
X16969554Y-14422874D02*
X16969554Y-14480017D01*
X17083840Y-14422874D02*
X17083840Y-14480017D01*
X17526697Y-14837160D02*
X17512411Y-14822874D01*
X17483840Y-14780017D01*
X17469554Y-14751446D01*
X17455268Y-14708589D01*
X17440983Y-14637160D01*
X17440983Y-14580017D01*
X17455268Y-14508589D01*
X17469554Y-14465731D01*
X17483840Y-14437160D01*
X17512411Y-14394303D01*
X17526697Y-14380017D01*
X17626697Y-14451446D02*
X17640983Y-14437160D01*
X17669554Y-14422874D01*
X17740983Y-14422874D01*
X17769554Y-14437160D01*
X17783840Y-14451446D01*
X17798126Y-14480017D01*
X17798126Y-14508589D01*
X17783840Y-14551446D01*
X17612411Y-14722874D01*
X17798126Y-14722874D01*
X18155268Y-14722874D02*
X18155268Y-14422874D01*
X18283840Y-14722874D02*
X18283840Y-14565731D01*
X18269554Y-14537160D01*
X18240983Y-14522874D01*
X18198126Y-14522874D01*
X18169554Y-14537160D01*
X18155268Y-14551446D01*
X18469554Y-14722874D02*
X18440983Y-14708589D01*
X18426697Y-14694303D01*
X18412411Y-14665731D01*
X18412411Y-14580017D01*
X18426697Y-14551446D01*
X18440983Y-14537160D01*
X18469554Y-14522874D01*
X18512411Y-14522874D01*
X18540983Y-14537160D01*
X18555268Y-14551446D01*
X18569554Y-14580017D01*
X18569554Y-14665731D01*
X18555268Y-14694303D01*
X18540983Y-14708589D01*
X18512411Y-14722874D01*
X18469554Y-14722874D01*
X18740983Y-14722874D02*
X18712411Y-14708589D01*
X18698126Y-14680017D01*
X18698126Y-14422874D01*
X18969554Y-14708589D02*
X18940983Y-14722874D01*
X18883840Y-14722874D01*
X18855268Y-14708589D01*
X18840983Y-14680017D01*
X18840983Y-14565731D01*
X18855268Y-14537160D01*
X18883840Y-14522874D01*
X18940983Y-14522874D01*
X18969554Y-14537160D01*
X18983840Y-14565731D01*
X18983840Y-14594303D01*
X18840983Y-14622874D01*
X19098126Y-14708589D02*
X19126697Y-14722874D01*
X19183840Y-14722874D01*
X19212411Y-14708589D01*
X19226697Y-14680017D01*
X19226697Y-14665731D01*
X19212411Y-14637160D01*
X19183840Y-14622874D01*
X19140983Y-14622874D01*
X19112411Y-14608589D01*
X19098126Y-14580017D01*
X19098126Y-14565731D01*
X19112411Y-14537160D01*
X19140983Y-14522874D01*
X19183840Y-14522874D01*
X19212411Y-14537160D01*
X19326697Y-14837160D02*
X19340983Y-14822874D01*
X19369554Y-14780017D01*
X19383840Y-14751446D01*
X19398126Y-14708589D01*
X19412411Y-14637160D01*
X19412411Y-14580017D01*
X19398126Y-14508589D01*
X19383840Y-14465731D01*
X19369554Y-14437160D01*
X19340983Y-14394303D01*
X19326697Y-14380017D01*
X12218040Y-14932360D02*
X12218040Y-15033960D01*
X12167240Y-14983160D02*
X12268840Y-14983160D01*
X12712411Y-15118874D02*
X12540983Y-15118874D01*
X12626697Y-15118874D02*
X12626697Y-14818874D01*
X12598126Y-14861731D01*
X12569554Y-14890303D01*
X12540983Y-14904589D01*
X12840983Y-15090303D02*
X12855268Y-15104589D01*
X12840983Y-15118874D01*
X12826697Y-15104589D01*
X12840983Y-15090303D01*
X12840983Y-15118874D01*
X13040983Y-14818874D02*
X13069554Y-14818874D01*
X13098126Y-14833160D01*
X13112411Y-14847446D01*
X13126697Y-14876017D01*
X13140983Y-14933160D01*
X13140983Y-15004589D01*
X13126697Y-15061731D01*
X13112411Y-15090303D01*
X13098126Y-15104589D01*
X13069554Y-15118874D01*
X13040983Y-15118874D01*
X13012411Y-15104589D01*
X12998126Y-15090303D01*
X12983840Y-15061731D01*
X12969554Y-15004589D01*
X12969554Y-14933160D01*
X12983840Y-14876017D01*
X12998126Y-14847446D01*
X13012411Y-14833160D01*
X13040983Y-14818874D01*
X13426697Y-15118874D02*
X13255268Y-15118874D01*
X13340983Y-15118874D02*
X13340983Y-14818874D01*
X13312411Y-14861731D01*
X13283840Y-14890303D01*
X13255268Y-14904589D01*
X13683840Y-14818874D02*
X13626697Y-14818874D01*
X13598126Y-14833160D01*
X13583840Y-14847446D01*
X13555268Y-14890303D01*
X13540983Y-14947446D01*
X13540983Y-15061731D01*
X13555268Y-15090303D01*
X13569554Y-15104589D01*
X13598126Y-15118874D01*
X13655268Y-15118874D01*
X13683840Y-15104589D01*
X13698126Y-15090303D01*
X13712411Y-15061731D01*
X13712411Y-14990303D01*
X13698126Y-14961731D01*
X13683840Y-14947446D01*
X13655268Y-14933160D01*
X13598126Y-14933160D01*
X13569554Y-14947446D01*
X13555268Y-14961731D01*
X13540983Y-14990303D01*
X13840983Y-15118874D02*
X13840983Y-14918874D01*
X13840983Y-14947446D02*
X13855268Y-14933160D01*
X13883840Y-14918874D01*
X13926697Y-14918874D01*
X13955268Y-14933160D01*
X13969554Y-14961731D01*
X13969554Y-15118874D01*
X13969554Y-14961731D02*
X13983840Y-14933160D01*
X14012411Y-14918874D01*
X14055268Y-14918874D01*
X14083840Y-14933160D01*
X14098126Y-14961731D01*
X14098126Y-15118874D01*
X14240983Y-15118874D02*
X14240983Y-14918874D01*
X14240983Y-14947446D02*
X14255268Y-14933160D01*
X14283840Y-14918874D01*
X14326697Y-14918874D01*
X14355268Y-14933160D01*
X14369554Y-14961731D01*
X14369554Y-15118874D01*
X14369554Y-14961731D02*
X14383840Y-14933160D01*
X14412411Y-14918874D01*
X14455268Y-14918874D01*
X14483840Y-14933160D01*
X14498126Y-14961731D01*
X14498126Y-15118874D01*
X15083840Y-14804589D02*
X14826697Y-15190303D01*
X15469554Y-14818874D02*
X15498126Y-14818874D01*
X15526697Y-14833160D01*
X15540983Y-14847446D01*
X15555268Y-14876017D01*
X15569554Y-14933160D01*
X15569554Y-15004589D01*
X15555268Y-15061731D01*
X15540983Y-15090303D01*
X15526697Y-15104589D01*
X15498126Y-15118874D01*
X15469554Y-15118874D01*
X15440983Y-15104589D01*
X15426697Y-15090303D01*
X15412411Y-15061731D01*
X15398126Y-15004589D01*
X15398126Y-14933160D01*
X15412411Y-14876017D01*
X15426697Y-14847446D01*
X15440983Y-14833160D01*
X15469554Y-14818874D01*
X15698126Y-15090303D02*
X15712411Y-15104589D01*
X15698126Y-15118874D01*
X15683840Y-15104589D01*
X15698126Y-15090303D01*
X15698126Y-15118874D01*
X15898126Y-14818874D02*
X15926697Y-14818874D01*
X15955268Y-14833160D01*
X15969554Y-14847446D01*
X15983840Y-14876017D01*
X15998126Y-14933160D01*
X15998126Y-15004589D01*
X15983840Y-15061731D01*
X15969554Y-15090303D01*
X15955268Y-15104589D01*
X15926697Y-15118874D01*
X15898126Y-15118874D01*
X15869554Y-15104589D01*
X15855268Y-15090303D01*
X15840983Y-15061731D01*
X15826697Y-15004589D01*
X15826697Y-14933160D01*
X15840983Y-14876017D01*
X15855268Y-14847446D01*
X15869554Y-14833160D01*
X15898126Y-14818874D01*
X16255268Y-14918874D02*
X16255268Y-15118874D01*
X16183840Y-14804589D02*
X16112411Y-15018874D01*
X16298126Y-15018874D01*
X16469554Y-14818874D02*
X16498126Y-14818874D01*
X16526697Y-14833160D01*
X16540983Y-14847446D01*
X16555268Y-14876017D01*
X16569554Y-14933160D01*
X16569554Y-15004589D01*
X16555268Y-15061731D01*
X16540983Y-15090303D01*
X16526697Y-15104589D01*
X16498126Y-15118874D01*
X16469554Y-15118874D01*
X16440983Y-15104589D01*
X16426697Y-15090303D01*
X16412411Y-15061731D01*
X16398126Y-15004589D01*
X16398126Y-14933160D01*
X16412411Y-14876017D01*
X16426697Y-14847446D01*
X16440983Y-14833160D01*
X16469554Y-14818874D01*
X16755268Y-14818874D02*
X16783840Y-14818874D01*
X16812411Y-14833160D01*
X16826697Y-14847446D01*
X16840983Y-14876017D01*
X16855268Y-14933160D01*
X16855268Y-15004589D01*
X16840983Y-15061731D01*
X16826697Y-15090303D01*
X16812411Y-15104589D01*
X16783840Y-15118874D01*
X16755268Y-15118874D01*
X16726697Y-15104589D01*
X16712411Y-15090303D01*
X16698126Y-15061731D01*
X16683840Y-15004589D01*
X16683840Y-14933160D01*
X16698126Y-14876017D01*
X16712411Y-14847446D01*
X16726697Y-14833160D01*
X16755268Y-14818874D01*
X16969554Y-14818874D02*
X16969554Y-14876017D01*
X17083840Y-14818874D02*
X17083840Y-14876017D01*
X17526697Y-15233160D02*
X17512411Y-15218874D01*
X17483840Y-15176017D01*
X17469554Y-15147446D01*
X17455268Y-15104589D01*
X17440983Y-15033160D01*
X17440983Y-14976017D01*
X17455268Y-14904589D01*
X17469554Y-14861731D01*
X17483840Y-14833160D01*
X17512411Y-14790303D01*
X17526697Y-14776017D01*
X17612411Y-14818874D02*
X17798126Y-14818874D01*
X17698126Y-14933160D01*
X17740983Y-14933160D01*
X17769554Y-14947446D01*
X17783840Y-14961731D01*
X17798126Y-14990303D01*
X17798126Y-15061731D01*
X17783840Y-15090303D01*
X17769554Y-15104589D01*
X17740983Y-15118874D01*
X17655268Y-15118874D01*
X17626697Y-15104589D01*
X17612411Y-15090303D01*
X18155268Y-15118874D02*
X18155268Y-14818874D01*
X18283840Y-15118874D02*
X18283840Y-14961731D01*
X18269554Y-14933160D01*
X18240983Y-14918874D01*
X18198126Y-14918874D01*
X18169554Y-14933160D01*
X18155268Y-14947446D01*
X18469554Y-15118874D02*
X18440983Y-15104589D01*
X18426697Y-15090303D01*
X18412411Y-15061731D01*
X18412411Y-14976017D01*
X18426697Y-14947446D01*
X18440983Y-14933160D01*
X18469554Y-14918874D01*
X18512411Y-14918874D01*
X18540983Y-14933160D01*
X18555268Y-14947446D01*
X18569554Y-14976017D01*
X18569554Y-15061731D01*
X18555268Y-15090303D01*
X18540983Y-15104589D01*
X18512411Y-15118874D01*
X18469554Y-15118874D01*
X18740983Y-15118874D02*
X18712411Y-15104589D01*
X18698126Y-15076017D01*
X18698126Y-14818874D01*
X18969554Y-15104589D02*
X18940983Y-15118874D01*
X18883840Y-15118874D01*
X18855268Y-15104589D01*
X18840983Y-15076017D01*
X18840983Y-14961731D01*
X18855268Y-14933160D01*
X18883840Y-14918874D01*
X18940983Y-14918874D01*
X18969554Y-14933160D01*
X18983840Y-14961731D01*
X18983840Y-14990303D01*
X18840983Y-15018874D01*
X19098126Y-15104589D02*
X19126697Y-15118874D01*
X19183840Y-15118874D01*
X19212411Y-15104589D01*
X19226697Y-15076017D01*
X19226697Y-15061731D01*
X19212411Y-15033160D01*
X19183840Y-15018874D01*
X19140983Y-15018874D01*
X19112411Y-15004589D01*
X19098126Y-14976017D01*
X19098126Y-14961731D01*
X19112411Y-14933160D01*
X19140983Y-14918874D01*
X19183840Y-14918874D01*
X19212411Y-14933160D01*
X19326697Y-15233160D02*
X19340983Y-15218874D01*
X19369554Y-15176017D01*
X19383840Y-15147446D01*
X19398126Y-15104589D01*
X19412411Y-15033160D01*
X19412411Y-14976017D01*
X19398126Y-14904589D01*
X19383840Y-14861731D01*
X19369554Y-14833160D01*
X19340983Y-14790303D01*
X19326697Y-14776017D01*
X12252731Y-15418051D02*
X12252731Y-15340269D01*
X12174949Y-15340269D01*
X12174949Y-15418051D01*
X12252731Y-15418051D01*
X12712411Y-15514874D02*
X12540983Y-15514874D01*
X12626697Y-15514874D02*
X12626697Y-15214874D01*
X12598126Y-15257731D01*
X12569554Y-15286303D01*
X12540983Y-15300589D01*
X12840983Y-15486303D02*
X12855268Y-15500589D01*
X12840983Y-15514874D01*
X12826697Y-15500589D01*
X12840983Y-15486303D01*
X12840983Y-15514874D01*
X13140983Y-15514874D02*
X12969554Y-15514874D01*
X13055268Y-15514874D02*
X13055268Y-15214874D01*
X13026697Y-15257731D01*
X12998126Y-15286303D01*
X12969554Y-15300589D01*
X13326697Y-15214874D02*
X13355268Y-15214874D01*
X13383840Y-15229160D01*
X13398126Y-15243446D01*
X13412411Y-15272017D01*
X13426697Y-15329160D01*
X13426697Y-15400589D01*
X13412411Y-15457731D01*
X13398126Y-15486303D01*
X13383840Y-15500589D01*
X13355268Y-15514874D01*
X13326697Y-15514874D01*
X13298126Y-15500589D01*
X13283840Y-15486303D01*
X13269554Y-15457731D01*
X13255268Y-15400589D01*
X13255268Y-15329160D01*
X13269554Y-15272017D01*
X13283840Y-15243446D01*
X13298126Y-15229160D01*
X13326697Y-15214874D01*
X13612411Y-15214874D02*
X13640983Y-15214874D01*
X13669554Y-15229160D01*
X13683840Y-15243446D01*
X13698126Y-15272017D01*
X13712411Y-15329160D01*
X13712411Y-15400589D01*
X13698126Y-15457731D01*
X13683840Y-15486303D01*
X13669554Y-15500589D01*
X13640983Y-15514874D01*
X13612411Y-15514874D01*
X13583840Y-15500589D01*
X13569554Y-15486303D01*
X13555268Y-15457731D01*
X13540983Y-15400589D01*
X13540983Y-15329160D01*
X13555268Y-15272017D01*
X13569554Y-15243446D01*
X13583840Y-15229160D01*
X13612411Y-15214874D01*
X13840983Y-15514874D02*
X13840983Y-15314874D01*
X13840983Y-15343446D02*
X13855268Y-15329160D01*
X13883840Y-15314874D01*
X13926697Y-15314874D01*
X13955268Y-15329160D01*
X13969554Y-15357731D01*
X13969554Y-15514874D01*
X13969554Y-15357731D02*
X13983840Y-15329160D01*
X14012411Y-15314874D01*
X14055268Y-15314874D01*
X14083840Y-15329160D01*
X14098126Y-15357731D01*
X14098126Y-15514874D01*
X14240983Y-15514874D02*
X14240983Y-15314874D01*
X14240983Y-15343446D02*
X14255268Y-15329160D01*
X14283840Y-15314874D01*
X14326697Y-15314874D01*
X14355268Y-15329160D01*
X14369554Y-15357731D01*
X14369554Y-15514874D01*
X14369554Y-15357731D02*
X14383840Y-15329160D01*
X14412411Y-15314874D01*
X14455268Y-15314874D01*
X14483840Y-15329160D01*
X14498126Y-15357731D01*
X14498126Y-15514874D01*
X15083840Y-15200589D02*
X14826697Y-15586303D01*
X15469554Y-15214874D02*
X15498126Y-15214874D01*
X15526697Y-15229160D01*
X15540983Y-15243446D01*
X15555268Y-15272017D01*
X15569554Y-15329160D01*
X15569554Y-15400589D01*
X15555268Y-15457731D01*
X15540983Y-15486303D01*
X15526697Y-15500589D01*
X15498126Y-15514874D01*
X15469554Y-15514874D01*
X15440983Y-15500589D01*
X15426697Y-15486303D01*
X15412411Y-15457731D01*
X15398126Y-15400589D01*
X15398126Y-15329160D01*
X15412411Y-15272017D01*
X15426697Y-15243446D01*
X15440983Y-15229160D01*
X15469554Y-15214874D01*
X15698126Y-15486303D02*
X15712411Y-15500589D01*
X15698126Y-15514874D01*
X15683840Y-15500589D01*
X15698126Y-15486303D01*
X15698126Y-15514874D01*
X15898126Y-15214874D02*
X15926697Y-15214874D01*
X15955268Y-15229160D01*
X15969554Y-15243446D01*
X15983840Y-15272017D01*
X15998126Y-15329160D01*
X15998126Y-15400589D01*
X15983840Y-15457731D01*
X15969554Y-15486303D01*
X15955268Y-15500589D01*
X15926697Y-15514874D01*
X15898126Y-15514874D01*
X15869554Y-15500589D01*
X15855268Y-15486303D01*
X15840983Y-15457731D01*
X15826697Y-15400589D01*
X15826697Y-15329160D01*
X15840983Y-15272017D01*
X15855268Y-15243446D01*
X15869554Y-15229160D01*
X15898126Y-15214874D01*
X16255268Y-15314874D02*
X16255268Y-15514874D01*
X16183840Y-15200589D02*
X16112411Y-15414874D01*
X16298126Y-15414874D01*
X16383840Y-15214874D02*
X16569554Y-15214874D01*
X16469554Y-15329160D01*
X16512411Y-15329160D01*
X16540983Y-15343446D01*
X16555268Y-15357731D01*
X16569554Y-15386303D01*
X16569554Y-15457731D01*
X16555268Y-15486303D01*
X16540983Y-15500589D01*
X16512411Y-15514874D01*
X16426697Y-15514874D01*
X16398126Y-15500589D01*
X16383840Y-15486303D01*
X16669554Y-15214874D02*
X16855268Y-15214874D01*
X16755268Y-15329160D01*
X16798126Y-15329160D01*
X16826697Y-15343446D01*
X16840983Y-15357731D01*
X16855268Y-15386303D01*
X16855268Y-15457731D01*
X16840983Y-15486303D01*
X16826697Y-15500589D01*
X16798126Y-15514874D01*
X16712411Y-15514874D01*
X16683840Y-15500589D01*
X16669554Y-15486303D01*
X16969554Y-15214874D02*
X16969554Y-15272017D01*
X17083840Y-15214874D02*
X17083840Y-15272017D01*
X17526697Y-15629160D02*
X17512411Y-15614874D01*
X17483840Y-15572017D01*
X17469554Y-15543446D01*
X17455268Y-15500589D01*
X17440983Y-15429160D01*
X17440983Y-15372017D01*
X17455268Y-15300589D01*
X17469554Y-15257731D01*
X17483840Y-15229160D01*
X17512411Y-15186303D01*
X17526697Y-15172017D01*
X17769554Y-15214874D02*
X17712411Y-15214874D01*
X17683840Y-15229160D01*
X17669554Y-15243446D01*
X17640983Y-15286303D01*
X17626697Y-15343446D01*
X17626697Y-15457731D01*
X17640983Y-15486303D01*
X17655268Y-15500589D01*
X17683840Y-15514874D01*
X17740983Y-15514874D01*
X17769554Y-15500589D01*
X17783840Y-15486303D01*
X17798126Y-15457731D01*
X17798126Y-15386303D01*
X17783840Y-15357731D01*
X17769554Y-15343446D01*
X17740983Y-15329160D01*
X17683840Y-15329160D01*
X17655268Y-15343446D01*
X17640983Y-15357731D01*
X17626697Y-15386303D01*
X18155268Y-15514874D02*
X18155268Y-15214874D01*
X18283840Y-15514874D02*
X18283840Y-15357731D01*
X18269554Y-15329160D01*
X18240983Y-15314874D01*
X18198126Y-15314874D01*
X18169554Y-15329160D01*
X18155268Y-15343446D01*
X18469554Y-15514874D02*
X18440983Y-15500589D01*
X18426697Y-15486303D01*
X18412411Y-15457731D01*
X18412411Y-15372017D01*
X18426697Y-15343446D01*
X18440983Y-15329160D01*
X18469554Y-15314874D01*
X18512411Y-15314874D01*
X18540983Y-15329160D01*
X18555268Y-15343446D01*
X18569554Y-15372017D01*
X18569554Y-15457731D01*
X18555268Y-15486303D01*
X18540983Y-15500589D01*
X18512411Y-15514874D01*
X18469554Y-15514874D01*
X18740983Y-15514874D02*
X18712411Y-15500589D01*
X18698126Y-15472017D01*
X18698126Y-15214874D01*
X18969554Y-15500589D02*
X18940983Y-15514874D01*
X18883840Y-15514874D01*
X18855268Y-15500589D01*
X18840983Y-15472017D01*
X18840983Y-15357731D01*
X18855268Y-15329160D01*
X18883840Y-15314874D01*
X18940983Y-15314874D01*
X18969554Y-15329160D01*
X18983840Y-15357731D01*
X18983840Y-15386303D01*
X18840983Y-15414874D01*
X19098126Y-15500589D02*
X19126697Y-15514874D01*
X19183840Y-15514874D01*
X19212411Y-15500589D01*
X19226697Y-15472017D01*
X19226697Y-15457731D01*
X19212411Y-15429160D01*
X19183840Y-15414874D01*
X19140983Y-15414874D01*
X19112411Y-15400589D01*
X19098126Y-15372017D01*
X19098126Y-15357731D01*
X19112411Y-15329160D01*
X19140983Y-15314874D01*
X19183840Y-15314874D01*
X19212411Y-15329160D01*
X19326697Y-15629160D02*
X19340983Y-15614874D01*
X19369554Y-15572017D01*
X19383840Y-15543446D01*
X19398126Y-15500589D01*
X19412411Y-15429160D01*
X19412411Y-15372017D01*
X19398126Y-15300589D01*
X19383840Y-15257731D01*
X19369554Y-15229160D01*
X19340983Y-15186303D01*
X19326697Y-15172017D01*
X12133840Y-15910160D02*
X12268840Y-15775160D01*
X12133840Y-15640160D01*
X11998840Y-15775160D01*
X12133840Y-15910160D01*
X12540983Y-15639446D02*
X12555268Y-15625160D01*
X12583840Y-15610874D01*
X12655268Y-15610874D01*
X12683840Y-15625160D01*
X12698126Y-15639446D01*
X12712411Y-15668017D01*
X12712411Y-15696589D01*
X12698126Y-15739446D01*
X12526697Y-15910874D01*
X12712411Y-15910874D01*
X12840983Y-15882303D02*
X12855268Y-15896589D01*
X12840983Y-15910874D01*
X12826697Y-15896589D01*
X12840983Y-15882303D01*
X12840983Y-15910874D01*
X12955268Y-15610874D02*
X13155268Y-15610874D01*
X13026697Y-15910874D01*
X13326697Y-15610874D02*
X13355268Y-15610874D01*
X13383840Y-15625160D01*
X13398126Y-15639446D01*
X13412411Y-15668017D01*
X13426697Y-15725160D01*
X13426697Y-15796589D01*
X13412411Y-15853731D01*
X13398126Y-15882303D01*
X13383840Y-15896589D01*
X13355268Y-15910874D01*
X13326697Y-15910874D01*
X13298126Y-15896589D01*
X13283840Y-15882303D01*
X13269554Y-15853731D01*
X13255268Y-15796589D01*
X13255268Y-15725160D01*
X13269554Y-15668017D01*
X13283840Y-15639446D01*
X13298126Y-15625160D01*
X13326697Y-15610874D01*
X13612411Y-15610874D02*
X13640983Y-15610874D01*
X13669554Y-15625160D01*
X13683840Y-15639446D01*
X13698126Y-15668017D01*
X13712411Y-15725160D01*
X13712411Y-15796589D01*
X13698126Y-15853731D01*
X13683840Y-15882303D01*
X13669554Y-15896589D01*
X13640983Y-15910874D01*
X13612411Y-15910874D01*
X13583840Y-15896589D01*
X13569554Y-15882303D01*
X13555268Y-15853731D01*
X13540983Y-15796589D01*
X13540983Y-15725160D01*
X13555268Y-15668017D01*
X13569554Y-15639446D01*
X13583840Y-15625160D01*
X13612411Y-15610874D01*
X13840983Y-15910874D02*
X13840983Y-15710874D01*
X13840983Y-15739446D02*
X13855268Y-15725160D01*
X13883840Y-15710874D01*
X13926697Y-15710874D01*
X13955268Y-15725160D01*
X13969554Y-15753731D01*
X13969554Y-15910874D01*
X13969554Y-15753731D02*
X13983840Y-15725160D01*
X14012411Y-15710874D01*
X14055268Y-15710874D01*
X14083840Y-15725160D01*
X14098126Y-15753731D01*
X14098126Y-15910874D01*
X14240983Y-15910874D02*
X14240983Y-15710874D01*
X14240983Y-15739446D02*
X14255268Y-15725160D01*
X14283840Y-15710874D01*
X14326697Y-15710874D01*
X14355268Y-15725160D01*
X14369554Y-15753731D01*
X14369554Y-15910874D01*
X14369554Y-15753731D02*
X14383840Y-15725160D01*
X14412411Y-15710874D01*
X14455268Y-15710874D01*
X14483840Y-15725160D01*
X14498126Y-15753731D01*
X14498126Y-15910874D01*
X15083840Y-15596589D02*
X14826697Y-15982303D01*
X15469554Y-15610874D02*
X15498126Y-15610874D01*
X15526697Y-15625160D01*
X15540983Y-15639446D01*
X15555268Y-15668017D01*
X15569554Y-15725160D01*
X15569554Y-15796589D01*
X15555268Y-15853731D01*
X15540983Y-15882303D01*
X15526697Y-15896589D01*
X15498126Y-15910874D01*
X15469554Y-15910874D01*
X15440983Y-15896589D01*
X15426697Y-15882303D01*
X15412411Y-15853731D01*
X15398126Y-15796589D01*
X15398126Y-15725160D01*
X15412411Y-15668017D01*
X15426697Y-15639446D01*
X15440983Y-15625160D01*
X15469554Y-15610874D01*
X15698126Y-15882303D02*
X15712411Y-15896589D01*
X15698126Y-15910874D01*
X15683840Y-15896589D01*
X15698126Y-15882303D01*
X15698126Y-15910874D01*
X15998126Y-15910874D02*
X15826697Y-15910874D01*
X15912411Y-15910874D02*
X15912411Y-15610874D01*
X15883840Y-15653731D01*
X15855268Y-15682303D01*
X15826697Y-15696589D01*
X16183840Y-15610874D02*
X16212411Y-15610874D01*
X16240983Y-15625160D01*
X16255268Y-15639446D01*
X16269554Y-15668017D01*
X16283840Y-15725160D01*
X16283840Y-15796589D01*
X16269554Y-15853731D01*
X16255268Y-15882303D01*
X16240983Y-15896589D01*
X16212411Y-15910874D01*
X16183840Y-15910874D01*
X16155268Y-15896589D01*
X16140983Y-15882303D01*
X16126697Y-15853731D01*
X16112411Y-15796589D01*
X16112411Y-15725160D01*
X16126697Y-15668017D01*
X16140983Y-15639446D01*
X16155268Y-15625160D01*
X16183840Y-15610874D01*
X16540983Y-15610874D02*
X16483840Y-15610874D01*
X16455268Y-15625160D01*
X16440983Y-15639446D01*
X16412411Y-15682303D01*
X16398126Y-15739446D01*
X16398126Y-15853731D01*
X16412411Y-15882303D01*
X16426697Y-15896589D01*
X16455268Y-15910874D01*
X16512411Y-15910874D01*
X16540983Y-15896589D01*
X16555268Y-15882303D01*
X16569554Y-15853731D01*
X16569554Y-15782303D01*
X16555268Y-15753731D01*
X16540983Y-15739446D01*
X16512411Y-15725160D01*
X16455268Y-15725160D01*
X16426697Y-15739446D01*
X16412411Y-15753731D01*
X16398126Y-15782303D01*
X16669554Y-15610874D02*
X16855268Y-15610874D01*
X16755268Y-15725160D01*
X16798126Y-15725160D01*
X16826697Y-15739446D01*
X16840983Y-15753731D01*
X16855268Y-15782303D01*
X16855268Y-15853731D01*
X16840983Y-15882303D01*
X16826697Y-15896589D01*
X16798126Y-15910874D01*
X16712411Y-15910874D01*
X16683840Y-15896589D01*
X16669554Y-15882303D01*
X16969554Y-15610874D02*
X16969554Y-15668017D01*
X17083840Y-15610874D02*
X17083840Y-15668017D01*
X17526697Y-16025160D02*
X17512411Y-16010874D01*
X17483840Y-15968017D01*
X17469554Y-15939446D01*
X17455268Y-15896589D01*
X17440983Y-15825160D01*
X17440983Y-15768017D01*
X17455268Y-15696589D01*
X17469554Y-15653731D01*
X17483840Y-15625160D01*
X17512411Y-15582303D01*
X17526697Y-15568017D01*
X17683840Y-15739446D02*
X17655268Y-15725160D01*
X17640983Y-15710874D01*
X17626697Y-15682303D01*
X17626697Y-15668017D01*
X17640983Y-15639446D01*
X17655268Y-15625160D01*
X17683840Y-15610874D01*
X17740983Y-15610874D01*
X17769554Y-15625160D01*
X17783840Y-15639446D01*
X17798126Y-15668017D01*
X17798126Y-15682303D01*
X17783840Y-15710874D01*
X17769554Y-15725160D01*
X17740983Y-15739446D01*
X17683840Y-15739446D01*
X17655268Y-15753731D01*
X17640983Y-15768017D01*
X17626697Y-15796589D01*
X17626697Y-15853731D01*
X17640983Y-15882303D01*
X17655268Y-15896589D01*
X17683840Y-15910874D01*
X17740983Y-15910874D01*
X17769554Y-15896589D01*
X17783840Y-15882303D01*
X17798126Y-15853731D01*
X17798126Y-15796589D01*
X17783840Y-15768017D01*
X17769554Y-15753731D01*
X17740983Y-15739446D01*
X18155268Y-15910874D02*
X18155268Y-15610874D01*
X18283840Y-15910874D02*
X18283840Y-15753731D01*
X18269554Y-15725160D01*
X18240983Y-15710874D01*
X18198126Y-15710874D01*
X18169554Y-15725160D01*
X18155268Y-15739446D01*
X18469554Y-15910874D02*
X18440983Y-15896589D01*
X18426697Y-15882303D01*
X18412411Y-15853731D01*
X18412411Y-15768017D01*
X18426697Y-15739446D01*
X18440983Y-15725160D01*
X18469554Y-15710874D01*
X18512411Y-15710874D01*
X18540983Y-15725160D01*
X18555268Y-15739446D01*
X18569554Y-15768017D01*
X18569554Y-15853731D01*
X18555268Y-15882303D01*
X18540983Y-15896589D01*
X18512411Y-15910874D01*
X18469554Y-15910874D01*
X18740983Y-15910874D02*
X18712411Y-15896589D01*
X18698126Y-15868017D01*
X18698126Y-15610874D01*
X18969554Y-15896589D02*
X18940983Y-15910874D01*
X18883840Y-15910874D01*
X18855268Y-15896589D01*
X18840983Y-15868017D01*
X18840983Y-15753731D01*
X18855268Y-15725160D01*
X18883840Y-15710874D01*
X18940983Y-15710874D01*
X18969554Y-15725160D01*
X18983840Y-15753731D01*
X18983840Y-15782303D01*
X18840983Y-15810874D01*
X19098126Y-15896589D02*
X19126697Y-15910874D01*
X19183840Y-15910874D01*
X19212411Y-15896589D01*
X19226697Y-15868017D01*
X19226697Y-15853731D01*
X19212411Y-15825160D01*
X19183840Y-15810874D01*
X19140983Y-15810874D01*
X19112411Y-15796589D01*
X19098126Y-15768017D01*
X19098126Y-15753731D01*
X19112411Y-15725160D01*
X19140983Y-15710874D01*
X19183840Y-15710874D01*
X19212411Y-15725160D01*
X19326697Y-16025160D02*
X19340983Y-16010874D01*
X19369554Y-15968017D01*
X19383840Y-15939446D01*
X19398126Y-15896589D01*
X19412411Y-15825160D01*
X19412411Y-15768017D01*
X19398126Y-15696589D01*
X19383840Y-15653731D01*
X19369554Y-15625160D01*
X19340983Y-15582303D01*
X19326697Y-15568017D01*
M02*
