%FSLAX45Y45*%
G04 Gerber Fmt 4.5, Leading zero omitted, Abs format (unit mm)*
G04 Created by KiCad (PCBNEW (5.1.10)-1) date 2021-07-14 15:22:44*
%MOMM*%
%LPD*%
G01*
G04 APERTURE LIST*
%TA.AperFunction,Profile*%
%ADD10C,0.203200*%
%TD*%
%ADD11C,0.200000*%
%ADD12C,0.300000*%
G04 APERTURE END LIST*
D10*
X15578460Y-9779300D02*
X15578460Y-11575080D01*
X12279000Y-9779300D02*
X15578460Y-9779300D01*
X12279000Y-8732820D02*
X12279000Y-9779300D01*
X20798160Y-8133380D02*
X12776840Y-8133380D01*
X21298540Y-8732820D02*
X21298540Y-8732820D01*
X12776840Y-12621560D02*
X12776840Y-13221000D01*
X15578460Y-11575080D02*
X12279000Y-11575080D01*
X12776840Y-8732820D02*
X12279000Y-8732820D01*
X12279000Y-12621560D02*
X12776840Y-12621560D01*
X21298540Y-12621560D02*
X21298540Y-8732820D01*
X20798160Y-12621560D02*
X21298540Y-12621560D01*
X20798160Y-13221000D02*
X20798160Y-12621560D01*
X12776840Y-13221000D02*
X20798160Y-13221000D01*
X20798160Y-8732820D02*
X20798160Y-8133380D01*
X21298540Y-8732820D02*
X20798160Y-8732820D01*
X12279000Y-11575080D02*
X12279000Y-12621560D01*
X12776840Y-8133380D02*
X12776840Y-8732820D01*
D11*
X20610000Y-10361000D02*
X20700000Y-10451000D01*
X20700000Y-10361000D02*
X20610000Y-10451000D01*
X20610000Y-10711000D02*
X20700000Y-10801000D01*
X20700000Y-10711000D02*
X20610000Y-10801000D01*
D12*
X12555268Y-13696874D02*
X12555268Y-13396874D01*
X12626697Y-13396874D01*
X12669554Y-13411160D01*
X12698126Y-13439731D01*
X12712411Y-13468303D01*
X12726697Y-13525446D01*
X12726697Y-13568303D01*
X12712411Y-13625446D01*
X12698126Y-13654017D01*
X12669554Y-13682589D01*
X12626697Y-13696874D01*
X12555268Y-13696874D01*
X12855268Y-13696874D02*
X12855268Y-13496874D01*
X12855268Y-13554017D02*
X12869554Y-13525446D01*
X12883840Y-13511160D01*
X12912411Y-13496874D01*
X12940983Y-13496874D01*
X13040983Y-13696874D02*
X13040983Y-13496874D01*
X13040983Y-13396874D02*
X13026697Y-13411160D01*
X13040983Y-13425446D01*
X13055268Y-13411160D01*
X13040983Y-13396874D01*
X13040983Y-13425446D01*
X13226697Y-13696874D02*
X13198126Y-13682589D01*
X13183840Y-13654017D01*
X13183840Y-13396874D01*
X13383840Y-13696874D02*
X13355268Y-13682589D01*
X13340983Y-13654017D01*
X13340983Y-13396874D01*
X13726697Y-13696874D02*
X13726697Y-13396874D01*
X13826697Y-13611160D01*
X13926697Y-13396874D01*
X13926697Y-13696874D01*
X14198126Y-13696874D02*
X14198126Y-13539731D01*
X14183840Y-13511160D01*
X14155268Y-13496874D01*
X14098126Y-13496874D01*
X14069554Y-13511160D01*
X14198126Y-13682589D02*
X14169554Y-13696874D01*
X14098126Y-13696874D01*
X14069554Y-13682589D01*
X14055268Y-13654017D01*
X14055268Y-13625446D01*
X14069554Y-13596874D01*
X14098126Y-13582589D01*
X14169554Y-13582589D01*
X14198126Y-13568303D01*
X14340983Y-13496874D02*
X14340983Y-13796874D01*
X14340983Y-13511160D02*
X14369554Y-13496874D01*
X14426697Y-13496874D01*
X14455268Y-13511160D01*
X14469554Y-13525446D01*
X14483840Y-13554017D01*
X14483840Y-13639731D01*
X14469554Y-13668303D01*
X14455268Y-13682589D01*
X14426697Y-13696874D01*
X14369554Y-13696874D01*
X14340983Y-13682589D01*
X14612411Y-13668303D02*
X14626697Y-13682589D01*
X14612411Y-13696874D01*
X14598126Y-13682589D01*
X14612411Y-13668303D01*
X14612411Y-13696874D01*
X14612411Y-13511160D02*
X14626697Y-13525446D01*
X14612411Y-13539731D01*
X14598126Y-13525446D01*
X14612411Y-13511160D01*
X14612411Y-13539731D01*
X12178840Y-14146160D02*
X12268840Y-14236160D01*
X12268840Y-14146160D02*
X12178840Y-14236160D01*
X12612411Y-14026874D02*
X12640983Y-14026874D01*
X12669554Y-14041160D01*
X12683840Y-14055446D01*
X12698126Y-14084017D01*
X12712411Y-14141160D01*
X12712411Y-14212589D01*
X12698126Y-14269731D01*
X12683840Y-14298303D01*
X12669554Y-14312589D01*
X12640983Y-14326874D01*
X12612411Y-14326874D01*
X12583840Y-14312589D01*
X12569554Y-14298303D01*
X12555268Y-14269731D01*
X12540983Y-14212589D01*
X12540983Y-14141160D01*
X12555268Y-14084017D01*
X12569554Y-14055446D01*
X12583840Y-14041160D01*
X12612411Y-14026874D01*
X12840983Y-14298303D02*
X12855268Y-14312589D01*
X12840983Y-14326874D01*
X12826697Y-14312589D01*
X12840983Y-14298303D01*
X12840983Y-14326874D01*
X12998126Y-14326874D02*
X13055268Y-14326874D01*
X13083840Y-14312589D01*
X13098126Y-14298303D01*
X13126697Y-14255446D01*
X13140983Y-14198303D01*
X13140983Y-14084017D01*
X13126697Y-14055446D01*
X13112411Y-14041160D01*
X13083840Y-14026874D01*
X13026697Y-14026874D01*
X12998126Y-14041160D01*
X12983840Y-14055446D01*
X12969554Y-14084017D01*
X12969554Y-14155446D01*
X12983840Y-14184017D01*
X12998126Y-14198303D01*
X13026697Y-14212589D01*
X13083840Y-14212589D01*
X13112411Y-14198303D01*
X13126697Y-14184017D01*
X13140983Y-14155446D01*
X13326697Y-14026874D02*
X13355268Y-14026874D01*
X13383840Y-14041160D01*
X13398126Y-14055446D01*
X13412411Y-14084017D01*
X13426697Y-14141160D01*
X13426697Y-14212589D01*
X13412411Y-14269731D01*
X13398126Y-14298303D01*
X13383840Y-14312589D01*
X13355268Y-14326874D01*
X13326697Y-14326874D01*
X13298126Y-14312589D01*
X13283840Y-14298303D01*
X13269554Y-14269731D01*
X13255268Y-14212589D01*
X13255268Y-14141160D01*
X13269554Y-14084017D01*
X13283840Y-14055446D01*
X13298126Y-14041160D01*
X13326697Y-14026874D01*
X13612411Y-14026874D02*
X13640983Y-14026874D01*
X13669554Y-14041160D01*
X13683840Y-14055446D01*
X13698126Y-14084017D01*
X13712411Y-14141160D01*
X13712411Y-14212589D01*
X13698126Y-14269731D01*
X13683840Y-14298303D01*
X13669554Y-14312589D01*
X13640983Y-14326874D01*
X13612411Y-14326874D01*
X13583840Y-14312589D01*
X13569554Y-14298303D01*
X13555268Y-14269731D01*
X13540983Y-14212589D01*
X13540983Y-14141160D01*
X13555268Y-14084017D01*
X13569554Y-14055446D01*
X13583840Y-14041160D01*
X13612411Y-14026874D01*
X13840983Y-14326874D02*
X13840983Y-14126874D01*
X13840983Y-14155446D02*
X13855268Y-14141160D01*
X13883840Y-14126874D01*
X13926697Y-14126874D01*
X13955268Y-14141160D01*
X13969554Y-14169731D01*
X13969554Y-14326874D01*
X13969554Y-14169731D02*
X13983840Y-14141160D01*
X14012411Y-14126874D01*
X14055268Y-14126874D01*
X14083840Y-14141160D01*
X14098126Y-14169731D01*
X14098126Y-14326874D01*
X14240983Y-14326874D02*
X14240983Y-14126874D01*
X14240983Y-14155446D02*
X14255268Y-14141160D01*
X14283840Y-14126874D01*
X14326697Y-14126874D01*
X14355268Y-14141160D01*
X14369554Y-14169731D01*
X14369554Y-14326874D01*
X14369554Y-14169731D02*
X14383840Y-14141160D01*
X14412411Y-14126874D01*
X14455268Y-14126874D01*
X14483840Y-14141160D01*
X14498126Y-14169731D01*
X14498126Y-14326874D01*
X15083840Y-14012589D02*
X14826697Y-14398303D01*
X15469554Y-14026874D02*
X15498126Y-14026874D01*
X15526697Y-14041160D01*
X15540983Y-14055446D01*
X15555268Y-14084017D01*
X15569554Y-14141160D01*
X15569554Y-14212589D01*
X15555268Y-14269731D01*
X15540983Y-14298303D01*
X15526697Y-14312589D01*
X15498126Y-14326874D01*
X15469554Y-14326874D01*
X15440983Y-14312589D01*
X15426697Y-14298303D01*
X15412411Y-14269731D01*
X15398126Y-14212589D01*
X15398126Y-14141160D01*
X15412411Y-14084017D01*
X15426697Y-14055446D01*
X15440983Y-14041160D01*
X15469554Y-14026874D01*
X15698126Y-14298303D02*
X15712411Y-14312589D01*
X15698126Y-14326874D01*
X15683840Y-14312589D01*
X15698126Y-14298303D01*
X15698126Y-14326874D01*
X15898126Y-14026874D02*
X15926697Y-14026874D01*
X15955268Y-14041160D01*
X15969554Y-14055446D01*
X15983840Y-14084017D01*
X15998126Y-14141160D01*
X15998126Y-14212589D01*
X15983840Y-14269731D01*
X15969554Y-14298303D01*
X15955268Y-14312589D01*
X15926697Y-14326874D01*
X15898126Y-14326874D01*
X15869554Y-14312589D01*
X15855268Y-14298303D01*
X15840983Y-14269731D01*
X15826697Y-14212589D01*
X15826697Y-14141160D01*
X15840983Y-14084017D01*
X15855268Y-14055446D01*
X15869554Y-14041160D01*
X15898126Y-14026874D01*
X16098126Y-14026874D02*
X16283840Y-14026874D01*
X16183840Y-14141160D01*
X16226697Y-14141160D01*
X16255268Y-14155446D01*
X16269554Y-14169731D01*
X16283840Y-14198303D01*
X16283840Y-14269731D01*
X16269554Y-14298303D01*
X16255268Y-14312589D01*
X16226697Y-14326874D01*
X16140983Y-14326874D01*
X16112411Y-14312589D01*
X16098126Y-14298303D01*
X16555268Y-14026874D02*
X16412411Y-14026874D01*
X16398126Y-14169731D01*
X16412411Y-14155446D01*
X16440983Y-14141160D01*
X16512411Y-14141160D01*
X16540983Y-14155446D01*
X16555268Y-14169731D01*
X16569554Y-14198303D01*
X16569554Y-14269731D01*
X16555268Y-14298303D01*
X16540983Y-14312589D01*
X16512411Y-14326874D01*
X16440983Y-14326874D01*
X16412411Y-14312589D01*
X16398126Y-14298303D01*
X16826697Y-14126874D02*
X16826697Y-14326874D01*
X16755268Y-14012589D02*
X16683840Y-14226874D01*
X16869554Y-14226874D01*
X16969554Y-14026874D02*
X16969554Y-14084017D01*
X17083840Y-14026874D02*
X17083840Y-14084017D01*
X17526697Y-14441160D02*
X17512411Y-14426874D01*
X17483840Y-14384017D01*
X17469554Y-14355446D01*
X17455268Y-14312589D01*
X17440983Y-14241160D01*
X17440983Y-14184017D01*
X17455268Y-14112589D01*
X17469554Y-14069731D01*
X17483840Y-14041160D01*
X17512411Y-13998303D01*
X17526697Y-13984017D01*
X17626697Y-14055446D02*
X17640983Y-14041160D01*
X17669554Y-14026874D01*
X17740983Y-14026874D01*
X17769554Y-14041160D01*
X17783840Y-14055446D01*
X17798126Y-14084017D01*
X17798126Y-14112589D01*
X17783840Y-14155446D01*
X17612411Y-14326874D01*
X17798126Y-14326874D01*
X18155268Y-14326874D02*
X18155268Y-14026874D01*
X18283840Y-14326874D02*
X18283840Y-14169731D01*
X18269554Y-14141160D01*
X18240983Y-14126874D01*
X18198126Y-14126874D01*
X18169554Y-14141160D01*
X18155268Y-14155446D01*
X18469554Y-14326874D02*
X18440983Y-14312589D01*
X18426697Y-14298303D01*
X18412411Y-14269731D01*
X18412411Y-14184017D01*
X18426697Y-14155446D01*
X18440983Y-14141160D01*
X18469554Y-14126874D01*
X18512411Y-14126874D01*
X18540983Y-14141160D01*
X18555268Y-14155446D01*
X18569554Y-14184017D01*
X18569554Y-14269731D01*
X18555268Y-14298303D01*
X18540983Y-14312589D01*
X18512411Y-14326874D01*
X18469554Y-14326874D01*
X18740983Y-14326874D02*
X18712411Y-14312589D01*
X18698126Y-14284017D01*
X18698126Y-14026874D01*
X18969554Y-14312589D02*
X18940983Y-14326874D01*
X18883840Y-14326874D01*
X18855268Y-14312589D01*
X18840983Y-14284017D01*
X18840983Y-14169731D01*
X18855268Y-14141160D01*
X18883840Y-14126874D01*
X18940983Y-14126874D01*
X18969554Y-14141160D01*
X18983840Y-14169731D01*
X18983840Y-14198303D01*
X18840983Y-14226874D01*
X19098126Y-14312589D02*
X19126697Y-14326874D01*
X19183840Y-14326874D01*
X19212411Y-14312589D01*
X19226697Y-14284017D01*
X19226697Y-14269731D01*
X19212411Y-14241160D01*
X19183840Y-14226874D01*
X19140983Y-14226874D01*
X19112411Y-14212589D01*
X19098126Y-14184017D01*
X19098126Y-14169731D01*
X19112411Y-14141160D01*
X19140983Y-14126874D01*
X19183840Y-14126874D01*
X19212411Y-14141160D01*
X19326697Y-14441160D02*
X19340983Y-14426874D01*
X19369554Y-14384017D01*
X19383840Y-14355446D01*
X19398126Y-14312589D01*
X19412411Y-14241160D01*
X19412411Y-14184017D01*
X19398126Y-14112589D01*
X19383840Y-14069731D01*
X19369554Y-14041160D01*
X19340983Y-13998303D01*
X19326697Y-13984017D01*
X19869554Y-14441160D02*
X19855268Y-14426874D01*
X19826697Y-14384017D01*
X19812411Y-14355446D01*
X19798126Y-14312589D01*
X19783840Y-14241160D01*
X19783840Y-14184017D01*
X19798126Y-14112589D01*
X19812411Y-14069731D01*
X19826697Y-14041160D01*
X19855268Y-13998303D01*
X19869554Y-13984017D01*
X19983840Y-14126874D02*
X19983840Y-14326874D01*
X19983840Y-14155446D02*
X19998126Y-14141160D01*
X20026697Y-14126874D01*
X20069554Y-14126874D01*
X20098126Y-14141160D01*
X20112411Y-14169731D01*
X20112411Y-14326874D01*
X20298126Y-14326874D02*
X20269554Y-14312589D01*
X20255268Y-14298303D01*
X20240983Y-14269731D01*
X20240983Y-14184017D01*
X20255268Y-14155446D01*
X20269554Y-14141160D01*
X20298126Y-14126874D01*
X20340983Y-14126874D01*
X20369554Y-14141160D01*
X20383840Y-14155446D01*
X20398126Y-14184017D01*
X20398126Y-14269731D01*
X20383840Y-14298303D01*
X20369554Y-14312589D01*
X20340983Y-14326874D01*
X20298126Y-14326874D01*
X20483840Y-14126874D02*
X20598126Y-14126874D01*
X20526697Y-14026874D02*
X20526697Y-14284017D01*
X20540983Y-14312589D01*
X20569554Y-14326874D01*
X20598126Y-14326874D01*
X20926697Y-14126874D02*
X20926697Y-14426874D01*
X20926697Y-14141160D02*
X20955268Y-14126874D01*
X21012411Y-14126874D01*
X21040983Y-14141160D01*
X21055268Y-14155446D01*
X21069554Y-14184017D01*
X21069554Y-14269731D01*
X21055268Y-14298303D01*
X21040983Y-14312589D01*
X21012411Y-14326874D01*
X20955268Y-14326874D01*
X20926697Y-14312589D01*
X21240983Y-14326874D02*
X21212411Y-14312589D01*
X21198126Y-14284017D01*
X21198126Y-14026874D01*
X21483840Y-14326874D02*
X21483840Y-14169731D01*
X21469554Y-14141160D01*
X21440983Y-14126874D01*
X21383840Y-14126874D01*
X21355268Y-14141160D01*
X21483840Y-14312589D02*
X21455268Y-14326874D01*
X21383840Y-14326874D01*
X21355268Y-14312589D01*
X21340983Y-14284017D01*
X21340983Y-14255446D01*
X21355268Y-14226874D01*
X21383840Y-14212589D01*
X21455268Y-14212589D01*
X21483840Y-14198303D01*
X21583840Y-14126874D02*
X21698126Y-14126874D01*
X21626697Y-14026874D02*
X21626697Y-14284017D01*
X21640983Y-14312589D01*
X21669554Y-14326874D01*
X21698126Y-14326874D01*
X21912411Y-14312589D02*
X21883840Y-14326874D01*
X21826697Y-14326874D01*
X21798126Y-14312589D01*
X21783840Y-14284017D01*
X21783840Y-14169731D01*
X21798126Y-14141160D01*
X21826697Y-14126874D01*
X21883840Y-14126874D01*
X21912411Y-14141160D01*
X21926697Y-14169731D01*
X21926697Y-14198303D01*
X21783840Y-14226874D01*
X22183840Y-14326874D02*
X22183840Y-14026874D01*
X22183840Y-14312589D02*
X22155268Y-14326874D01*
X22098126Y-14326874D01*
X22069554Y-14312589D01*
X22055268Y-14298303D01*
X22040983Y-14269731D01*
X22040983Y-14184017D01*
X22055268Y-14155446D01*
X22069554Y-14141160D01*
X22098126Y-14126874D01*
X22155268Y-14126874D01*
X22183840Y-14141160D01*
X22298126Y-14441160D02*
X22312411Y-14426874D01*
X22340983Y-14384017D01*
X22355268Y-14355446D01*
X22369554Y-14312589D01*
X22383840Y-14241160D01*
X22383840Y-14184017D01*
X22369554Y-14112589D01*
X22355268Y-14069731D01*
X22340983Y-14041160D01*
X22312411Y-13998303D01*
X22298126Y-13984017D01*
M02*
