G04 #@! TF.GenerationSoftware,KiCad,Pcbnew,(5.1.10)-1*
G04 #@! TF.CreationDate,2021-08-05T17:19:02-07:00*
G04 #@! TF.ProjectId,laser,6c617365-722e-46b6-9963-61645f706362,rev?*
G04 #@! TF.SameCoordinates,Original*
G04 #@! TF.FileFunction,Copper,L2,Inr*
G04 #@! TF.FilePolarity,Positive*
%FSLAX46Y46*%
G04 Gerber Fmt 4.6, Leading zero omitted, Abs format (unit mm)*
G04 Created by KiCad (PCBNEW (5.1.10)-1) date 2021-08-05 17:19:02*
%MOMM*%
%LPD*%
G01*
G04 APERTURE LIST*
G04 #@! TA.AperFunction,ComponentPad*
%ADD10C,4.200000*%
G04 #@! TD*
G04 #@! TA.AperFunction,ComponentPad*
%ADD11C,4.500000*%
G04 #@! TD*
G04 #@! TA.AperFunction,ComponentPad*
%ADD12C,1.650000*%
G04 #@! TD*
G04 #@! TA.AperFunction,ComponentPad*
%ADD13R,1.650000X1.650000*%
G04 #@! TD*
G04 #@! TA.AperFunction,ComponentPad*
%ADD14C,1.524000*%
G04 #@! TD*
G04 #@! TA.AperFunction,ViaPad*
%ADD15C,0.800000*%
G04 #@! TD*
G04 #@! TA.AperFunction,ViaPad*
%ADD16C,1.000000*%
G04 #@! TD*
G04 #@! TA.AperFunction,ViaPad*
%ADD17C,1.500000*%
G04 #@! TD*
G04 #@! TA.AperFunction,Conductor*
%ADD18C,0.254000*%
G04 #@! TD*
G04 #@! TA.AperFunction,Conductor*
%ADD19C,0.100000*%
G04 #@! TD*
G04 APERTURE END LIST*
D10*
X205841600Y-129700000D03*
X205867000Y-83903800D03*
D11*
X126263400Y-93225600D03*
X152374600Y-93200200D03*
X152298400Y-121267200D03*
X126263400Y-121165600D03*
X130835400Y-129674600D03*
X130830000Y-83930000D03*
D12*
X207550000Y-115950000D03*
X205010000Y-115950000D03*
X202470000Y-115950000D03*
X207550000Y-113410000D03*
X205010000Y-113410000D03*
D13*
X202470000Y-113410000D03*
D14*
X206000000Y-119620000D03*
X206000000Y-122160000D03*
X206000000Y-124700000D03*
D15*
X188090000Y-130930000D03*
X173890000Y-114280000D03*
X169290000Y-108730000D03*
X130400000Y-123800000D03*
X165170000Y-84140000D03*
X180840002Y-83940000D03*
X199310000Y-83429988D03*
D16*
X176819999Y-99999999D03*
X163170001Y-99999999D03*
X178400000Y-99990000D03*
X179490000Y-84000000D03*
X143070000Y-123619998D03*
X163780000Y-84130000D03*
D15*
X192500000Y-118930000D03*
X188070000Y-129200000D03*
X190050000Y-119070000D03*
X165250000Y-112400000D03*
X165280000Y-118410000D03*
X184810000Y-125920000D03*
X180900000Y-102290000D03*
X181720000Y-120790000D03*
X184690000Y-119100000D03*
X181480000Y-128499998D03*
X177750000Y-118120000D03*
X190740000Y-89120000D03*
X185760000Y-99610000D03*
X173440000Y-108670000D03*
X139580000Y-129650002D03*
X142820000Y-129120000D03*
X137910000Y-96900000D03*
X202520000Y-87030000D03*
X185640000Y-85460000D03*
D16*
X192350000Y-83740000D03*
D15*
X201880000Y-97970000D03*
X196380000Y-105450000D03*
X193980000Y-116520000D03*
X189750000Y-116030000D03*
X196728047Y-111597281D03*
X207530000Y-100730000D03*
X188470000Y-84130000D03*
X205700000Y-87290000D03*
X192010000Y-89900000D03*
X158330000Y-121330000D03*
X174080000Y-112110000D03*
X175188513Y-117720949D03*
X176030000Y-122350009D03*
X173070000Y-102010000D03*
X183890000Y-110030000D03*
X161910000Y-97870000D03*
X154110000Y-88760000D03*
X155990000Y-122590000D03*
X183305000Y-123145000D03*
X163650000Y-123520000D03*
X166279933Y-118421763D03*
X166010000Y-127860000D03*
X180650000Y-100190000D03*
X175590000Y-108580000D03*
X190793884Y-83924565D03*
X187680000Y-87725000D03*
D17*
X211790000Y-99230000D03*
D15*
X196976300Y-113587972D03*
X191370000Y-105170000D03*
X182184849Y-97485151D03*
X168230000Y-97420000D03*
X174010000Y-84110002D03*
X183960000Y-100480000D03*
X159355000Y-83914998D03*
X184010000Y-101760000D03*
X188030000Y-112260000D03*
X187690000Y-117140000D03*
X189138061Y-114867001D03*
X202055127Y-105792042D03*
X202040000Y-107360000D03*
X164847500Y-123497500D03*
X196100000Y-125260000D03*
X184865349Y-123870000D03*
X179520000Y-119440000D03*
X168750000Y-114550000D03*
X182580000Y-127740000D03*
X176920000Y-107270000D03*
X177712420Y-102692115D03*
X181870000Y-105260000D03*
X184350000Y-106380000D03*
X193050150Y-127392520D03*
X138470000Y-124900000D03*
X195680000Y-122390000D03*
X202070000Y-103670000D03*
X159900000Y-89670000D03*
X168060000Y-89670000D03*
X166820000Y-89650000D03*
X164420000Y-89640000D03*
X163270000Y-89620000D03*
X162130000Y-89620000D03*
X172150000Y-126880000D03*
X178160000Y-120170000D03*
X181250000Y-115060000D03*
X184010000Y-115550000D03*
D16*
X198820000Y-84700000D03*
X196800000Y-89450000D03*
D15*
X178700000Y-106450000D03*
X168420000Y-111950000D03*
X167200000Y-112300000D03*
X160900000Y-125180000D03*
X158250000Y-123520000D03*
X156100000Y-126550000D03*
X184650000Y-84850000D03*
X170650000Y-85200000D03*
X156663700Y-86063700D03*
X184863700Y-95486300D03*
X194210000Y-118890000D03*
X200310000Y-127120000D03*
X196750000Y-130680000D03*
D16*
X198850000Y-85890000D03*
D15*
X174850000Y-126400000D03*
X184360000Y-129540000D03*
X167760000Y-101100000D03*
X165720000Y-97950000D03*
X188100000Y-127940000D03*
X195240000Y-128160000D03*
X191520000Y-130190000D03*
X182200000Y-84000000D03*
X168150000Y-84010000D03*
X175340000Y-84250000D03*
X193170000Y-113240000D03*
X197040000Y-112590000D03*
X173450000Y-97870000D03*
X170340000Y-101110000D03*
X168470002Y-129940000D03*
X171019995Y-112050005D03*
X184679475Y-118100053D03*
X172359998Y-120780000D03*
X195100000Y-116620000D03*
X160996089Y-89626089D03*
X165620000Y-89630000D03*
X159900000Y-90670000D03*
X159900000Y-91670000D03*
X162130000Y-90620000D03*
X162130000Y-91620000D03*
X160996089Y-90626089D03*
X160996089Y-91626089D03*
X164420000Y-90640000D03*
X164420000Y-91640000D03*
X165620000Y-90630000D03*
X165620000Y-91630000D03*
X163270000Y-90620000D03*
X163270000Y-91620000D03*
X168060000Y-90670000D03*
X168060000Y-91670000D03*
X166820000Y-90650000D03*
X166820000Y-91650000D03*
X173550000Y-90800000D03*
X181710000Y-90800000D03*
X180470000Y-91780000D03*
X179270000Y-90760000D03*
X179270000Y-91760000D03*
X181710000Y-91800000D03*
X175780000Y-90750000D03*
X180470000Y-90780000D03*
X178070000Y-91770000D03*
X174646089Y-91756089D03*
X176920000Y-91750000D03*
X174646089Y-90756089D03*
X176920000Y-90750000D03*
X178070000Y-90770000D03*
X175780000Y-91750000D03*
X173550000Y-89800000D03*
X173550000Y-91800000D03*
X175780000Y-89750000D03*
X174646089Y-89756089D03*
X178070000Y-89770000D03*
X179270000Y-89760000D03*
X176920000Y-89750000D03*
X181710000Y-89800000D03*
X180470000Y-89780000D03*
X160617660Y-83917660D03*
X171875000Y-97795010D03*
X169516551Y-97795010D03*
X177760000Y-84520000D03*
X196940000Y-110620000D03*
X192890000Y-105020000D03*
X192573361Y-85595010D03*
X168180000Y-120080000D03*
X175910000Y-113760000D03*
X176712660Y-106037340D03*
X161330000Y-121390000D03*
X200360002Y-126250000D03*
X201399972Y-88050000D03*
X192520000Y-88030000D03*
X197930000Y-120270000D03*
X140550000Y-123870000D03*
X158890010Y-113430000D03*
X183740000Y-124740002D03*
X161500000Y-113400000D03*
X200240001Y-116655321D03*
X159867825Y-98622175D03*
X202960000Y-119260000D03*
X202639986Y-100870000D03*
X211900000Y-88440000D03*
X186490000Y-125010000D03*
X178370000Y-121495000D03*
X175790000Y-120870000D03*
X192480000Y-124365000D03*
X201130000Y-130370000D03*
X211770000Y-95460000D03*
D18*
X203948358Y-82164766D02*
X203571359Y-82392899D01*
X203320708Y-82869789D01*
X203167908Y-83386414D01*
X203118833Y-83922922D01*
X203175369Y-84458696D01*
X203335343Y-84973145D01*
X203571359Y-85414701D01*
X203948360Y-85642835D01*
X205687395Y-83903800D01*
X205673253Y-83889658D01*
X205852858Y-83710053D01*
X205867000Y-83724195D01*
X205881143Y-83710053D01*
X206060748Y-83889658D01*
X206046605Y-83903800D01*
X206060748Y-83917943D01*
X205881143Y-84097548D01*
X205867000Y-84083405D01*
X204127965Y-85822440D01*
X204356099Y-86199441D01*
X204832989Y-86450092D01*
X205020683Y-86505606D01*
X204896063Y-86630226D01*
X204782795Y-86799744D01*
X204704774Y-86988102D01*
X204665000Y-87188061D01*
X204665000Y-87391939D01*
X204704774Y-87591898D01*
X204782795Y-87780256D01*
X204896063Y-87949774D01*
X205040226Y-88093937D01*
X205209744Y-88207205D01*
X205398102Y-88285226D01*
X205598061Y-88325000D01*
X205801939Y-88325000D01*
X206001898Y-88285226D01*
X206190256Y-88207205D01*
X206359774Y-88093937D01*
X206503937Y-87949774D01*
X206617205Y-87780256D01*
X206695226Y-87591898D01*
X206735000Y-87391939D01*
X206735000Y-87188061D01*
X206695226Y-86988102D01*
X206617205Y-86799744D01*
X206503937Y-86630226D01*
X206457935Y-86584224D01*
X206936345Y-86435457D01*
X207245000Y-86270478D01*
X207245000Y-87292014D01*
X207241436Y-87328200D01*
X207255658Y-87472599D01*
X207297778Y-87611449D01*
X207366176Y-87739413D01*
X207458225Y-87851575D01*
X207570387Y-87943624D01*
X207698351Y-88012022D01*
X207837201Y-88054142D01*
X207981600Y-88068364D01*
X208017786Y-88064800D01*
X212248801Y-88064800D01*
X212248801Y-94538050D01*
X212071898Y-94464774D01*
X211871939Y-94425000D01*
X211668061Y-94425000D01*
X211468102Y-94464774D01*
X211279744Y-94542795D01*
X211110226Y-94656063D01*
X210966063Y-94800226D01*
X210852795Y-94969744D01*
X210774774Y-95158102D01*
X210735000Y-95358061D01*
X210735000Y-95561939D01*
X210774774Y-95761898D01*
X210852795Y-95950256D01*
X210966063Y-96119774D01*
X211110226Y-96263937D01*
X211279744Y-96377205D01*
X211468102Y-96455226D01*
X211668061Y-96495000D01*
X211871939Y-96495000D01*
X212071898Y-96455226D01*
X212248801Y-96381950D01*
X212248801Y-97920929D01*
X212193989Y-97898225D01*
X211926411Y-97845000D01*
X211653589Y-97845000D01*
X211386011Y-97898225D01*
X211133957Y-98002629D01*
X210907114Y-98154201D01*
X210714201Y-98347114D01*
X210562629Y-98573957D01*
X210458225Y-98826011D01*
X210405000Y-99093589D01*
X210405000Y-99366411D01*
X210458225Y-99633989D01*
X210562629Y-99886043D01*
X210714201Y-100112886D01*
X210907114Y-100305799D01*
X211133957Y-100457371D01*
X211386011Y-100561775D01*
X211653589Y-100615000D01*
X211926411Y-100615000D01*
X212193989Y-100561775D01*
X212248801Y-100539071D01*
X212248800Y-125479000D01*
X208017786Y-125479000D01*
X207981600Y-125475436D01*
X207945414Y-125479000D01*
X207837201Y-125489658D01*
X207698351Y-125531778D01*
X207570387Y-125600176D01*
X207458225Y-125692225D01*
X207366176Y-125804387D01*
X207297778Y-125932351D01*
X207255658Y-126071201D01*
X207241436Y-126215600D01*
X207245001Y-126251796D01*
X207245001Y-127347857D01*
X206875611Y-127153708D01*
X206358986Y-127000908D01*
X205822478Y-126951833D01*
X205286704Y-127008369D01*
X204772255Y-127168343D01*
X204330699Y-127404359D01*
X204102565Y-127781360D01*
X205841600Y-129520395D01*
X205855743Y-129506253D01*
X206035348Y-129685858D01*
X206021205Y-129700000D01*
X206035348Y-129714143D01*
X205855743Y-129893748D01*
X205841600Y-129879605D01*
X205827458Y-129893748D01*
X205647853Y-129714143D01*
X205661995Y-129700000D01*
X203922960Y-127960965D01*
X203545959Y-128189099D01*
X203295308Y-128665989D01*
X203142508Y-129182614D01*
X203093433Y-129719122D01*
X203149969Y-130254896D01*
X203309943Y-130769345D01*
X203545959Y-131210901D01*
X203922958Y-131439034D01*
X203888592Y-131473400D01*
X188971695Y-131473400D01*
X189007205Y-131420256D01*
X189085226Y-131231898D01*
X189125000Y-131031939D01*
X189125000Y-130828061D01*
X189085226Y-130628102D01*
X189007205Y-130439744D01*
X188893937Y-130270226D01*
X188891772Y-130268061D01*
X200095000Y-130268061D01*
X200095000Y-130471939D01*
X200134774Y-130671898D01*
X200212795Y-130860256D01*
X200326063Y-131029774D01*
X200470226Y-131173937D01*
X200639744Y-131287205D01*
X200828102Y-131365226D01*
X201028061Y-131405000D01*
X201231939Y-131405000D01*
X201431898Y-131365226D01*
X201620256Y-131287205D01*
X201789774Y-131173937D01*
X201933937Y-131029774D01*
X202047205Y-130860256D01*
X202125226Y-130671898D01*
X202165000Y-130471939D01*
X202165000Y-130268061D01*
X202125226Y-130068102D01*
X202047205Y-129879744D01*
X201933937Y-129710226D01*
X201789774Y-129566063D01*
X201620256Y-129452795D01*
X201431898Y-129374774D01*
X201231939Y-129335000D01*
X201028061Y-129335000D01*
X200828102Y-129374774D01*
X200639744Y-129452795D01*
X200470226Y-129566063D01*
X200326063Y-129710226D01*
X200212795Y-129879744D01*
X200134774Y-130068102D01*
X200095000Y-130268061D01*
X188891772Y-130268061D01*
X188749774Y-130126063D01*
X188648387Y-130058318D01*
X188729774Y-130003937D01*
X188873937Y-129859774D01*
X188987205Y-129690256D01*
X189065226Y-129501898D01*
X189105000Y-129301939D01*
X189105000Y-129098061D01*
X189065226Y-128898102D01*
X188987205Y-128709744D01*
X188873937Y-128540226D01*
X188729774Y-128396063D01*
X188560256Y-128282795D01*
X188371898Y-128204774D01*
X188171939Y-128165000D01*
X187968061Y-128165000D01*
X187768102Y-128204774D01*
X187579744Y-128282795D01*
X187410226Y-128396063D01*
X187266063Y-128540226D01*
X187152795Y-128709744D01*
X187074774Y-128898102D01*
X187035000Y-129098061D01*
X187035000Y-129301939D01*
X187074774Y-129501898D01*
X187152795Y-129690256D01*
X187266063Y-129859774D01*
X187410226Y-130003937D01*
X187511613Y-130071682D01*
X187430226Y-130126063D01*
X187286063Y-130270226D01*
X187172795Y-130439744D01*
X187094774Y-130628102D01*
X187055000Y-130828061D01*
X187055000Y-131031939D01*
X187094774Y-131231898D01*
X187172795Y-131420256D01*
X187208305Y-131473400D01*
X132935554Y-131473400D01*
X133253104Y-131274184D01*
X133518712Y-130771778D01*
X133681201Y-130227207D01*
X133734328Y-129661401D01*
X133722645Y-129548063D01*
X138545000Y-129548063D01*
X138545000Y-129751941D01*
X138584774Y-129951900D01*
X138662795Y-130140258D01*
X138776063Y-130309776D01*
X138920226Y-130453939D01*
X139089744Y-130567207D01*
X139278102Y-130645228D01*
X139478061Y-130685002D01*
X139681939Y-130685002D01*
X139881898Y-130645228D01*
X140070256Y-130567207D01*
X140239774Y-130453939D01*
X140383937Y-130309776D01*
X140497205Y-130140258D01*
X140575226Y-129951900D01*
X140615000Y-129751941D01*
X140615000Y-129548063D01*
X140575226Y-129348104D01*
X140497205Y-129159746D01*
X140402535Y-129018061D01*
X141785000Y-129018061D01*
X141785000Y-129221939D01*
X141824774Y-129421898D01*
X141902795Y-129610256D01*
X142016063Y-129779774D01*
X142160226Y-129923937D01*
X142329744Y-130037205D01*
X142518102Y-130115226D01*
X142718061Y-130155000D01*
X142921939Y-130155000D01*
X143121898Y-130115226D01*
X143310256Y-130037205D01*
X143479774Y-129923937D01*
X143623937Y-129779774D01*
X143737205Y-129610256D01*
X143815226Y-129421898D01*
X143855000Y-129221939D01*
X143855000Y-129018061D01*
X143815226Y-128818102D01*
X143737205Y-128629744D01*
X143623937Y-128460226D01*
X143479774Y-128316063D01*
X143310256Y-128202795D01*
X143121898Y-128124774D01*
X142921939Y-128085000D01*
X142718061Y-128085000D01*
X142518102Y-128124774D01*
X142329744Y-128202795D01*
X142160226Y-128316063D01*
X142016063Y-128460226D01*
X141902795Y-128629744D01*
X141824774Y-128818102D01*
X141785000Y-129018061D01*
X140402535Y-129018061D01*
X140383937Y-128990228D01*
X140239774Y-128846065D01*
X140070256Y-128732797D01*
X139881898Y-128654776D01*
X139681939Y-128615002D01*
X139478061Y-128615002D01*
X139278102Y-128654776D01*
X139089744Y-128732797D01*
X138920226Y-128846065D01*
X138776063Y-128990228D01*
X138662795Y-129159746D01*
X138584774Y-129348104D01*
X138545000Y-129548063D01*
X133722645Y-129548063D01*
X133676052Y-129096102D01*
X133508610Y-128553034D01*
X133253104Y-128075016D01*
X132860740Y-127828865D01*
X131015005Y-129674600D01*
X131029148Y-129688743D01*
X130849543Y-129868348D01*
X130835400Y-129854205D01*
X130821258Y-129868348D01*
X130641653Y-129688743D01*
X130655795Y-129674600D01*
X128810060Y-127828865D01*
X128505000Y-128020246D01*
X128505000Y-127649260D01*
X128989665Y-127649260D01*
X130835400Y-129494995D01*
X132572334Y-127758061D01*
X164975000Y-127758061D01*
X164975000Y-127961939D01*
X165014774Y-128161898D01*
X165092795Y-128350256D01*
X165206063Y-128519774D01*
X165350226Y-128663937D01*
X165519744Y-128777205D01*
X165708102Y-128855226D01*
X165908061Y-128895000D01*
X166111939Y-128895000D01*
X166311898Y-128855226D01*
X166500256Y-128777205D01*
X166669774Y-128663937D01*
X166813937Y-128519774D01*
X166895264Y-128398059D01*
X180445000Y-128398059D01*
X180445000Y-128601937D01*
X180484774Y-128801896D01*
X180562795Y-128990254D01*
X180676063Y-129159772D01*
X180820226Y-129303935D01*
X180989744Y-129417203D01*
X181178102Y-129495224D01*
X181378061Y-129534998D01*
X181581939Y-129534998D01*
X181781898Y-129495224D01*
X181970256Y-129417203D01*
X182139774Y-129303935D01*
X182283937Y-129159772D01*
X182397205Y-128990254D01*
X182475226Y-128801896D01*
X182480576Y-128775000D01*
X182681939Y-128775000D01*
X182881898Y-128735226D01*
X183070256Y-128657205D01*
X183239774Y-128543937D01*
X183383937Y-128399774D01*
X183497205Y-128230256D01*
X183575226Y-128041898D01*
X183615000Y-127841939D01*
X183615000Y-127638061D01*
X183575226Y-127438102D01*
X183514121Y-127290581D01*
X192015150Y-127290581D01*
X192015150Y-127494459D01*
X192054924Y-127694418D01*
X192132945Y-127882776D01*
X192246213Y-128052294D01*
X192390376Y-128196457D01*
X192559894Y-128309725D01*
X192748252Y-128387746D01*
X192948211Y-128427520D01*
X193152089Y-128427520D01*
X193352048Y-128387746D01*
X193540406Y-128309725D01*
X193709924Y-128196457D01*
X193854087Y-128052294D01*
X193967355Y-127882776D01*
X194045376Y-127694418D01*
X194085150Y-127494459D01*
X194085150Y-127290581D01*
X194045376Y-127090622D01*
X193967355Y-126902264D01*
X193854087Y-126732746D01*
X193709924Y-126588583D01*
X193540406Y-126475315D01*
X193352048Y-126397294D01*
X193152089Y-126357520D01*
X192948211Y-126357520D01*
X192748252Y-126397294D01*
X192559894Y-126475315D01*
X192390376Y-126588583D01*
X192246213Y-126732746D01*
X192132945Y-126902264D01*
X192054924Y-127090622D01*
X192015150Y-127290581D01*
X183514121Y-127290581D01*
X183497205Y-127249744D01*
X183383937Y-127080226D01*
X183239774Y-126936063D01*
X183070256Y-126822795D01*
X182881898Y-126744774D01*
X182681939Y-126705000D01*
X182478061Y-126705000D01*
X182278102Y-126744774D01*
X182089744Y-126822795D01*
X181920226Y-126936063D01*
X181776063Y-127080226D01*
X181662795Y-127249744D01*
X181584774Y-127438102D01*
X181579424Y-127464998D01*
X181378061Y-127464998D01*
X181178102Y-127504772D01*
X180989744Y-127582793D01*
X180820226Y-127696061D01*
X180676063Y-127840224D01*
X180562795Y-128009742D01*
X180484774Y-128198100D01*
X180445000Y-128398059D01*
X166895264Y-128398059D01*
X166927205Y-128350256D01*
X167005226Y-128161898D01*
X167045000Y-127961939D01*
X167045000Y-127758061D01*
X167005226Y-127558102D01*
X166927205Y-127369744D01*
X166813937Y-127200226D01*
X166669774Y-127056063D01*
X166500256Y-126942795D01*
X166311898Y-126864774D01*
X166111939Y-126825000D01*
X165908061Y-126825000D01*
X165708102Y-126864774D01*
X165519744Y-126942795D01*
X165350226Y-127056063D01*
X165206063Y-127200226D01*
X165092795Y-127369744D01*
X165014774Y-127558102D01*
X164975000Y-127758061D01*
X132572334Y-127758061D01*
X132681135Y-127649260D01*
X132434984Y-127256896D01*
X131932578Y-126991288D01*
X131388007Y-126828799D01*
X130822201Y-126775672D01*
X130256902Y-126833948D01*
X129713834Y-127001390D01*
X129235816Y-127256896D01*
X128989665Y-127649260D01*
X128505000Y-127649260D01*
X128505000Y-126251785D01*
X128508564Y-126215600D01*
X128494342Y-126071201D01*
X128452222Y-125932351D01*
X128383824Y-125804387D01*
X128291775Y-125692225D01*
X128179613Y-125600176D01*
X128051649Y-125531778D01*
X127912799Y-125489658D01*
X127804586Y-125479000D01*
X127768400Y-125475436D01*
X127732214Y-125479000D01*
X123526600Y-125479000D01*
X123526600Y-123190940D01*
X124417665Y-123190940D01*
X124663816Y-123583304D01*
X125166222Y-123848912D01*
X125710793Y-124011401D01*
X126276599Y-124064528D01*
X126841898Y-124006252D01*
X127384966Y-123838810D01*
X127648288Y-123698061D01*
X129365000Y-123698061D01*
X129365000Y-123901939D01*
X129404774Y-124101898D01*
X129482795Y-124290256D01*
X129596063Y-124459774D01*
X129740226Y-124603937D01*
X129909744Y-124717205D01*
X130098102Y-124795226D01*
X130298061Y-124835000D01*
X130501939Y-124835000D01*
X130687645Y-124798061D01*
X137435000Y-124798061D01*
X137435000Y-125001939D01*
X137474774Y-125201898D01*
X137552795Y-125390256D01*
X137666063Y-125559774D01*
X137810226Y-125703937D01*
X137979744Y-125817205D01*
X138168102Y-125895226D01*
X138368061Y-125935000D01*
X138571939Y-125935000D01*
X138771898Y-125895226D01*
X138960256Y-125817205D01*
X139129774Y-125703937D01*
X139273937Y-125559774D01*
X139387205Y-125390256D01*
X139465226Y-125201898D01*
X139505000Y-125001939D01*
X139505000Y-124798061D01*
X139465226Y-124598102D01*
X139387205Y-124409744D01*
X139273937Y-124240226D01*
X139129774Y-124096063D01*
X138960256Y-123982795D01*
X138771898Y-123904774D01*
X138571939Y-123865000D01*
X138368061Y-123865000D01*
X138168102Y-123904774D01*
X137979744Y-123982795D01*
X137810226Y-124096063D01*
X137666063Y-124240226D01*
X137552795Y-124409744D01*
X137474774Y-124598102D01*
X137435000Y-124798061D01*
X130687645Y-124798061D01*
X130701898Y-124795226D01*
X130890256Y-124717205D01*
X131059774Y-124603937D01*
X131203937Y-124459774D01*
X131317205Y-124290256D01*
X131395226Y-124101898D01*
X131435000Y-123901939D01*
X131435000Y-123698061D01*
X131397237Y-123508210D01*
X141935000Y-123508210D01*
X141935000Y-123731786D01*
X141978617Y-123951065D01*
X142064176Y-124157622D01*
X142188388Y-124343518D01*
X142346480Y-124501610D01*
X142532376Y-124625822D01*
X142738933Y-124711381D01*
X142958212Y-124754998D01*
X143181788Y-124754998D01*
X143401067Y-124711381D01*
X143607624Y-124625822D01*
X143793520Y-124501610D01*
X143951612Y-124343518D01*
X144075824Y-124157622D01*
X144161383Y-123951065D01*
X144205000Y-123731786D01*
X144205000Y-123508210D01*
X144162101Y-123292540D01*
X150452665Y-123292540D01*
X150698816Y-123684904D01*
X151201222Y-123950512D01*
X151745793Y-124113001D01*
X152311599Y-124166128D01*
X152876898Y-124107852D01*
X153419966Y-123940410D01*
X153897984Y-123684904D01*
X154144135Y-123292540D01*
X152298400Y-121446805D01*
X150452665Y-123292540D01*
X144162101Y-123292540D01*
X144161383Y-123288931D01*
X144075824Y-123082374D01*
X143951612Y-122896478D01*
X143793520Y-122738386D01*
X143607624Y-122614174D01*
X143401067Y-122528615D01*
X143181788Y-122484998D01*
X142958212Y-122484998D01*
X142738933Y-122528615D01*
X142532376Y-122614174D01*
X142346480Y-122738386D01*
X142188388Y-122896478D01*
X142064176Y-123082374D01*
X141978617Y-123288931D01*
X141935000Y-123508210D01*
X131397237Y-123508210D01*
X131395226Y-123498102D01*
X131317205Y-123309744D01*
X131203937Y-123140226D01*
X131059774Y-122996063D01*
X130890256Y-122882795D01*
X130701898Y-122804774D01*
X130501939Y-122765000D01*
X130298061Y-122765000D01*
X130098102Y-122804774D01*
X129909744Y-122882795D01*
X129740226Y-122996063D01*
X129596063Y-123140226D01*
X129482795Y-123309744D01*
X129404774Y-123498102D01*
X129365000Y-123698061D01*
X127648288Y-123698061D01*
X127862984Y-123583304D01*
X128109135Y-123190940D01*
X126263400Y-121345205D01*
X124417665Y-123190940D01*
X123526600Y-123190940D01*
X123526600Y-122080923D01*
X123590190Y-122287166D01*
X123845696Y-122765184D01*
X124238060Y-123011335D01*
X126083795Y-121165600D01*
X126443005Y-121165600D01*
X128288740Y-123011335D01*
X128681104Y-122765184D01*
X128946712Y-122262778D01*
X129109201Y-121718207D01*
X129150309Y-121280399D01*
X149399472Y-121280399D01*
X149457748Y-121845698D01*
X149625190Y-122388766D01*
X149880696Y-122866784D01*
X150273060Y-123112935D01*
X152118795Y-121267200D01*
X152478005Y-121267200D01*
X154323740Y-123112935D01*
X154716104Y-122866784D01*
X154978329Y-122370777D01*
X154955000Y-122488061D01*
X154955000Y-122691939D01*
X154994774Y-122891898D01*
X155072795Y-123080256D01*
X155186063Y-123249774D01*
X155330226Y-123393937D01*
X155499744Y-123507205D01*
X155688102Y-123585226D01*
X155888061Y-123625000D01*
X156091939Y-123625000D01*
X156291898Y-123585226D01*
X156480256Y-123507205D01*
X156613669Y-123418061D01*
X162615000Y-123418061D01*
X162615000Y-123621939D01*
X162654774Y-123821898D01*
X162732795Y-124010256D01*
X162846063Y-124179774D01*
X162990226Y-124323937D01*
X163159744Y-124437205D01*
X163348102Y-124515226D01*
X163548061Y-124555000D01*
X163751939Y-124555000D01*
X163951898Y-124515226D01*
X164140256Y-124437205D01*
X164265587Y-124353462D01*
X164357244Y-124414705D01*
X164545602Y-124492726D01*
X164745561Y-124532500D01*
X164949439Y-124532500D01*
X165149398Y-124492726D01*
X165337756Y-124414705D01*
X165507274Y-124301437D01*
X165651437Y-124157274D01*
X165764705Y-123987756D01*
X165842726Y-123799398D01*
X165882500Y-123599439D01*
X165882500Y-123395561D01*
X165842726Y-123195602D01*
X165764705Y-123007244D01*
X165651437Y-122837726D01*
X165507274Y-122693563D01*
X165337756Y-122580295D01*
X165149398Y-122502274D01*
X164949439Y-122462500D01*
X164745561Y-122462500D01*
X164545602Y-122502274D01*
X164357244Y-122580295D01*
X164231913Y-122664038D01*
X164140256Y-122602795D01*
X163951898Y-122524774D01*
X163751939Y-122485000D01*
X163548061Y-122485000D01*
X163348102Y-122524774D01*
X163159744Y-122602795D01*
X162990226Y-122716063D01*
X162846063Y-122860226D01*
X162732795Y-123029744D01*
X162654774Y-123218102D01*
X162615000Y-123418061D01*
X156613669Y-123418061D01*
X156649774Y-123393937D01*
X156793937Y-123249774D01*
X156907205Y-123080256D01*
X156985226Y-122891898D01*
X157025000Y-122691939D01*
X157025000Y-122488061D01*
X156985226Y-122288102D01*
X156907205Y-122099744D01*
X156793937Y-121930226D01*
X156649774Y-121786063D01*
X156480256Y-121672795D01*
X156291898Y-121594774D01*
X156091939Y-121555000D01*
X155888061Y-121555000D01*
X155688102Y-121594774D01*
X155499744Y-121672795D01*
X155330226Y-121786063D01*
X155186063Y-121930226D01*
X155072795Y-122099744D01*
X155029450Y-122204387D01*
X155144201Y-121819807D01*
X155197328Y-121254001D01*
X155194654Y-121228061D01*
X157295000Y-121228061D01*
X157295000Y-121431939D01*
X157334774Y-121631898D01*
X157412795Y-121820256D01*
X157526063Y-121989774D01*
X157670226Y-122133937D01*
X157839744Y-122247205D01*
X158028102Y-122325226D01*
X158228061Y-122365000D01*
X158431939Y-122365000D01*
X158631898Y-122325226D01*
X158820256Y-122247205D01*
X158989774Y-122133937D01*
X159133937Y-121989774D01*
X159247205Y-121820256D01*
X159325226Y-121631898D01*
X159365000Y-121431939D01*
X159365000Y-121228061D01*
X159325226Y-121028102D01*
X159247205Y-120839744D01*
X159199309Y-120768061D01*
X174755000Y-120768061D01*
X174755000Y-120971939D01*
X174794774Y-121171898D01*
X174872795Y-121360256D01*
X174986063Y-121529774D01*
X175130226Y-121673937D01*
X175204011Y-121723238D01*
X175112795Y-121859753D01*
X175034774Y-122048111D01*
X174995000Y-122248070D01*
X174995000Y-122451948D01*
X175034774Y-122651907D01*
X175112795Y-122840265D01*
X175226063Y-123009783D01*
X175370226Y-123153946D01*
X175539744Y-123267214D01*
X175728102Y-123345235D01*
X175928061Y-123385009D01*
X176131939Y-123385009D01*
X176331898Y-123345235D01*
X176520256Y-123267214D01*
X176689774Y-123153946D01*
X176800659Y-123043061D01*
X182270000Y-123043061D01*
X182270000Y-123246939D01*
X182309774Y-123446898D01*
X182387795Y-123635256D01*
X182501063Y-123804774D01*
X182645226Y-123948937D01*
X182814744Y-124062205D01*
X183003102Y-124140226D01*
X183203061Y-124180000D01*
X183406939Y-124180000D01*
X183606898Y-124140226D01*
X183795256Y-124062205D01*
X183842081Y-124030918D01*
X183870123Y-124171898D01*
X183948144Y-124360256D01*
X184061412Y-124529774D01*
X184205575Y-124673937D01*
X184375093Y-124787205D01*
X184563451Y-124865226D01*
X184685462Y-124889495D01*
X184508102Y-124924774D01*
X184319744Y-125002795D01*
X184150226Y-125116063D01*
X184006063Y-125260226D01*
X183892795Y-125429744D01*
X183814774Y-125618102D01*
X183775000Y-125818061D01*
X183775000Y-126021939D01*
X183814774Y-126221898D01*
X183892795Y-126410256D01*
X184006063Y-126579774D01*
X184150226Y-126723937D01*
X184319744Y-126837205D01*
X184508102Y-126915226D01*
X184708061Y-126955000D01*
X184911939Y-126955000D01*
X185111898Y-126915226D01*
X185300256Y-126837205D01*
X185469774Y-126723937D01*
X185613937Y-126579774D01*
X185727205Y-126410256D01*
X185805226Y-126221898D01*
X185845000Y-126021939D01*
X185845000Y-125818061D01*
X185805226Y-125618102D01*
X185727205Y-125429744D01*
X185613937Y-125260226D01*
X185469774Y-125116063D01*
X185300256Y-125002795D01*
X185111898Y-124924774D01*
X184989887Y-124900505D01*
X185167247Y-124865226D01*
X185355605Y-124787205D01*
X185525123Y-124673937D01*
X185669286Y-124529774D01*
X185782554Y-124360256D01*
X185822813Y-124263061D01*
X191445000Y-124263061D01*
X191445000Y-124466939D01*
X191484774Y-124666898D01*
X191562795Y-124855256D01*
X191676063Y-125024774D01*
X191820226Y-125168937D01*
X191989744Y-125282205D01*
X192178102Y-125360226D01*
X192378061Y-125400000D01*
X192581939Y-125400000D01*
X192781898Y-125360226D01*
X192970256Y-125282205D01*
X193139774Y-125168937D01*
X193150650Y-125158061D01*
X195065000Y-125158061D01*
X195065000Y-125361939D01*
X195104774Y-125561898D01*
X195182795Y-125750256D01*
X195296063Y-125919774D01*
X195440226Y-126063937D01*
X195609744Y-126177205D01*
X195798102Y-126255226D01*
X195998061Y-126295000D01*
X196201939Y-126295000D01*
X196401898Y-126255226D01*
X196590256Y-126177205D01*
X196759774Y-126063937D01*
X196903937Y-125919774D01*
X197017205Y-125750256D01*
X197052285Y-125665565D01*
X205214040Y-125665565D01*
X205281020Y-125905656D01*
X205530048Y-126022756D01*
X205797135Y-126089023D01*
X206072017Y-126101910D01*
X206344133Y-126060922D01*
X206603023Y-125967636D01*
X206718980Y-125905656D01*
X206785960Y-125665565D01*
X206000000Y-124879605D01*
X205214040Y-125665565D01*
X197052285Y-125665565D01*
X197095226Y-125561898D01*
X197135000Y-125361939D01*
X197135000Y-125158061D01*
X197095226Y-124958102D01*
X197018147Y-124772017D01*
X204598090Y-124772017D01*
X204639078Y-125044133D01*
X204732364Y-125303023D01*
X204794344Y-125418980D01*
X205034435Y-125485960D01*
X205820395Y-124700000D01*
X206179605Y-124700000D01*
X206965565Y-125485960D01*
X207205656Y-125418980D01*
X207322756Y-125169952D01*
X207389023Y-124902865D01*
X207401910Y-124627983D01*
X207360922Y-124355867D01*
X207267636Y-124096977D01*
X207205656Y-123981020D01*
X206965565Y-123914040D01*
X206179605Y-124700000D01*
X205820395Y-124700000D01*
X205034435Y-123914040D01*
X204794344Y-123981020D01*
X204677244Y-124230048D01*
X204610977Y-124497135D01*
X204598090Y-124772017D01*
X197018147Y-124772017D01*
X197017205Y-124769744D01*
X196903937Y-124600226D01*
X196759774Y-124456063D01*
X196590256Y-124342795D01*
X196401898Y-124264774D01*
X196201939Y-124225000D01*
X195998061Y-124225000D01*
X195798102Y-124264774D01*
X195609744Y-124342795D01*
X195440226Y-124456063D01*
X195296063Y-124600226D01*
X195182795Y-124769744D01*
X195104774Y-124958102D01*
X195065000Y-125158061D01*
X193150650Y-125158061D01*
X193283937Y-125024774D01*
X193397205Y-124855256D01*
X193475226Y-124666898D01*
X193515000Y-124466939D01*
X193515000Y-124263061D01*
X193475226Y-124063102D01*
X193397205Y-123874744D01*
X193283937Y-123705226D01*
X193139774Y-123561063D01*
X192970256Y-123447795D01*
X192781898Y-123369774D01*
X192581939Y-123330000D01*
X192378061Y-123330000D01*
X192178102Y-123369774D01*
X191989744Y-123447795D01*
X191820226Y-123561063D01*
X191676063Y-123705226D01*
X191562795Y-123874744D01*
X191484774Y-124063102D01*
X191445000Y-124263061D01*
X185822813Y-124263061D01*
X185860575Y-124171898D01*
X185900349Y-123971939D01*
X185900349Y-123768061D01*
X185860575Y-123568102D01*
X185782554Y-123379744D01*
X185669286Y-123210226D01*
X185525123Y-123066063D01*
X185355605Y-122952795D01*
X185167247Y-122874774D01*
X184967288Y-122835000D01*
X184763410Y-122835000D01*
X184563451Y-122874774D01*
X184375093Y-122952795D01*
X184328268Y-122984082D01*
X184300226Y-122843102D01*
X184222205Y-122654744D01*
X184108937Y-122485226D01*
X183964774Y-122341063D01*
X183795256Y-122227795D01*
X183606898Y-122149774D01*
X183406939Y-122110000D01*
X183203061Y-122110000D01*
X183003102Y-122149774D01*
X182814744Y-122227795D01*
X182645226Y-122341063D01*
X182501063Y-122485226D01*
X182387795Y-122654744D01*
X182309774Y-122843102D01*
X182270000Y-123043061D01*
X176800659Y-123043061D01*
X176833937Y-123009783D01*
X176947205Y-122840265D01*
X177025226Y-122651907D01*
X177065000Y-122451948D01*
X177065000Y-122248070D01*
X177025226Y-122048111D01*
X176947205Y-121859753D01*
X176833937Y-121690235D01*
X176689774Y-121546072D01*
X176615989Y-121496771D01*
X176685285Y-121393061D01*
X177335000Y-121393061D01*
X177335000Y-121596939D01*
X177374774Y-121796898D01*
X177452795Y-121985256D01*
X177566063Y-122154774D01*
X177710226Y-122298937D01*
X177879744Y-122412205D01*
X178068102Y-122490226D01*
X178268061Y-122530000D01*
X178471939Y-122530000D01*
X178671898Y-122490226D01*
X178860256Y-122412205D01*
X179029774Y-122298937D01*
X179173937Y-122154774D01*
X179287205Y-121985256D01*
X179365226Y-121796898D01*
X179405000Y-121596939D01*
X179405000Y-121393061D01*
X179365226Y-121193102D01*
X179287205Y-121004744D01*
X179173937Y-120835226D01*
X179029774Y-120691063D01*
X179025282Y-120688061D01*
X180685000Y-120688061D01*
X180685000Y-120891939D01*
X180724774Y-121091898D01*
X180802795Y-121280256D01*
X180916063Y-121449774D01*
X181060226Y-121593937D01*
X181229744Y-121707205D01*
X181418102Y-121785226D01*
X181618061Y-121825000D01*
X181821939Y-121825000D01*
X182021898Y-121785226D01*
X182210256Y-121707205D01*
X182379774Y-121593937D01*
X182523937Y-121449774D01*
X182637205Y-121280256D01*
X182715226Y-121091898D01*
X182755000Y-120891939D01*
X182755000Y-120688061D01*
X182715226Y-120488102D01*
X182637205Y-120299744D01*
X182523937Y-120130226D01*
X182379774Y-119986063D01*
X182210256Y-119872795D01*
X182021898Y-119794774D01*
X181821939Y-119755000D01*
X181618061Y-119755000D01*
X181418102Y-119794774D01*
X181229744Y-119872795D01*
X181060226Y-119986063D01*
X180916063Y-120130226D01*
X180802795Y-120299744D01*
X180724774Y-120488102D01*
X180685000Y-120688061D01*
X179025282Y-120688061D01*
X178860256Y-120577795D01*
X178671898Y-120499774D01*
X178471939Y-120460000D01*
X178268061Y-120460000D01*
X178068102Y-120499774D01*
X177879744Y-120577795D01*
X177710226Y-120691063D01*
X177566063Y-120835226D01*
X177452795Y-121004744D01*
X177374774Y-121193102D01*
X177335000Y-121393061D01*
X176685285Y-121393061D01*
X176707205Y-121360256D01*
X176785226Y-121171898D01*
X176825000Y-120971939D01*
X176825000Y-120768061D01*
X176785226Y-120568102D01*
X176707205Y-120379744D01*
X176593937Y-120210226D01*
X176449774Y-120066063D01*
X176280256Y-119952795D01*
X176091898Y-119874774D01*
X175891939Y-119835000D01*
X175688061Y-119835000D01*
X175488102Y-119874774D01*
X175299744Y-119952795D01*
X175130226Y-120066063D01*
X174986063Y-120210226D01*
X174872795Y-120379744D01*
X174794774Y-120568102D01*
X174755000Y-120768061D01*
X159199309Y-120768061D01*
X159133937Y-120670226D01*
X158989774Y-120526063D01*
X158820256Y-120412795D01*
X158631898Y-120334774D01*
X158431939Y-120295000D01*
X158228061Y-120295000D01*
X158028102Y-120334774D01*
X157839744Y-120412795D01*
X157670226Y-120526063D01*
X157526063Y-120670226D01*
X157412795Y-120839744D01*
X157334774Y-121028102D01*
X157295000Y-121228061D01*
X155194654Y-121228061D01*
X155139052Y-120688702D01*
X154971610Y-120145634D01*
X154716104Y-119667616D01*
X154323740Y-119421465D01*
X152478005Y-121267200D01*
X152118795Y-121267200D01*
X150273060Y-119421465D01*
X149880696Y-119667616D01*
X149615088Y-120170022D01*
X149452599Y-120714593D01*
X149399472Y-121280399D01*
X129150309Y-121280399D01*
X129162328Y-121152401D01*
X129104052Y-120587102D01*
X128936610Y-120044034D01*
X128681104Y-119566016D01*
X128288740Y-119319865D01*
X126443005Y-121165600D01*
X126083795Y-121165600D01*
X124238060Y-119319865D01*
X123845696Y-119566016D01*
X123580088Y-120068422D01*
X123526600Y-120247683D01*
X123526600Y-119140260D01*
X124417665Y-119140260D01*
X126263400Y-120985995D01*
X128007535Y-119241860D01*
X150452665Y-119241860D01*
X152298400Y-121087595D01*
X154144135Y-119241860D01*
X153897984Y-118849496D01*
X153395578Y-118583888D01*
X152851007Y-118421399D01*
X152285201Y-118368272D01*
X151719902Y-118426548D01*
X151176834Y-118593990D01*
X150698816Y-118849496D01*
X150452665Y-119241860D01*
X128007535Y-119241860D01*
X128109135Y-119140260D01*
X127862984Y-118747896D01*
X127360578Y-118482288D01*
X126816007Y-118319799D01*
X126690997Y-118308061D01*
X164245000Y-118308061D01*
X164245000Y-118511939D01*
X164284774Y-118711898D01*
X164362795Y-118900256D01*
X164476063Y-119069774D01*
X164620226Y-119213937D01*
X164789744Y-119327205D01*
X164978102Y-119405226D01*
X165178061Y-119445000D01*
X165381939Y-119445000D01*
X165581898Y-119405226D01*
X165770256Y-119327205D01*
X165771164Y-119326598D01*
X165789677Y-119338968D01*
X165978035Y-119416989D01*
X166177994Y-119456763D01*
X166381872Y-119456763D01*
X166581831Y-119416989D01*
X166770189Y-119338968D01*
X166771546Y-119338061D01*
X178485000Y-119338061D01*
X178485000Y-119541939D01*
X178524774Y-119741898D01*
X178602795Y-119930256D01*
X178716063Y-120099774D01*
X178860226Y-120243937D01*
X179029744Y-120357205D01*
X179218102Y-120435226D01*
X179418061Y-120475000D01*
X179621939Y-120475000D01*
X179821898Y-120435226D01*
X180010256Y-120357205D01*
X180179774Y-120243937D01*
X180323937Y-120099774D01*
X180437205Y-119930256D01*
X180515226Y-119741898D01*
X180555000Y-119541939D01*
X180555000Y-119338061D01*
X180515226Y-119138102D01*
X180457219Y-118998061D01*
X183655000Y-118998061D01*
X183655000Y-119201939D01*
X183694774Y-119401898D01*
X183772795Y-119590256D01*
X183886063Y-119759774D01*
X184030226Y-119903937D01*
X184199744Y-120017205D01*
X184388102Y-120095226D01*
X184588061Y-120135000D01*
X184791939Y-120135000D01*
X184991898Y-120095226D01*
X185180256Y-120017205D01*
X185349774Y-119903937D01*
X185493937Y-119759774D01*
X185607205Y-119590256D01*
X185685226Y-119401898D01*
X185725000Y-119201939D01*
X185725000Y-118998061D01*
X185719033Y-118968061D01*
X189015000Y-118968061D01*
X189015000Y-119171939D01*
X189054774Y-119371898D01*
X189132795Y-119560256D01*
X189246063Y-119729774D01*
X189390226Y-119873937D01*
X189559744Y-119987205D01*
X189748102Y-120065226D01*
X189948061Y-120105000D01*
X190151939Y-120105000D01*
X190351898Y-120065226D01*
X190540256Y-119987205D01*
X190709774Y-119873937D01*
X190853937Y-119729774D01*
X190967205Y-119560256D01*
X191045226Y-119371898D01*
X191085000Y-119171939D01*
X191085000Y-118968061D01*
X191057153Y-118828061D01*
X191465000Y-118828061D01*
X191465000Y-119031939D01*
X191504774Y-119231898D01*
X191582795Y-119420256D01*
X191696063Y-119589774D01*
X191840226Y-119733937D01*
X192009744Y-119847205D01*
X192198102Y-119925226D01*
X192398061Y-119965000D01*
X192601939Y-119965000D01*
X192801898Y-119925226D01*
X192990256Y-119847205D01*
X193159774Y-119733937D01*
X193303937Y-119589774D01*
X193375676Y-119482408D01*
X204603000Y-119482408D01*
X204603000Y-119757592D01*
X204656686Y-120027490D01*
X204761995Y-120281727D01*
X204914880Y-120510535D01*
X205109465Y-120705120D01*
X205338273Y-120858005D01*
X205415515Y-120890000D01*
X205338273Y-120921995D01*
X205109465Y-121074880D01*
X204914880Y-121269465D01*
X204761995Y-121498273D01*
X204656686Y-121752510D01*
X204603000Y-122022408D01*
X204603000Y-122297592D01*
X204656686Y-122567490D01*
X204761995Y-122821727D01*
X204914880Y-123050535D01*
X205109465Y-123245120D01*
X205338273Y-123398005D01*
X205409943Y-123427692D01*
X205396977Y-123432364D01*
X205281020Y-123494344D01*
X205214040Y-123734435D01*
X206000000Y-124520395D01*
X206785960Y-123734435D01*
X206718980Y-123494344D01*
X206583240Y-123430515D01*
X206661727Y-123398005D01*
X206890535Y-123245120D01*
X207085120Y-123050535D01*
X207238005Y-122821727D01*
X207343314Y-122567490D01*
X207397000Y-122297592D01*
X207397000Y-122022408D01*
X207343314Y-121752510D01*
X207238005Y-121498273D01*
X207085120Y-121269465D01*
X206890535Y-121074880D01*
X206661727Y-120921995D01*
X206584485Y-120890000D01*
X206661727Y-120858005D01*
X206890535Y-120705120D01*
X207085120Y-120510535D01*
X207238005Y-120281727D01*
X207343314Y-120027490D01*
X207397000Y-119757592D01*
X207397000Y-119482408D01*
X207343314Y-119212510D01*
X207238005Y-118958273D01*
X207085120Y-118729465D01*
X206890535Y-118534880D01*
X206661727Y-118381995D01*
X206407490Y-118276686D01*
X206137592Y-118223000D01*
X205862408Y-118223000D01*
X205592510Y-118276686D01*
X205338273Y-118381995D01*
X205109465Y-118534880D01*
X204914880Y-118729465D01*
X204761995Y-118958273D01*
X204656686Y-119212510D01*
X204603000Y-119482408D01*
X193375676Y-119482408D01*
X193417205Y-119420256D01*
X193495226Y-119231898D01*
X193535000Y-119031939D01*
X193535000Y-118828061D01*
X193495226Y-118628102D01*
X193417205Y-118439744D01*
X193303937Y-118270226D01*
X193159774Y-118126063D01*
X192990256Y-118012795D01*
X192801898Y-117934774D01*
X192601939Y-117895000D01*
X192398061Y-117895000D01*
X192198102Y-117934774D01*
X192009744Y-118012795D01*
X191840226Y-118126063D01*
X191696063Y-118270226D01*
X191582795Y-118439744D01*
X191504774Y-118628102D01*
X191465000Y-118828061D01*
X191057153Y-118828061D01*
X191045226Y-118768102D01*
X190967205Y-118579744D01*
X190853937Y-118410226D01*
X190709774Y-118266063D01*
X190540256Y-118152795D01*
X190351898Y-118074774D01*
X190151939Y-118035000D01*
X189948061Y-118035000D01*
X189748102Y-118074774D01*
X189559744Y-118152795D01*
X189390226Y-118266063D01*
X189246063Y-118410226D01*
X189132795Y-118579744D01*
X189054774Y-118768102D01*
X189015000Y-118968061D01*
X185719033Y-118968061D01*
X185685226Y-118798102D01*
X185607205Y-118609744D01*
X185493937Y-118440226D01*
X185349774Y-118296063D01*
X185180256Y-118182795D01*
X184991898Y-118104774D01*
X184791939Y-118065000D01*
X184588061Y-118065000D01*
X184388102Y-118104774D01*
X184199744Y-118182795D01*
X184030226Y-118296063D01*
X183886063Y-118440226D01*
X183772795Y-118609744D01*
X183694774Y-118798102D01*
X183655000Y-118998061D01*
X180457219Y-118998061D01*
X180437205Y-118949744D01*
X180323937Y-118780226D01*
X180179774Y-118636063D01*
X180010256Y-118522795D01*
X179821898Y-118444774D01*
X179621939Y-118405000D01*
X179418061Y-118405000D01*
X179218102Y-118444774D01*
X179029744Y-118522795D01*
X178860226Y-118636063D01*
X178716063Y-118780226D01*
X178602795Y-118949744D01*
X178524774Y-119138102D01*
X178485000Y-119338061D01*
X166771546Y-119338061D01*
X166939707Y-119225700D01*
X167083870Y-119081537D01*
X167197138Y-118912019D01*
X167275159Y-118723661D01*
X167314933Y-118523702D01*
X167314933Y-118319824D01*
X167275159Y-118119865D01*
X167197138Y-117931507D01*
X167083870Y-117761989D01*
X166940891Y-117619010D01*
X174153513Y-117619010D01*
X174153513Y-117822888D01*
X174193287Y-118022847D01*
X174271308Y-118211205D01*
X174384576Y-118380723D01*
X174528739Y-118524886D01*
X174698257Y-118638154D01*
X174886615Y-118716175D01*
X175086574Y-118755949D01*
X175290452Y-118755949D01*
X175490411Y-118716175D01*
X175678769Y-118638154D01*
X175848287Y-118524886D01*
X175992450Y-118380723D01*
X176105718Y-118211205D01*
X176183739Y-118022847D01*
X176184690Y-118018061D01*
X176715000Y-118018061D01*
X176715000Y-118221939D01*
X176754774Y-118421898D01*
X176832795Y-118610256D01*
X176946063Y-118779774D01*
X177090226Y-118923937D01*
X177259744Y-119037205D01*
X177448102Y-119115226D01*
X177648061Y-119155000D01*
X177851939Y-119155000D01*
X178051898Y-119115226D01*
X178240256Y-119037205D01*
X178409774Y-118923937D01*
X178553937Y-118779774D01*
X178667205Y-118610256D01*
X178745226Y-118421898D01*
X178785000Y-118221939D01*
X178785000Y-118018061D01*
X178745226Y-117818102D01*
X178667205Y-117629744D01*
X178553937Y-117460226D01*
X178409774Y-117316063D01*
X178240256Y-117202795D01*
X178051898Y-117124774D01*
X177851939Y-117085000D01*
X177648061Y-117085000D01*
X177448102Y-117124774D01*
X177259744Y-117202795D01*
X177090226Y-117316063D01*
X176946063Y-117460226D01*
X176832795Y-117629744D01*
X176754774Y-117818102D01*
X176715000Y-118018061D01*
X176184690Y-118018061D01*
X176223513Y-117822888D01*
X176223513Y-117619010D01*
X176183739Y-117419051D01*
X176105718Y-117230693D01*
X175992450Y-117061175D01*
X175969336Y-117038061D01*
X186655000Y-117038061D01*
X186655000Y-117241939D01*
X186694774Y-117441898D01*
X186772795Y-117630256D01*
X186886063Y-117799774D01*
X187030226Y-117943937D01*
X187199744Y-118057205D01*
X187388102Y-118135226D01*
X187588061Y-118175000D01*
X187791939Y-118175000D01*
X187991898Y-118135226D01*
X188180256Y-118057205D01*
X188349774Y-117943937D01*
X188493937Y-117799774D01*
X188607205Y-117630256D01*
X188685226Y-117441898D01*
X188725000Y-117241939D01*
X188725000Y-117038061D01*
X188685226Y-116838102D01*
X188607205Y-116649744D01*
X188493937Y-116480226D01*
X188349774Y-116336063D01*
X188180256Y-116222795D01*
X187991898Y-116144774D01*
X187791939Y-116105000D01*
X187588061Y-116105000D01*
X187388102Y-116144774D01*
X187199744Y-116222795D01*
X187030226Y-116336063D01*
X186886063Y-116480226D01*
X186772795Y-116649744D01*
X186694774Y-116838102D01*
X186655000Y-117038061D01*
X175969336Y-117038061D01*
X175848287Y-116917012D01*
X175678769Y-116803744D01*
X175490411Y-116725723D01*
X175290452Y-116685949D01*
X175086574Y-116685949D01*
X174886615Y-116725723D01*
X174698257Y-116803744D01*
X174528739Y-116917012D01*
X174384576Y-117061175D01*
X174271308Y-117230693D01*
X174193287Y-117419051D01*
X174153513Y-117619010D01*
X166940891Y-117619010D01*
X166939707Y-117617826D01*
X166770189Y-117504558D01*
X166581831Y-117426537D01*
X166381872Y-117386763D01*
X166177994Y-117386763D01*
X165978035Y-117426537D01*
X165789677Y-117504558D01*
X165788769Y-117505165D01*
X165770256Y-117492795D01*
X165581898Y-117414774D01*
X165381939Y-117375000D01*
X165178061Y-117375000D01*
X164978102Y-117414774D01*
X164789744Y-117492795D01*
X164620226Y-117606063D01*
X164476063Y-117750226D01*
X164362795Y-117919744D01*
X164284774Y-118108102D01*
X164245000Y-118308061D01*
X126690997Y-118308061D01*
X126250201Y-118266672D01*
X125684902Y-118324948D01*
X125141834Y-118492390D01*
X124663816Y-118747896D01*
X124417665Y-119140260D01*
X123526600Y-119140260D01*
X123526600Y-116487400D01*
X155748414Y-116487400D01*
X155784600Y-116490964D01*
X155820786Y-116487400D01*
X155928999Y-116476742D01*
X156067849Y-116434622D01*
X156195813Y-116366224D01*
X156307975Y-116274175D01*
X156400024Y-116162013D01*
X156468422Y-116034049D01*
X156510542Y-115895199D01*
X156524764Y-115750800D01*
X156521200Y-115714614D01*
X156521200Y-114448061D01*
X167715000Y-114448061D01*
X167715000Y-114651939D01*
X167754774Y-114851898D01*
X167832795Y-115040256D01*
X167946063Y-115209774D01*
X168090226Y-115353937D01*
X168259744Y-115467205D01*
X168448102Y-115545226D01*
X168648061Y-115585000D01*
X168851939Y-115585000D01*
X169051898Y-115545226D01*
X169240256Y-115467205D01*
X169409774Y-115353937D01*
X169553937Y-115209774D01*
X169667205Y-115040256D01*
X169745226Y-114851898D01*
X169785000Y-114651939D01*
X169785000Y-114448061D01*
X169745226Y-114248102D01*
X169716214Y-114178061D01*
X172855000Y-114178061D01*
X172855000Y-114381939D01*
X172894774Y-114581898D01*
X172972795Y-114770256D01*
X173086063Y-114939774D01*
X173230226Y-115083937D01*
X173399744Y-115197205D01*
X173588102Y-115275226D01*
X173788061Y-115315000D01*
X173991939Y-115315000D01*
X174191898Y-115275226D01*
X174380256Y-115197205D01*
X174549774Y-115083937D01*
X174693937Y-114939774D01*
X174807205Y-114770256D01*
X174809356Y-114765062D01*
X188103061Y-114765062D01*
X188103061Y-114968940D01*
X188142835Y-115168899D01*
X188220856Y-115357257D01*
X188334124Y-115526775D01*
X188478287Y-115670938D01*
X188647805Y-115784206D01*
X188736321Y-115820871D01*
X188715000Y-115928061D01*
X188715000Y-116131939D01*
X188754774Y-116331898D01*
X188832795Y-116520256D01*
X188946063Y-116689774D01*
X189090226Y-116833937D01*
X189259744Y-116947205D01*
X189448102Y-117025226D01*
X189648061Y-117065000D01*
X189851939Y-117065000D01*
X190051898Y-117025226D01*
X190240256Y-116947205D01*
X190409774Y-116833937D01*
X190553937Y-116689774D01*
X190667205Y-116520256D01*
X190709535Y-116418061D01*
X192945000Y-116418061D01*
X192945000Y-116621939D01*
X192984774Y-116821898D01*
X193062795Y-117010256D01*
X193176063Y-117179774D01*
X193320226Y-117323937D01*
X193489744Y-117437205D01*
X193678102Y-117515226D01*
X193878061Y-117555000D01*
X194081939Y-117555000D01*
X194281898Y-117515226D01*
X194470256Y-117437205D01*
X194639774Y-117323937D01*
X194783937Y-117179774D01*
X194897205Y-117010256D01*
X194975226Y-116821898D01*
X195015000Y-116621939D01*
X195015000Y-116418061D01*
X194975226Y-116218102D01*
X194897205Y-116029744D01*
X194783937Y-115860226D01*
X194639774Y-115716063D01*
X194470256Y-115602795D01*
X194281898Y-115524774D01*
X194081939Y-115485000D01*
X193878061Y-115485000D01*
X193678102Y-115524774D01*
X193489744Y-115602795D01*
X193320226Y-115716063D01*
X193176063Y-115860226D01*
X193062795Y-116029744D01*
X192984774Y-116218102D01*
X192945000Y-116418061D01*
X190709535Y-116418061D01*
X190745226Y-116331898D01*
X190785000Y-116131939D01*
X190785000Y-115928061D01*
X190745226Y-115728102D01*
X190667205Y-115539744D01*
X190553937Y-115370226D01*
X190409774Y-115226063D01*
X190240256Y-115112795D01*
X190151740Y-115076130D01*
X190173061Y-114968940D01*
X190173061Y-114765062D01*
X190133287Y-114565103D01*
X190055266Y-114376745D01*
X189941998Y-114207227D01*
X189797835Y-114063064D01*
X189628317Y-113949796D01*
X189439959Y-113871775D01*
X189240000Y-113832001D01*
X189036122Y-113832001D01*
X188836163Y-113871775D01*
X188647805Y-113949796D01*
X188478287Y-114063064D01*
X188334124Y-114207227D01*
X188220856Y-114376745D01*
X188142835Y-114565103D01*
X188103061Y-114765062D01*
X174809356Y-114765062D01*
X174885226Y-114581898D01*
X174925000Y-114381939D01*
X174925000Y-114178061D01*
X174885226Y-113978102D01*
X174807205Y-113789744D01*
X174693937Y-113620226D01*
X174549774Y-113476063D01*
X174380256Y-113362795D01*
X174191898Y-113284774D01*
X173991939Y-113245000D01*
X173788061Y-113245000D01*
X173588102Y-113284774D01*
X173399744Y-113362795D01*
X173230226Y-113476063D01*
X173086063Y-113620226D01*
X172972795Y-113789744D01*
X172894774Y-113978102D01*
X172855000Y-114178061D01*
X169716214Y-114178061D01*
X169667205Y-114059744D01*
X169553937Y-113890226D01*
X169409774Y-113746063D01*
X169240256Y-113632795D01*
X169051898Y-113554774D01*
X168851939Y-113515000D01*
X168648061Y-113515000D01*
X168448102Y-113554774D01*
X168259744Y-113632795D01*
X168090226Y-113746063D01*
X167946063Y-113890226D01*
X167832795Y-114059744D01*
X167754774Y-114248102D01*
X167715000Y-114448061D01*
X156521200Y-114448061D01*
X156521200Y-112298061D01*
X164215000Y-112298061D01*
X164215000Y-112501939D01*
X164254774Y-112701898D01*
X164332795Y-112890256D01*
X164446063Y-113059774D01*
X164590226Y-113203937D01*
X164759744Y-113317205D01*
X164948102Y-113395226D01*
X165148061Y-113435000D01*
X165351939Y-113435000D01*
X165551898Y-113395226D01*
X165740256Y-113317205D01*
X165909774Y-113203937D01*
X166053937Y-113059774D01*
X166167205Y-112890256D01*
X166245226Y-112701898D01*
X166285000Y-112501939D01*
X166285000Y-112298061D01*
X166245226Y-112098102D01*
X166207930Y-112008061D01*
X173045000Y-112008061D01*
X173045000Y-112211939D01*
X173084774Y-112411898D01*
X173162795Y-112600256D01*
X173276063Y-112769774D01*
X173420226Y-112913937D01*
X173589744Y-113027205D01*
X173778102Y-113105226D01*
X173978061Y-113145000D01*
X174181939Y-113145000D01*
X174381898Y-113105226D01*
X174570256Y-113027205D01*
X174739774Y-112913937D01*
X174883937Y-112769774D01*
X174997205Y-112600256D01*
X175075226Y-112411898D01*
X175115000Y-112211939D01*
X175115000Y-112158061D01*
X186995000Y-112158061D01*
X186995000Y-112361939D01*
X187034774Y-112561898D01*
X187112795Y-112750256D01*
X187226063Y-112919774D01*
X187370226Y-113063937D01*
X187539744Y-113177205D01*
X187728102Y-113255226D01*
X187928061Y-113295000D01*
X188131939Y-113295000D01*
X188331898Y-113255226D01*
X188520256Y-113177205D01*
X188689774Y-113063937D01*
X188833937Y-112919774D01*
X188947205Y-112750256D01*
X189025226Y-112561898D01*
X189065000Y-112361939D01*
X189065000Y-112158061D01*
X189025226Y-111958102D01*
X188947205Y-111769744D01*
X188833937Y-111600226D01*
X188729053Y-111495342D01*
X195693047Y-111495342D01*
X195693047Y-111699220D01*
X195732821Y-111899179D01*
X195810842Y-112087537D01*
X195924110Y-112257055D01*
X196068273Y-112401218D01*
X196237791Y-112514486D01*
X196426149Y-112592507D01*
X196594254Y-112625945D01*
X196486044Y-112670767D01*
X196316526Y-112784035D01*
X196172363Y-112928198D01*
X196059095Y-113097716D01*
X195981074Y-113286074D01*
X195941300Y-113486033D01*
X195941300Y-113689911D01*
X195981074Y-113889870D01*
X196059095Y-114078228D01*
X196172363Y-114247746D01*
X196316526Y-114391909D01*
X196486044Y-114505177D01*
X196674402Y-114583198D01*
X196874361Y-114622972D01*
X197078239Y-114622972D01*
X197278198Y-114583198D01*
X197466556Y-114505177D01*
X197636074Y-114391909D01*
X197780237Y-114247746D01*
X197893505Y-114078228D01*
X197971526Y-113889870D01*
X198011300Y-113689911D01*
X198011300Y-113486033D01*
X197971526Y-113286074D01*
X197893505Y-113097716D01*
X197780237Y-112928198D01*
X197636074Y-112784035D01*
X197466556Y-112670767D01*
X197278198Y-112592746D01*
X197239257Y-112585000D01*
X201006928Y-112585000D01*
X201006928Y-114235000D01*
X201019188Y-114359482D01*
X201055498Y-114479180D01*
X201114463Y-114589494D01*
X201193815Y-114686185D01*
X201290506Y-114765537D01*
X201400820Y-114824502D01*
X201500506Y-114854742D01*
X201335944Y-115019304D01*
X201176165Y-115258431D01*
X201066107Y-115524134D01*
X201010000Y-115806203D01*
X201010000Y-116093797D01*
X201066107Y-116375866D01*
X201176165Y-116641569D01*
X201335944Y-116880696D01*
X201539304Y-117084056D01*
X201778431Y-117243835D01*
X202044134Y-117353893D01*
X202326203Y-117410000D01*
X202613797Y-117410000D01*
X202895866Y-117353893D01*
X203161569Y-117243835D01*
X203400696Y-117084056D01*
X203604056Y-116880696D01*
X203740000Y-116677241D01*
X203875944Y-116880696D01*
X204079304Y-117084056D01*
X204318431Y-117243835D01*
X204584134Y-117353893D01*
X204866203Y-117410000D01*
X205153797Y-117410000D01*
X205435866Y-117353893D01*
X205701569Y-117243835D01*
X205940696Y-117084056D01*
X206144056Y-116880696D01*
X206280000Y-116677241D01*
X206415944Y-116880696D01*
X206619304Y-117084056D01*
X206858431Y-117243835D01*
X207124134Y-117353893D01*
X207406203Y-117410000D01*
X207693797Y-117410000D01*
X207975866Y-117353893D01*
X208241569Y-117243835D01*
X208480696Y-117084056D01*
X208684056Y-116880696D01*
X208843835Y-116641569D01*
X208953893Y-116375866D01*
X209010000Y-116093797D01*
X209010000Y-115806203D01*
X208953893Y-115524134D01*
X208843835Y-115258431D01*
X208684056Y-115019304D01*
X208480696Y-114815944D01*
X208279424Y-114681459D01*
X208306337Y-114667073D01*
X208380946Y-114420551D01*
X207550000Y-113589605D01*
X206719054Y-114420551D01*
X206793663Y-114667073D01*
X206821977Y-114680523D01*
X206619304Y-114815944D01*
X206415944Y-115019304D01*
X206280000Y-115222759D01*
X206144056Y-115019304D01*
X205940696Y-114815944D01*
X205737241Y-114680000D01*
X205940696Y-114544056D01*
X206144056Y-114340696D01*
X206278541Y-114139424D01*
X206292927Y-114166337D01*
X206539449Y-114240946D01*
X207370395Y-113410000D01*
X207729605Y-113410000D01*
X208560551Y-114240946D01*
X208807073Y-114166337D01*
X208930473Y-113906561D01*
X209000823Y-113627703D01*
X209015417Y-113340479D01*
X208973697Y-113055926D01*
X208877265Y-112784980D01*
X208807073Y-112653663D01*
X208560551Y-112579054D01*
X207729605Y-113410000D01*
X207370395Y-113410000D01*
X206539449Y-112579054D01*
X206292927Y-112653663D01*
X206279477Y-112681977D01*
X206144056Y-112479304D01*
X206064201Y-112399449D01*
X206719054Y-112399449D01*
X207550000Y-113230395D01*
X208380946Y-112399449D01*
X208306337Y-112152927D01*
X208046561Y-112029527D01*
X207767703Y-111959177D01*
X207480479Y-111944583D01*
X207195926Y-111986303D01*
X206924980Y-112082735D01*
X206793663Y-112152927D01*
X206719054Y-112399449D01*
X206064201Y-112399449D01*
X205940696Y-112275944D01*
X205701569Y-112116165D01*
X205435866Y-112006107D01*
X205153797Y-111950000D01*
X204866203Y-111950000D01*
X204584134Y-112006107D01*
X204318431Y-112116165D01*
X204079304Y-112275944D01*
X203914742Y-112440506D01*
X203884502Y-112340820D01*
X203825537Y-112230506D01*
X203746185Y-112133815D01*
X203649494Y-112054463D01*
X203539180Y-111995498D01*
X203419482Y-111959188D01*
X203295000Y-111946928D01*
X201645000Y-111946928D01*
X201520518Y-111959188D01*
X201400820Y-111995498D01*
X201290506Y-112054463D01*
X201193815Y-112133815D01*
X201114463Y-112230506D01*
X201055498Y-112340820D01*
X201019188Y-112460518D01*
X201006928Y-112585000D01*
X197239257Y-112585000D01*
X197110093Y-112559308D01*
X197218303Y-112514486D01*
X197387821Y-112401218D01*
X197531984Y-112257055D01*
X197645252Y-112087537D01*
X197723273Y-111899179D01*
X197763047Y-111699220D01*
X197763047Y-111495342D01*
X197723273Y-111295383D01*
X197645252Y-111107025D01*
X197531984Y-110937507D01*
X197387821Y-110793344D01*
X197218303Y-110680076D01*
X197029945Y-110602055D01*
X196829986Y-110562281D01*
X196626108Y-110562281D01*
X196426149Y-110602055D01*
X196237791Y-110680076D01*
X196068273Y-110793344D01*
X195924110Y-110937507D01*
X195810842Y-111107025D01*
X195732821Y-111295383D01*
X195693047Y-111495342D01*
X188729053Y-111495342D01*
X188689774Y-111456063D01*
X188520256Y-111342795D01*
X188331898Y-111264774D01*
X188131939Y-111225000D01*
X187928061Y-111225000D01*
X187728102Y-111264774D01*
X187539744Y-111342795D01*
X187370226Y-111456063D01*
X187226063Y-111600226D01*
X187112795Y-111769744D01*
X187034774Y-111958102D01*
X186995000Y-112158061D01*
X175115000Y-112158061D01*
X175115000Y-112008061D01*
X175075226Y-111808102D01*
X174997205Y-111619744D01*
X174883937Y-111450226D01*
X174739774Y-111306063D01*
X174570256Y-111192795D01*
X174381898Y-111114774D01*
X174181939Y-111075000D01*
X173978061Y-111075000D01*
X173778102Y-111114774D01*
X173589744Y-111192795D01*
X173420226Y-111306063D01*
X173276063Y-111450226D01*
X173162795Y-111619744D01*
X173084774Y-111808102D01*
X173045000Y-112008061D01*
X166207930Y-112008061D01*
X166167205Y-111909744D01*
X166053937Y-111740226D01*
X165909774Y-111596063D01*
X165740256Y-111482795D01*
X165551898Y-111404774D01*
X165351939Y-111365000D01*
X165148061Y-111365000D01*
X164948102Y-111404774D01*
X164759744Y-111482795D01*
X164590226Y-111596063D01*
X164446063Y-111740226D01*
X164332795Y-111909744D01*
X164254774Y-112098102D01*
X164215000Y-112298061D01*
X156521200Y-112298061D01*
X156521200Y-109928061D01*
X182855000Y-109928061D01*
X182855000Y-110131939D01*
X182894774Y-110331898D01*
X182972795Y-110520256D01*
X183086063Y-110689774D01*
X183230226Y-110833937D01*
X183399744Y-110947205D01*
X183588102Y-111025226D01*
X183788061Y-111065000D01*
X183991939Y-111065000D01*
X184191898Y-111025226D01*
X184380256Y-110947205D01*
X184549774Y-110833937D01*
X184693937Y-110689774D01*
X184807205Y-110520256D01*
X184885226Y-110331898D01*
X184925000Y-110131939D01*
X184925000Y-109928061D01*
X184885226Y-109728102D01*
X184807205Y-109539744D01*
X184693937Y-109370226D01*
X184549774Y-109226063D01*
X184380256Y-109112795D01*
X184191898Y-109034774D01*
X183991939Y-108995000D01*
X183788061Y-108995000D01*
X183588102Y-109034774D01*
X183399744Y-109112795D01*
X183230226Y-109226063D01*
X183086063Y-109370226D01*
X182972795Y-109539744D01*
X182894774Y-109728102D01*
X182855000Y-109928061D01*
X156521200Y-109928061D01*
X156521200Y-108628061D01*
X168255000Y-108628061D01*
X168255000Y-108831939D01*
X168294774Y-109031898D01*
X168372795Y-109220256D01*
X168486063Y-109389774D01*
X168630226Y-109533937D01*
X168799744Y-109647205D01*
X168988102Y-109725226D01*
X169188061Y-109765000D01*
X169391939Y-109765000D01*
X169591898Y-109725226D01*
X169780256Y-109647205D01*
X169949774Y-109533937D01*
X170093937Y-109389774D01*
X170207205Y-109220256D01*
X170285226Y-109031898D01*
X170325000Y-108831939D01*
X170325000Y-108628061D01*
X170313066Y-108568061D01*
X172405000Y-108568061D01*
X172405000Y-108771939D01*
X172444774Y-108971898D01*
X172522795Y-109160256D01*
X172636063Y-109329774D01*
X172780226Y-109473937D01*
X172949744Y-109587205D01*
X173138102Y-109665226D01*
X173338061Y-109705000D01*
X173541939Y-109705000D01*
X173741898Y-109665226D01*
X173930256Y-109587205D01*
X174099774Y-109473937D01*
X174243937Y-109329774D01*
X174357205Y-109160256D01*
X174435226Y-108971898D01*
X174475000Y-108771939D01*
X174475000Y-108568061D01*
X174457099Y-108478061D01*
X174555000Y-108478061D01*
X174555000Y-108681939D01*
X174594774Y-108881898D01*
X174672795Y-109070256D01*
X174786063Y-109239774D01*
X174930226Y-109383937D01*
X175099744Y-109497205D01*
X175288102Y-109575226D01*
X175488061Y-109615000D01*
X175691939Y-109615000D01*
X175891898Y-109575226D01*
X176080256Y-109497205D01*
X176249774Y-109383937D01*
X176393937Y-109239774D01*
X176507205Y-109070256D01*
X176585226Y-108881898D01*
X176625000Y-108681939D01*
X176625000Y-108478061D01*
X176585226Y-108278102D01*
X176571979Y-108246121D01*
X176618102Y-108265226D01*
X176818061Y-108305000D01*
X177021939Y-108305000D01*
X177221898Y-108265226D01*
X177410256Y-108187205D01*
X177579774Y-108073937D01*
X177723937Y-107929774D01*
X177837205Y-107760256D01*
X177915226Y-107571898D01*
X177955000Y-107371939D01*
X177955000Y-107168061D01*
X177915226Y-106968102D01*
X177837205Y-106779744D01*
X177723937Y-106610226D01*
X177579774Y-106466063D01*
X177410256Y-106352795D01*
X177221898Y-106274774D01*
X177021939Y-106235000D01*
X176818061Y-106235000D01*
X176618102Y-106274774D01*
X176429744Y-106352795D01*
X176260226Y-106466063D01*
X176116063Y-106610226D01*
X176002795Y-106779744D01*
X175924774Y-106968102D01*
X175885000Y-107168061D01*
X175885000Y-107371939D01*
X175924774Y-107571898D01*
X175938021Y-107603879D01*
X175891898Y-107584774D01*
X175691939Y-107545000D01*
X175488061Y-107545000D01*
X175288102Y-107584774D01*
X175099744Y-107662795D01*
X174930226Y-107776063D01*
X174786063Y-107920226D01*
X174672795Y-108089744D01*
X174594774Y-108278102D01*
X174555000Y-108478061D01*
X174457099Y-108478061D01*
X174435226Y-108368102D01*
X174357205Y-108179744D01*
X174243937Y-108010226D01*
X174099774Y-107866063D01*
X173930256Y-107752795D01*
X173741898Y-107674774D01*
X173541939Y-107635000D01*
X173338061Y-107635000D01*
X173138102Y-107674774D01*
X172949744Y-107752795D01*
X172780226Y-107866063D01*
X172636063Y-108010226D01*
X172522795Y-108179744D01*
X172444774Y-108368102D01*
X172405000Y-108568061D01*
X170313066Y-108568061D01*
X170285226Y-108428102D01*
X170207205Y-108239744D01*
X170093937Y-108070226D01*
X169949774Y-107926063D01*
X169780256Y-107812795D01*
X169591898Y-107734774D01*
X169391939Y-107695000D01*
X169188061Y-107695000D01*
X168988102Y-107734774D01*
X168799744Y-107812795D01*
X168630226Y-107926063D01*
X168486063Y-108070226D01*
X168372795Y-108239744D01*
X168294774Y-108428102D01*
X168255000Y-108628061D01*
X156521200Y-108628061D01*
X156521200Y-105158061D01*
X180835000Y-105158061D01*
X180835000Y-105361939D01*
X180874774Y-105561898D01*
X180952795Y-105750256D01*
X181066063Y-105919774D01*
X181210226Y-106063937D01*
X181379744Y-106177205D01*
X181568102Y-106255226D01*
X181768061Y-106295000D01*
X181971939Y-106295000D01*
X182057097Y-106278061D01*
X183315000Y-106278061D01*
X183315000Y-106481939D01*
X183354774Y-106681898D01*
X183432795Y-106870256D01*
X183546063Y-107039774D01*
X183690226Y-107183937D01*
X183859744Y-107297205D01*
X184048102Y-107375226D01*
X184248061Y-107415000D01*
X184451939Y-107415000D01*
X184651898Y-107375226D01*
X184840256Y-107297205D01*
X184898839Y-107258061D01*
X201005000Y-107258061D01*
X201005000Y-107461939D01*
X201044774Y-107661898D01*
X201122795Y-107850256D01*
X201236063Y-108019774D01*
X201380226Y-108163937D01*
X201549744Y-108277205D01*
X201738102Y-108355226D01*
X201938061Y-108395000D01*
X202141939Y-108395000D01*
X202341898Y-108355226D01*
X202530256Y-108277205D01*
X202699774Y-108163937D01*
X202843937Y-108019774D01*
X202957205Y-107850256D01*
X203035226Y-107661898D01*
X203036968Y-107653137D01*
X205915000Y-107653137D01*
X205915000Y-107866863D01*
X205956696Y-108076483D01*
X206038485Y-108273940D01*
X206157225Y-108451647D01*
X206308353Y-108602775D01*
X206486060Y-108721515D01*
X206683517Y-108803304D01*
X206893137Y-108845000D01*
X207106863Y-108845000D01*
X207316483Y-108803304D01*
X207513940Y-108721515D01*
X207691647Y-108602775D01*
X207842775Y-108451647D01*
X207961515Y-108273940D01*
X208043304Y-108076483D01*
X208085000Y-107866863D01*
X208085000Y-107653137D01*
X208043304Y-107443517D01*
X207961515Y-107246060D01*
X207842775Y-107068353D01*
X207691647Y-106917225D01*
X207513940Y-106798485D01*
X207316483Y-106716696D01*
X207106863Y-106675000D01*
X206893137Y-106675000D01*
X206683517Y-106716696D01*
X206486060Y-106798485D01*
X206308353Y-106917225D01*
X206157225Y-107068353D01*
X206038485Y-107246060D01*
X205956696Y-107443517D01*
X205915000Y-107653137D01*
X203036968Y-107653137D01*
X203075000Y-107461939D01*
X203075000Y-107258061D01*
X203035226Y-107058102D01*
X202957205Y-106869744D01*
X202843937Y-106700226D01*
X202727296Y-106583585D01*
X202859064Y-106451816D01*
X202972332Y-106282298D01*
X203050353Y-106093940D01*
X203090127Y-105893981D01*
X203090127Y-105690103D01*
X203050353Y-105490144D01*
X202972332Y-105301786D01*
X202859064Y-105132268D01*
X202714901Y-104988105D01*
X202545383Y-104874837D01*
X202357025Y-104796816D01*
X202157066Y-104757042D01*
X201953188Y-104757042D01*
X201753229Y-104796816D01*
X201564871Y-104874837D01*
X201395353Y-104988105D01*
X201251190Y-105132268D01*
X201137922Y-105301786D01*
X201059901Y-105490144D01*
X201020127Y-105690103D01*
X201020127Y-105893981D01*
X201059901Y-106093940D01*
X201137922Y-106282298D01*
X201251190Y-106451816D01*
X201367832Y-106568458D01*
X201236063Y-106700226D01*
X201122795Y-106869744D01*
X201044774Y-107058102D01*
X201005000Y-107258061D01*
X184898839Y-107258061D01*
X185009774Y-107183937D01*
X185153937Y-107039774D01*
X185267205Y-106870256D01*
X185345226Y-106681898D01*
X185385000Y-106481939D01*
X185385000Y-106278061D01*
X185345226Y-106078102D01*
X185267205Y-105889744D01*
X185153937Y-105720226D01*
X185009774Y-105576063D01*
X184840256Y-105462795D01*
X184651898Y-105384774D01*
X184451939Y-105345000D01*
X184248061Y-105345000D01*
X184048102Y-105384774D01*
X183859744Y-105462795D01*
X183690226Y-105576063D01*
X183546063Y-105720226D01*
X183432795Y-105889744D01*
X183354774Y-106078102D01*
X183315000Y-106278061D01*
X182057097Y-106278061D01*
X182171898Y-106255226D01*
X182360256Y-106177205D01*
X182529774Y-106063937D01*
X182673937Y-105919774D01*
X182787205Y-105750256D01*
X182865226Y-105561898D01*
X182905000Y-105361939D01*
X182905000Y-105158061D01*
X182887099Y-105068061D01*
X190335000Y-105068061D01*
X190335000Y-105271939D01*
X190374774Y-105471898D01*
X190452795Y-105660256D01*
X190566063Y-105829774D01*
X190710226Y-105973937D01*
X190879744Y-106087205D01*
X191068102Y-106165226D01*
X191268061Y-106205000D01*
X191471939Y-106205000D01*
X191671898Y-106165226D01*
X191860256Y-106087205D01*
X192029774Y-105973937D01*
X192173937Y-105829774D01*
X192287205Y-105660256D01*
X192365226Y-105471898D01*
X192389858Y-105348061D01*
X195345000Y-105348061D01*
X195345000Y-105551939D01*
X195384774Y-105751898D01*
X195462795Y-105940256D01*
X195576063Y-106109774D01*
X195720226Y-106253937D01*
X195889744Y-106367205D01*
X196078102Y-106445226D01*
X196278061Y-106485000D01*
X196481939Y-106485000D01*
X196681898Y-106445226D01*
X196870256Y-106367205D01*
X197039774Y-106253937D01*
X197183937Y-106109774D01*
X197297205Y-105940256D01*
X197375226Y-105751898D01*
X197415000Y-105551939D01*
X197415000Y-105348061D01*
X197375226Y-105148102D01*
X197297205Y-104959744D01*
X197183937Y-104790226D01*
X197039774Y-104646063D01*
X196870256Y-104532795D01*
X196681898Y-104454774D01*
X196481939Y-104415000D01*
X196278061Y-104415000D01*
X196078102Y-104454774D01*
X195889744Y-104532795D01*
X195720226Y-104646063D01*
X195576063Y-104790226D01*
X195462795Y-104959744D01*
X195384774Y-105148102D01*
X195345000Y-105348061D01*
X192389858Y-105348061D01*
X192405000Y-105271939D01*
X192405000Y-105068061D01*
X192365226Y-104868102D01*
X192287205Y-104679744D01*
X192173937Y-104510226D01*
X192029774Y-104366063D01*
X191860256Y-104252795D01*
X191671898Y-104174774D01*
X191471939Y-104135000D01*
X191268061Y-104135000D01*
X191068102Y-104174774D01*
X190879744Y-104252795D01*
X190710226Y-104366063D01*
X190566063Y-104510226D01*
X190452795Y-104679744D01*
X190374774Y-104868102D01*
X190335000Y-105068061D01*
X182887099Y-105068061D01*
X182865226Y-104958102D01*
X182787205Y-104769744D01*
X182673937Y-104600226D01*
X182529774Y-104456063D01*
X182360256Y-104342795D01*
X182171898Y-104264774D01*
X181971939Y-104225000D01*
X181768061Y-104225000D01*
X181568102Y-104264774D01*
X181379744Y-104342795D01*
X181210226Y-104456063D01*
X181066063Y-104600226D01*
X180952795Y-104769744D01*
X180874774Y-104958102D01*
X180835000Y-105158061D01*
X156521200Y-105158061D01*
X156521200Y-101908061D01*
X172035000Y-101908061D01*
X172035000Y-102111939D01*
X172074774Y-102311898D01*
X172152795Y-102500256D01*
X172266063Y-102669774D01*
X172410226Y-102813937D01*
X172579744Y-102927205D01*
X172768102Y-103005226D01*
X172968061Y-103045000D01*
X173171939Y-103045000D01*
X173371898Y-103005226D01*
X173560256Y-102927205D01*
X173729774Y-102813937D01*
X173873937Y-102669774D01*
X173927122Y-102590176D01*
X176677420Y-102590176D01*
X176677420Y-102794054D01*
X176717194Y-102994013D01*
X176795215Y-103182371D01*
X176908483Y-103351889D01*
X177052646Y-103496052D01*
X177222164Y-103609320D01*
X177410522Y-103687341D01*
X177610481Y-103727115D01*
X177814359Y-103727115D01*
X178014318Y-103687341D01*
X178202676Y-103609320D01*
X178372194Y-103496052D01*
X178516357Y-103351889D01*
X178629625Y-103182371D01*
X178707646Y-102994013D01*
X178747420Y-102794054D01*
X178747420Y-102590176D01*
X178707646Y-102390217D01*
X178629625Y-102201859D01*
X178620406Y-102188061D01*
X179865000Y-102188061D01*
X179865000Y-102391939D01*
X179904774Y-102591898D01*
X179982795Y-102780256D01*
X180096063Y-102949774D01*
X180240226Y-103093937D01*
X180409744Y-103207205D01*
X180598102Y-103285226D01*
X180798061Y-103325000D01*
X181001939Y-103325000D01*
X181201898Y-103285226D01*
X181279367Y-103253137D01*
X205915000Y-103253137D01*
X205915000Y-103466863D01*
X205956696Y-103676483D01*
X206038485Y-103873940D01*
X206157225Y-104051647D01*
X206308353Y-104202775D01*
X206486060Y-104321515D01*
X206683517Y-104403304D01*
X206893137Y-104445000D01*
X207106863Y-104445000D01*
X207316483Y-104403304D01*
X207513940Y-104321515D01*
X207691647Y-104202775D01*
X207842775Y-104051647D01*
X207961515Y-103873940D01*
X208043304Y-103676483D01*
X208085000Y-103466863D01*
X208085000Y-103253137D01*
X208043304Y-103043517D01*
X207961515Y-102846060D01*
X207842775Y-102668353D01*
X207691647Y-102517225D01*
X207513940Y-102398485D01*
X207316483Y-102316696D01*
X207106863Y-102275000D01*
X206893137Y-102275000D01*
X206683517Y-102316696D01*
X206486060Y-102398485D01*
X206308353Y-102517225D01*
X206157225Y-102668353D01*
X206038485Y-102846060D01*
X205956696Y-103043517D01*
X205915000Y-103253137D01*
X181279367Y-103253137D01*
X181390256Y-103207205D01*
X181559774Y-103093937D01*
X181703937Y-102949774D01*
X181817205Y-102780256D01*
X181895226Y-102591898D01*
X181935000Y-102391939D01*
X181935000Y-102188061D01*
X181895226Y-101988102D01*
X181817205Y-101799744D01*
X181703937Y-101630226D01*
X181559774Y-101486063D01*
X181390256Y-101372795D01*
X181201898Y-101294774D01*
X181001939Y-101255000D01*
X180798061Y-101255000D01*
X180598102Y-101294774D01*
X180409744Y-101372795D01*
X180240226Y-101486063D01*
X180096063Y-101630226D01*
X179982795Y-101799744D01*
X179904774Y-101988102D01*
X179865000Y-102188061D01*
X178620406Y-102188061D01*
X178516357Y-102032341D01*
X178372194Y-101888178D01*
X178202676Y-101774910D01*
X178014318Y-101696889D01*
X177814359Y-101657115D01*
X177610481Y-101657115D01*
X177410522Y-101696889D01*
X177222164Y-101774910D01*
X177052646Y-101888178D01*
X176908483Y-102032341D01*
X176795215Y-102201859D01*
X176717194Y-102390217D01*
X176677420Y-102590176D01*
X173927122Y-102590176D01*
X173987205Y-102500256D01*
X174065226Y-102311898D01*
X174105000Y-102111939D01*
X174105000Y-101908061D01*
X174065226Y-101708102D01*
X173987205Y-101519744D01*
X173873937Y-101350226D01*
X173729774Y-101206063D01*
X173560256Y-101092795D01*
X173371898Y-101014774D01*
X173171939Y-100975000D01*
X172968061Y-100975000D01*
X172768102Y-101014774D01*
X172579744Y-101092795D01*
X172410226Y-101206063D01*
X172266063Y-101350226D01*
X172152795Y-101519744D01*
X172074774Y-101708102D01*
X172035000Y-101908061D01*
X156521200Y-101908061D01*
X156521200Y-99888211D01*
X162035001Y-99888211D01*
X162035001Y-100111787D01*
X162078618Y-100331066D01*
X162164177Y-100537623D01*
X162288389Y-100723519D01*
X162446481Y-100881611D01*
X162632377Y-101005823D01*
X162838934Y-101091382D01*
X163058213Y-101134999D01*
X163281789Y-101134999D01*
X163501068Y-101091382D01*
X163707625Y-101005823D01*
X163893521Y-100881611D01*
X164051613Y-100723519D01*
X164175825Y-100537623D01*
X164261384Y-100331066D01*
X164305001Y-100111787D01*
X164305001Y-99888211D01*
X175684999Y-99888211D01*
X175684999Y-100111787D01*
X175728616Y-100331066D01*
X175814175Y-100537623D01*
X175938387Y-100723519D01*
X176096479Y-100881611D01*
X176282375Y-101005823D01*
X176488932Y-101091382D01*
X176708211Y-101134999D01*
X176931787Y-101134999D01*
X177151066Y-101091382D01*
X177357623Y-101005823D01*
X177543519Y-100881611D01*
X177614999Y-100810131D01*
X177676480Y-100871612D01*
X177862376Y-100995824D01*
X178068933Y-101081383D01*
X178288212Y-101125000D01*
X178511788Y-101125000D01*
X178731067Y-101081383D01*
X178937624Y-100995824D01*
X179123520Y-100871612D01*
X179281612Y-100713520D01*
X179405824Y-100527624D01*
X179491383Y-100321067D01*
X179535000Y-100101788D01*
X179535000Y-100088061D01*
X179615000Y-100088061D01*
X179615000Y-100291939D01*
X179654774Y-100491898D01*
X179732795Y-100680256D01*
X179846063Y-100849774D01*
X179990226Y-100993937D01*
X180159744Y-101107205D01*
X180348102Y-101185226D01*
X180548061Y-101225000D01*
X180751939Y-101225000D01*
X180951898Y-101185226D01*
X181140256Y-101107205D01*
X181309774Y-100993937D01*
X181453937Y-100849774D01*
X181567205Y-100680256D01*
X181645226Y-100491898D01*
X181667869Y-100378061D01*
X182925000Y-100378061D01*
X182925000Y-100581939D01*
X182964774Y-100781898D01*
X183042795Y-100970256D01*
X183156063Y-101139774D01*
X183170195Y-101153906D01*
X183092795Y-101269744D01*
X183014774Y-101458102D01*
X182975000Y-101658061D01*
X182975000Y-101861939D01*
X183014774Y-102061898D01*
X183092795Y-102250256D01*
X183206063Y-102419774D01*
X183350226Y-102563937D01*
X183519744Y-102677205D01*
X183708102Y-102755226D01*
X183908061Y-102795000D01*
X184111939Y-102795000D01*
X184311898Y-102755226D01*
X184500256Y-102677205D01*
X184669774Y-102563937D01*
X184813937Y-102419774D01*
X184927205Y-102250256D01*
X185005226Y-102061898D01*
X185045000Y-101861939D01*
X185045000Y-101658061D01*
X185005226Y-101458102D01*
X184927205Y-101269744D01*
X184813937Y-101100226D01*
X184799805Y-101086094D01*
X184877205Y-100970256D01*
X184955226Y-100781898D01*
X184995000Y-100581939D01*
X184995000Y-100378061D01*
X184977780Y-100291491D01*
X185100226Y-100413937D01*
X185269744Y-100527205D01*
X185458102Y-100605226D01*
X185658061Y-100645000D01*
X185861939Y-100645000D01*
X185947097Y-100628061D01*
X206495000Y-100628061D01*
X206495000Y-100831939D01*
X206534774Y-101031898D01*
X206612795Y-101220256D01*
X206726063Y-101389774D01*
X206870226Y-101533937D01*
X207039744Y-101647205D01*
X207228102Y-101725226D01*
X207428061Y-101765000D01*
X207631939Y-101765000D01*
X207831898Y-101725226D01*
X208020256Y-101647205D01*
X208189774Y-101533937D01*
X208333937Y-101389774D01*
X208447205Y-101220256D01*
X208525226Y-101031898D01*
X208565000Y-100831939D01*
X208565000Y-100628061D01*
X208525226Y-100428102D01*
X208447205Y-100239744D01*
X208333937Y-100070226D01*
X208189774Y-99926063D01*
X208020256Y-99812795D01*
X207831898Y-99734774D01*
X207631939Y-99695000D01*
X207428061Y-99695000D01*
X207228102Y-99734774D01*
X207039744Y-99812795D01*
X206870226Y-99926063D01*
X206726063Y-100070226D01*
X206612795Y-100239744D01*
X206534774Y-100428102D01*
X206495000Y-100628061D01*
X185947097Y-100628061D01*
X186061898Y-100605226D01*
X186250256Y-100527205D01*
X186419774Y-100413937D01*
X186563937Y-100269774D01*
X186677205Y-100100256D01*
X186755226Y-99911898D01*
X186795000Y-99711939D01*
X186795000Y-99508061D01*
X186755226Y-99308102D01*
X186677205Y-99119744D01*
X186563937Y-98950226D01*
X186419774Y-98806063D01*
X186250256Y-98692795D01*
X186061898Y-98614774D01*
X185861939Y-98575000D01*
X185658061Y-98575000D01*
X185458102Y-98614774D01*
X185269744Y-98692795D01*
X185100226Y-98806063D01*
X184956063Y-98950226D01*
X184842795Y-99119744D01*
X184764774Y-99308102D01*
X184725000Y-99508061D01*
X184725000Y-99711939D01*
X184742220Y-99798509D01*
X184619774Y-99676063D01*
X184450256Y-99562795D01*
X184261898Y-99484774D01*
X184061939Y-99445000D01*
X183858061Y-99445000D01*
X183658102Y-99484774D01*
X183469744Y-99562795D01*
X183300226Y-99676063D01*
X183156063Y-99820226D01*
X183042795Y-99989744D01*
X182964774Y-100178102D01*
X182925000Y-100378061D01*
X181667869Y-100378061D01*
X181685000Y-100291939D01*
X181685000Y-100088061D01*
X181645226Y-99888102D01*
X181567205Y-99699744D01*
X181453937Y-99530226D01*
X181309774Y-99386063D01*
X181140256Y-99272795D01*
X180951898Y-99194774D01*
X180751939Y-99155000D01*
X180548061Y-99155000D01*
X180348102Y-99194774D01*
X180159744Y-99272795D01*
X179990226Y-99386063D01*
X179846063Y-99530226D01*
X179732795Y-99699744D01*
X179654774Y-99888102D01*
X179615000Y-100088061D01*
X179535000Y-100088061D01*
X179535000Y-99878212D01*
X179491383Y-99658933D01*
X179405824Y-99452376D01*
X179281612Y-99266480D01*
X179123520Y-99108388D01*
X178937624Y-98984176D01*
X178731067Y-98898617D01*
X178511788Y-98855000D01*
X178288212Y-98855000D01*
X178068933Y-98898617D01*
X177862376Y-98984176D01*
X177676480Y-99108388D01*
X177605000Y-99179868D01*
X177543519Y-99118387D01*
X177357623Y-98994175D01*
X177151066Y-98908616D01*
X176931787Y-98864999D01*
X176708211Y-98864999D01*
X176488932Y-98908616D01*
X176282375Y-98994175D01*
X176096479Y-99118387D01*
X175938387Y-99276479D01*
X175814175Y-99462375D01*
X175728616Y-99668932D01*
X175684999Y-99888211D01*
X164305001Y-99888211D01*
X164261384Y-99668932D01*
X164175825Y-99462375D01*
X164051613Y-99276479D01*
X163893521Y-99118387D01*
X163707625Y-98994175D01*
X163501068Y-98908616D01*
X163281789Y-98864999D01*
X163058213Y-98864999D01*
X162838934Y-98908616D01*
X162632377Y-98994175D01*
X162446481Y-99118387D01*
X162288389Y-99276479D01*
X162164177Y-99462375D01*
X162078618Y-99668932D01*
X162035001Y-99888211D01*
X156521200Y-99888211D01*
X156521200Y-97829186D01*
X156524764Y-97793000D01*
X156522308Y-97768061D01*
X160875000Y-97768061D01*
X160875000Y-97971939D01*
X160914774Y-98171898D01*
X160992795Y-98360256D01*
X161106063Y-98529774D01*
X161250226Y-98673937D01*
X161419744Y-98787205D01*
X161608102Y-98865226D01*
X161808061Y-98905000D01*
X162011939Y-98905000D01*
X162211898Y-98865226D01*
X162400256Y-98787205D01*
X162569774Y-98673937D01*
X162713937Y-98529774D01*
X162827205Y-98360256D01*
X162905226Y-98171898D01*
X162945000Y-97971939D01*
X162945000Y-97768061D01*
X162905226Y-97568102D01*
X162827205Y-97379744D01*
X162785990Y-97318061D01*
X167195000Y-97318061D01*
X167195000Y-97521939D01*
X167234774Y-97721898D01*
X167312795Y-97910256D01*
X167426063Y-98079774D01*
X167570226Y-98223937D01*
X167739744Y-98337205D01*
X167928102Y-98415226D01*
X168128061Y-98455000D01*
X168331939Y-98455000D01*
X168531898Y-98415226D01*
X168720256Y-98337205D01*
X168889774Y-98223937D01*
X169033937Y-98079774D01*
X169147205Y-97910256D01*
X169225226Y-97721898D01*
X169265000Y-97521939D01*
X169265000Y-97383212D01*
X181149849Y-97383212D01*
X181149849Y-97587090D01*
X181189623Y-97787049D01*
X181267644Y-97975407D01*
X181380912Y-98144925D01*
X181525075Y-98289088D01*
X181694593Y-98402356D01*
X181882951Y-98480377D01*
X182082910Y-98520151D01*
X182286788Y-98520151D01*
X182486747Y-98480377D01*
X182675105Y-98402356D01*
X182844623Y-98289088D01*
X182988786Y-98144925D01*
X183102054Y-97975407D01*
X183146518Y-97868061D01*
X200845000Y-97868061D01*
X200845000Y-98071939D01*
X200884774Y-98271898D01*
X200962795Y-98460256D01*
X201076063Y-98629774D01*
X201220226Y-98773937D01*
X201389744Y-98887205D01*
X201578102Y-98965226D01*
X201778061Y-99005000D01*
X201981939Y-99005000D01*
X202181898Y-98965226D01*
X202370256Y-98887205D01*
X202539774Y-98773937D01*
X202683937Y-98629774D01*
X202797205Y-98460256D01*
X202875226Y-98271898D01*
X202915000Y-98071939D01*
X202915000Y-97868061D01*
X202875226Y-97668102D01*
X202797205Y-97479744D01*
X202683937Y-97310226D01*
X202539774Y-97166063D01*
X202370256Y-97052795D01*
X202181898Y-96974774D01*
X201981939Y-96935000D01*
X201778061Y-96935000D01*
X201578102Y-96974774D01*
X201389744Y-97052795D01*
X201220226Y-97166063D01*
X201076063Y-97310226D01*
X200962795Y-97479744D01*
X200884774Y-97668102D01*
X200845000Y-97868061D01*
X183146518Y-97868061D01*
X183180075Y-97787049D01*
X183219849Y-97587090D01*
X183219849Y-97383212D01*
X183180075Y-97183253D01*
X183102054Y-96994895D01*
X182988786Y-96825377D01*
X182844623Y-96681214D01*
X182675105Y-96567946D01*
X182486747Y-96489925D01*
X182286788Y-96450151D01*
X182082910Y-96450151D01*
X181882951Y-96489925D01*
X181694593Y-96567946D01*
X181525075Y-96681214D01*
X181380912Y-96825377D01*
X181267644Y-96994895D01*
X181189623Y-97183253D01*
X181149849Y-97383212D01*
X169265000Y-97383212D01*
X169265000Y-97318061D01*
X169225226Y-97118102D01*
X169147205Y-96929744D01*
X169033937Y-96760226D01*
X168889774Y-96616063D01*
X168720256Y-96502795D01*
X168531898Y-96424774D01*
X168331939Y-96385000D01*
X168128061Y-96385000D01*
X167928102Y-96424774D01*
X167739744Y-96502795D01*
X167570226Y-96616063D01*
X167426063Y-96760226D01*
X167312795Y-96929744D01*
X167234774Y-97118102D01*
X167195000Y-97318061D01*
X162785990Y-97318061D01*
X162713937Y-97210226D01*
X162569774Y-97066063D01*
X162400256Y-96952795D01*
X162211898Y-96874774D01*
X162011939Y-96835000D01*
X161808061Y-96835000D01*
X161608102Y-96874774D01*
X161419744Y-96952795D01*
X161250226Y-97066063D01*
X161106063Y-97210226D01*
X160992795Y-97379744D01*
X160914774Y-97568102D01*
X160875000Y-97768061D01*
X156522308Y-97768061D01*
X156510542Y-97648601D01*
X156468422Y-97509751D01*
X156400024Y-97381787D01*
X156307975Y-97269625D01*
X156195813Y-97177576D01*
X156067849Y-97109178D01*
X155928999Y-97067058D01*
X155820786Y-97056400D01*
X155784600Y-97052836D01*
X155748414Y-97056400D01*
X138934167Y-97056400D01*
X138945000Y-97001939D01*
X138945000Y-96798061D01*
X138905226Y-96598102D01*
X138827205Y-96409744D01*
X138713937Y-96240226D01*
X138569774Y-96096063D01*
X138400256Y-95982795D01*
X138211898Y-95904774D01*
X138011939Y-95865000D01*
X137808061Y-95865000D01*
X137608102Y-95904774D01*
X137419744Y-95982795D01*
X137250226Y-96096063D01*
X137106063Y-96240226D01*
X136992795Y-96409744D01*
X136914774Y-96598102D01*
X136875000Y-96798061D01*
X136875000Y-97001939D01*
X136885833Y-97056400D01*
X123526600Y-97056400D01*
X123526600Y-95250940D01*
X124417665Y-95250940D01*
X124663816Y-95643304D01*
X125166222Y-95908912D01*
X125710793Y-96071401D01*
X126276599Y-96124528D01*
X126841898Y-96066252D01*
X127384966Y-95898810D01*
X127862984Y-95643304D01*
X128109135Y-95250940D01*
X128083735Y-95225540D01*
X150528865Y-95225540D01*
X150775016Y-95617904D01*
X151277422Y-95883512D01*
X151821993Y-96046001D01*
X152387799Y-96099128D01*
X152953098Y-96040852D01*
X153496166Y-95873410D01*
X153974184Y-95617904D01*
X154220335Y-95225540D01*
X152374600Y-93379805D01*
X150528865Y-95225540D01*
X128083735Y-95225540D01*
X126263400Y-93405205D01*
X124417665Y-95250940D01*
X123526600Y-95250940D01*
X123526600Y-94140923D01*
X123590190Y-94347166D01*
X123845696Y-94825184D01*
X124238060Y-95071335D01*
X126083795Y-93225600D01*
X126443005Y-93225600D01*
X128288740Y-95071335D01*
X128681104Y-94825184D01*
X128946712Y-94322778D01*
X129109201Y-93778207D01*
X129162234Y-93213399D01*
X149475672Y-93213399D01*
X149533948Y-93778698D01*
X149701390Y-94321766D01*
X149956896Y-94799784D01*
X150349260Y-95045935D01*
X152194995Y-93200200D01*
X152554205Y-93200200D01*
X154399940Y-95045935D01*
X154792304Y-94799784D01*
X155057912Y-94297378D01*
X155220401Y-93752807D01*
X155273528Y-93187001D01*
X155215252Y-92621702D01*
X155047810Y-92078634D01*
X154792304Y-91600616D01*
X154399940Y-91354465D01*
X152554205Y-93200200D01*
X152194995Y-93200200D01*
X150349260Y-91354465D01*
X149956896Y-91600616D01*
X149691288Y-92103022D01*
X149528799Y-92647593D01*
X149475672Y-93213399D01*
X129162234Y-93213399D01*
X129162328Y-93212401D01*
X129104052Y-92647102D01*
X128936610Y-92104034D01*
X128681104Y-91626016D01*
X128288740Y-91379865D01*
X126443005Y-93225600D01*
X126083795Y-93225600D01*
X124238060Y-91379865D01*
X123845696Y-91626016D01*
X123580088Y-92128422D01*
X123526600Y-92307683D01*
X123526600Y-91200260D01*
X124417665Y-91200260D01*
X126263400Y-93045995D01*
X128109135Y-91200260D01*
X128093201Y-91174860D01*
X150528865Y-91174860D01*
X152374600Y-93020595D01*
X154220335Y-91174860D01*
X153974184Y-90782496D01*
X153471778Y-90516888D01*
X152927207Y-90354399D01*
X152361401Y-90301272D01*
X151796102Y-90359548D01*
X151253034Y-90526990D01*
X150775016Y-90782496D01*
X150528865Y-91174860D01*
X128093201Y-91174860D01*
X127862984Y-90807896D01*
X127360578Y-90542288D01*
X126816007Y-90379799D01*
X126250201Y-90326672D01*
X125684902Y-90384948D01*
X125141834Y-90552390D01*
X124663816Y-90807896D01*
X124417665Y-91200260D01*
X123526600Y-91200260D01*
X123526600Y-88658061D01*
X153075000Y-88658061D01*
X153075000Y-88861939D01*
X153114774Y-89061898D01*
X153192795Y-89250256D01*
X153306063Y-89419774D01*
X153450226Y-89563937D01*
X153619744Y-89677205D01*
X153808102Y-89755226D01*
X154008061Y-89795000D01*
X154211939Y-89795000D01*
X154411898Y-89755226D01*
X154600256Y-89677205D01*
X154769774Y-89563937D01*
X154913937Y-89419774D01*
X155027205Y-89250256D01*
X155105226Y-89061898D01*
X155113945Y-89018061D01*
X189705000Y-89018061D01*
X189705000Y-89221939D01*
X189744774Y-89421898D01*
X189822795Y-89610256D01*
X189936063Y-89779774D01*
X190080226Y-89923937D01*
X190249744Y-90037205D01*
X190438102Y-90115226D01*
X190638061Y-90155000D01*
X190841939Y-90155000D01*
X190999222Y-90123715D01*
X191014774Y-90201898D01*
X191092795Y-90390256D01*
X191206063Y-90559774D01*
X191350226Y-90703937D01*
X191519744Y-90817205D01*
X191708102Y-90895226D01*
X191908061Y-90935000D01*
X192111939Y-90935000D01*
X192311898Y-90895226D01*
X192500256Y-90817205D01*
X192669774Y-90703937D01*
X192813937Y-90559774D01*
X192927205Y-90390256D01*
X193005226Y-90201898D01*
X193045000Y-90001939D01*
X193045000Y-89798061D01*
X193005226Y-89598102D01*
X192927205Y-89409744D01*
X192813937Y-89240226D01*
X192669774Y-89096063D01*
X192500256Y-88982795D01*
X192311898Y-88904774D01*
X192111939Y-88865000D01*
X191908061Y-88865000D01*
X191750778Y-88896285D01*
X191735226Y-88818102D01*
X191657205Y-88629744D01*
X191543937Y-88460226D01*
X191399774Y-88316063D01*
X191230256Y-88202795D01*
X191041898Y-88124774D01*
X190841939Y-88085000D01*
X190638061Y-88085000D01*
X190438102Y-88124774D01*
X190249744Y-88202795D01*
X190080226Y-88316063D01*
X189936063Y-88460226D01*
X189822795Y-88629744D01*
X189744774Y-88818102D01*
X189705000Y-89018061D01*
X155113945Y-89018061D01*
X155145000Y-88861939D01*
X155145000Y-88658061D01*
X155105226Y-88458102D01*
X155027205Y-88269744D01*
X154913937Y-88100226D01*
X154769774Y-87956063D01*
X154600256Y-87842795D01*
X154411898Y-87764774D01*
X154211939Y-87725000D01*
X154008061Y-87725000D01*
X153808102Y-87764774D01*
X153619744Y-87842795D01*
X153450226Y-87956063D01*
X153306063Y-88100226D01*
X153192795Y-88269744D01*
X153114774Y-88458102D01*
X153075000Y-88658061D01*
X123526600Y-88658061D01*
X123526600Y-88064800D01*
X127732214Y-88064800D01*
X127768400Y-88068364D01*
X127804586Y-88064800D01*
X127912799Y-88054142D01*
X128051649Y-88012022D01*
X128179613Y-87943624D01*
X128291775Y-87851575D01*
X128383824Y-87739413D01*
X128446015Y-87623061D01*
X186645000Y-87623061D01*
X186645000Y-87826939D01*
X186684774Y-88026898D01*
X186762795Y-88215256D01*
X186876063Y-88384774D01*
X187020226Y-88528937D01*
X187189744Y-88642205D01*
X187378102Y-88720226D01*
X187578061Y-88760000D01*
X187781939Y-88760000D01*
X187981898Y-88720226D01*
X188170256Y-88642205D01*
X188339774Y-88528937D01*
X188483937Y-88384774D01*
X188597205Y-88215256D01*
X188675226Y-88026898D01*
X188715000Y-87826939D01*
X188715000Y-87623061D01*
X188675226Y-87423102D01*
X188597205Y-87234744D01*
X188483937Y-87065226D01*
X188346772Y-86928061D01*
X201485000Y-86928061D01*
X201485000Y-87131939D01*
X201524774Y-87331898D01*
X201602795Y-87520256D01*
X201716063Y-87689774D01*
X201860226Y-87833937D01*
X202029744Y-87947205D01*
X202218102Y-88025226D01*
X202418061Y-88065000D01*
X202621939Y-88065000D01*
X202821898Y-88025226D01*
X203010256Y-87947205D01*
X203179774Y-87833937D01*
X203323937Y-87689774D01*
X203437205Y-87520256D01*
X203515226Y-87331898D01*
X203555000Y-87131939D01*
X203555000Y-86928061D01*
X203515226Y-86728102D01*
X203437205Y-86539744D01*
X203323937Y-86370226D01*
X203179774Y-86226063D01*
X203010256Y-86112795D01*
X202821898Y-86034774D01*
X202621939Y-85995000D01*
X202418061Y-85995000D01*
X202218102Y-86034774D01*
X202029744Y-86112795D01*
X201860226Y-86226063D01*
X201716063Y-86370226D01*
X201602795Y-86539744D01*
X201524774Y-86728102D01*
X201485000Y-86928061D01*
X188346772Y-86928061D01*
X188339774Y-86921063D01*
X188170256Y-86807795D01*
X187981898Y-86729774D01*
X187781939Y-86690000D01*
X187578061Y-86690000D01*
X187378102Y-86729774D01*
X187189744Y-86807795D01*
X187020226Y-86921063D01*
X186876063Y-87065226D01*
X186762795Y-87234744D01*
X186684774Y-87423102D01*
X186645000Y-87623061D01*
X128446015Y-87623061D01*
X128452222Y-87611449D01*
X128494342Y-87472599D01*
X128508564Y-87328200D01*
X128505000Y-87292014D01*
X128505000Y-85955340D01*
X128984265Y-85955340D01*
X129230416Y-86347704D01*
X129732822Y-86613312D01*
X130277393Y-86775801D01*
X130843199Y-86828928D01*
X131408498Y-86770652D01*
X131951566Y-86603210D01*
X132429584Y-86347704D01*
X132675735Y-85955340D01*
X130830000Y-84109605D01*
X128984265Y-85955340D01*
X128505000Y-85955340D01*
X128505000Y-85587742D01*
X128804660Y-85775735D01*
X130650395Y-83930000D01*
X130636253Y-83915858D01*
X130815858Y-83736253D01*
X130830000Y-83750395D01*
X130844143Y-83736253D01*
X131023748Y-83915858D01*
X131009605Y-83930000D01*
X132855340Y-85775735D01*
X133247704Y-85529584D01*
X133338383Y-85358061D01*
X184605000Y-85358061D01*
X184605000Y-85561939D01*
X184644774Y-85761898D01*
X184722795Y-85950256D01*
X184836063Y-86119774D01*
X184980226Y-86263937D01*
X185149744Y-86377205D01*
X185338102Y-86455226D01*
X185538061Y-86495000D01*
X185741939Y-86495000D01*
X185941898Y-86455226D01*
X186130256Y-86377205D01*
X186299774Y-86263937D01*
X186443937Y-86119774D01*
X186557205Y-85950256D01*
X186635226Y-85761898D01*
X186675000Y-85561939D01*
X186675000Y-85358061D01*
X186635226Y-85158102D01*
X186557205Y-84969744D01*
X186443937Y-84800226D01*
X186299774Y-84656063D01*
X186130256Y-84542795D01*
X185941898Y-84464774D01*
X185741939Y-84425000D01*
X185538061Y-84425000D01*
X185338102Y-84464774D01*
X185149744Y-84542795D01*
X184980226Y-84656063D01*
X184836063Y-84800226D01*
X184722795Y-84969744D01*
X184644774Y-85158102D01*
X184605000Y-85358061D01*
X133338383Y-85358061D01*
X133513312Y-85027178D01*
X133675801Y-84482607D01*
X133728928Y-83916801D01*
X133718234Y-83813059D01*
X158320000Y-83813059D01*
X158320000Y-84016937D01*
X158359774Y-84216896D01*
X158437795Y-84405254D01*
X158551063Y-84574772D01*
X158695226Y-84718935D01*
X158864744Y-84832203D01*
X159053102Y-84910224D01*
X159253061Y-84949998D01*
X159456939Y-84949998D01*
X159656898Y-84910224D01*
X159845256Y-84832203D01*
X160014774Y-84718935D01*
X160158937Y-84574772D01*
X160272205Y-84405254D01*
X160350226Y-84216896D01*
X160389746Y-84018212D01*
X162645000Y-84018212D01*
X162645000Y-84241788D01*
X162688617Y-84461067D01*
X162774176Y-84667624D01*
X162898388Y-84853520D01*
X163056480Y-85011612D01*
X163242376Y-85135824D01*
X163448933Y-85221383D01*
X163668212Y-85265000D01*
X163891788Y-85265000D01*
X164111067Y-85221383D01*
X164317624Y-85135824D01*
X164503520Y-85011612D01*
X164546774Y-84968358D01*
X164679744Y-85057205D01*
X164868102Y-85135226D01*
X165068061Y-85175000D01*
X165271939Y-85175000D01*
X165471898Y-85135226D01*
X165660256Y-85057205D01*
X165829774Y-84943937D01*
X165973937Y-84799774D01*
X166087205Y-84630256D01*
X166165226Y-84441898D01*
X166205000Y-84241939D01*
X166205000Y-84038061D01*
X166199034Y-84008063D01*
X172975000Y-84008063D01*
X172975000Y-84211941D01*
X173014774Y-84411900D01*
X173092795Y-84600258D01*
X173206063Y-84769776D01*
X173350226Y-84913939D01*
X173519744Y-85027207D01*
X173708102Y-85105228D01*
X173908061Y-85145002D01*
X174111939Y-85145002D01*
X174311898Y-85105228D01*
X174500256Y-85027207D01*
X174669774Y-84913939D01*
X174813937Y-84769776D01*
X174927205Y-84600258D01*
X175005226Y-84411900D01*
X175045000Y-84211941D01*
X175045000Y-84008063D01*
X175021161Y-83888212D01*
X178355000Y-83888212D01*
X178355000Y-84111788D01*
X178398617Y-84331067D01*
X178484176Y-84537624D01*
X178608388Y-84723520D01*
X178766480Y-84881612D01*
X178952376Y-85005824D01*
X179158933Y-85091383D01*
X179378212Y-85135000D01*
X179601788Y-85135000D01*
X179821067Y-85091383D01*
X180027624Y-85005824D01*
X180213520Y-84881612D01*
X180282715Y-84812417D01*
X180349746Y-84857205D01*
X180538104Y-84935226D01*
X180738063Y-84975000D01*
X180941941Y-84975000D01*
X181141900Y-84935226D01*
X181330258Y-84857205D01*
X181499776Y-84743937D01*
X181643939Y-84599774D01*
X181757207Y-84430256D01*
X181835228Y-84241898D01*
X181875002Y-84041939D01*
X181875002Y-84028061D01*
X187435000Y-84028061D01*
X187435000Y-84231939D01*
X187474774Y-84431898D01*
X187552795Y-84620256D01*
X187666063Y-84789774D01*
X187810226Y-84933937D01*
X187979744Y-85047205D01*
X188168102Y-85125226D01*
X188368061Y-85165000D01*
X188571939Y-85165000D01*
X188771898Y-85125226D01*
X188960256Y-85047205D01*
X189129774Y-84933937D01*
X189273937Y-84789774D01*
X189387205Y-84620256D01*
X189465226Y-84431898D01*
X189505000Y-84231939D01*
X189505000Y-84028061D01*
X189465226Y-83828102D01*
X189462958Y-83822626D01*
X189758884Y-83822626D01*
X189758884Y-84026504D01*
X189798658Y-84226463D01*
X189876679Y-84414821D01*
X189989947Y-84584339D01*
X190134110Y-84728502D01*
X190303628Y-84841770D01*
X190491986Y-84919791D01*
X190691945Y-84959565D01*
X190895823Y-84959565D01*
X191095782Y-84919791D01*
X191284140Y-84841770D01*
X191453658Y-84728502D01*
X191593514Y-84588646D01*
X191626480Y-84621612D01*
X191812376Y-84745824D01*
X192018933Y-84831383D01*
X192238212Y-84875000D01*
X192461788Y-84875000D01*
X192681067Y-84831383D01*
X192887624Y-84745824D01*
X193073520Y-84621612D01*
X193231612Y-84463520D01*
X193355824Y-84277624D01*
X193441383Y-84071067D01*
X193485000Y-83851788D01*
X193485000Y-83628212D01*
X193441383Y-83408933D01*
X193407880Y-83328049D01*
X198275000Y-83328049D01*
X198275000Y-83531927D01*
X198314774Y-83731886D01*
X198392795Y-83920244D01*
X198506063Y-84089762D01*
X198650226Y-84233925D01*
X198819744Y-84347193D01*
X199008102Y-84425214D01*
X199208061Y-84464988D01*
X199411939Y-84464988D01*
X199611898Y-84425214D01*
X199800256Y-84347193D01*
X199969774Y-84233925D01*
X200113937Y-84089762D01*
X200227205Y-83920244D01*
X200305226Y-83731886D01*
X200345000Y-83531927D01*
X200345000Y-83328049D01*
X200305226Y-83128090D01*
X200227205Y-82939732D01*
X200113937Y-82770214D01*
X199969774Y-82626051D01*
X199800256Y-82512783D01*
X199611898Y-82434762D01*
X199411939Y-82394988D01*
X199208061Y-82394988D01*
X199008102Y-82434762D01*
X198819744Y-82512783D01*
X198650226Y-82626051D01*
X198506063Y-82770214D01*
X198392795Y-82939732D01*
X198314774Y-83128090D01*
X198275000Y-83328049D01*
X193407880Y-83328049D01*
X193355824Y-83202376D01*
X193231612Y-83016480D01*
X193073520Y-82858388D01*
X192887624Y-82734176D01*
X192681067Y-82648617D01*
X192461788Y-82605000D01*
X192238212Y-82605000D01*
X192018933Y-82648617D01*
X191812376Y-82734176D01*
X191626480Y-82858388D01*
X191468388Y-83016480D01*
X191415731Y-83095286D01*
X191284140Y-83007360D01*
X191095782Y-82929339D01*
X190895823Y-82889565D01*
X190691945Y-82889565D01*
X190491986Y-82929339D01*
X190303628Y-83007360D01*
X190134110Y-83120628D01*
X189989947Y-83264791D01*
X189876679Y-83434309D01*
X189798658Y-83622667D01*
X189758884Y-83822626D01*
X189462958Y-83822626D01*
X189387205Y-83639744D01*
X189273937Y-83470226D01*
X189129774Y-83326063D01*
X188960256Y-83212795D01*
X188771898Y-83134774D01*
X188571939Y-83095000D01*
X188368061Y-83095000D01*
X188168102Y-83134774D01*
X187979744Y-83212795D01*
X187810226Y-83326063D01*
X187666063Y-83470226D01*
X187552795Y-83639744D01*
X187474774Y-83828102D01*
X187435000Y-84028061D01*
X181875002Y-84028061D01*
X181875002Y-83838061D01*
X181835228Y-83638102D01*
X181757207Y-83449744D01*
X181643939Y-83280226D01*
X181499776Y-83136063D01*
X181330258Y-83022795D01*
X181141900Y-82944774D01*
X180941941Y-82905000D01*
X180738063Y-82905000D01*
X180538104Y-82944774D01*
X180349746Y-83022795D01*
X180210100Y-83116103D01*
X180027624Y-82994176D01*
X179821067Y-82908617D01*
X179601788Y-82865000D01*
X179378212Y-82865000D01*
X179158933Y-82908617D01*
X178952376Y-82994176D01*
X178766480Y-83118388D01*
X178608388Y-83276480D01*
X178484176Y-83462376D01*
X178398617Y-83668933D01*
X178355000Y-83888212D01*
X175021161Y-83888212D01*
X175005226Y-83808104D01*
X174927205Y-83619746D01*
X174813937Y-83450228D01*
X174669774Y-83306065D01*
X174500256Y-83192797D01*
X174311898Y-83114776D01*
X174111939Y-83075002D01*
X173908061Y-83075002D01*
X173708102Y-83114776D01*
X173519744Y-83192797D01*
X173350226Y-83306065D01*
X173206063Y-83450228D01*
X173092795Y-83619746D01*
X173014774Y-83808104D01*
X172975000Y-84008063D01*
X166199034Y-84008063D01*
X166165226Y-83838102D01*
X166087205Y-83649744D01*
X165973937Y-83480226D01*
X165829774Y-83336063D01*
X165660256Y-83222795D01*
X165471898Y-83144774D01*
X165271939Y-83105000D01*
X165068061Y-83105000D01*
X164868102Y-83144774D01*
X164679744Y-83222795D01*
X164558763Y-83303631D01*
X164503520Y-83248388D01*
X164317624Y-83124176D01*
X164111067Y-83038617D01*
X163891788Y-82995000D01*
X163668212Y-82995000D01*
X163448933Y-83038617D01*
X163242376Y-83124176D01*
X163056480Y-83248388D01*
X162898388Y-83406480D01*
X162774176Y-83592376D01*
X162688617Y-83798933D01*
X162645000Y-84018212D01*
X160389746Y-84018212D01*
X160390000Y-84016937D01*
X160390000Y-83813059D01*
X160350226Y-83613100D01*
X160272205Y-83424742D01*
X160158937Y-83255224D01*
X160014774Y-83111061D01*
X159845256Y-82997793D01*
X159656898Y-82919772D01*
X159456939Y-82879998D01*
X159253061Y-82879998D01*
X159053102Y-82919772D01*
X158864744Y-82997793D01*
X158695226Y-83111061D01*
X158551063Y-83255224D01*
X158437795Y-83424742D01*
X158359774Y-83613100D01*
X158320000Y-83813059D01*
X133718234Y-83813059D01*
X133670652Y-83351502D01*
X133503210Y-82808434D01*
X133247704Y-82330416D01*
X132855342Y-82084266D01*
X132869208Y-82070400D01*
X203853992Y-82070400D01*
X203948358Y-82164766D01*
G04 #@! TA.AperFunction,Conductor*
D19*
G36*
X203948358Y-82164766D02*
G01*
X203571359Y-82392899D01*
X203320708Y-82869789D01*
X203167908Y-83386414D01*
X203118833Y-83922922D01*
X203175369Y-84458696D01*
X203335343Y-84973145D01*
X203571359Y-85414701D01*
X203948360Y-85642835D01*
X205687395Y-83903800D01*
X205673253Y-83889658D01*
X205852858Y-83710053D01*
X205867000Y-83724195D01*
X205881143Y-83710053D01*
X206060748Y-83889658D01*
X206046605Y-83903800D01*
X206060748Y-83917943D01*
X205881143Y-84097548D01*
X205867000Y-84083405D01*
X204127965Y-85822440D01*
X204356099Y-86199441D01*
X204832989Y-86450092D01*
X205020683Y-86505606D01*
X204896063Y-86630226D01*
X204782795Y-86799744D01*
X204704774Y-86988102D01*
X204665000Y-87188061D01*
X204665000Y-87391939D01*
X204704774Y-87591898D01*
X204782795Y-87780256D01*
X204896063Y-87949774D01*
X205040226Y-88093937D01*
X205209744Y-88207205D01*
X205398102Y-88285226D01*
X205598061Y-88325000D01*
X205801939Y-88325000D01*
X206001898Y-88285226D01*
X206190256Y-88207205D01*
X206359774Y-88093937D01*
X206503937Y-87949774D01*
X206617205Y-87780256D01*
X206695226Y-87591898D01*
X206735000Y-87391939D01*
X206735000Y-87188061D01*
X206695226Y-86988102D01*
X206617205Y-86799744D01*
X206503937Y-86630226D01*
X206457935Y-86584224D01*
X206936345Y-86435457D01*
X207245000Y-86270478D01*
X207245000Y-87292014D01*
X207241436Y-87328200D01*
X207255658Y-87472599D01*
X207297778Y-87611449D01*
X207366176Y-87739413D01*
X207458225Y-87851575D01*
X207570387Y-87943624D01*
X207698351Y-88012022D01*
X207837201Y-88054142D01*
X207981600Y-88068364D01*
X208017786Y-88064800D01*
X212248801Y-88064800D01*
X212248801Y-94538050D01*
X212071898Y-94464774D01*
X211871939Y-94425000D01*
X211668061Y-94425000D01*
X211468102Y-94464774D01*
X211279744Y-94542795D01*
X211110226Y-94656063D01*
X210966063Y-94800226D01*
X210852795Y-94969744D01*
X210774774Y-95158102D01*
X210735000Y-95358061D01*
X210735000Y-95561939D01*
X210774774Y-95761898D01*
X210852795Y-95950256D01*
X210966063Y-96119774D01*
X211110226Y-96263937D01*
X211279744Y-96377205D01*
X211468102Y-96455226D01*
X211668061Y-96495000D01*
X211871939Y-96495000D01*
X212071898Y-96455226D01*
X212248801Y-96381950D01*
X212248801Y-97920929D01*
X212193989Y-97898225D01*
X211926411Y-97845000D01*
X211653589Y-97845000D01*
X211386011Y-97898225D01*
X211133957Y-98002629D01*
X210907114Y-98154201D01*
X210714201Y-98347114D01*
X210562629Y-98573957D01*
X210458225Y-98826011D01*
X210405000Y-99093589D01*
X210405000Y-99366411D01*
X210458225Y-99633989D01*
X210562629Y-99886043D01*
X210714201Y-100112886D01*
X210907114Y-100305799D01*
X211133957Y-100457371D01*
X211386011Y-100561775D01*
X211653589Y-100615000D01*
X211926411Y-100615000D01*
X212193989Y-100561775D01*
X212248801Y-100539071D01*
X212248800Y-125479000D01*
X208017786Y-125479000D01*
X207981600Y-125475436D01*
X207945414Y-125479000D01*
X207837201Y-125489658D01*
X207698351Y-125531778D01*
X207570387Y-125600176D01*
X207458225Y-125692225D01*
X207366176Y-125804387D01*
X207297778Y-125932351D01*
X207255658Y-126071201D01*
X207241436Y-126215600D01*
X207245001Y-126251796D01*
X207245001Y-127347857D01*
X206875611Y-127153708D01*
X206358986Y-127000908D01*
X205822478Y-126951833D01*
X205286704Y-127008369D01*
X204772255Y-127168343D01*
X204330699Y-127404359D01*
X204102565Y-127781360D01*
X205841600Y-129520395D01*
X205855743Y-129506253D01*
X206035348Y-129685858D01*
X206021205Y-129700000D01*
X206035348Y-129714143D01*
X205855743Y-129893748D01*
X205841600Y-129879605D01*
X205827458Y-129893748D01*
X205647853Y-129714143D01*
X205661995Y-129700000D01*
X203922960Y-127960965D01*
X203545959Y-128189099D01*
X203295308Y-128665989D01*
X203142508Y-129182614D01*
X203093433Y-129719122D01*
X203149969Y-130254896D01*
X203309943Y-130769345D01*
X203545959Y-131210901D01*
X203922958Y-131439034D01*
X203888592Y-131473400D01*
X188971695Y-131473400D01*
X189007205Y-131420256D01*
X189085226Y-131231898D01*
X189125000Y-131031939D01*
X189125000Y-130828061D01*
X189085226Y-130628102D01*
X189007205Y-130439744D01*
X188893937Y-130270226D01*
X188891772Y-130268061D01*
X200095000Y-130268061D01*
X200095000Y-130471939D01*
X200134774Y-130671898D01*
X200212795Y-130860256D01*
X200326063Y-131029774D01*
X200470226Y-131173937D01*
X200639744Y-131287205D01*
X200828102Y-131365226D01*
X201028061Y-131405000D01*
X201231939Y-131405000D01*
X201431898Y-131365226D01*
X201620256Y-131287205D01*
X201789774Y-131173937D01*
X201933937Y-131029774D01*
X202047205Y-130860256D01*
X202125226Y-130671898D01*
X202165000Y-130471939D01*
X202165000Y-130268061D01*
X202125226Y-130068102D01*
X202047205Y-129879744D01*
X201933937Y-129710226D01*
X201789774Y-129566063D01*
X201620256Y-129452795D01*
X201431898Y-129374774D01*
X201231939Y-129335000D01*
X201028061Y-129335000D01*
X200828102Y-129374774D01*
X200639744Y-129452795D01*
X200470226Y-129566063D01*
X200326063Y-129710226D01*
X200212795Y-129879744D01*
X200134774Y-130068102D01*
X200095000Y-130268061D01*
X188891772Y-130268061D01*
X188749774Y-130126063D01*
X188648387Y-130058318D01*
X188729774Y-130003937D01*
X188873937Y-129859774D01*
X188987205Y-129690256D01*
X189065226Y-129501898D01*
X189105000Y-129301939D01*
X189105000Y-129098061D01*
X189065226Y-128898102D01*
X188987205Y-128709744D01*
X188873937Y-128540226D01*
X188729774Y-128396063D01*
X188560256Y-128282795D01*
X188371898Y-128204774D01*
X188171939Y-128165000D01*
X187968061Y-128165000D01*
X187768102Y-128204774D01*
X187579744Y-128282795D01*
X187410226Y-128396063D01*
X187266063Y-128540226D01*
X187152795Y-128709744D01*
X187074774Y-128898102D01*
X187035000Y-129098061D01*
X187035000Y-129301939D01*
X187074774Y-129501898D01*
X187152795Y-129690256D01*
X187266063Y-129859774D01*
X187410226Y-130003937D01*
X187511613Y-130071682D01*
X187430226Y-130126063D01*
X187286063Y-130270226D01*
X187172795Y-130439744D01*
X187094774Y-130628102D01*
X187055000Y-130828061D01*
X187055000Y-131031939D01*
X187094774Y-131231898D01*
X187172795Y-131420256D01*
X187208305Y-131473400D01*
X132935554Y-131473400D01*
X133253104Y-131274184D01*
X133518712Y-130771778D01*
X133681201Y-130227207D01*
X133734328Y-129661401D01*
X133722645Y-129548063D01*
X138545000Y-129548063D01*
X138545000Y-129751941D01*
X138584774Y-129951900D01*
X138662795Y-130140258D01*
X138776063Y-130309776D01*
X138920226Y-130453939D01*
X139089744Y-130567207D01*
X139278102Y-130645228D01*
X139478061Y-130685002D01*
X139681939Y-130685002D01*
X139881898Y-130645228D01*
X140070256Y-130567207D01*
X140239774Y-130453939D01*
X140383937Y-130309776D01*
X140497205Y-130140258D01*
X140575226Y-129951900D01*
X140615000Y-129751941D01*
X140615000Y-129548063D01*
X140575226Y-129348104D01*
X140497205Y-129159746D01*
X140402535Y-129018061D01*
X141785000Y-129018061D01*
X141785000Y-129221939D01*
X141824774Y-129421898D01*
X141902795Y-129610256D01*
X142016063Y-129779774D01*
X142160226Y-129923937D01*
X142329744Y-130037205D01*
X142518102Y-130115226D01*
X142718061Y-130155000D01*
X142921939Y-130155000D01*
X143121898Y-130115226D01*
X143310256Y-130037205D01*
X143479774Y-129923937D01*
X143623937Y-129779774D01*
X143737205Y-129610256D01*
X143815226Y-129421898D01*
X143855000Y-129221939D01*
X143855000Y-129018061D01*
X143815226Y-128818102D01*
X143737205Y-128629744D01*
X143623937Y-128460226D01*
X143479774Y-128316063D01*
X143310256Y-128202795D01*
X143121898Y-128124774D01*
X142921939Y-128085000D01*
X142718061Y-128085000D01*
X142518102Y-128124774D01*
X142329744Y-128202795D01*
X142160226Y-128316063D01*
X142016063Y-128460226D01*
X141902795Y-128629744D01*
X141824774Y-128818102D01*
X141785000Y-129018061D01*
X140402535Y-129018061D01*
X140383937Y-128990228D01*
X140239774Y-128846065D01*
X140070256Y-128732797D01*
X139881898Y-128654776D01*
X139681939Y-128615002D01*
X139478061Y-128615002D01*
X139278102Y-128654776D01*
X139089744Y-128732797D01*
X138920226Y-128846065D01*
X138776063Y-128990228D01*
X138662795Y-129159746D01*
X138584774Y-129348104D01*
X138545000Y-129548063D01*
X133722645Y-129548063D01*
X133676052Y-129096102D01*
X133508610Y-128553034D01*
X133253104Y-128075016D01*
X132860740Y-127828865D01*
X131015005Y-129674600D01*
X131029148Y-129688743D01*
X130849543Y-129868348D01*
X130835400Y-129854205D01*
X130821258Y-129868348D01*
X130641653Y-129688743D01*
X130655795Y-129674600D01*
X128810060Y-127828865D01*
X128505000Y-128020246D01*
X128505000Y-127649260D01*
X128989665Y-127649260D01*
X130835400Y-129494995D01*
X132572334Y-127758061D01*
X164975000Y-127758061D01*
X164975000Y-127961939D01*
X165014774Y-128161898D01*
X165092795Y-128350256D01*
X165206063Y-128519774D01*
X165350226Y-128663937D01*
X165519744Y-128777205D01*
X165708102Y-128855226D01*
X165908061Y-128895000D01*
X166111939Y-128895000D01*
X166311898Y-128855226D01*
X166500256Y-128777205D01*
X166669774Y-128663937D01*
X166813937Y-128519774D01*
X166895264Y-128398059D01*
X180445000Y-128398059D01*
X180445000Y-128601937D01*
X180484774Y-128801896D01*
X180562795Y-128990254D01*
X180676063Y-129159772D01*
X180820226Y-129303935D01*
X180989744Y-129417203D01*
X181178102Y-129495224D01*
X181378061Y-129534998D01*
X181581939Y-129534998D01*
X181781898Y-129495224D01*
X181970256Y-129417203D01*
X182139774Y-129303935D01*
X182283937Y-129159772D01*
X182397205Y-128990254D01*
X182475226Y-128801896D01*
X182480576Y-128775000D01*
X182681939Y-128775000D01*
X182881898Y-128735226D01*
X183070256Y-128657205D01*
X183239774Y-128543937D01*
X183383937Y-128399774D01*
X183497205Y-128230256D01*
X183575226Y-128041898D01*
X183615000Y-127841939D01*
X183615000Y-127638061D01*
X183575226Y-127438102D01*
X183514121Y-127290581D01*
X192015150Y-127290581D01*
X192015150Y-127494459D01*
X192054924Y-127694418D01*
X192132945Y-127882776D01*
X192246213Y-128052294D01*
X192390376Y-128196457D01*
X192559894Y-128309725D01*
X192748252Y-128387746D01*
X192948211Y-128427520D01*
X193152089Y-128427520D01*
X193352048Y-128387746D01*
X193540406Y-128309725D01*
X193709924Y-128196457D01*
X193854087Y-128052294D01*
X193967355Y-127882776D01*
X194045376Y-127694418D01*
X194085150Y-127494459D01*
X194085150Y-127290581D01*
X194045376Y-127090622D01*
X193967355Y-126902264D01*
X193854087Y-126732746D01*
X193709924Y-126588583D01*
X193540406Y-126475315D01*
X193352048Y-126397294D01*
X193152089Y-126357520D01*
X192948211Y-126357520D01*
X192748252Y-126397294D01*
X192559894Y-126475315D01*
X192390376Y-126588583D01*
X192246213Y-126732746D01*
X192132945Y-126902264D01*
X192054924Y-127090622D01*
X192015150Y-127290581D01*
X183514121Y-127290581D01*
X183497205Y-127249744D01*
X183383937Y-127080226D01*
X183239774Y-126936063D01*
X183070256Y-126822795D01*
X182881898Y-126744774D01*
X182681939Y-126705000D01*
X182478061Y-126705000D01*
X182278102Y-126744774D01*
X182089744Y-126822795D01*
X181920226Y-126936063D01*
X181776063Y-127080226D01*
X181662795Y-127249744D01*
X181584774Y-127438102D01*
X181579424Y-127464998D01*
X181378061Y-127464998D01*
X181178102Y-127504772D01*
X180989744Y-127582793D01*
X180820226Y-127696061D01*
X180676063Y-127840224D01*
X180562795Y-128009742D01*
X180484774Y-128198100D01*
X180445000Y-128398059D01*
X166895264Y-128398059D01*
X166927205Y-128350256D01*
X167005226Y-128161898D01*
X167045000Y-127961939D01*
X167045000Y-127758061D01*
X167005226Y-127558102D01*
X166927205Y-127369744D01*
X166813937Y-127200226D01*
X166669774Y-127056063D01*
X166500256Y-126942795D01*
X166311898Y-126864774D01*
X166111939Y-126825000D01*
X165908061Y-126825000D01*
X165708102Y-126864774D01*
X165519744Y-126942795D01*
X165350226Y-127056063D01*
X165206063Y-127200226D01*
X165092795Y-127369744D01*
X165014774Y-127558102D01*
X164975000Y-127758061D01*
X132572334Y-127758061D01*
X132681135Y-127649260D01*
X132434984Y-127256896D01*
X131932578Y-126991288D01*
X131388007Y-126828799D01*
X130822201Y-126775672D01*
X130256902Y-126833948D01*
X129713834Y-127001390D01*
X129235816Y-127256896D01*
X128989665Y-127649260D01*
X128505000Y-127649260D01*
X128505000Y-126251785D01*
X128508564Y-126215600D01*
X128494342Y-126071201D01*
X128452222Y-125932351D01*
X128383824Y-125804387D01*
X128291775Y-125692225D01*
X128179613Y-125600176D01*
X128051649Y-125531778D01*
X127912799Y-125489658D01*
X127804586Y-125479000D01*
X127768400Y-125475436D01*
X127732214Y-125479000D01*
X123526600Y-125479000D01*
X123526600Y-123190940D01*
X124417665Y-123190940D01*
X124663816Y-123583304D01*
X125166222Y-123848912D01*
X125710793Y-124011401D01*
X126276599Y-124064528D01*
X126841898Y-124006252D01*
X127384966Y-123838810D01*
X127648288Y-123698061D01*
X129365000Y-123698061D01*
X129365000Y-123901939D01*
X129404774Y-124101898D01*
X129482795Y-124290256D01*
X129596063Y-124459774D01*
X129740226Y-124603937D01*
X129909744Y-124717205D01*
X130098102Y-124795226D01*
X130298061Y-124835000D01*
X130501939Y-124835000D01*
X130687645Y-124798061D01*
X137435000Y-124798061D01*
X137435000Y-125001939D01*
X137474774Y-125201898D01*
X137552795Y-125390256D01*
X137666063Y-125559774D01*
X137810226Y-125703937D01*
X137979744Y-125817205D01*
X138168102Y-125895226D01*
X138368061Y-125935000D01*
X138571939Y-125935000D01*
X138771898Y-125895226D01*
X138960256Y-125817205D01*
X139129774Y-125703937D01*
X139273937Y-125559774D01*
X139387205Y-125390256D01*
X139465226Y-125201898D01*
X139505000Y-125001939D01*
X139505000Y-124798061D01*
X139465226Y-124598102D01*
X139387205Y-124409744D01*
X139273937Y-124240226D01*
X139129774Y-124096063D01*
X138960256Y-123982795D01*
X138771898Y-123904774D01*
X138571939Y-123865000D01*
X138368061Y-123865000D01*
X138168102Y-123904774D01*
X137979744Y-123982795D01*
X137810226Y-124096063D01*
X137666063Y-124240226D01*
X137552795Y-124409744D01*
X137474774Y-124598102D01*
X137435000Y-124798061D01*
X130687645Y-124798061D01*
X130701898Y-124795226D01*
X130890256Y-124717205D01*
X131059774Y-124603937D01*
X131203937Y-124459774D01*
X131317205Y-124290256D01*
X131395226Y-124101898D01*
X131435000Y-123901939D01*
X131435000Y-123698061D01*
X131397237Y-123508210D01*
X141935000Y-123508210D01*
X141935000Y-123731786D01*
X141978617Y-123951065D01*
X142064176Y-124157622D01*
X142188388Y-124343518D01*
X142346480Y-124501610D01*
X142532376Y-124625822D01*
X142738933Y-124711381D01*
X142958212Y-124754998D01*
X143181788Y-124754998D01*
X143401067Y-124711381D01*
X143607624Y-124625822D01*
X143793520Y-124501610D01*
X143951612Y-124343518D01*
X144075824Y-124157622D01*
X144161383Y-123951065D01*
X144205000Y-123731786D01*
X144205000Y-123508210D01*
X144162101Y-123292540D01*
X150452665Y-123292540D01*
X150698816Y-123684904D01*
X151201222Y-123950512D01*
X151745793Y-124113001D01*
X152311599Y-124166128D01*
X152876898Y-124107852D01*
X153419966Y-123940410D01*
X153897984Y-123684904D01*
X154144135Y-123292540D01*
X152298400Y-121446805D01*
X150452665Y-123292540D01*
X144162101Y-123292540D01*
X144161383Y-123288931D01*
X144075824Y-123082374D01*
X143951612Y-122896478D01*
X143793520Y-122738386D01*
X143607624Y-122614174D01*
X143401067Y-122528615D01*
X143181788Y-122484998D01*
X142958212Y-122484998D01*
X142738933Y-122528615D01*
X142532376Y-122614174D01*
X142346480Y-122738386D01*
X142188388Y-122896478D01*
X142064176Y-123082374D01*
X141978617Y-123288931D01*
X141935000Y-123508210D01*
X131397237Y-123508210D01*
X131395226Y-123498102D01*
X131317205Y-123309744D01*
X131203937Y-123140226D01*
X131059774Y-122996063D01*
X130890256Y-122882795D01*
X130701898Y-122804774D01*
X130501939Y-122765000D01*
X130298061Y-122765000D01*
X130098102Y-122804774D01*
X129909744Y-122882795D01*
X129740226Y-122996063D01*
X129596063Y-123140226D01*
X129482795Y-123309744D01*
X129404774Y-123498102D01*
X129365000Y-123698061D01*
X127648288Y-123698061D01*
X127862984Y-123583304D01*
X128109135Y-123190940D01*
X126263400Y-121345205D01*
X124417665Y-123190940D01*
X123526600Y-123190940D01*
X123526600Y-122080923D01*
X123590190Y-122287166D01*
X123845696Y-122765184D01*
X124238060Y-123011335D01*
X126083795Y-121165600D01*
X126443005Y-121165600D01*
X128288740Y-123011335D01*
X128681104Y-122765184D01*
X128946712Y-122262778D01*
X129109201Y-121718207D01*
X129150309Y-121280399D01*
X149399472Y-121280399D01*
X149457748Y-121845698D01*
X149625190Y-122388766D01*
X149880696Y-122866784D01*
X150273060Y-123112935D01*
X152118795Y-121267200D01*
X152478005Y-121267200D01*
X154323740Y-123112935D01*
X154716104Y-122866784D01*
X154978329Y-122370777D01*
X154955000Y-122488061D01*
X154955000Y-122691939D01*
X154994774Y-122891898D01*
X155072795Y-123080256D01*
X155186063Y-123249774D01*
X155330226Y-123393937D01*
X155499744Y-123507205D01*
X155688102Y-123585226D01*
X155888061Y-123625000D01*
X156091939Y-123625000D01*
X156291898Y-123585226D01*
X156480256Y-123507205D01*
X156613669Y-123418061D01*
X162615000Y-123418061D01*
X162615000Y-123621939D01*
X162654774Y-123821898D01*
X162732795Y-124010256D01*
X162846063Y-124179774D01*
X162990226Y-124323937D01*
X163159744Y-124437205D01*
X163348102Y-124515226D01*
X163548061Y-124555000D01*
X163751939Y-124555000D01*
X163951898Y-124515226D01*
X164140256Y-124437205D01*
X164265587Y-124353462D01*
X164357244Y-124414705D01*
X164545602Y-124492726D01*
X164745561Y-124532500D01*
X164949439Y-124532500D01*
X165149398Y-124492726D01*
X165337756Y-124414705D01*
X165507274Y-124301437D01*
X165651437Y-124157274D01*
X165764705Y-123987756D01*
X165842726Y-123799398D01*
X165882500Y-123599439D01*
X165882500Y-123395561D01*
X165842726Y-123195602D01*
X165764705Y-123007244D01*
X165651437Y-122837726D01*
X165507274Y-122693563D01*
X165337756Y-122580295D01*
X165149398Y-122502274D01*
X164949439Y-122462500D01*
X164745561Y-122462500D01*
X164545602Y-122502274D01*
X164357244Y-122580295D01*
X164231913Y-122664038D01*
X164140256Y-122602795D01*
X163951898Y-122524774D01*
X163751939Y-122485000D01*
X163548061Y-122485000D01*
X163348102Y-122524774D01*
X163159744Y-122602795D01*
X162990226Y-122716063D01*
X162846063Y-122860226D01*
X162732795Y-123029744D01*
X162654774Y-123218102D01*
X162615000Y-123418061D01*
X156613669Y-123418061D01*
X156649774Y-123393937D01*
X156793937Y-123249774D01*
X156907205Y-123080256D01*
X156985226Y-122891898D01*
X157025000Y-122691939D01*
X157025000Y-122488061D01*
X156985226Y-122288102D01*
X156907205Y-122099744D01*
X156793937Y-121930226D01*
X156649774Y-121786063D01*
X156480256Y-121672795D01*
X156291898Y-121594774D01*
X156091939Y-121555000D01*
X155888061Y-121555000D01*
X155688102Y-121594774D01*
X155499744Y-121672795D01*
X155330226Y-121786063D01*
X155186063Y-121930226D01*
X155072795Y-122099744D01*
X155029450Y-122204387D01*
X155144201Y-121819807D01*
X155197328Y-121254001D01*
X155194654Y-121228061D01*
X157295000Y-121228061D01*
X157295000Y-121431939D01*
X157334774Y-121631898D01*
X157412795Y-121820256D01*
X157526063Y-121989774D01*
X157670226Y-122133937D01*
X157839744Y-122247205D01*
X158028102Y-122325226D01*
X158228061Y-122365000D01*
X158431939Y-122365000D01*
X158631898Y-122325226D01*
X158820256Y-122247205D01*
X158989774Y-122133937D01*
X159133937Y-121989774D01*
X159247205Y-121820256D01*
X159325226Y-121631898D01*
X159365000Y-121431939D01*
X159365000Y-121228061D01*
X159325226Y-121028102D01*
X159247205Y-120839744D01*
X159199309Y-120768061D01*
X174755000Y-120768061D01*
X174755000Y-120971939D01*
X174794774Y-121171898D01*
X174872795Y-121360256D01*
X174986063Y-121529774D01*
X175130226Y-121673937D01*
X175204011Y-121723238D01*
X175112795Y-121859753D01*
X175034774Y-122048111D01*
X174995000Y-122248070D01*
X174995000Y-122451948D01*
X175034774Y-122651907D01*
X175112795Y-122840265D01*
X175226063Y-123009783D01*
X175370226Y-123153946D01*
X175539744Y-123267214D01*
X175728102Y-123345235D01*
X175928061Y-123385009D01*
X176131939Y-123385009D01*
X176331898Y-123345235D01*
X176520256Y-123267214D01*
X176689774Y-123153946D01*
X176800659Y-123043061D01*
X182270000Y-123043061D01*
X182270000Y-123246939D01*
X182309774Y-123446898D01*
X182387795Y-123635256D01*
X182501063Y-123804774D01*
X182645226Y-123948937D01*
X182814744Y-124062205D01*
X183003102Y-124140226D01*
X183203061Y-124180000D01*
X183406939Y-124180000D01*
X183606898Y-124140226D01*
X183795256Y-124062205D01*
X183842081Y-124030918D01*
X183870123Y-124171898D01*
X183948144Y-124360256D01*
X184061412Y-124529774D01*
X184205575Y-124673937D01*
X184375093Y-124787205D01*
X184563451Y-124865226D01*
X184685462Y-124889495D01*
X184508102Y-124924774D01*
X184319744Y-125002795D01*
X184150226Y-125116063D01*
X184006063Y-125260226D01*
X183892795Y-125429744D01*
X183814774Y-125618102D01*
X183775000Y-125818061D01*
X183775000Y-126021939D01*
X183814774Y-126221898D01*
X183892795Y-126410256D01*
X184006063Y-126579774D01*
X184150226Y-126723937D01*
X184319744Y-126837205D01*
X184508102Y-126915226D01*
X184708061Y-126955000D01*
X184911939Y-126955000D01*
X185111898Y-126915226D01*
X185300256Y-126837205D01*
X185469774Y-126723937D01*
X185613937Y-126579774D01*
X185727205Y-126410256D01*
X185805226Y-126221898D01*
X185845000Y-126021939D01*
X185845000Y-125818061D01*
X185805226Y-125618102D01*
X185727205Y-125429744D01*
X185613937Y-125260226D01*
X185469774Y-125116063D01*
X185300256Y-125002795D01*
X185111898Y-124924774D01*
X184989887Y-124900505D01*
X185167247Y-124865226D01*
X185355605Y-124787205D01*
X185525123Y-124673937D01*
X185669286Y-124529774D01*
X185782554Y-124360256D01*
X185822813Y-124263061D01*
X191445000Y-124263061D01*
X191445000Y-124466939D01*
X191484774Y-124666898D01*
X191562795Y-124855256D01*
X191676063Y-125024774D01*
X191820226Y-125168937D01*
X191989744Y-125282205D01*
X192178102Y-125360226D01*
X192378061Y-125400000D01*
X192581939Y-125400000D01*
X192781898Y-125360226D01*
X192970256Y-125282205D01*
X193139774Y-125168937D01*
X193150650Y-125158061D01*
X195065000Y-125158061D01*
X195065000Y-125361939D01*
X195104774Y-125561898D01*
X195182795Y-125750256D01*
X195296063Y-125919774D01*
X195440226Y-126063937D01*
X195609744Y-126177205D01*
X195798102Y-126255226D01*
X195998061Y-126295000D01*
X196201939Y-126295000D01*
X196401898Y-126255226D01*
X196590256Y-126177205D01*
X196759774Y-126063937D01*
X196903937Y-125919774D01*
X197017205Y-125750256D01*
X197052285Y-125665565D01*
X205214040Y-125665565D01*
X205281020Y-125905656D01*
X205530048Y-126022756D01*
X205797135Y-126089023D01*
X206072017Y-126101910D01*
X206344133Y-126060922D01*
X206603023Y-125967636D01*
X206718980Y-125905656D01*
X206785960Y-125665565D01*
X206000000Y-124879605D01*
X205214040Y-125665565D01*
X197052285Y-125665565D01*
X197095226Y-125561898D01*
X197135000Y-125361939D01*
X197135000Y-125158061D01*
X197095226Y-124958102D01*
X197018147Y-124772017D01*
X204598090Y-124772017D01*
X204639078Y-125044133D01*
X204732364Y-125303023D01*
X204794344Y-125418980D01*
X205034435Y-125485960D01*
X205820395Y-124700000D01*
X206179605Y-124700000D01*
X206965565Y-125485960D01*
X207205656Y-125418980D01*
X207322756Y-125169952D01*
X207389023Y-124902865D01*
X207401910Y-124627983D01*
X207360922Y-124355867D01*
X207267636Y-124096977D01*
X207205656Y-123981020D01*
X206965565Y-123914040D01*
X206179605Y-124700000D01*
X205820395Y-124700000D01*
X205034435Y-123914040D01*
X204794344Y-123981020D01*
X204677244Y-124230048D01*
X204610977Y-124497135D01*
X204598090Y-124772017D01*
X197018147Y-124772017D01*
X197017205Y-124769744D01*
X196903937Y-124600226D01*
X196759774Y-124456063D01*
X196590256Y-124342795D01*
X196401898Y-124264774D01*
X196201939Y-124225000D01*
X195998061Y-124225000D01*
X195798102Y-124264774D01*
X195609744Y-124342795D01*
X195440226Y-124456063D01*
X195296063Y-124600226D01*
X195182795Y-124769744D01*
X195104774Y-124958102D01*
X195065000Y-125158061D01*
X193150650Y-125158061D01*
X193283937Y-125024774D01*
X193397205Y-124855256D01*
X193475226Y-124666898D01*
X193515000Y-124466939D01*
X193515000Y-124263061D01*
X193475226Y-124063102D01*
X193397205Y-123874744D01*
X193283937Y-123705226D01*
X193139774Y-123561063D01*
X192970256Y-123447795D01*
X192781898Y-123369774D01*
X192581939Y-123330000D01*
X192378061Y-123330000D01*
X192178102Y-123369774D01*
X191989744Y-123447795D01*
X191820226Y-123561063D01*
X191676063Y-123705226D01*
X191562795Y-123874744D01*
X191484774Y-124063102D01*
X191445000Y-124263061D01*
X185822813Y-124263061D01*
X185860575Y-124171898D01*
X185900349Y-123971939D01*
X185900349Y-123768061D01*
X185860575Y-123568102D01*
X185782554Y-123379744D01*
X185669286Y-123210226D01*
X185525123Y-123066063D01*
X185355605Y-122952795D01*
X185167247Y-122874774D01*
X184967288Y-122835000D01*
X184763410Y-122835000D01*
X184563451Y-122874774D01*
X184375093Y-122952795D01*
X184328268Y-122984082D01*
X184300226Y-122843102D01*
X184222205Y-122654744D01*
X184108937Y-122485226D01*
X183964774Y-122341063D01*
X183795256Y-122227795D01*
X183606898Y-122149774D01*
X183406939Y-122110000D01*
X183203061Y-122110000D01*
X183003102Y-122149774D01*
X182814744Y-122227795D01*
X182645226Y-122341063D01*
X182501063Y-122485226D01*
X182387795Y-122654744D01*
X182309774Y-122843102D01*
X182270000Y-123043061D01*
X176800659Y-123043061D01*
X176833937Y-123009783D01*
X176947205Y-122840265D01*
X177025226Y-122651907D01*
X177065000Y-122451948D01*
X177065000Y-122248070D01*
X177025226Y-122048111D01*
X176947205Y-121859753D01*
X176833937Y-121690235D01*
X176689774Y-121546072D01*
X176615989Y-121496771D01*
X176685285Y-121393061D01*
X177335000Y-121393061D01*
X177335000Y-121596939D01*
X177374774Y-121796898D01*
X177452795Y-121985256D01*
X177566063Y-122154774D01*
X177710226Y-122298937D01*
X177879744Y-122412205D01*
X178068102Y-122490226D01*
X178268061Y-122530000D01*
X178471939Y-122530000D01*
X178671898Y-122490226D01*
X178860256Y-122412205D01*
X179029774Y-122298937D01*
X179173937Y-122154774D01*
X179287205Y-121985256D01*
X179365226Y-121796898D01*
X179405000Y-121596939D01*
X179405000Y-121393061D01*
X179365226Y-121193102D01*
X179287205Y-121004744D01*
X179173937Y-120835226D01*
X179029774Y-120691063D01*
X179025282Y-120688061D01*
X180685000Y-120688061D01*
X180685000Y-120891939D01*
X180724774Y-121091898D01*
X180802795Y-121280256D01*
X180916063Y-121449774D01*
X181060226Y-121593937D01*
X181229744Y-121707205D01*
X181418102Y-121785226D01*
X181618061Y-121825000D01*
X181821939Y-121825000D01*
X182021898Y-121785226D01*
X182210256Y-121707205D01*
X182379774Y-121593937D01*
X182523937Y-121449774D01*
X182637205Y-121280256D01*
X182715226Y-121091898D01*
X182755000Y-120891939D01*
X182755000Y-120688061D01*
X182715226Y-120488102D01*
X182637205Y-120299744D01*
X182523937Y-120130226D01*
X182379774Y-119986063D01*
X182210256Y-119872795D01*
X182021898Y-119794774D01*
X181821939Y-119755000D01*
X181618061Y-119755000D01*
X181418102Y-119794774D01*
X181229744Y-119872795D01*
X181060226Y-119986063D01*
X180916063Y-120130226D01*
X180802795Y-120299744D01*
X180724774Y-120488102D01*
X180685000Y-120688061D01*
X179025282Y-120688061D01*
X178860256Y-120577795D01*
X178671898Y-120499774D01*
X178471939Y-120460000D01*
X178268061Y-120460000D01*
X178068102Y-120499774D01*
X177879744Y-120577795D01*
X177710226Y-120691063D01*
X177566063Y-120835226D01*
X177452795Y-121004744D01*
X177374774Y-121193102D01*
X177335000Y-121393061D01*
X176685285Y-121393061D01*
X176707205Y-121360256D01*
X176785226Y-121171898D01*
X176825000Y-120971939D01*
X176825000Y-120768061D01*
X176785226Y-120568102D01*
X176707205Y-120379744D01*
X176593937Y-120210226D01*
X176449774Y-120066063D01*
X176280256Y-119952795D01*
X176091898Y-119874774D01*
X175891939Y-119835000D01*
X175688061Y-119835000D01*
X175488102Y-119874774D01*
X175299744Y-119952795D01*
X175130226Y-120066063D01*
X174986063Y-120210226D01*
X174872795Y-120379744D01*
X174794774Y-120568102D01*
X174755000Y-120768061D01*
X159199309Y-120768061D01*
X159133937Y-120670226D01*
X158989774Y-120526063D01*
X158820256Y-120412795D01*
X158631898Y-120334774D01*
X158431939Y-120295000D01*
X158228061Y-120295000D01*
X158028102Y-120334774D01*
X157839744Y-120412795D01*
X157670226Y-120526063D01*
X157526063Y-120670226D01*
X157412795Y-120839744D01*
X157334774Y-121028102D01*
X157295000Y-121228061D01*
X155194654Y-121228061D01*
X155139052Y-120688702D01*
X154971610Y-120145634D01*
X154716104Y-119667616D01*
X154323740Y-119421465D01*
X152478005Y-121267200D01*
X152118795Y-121267200D01*
X150273060Y-119421465D01*
X149880696Y-119667616D01*
X149615088Y-120170022D01*
X149452599Y-120714593D01*
X149399472Y-121280399D01*
X129150309Y-121280399D01*
X129162328Y-121152401D01*
X129104052Y-120587102D01*
X128936610Y-120044034D01*
X128681104Y-119566016D01*
X128288740Y-119319865D01*
X126443005Y-121165600D01*
X126083795Y-121165600D01*
X124238060Y-119319865D01*
X123845696Y-119566016D01*
X123580088Y-120068422D01*
X123526600Y-120247683D01*
X123526600Y-119140260D01*
X124417665Y-119140260D01*
X126263400Y-120985995D01*
X128007535Y-119241860D01*
X150452665Y-119241860D01*
X152298400Y-121087595D01*
X154144135Y-119241860D01*
X153897984Y-118849496D01*
X153395578Y-118583888D01*
X152851007Y-118421399D01*
X152285201Y-118368272D01*
X151719902Y-118426548D01*
X151176834Y-118593990D01*
X150698816Y-118849496D01*
X150452665Y-119241860D01*
X128007535Y-119241860D01*
X128109135Y-119140260D01*
X127862984Y-118747896D01*
X127360578Y-118482288D01*
X126816007Y-118319799D01*
X126690997Y-118308061D01*
X164245000Y-118308061D01*
X164245000Y-118511939D01*
X164284774Y-118711898D01*
X164362795Y-118900256D01*
X164476063Y-119069774D01*
X164620226Y-119213937D01*
X164789744Y-119327205D01*
X164978102Y-119405226D01*
X165178061Y-119445000D01*
X165381939Y-119445000D01*
X165581898Y-119405226D01*
X165770256Y-119327205D01*
X165771164Y-119326598D01*
X165789677Y-119338968D01*
X165978035Y-119416989D01*
X166177994Y-119456763D01*
X166381872Y-119456763D01*
X166581831Y-119416989D01*
X166770189Y-119338968D01*
X166771546Y-119338061D01*
X178485000Y-119338061D01*
X178485000Y-119541939D01*
X178524774Y-119741898D01*
X178602795Y-119930256D01*
X178716063Y-120099774D01*
X178860226Y-120243937D01*
X179029744Y-120357205D01*
X179218102Y-120435226D01*
X179418061Y-120475000D01*
X179621939Y-120475000D01*
X179821898Y-120435226D01*
X180010256Y-120357205D01*
X180179774Y-120243937D01*
X180323937Y-120099774D01*
X180437205Y-119930256D01*
X180515226Y-119741898D01*
X180555000Y-119541939D01*
X180555000Y-119338061D01*
X180515226Y-119138102D01*
X180457219Y-118998061D01*
X183655000Y-118998061D01*
X183655000Y-119201939D01*
X183694774Y-119401898D01*
X183772795Y-119590256D01*
X183886063Y-119759774D01*
X184030226Y-119903937D01*
X184199744Y-120017205D01*
X184388102Y-120095226D01*
X184588061Y-120135000D01*
X184791939Y-120135000D01*
X184991898Y-120095226D01*
X185180256Y-120017205D01*
X185349774Y-119903937D01*
X185493937Y-119759774D01*
X185607205Y-119590256D01*
X185685226Y-119401898D01*
X185725000Y-119201939D01*
X185725000Y-118998061D01*
X185719033Y-118968061D01*
X189015000Y-118968061D01*
X189015000Y-119171939D01*
X189054774Y-119371898D01*
X189132795Y-119560256D01*
X189246063Y-119729774D01*
X189390226Y-119873937D01*
X189559744Y-119987205D01*
X189748102Y-120065226D01*
X189948061Y-120105000D01*
X190151939Y-120105000D01*
X190351898Y-120065226D01*
X190540256Y-119987205D01*
X190709774Y-119873937D01*
X190853937Y-119729774D01*
X190967205Y-119560256D01*
X191045226Y-119371898D01*
X191085000Y-119171939D01*
X191085000Y-118968061D01*
X191057153Y-118828061D01*
X191465000Y-118828061D01*
X191465000Y-119031939D01*
X191504774Y-119231898D01*
X191582795Y-119420256D01*
X191696063Y-119589774D01*
X191840226Y-119733937D01*
X192009744Y-119847205D01*
X192198102Y-119925226D01*
X192398061Y-119965000D01*
X192601939Y-119965000D01*
X192801898Y-119925226D01*
X192990256Y-119847205D01*
X193159774Y-119733937D01*
X193303937Y-119589774D01*
X193375676Y-119482408D01*
X204603000Y-119482408D01*
X204603000Y-119757592D01*
X204656686Y-120027490D01*
X204761995Y-120281727D01*
X204914880Y-120510535D01*
X205109465Y-120705120D01*
X205338273Y-120858005D01*
X205415515Y-120890000D01*
X205338273Y-120921995D01*
X205109465Y-121074880D01*
X204914880Y-121269465D01*
X204761995Y-121498273D01*
X204656686Y-121752510D01*
X204603000Y-122022408D01*
X204603000Y-122297592D01*
X204656686Y-122567490D01*
X204761995Y-122821727D01*
X204914880Y-123050535D01*
X205109465Y-123245120D01*
X205338273Y-123398005D01*
X205409943Y-123427692D01*
X205396977Y-123432364D01*
X205281020Y-123494344D01*
X205214040Y-123734435D01*
X206000000Y-124520395D01*
X206785960Y-123734435D01*
X206718980Y-123494344D01*
X206583240Y-123430515D01*
X206661727Y-123398005D01*
X206890535Y-123245120D01*
X207085120Y-123050535D01*
X207238005Y-122821727D01*
X207343314Y-122567490D01*
X207397000Y-122297592D01*
X207397000Y-122022408D01*
X207343314Y-121752510D01*
X207238005Y-121498273D01*
X207085120Y-121269465D01*
X206890535Y-121074880D01*
X206661727Y-120921995D01*
X206584485Y-120890000D01*
X206661727Y-120858005D01*
X206890535Y-120705120D01*
X207085120Y-120510535D01*
X207238005Y-120281727D01*
X207343314Y-120027490D01*
X207397000Y-119757592D01*
X207397000Y-119482408D01*
X207343314Y-119212510D01*
X207238005Y-118958273D01*
X207085120Y-118729465D01*
X206890535Y-118534880D01*
X206661727Y-118381995D01*
X206407490Y-118276686D01*
X206137592Y-118223000D01*
X205862408Y-118223000D01*
X205592510Y-118276686D01*
X205338273Y-118381995D01*
X205109465Y-118534880D01*
X204914880Y-118729465D01*
X204761995Y-118958273D01*
X204656686Y-119212510D01*
X204603000Y-119482408D01*
X193375676Y-119482408D01*
X193417205Y-119420256D01*
X193495226Y-119231898D01*
X193535000Y-119031939D01*
X193535000Y-118828061D01*
X193495226Y-118628102D01*
X193417205Y-118439744D01*
X193303937Y-118270226D01*
X193159774Y-118126063D01*
X192990256Y-118012795D01*
X192801898Y-117934774D01*
X192601939Y-117895000D01*
X192398061Y-117895000D01*
X192198102Y-117934774D01*
X192009744Y-118012795D01*
X191840226Y-118126063D01*
X191696063Y-118270226D01*
X191582795Y-118439744D01*
X191504774Y-118628102D01*
X191465000Y-118828061D01*
X191057153Y-118828061D01*
X191045226Y-118768102D01*
X190967205Y-118579744D01*
X190853937Y-118410226D01*
X190709774Y-118266063D01*
X190540256Y-118152795D01*
X190351898Y-118074774D01*
X190151939Y-118035000D01*
X189948061Y-118035000D01*
X189748102Y-118074774D01*
X189559744Y-118152795D01*
X189390226Y-118266063D01*
X189246063Y-118410226D01*
X189132795Y-118579744D01*
X189054774Y-118768102D01*
X189015000Y-118968061D01*
X185719033Y-118968061D01*
X185685226Y-118798102D01*
X185607205Y-118609744D01*
X185493937Y-118440226D01*
X185349774Y-118296063D01*
X185180256Y-118182795D01*
X184991898Y-118104774D01*
X184791939Y-118065000D01*
X184588061Y-118065000D01*
X184388102Y-118104774D01*
X184199744Y-118182795D01*
X184030226Y-118296063D01*
X183886063Y-118440226D01*
X183772795Y-118609744D01*
X183694774Y-118798102D01*
X183655000Y-118998061D01*
X180457219Y-118998061D01*
X180437205Y-118949744D01*
X180323937Y-118780226D01*
X180179774Y-118636063D01*
X180010256Y-118522795D01*
X179821898Y-118444774D01*
X179621939Y-118405000D01*
X179418061Y-118405000D01*
X179218102Y-118444774D01*
X179029744Y-118522795D01*
X178860226Y-118636063D01*
X178716063Y-118780226D01*
X178602795Y-118949744D01*
X178524774Y-119138102D01*
X178485000Y-119338061D01*
X166771546Y-119338061D01*
X166939707Y-119225700D01*
X167083870Y-119081537D01*
X167197138Y-118912019D01*
X167275159Y-118723661D01*
X167314933Y-118523702D01*
X167314933Y-118319824D01*
X167275159Y-118119865D01*
X167197138Y-117931507D01*
X167083870Y-117761989D01*
X166940891Y-117619010D01*
X174153513Y-117619010D01*
X174153513Y-117822888D01*
X174193287Y-118022847D01*
X174271308Y-118211205D01*
X174384576Y-118380723D01*
X174528739Y-118524886D01*
X174698257Y-118638154D01*
X174886615Y-118716175D01*
X175086574Y-118755949D01*
X175290452Y-118755949D01*
X175490411Y-118716175D01*
X175678769Y-118638154D01*
X175848287Y-118524886D01*
X175992450Y-118380723D01*
X176105718Y-118211205D01*
X176183739Y-118022847D01*
X176184690Y-118018061D01*
X176715000Y-118018061D01*
X176715000Y-118221939D01*
X176754774Y-118421898D01*
X176832795Y-118610256D01*
X176946063Y-118779774D01*
X177090226Y-118923937D01*
X177259744Y-119037205D01*
X177448102Y-119115226D01*
X177648061Y-119155000D01*
X177851939Y-119155000D01*
X178051898Y-119115226D01*
X178240256Y-119037205D01*
X178409774Y-118923937D01*
X178553937Y-118779774D01*
X178667205Y-118610256D01*
X178745226Y-118421898D01*
X178785000Y-118221939D01*
X178785000Y-118018061D01*
X178745226Y-117818102D01*
X178667205Y-117629744D01*
X178553937Y-117460226D01*
X178409774Y-117316063D01*
X178240256Y-117202795D01*
X178051898Y-117124774D01*
X177851939Y-117085000D01*
X177648061Y-117085000D01*
X177448102Y-117124774D01*
X177259744Y-117202795D01*
X177090226Y-117316063D01*
X176946063Y-117460226D01*
X176832795Y-117629744D01*
X176754774Y-117818102D01*
X176715000Y-118018061D01*
X176184690Y-118018061D01*
X176223513Y-117822888D01*
X176223513Y-117619010D01*
X176183739Y-117419051D01*
X176105718Y-117230693D01*
X175992450Y-117061175D01*
X175969336Y-117038061D01*
X186655000Y-117038061D01*
X186655000Y-117241939D01*
X186694774Y-117441898D01*
X186772795Y-117630256D01*
X186886063Y-117799774D01*
X187030226Y-117943937D01*
X187199744Y-118057205D01*
X187388102Y-118135226D01*
X187588061Y-118175000D01*
X187791939Y-118175000D01*
X187991898Y-118135226D01*
X188180256Y-118057205D01*
X188349774Y-117943937D01*
X188493937Y-117799774D01*
X188607205Y-117630256D01*
X188685226Y-117441898D01*
X188725000Y-117241939D01*
X188725000Y-117038061D01*
X188685226Y-116838102D01*
X188607205Y-116649744D01*
X188493937Y-116480226D01*
X188349774Y-116336063D01*
X188180256Y-116222795D01*
X187991898Y-116144774D01*
X187791939Y-116105000D01*
X187588061Y-116105000D01*
X187388102Y-116144774D01*
X187199744Y-116222795D01*
X187030226Y-116336063D01*
X186886063Y-116480226D01*
X186772795Y-116649744D01*
X186694774Y-116838102D01*
X186655000Y-117038061D01*
X175969336Y-117038061D01*
X175848287Y-116917012D01*
X175678769Y-116803744D01*
X175490411Y-116725723D01*
X175290452Y-116685949D01*
X175086574Y-116685949D01*
X174886615Y-116725723D01*
X174698257Y-116803744D01*
X174528739Y-116917012D01*
X174384576Y-117061175D01*
X174271308Y-117230693D01*
X174193287Y-117419051D01*
X174153513Y-117619010D01*
X166940891Y-117619010D01*
X166939707Y-117617826D01*
X166770189Y-117504558D01*
X166581831Y-117426537D01*
X166381872Y-117386763D01*
X166177994Y-117386763D01*
X165978035Y-117426537D01*
X165789677Y-117504558D01*
X165788769Y-117505165D01*
X165770256Y-117492795D01*
X165581898Y-117414774D01*
X165381939Y-117375000D01*
X165178061Y-117375000D01*
X164978102Y-117414774D01*
X164789744Y-117492795D01*
X164620226Y-117606063D01*
X164476063Y-117750226D01*
X164362795Y-117919744D01*
X164284774Y-118108102D01*
X164245000Y-118308061D01*
X126690997Y-118308061D01*
X126250201Y-118266672D01*
X125684902Y-118324948D01*
X125141834Y-118492390D01*
X124663816Y-118747896D01*
X124417665Y-119140260D01*
X123526600Y-119140260D01*
X123526600Y-116487400D01*
X155748414Y-116487400D01*
X155784600Y-116490964D01*
X155820786Y-116487400D01*
X155928999Y-116476742D01*
X156067849Y-116434622D01*
X156195813Y-116366224D01*
X156307975Y-116274175D01*
X156400024Y-116162013D01*
X156468422Y-116034049D01*
X156510542Y-115895199D01*
X156524764Y-115750800D01*
X156521200Y-115714614D01*
X156521200Y-114448061D01*
X167715000Y-114448061D01*
X167715000Y-114651939D01*
X167754774Y-114851898D01*
X167832795Y-115040256D01*
X167946063Y-115209774D01*
X168090226Y-115353937D01*
X168259744Y-115467205D01*
X168448102Y-115545226D01*
X168648061Y-115585000D01*
X168851939Y-115585000D01*
X169051898Y-115545226D01*
X169240256Y-115467205D01*
X169409774Y-115353937D01*
X169553937Y-115209774D01*
X169667205Y-115040256D01*
X169745226Y-114851898D01*
X169785000Y-114651939D01*
X169785000Y-114448061D01*
X169745226Y-114248102D01*
X169716214Y-114178061D01*
X172855000Y-114178061D01*
X172855000Y-114381939D01*
X172894774Y-114581898D01*
X172972795Y-114770256D01*
X173086063Y-114939774D01*
X173230226Y-115083937D01*
X173399744Y-115197205D01*
X173588102Y-115275226D01*
X173788061Y-115315000D01*
X173991939Y-115315000D01*
X174191898Y-115275226D01*
X174380256Y-115197205D01*
X174549774Y-115083937D01*
X174693937Y-114939774D01*
X174807205Y-114770256D01*
X174809356Y-114765062D01*
X188103061Y-114765062D01*
X188103061Y-114968940D01*
X188142835Y-115168899D01*
X188220856Y-115357257D01*
X188334124Y-115526775D01*
X188478287Y-115670938D01*
X188647805Y-115784206D01*
X188736321Y-115820871D01*
X188715000Y-115928061D01*
X188715000Y-116131939D01*
X188754774Y-116331898D01*
X188832795Y-116520256D01*
X188946063Y-116689774D01*
X189090226Y-116833937D01*
X189259744Y-116947205D01*
X189448102Y-117025226D01*
X189648061Y-117065000D01*
X189851939Y-117065000D01*
X190051898Y-117025226D01*
X190240256Y-116947205D01*
X190409774Y-116833937D01*
X190553937Y-116689774D01*
X190667205Y-116520256D01*
X190709535Y-116418061D01*
X192945000Y-116418061D01*
X192945000Y-116621939D01*
X192984774Y-116821898D01*
X193062795Y-117010256D01*
X193176063Y-117179774D01*
X193320226Y-117323937D01*
X193489744Y-117437205D01*
X193678102Y-117515226D01*
X193878061Y-117555000D01*
X194081939Y-117555000D01*
X194281898Y-117515226D01*
X194470256Y-117437205D01*
X194639774Y-117323937D01*
X194783937Y-117179774D01*
X194897205Y-117010256D01*
X194975226Y-116821898D01*
X195015000Y-116621939D01*
X195015000Y-116418061D01*
X194975226Y-116218102D01*
X194897205Y-116029744D01*
X194783937Y-115860226D01*
X194639774Y-115716063D01*
X194470256Y-115602795D01*
X194281898Y-115524774D01*
X194081939Y-115485000D01*
X193878061Y-115485000D01*
X193678102Y-115524774D01*
X193489744Y-115602795D01*
X193320226Y-115716063D01*
X193176063Y-115860226D01*
X193062795Y-116029744D01*
X192984774Y-116218102D01*
X192945000Y-116418061D01*
X190709535Y-116418061D01*
X190745226Y-116331898D01*
X190785000Y-116131939D01*
X190785000Y-115928061D01*
X190745226Y-115728102D01*
X190667205Y-115539744D01*
X190553937Y-115370226D01*
X190409774Y-115226063D01*
X190240256Y-115112795D01*
X190151740Y-115076130D01*
X190173061Y-114968940D01*
X190173061Y-114765062D01*
X190133287Y-114565103D01*
X190055266Y-114376745D01*
X189941998Y-114207227D01*
X189797835Y-114063064D01*
X189628317Y-113949796D01*
X189439959Y-113871775D01*
X189240000Y-113832001D01*
X189036122Y-113832001D01*
X188836163Y-113871775D01*
X188647805Y-113949796D01*
X188478287Y-114063064D01*
X188334124Y-114207227D01*
X188220856Y-114376745D01*
X188142835Y-114565103D01*
X188103061Y-114765062D01*
X174809356Y-114765062D01*
X174885226Y-114581898D01*
X174925000Y-114381939D01*
X174925000Y-114178061D01*
X174885226Y-113978102D01*
X174807205Y-113789744D01*
X174693937Y-113620226D01*
X174549774Y-113476063D01*
X174380256Y-113362795D01*
X174191898Y-113284774D01*
X173991939Y-113245000D01*
X173788061Y-113245000D01*
X173588102Y-113284774D01*
X173399744Y-113362795D01*
X173230226Y-113476063D01*
X173086063Y-113620226D01*
X172972795Y-113789744D01*
X172894774Y-113978102D01*
X172855000Y-114178061D01*
X169716214Y-114178061D01*
X169667205Y-114059744D01*
X169553937Y-113890226D01*
X169409774Y-113746063D01*
X169240256Y-113632795D01*
X169051898Y-113554774D01*
X168851939Y-113515000D01*
X168648061Y-113515000D01*
X168448102Y-113554774D01*
X168259744Y-113632795D01*
X168090226Y-113746063D01*
X167946063Y-113890226D01*
X167832795Y-114059744D01*
X167754774Y-114248102D01*
X167715000Y-114448061D01*
X156521200Y-114448061D01*
X156521200Y-112298061D01*
X164215000Y-112298061D01*
X164215000Y-112501939D01*
X164254774Y-112701898D01*
X164332795Y-112890256D01*
X164446063Y-113059774D01*
X164590226Y-113203937D01*
X164759744Y-113317205D01*
X164948102Y-113395226D01*
X165148061Y-113435000D01*
X165351939Y-113435000D01*
X165551898Y-113395226D01*
X165740256Y-113317205D01*
X165909774Y-113203937D01*
X166053937Y-113059774D01*
X166167205Y-112890256D01*
X166245226Y-112701898D01*
X166285000Y-112501939D01*
X166285000Y-112298061D01*
X166245226Y-112098102D01*
X166207930Y-112008061D01*
X173045000Y-112008061D01*
X173045000Y-112211939D01*
X173084774Y-112411898D01*
X173162795Y-112600256D01*
X173276063Y-112769774D01*
X173420226Y-112913937D01*
X173589744Y-113027205D01*
X173778102Y-113105226D01*
X173978061Y-113145000D01*
X174181939Y-113145000D01*
X174381898Y-113105226D01*
X174570256Y-113027205D01*
X174739774Y-112913937D01*
X174883937Y-112769774D01*
X174997205Y-112600256D01*
X175075226Y-112411898D01*
X175115000Y-112211939D01*
X175115000Y-112158061D01*
X186995000Y-112158061D01*
X186995000Y-112361939D01*
X187034774Y-112561898D01*
X187112795Y-112750256D01*
X187226063Y-112919774D01*
X187370226Y-113063937D01*
X187539744Y-113177205D01*
X187728102Y-113255226D01*
X187928061Y-113295000D01*
X188131939Y-113295000D01*
X188331898Y-113255226D01*
X188520256Y-113177205D01*
X188689774Y-113063937D01*
X188833937Y-112919774D01*
X188947205Y-112750256D01*
X189025226Y-112561898D01*
X189065000Y-112361939D01*
X189065000Y-112158061D01*
X189025226Y-111958102D01*
X188947205Y-111769744D01*
X188833937Y-111600226D01*
X188729053Y-111495342D01*
X195693047Y-111495342D01*
X195693047Y-111699220D01*
X195732821Y-111899179D01*
X195810842Y-112087537D01*
X195924110Y-112257055D01*
X196068273Y-112401218D01*
X196237791Y-112514486D01*
X196426149Y-112592507D01*
X196594254Y-112625945D01*
X196486044Y-112670767D01*
X196316526Y-112784035D01*
X196172363Y-112928198D01*
X196059095Y-113097716D01*
X195981074Y-113286074D01*
X195941300Y-113486033D01*
X195941300Y-113689911D01*
X195981074Y-113889870D01*
X196059095Y-114078228D01*
X196172363Y-114247746D01*
X196316526Y-114391909D01*
X196486044Y-114505177D01*
X196674402Y-114583198D01*
X196874361Y-114622972D01*
X197078239Y-114622972D01*
X197278198Y-114583198D01*
X197466556Y-114505177D01*
X197636074Y-114391909D01*
X197780237Y-114247746D01*
X197893505Y-114078228D01*
X197971526Y-113889870D01*
X198011300Y-113689911D01*
X198011300Y-113486033D01*
X197971526Y-113286074D01*
X197893505Y-113097716D01*
X197780237Y-112928198D01*
X197636074Y-112784035D01*
X197466556Y-112670767D01*
X197278198Y-112592746D01*
X197239257Y-112585000D01*
X201006928Y-112585000D01*
X201006928Y-114235000D01*
X201019188Y-114359482D01*
X201055498Y-114479180D01*
X201114463Y-114589494D01*
X201193815Y-114686185D01*
X201290506Y-114765537D01*
X201400820Y-114824502D01*
X201500506Y-114854742D01*
X201335944Y-115019304D01*
X201176165Y-115258431D01*
X201066107Y-115524134D01*
X201010000Y-115806203D01*
X201010000Y-116093797D01*
X201066107Y-116375866D01*
X201176165Y-116641569D01*
X201335944Y-116880696D01*
X201539304Y-117084056D01*
X201778431Y-117243835D01*
X202044134Y-117353893D01*
X202326203Y-117410000D01*
X202613797Y-117410000D01*
X202895866Y-117353893D01*
X203161569Y-117243835D01*
X203400696Y-117084056D01*
X203604056Y-116880696D01*
X203740000Y-116677241D01*
X203875944Y-116880696D01*
X204079304Y-117084056D01*
X204318431Y-117243835D01*
X204584134Y-117353893D01*
X204866203Y-117410000D01*
X205153797Y-117410000D01*
X205435866Y-117353893D01*
X205701569Y-117243835D01*
X205940696Y-117084056D01*
X206144056Y-116880696D01*
X206280000Y-116677241D01*
X206415944Y-116880696D01*
X206619304Y-117084056D01*
X206858431Y-117243835D01*
X207124134Y-117353893D01*
X207406203Y-117410000D01*
X207693797Y-117410000D01*
X207975866Y-117353893D01*
X208241569Y-117243835D01*
X208480696Y-117084056D01*
X208684056Y-116880696D01*
X208843835Y-116641569D01*
X208953893Y-116375866D01*
X209010000Y-116093797D01*
X209010000Y-115806203D01*
X208953893Y-115524134D01*
X208843835Y-115258431D01*
X208684056Y-115019304D01*
X208480696Y-114815944D01*
X208279424Y-114681459D01*
X208306337Y-114667073D01*
X208380946Y-114420551D01*
X207550000Y-113589605D01*
X206719054Y-114420551D01*
X206793663Y-114667073D01*
X206821977Y-114680523D01*
X206619304Y-114815944D01*
X206415944Y-115019304D01*
X206280000Y-115222759D01*
X206144056Y-115019304D01*
X205940696Y-114815944D01*
X205737241Y-114680000D01*
X205940696Y-114544056D01*
X206144056Y-114340696D01*
X206278541Y-114139424D01*
X206292927Y-114166337D01*
X206539449Y-114240946D01*
X207370395Y-113410000D01*
X207729605Y-113410000D01*
X208560551Y-114240946D01*
X208807073Y-114166337D01*
X208930473Y-113906561D01*
X209000823Y-113627703D01*
X209015417Y-113340479D01*
X208973697Y-113055926D01*
X208877265Y-112784980D01*
X208807073Y-112653663D01*
X208560551Y-112579054D01*
X207729605Y-113410000D01*
X207370395Y-113410000D01*
X206539449Y-112579054D01*
X206292927Y-112653663D01*
X206279477Y-112681977D01*
X206144056Y-112479304D01*
X206064201Y-112399449D01*
X206719054Y-112399449D01*
X207550000Y-113230395D01*
X208380946Y-112399449D01*
X208306337Y-112152927D01*
X208046561Y-112029527D01*
X207767703Y-111959177D01*
X207480479Y-111944583D01*
X207195926Y-111986303D01*
X206924980Y-112082735D01*
X206793663Y-112152927D01*
X206719054Y-112399449D01*
X206064201Y-112399449D01*
X205940696Y-112275944D01*
X205701569Y-112116165D01*
X205435866Y-112006107D01*
X205153797Y-111950000D01*
X204866203Y-111950000D01*
X204584134Y-112006107D01*
X204318431Y-112116165D01*
X204079304Y-112275944D01*
X203914742Y-112440506D01*
X203884502Y-112340820D01*
X203825537Y-112230506D01*
X203746185Y-112133815D01*
X203649494Y-112054463D01*
X203539180Y-111995498D01*
X203419482Y-111959188D01*
X203295000Y-111946928D01*
X201645000Y-111946928D01*
X201520518Y-111959188D01*
X201400820Y-111995498D01*
X201290506Y-112054463D01*
X201193815Y-112133815D01*
X201114463Y-112230506D01*
X201055498Y-112340820D01*
X201019188Y-112460518D01*
X201006928Y-112585000D01*
X197239257Y-112585000D01*
X197110093Y-112559308D01*
X197218303Y-112514486D01*
X197387821Y-112401218D01*
X197531984Y-112257055D01*
X197645252Y-112087537D01*
X197723273Y-111899179D01*
X197763047Y-111699220D01*
X197763047Y-111495342D01*
X197723273Y-111295383D01*
X197645252Y-111107025D01*
X197531984Y-110937507D01*
X197387821Y-110793344D01*
X197218303Y-110680076D01*
X197029945Y-110602055D01*
X196829986Y-110562281D01*
X196626108Y-110562281D01*
X196426149Y-110602055D01*
X196237791Y-110680076D01*
X196068273Y-110793344D01*
X195924110Y-110937507D01*
X195810842Y-111107025D01*
X195732821Y-111295383D01*
X195693047Y-111495342D01*
X188729053Y-111495342D01*
X188689774Y-111456063D01*
X188520256Y-111342795D01*
X188331898Y-111264774D01*
X188131939Y-111225000D01*
X187928061Y-111225000D01*
X187728102Y-111264774D01*
X187539744Y-111342795D01*
X187370226Y-111456063D01*
X187226063Y-111600226D01*
X187112795Y-111769744D01*
X187034774Y-111958102D01*
X186995000Y-112158061D01*
X175115000Y-112158061D01*
X175115000Y-112008061D01*
X175075226Y-111808102D01*
X174997205Y-111619744D01*
X174883937Y-111450226D01*
X174739774Y-111306063D01*
X174570256Y-111192795D01*
X174381898Y-111114774D01*
X174181939Y-111075000D01*
X173978061Y-111075000D01*
X173778102Y-111114774D01*
X173589744Y-111192795D01*
X173420226Y-111306063D01*
X173276063Y-111450226D01*
X173162795Y-111619744D01*
X173084774Y-111808102D01*
X173045000Y-112008061D01*
X166207930Y-112008061D01*
X166167205Y-111909744D01*
X166053937Y-111740226D01*
X165909774Y-111596063D01*
X165740256Y-111482795D01*
X165551898Y-111404774D01*
X165351939Y-111365000D01*
X165148061Y-111365000D01*
X164948102Y-111404774D01*
X164759744Y-111482795D01*
X164590226Y-111596063D01*
X164446063Y-111740226D01*
X164332795Y-111909744D01*
X164254774Y-112098102D01*
X164215000Y-112298061D01*
X156521200Y-112298061D01*
X156521200Y-109928061D01*
X182855000Y-109928061D01*
X182855000Y-110131939D01*
X182894774Y-110331898D01*
X182972795Y-110520256D01*
X183086063Y-110689774D01*
X183230226Y-110833937D01*
X183399744Y-110947205D01*
X183588102Y-111025226D01*
X183788061Y-111065000D01*
X183991939Y-111065000D01*
X184191898Y-111025226D01*
X184380256Y-110947205D01*
X184549774Y-110833937D01*
X184693937Y-110689774D01*
X184807205Y-110520256D01*
X184885226Y-110331898D01*
X184925000Y-110131939D01*
X184925000Y-109928061D01*
X184885226Y-109728102D01*
X184807205Y-109539744D01*
X184693937Y-109370226D01*
X184549774Y-109226063D01*
X184380256Y-109112795D01*
X184191898Y-109034774D01*
X183991939Y-108995000D01*
X183788061Y-108995000D01*
X183588102Y-109034774D01*
X183399744Y-109112795D01*
X183230226Y-109226063D01*
X183086063Y-109370226D01*
X182972795Y-109539744D01*
X182894774Y-109728102D01*
X182855000Y-109928061D01*
X156521200Y-109928061D01*
X156521200Y-108628061D01*
X168255000Y-108628061D01*
X168255000Y-108831939D01*
X168294774Y-109031898D01*
X168372795Y-109220256D01*
X168486063Y-109389774D01*
X168630226Y-109533937D01*
X168799744Y-109647205D01*
X168988102Y-109725226D01*
X169188061Y-109765000D01*
X169391939Y-109765000D01*
X169591898Y-109725226D01*
X169780256Y-109647205D01*
X169949774Y-109533937D01*
X170093937Y-109389774D01*
X170207205Y-109220256D01*
X170285226Y-109031898D01*
X170325000Y-108831939D01*
X170325000Y-108628061D01*
X170313066Y-108568061D01*
X172405000Y-108568061D01*
X172405000Y-108771939D01*
X172444774Y-108971898D01*
X172522795Y-109160256D01*
X172636063Y-109329774D01*
X172780226Y-109473937D01*
X172949744Y-109587205D01*
X173138102Y-109665226D01*
X173338061Y-109705000D01*
X173541939Y-109705000D01*
X173741898Y-109665226D01*
X173930256Y-109587205D01*
X174099774Y-109473937D01*
X174243937Y-109329774D01*
X174357205Y-109160256D01*
X174435226Y-108971898D01*
X174475000Y-108771939D01*
X174475000Y-108568061D01*
X174457099Y-108478061D01*
X174555000Y-108478061D01*
X174555000Y-108681939D01*
X174594774Y-108881898D01*
X174672795Y-109070256D01*
X174786063Y-109239774D01*
X174930226Y-109383937D01*
X175099744Y-109497205D01*
X175288102Y-109575226D01*
X175488061Y-109615000D01*
X175691939Y-109615000D01*
X175891898Y-109575226D01*
X176080256Y-109497205D01*
X176249774Y-109383937D01*
X176393937Y-109239774D01*
X176507205Y-109070256D01*
X176585226Y-108881898D01*
X176625000Y-108681939D01*
X176625000Y-108478061D01*
X176585226Y-108278102D01*
X176571979Y-108246121D01*
X176618102Y-108265226D01*
X176818061Y-108305000D01*
X177021939Y-108305000D01*
X177221898Y-108265226D01*
X177410256Y-108187205D01*
X177579774Y-108073937D01*
X177723937Y-107929774D01*
X177837205Y-107760256D01*
X177915226Y-107571898D01*
X177955000Y-107371939D01*
X177955000Y-107168061D01*
X177915226Y-106968102D01*
X177837205Y-106779744D01*
X177723937Y-106610226D01*
X177579774Y-106466063D01*
X177410256Y-106352795D01*
X177221898Y-106274774D01*
X177021939Y-106235000D01*
X176818061Y-106235000D01*
X176618102Y-106274774D01*
X176429744Y-106352795D01*
X176260226Y-106466063D01*
X176116063Y-106610226D01*
X176002795Y-106779744D01*
X175924774Y-106968102D01*
X175885000Y-107168061D01*
X175885000Y-107371939D01*
X175924774Y-107571898D01*
X175938021Y-107603879D01*
X175891898Y-107584774D01*
X175691939Y-107545000D01*
X175488061Y-107545000D01*
X175288102Y-107584774D01*
X175099744Y-107662795D01*
X174930226Y-107776063D01*
X174786063Y-107920226D01*
X174672795Y-108089744D01*
X174594774Y-108278102D01*
X174555000Y-108478061D01*
X174457099Y-108478061D01*
X174435226Y-108368102D01*
X174357205Y-108179744D01*
X174243937Y-108010226D01*
X174099774Y-107866063D01*
X173930256Y-107752795D01*
X173741898Y-107674774D01*
X173541939Y-107635000D01*
X173338061Y-107635000D01*
X173138102Y-107674774D01*
X172949744Y-107752795D01*
X172780226Y-107866063D01*
X172636063Y-108010226D01*
X172522795Y-108179744D01*
X172444774Y-108368102D01*
X172405000Y-108568061D01*
X170313066Y-108568061D01*
X170285226Y-108428102D01*
X170207205Y-108239744D01*
X170093937Y-108070226D01*
X169949774Y-107926063D01*
X169780256Y-107812795D01*
X169591898Y-107734774D01*
X169391939Y-107695000D01*
X169188061Y-107695000D01*
X168988102Y-107734774D01*
X168799744Y-107812795D01*
X168630226Y-107926063D01*
X168486063Y-108070226D01*
X168372795Y-108239744D01*
X168294774Y-108428102D01*
X168255000Y-108628061D01*
X156521200Y-108628061D01*
X156521200Y-105158061D01*
X180835000Y-105158061D01*
X180835000Y-105361939D01*
X180874774Y-105561898D01*
X180952795Y-105750256D01*
X181066063Y-105919774D01*
X181210226Y-106063937D01*
X181379744Y-106177205D01*
X181568102Y-106255226D01*
X181768061Y-106295000D01*
X181971939Y-106295000D01*
X182057097Y-106278061D01*
X183315000Y-106278061D01*
X183315000Y-106481939D01*
X183354774Y-106681898D01*
X183432795Y-106870256D01*
X183546063Y-107039774D01*
X183690226Y-107183937D01*
X183859744Y-107297205D01*
X184048102Y-107375226D01*
X184248061Y-107415000D01*
X184451939Y-107415000D01*
X184651898Y-107375226D01*
X184840256Y-107297205D01*
X184898839Y-107258061D01*
X201005000Y-107258061D01*
X201005000Y-107461939D01*
X201044774Y-107661898D01*
X201122795Y-107850256D01*
X201236063Y-108019774D01*
X201380226Y-108163937D01*
X201549744Y-108277205D01*
X201738102Y-108355226D01*
X201938061Y-108395000D01*
X202141939Y-108395000D01*
X202341898Y-108355226D01*
X202530256Y-108277205D01*
X202699774Y-108163937D01*
X202843937Y-108019774D01*
X202957205Y-107850256D01*
X203035226Y-107661898D01*
X203036968Y-107653137D01*
X205915000Y-107653137D01*
X205915000Y-107866863D01*
X205956696Y-108076483D01*
X206038485Y-108273940D01*
X206157225Y-108451647D01*
X206308353Y-108602775D01*
X206486060Y-108721515D01*
X206683517Y-108803304D01*
X206893137Y-108845000D01*
X207106863Y-108845000D01*
X207316483Y-108803304D01*
X207513940Y-108721515D01*
X207691647Y-108602775D01*
X207842775Y-108451647D01*
X207961515Y-108273940D01*
X208043304Y-108076483D01*
X208085000Y-107866863D01*
X208085000Y-107653137D01*
X208043304Y-107443517D01*
X207961515Y-107246060D01*
X207842775Y-107068353D01*
X207691647Y-106917225D01*
X207513940Y-106798485D01*
X207316483Y-106716696D01*
X207106863Y-106675000D01*
X206893137Y-106675000D01*
X206683517Y-106716696D01*
X206486060Y-106798485D01*
X206308353Y-106917225D01*
X206157225Y-107068353D01*
X206038485Y-107246060D01*
X205956696Y-107443517D01*
X205915000Y-107653137D01*
X203036968Y-107653137D01*
X203075000Y-107461939D01*
X203075000Y-107258061D01*
X203035226Y-107058102D01*
X202957205Y-106869744D01*
X202843937Y-106700226D01*
X202727296Y-106583585D01*
X202859064Y-106451816D01*
X202972332Y-106282298D01*
X203050353Y-106093940D01*
X203090127Y-105893981D01*
X203090127Y-105690103D01*
X203050353Y-105490144D01*
X202972332Y-105301786D01*
X202859064Y-105132268D01*
X202714901Y-104988105D01*
X202545383Y-104874837D01*
X202357025Y-104796816D01*
X202157066Y-104757042D01*
X201953188Y-104757042D01*
X201753229Y-104796816D01*
X201564871Y-104874837D01*
X201395353Y-104988105D01*
X201251190Y-105132268D01*
X201137922Y-105301786D01*
X201059901Y-105490144D01*
X201020127Y-105690103D01*
X201020127Y-105893981D01*
X201059901Y-106093940D01*
X201137922Y-106282298D01*
X201251190Y-106451816D01*
X201367832Y-106568458D01*
X201236063Y-106700226D01*
X201122795Y-106869744D01*
X201044774Y-107058102D01*
X201005000Y-107258061D01*
X184898839Y-107258061D01*
X185009774Y-107183937D01*
X185153937Y-107039774D01*
X185267205Y-106870256D01*
X185345226Y-106681898D01*
X185385000Y-106481939D01*
X185385000Y-106278061D01*
X185345226Y-106078102D01*
X185267205Y-105889744D01*
X185153937Y-105720226D01*
X185009774Y-105576063D01*
X184840256Y-105462795D01*
X184651898Y-105384774D01*
X184451939Y-105345000D01*
X184248061Y-105345000D01*
X184048102Y-105384774D01*
X183859744Y-105462795D01*
X183690226Y-105576063D01*
X183546063Y-105720226D01*
X183432795Y-105889744D01*
X183354774Y-106078102D01*
X183315000Y-106278061D01*
X182057097Y-106278061D01*
X182171898Y-106255226D01*
X182360256Y-106177205D01*
X182529774Y-106063937D01*
X182673937Y-105919774D01*
X182787205Y-105750256D01*
X182865226Y-105561898D01*
X182905000Y-105361939D01*
X182905000Y-105158061D01*
X182887099Y-105068061D01*
X190335000Y-105068061D01*
X190335000Y-105271939D01*
X190374774Y-105471898D01*
X190452795Y-105660256D01*
X190566063Y-105829774D01*
X190710226Y-105973937D01*
X190879744Y-106087205D01*
X191068102Y-106165226D01*
X191268061Y-106205000D01*
X191471939Y-106205000D01*
X191671898Y-106165226D01*
X191860256Y-106087205D01*
X192029774Y-105973937D01*
X192173937Y-105829774D01*
X192287205Y-105660256D01*
X192365226Y-105471898D01*
X192389858Y-105348061D01*
X195345000Y-105348061D01*
X195345000Y-105551939D01*
X195384774Y-105751898D01*
X195462795Y-105940256D01*
X195576063Y-106109774D01*
X195720226Y-106253937D01*
X195889744Y-106367205D01*
X196078102Y-106445226D01*
X196278061Y-106485000D01*
X196481939Y-106485000D01*
X196681898Y-106445226D01*
X196870256Y-106367205D01*
X197039774Y-106253937D01*
X197183937Y-106109774D01*
X197297205Y-105940256D01*
X197375226Y-105751898D01*
X197415000Y-105551939D01*
X197415000Y-105348061D01*
X197375226Y-105148102D01*
X197297205Y-104959744D01*
X197183937Y-104790226D01*
X197039774Y-104646063D01*
X196870256Y-104532795D01*
X196681898Y-104454774D01*
X196481939Y-104415000D01*
X196278061Y-104415000D01*
X196078102Y-104454774D01*
X195889744Y-104532795D01*
X195720226Y-104646063D01*
X195576063Y-104790226D01*
X195462795Y-104959744D01*
X195384774Y-105148102D01*
X195345000Y-105348061D01*
X192389858Y-105348061D01*
X192405000Y-105271939D01*
X192405000Y-105068061D01*
X192365226Y-104868102D01*
X192287205Y-104679744D01*
X192173937Y-104510226D01*
X192029774Y-104366063D01*
X191860256Y-104252795D01*
X191671898Y-104174774D01*
X191471939Y-104135000D01*
X191268061Y-104135000D01*
X191068102Y-104174774D01*
X190879744Y-104252795D01*
X190710226Y-104366063D01*
X190566063Y-104510226D01*
X190452795Y-104679744D01*
X190374774Y-104868102D01*
X190335000Y-105068061D01*
X182887099Y-105068061D01*
X182865226Y-104958102D01*
X182787205Y-104769744D01*
X182673937Y-104600226D01*
X182529774Y-104456063D01*
X182360256Y-104342795D01*
X182171898Y-104264774D01*
X181971939Y-104225000D01*
X181768061Y-104225000D01*
X181568102Y-104264774D01*
X181379744Y-104342795D01*
X181210226Y-104456063D01*
X181066063Y-104600226D01*
X180952795Y-104769744D01*
X180874774Y-104958102D01*
X180835000Y-105158061D01*
X156521200Y-105158061D01*
X156521200Y-101908061D01*
X172035000Y-101908061D01*
X172035000Y-102111939D01*
X172074774Y-102311898D01*
X172152795Y-102500256D01*
X172266063Y-102669774D01*
X172410226Y-102813937D01*
X172579744Y-102927205D01*
X172768102Y-103005226D01*
X172968061Y-103045000D01*
X173171939Y-103045000D01*
X173371898Y-103005226D01*
X173560256Y-102927205D01*
X173729774Y-102813937D01*
X173873937Y-102669774D01*
X173927122Y-102590176D01*
X176677420Y-102590176D01*
X176677420Y-102794054D01*
X176717194Y-102994013D01*
X176795215Y-103182371D01*
X176908483Y-103351889D01*
X177052646Y-103496052D01*
X177222164Y-103609320D01*
X177410522Y-103687341D01*
X177610481Y-103727115D01*
X177814359Y-103727115D01*
X178014318Y-103687341D01*
X178202676Y-103609320D01*
X178372194Y-103496052D01*
X178516357Y-103351889D01*
X178629625Y-103182371D01*
X178707646Y-102994013D01*
X178747420Y-102794054D01*
X178747420Y-102590176D01*
X178707646Y-102390217D01*
X178629625Y-102201859D01*
X178620406Y-102188061D01*
X179865000Y-102188061D01*
X179865000Y-102391939D01*
X179904774Y-102591898D01*
X179982795Y-102780256D01*
X180096063Y-102949774D01*
X180240226Y-103093937D01*
X180409744Y-103207205D01*
X180598102Y-103285226D01*
X180798061Y-103325000D01*
X181001939Y-103325000D01*
X181201898Y-103285226D01*
X181279367Y-103253137D01*
X205915000Y-103253137D01*
X205915000Y-103466863D01*
X205956696Y-103676483D01*
X206038485Y-103873940D01*
X206157225Y-104051647D01*
X206308353Y-104202775D01*
X206486060Y-104321515D01*
X206683517Y-104403304D01*
X206893137Y-104445000D01*
X207106863Y-104445000D01*
X207316483Y-104403304D01*
X207513940Y-104321515D01*
X207691647Y-104202775D01*
X207842775Y-104051647D01*
X207961515Y-103873940D01*
X208043304Y-103676483D01*
X208085000Y-103466863D01*
X208085000Y-103253137D01*
X208043304Y-103043517D01*
X207961515Y-102846060D01*
X207842775Y-102668353D01*
X207691647Y-102517225D01*
X207513940Y-102398485D01*
X207316483Y-102316696D01*
X207106863Y-102275000D01*
X206893137Y-102275000D01*
X206683517Y-102316696D01*
X206486060Y-102398485D01*
X206308353Y-102517225D01*
X206157225Y-102668353D01*
X206038485Y-102846060D01*
X205956696Y-103043517D01*
X205915000Y-103253137D01*
X181279367Y-103253137D01*
X181390256Y-103207205D01*
X181559774Y-103093937D01*
X181703937Y-102949774D01*
X181817205Y-102780256D01*
X181895226Y-102591898D01*
X181935000Y-102391939D01*
X181935000Y-102188061D01*
X181895226Y-101988102D01*
X181817205Y-101799744D01*
X181703937Y-101630226D01*
X181559774Y-101486063D01*
X181390256Y-101372795D01*
X181201898Y-101294774D01*
X181001939Y-101255000D01*
X180798061Y-101255000D01*
X180598102Y-101294774D01*
X180409744Y-101372795D01*
X180240226Y-101486063D01*
X180096063Y-101630226D01*
X179982795Y-101799744D01*
X179904774Y-101988102D01*
X179865000Y-102188061D01*
X178620406Y-102188061D01*
X178516357Y-102032341D01*
X178372194Y-101888178D01*
X178202676Y-101774910D01*
X178014318Y-101696889D01*
X177814359Y-101657115D01*
X177610481Y-101657115D01*
X177410522Y-101696889D01*
X177222164Y-101774910D01*
X177052646Y-101888178D01*
X176908483Y-102032341D01*
X176795215Y-102201859D01*
X176717194Y-102390217D01*
X176677420Y-102590176D01*
X173927122Y-102590176D01*
X173987205Y-102500256D01*
X174065226Y-102311898D01*
X174105000Y-102111939D01*
X174105000Y-101908061D01*
X174065226Y-101708102D01*
X173987205Y-101519744D01*
X173873937Y-101350226D01*
X173729774Y-101206063D01*
X173560256Y-101092795D01*
X173371898Y-101014774D01*
X173171939Y-100975000D01*
X172968061Y-100975000D01*
X172768102Y-101014774D01*
X172579744Y-101092795D01*
X172410226Y-101206063D01*
X172266063Y-101350226D01*
X172152795Y-101519744D01*
X172074774Y-101708102D01*
X172035000Y-101908061D01*
X156521200Y-101908061D01*
X156521200Y-99888211D01*
X162035001Y-99888211D01*
X162035001Y-100111787D01*
X162078618Y-100331066D01*
X162164177Y-100537623D01*
X162288389Y-100723519D01*
X162446481Y-100881611D01*
X162632377Y-101005823D01*
X162838934Y-101091382D01*
X163058213Y-101134999D01*
X163281789Y-101134999D01*
X163501068Y-101091382D01*
X163707625Y-101005823D01*
X163893521Y-100881611D01*
X164051613Y-100723519D01*
X164175825Y-100537623D01*
X164261384Y-100331066D01*
X164305001Y-100111787D01*
X164305001Y-99888211D01*
X175684999Y-99888211D01*
X175684999Y-100111787D01*
X175728616Y-100331066D01*
X175814175Y-100537623D01*
X175938387Y-100723519D01*
X176096479Y-100881611D01*
X176282375Y-101005823D01*
X176488932Y-101091382D01*
X176708211Y-101134999D01*
X176931787Y-101134999D01*
X177151066Y-101091382D01*
X177357623Y-101005823D01*
X177543519Y-100881611D01*
X177614999Y-100810131D01*
X177676480Y-100871612D01*
X177862376Y-100995824D01*
X178068933Y-101081383D01*
X178288212Y-101125000D01*
X178511788Y-101125000D01*
X178731067Y-101081383D01*
X178937624Y-100995824D01*
X179123520Y-100871612D01*
X179281612Y-100713520D01*
X179405824Y-100527624D01*
X179491383Y-100321067D01*
X179535000Y-100101788D01*
X179535000Y-100088061D01*
X179615000Y-100088061D01*
X179615000Y-100291939D01*
X179654774Y-100491898D01*
X179732795Y-100680256D01*
X179846063Y-100849774D01*
X179990226Y-100993937D01*
X180159744Y-101107205D01*
X180348102Y-101185226D01*
X180548061Y-101225000D01*
X180751939Y-101225000D01*
X180951898Y-101185226D01*
X181140256Y-101107205D01*
X181309774Y-100993937D01*
X181453937Y-100849774D01*
X181567205Y-100680256D01*
X181645226Y-100491898D01*
X181667869Y-100378061D01*
X182925000Y-100378061D01*
X182925000Y-100581939D01*
X182964774Y-100781898D01*
X183042795Y-100970256D01*
X183156063Y-101139774D01*
X183170195Y-101153906D01*
X183092795Y-101269744D01*
X183014774Y-101458102D01*
X182975000Y-101658061D01*
X182975000Y-101861939D01*
X183014774Y-102061898D01*
X183092795Y-102250256D01*
X183206063Y-102419774D01*
X183350226Y-102563937D01*
X183519744Y-102677205D01*
X183708102Y-102755226D01*
X183908061Y-102795000D01*
X184111939Y-102795000D01*
X184311898Y-102755226D01*
X184500256Y-102677205D01*
X184669774Y-102563937D01*
X184813937Y-102419774D01*
X184927205Y-102250256D01*
X185005226Y-102061898D01*
X185045000Y-101861939D01*
X185045000Y-101658061D01*
X185005226Y-101458102D01*
X184927205Y-101269744D01*
X184813937Y-101100226D01*
X184799805Y-101086094D01*
X184877205Y-100970256D01*
X184955226Y-100781898D01*
X184995000Y-100581939D01*
X184995000Y-100378061D01*
X184977780Y-100291491D01*
X185100226Y-100413937D01*
X185269744Y-100527205D01*
X185458102Y-100605226D01*
X185658061Y-100645000D01*
X185861939Y-100645000D01*
X185947097Y-100628061D01*
X206495000Y-100628061D01*
X206495000Y-100831939D01*
X206534774Y-101031898D01*
X206612795Y-101220256D01*
X206726063Y-101389774D01*
X206870226Y-101533937D01*
X207039744Y-101647205D01*
X207228102Y-101725226D01*
X207428061Y-101765000D01*
X207631939Y-101765000D01*
X207831898Y-101725226D01*
X208020256Y-101647205D01*
X208189774Y-101533937D01*
X208333937Y-101389774D01*
X208447205Y-101220256D01*
X208525226Y-101031898D01*
X208565000Y-100831939D01*
X208565000Y-100628061D01*
X208525226Y-100428102D01*
X208447205Y-100239744D01*
X208333937Y-100070226D01*
X208189774Y-99926063D01*
X208020256Y-99812795D01*
X207831898Y-99734774D01*
X207631939Y-99695000D01*
X207428061Y-99695000D01*
X207228102Y-99734774D01*
X207039744Y-99812795D01*
X206870226Y-99926063D01*
X206726063Y-100070226D01*
X206612795Y-100239744D01*
X206534774Y-100428102D01*
X206495000Y-100628061D01*
X185947097Y-100628061D01*
X186061898Y-100605226D01*
X186250256Y-100527205D01*
X186419774Y-100413937D01*
X186563937Y-100269774D01*
X186677205Y-100100256D01*
X186755226Y-99911898D01*
X186795000Y-99711939D01*
X186795000Y-99508061D01*
X186755226Y-99308102D01*
X186677205Y-99119744D01*
X186563937Y-98950226D01*
X186419774Y-98806063D01*
X186250256Y-98692795D01*
X186061898Y-98614774D01*
X185861939Y-98575000D01*
X185658061Y-98575000D01*
X185458102Y-98614774D01*
X185269744Y-98692795D01*
X185100226Y-98806063D01*
X184956063Y-98950226D01*
X184842795Y-99119744D01*
X184764774Y-99308102D01*
X184725000Y-99508061D01*
X184725000Y-99711939D01*
X184742220Y-99798509D01*
X184619774Y-99676063D01*
X184450256Y-99562795D01*
X184261898Y-99484774D01*
X184061939Y-99445000D01*
X183858061Y-99445000D01*
X183658102Y-99484774D01*
X183469744Y-99562795D01*
X183300226Y-99676063D01*
X183156063Y-99820226D01*
X183042795Y-99989744D01*
X182964774Y-100178102D01*
X182925000Y-100378061D01*
X181667869Y-100378061D01*
X181685000Y-100291939D01*
X181685000Y-100088061D01*
X181645226Y-99888102D01*
X181567205Y-99699744D01*
X181453937Y-99530226D01*
X181309774Y-99386063D01*
X181140256Y-99272795D01*
X180951898Y-99194774D01*
X180751939Y-99155000D01*
X180548061Y-99155000D01*
X180348102Y-99194774D01*
X180159744Y-99272795D01*
X179990226Y-99386063D01*
X179846063Y-99530226D01*
X179732795Y-99699744D01*
X179654774Y-99888102D01*
X179615000Y-100088061D01*
X179535000Y-100088061D01*
X179535000Y-99878212D01*
X179491383Y-99658933D01*
X179405824Y-99452376D01*
X179281612Y-99266480D01*
X179123520Y-99108388D01*
X178937624Y-98984176D01*
X178731067Y-98898617D01*
X178511788Y-98855000D01*
X178288212Y-98855000D01*
X178068933Y-98898617D01*
X177862376Y-98984176D01*
X177676480Y-99108388D01*
X177605000Y-99179868D01*
X177543519Y-99118387D01*
X177357623Y-98994175D01*
X177151066Y-98908616D01*
X176931787Y-98864999D01*
X176708211Y-98864999D01*
X176488932Y-98908616D01*
X176282375Y-98994175D01*
X176096479Y-99118387D01*
X175938387Y-99276479D01*
X175814175Y-99462375D01*
X175728616Y-99668932D01*
X175684999Y-99888211D01*
X164305001Y-99888211D01*
X164261384Y-99668932D01*
X164175825Y-99462375D01*
X164051613Y-99276479D01*
X163893521Y-99118387D01*
X163707625Y-98994175D01*
X163501068Y-98908616D01*
X163281789Y-98864999D01*
X163058213Y-98864999D01*
X162838934Y-98908616D01*
X162632377Y-98994175D01*
X162446481Y-99118387D01*
X162288389Y-99276479D01*
X162164177Y-99462375D01*
X162078618Y-99668932D01*
X162035001Y-99888211D01*
X156521200Y-99888211D01*
X156521200Y-97829186D01*
X156524764Y-97793000D01*
X156522308Y-97768061D01*
X160875000Y-97768061D01*
X160875000Y-97971939D01*
X160914774Y-98171898D01*
X160992795Y-98360256D01*
X161106063Y-98529774D01*
X161250226Y-98673937D01*
X161419744Y-98787205D01*
X161608102Y-98865226D01*
X161808061Y-98905000D01*
X162011939Y-98905000D01*
X162211898Y-98865226D01*
X162400256Y-98787205D01*
X162569774Y-98673937D01*
X162713937Y-98529774D01*
X162827205Y-98360256D01*
X162905226Y-98171898D01*
X162945000Y-97971939D01*
X162945000Y-97768061D01*
X162905226Y-97568102D01*
X162827205Y-97379744D01*
X162785990Y-97318061D01*
X167195000Y-97318061D01*
X167195000Y-97521939D01*
X167234774Y-97721898D01*
X167312795Y-97910256D01*
X167426063Y-98079774D01*
X167570226Y-98223937D01*
X167739744Y-98337205D01*
X167928102Y-98415226D01*
X168128061Y-98455000D01*
X168331939Y-98455000D01*
X168531898Y-98415226D01*
X168720256Y-98337205D01*
X168889774Y-98223937D01*
X169033937Y-98079774D01*
X169147205Y-97910256D01*
X169225226Y-97721898D01*
X169265000Y-97521939D01*
X169265000Y-97383212D01*
X181149849Y-97383212D01*
X181149849Y-97587090D01*
X181189623Y-97787049D01*
X181267644Y-97975407D01*
X181380912Y-98144925D01*
X181525075Y-98289088D01*
X181694593Y-98402356D01*
X181882951Y-98480377D01*
X182082910Y-98520151D01*
X182286788Y-98520151D01*
X182486747Y-98480377D01*
X182675105Y-98402356D01*
X182844623Y-98289088D01*
X182988786Y-98144925D01*
X183102054Y-97975407D01*
X183146518Y-97868061D01*
X200845000Y-97868061D01*
X200845000Y-98071939D01*
X200884774Y-98271898D01*
X200962795Y-98460256D01*
X201076063Y-98629774D01*
X201220226Y-98773937D01*
X201389744Y-98887205D01*
X201578102Y-98965226D01*
X201778061Y-99005000D01*
X201981939Y-99005000D01*
X202181898Y-98965226D01*
X202370256Y-98887205D01*
X202539774Y-98773937D01*
X202683937Y-98629774D01*
X202797205Y-98460256D01*
X202875226Y-98271898D01*
X202915000Y-98071939D01*
X202915000Y-97868061D01*
X202875226Y-97668102D01*
X202797205Y-97479744D01*
X202683937Y-97310226D01*
X202539774Y-97166063D01*
X202370256Y-97052795D01*
X202181898Y-96974774D01*
X201981939Y-96935000D01*
X201778061Y-96935000D01*
X201578102Y-96974774D01*
X201389744Y-97052795D01*
X201220226Y-97166063D01*
X201076063Y-97310226D01*
X200962795Y-97479744D01*
X200884774Y-97668102D01*
X200845000Y-97868061D01*
X183146518Y-97868061D01*
X183180075Y-97787049D01*
X183219849Y-97587090D01*
X183219849Y-97383212D01*
X183180075Y-97183253D01*
X183102054Y-96994895D01*
X182988786Y-96825377D01*
X182844623Y-96681214D01*
X182675105Y-96567946D01*
X182486747Y-96489925D01*
X182286788Y-96450151D01*
X182082910Y-96450151D01*
X181882951Y-96489925D01*
X181694593Y-96567946D01*
X181525075Y-96681214D01*
X181380912Y-96825377D01*
X181267644Y-96994895D01*
X181189623Y-97183253D01*
X181149849Y-97383212D01*
X169265000Y-97383212D01*
X169265000Y-97318061D01*
X169225226Y-97118102D01*
X169147205Y-96929744D01*
X169033937Y-96760226D01*
X168889774Y-96616063D01*
X168720256Y-96502795D01*
X168531898Y-96424774D01*
X168331939Y-96385000D01*
X168128061Y-96385000D01*
X167928102Y-96424774D01*
X167739744Y-96502795D01*
X167570226Y-96616063D01*
X167426063Y-96760226D01*
X167312795Y-96929744D01*
X167234774Y-97118102D01*
X167195000Y-97318061D01*
X162785990Y-97318061D01*
X162713937Y-97210226D01*
X162569774Y-97066063D01*
X162400256Y-96952795D01*
X162211898Y-96874774D01*
X162011939Y-96835000D01*
X161808061Y-96835000D01*
X161608102Y-96874774D01*
X161419744Y-96952795D01*
X161250226Y-97066063D01*
X161106063Y-97210226D01*
X160992795Y-97379744D01*
X160914774Y-97568102D01*
X160875000Y-97768061D01*
X156522308Y-97768061D01*
X156510542Y-97648601D01*
X156468422Y-97509751D01*
X156400024Y-97381787D01*
X156307975Y-97269625D01*
X156195813Y-97177576D01*
X156067849Y-97109178D01*
X155928999Y-97067058D01*
X155820786Y-97056400D01*
X155784600Y-97052836D01*
X155748414Y-97056400D01*
X138934167Y-97056400D01*
X138945000Y-97001939D01*
X138945000Y-96798061D01*
X138905226Y-96598102D01*
X138827205Y-96409744D01*
X138713937Y-96240226D01*
X138569774Y-96096063D01*
X138400256Y-95982795D01*
X138211898Y-95904774D01*
X138011939Y-95865000D01*
X137808061Y-95865000D01*
X137608102Y-95904774D01*
X137419744Y-95982795D01*
X137250226Y-96096063D01*
X137106063Y-96240226D01*
X136992795Y-96409744D01*
X136914774Y-96598102D01*
X136875000Y-96798061D01*
X136875000Y-97001939D01*
X136885833Y-97056400D01*
X123526600Y-97056400D01*
X123526600Y-95250940D01*
X124417665Y-95250940D01*
X124663816Y-95643304D01*
X125166222Y-95908912D01*
X125710793Y-96071401D01*
X126276599Y-96124528D01*
X126841898Y-96066252D01*
X127384966Y-95898810D01*
X127862984Y-95643304D01*
X128109135Y-95250940D01*
X128083735Y-95225540D01*
X150528865Y-95225540D01*
X150775016Y-95617904D01*
X151277422Y-95883512D01*
X151821993Y-96046001D01*
X152387799Y-96099128D01*
X152953098Y-96040852D01*
X153496166Y-95873410D01*
X153974184Y-95617904D01*
X154220335Y-95225540D01*
X152374600Y-93379805D01*
X150528865Y-95225540D01*
X128083735Y-95225540D01*
X126263400Y-93405205D01*
X124417665Y-95250940D01*
X123526600Y-95250940D01*
X123526600Y-94140923D01*
X123590190Y-94347166D01*
X123845696Y-94825184D01*
X124238060Y-95071335D01*
X126083795Y-93225600D01*
X126443005Y-93225600D01*
X128288740Y-95071335D01*
X128681104Y-94825184D01*
X128946712Y-94322778D01*
X129109201Y-93778207D01*
X129162234Y-93213399D01*
X149475672Y-93213399D01*
X149533948Y-93778698D01*
X149701390Y-94321766D01*
X149956896Y-94799784D01*
X150349260Y-95045935D01*
X152194995Y-93200200D01*
X152554205Y-93200200D01*
X154399940Y-95045935D01*
X154792304Y-94799784D01*
X155057912Y-94297378D01*
X155220401Y-93752807D01*
X155273528Y-93187001D01*
X155215252Y-92621702D01*
X155047810Y-92078634D01*
X154792304Y-91600616D01*
X154399940Y-91354465D01*
X152554205Y-93200200D01*
X152194995Y-93200200D01*
X150349260Y-91354465D01*
X149956896Y-91600616D01*
X149691288Y-92103022D01*
X149528799Y-92647593D01*
X149475672Y-93213399D01*
X129162234Y-93213399D01*
X129162328Y-93212401D01*
X129104052Y-92647102D01*
X128936610Y-92104034D01*
X128681104Y-91626016D01*
X128288740Y-91379865D01*
X126443005Y-93225600D01*
X126083795Y-93225600D01*
X124238060Y-91379865D01*
X123845696Y-91626016D01*
X123580088Y-92128422D01*
X123526600Y-92307683D01*
X123526600Y-91200260D01*
X124417665Y-91200260D01*
X126263400Y-93045995D01*
X128109135Y-91200260D01*
X128093201Y-91174860D01*
X150528865Y-91174860D01*
X152374600Y-93020595D01*
X154220335Y-91174860D01*
X153974184Y-90782496D01*
X153471778Y-90516888D01*
X152927207Y-90354399D01*
X152361401Y-90301272D01*
X151796102Y-90359548D01*
X151253034Y-90526990D01*
X150775016Y-90782496D01*
X150528865Y-91174860D01*
X128093201Y-91174860D01*
X127862984Y-90807896D01*
X127360578Y-90542288D01*
X126816007Y-90379799D01*
X126250201Y-90326672D01*
X125684902Y-90384948D01*
X125141834Y-90552390D01*
X124663816Y-90807896D01*
X124417665Y-91200260D01*
X123526600Y-91200260D01*
X123526600Y-88658061D01*
X153075000Y-88658061D01*
X153075000Y-88861939D01*
X153114774Y-89061898D01*
X153192795Y-89250256D01*
X153306063Y-89419774D01*
X153450226Y-89563937D01*
X153619744Y-89677205D01*
X153808102Y-89755226D01*
X154008061Y-89795000D01*
X154211939Y-89795000D01*
X154411898Y-89755226D01*
X154600256Y-89677205D01*
X154769774Y-89563937D01*
X154913937Y-89419774D01*
X155027205Y-89250256D01*
X155105226Y-89061898D01*
X155113945Y-89018061D01*
X189705000Y-89018061D01*
X189705000Y-89221939D01*
X189744774Y-89421898D01*
X189822795Y-89610256D01*
X189936063Y-89779774D01*
X190080226Y-89923937D01*
X190249744Y-90037205D01*
X190438102Y-90115226D01*
X190638061Y-90155000D01*
X190841939Y-90155000D01*
X190999222Y-90123715D01*
X191014774Y-90201898D01*
X191092795Y-90390256D01*
X191206063Y-90559774D01*
X191350226Y-90703937D01*
X191519744Y-90817205D01*
X191708102Y-90895226D01*
X191908061Y-90935000D01*
X192111939Y-90935000D01*
X192311898Y-90895226D01*
X192500256Y-90817205D01*
X192669774Y-90703937D01*
X192813937Y-90559774D01*
X192927205Y-90390256D01*
X193005226Y-90201898D01*
X193045000Y-90001939D01*
X193045000Y-89798061D01*
X193005226Y-89598102D01*
X192927205Y-89409744D01*
X192813937Y-89240226D01*
X192669774Y-89096063D01*
X192500256Y-88982795D01*
X192311898Y-88904774D01*
X192111939Y-88865000D01*
X191908061Y-88865000D01*
X191750778Y-88896285D01*
X191735226Y-88818102D01*
X191657205Y-88629744D01*
X191543937Y-88460226D01*
X191399774Y-88316063D01*
X191230256Y-88202795D01*
X191041898Y-88124774D01*
X190841939Y-88085000D01*
X190638061Y-88085000D01*
X190438102Y-88124774D01*
X190249744Y-88202795D01*
X190080226Y-88316063D01*
X189936063Y-88460226D01*
X189822795Y-88629744D01*
X189744774Y-88818102D01*
X189705000Y-89018061D01*
X155113945Y-89018061D01*
X155145000Y-88861939D01*
X155145000Y-88658061D01*
X155105226Y-88458102D01*
X155027205Y-88269744D01*
X154913937Y-88100226D01*
X154769774Y-87956063D01*
X154600256Y-87842795D01*
X154411898Y-87764774D01*
X154211939Y-87725000D01*
X154008061Y-87725000D01*
X153808102Y-87764774D01*
X153619744Y-87842795D01*
X153450226Y-87956063D01*
X153306063Y-88100226D01*
X153192795Y-88269744D01*
X153114774Y-88458102D01*
X153075000Y-88658061D01*
X123526600Y-88658061D01*
X123526600Y-88064800D01*
X127732214Y-88064800D01*
X127768400Y-88068364D01*
X127804586Y-88064800D01*
X127912799Y-88054142D01*
X128051649Y-88012022D01*
X128179613Y-87943624D01*
X128291775Y-87851575D01*
X128383824Y-87739413D01*
X128446015Y-87623061D01*
X186645000Y-87623061D01*
X186645000Y-87826939D01*
X186684774Y-88026898D01*
X186762795Y-88215256D01*
X186876063Y-88384774D01*
X187020226Y-88528937D01*
X187189744Y-88642205D01*
X187378102Y-88720226D01*
X187578061Y-88760000D01*
X187781939Y-88760000D01*
X187981898Y-88720226D01*
X188170256Y-88642205D01*
X188339774Y-88528937D01*
X188483937Y-88384774D01*
X188597205Y-88215256D01*
X188675226Y-88026898D01*
X188715000Y-87826939D01*
X188715000Y-87623061D01*
X188675226Y-87423102D01*
X188597205Y-87234744D01*
X188483937Y-87065226D01*
X188346772Y-86928061D01*
X201485000Y-86928061D01*
X201485000Y-87131939D01*
X201524774Y-87331898D01*
X201602795Y-87520256D01*
X201716063Y-87689774D01*
X201860226Y-87833937D01*
X202029744Y-87947205D01*
X202218102Y-88025226D01*
X202418061Y-88065000D01*
X202621939Y-88065000D01*
X202821898Y-88025226D01*
X203010256Y-87947205D01*
X203179774Y-87833937D01*
X203323937Y-87689774D01*
X203437205Y-87520256D01*
X203515226Y-87331898D01*
X203555000Y-87131939D01*
X203555000Y-86928061D01*
X203515226Y-86728102D01*
X203437205Y-86539744D01*
X203323937Y-86370226D01*
X203179774Y-86226063D01*
X203010256Y-86112795D01*
X202821898Y-86034774D01*
X202621939Y-85995000D01*
X202418061Y-85995000D01*
X202218102Y-86034774D01*
X202029744Y-86112795D01*
X201860226Y-86226063D01*
X201716063Y-86370226D01*
X201602795Y-86539744D01*
X201524774Y-86728102D01*
X201485000Y-86928061D01*
X188346772Y-86928061D01*
X188339774Y-86921063D01*
X188170256Y-86807795D01*
X187981898Y-86729774D01*
X187781939Y-86690000D01*
X187578061Y-86690000D01*
X187378102Y-86729774D01*
X187189744Y-86807795D01*
X187020226Y-86921063D01*
X186876063Y-87065226D01*
X186762795Y-87234744D01*
X186684774Y-87423102D01*
X186645000Y-87623061D01*
X128446015Y-87623061D01*
X128452222Y-87611449D01*
X128494342Y-87472599D01*
X128508564Y-87328200D01*
X128505000Y-87292014D01*
X128505000Y-85955340D01*
X128984265Y-85955340D01*
X129230416Y-86347704D01*
X129732822Y-86613312D01*
X130277393Y-86775801D01*
X130843199Y-86828928D01*
X131408498Y-86770652D01*
X131951566Y-86603210D01*
X132429584Y-86347704D01*
X132675735Y-85955340D01*
X130830000Y-84109605D01*
X128984265Y-85955340D01*
X128505000Y-85955340D01*
X128505000Y-85587742D01*
X128804660Y-85775735D01*
X130650395Y-83930000D01*
X130636253Y-83915858D01*
X130815858Y-83736253D01*
X130830000Y-83750395D01*
X130844143Y-83736253D01*
X131023748Y-83915858D01*
X131009605Y-83930000D01*
X132855340Y-85775735D01*
X133247704Y-85529584D01*
X133338383Y-85358061D01*
X184605000Y-85358061D01*
X184605000Y-85561939D01*
X184644774Y-85761898D01*
X184722795Y-85950256D01*
X184836063Y-86119774D01*
X184980226Y-86263937D01*
X185149744Y-86377205D01*
X185338102Y-86455226D01*
X185538061Y-86495000D01*
X185741939Y-86495000D01*
X185941898Y-86455226D01*
X186130256Y-86377205D01*
X186299774Y-86263937D01*
X186443937Y-86119774D01*
X186557205Y-85950256D01*
X186635226Y-85761898D01*
X186675000Y-85561939D01*
X186675000Y-85358061D01*
X186635226Y-85158102D01*
X186557205Y-84969744D01*
X186443937Y-84800226D01*
X186299774Y-84656063D01*
X186130256Y-84542795D01*
X185941898Y-84464774D01*
X185741939Y-84425000D01*
X185538061Y-84425000D01*
X185338102Y-84464774D01*
X185149744Y-84542795D01*
X184980226Y-84656063D01*
X184836063Y-84800226D01*
X184722795Y-84969744D01*
X184644774Y-85158102D01*
X184605000Y-85358061D01*
X133338383Y-85358061D01*
X133513312Y-85027178D01*
X133675801Y-84482607D01*
X133728928Y-83916801D01*
X133718234Y-83813059D01*
X158320000Y-83813059D01*
X158320000Y-84016937D01*
X158359774Y-84216896D01*
X158437795Y-84405254D01*
X158551063Y-84574772D01*
X158695226Y-84718935D01*
X158864744Y-84832203D01*
X159053102Y-84910224D01*
X159253061Y-84949998D01*
X159456939Y-84949998D01*
X159656898Y-84910224D01*
X159845256Y-84832203D01*
X160014774Y-84718935D01*
X160158937Y-84574772D01*
X160272205Y-84405254D01*
X160350226Y-84216896D01*
X160389746Y-84018212D01*
X162645000Y-84018212D01*
X162645000Y-84241788D01*
X162688617Y-84461067D01*
X162774176Y-84667624D01*
X162898388Y-84853520D01*
X163056480Y-85011612D01*
X163242376Y-85135824D01*
X163448933Y-85221383D01*
X163668212Y-85265000D01*
X163891788Y-85265000D01*
X164111067Y-85221383D01*
X164317624Y-85135824D01*
X164503520Y-85011612D01*
X164546774Y-84968358D01*
X164679744Y-85057205D01*
X164868102Y-85135226D01*
X165068061Y-85175000D01*
X165271939Y-85175000D01*
X165471898Y-85135226D01*
X165660256Y-85057205D01*
X165829774Y-84943937D01*
X165973937Y-84799774D01*
X166087205Y-84630256D01*
X166165226Y-84441898D01*
X166205000Y-84241939D01*
X166205000Y-84038061D01*
X166199034Y-84008063D01*
X172975000Y-84008063D01*
X172975000Y-84211941D01*
X173014774Y-84411900D01*
X173092795Y-84600258D01*
X173206063Y-84769776D01*
X173350226Y-84913939D01*
X173519744Y-85027207D01*
X173708102Y-85105228D01*
X173908061Y-85145002D01*
X174111939Y-85145002D01*
X174311898Y-85105228D01*
X174500256Y-85027207D01*
X174669774Y-84913939D01*
X174813937Y-84769776D01*
X174927205Y-84600258D01*
X175005226Y-84411900D01*
X175045000Y-84211941D01*
X175045000Y-84008063D01*
X175021161Y-83888212D01*
X178355000Y-83888212D01*
X178355000Y-84111788D01*
X178398617Y-84331067D01*
X178484176Y-84537624D01*
X178608388Y-84723520D01*
X178766480Y-84881612D01*
X178952376Y-85005824D01*
X179158933Y-85091383D01*
X179378212Y-85135000D01*
X179601788Y-85135000D01*
X179821067Y-85091383D01*
X180027624Y-85005824D01*
X180213520Y-84881612D01*
X180282715Y-84812417D01*
X180349746Y-84857205D01*
X180538104Y-84935226D01*
X180738063Y-84975000D01*
X180941941Y-84975000D01*
X181141900Y-84935226D01*
X181330258Y-84857205D01*
X181499776Y-84743937D01*
X181643939Y-84599774D01*
X181757207Y-84430256D01*
X181835228Y-84241898D01*
X181875002Y-84041939D01*
X181875002Y-84028061D01*
X187435000Y-84028061D01*
X187435000Y-84231939D01*
X187474774Y-84431898D01*
X187552795Y-84620256D01*
X187666063Y-84789774D01*
X187810226Y-84933937D01*
X187979744Y-85047205D01*
X188168102Y-85125226D01*
X188368061Y-85165000D01*
X188571939Y-85165000D01*
X188771898Y-85125226D01*
X188960256Y-85047205D01*
X189129774Y-84933937D01*
X189273937Y-84789774D01*
X189387205Y-84620256D01*
X189465226Y-84431898D01*
X189505000Y-84231939D01*
X189505000Y-84028061D01*
X189465226Y-83828102D01*
X189462958Y-83822626D01*
X189758884Y-83822626D01*
X189758884Y-84026504D01*
X189798658Y-84226463D01*
X189876679Y-84414821D01*
X189989947Y-84584339D01*
X190134110Y-84728502D01*
X190303628Y-84841770D01*
X190491986Y-84919791D01*
X190691945Y-84959565D01*
X190895823Y-84959565D01*
X191095782Y-84919791D01*
X191284140Y-84841770D01*
X191453658Y-84728502D01*
X191593514Y-84588646D01*
X191626480Y-84621612D01*
X191812376Y-84745824D01*
X192018933Y-84831383D01*
X192238212Y-84875000D01*
X192461788Y-84875000D01*
X192681067Y-84831383D01*
X192887624Y-84745824D01*
X193073520Y-84621612D01*
X193231612Y-84463520D01*
X193355824Y-84277624D01*
X193441383Y-84071067D01*
X193485000Y-83851788D01*
X193485000Y-83628212D01*
X193441383Y-83408933D01*
X193407880Y-83328049D01*
X198275000Y-83328049D01*
X198275000Y-83531927D01*
X198314774Y-83731886D01*
X198392795Y-83920244D01*
X198506063Y-84089762D01*
X198650226Y-84233925D01*
X198819744Y-84347193D01*
X199008102Y-84425214D01*
X199208061Y-84464988D01*
X199411939Y-84464988D01*
X199611898Y-84425214D01*
X199800256Y-84347193D01*
X199969774Y-84233925D01*
X200113937Y-84089762D01*
X200227205Y-83920244D01*
X200305226Y-83731886D01*
X200345000Y-83531927D01*
X200345000Y-83328049D01*
X200305226Y-83128090D01*
X200227205Y-82939732D01*
X200113937Y-82770214D01*
X199969774Y-82626051D01*
X199800256Y-82512783D01*
X199611898Y-82434762D01*
X199411939Y-82394988D01*
X199208061Y-82394988D01*
X199008102Y-82434762D01*
X198819744Y-82512783D01*
X198650226Y-82626051D01*
X198506063Y-82770214D01*
X198392795Y-82939732D01*
X198314774Y-83128090D01*
X198275000Y-83328049D01*
X193407880Y-83328049D01*
X193355824Y-83202376D01*
X193231612Y-83016480D01*
X193073520Y-82858388D01*
X192887624Y-82734176D01*
X192681067Y-82648617D01*
X192461788Y-82605000D01*
X192238212Y-82605000D01*
X192018933Y-82648617D01*
X191812376Y-82734176D01*
X191626480Y-82858388D01*
X191468388Y-83016480D01*
X191415731Y-83095286D01*
X191284140Y-83007360D01*
X191095782Y-82929339D01*
X190895823Y-82889565D01*
X190691945Y-82889565D01*
X190491986Y-82929339D01*
X190303628Y-83007360D01*
X190134110Y-83120628D01*
X189989947Y-83264791D01*
X189876679Y-83434309D01*
X189798658Y-83622667D01*
X189758884Y-83822626D01*
X189462958Y-83822626D01*
X189387205Y-83639744D01*
X189273937Y-83470226D01*
X189129774Y-83326063D01*
X188960256Y-83212795D01*
X188771898Y-83134774D01*
X188571939Y-83095000D01*
X188368061Y-83095000D01*
X188168102Y-83134774D01*
X187979744Y-83212795D01*
X187810226Y-83326063D01*
X187666063Y-83470226D01*
X187552795Y-83639744D01*
X187474774Y-83828102D01*
X187435000Y-84028061D01*
X181875002Y-84028061D01*
X181875002Y-83838061D01*
X181835228Y-83638102D01*
X181757207Y-83449744D01*
X181643939Y-83280226D01*
X181499776Y-83136063D01*
X181330258Y-83022795D01*
X181141900Y-82944774D01*
X180941941Y-82905000D01*
X180738063Y-82905000D01*
X180538104Y-82944774D01*
X180349746Y-83022795D01*
X180210100Y-83116103D01*
X180027624Y-82994176D01*
X179821067Y-82908617D01*
X179601788Y-82865000D01*
X179378212Y-82865000D01*
X179158933Y-82908617D01*
X178952376Y-82994176D01*
X178766480Y-83118388D01*
X178608388Y-83276480D01*
X178484176Y-83462376D01*
X178398617Y-83668933D01*
X178355000Y-83888212D01*
X175021161Y-83888212D01*
X175005226Y-83808104D01*
X174927205Y-83619746D01*
X174813937Y-83450228D01*
X174669774Y-83306065D01*
X174500256Y-83192797D01*
X174311898Y-83114776D01*
X174111939Y-83075002D01*
X173908061Y-83075002D01*
X173708102Y-83114776D01*
X173519744Y-83192797D01*
X173350226Y-83306065D01*
X173206063Y-83450228D01*
X173092795Y-83619746D01*
X173014774Y-83808104D01*
X172975000Y-84008063D01*
X166199034Y-84008063D01*
X166165226Y-83838102D01*
X166087205Y-83649744D01*
X165973937Y-83480226D01*
X165829774Y-83336063D01*
X165660256Y-83222795D01*
X165471898Y-83144774D01*
X165271939Y-83105000D01*
X165068061Y-83105000D01*
X164868102Y-83144774D01*
X164679744Y-83222795D01*
X164558763Y-83303631D01*
X164503520Y-83248388D01*
X164317624Y-83124176D01*
X164111067Y-83038617D01*
X163891788Y-82995000D01*
X163668212Y-82995000D01*
X163448933Y-83038617D01*
X163242376Y-83124176D01*
X163056480Y-83248388D01*
X162898388Y-83406480D01*
X162774176Y-83592376D01*
X162688617Y-83798933D01*
X162645000Y-84018212D01*
X160389746Y-84018212D01*
X160390000Y-84016937D01*
X160390000Y-83813059D01*
X160350226Y-83613100D01*
X160272205Y-83424742D01*
X160158937Y-83255224D01*
X160014774Y-83111061D01*
X159845256Y-82997793D01*
X159656898Y-82919772D01*
X159456939Y-82879998D01*
X159253061Y-82879998D01*
X159053102Y-82919772D01*
X158864744Y-82997793D01*
X158695226Y-83111061D01*
X158551063Y-83255224D01*
X158437795Y-83424742D01*
X158359774Y-83613100D01*
X158320000Y-83813059D01*
X133718234Y-83813059D01*
X133670652Y-83351502D01*
X133503210Y-82808434D01*
X133247704Y-82330416D01*
X132855342Y-82084266D01*
X132869208Y-82070400D01*
X203853992Y-82070400D01*
X203948358Y-82164766D01*
G37*
G04 #@! TD.AperFunction*
M02*
