G04 #@! TF.GenerationSoftware,KiCad,Pcbnew,(5.1.10)-1*
G04 #@! TF.CreationDate,2021-08-05T17:19:02-07:00*
G04 #@! TF.ProjectId,laser,6c617365-722e-46b6-9963-61645f706362,rev?*
G04 #@! TF.SameCoordinates,Original*
G04 #@! TF.FileFunction,Copper,L3,Inr*
G04 #@! TF.FilePolarity,Positive*
%FSLAX46Y46*%
G04 Gerber Fmt 4.6, Leading zero omitted, Abs format (unit mm)*
G04 Created by KiCad (PCBNEW (5.1.10)-1) date 2021-08-05 17:19:02*
%MOMM*%
%LPD*%
G01*
G04 APERTURE LIST*
G04 #@! TA.AperFunction,ComponentPad*
%ADD10C,4.200000*%
G04 #@! TD*
G04 #@! TA.AperFunction,ComponentPad*
%ADD11C,4.500000*%
G04 #@! TD*
G04 #@! TA.AperFunction,ComponentPad*
%ADD12C,1.650000*%
G04 #@! TD*
G04 #@! TA.AperFunction,ComponentPad*
%ADD13R,1.650000X1.650000*%
G04 #@! TD*
G04 #@! TA.AperFunction,ComponentPad*
%ADD14C,1.524000*%
G04 #@! TD*
G04 #@! TA.AperFunction,ViaPad*
%ADD15C,0.800000*%
G04 #@! TD*
G04 #@! TA.AperFunction,ViaPad*
%ADD16C,1.000000*%
G04 #@! TD*
G04 #@! TA.AperFunction,ViaPad*
%ADD17C,1.500000*%
G04 #@! TD*
G04 #@! TA.AperFunction,Conductor*
%ADD18C,0.500000*%
G04 #@! TD*
G04 #@! TA.AperFunction,Conductor*
%ADD19C,1.000000*%
G04 #@! TD*
G04 #@! TA.AperFunction,Conductor*
%ADD20C,0.250000*%
G04 #@! TD*
G04 #@! TA.AperFunction,Conductor*
%ADD21C,0.700000*%
G04 #@! TD*
G04 #@! TA.AperFunction,Conductor*
%ADD22C,1.800000*%
G04 #@! TD*
G04 #@! TA.AperFunction,Conductor*
%ADD23C,0.254000*%
G04 #@! TD*
G04 #@! TA.AperFunction,Conductor*
%ADD24C,0.100000*%
G04 #@! TD*
G04 APERTURE END LIST*
D10*
X205841600Y-129700000D03*
X205867000Y-83903800D03*
D11*
X126263400Y-93225600D03*
X152374600Y-93200200D03*
X152298400Y-121267200D03*
X126263400Y-121165600D03*
X130835400Y-129674600D03*
X130830000Y-83930000D03*
D12*
X207550000Y-115950000D03*
X205010000Y-115950000D03*
X202470000Y-115950000D03*
X207550000Y-113410000D03*
X205010000Y-113410000D03*
D13*
X202470000Y-113410000D03*
D14*
X206000000Y-119620000D03*
X206000000Y-122160000D03*
X206000000Y-124700000D03*
D15*
X188090000Y-130930000D03*
X173890000Y-114280000D03*
X169290000Y-108730000D03*
X130400000Y-123800000D03*
X165170000Y-84140000D03*
X180840002Y-83940000D03*
X199310000Y-83429988D03*
D16*
X176819999Y-99999999D03*
X163170001Y-99999999D03*
X178400000Y-99990000D03*
X179490000Y-84000000D03*
X143070000Y-123619998D03*
X163780000Y-84130000D03*
D15*
X192500000Y-118930000D03*
X188070000Y-129200000D03*
X190050000Y-119070000D03*
X165250000Y-112400000D03*
X165280000Y-118410000D03*
X184810000Y-125920000D03*
X180900000Y-102290000D03*
X181720000Y-120790000D03*
X184690000Y-119100000D03*
X181480000Y-128499998D03*
X177750000Y-118120000D03*
X190740000Y-89120000D03*
X185760000Y-99610000D03*
X173440000Y-108670000D03*
X139580000Y-129650002D03*
X142820000Y-129120000D03*
X137910000Y-96900000D03*
X202520000Y-87030000D03*
X185640000Y-85460000D03*
D16*
X192350000Y-83740000D03*
D15*
X201880000Y-97970000D03*
X196380000Y-105450000D03*
X193980000Y-116520000D03*
X189750000Y-116030000D03*
X196728047Y-111597281D03*
X207530000Y-100730000D03*
X188470000Y-84130000D03*
X205700000Y-87290000D03*
X192010000Y-89900000D03*
X158330000Y-121330000D03*
X174080000Y-112110000D03*
X175188513Y-117720949D03*
X176030000Y-122350009D03*
X173070000Y-102010000D03*
X183890000Y-110030000D03*
X161910000Y-97870000D03*
X154110000Y-88760000D03*
X155990000Y-122590000D03*
X183305000Y-123145000D03*
X163650000Y-123520000D03*
X166279933Y-118421763D03*
X166010000Y-127860000D03*
X180650000Y-100190000D03*
X175590000Y-108580000D03*
X190793884Y-83924565D03*
X187680000Y-87725000D03*
D17*
X211790000Y-99230000D03*
D15*
X196976300Y-113587972D03*
X191370000Y-105170000D03*
X182184849Y-97485151D03*
X168230000Y-97420000D03*
X174010000Y-84110002D03*
X183960000Y-100480000D03*
X159355000Y-83914998D03*
X184010000Y-101760000D03*
X188030000Y-112260000D03*
X187690000Y-117140000D03*
X189138061Y-114867001D03*
X202055127Y-105792042D03*
X202040000Y-107360000D03*
X164847500Y-123497500D03*
X196100000Y-125260000D03*
X184865349Y-123870000D03*
X179520000Y-119440000D03*
X168750000Y-114550000D03*
X182580000Y-127740000D03*
X176920000Y-107270000D03*
X177712420Y-102692115D03*
X181870000Y-105260000D03*
X184350000Y-106380000D03*
X193050150Y-127392520D03*
X138470000Y-124900000D03*
X195680000Y-122390000D03*
X202070000Y-103670000D03*
X159900000Y-89670000D03*
X168060000Y-89670000D03*
X166820000Y-89650000D03*
X164420000Y-89640000D03*
X163270000Y-89620000D03*
X162130000Y-89620000D03*
X172150000Y-126880000D03*
X178160000Y-120170000D03*
X181250000Y-115060000D03*
X184010000Y-115550000D03*
D16*
X198820000Y-84700000D03*
X196800000Y-89450000D03*
D15*
X178700000Y-106450000D03*
X168420000Y-111950000D03*
X167200000Y-112300000D03*
X160900000Y-125180000D03*
X158250000Y-123520000D03*
X156100000Y-126550000D03*
X184650000Y-84850000D03*
X170650000Y-85200000D03*
X156663700Y-86063700D03*
X184863700Y-95486300D03*
X194210000Y-118890000D03*
X200310000Y-127120000D03*
X196750000Y-130680000D03*
D16*
X198850000Y-85890000D03*
D15*
X174850000Y-126400000D03*
X184360000Y-129540000D03*
X167760000Y-101100000D03*
X165720000Y-97950000D03*
X188100000Y-127940000D03*
X195240000Y-128160000D03*
X191520000Y-130190000D03*
X182200000Y-84000000D03*
X168150000Y-84010000D03*
X175340000Y-84250000D03*
X193170000Y-113240000D03*
X197040000Y-112590000D03*
X173450000Y-97870000D03*
X170340000Y-101110000D03*
X168470002Y-129940000D03*
X171019995Y-112050005D03*
X184679475Y-118100053D03*
X172359998Y-120780000D03*
X195100000Y-116620000D03*
X160996089Y-89626089D03*
X165620000Y-89630000D03*
X159900000Y-90670000D03*
X159900000Y-91670000D03*
X162130000Y-90620000D03*
X162130000Y-91620000D03*
X160996089Y-90626089D03*
X160996089Y-91626089D03*
X164420000Y-90640000D03*
X164420000Y-91640000D03*
X165620000Y-90630000D03*
X165620000Y-91630000D03*
X163270000Y-90620000D03*
X163270000Y-91620000D03*
X168060000Y-90670000D03*
X168060000Y-91670000D03*
X166820000Y-90650000D03*
X166820000Y-91650000D03*
X173550000Y-90800000D03*
X181710000Y-90800000D03*
X180470000Y-91780000D03*
X179270000Y-90760000D03*
X179270000Y-91760000D03*
X181710000Y-91800000D03*
X175780000Y-90750000D03*
X180470000Y-90780000D03*
X178070000Y-91770000D03*
X174646089Y-91756089D03*
X176920000Y-91750000D03*
X174646089Y-90756089D03*
X176920000Y-90750000D03*
X178070000Y-90770000D03*
X175780000Y-91750000D03*
X173550000Y-89800000D03*
X173550000Y-91800000D03*
X175780000Y-89750000D03*
X174646089Y-89756089D03*
X178070000Y-89770000D03*
X179270000Y-89760000D03*
X176920000Y-89750000D03*
X181710000Y-89800000D03*
X180470000Y-89780000D03*
X160617660Y-83917660D03*
X171875000Y-97795010D03*
X169516551Y-97795010D03*
X177760000Y-84520000D03*
X196940000Y-110620000D03*
X192890000Y-105020000D03*
X192573361Y-85595010D03*
X168180000Y-120080000D03*
X175910000Y-113760000D03*
X176712660Y-106037340D03*
X161330000Y-121390000D03*
X200360002Y-126250000D03*
X201399972Y-88050000D03*
X192520000Y-88030000D03*
X197930000Y-120270000D03*
X140550000Y-123870000D03*
X158890010Y-113430000D03*
X183740000Y-124740002D03*
X161500000Y-113400000D03*
X200240001Y-116655321D03*
X159867825Y-98622175D03*
X202960000Y-119260000D03*
X202639986Y-100870000D03*
X211900000Y-88440000D03*
X186490000Y-125010000D03*
X178370000Y-121495000D03*
X175790000Y-120870000D03*
X192480000Y-124365000D03*
X201130000Y-130370000D03*
X211770000Y-95460000D03*
D18*
X169290000Y-108730000D02*
X167661998Y-108730000D01*
X167661998Y-108730000D02*
X158581998Y-117810000D01*
X158581998Y-117810000D02*
X136390000Y-117810000D01*
X136390000Y-117810000D02*
X130400000Y-123800000D01*
D19*
X180680000Y-83424315D02*
X179875685Y-82620000D01*
X166690000Y-82620000D02*
X165170000Y-84140000D01*
X179875685Y-82620000D02*
X166690000Y-82620000D01*
X180680000Y-83424315D02*
X180680000Y-83779998D01*
X180680000Y-83779998D02*
X180840002Y-83940000D01*
X198350011Y-82469999D02*
X199310000Y-83429988D01*
X181634316Y-82469999D02*
X198350011Y-82469999D01*
X180680000Y-83424315D02*
X181634316Y-82469999D01*
X171260000Y-102580000D02*
X173330000Y-104650000D01*
X162270000Y-102580000D02*
X171260000Y-102580000D01*
X156590000Y-96900000D02*
X162270000Y-102580000D01*
X137910000Y-96900000D02*
X156590000Y-96900000D01*
D20*
X193980000Y-114345328D02*
X193980000Y-116520000D01*
X196728047Y-111597281D02*
X193980000Y-114345328D01*
X175188513Y-117720949D02*
X174788514Y-117320950D01*
X174788514Y-112818514D02*
X174080000Y-112110000D01*
X174788514Y-117320950D02*
X174788514Y-112818514D01*
X175794992Y-122115001D02*
X176030000Y-122350009D01*
X158330000Y-121330000D02*
X159115001Y-122115001D01*
X159115001Y-122115001D02*
X175794992Y-122115001D01*
D21*
X173070000Y-102010000D02*
X175890000Y-104830000D01*
X178690000Y-104830000D02*
X183890000Y-110030000D01*
X175890000Y-104830000D02*
X178690000Y-104830000D01*
D20*
X155990000Y-122590000D02*
X165390000Y-122590000D01*
X165390000Y-122590000D02*
X165500000Y-122590000D01*
X165500000Y-122590000D02*
X166055000Y-123145000D01*
X166055000Y-123145000D02*
X183305000Y-123145000D01*
D22*
X211700001Y-99230000D02*
X211700001Y-118379999D01*
X207920000Y-122160000D02*
X206000000Y-122160000D01*
X211700001Y-118379999D02*
X207920000Y-122160000D01*
D20*
X181219990Y-97739990D02*
X183960000Y-100480000D01*
X172824999Y-92725587D02*
X177839402Y-97739990D01*
X172824999Y-85295003D02*
X172824999Y-92725587D01*
X174010000Y-84110002D02*
X172824999Y-85295003D01*
X177839402Y-97739990D02*
X181219990Y-97739990D01*
X168408001Y-88944999D02*
X177653002Y-98190000D01*
X159355000Y-83914998D02*
X160109997Y-83160001D01*
X160109997Y-83160001D02*
X161588999Y-83160001D01*
X167373997Y-88944999D02*
X168408001Y-88944999D01*
X177653002Y-98190000D02*
X180440000Y-98190000D01*
X161588999Y-83160001D02*
X167373997Y-88944999D01*
X180440000Y-98190000D02*
X184010000Y-101760000D01*
X165220000Y-123870000D02*
X184865349Y-123870000D01*
X164847500Y-123497500D02*
X165220000Y-123870000D01*
X177611999Y-119234999D02*
X177403347Y-119443651D01*
X179520000Y-119440000D02*
X179314999Y-119234999D01*
X177403347Y-119443651D02*
X170413651Y-119443651D01*
X179314999Y-119234999D02*
X177611999Y-119234999D01*
X170413651Y-119443651D02*
X169920000Y-118950000D01*
X169920000Y-118950000D02*
X169920000Y-115720000D01*
X169920000Y-115720000D02*
X168750000Y-114550000D01*
X184170000Y-106560000D02*
X184350000Y-106380000D01*
X183170000Y-106560000D02*
X184170000Y-106560000D01*
X179302115Y-102692115D02*
X181870000Y-105260000D01*
X177712420Y-102692115D02*
X179302115Y-102692115D01*
X181870000Y-105260000D02*
X183170000Y-106560000D01*
X178370000Y-121495000D02*
X176415000Y-121495000D01*
X176415000Y-121495000D02*
X175790000Y-120870000D01*
D23*
X203742587Y-82160339D02*
X203443275Y-82608292D01*
X203237105Y-83106030D01*
X203132000Y-83634426D01*
X203132000Y-84173174D01*
X203237105Y-84701570D01*
X203443275Y-85199308D01*
X203742587Y-85647261D01*
X204123539Y-86028213D01*
X204571492Y-86327525D01*
X205069230Y-86533695D01*
X205597626Y-86638800D01*
X206136374Y-86638800D01*
X206664770Y-86533695D01*
X207162508Y-86327525D01*
X207245000Y-86272406D01*
X207245000Y-87292014D01*
X207241436Y-87328200D01*
X207255658Y-87472599D01*
X207297778Y-87611449D01*
X207366176Y-87739413D01*
X207458225Y-87851575D01*
X207570387Y-87943624D01*
X207698351Y-88012022D01*
X207837201Y-88054142D01*
X207941346Y-88064399D01*
X207946272Y-88665110D01*
X202910810Y-88633003D01*
X202885591Y-88635368D01*
X202861745Y-88642525D01*
X202839754Y-88654196D01*
X202820462Y-88669933D01*
X202804612Y-88689132D01*
X202792811Y-88711054D01*
X202785514Y-88734857D01*
X202783001Y-88759626D01*
X202757478Y-97420289D01*
X202683937Y-97310226D01*
X202539774Y-97166063D01*
X202370256Y-97052795D01*
X202181898Y-96974774D01*
X201981939Y-96935000D01*
X201778061Y-96935000D01*
X201578102Y-96974774D01*
X201389744Y-97052795D01*
X201352689Y-97077554D01*
X201357000Y-91490098D01*
X201354434Y-91464597D01*
X201347087Y-91440810D01*
X201335240Y-91418912D01*
X201319350Y-91399747D01*
X201300025Y-91384050D01*
X201278010Y-91372424D01*
X201254150Y-91365317D01*
X201229361Y-91363002D01*
X189299361Y-91423002D01*
X189275512Y-91425383D01*
X189251671Y-91432555D01*
X189229687Y-91444240D01*
X189210406Y-91459990D01*
X189194567Y-91479198D01*
X189182780Y-91501128D01*
X189175498Y-91524935D01*
X189173000Y-91549706D01*
X189143000Y-104509706D01*
X189145566Y-104535402D01*
X189152913Y-104559189D01*
X189164759Y-104581087D01*
X189180649Y-104600252D01*
X189199974Y-104615950D01*
X189221989Y-104627575D01*
X189245849Y-104634683D01*
X189270638Y-104636998D01*
X190485432Y-104630899D01*
X190452795Y-104679744D01*
X190374774Y-104868102D01*
X190335000Y-105068061D01*
X190335000Y-105271939D01*
X190374774Y-105471898D01*
X190452795Y-105660256D01*
X190566063Y-105829774D01*
X190710226Y-105973937D01*
X190879744Y-106087205D01*
X191068102Y-106165226D01*
X191268061Y-106205000D01*
X191471939Y-106205000D01*
X191671898Y-106165226D01*
X191860256Y-106087205D01*
X192029774Y-105973937D01*
X192173937Y-105829774D01*
X192198821Y-105792532D01*
X192230226Y-105823937D01*
X192399744Y-105937205D01*
X192588102Y-106015226D01*
X192788061Y-106055000D01*
X192991939Y-106055000D01*
X193191898Y-106015226D01*
X193380256Y-105937205D01*
X193549774Y-105823937D01*
X193693937Y-105679774D01*
X193807205Y-105510256D01*
X193885226Y-105321898D01*
X193925000Y-105121939D01*
X193925000Y-104918061D01*
X193885226Y-104718102D01*
X193842124Y-104614045D01*
X201220638Y-104576998D01*
X201244680Y-104574579D01*
X201268510Y-104567370D01*
X201290476Y-104555651D01*
X201309733Y-104539872D01*
X201325542Y-104520639D01*
X201337295Y-104498691D01*
X201344541Y-104474873D01*
X201347000Y-104450098D01*
X201347030Y-104410741D01*
X201410226Y-104473937D01*
X201579744Y-104587205D01*
X201768102Y-104665226D01*
X201968061Y-104705000D01*
X202171939Y-104705000D01*
X202371898Y-104665226D01*
X202560256Y-104587205D01*
X202729774Y-104473937D01*
X202873937Y-104329774D01*
X202987205Y-104160256D01*
X203065226Y-103971898D01*
X203105000Y-103771939D01*
X203105000Y-103568061D01*
X203065226Y-103368102D01*
X202987205Y-103179744D01*
X202873937Y-103010226D01*
X202729774Y-102866063D01*
X202560256Y-102752795D01*
X202371898Y-102674774D01*
X202171939Y-102635000D01*
X201968061Y-102635000D01*
X201768102Y-102674774D01*
X201579744Y-102752795D01*
X201410226Y-102866063D01*
X201348174Y-102928115D01*
X201349840Y-100768061D01*
X201604986Y-100768061D01*
X201604986Y-100971939D01*
X201644760Y-101171898D01*
X201722781Y-101360256D01*
X201836049Y-101529774D01*
X201980212Y-101673937D01*
X202149730Y-101787205D01*
X202338088Y-101865226D01*
X202538047Y-101905000D01*
X202741925Y-101905000D01*
X202941884Y-101865226D01*
X203130242Y-101787205D01*
X203299760Y-101673937D01*
X203443923Y-101529774D01*
X203557191Y-101360256D01*
X203635212Y-101171898D01*
X203674986Y-100971939D01*
X203674986Y-100768061D01*
X203635212Y-100568102D01*
X203557191Y-100379744D01*
X203443923Y-100210226D01*
X203299760Y-100066063D01*
X203130242Y-99952795D01*
X202941884Y-99874774D01*
X202741925Y-99835000D01*
X202538047Y-99835000D01*
X202338088Y-99874774D01*
X202149730Y-99952795D01*
X201980212Y-100066063D01*
X201836049Y-100210226D01*
X201722781Y-100379744D01*
X201644760Y-100568102D01*
X201604986Y-100768061D01*
X201349840Y-100768061D01*
X201351312Y-98861526D01*
X201389744Y-98887205D01*
X201578102Y-98965226D01*
X201778061Y-99005000D01*
X201981939Y-99005000D01*
X202181898Y-98965226D01*
X202370256Y-98887205D01*
X202539774Y-98773937D01*
X202683937Y-98629774D01*
X202754224Y-98524582D01*
X202753001Y-98939626D01*
X202757461Y-98973364D01*
X202766325Y-98996629D01*
X202779557Y-99017718D01*
X202796649Y-99035820D01*
X202816944Y-99050240D01*
X202839662Y-99060424D01*
X202863931Y-99065979D01*
X202888817Y-99066694D01*
X208028649Y-98708997D01*
X208065097Y-103153080D01*
X208043304Y-103043517D01*
X207961515Y-102846060D01*
X207842775Y-102668353D01*
X207691647Y-102517225D01*
X207513940Y-102398485D01*
X207316483Y-102316696D01*
X207106863Y-102275000D01*
X206893137Y-102275000D01*
X206683517Y-102316696D01*
X206486060Y-102398485D01*
X206308353Y-102517225D01*
X206157225Y-102668353D01*
X206038485Y-102846060D01*
X205956696Y-103043517D01*
X205915000Y-103253137D01*
X205915000Y-103466863D01*
X205956696Y-103676483D01*
X206038485Y-103873940D01*
X206157225Y-104051647D01*
X206308353Y-104202775D01*
X206486060Y-104321515D01*
X206683517Y-104403304D01*
X206893137Y-104445000D01*
X207106863Y-104445000D01*
X207316483Y-104403304D01*
X207513940Y-104321515D01*
X207691647Y-104202775D01*
X207842775Y-104051647D01*
X207961515Y-103873940D01*
X208043304Y-103676483D01*
X208068357Y-103550532D01*
X208138258Y-112073372D01*
X207975866Y-112006107D01*
X207693797Y-111950000D01*
X207406203Y-111950000D01*
X207124134Y-112006107D01*
X206858431Y-112116165D01*
X206619304Y-112275944D01*
X206415944Y-112479304D01*
X206280000Y-112682759D01*
X206144056Y-112479304D01*
X205940696Y-112275944D01*
X205701569Y-112116165D01*
X205435866Y-112006107D01*
X205153797Y-111950000D01*
X204866203Y-111950000D01*
X204584134Y-112006107D01*
X204318431Y-112116165D01*
X204079304Y-112275944D01*
X203914742Y-112440506D01*
X203884502Y-112340820D01*
X203825537Y-112230506D01*
X203746185Y-112133815D01*
X203649494Y-112054463D01*
X203539180Y-111995498D01*
X203419482Y-111959188D01*
X203295000Y-111946928D01*
X202755750Y-111950000D01*
X202597000Y-112108750D01*
X202597000Y-113283000D01*
X202617000Y-113283000D01*
X202617000Y-113537000D01*
X202597000Y-113537000D01*
X202597000Y-113557000D01*
X202343000Y-113557000D01*
X202343000Y-113537000D01*
X201168750Y-113537000D01*
X201010000Y-113695750D01*
X201006928Y-114235000D01*
X201019188Y-114359482D01*
X201055498Y-114479180D01*
X201114463Y-114589494D01*
X201193815Y-114686185D01*
X201290506Y-114765537D01*
X201400820Y-114824502D01*
X201500506Y-114854742D01*
X201335944Y-115019304D01*
X201176165Y-115258431D01*
X201066107Y-115524134D01*
X201010000Y-115806203D01*
X201010000Y-115961609D01*
X200899775Y-115851384D01*
X200730257Y-115738116D01*
X200541899Y-115660095D01*
X200341940Y-115620321D01*
X200138062Y-115620321D01*
X199938103Y-115660095D01*
X199749745Y-115738116D01*
X199580227Y-115851384D01*
X199436064Y-115995547D01*
X199322796Y-116165065D01*
X199244775Y-116353423D01*
X199205001Y-116553382D01*
X199205001Y-116757260D01*
X199244775Y-116957219D01*
X199322796Y-117145577D01*
X199436064Y-117315095D01*
X199580227Y-117459258D01*
X199678704Y-117525058D01*
X195624349Y-117514425D01*
X195759774Y-117423937D01*
X195903937Y-117279774D01*
X196017205Y-117110256D01*
X196095226Y-116921898D01*
X196135000Y-116721939D01*
X196135000Y-116518061D01*
X196095226Y-116318102D01*
X196017205Y-116129744D01*
X195903937Y-115960226D01*
X195759774Y-115816063D01*
X195590256Y-115702795D01*
X195401898Y-115624774D01*
X195201939Y-115585000D01*
X194998061Y-115585000D01*
X194798102Y-115624774D01*
X194609744Y-115702795D01*
X194440226Y-115816063D01*
X194296063Y-115960226D01*
X194182795Y-116129744D01*
X194104774Y-116318102D01*
X194065000Y-116518061D01*
X194065000Y-116721939D01*
X194104774Y-116921898D01*
X194182795Y-117110256D01*
X194296063Y-117279774D01*
X194440226Y-117423937D01*
X194571519Y-117511664D01*
X188662747Y-117496167D01*
X188685226Y-117441898D01*
X188725000Y-117241939D01*
X188725000Y-117038061D01*
X188685226Y-116838102D01*
X188607205Y-116649744D01*
X188493937Y-116480226D01*
X188349774Y-116336063D01*
X188180256Y-116222795D01*
X187991898Y-116144774D01*
X187791939Y-116105000D01*
X187588061Y-116105000D01*
X187570234Y-116108546D01*
X187559773Y-114765062D01*
X188103061Y-114765062D01*
X188103061Y-114968940D01*
X188142835Y-115168899D01*
X188220856Y-115357257D01*
X188334124Y-115526775D01*
X188478287Y-115670938D01*
X188647805Y-115784206D01*
X188836163Y-115862227D01*
X189036122Y-115902001D01*
X189240000Y-115902001D01*
X189439959Y-115862227D01*
X189628317Y-115784206D01*
X189797835Y-115670938D01*
X189941998Y-115526775D01*
X190055266Y-115357257D01*
X190133287Y-115168899D01*
X190173061Y-114968940D01*
X190173061Y-114765062D01*
X190133287Y-114565103D01*
X190055266Y-114376745D01*
X189941998Y-114207227D01*
X189797835Y-114063064D01*
X189628317Y-113949796D01*
X189439959Y-113871775D01*
X189240000Y-113832001D01*
X189036122Y-113832001D01*
X188836163Y-113871775D01*
X188647805Y-113949796D01*
X188478287Y-114063064D01*
X188334124Y-114207227D01*
X188220856Y-114376745D01*
X188142835Y-114565103D01*
X188103061Y-114765062D01*
X187559773Y-114765062D01*
X187547433Y-113180390D01*
X187728102Y-113255226D01*
X187928061Y-113295000D01*
X188131939Y-113295000D01*
X188331898Y-113255226D01*
X188520256Y-113177205D01*
X188689774Y-113063937D01*
X188833937Y-112919774D01*
X188947205Y-112750256D01*
X189025226Y-112561898D01*
X189065000Y-112361939D01*
X189065000Y-112158061D01*
X189025226Y-111958102D01*
X188947205Y-111769744D01*
X188833937Y-111600226D01*
X188689774Y-111456063D01*
X188520256Y-111342795D01*
X188331898Y-111264774D01*
X188131939Y-111225000D01*
X187928061Y-111225000D01*
X187728102Y-111264774D01*
X187539744Y-111342795D01*
X187533158Y-111347196D01*
X187505303Y-107770000D01*
X191013000Y-107770000D01*
X191013000Y-114260000D01*
X191015440Y-114284776D01*
X191022667Y-114308601D01*
X191034403Y-114330557D01*
X191050197Y-114349803D01*
X191069443Y-114365597D01*
X191091399Y-114377333D01*
X191115224Y-114384560D01*
X191140000Y-114387000D01*
X196311617Y-114387000D01*
X196316526Y-114391909D01*
X196486044Y-114505177D01*
X196674402Y-114583198D01*
X196874361Y-114622972D01*
X197078239Y-114622972D01*
X197278198Y-114583198D01*
X197466556Y-114505177D01*
X197636074Y-114391909D01*
X197643275Y-114384708D01*
X197644776Y-114384560D01*
X197668601Y-114377333D01*
X197690557Y-114365597D01*
X197709803Y-114349803D01*
X197725597Y-114330557D01*
X197737333Y-114308601D01*
X197744560Y-114284776D01*
X197744708Y-114283275D01*
X197780237Y-114247746D01*
X197893505Y-114078228D01*
X197971526Y-113889870D01*
X198011300Y-113689911D01*
X198011300Y-113486033D01*
X197971526Y-113286074D01*
X197913418Y-113145789D01*
X197957205Y-113080256D01*
X198035226Y-112891898D01*
X198075000Y-112691939D01*
X198075000Y-112585000D01*
X201006928Y-112585000D01*
X201010000Y-113124250D01*
X201168750Y-113283000D01*
X202343000Y-113283000D01*
X202343000Y-112108750D01*
X202184250Y-111950000D01*
X201645000Y-111946928D01*
X201520518Y-111959188D01*
X201400820Y-111995498D01*
X201290506Y-112054463D01*
X201193815Y-112133815D01*
X201114463Y-112230506D01*
X201055498Y-112340820D01*
X201019188Y-112460518D01*
X201006928Y-112585000D01*
X198075000Y-112585000D01*
X198075000Y-112488061D01*
X198035226Y-112288102D01*
X197957205Y-112099744D01*
X197843937Y-111930226D01*
X197747000Y-111833289D01*
X197747000Y-111275190D01*
X197857205Y-111110256D01*
X197935226Y-110921898D01*
X197975000Y-110721939D01*
X197975000Y-110518061D01*
X197935226Y-110318102D01*
X197857205Y-110129744D01*
X197747000Y-109964810D01*
X197747000Y-107770000D01*
X197744560Y-107745224D01*
X197737333Y-107721399D01*
X197725597Y-107699443D01*
X197709803Y-107680197D01*
X197690557Y-107664403D01*
X197668601Y-107652667D01*
X197644776Y-107645440D01*
X197620000Y-107643000D01*
X191140000Y-107643000D01*
X191115224Y-107645440D01*
X191091399Y-107652667D01*
X191069443Y-107664403D01*
X191050197Y-107680197D01*
X191034403Y-107699443D01*
X191022667Y-107721399D01*
X191015440Y-107745224D01*
X191013000Y-107770000D01*
X187505303Y-107770000D01*
X187501317Y-107258061D01*
X201005000Y-107258061D01*
X201005000Y-107461939D01*
X201044774Y-107661898D01*
X201122795Y-107850256D01*
X201236063Y-108019774D01*
X201380226Y-108163937D01*
X201549744Y-108277205D01*
X201738102Y-108355226D01*
X201938061Y-108395000D01*
X202141939Y-108395000D01*
X202341898Y-108355226D01*
X202530256Y-108277205D01*
X202699774Y-108163937D01*
X202843937Y-108019774D01*
X202957205Y-107850256D01*
X203035226Y-107661898D01*
X203036968Y-107653137D01*
X205915000Y-107653137D01*
X205915000Y-107866863D01*
X205956696Y-108076483D01*
X206038485Y-108273940D01*
X206157225Y-108451647D01*
X206308353Y-108602775D01*
X206486060Y-108721515D01*
X206683517Y-108803304D01*
X206893137Y-108845000D01*
X207106863Y-108845000D01*
X207316483Y-108803304D01*
X207513940Y-108721515D01*
X207691647Y-108602775D01*
X207842775Y-108451647D01*
X207961515Y-108273940D01*
X208043304Y-108076483D01*
X208085000Y-107866863D01*
X208085000Y-107653137D01*
X208043304Y-107443517D01*
X207961515Y-107246060D01*
X207842775Y-107068353D01*
X207691647Y-106917225D01*
X207513940Y-106798485D01*
X207316483Y-106716696D01*
X207106863Y-106675000D01*
X206893137Y-106675000D01*
X206683517Y-106716696D01*
X206486060Y-106798485D01*
X206308353Y-106917225D01*
X206157225Y-107068353D01*
X206038485Y-107246060D01*
X205956696Y-107443517D01*
X205915000Y-107653137D01*
X203036968Y-107653137D01*
X203075000Y-107461939D01*
X203075000Y-107258061D01*
X203035226Y-107058102D01*
X202957205Y-106869744D01*
X202843937Y-106700226D01*
X202727296Y-106583585D01*
X202859064Y-106451816D01*
X202972332Y-106282298D01*
X203050353Y-106093940D01*
X203090127Y-105893981D01*
X203090127Y-105690103D01*
X203050353Y-105490144D01*
X202972332Y-105301786D01*
X202859064Y-105132268D01*
X202714901Y-104988105D01*
X202545383Y-104874837D01*
X202357025Y-104796816D01*
X202157066Y-104757042D01*
X201953188Y-104757042D01*
X201753229Y-104796816D01*
X201564871Y-104874837D01*
X201395353Y-104988105D01*
X201251190Y-105132268D01*
X201137922Y-105301786D01*
X201059901Y-105490144D01*
X201020127Y-105690103D01*
X201020127Y-105893981D01*
X201059901Y-106093940D01*
X201137922Y-106282298D01*
X201251190Y-106451816D01*
X201367832Y-106568458D01*
X201236063Y-106700226D01*
X201122795Y-106869744D01*
X201044774Y-107058102D01*
X201005000Y-107258061D01*
X187501317Y-107258061D01*
X187359284Y-89018061D01*
X189705000Y-89018061D01*
X189705000Y-89221939D01*
X189744774Y-89421898D01*
X189822795Y-89610256D01*
X189936063Y-89779774D01*
X190080226Y-89923937D01*
X190249744Y-90037205D01*
X190438102Y-90115226D01*
X190638061Y-90155000D01*
X190841939Y-90155000D01*
X190999222Y-90123715D01*
X191014774Y-90201898D01*
X191092795Y-90390256D01*
X191206063Y-90559774D01*
X191350226Y-90703937D01*
X191519744Y-90817205D01*
X191708102Y-90895226D01*
X191908061Y-90935000D01*
X192111939Y-90935000D01*
X192311898Y-90895226D01*
X192500256Y-90817205D01*
X192669774Y-90703937D01*
X192813937Y-90559774D01*
X192927205Y-90390256D01*
X193005226Y-90201898D01*
X193045000Y-90001939D01*
X193045000Y-89798061D01*
X193005226Y-89598102D01*
X192927205Y-89409744D01*
X192879409Y-89338212D01*
X195665000Y-89338212D01*
X195665000Y-89561788D01*
X195708617Y-89781067D01*
X195794176Y-89987624D01*
X195918388Y-90173520D01*
X196076480Y-90331612D01*
X196262376Y-90455824D01*
X196468933Y-90541383D01*
X196688212Y-90585000D01*
X196911788Y-90585000D01*
X197131067Y-90541383D01*
X197337624Y-90455824D01*
X197523520Y-90331612D01*
X197681612Y-90173520D01*
X197805824Y-89987624D01*
X197891383Y-89781067D01*
X197935000Y-89561788D01*
X197935000Y-89338212D01*
X197891383Y-89118933D01*
X197805824Y-88912376D01*
X197681612Y-88726480D01*
X197523520Y-88568388D01*
X197337624Y-88444176D01*
X197131067Y-88358617D01*
X196911788Y-88315000D01*
X196688212Y-88315000D01*
X196468933Y-88358617D01*
X196262376Y-88444176D01*
X196076480Y-88568388D01*
X195918388Y-88726480D01*
X195794176Y-88912376D01*
X195708617Y-89118933D01*
X195665000Y-89338212D01*
X192879409Y-89338212D01*
X192813937Y-89240226D01*
X192669774Y-89096063D01*
X192622976Y-89064794D01*
X192821898Y-89025226D01*
X193010256Y-88947205D01*
X193179774Y-88833937D01*
X193323937Y-88689774D01*
X193437205Y-88520256D01*
X193515226Y-88331898D01*
X193555000Y-88131939D01*
X193555000Y-87948061D01*
X200364972Y-87948061D01*
X200364972Y-88151939D01*
X200404746Y-88351898D01*
X200482767Y-88540256D01*
X200596035Y-88709774D01*
X200740198Y-88853937D01*
X200909716Y-88967205D01*
X201098074Y-89045226D01*
X201298033Y-89085000D01*
X201501911Y-89085000D01*
X201701870Y-89045226D01*
X201890228Y-88967205D01*
X202059746Y-88853937D01*
X202203909Y-88709774D01*
X202317177Y-88540256D01*
X202395198Y-88351898D01*
X202434972Y-88151939D01*
X202434972Y-88065000D01*
X202621939Y-88065000D01*
X202821898Y-88025226D01*
X203010256Y-87947205D01*
X203179774Y-87833937D01*
X203323937Y-87689774D01*
X203437205Y-87520256D01*
X203515226Y-87331898D01*
X203555000Y-87131939D01*
X203555000Y-86928061D01*
X203515226Y-86728102D01*
X203437205Y-86539744D01*
X203323937Y-86370226D01*
X203179774Y-86226063D01*
X203010256Y-86112795D01*
X202821898Y-86034774D01*
X202621939Y-85995000D01*
X202418061Y-85995000D01*
X202218102Y-86034774D01*
X202029744Y-86112795D01*
X201860226Y-86226063D01*
X201716063Y-86370226D01*
X201602795Y-86539744D01*
X201524774Y-86728102D01*
X201485000Y-86928061D01*
X201485000Y-87015000D01*
X201298033Y-87015000D01*
X201098074Y-87054774D01*
X200909716Y-87132795D01*
X200740198Y-87246063D01*
X200596035Y-87390226D01*
X200482767Y-87559744D01*
X200404746Y-87748102D01*
X200364972Y-87948061D01*
X193555000Y-87948061D01*
X193555000Y-87928061D01*
X193515226Y-87728102D01*
X193437205Y-87539744D01*
X193323937Y-87370226D01*
X193179774Y-87226063D01*
X193010256Y-87112795D01*
X192821898Y-87034774D01*
X192621939Y-86995000D01*
X192418061Y-86995000D01*
X192218102Y-87034774D01*
X192029744Y-87112795D01*
X191860226Y-87226063D01*
X191716063Y-87370226D01*
X191602795Y-87539744D01*
X191524774Y-87728102D01*
X191485000Y-87928061D01*
X191485000Y-88131939D01*
X191524774Y-88331898D01*
X191602795Y-88520256D01*
X191716063Y-88689774D01*
X191860226Y-88833937D01*
X191907024Y-88865206D01*
X191750778Y-88896285D01*
X191735226Y-88818102D01*
X191657205Y-88629744D01*
X191543937Y-88460226D01*
X191399774Y-88316063D01*
X191230256Y-88202795D01*
X191041898Y-88124774D01*
X190841939Y-88085000D01*
X190638061Y-88085000D01*
X190438102Y-88124774D01*
X190249744Y-88202795D01*
X190080226Y-88316063D01*
X189936063Y-88460226D01*
X189822795Y-88629744D01*
X189744774Y-88818102D01*
X189705000Y-89018061D01*
X187359284Y-89018061D01*
X187356896Y-88711442D01*
X187378102Y-88720226D01*
X187578061Y-88760000D01*
X187781939Y-88760000D01*
X187981898Y-88720226D01*
X188170256Y-88642205D01*
X188339774Y-88528937D01*
X188483937Y-88384774D01*
X188597205Y-88215256D01*
X188675226Y-88026898D01*
X188715000Y-87826939D01*
X188715000Y-87623061D01*
X188675226Y-87423102D01*
X188597205Y-87234744D01*
X188483937Y-87065226D01*
X188339774Y-86921063D01*
X188170256Y-86807795D01*
X187981898Y-86729774D01*
X187781939Y-86690000D01*
X187578061Y-86690000D01*
X187378102Y-86729774D01*
X187341583Y-86744901D01*
X187317132Y-83604999D01*
X189805976Y-83604999D01*
X189798658Y-83622667D01*
X189758884Y-83822626D01*
X189758884Y-84026504D01*
X189798658Y-84226463D01*
X189876679Y-84414821D01*
X189989947Y-84584339D01*
X190134110Y-84728502D01*
X190303628Y-84841770D01*
X190491986Y-84919791D01*
X190691945Y-84959565D01*
X190895823Y-84959565D01*
X191095782Y-84919791D01*
X191284140Y-84841770D01*
X191453658Y-84728502D01*
X191593514Y-84588646D01*
X191626480Y-84621612D01*
X191812376Y-84745824D01*
X191916660Y-84789020D01*
X191913587Y-84791073D01*
X191769424Y-84935236D01*
X191656156Y-85104754D01*
X191578135Y-85293112D01*
X191538361Y-85493071D01*
X191538361Y-85696949D01*
X191578135Y-85896908D01*
X191656156Y-86085266D01*
X191769424Y-86254784D01*
X191913587Y-86398947D01*
X192083105Y-86512215D01*
X192271463Y-86590236D01*
X192471422Y-86630010D01*
X192675300Y-86630010D01*
X192875259Y-86590236D01*
X193063617Y-86512215D01*
X193233135Y-86398947D01*
X193377298Y-86254784D01*
X193490566Y-86085266D01*
X193568587Y-85896908D01*
X193608361Y-85696949D01*
X193608361Y-85493071D01*
X193568587Y-85293112D01*
X193490566Y-85104754D01*
X193377298Y-84935236D01*
X193233135Y-84791073D01*
X193063617Y-84677805D01*
X193017815Y-84658833D01*
X193073520Y-84621612D01*
X193231612Y-84463520D01*
X193355824Y-84277624D01*
X193441383Y-84071067D01*
X193485000Y-83851788D01*
X193485000Y-83628212D01*
X193480383Y-83604999D01*
X197879880Y-83604999D01*
X198094874Y-83819994D01*
X197938388Y-83976480D01*
X197814176Y-84162376D01*
X197728617Y-84368933D01*
X197685000Y-84588212D01*
X197685000Y-84811788D01*
X197728617Y-85031067D01*
X197814176Y-85237624D01*
X197867513Y-85317449D01*
X197844176Y-85352376D01*
X197758617Y-85558933D01*
X197715000Y-85778212D01*
X197715000Y-86001788D01*
X197758617Y-86221067D01*
X197844176Y-86427624D01*
X197968388Y-86613520D01*
X198126480Y-86771612D01*
X198312376Y-86895824D01*
X198518933Y-86981383D01*
X198738212Y-87025000D01*
X198961788Y-87025000D01*
X199181067Y-86981383D01*
X199387624Y-86895824D01*
X199573520Y-86771612D01*
X199731612Y-86613520D01*
X199855824Y-86427624D01*
X199941383Y-86221067D01*
X199985000Y-86001788D01*
X199985000Y-85778212D01*
X199941383Y-85558933D01*
X199855824Y-85352376D01*
X199802487Y-85272551D01*
X199825824Y-85237624D01*
X199911383Y-85031067D01*
X199955000Y-84811788D01*
X199955000Y-84588212D01*
X199916160Y-84392950D01*
X199943622Y-84378271D01*
X200116448Y-84236436D01*
X200258283Y-84063610D01*
X200363675Y-83866434D01*
X200428576Y-83652486D01*
X200450490Y-83429987D01*
X200428576Y-83207488D01*
X200363675Y-82993540D01*
X200258283Y-82796364D01*
X200151988Y-82666844D01*
X199555543Y-82070400D01*
X203832526Y-82070400D01*
X203742587Y-82160339D01*
G04 #@! TA.AperFunction,Conductor*
D24*
G36*
X203742587Y-82160339D02*
G01*
X203443275Y-82608292D01*
X203237105Y-83106030D01*
X203132000Y-83634426D01*
X203132000Y-84173174D01*
X203237105Y-84701570D01*
X203443275Y-85199308D01*
X203742587Y-85647261D01*
X204123539Y-86028213D01*
X204571492Y-86327525D01*
X205069230Y-86533695D01*
X205597626Y-86638800D01*
X206136374Y-86638800D01*
X206664770Y-86533695D01*
X207162508Y-86327525D01*
X207245000Y-86272406D01*
X207245000Y-87292014D01*
X207241436Y-87328200D01*
X207255658Y-87472599D01*
X207297778Y-87611449D01*
X207366176Y-87739413D01*
X207458225Y-87851575D01*
X207570387Y-87943624D01*
X207698351Y-88012022D01*
X207837201Y-88054142D01*
X207941346Y-88064399D01*
X207946272Y-88665110D01*
X202910810Y-88633003D01*
X202885591Y-88635368D01*
X202861745Y-88642525D01*
X202839754Y-88654196D01*
X202820462Y-88669933D01*
X202804612Y-88689132D01*
X202792811Y-88711054D01*
X202785514Y-88734857D01*
X202783001Y-88759626D01*
X202757478Y-97420289D01*
X202683937Y-97310226D01*
X202539774Y-97166063D01*
X202370256Y-97052795D01*
X202181898Y-96974774D01*
X201981939Y-96935000D01*
X201778061Y-96935000D01*
X201578102Y-96974774D01*
X201389744Y-97052795D01*
X201352689Y-97077554D01*
X201357000Y-91490098D01*
X201354434Y-91464597D01*
X201347087Y-91440810D01*
X201335240Y-91418912D01*
X201319350Y-91399747D01*
X201300025Y-91384050D01*
X201278010Y-91372424D01*
X201254150Y-91365317D01*
X201229361Y-91363002D01*
X189299361Y-91423002D01*
X189275512Y-91425383D01*
X189251671Y-91432555D01*
X189229687Y-91444240D01*
X189210406Y-91459990D01*
X189194567Y-91479198D01*
X189182780Y-91501128D01*
X189175498Y-91524935D01*
X189173000Y-91549706D01*
X189143000Y-104509706D01*
X189145566Y-104535402D01*
X189152913Y-104559189D01*
X189164759Y-104581087D01*
X189180649Y-104600252D01*
X189199974Y-104615950D01*
X189221989Y-104627575D01*
X189245849Y-104634683D01*
X189270638Y-104636998D01*
X190485432Y-104630899D01*
X190452795Y-104679744D01*
X190374774Y-104868102D01*
X190335000Y-105068061D01*
X190335000Y-105271939D01*
X190374774Y-105471898D01*
X190452795Y-105660256D01*
X190566063Y-105829774D01*
X190710226Y-105973937D01*
X190879744Y-106087205D01*
X191068102Y-106165226D01*
X191268061Y-106205000D01*
X191471939Y-106205000D01*
X191671898Y-106165226D01*
X191860256Y-106087205D01*
X192029774Y-105973937D01*
X192173937Y-105829774D01*
X192198821Y-105792532D01*
X192230226Y-105823937D01*
X192399744Y-105937205D01*
X192588102Y-106015226D01*
X192788061Y-106055000D01*
X192991939Y-106055000D01*
X193191898Y-106015226D01*
X193380256Y-105937205D01*
X193549774Y-105823937D01*
X193693937Y-105679774D01*
X193807205Y-105510256D01*
X193885226Y-105321898D01*
X193925000Y-105121939D01*
X193925000Y-104918061D01*
X193885226Y-104718102D01*
X193842124Y-104614045D01*
X201220638Y-104576998D01*
X201244680Y-104574579D01*
X201268510Y-104567370D01*
X201290476Y-104555651D01*
X201309733Y-104539872D01*
X201325542Y-104520639D01*
X201337295Y-104498691D01*
X201344541Y-104474873D01*
X201347000Y-104450098D01*
X201347030Y-104410741D01*
X201410226Y-104473937D01*
X201579744Y-104587205D01*
X201768102Y-104665226D01*
X201968061Y-104705000D01*
X202171939Y-104705000D01*
X202371898Y-104665226D01*
X202560256Y-104587205D01*
X202729774Y-104473937D01*
X202873937Y-104329774D01*
X202987205Y-104160256D01*
X203065226Y-103971898D01*
X203105000Y-103771939D01*
X203105000Y-103568061D01*
X203065226Y-103368102D01*
X202987205Y-103179744D01*
X202873937Y-103010226D01*
X202729774Y-102866063D01*
X202560256Y-102752795D01*
X202371898Y-102674774D01*
X202171939Y-102635000D01*
X201968061Y-102635000D01*
X201768102Y-102674774D01*
X201579744Y-102752795D01*
X201410226Y-102866063D01*
X201348174Y-102928115D01*
X201349840Y-100768061D01*
X201604986Y-100768061D01*
X201604986Y-100971939D01*
X201644760Y-101171898D01*
X201722781Y-101360256D01*
X201836049Y-101529774D01*
X201980212Y-101673937D01*
X202149730Y-101787205D01*
X202338088Y-101865226D01*
X202538047Y-101905000D01*
X202741925Y-101905000D01*
X202941884Y-101865226D01*
X203130242Y-101787205D01*
X203299760Y-101673937D01*
X203443923Y-101529774D01*
X203557191Y-101360256D01*
X203635212Y-101171898D01*
X203674986Y-100971939D01*
X203674986Y-100768061D01*
X203635212Y-100568102D01*
X203557191Y-100379744D01*
X203443923Y-100210226D01*
X203299760Y-100066063D01*
X203130242Y-99952795D01*
X202941884Y-99874774D01*
X202741925Y-99835000D01*
X202538047Y-99835000D01*
X202338088Y-99874774D01*
X202149730Y-99952795D01*
X201980212Y-100066063D01*
X201836049Y-100210226D01*
X201722781Y-100379744D01*
X201644760Y-100568102D01*
X201604986Y-100768061D01*
X201349840Y-100768061D01*
X201351312Y-98861526D01*
X201389744Y-98887205D01*
X201578102Y-98965226D01*
X201778061Y-99005000D01*
X201981939Y-99005000D01*
X202181898Y-98965226D01*
X202370256Y-98887205D01*
X202539774Y-98773937D01*
X202683937Y-98629774D01*
X202754224Y-98524582D01*
X202753001Y-98939626D01*
X202757461Y-98973364D01*
X202766325Y-98996629D01*
X202779557Y-99017718D01*
X202796649Y-99035820D01*
X202816944Y-99050240D01*
X202839662Y-99060424D01*
X202863931Y-99065979D01*
X202888817Y-99066694D01*
X208028649Y-98708997D01*
X208065097Y-103153080D01*
X208043304Y-103043517D01*
X207961515Y-102846060D01*
X207842775Y-102668353D01*
X207691647Y-102517225D01*
X207513940Y-102398485D01*
X207316483Y-102316696D01*
X207106863Y-102275000D01*
X206893137Y-102275000D01*
X206683517Y-102316696D01*
X206486060Y-102398485D01*
X206308353Y-102517225D01*
X206157225Y-102668353D01*
X206038485Y-102846060D01*
X205956696Y-103043517D01*
X205915000Y-103253137D01*
X205915000Y-103466863D01*
X205956696Y-103676483D01*
X206038485Y-103873940D01*
X206157225Y-104051647D01*
X206308353Y-104202775D01*
X206486060Y-104321515D01*
X206683517Y-104403304D01*
X206893137Y-104445000D01*
X207106863Y-104445000D01*
X207316483Y-104403304D01*
X207513940Y-104321515D01*
X207691647Y-104202775D01*
X207842775Y-104051647D01*
X207961515Y-103873940D01*
X208043304Y-103676483D01*
X208068357Y-103550532D01*
X208138258Y-112073372D01*
X207975866Y-112006107D01*
X207693797Y-111950000D01*
X207406203Y-111950000D01*
X207124134Y-112006107D01*
X206858431Y-112116165D01*
X206619304Y-112275944D01*
X206415944Y-112479304D01*
X206280000Y-112682759D01*
X206144056Y-112479304D01*
X205940696Y-112275944D01*
X205701569Y-112116165D01*
X205435866Y-112006107D01*
X205153797Y-111950000D01*
X204866203Y-111950000D01*
X204584134Y-112006107D01*
X204318431Y-112116165D01*
X204079304Y-112275944D01*
X203914742Y-112440506D01*
X203884502Y-112340820D01*
X203825537Y-112230506D01*
X203746185Y-112133815D01*
X203649494Y-112054463D01*
X203539180Y-111995498D01*
X203419482Y-111959188D01*
X203295000Y-111946928D01*
X202755750Y-111950000D01*
X202597000Y-112108750D01*
X202597000Y-113283000D01*
X202617000Y-113283000D01*
X202617000Y-113537000D01*
X202597000Y-113537000D01*
X202597000Y-113557000D01*
X202343000Y-113557000D01*
X202343000Y-113537000D01*
X201168750Y-113537000D01*
X201010000Y-113695750D01*
X201006928Y-114235000D01*
X201019188Y-114359482D01*
X201055498Y-114479180D01*
X201114463Y-114589494D01*
X201193815Y-114686185D01*
X201290506Y-114765537D01*
X201400820Y-114824502D01*
X201500506Y-114854742D01*
X201335944Y-115019304D01*
X201176165Y-115258431D01*
X201066107Y-115524134D01*
X201010000Y-115806203D01*
X201010000Y-115961609D01*
X200899775Y-115851384D01*
X200730257Y-115738116D01*
X200541899Y-115660095D01*
X200341940Y-115620321D01*
X200138062Y-115620321D01*
X199938103Y-115660095D01*
X199749745Y-115738116D01*
X199580227Y-115851384D01*
X199436064Y-115995547D01*
X199322796Y-116165065D01*
X199244775Y-116353423D01*
X199205001Y-116553382D01*
X199205001Y-116757260D01*
X199244775Y-116957219D01*
X199322796Y-117145577D01*
X199436064Y-117315095D01*
X199580227Y-117459258D01*
X199678704Y-117525058D01*
X195624349Y-117514425D01*
X195759774Y-117423937D01*
X195903937Y-117279774D01*
X196017205Y-117110256D01*
X196095226Y-116921898D01*
X196135000Y-116721939D01*
X196135000Y-116518061D01*
X196095226Y-116318102D01*
X196017205Y-116129744D01*
X195903937Y-115960226D01*
X195759774Y-115816063D01*
X195590256Y-115702795D01*
X195401898Y-115624774D01*
X195201939Y-115585000D01*
X194998061Y-115585000D01*
X194798102Y-115624774D01*
X194609744Y-115702795D01*
X194440226Y-115816063D01*
X194296063Y-115960226D01*
X194182795Y-116129744D01*
X194104774Y-116318102D01*
X194065000Y-116518061D01*
X194065000Y-116721939D01*
X194104774Y-116921898D01*
X194182795Y-117110256D01*
X194296063Y-117279774D01*
X194440226Y-117423937D01*
X194571519Y-117511664D01*
X188662747Y-117496167D01*
X188685226Y-117441898D01*
X188725000Y-117241939D01*
X188725000Y-117038061D01*
X188685226Y-116838102D01*
X188607205Y-116649744D01*
X188493937Y-116480226D01*
X188349774Y-116336063D01*
X188180256Y-116222795D01*
X187991898Y-116144774D01*
X187791939Y-116105000D01*
X187588061Y-116105000D01*
X187570234Y-116108546D01*
X187559773Y-114765062D01*
X188103061Y-114765062D01*
X188103061Y-114968940D01*
X188142835Y-115168899D01*
X188220856Y-115357257D01*
X188334124Y-115526775D01*
X188478287Y-115670938D01*
X188647805Y-115784206D01*
X188836163Y-115862227D01*
X189036122Y-115902001D01*
X189240000Y-115902001D01*
X189439959Y-115862227D01*
X189628317Y-115784206D01*
X189797835Y-115670938D01*
X189941998Y-115526775D01*
X190055266Y-115357257D01*
X190133287Y-115168899D01*
X190173061Y-114968940D01*
X190173061Y-114765062D01*
X190133287Y-114565103D01*
X190055266Y-114376745D01*
X189941998Y-114207227D01*
X189797835Y-114063064D01*
X189628317Y-113949796D01*
X189439959Y-113871775D01*
X189240000Y-113832001D01*
X189036122Y-113832001D01*
X188836163Y-113871775D01*
X188647805Y-113949796D01*
X188478287Y-114063064D01*
X188334124Y-114207227D01*
X188220856Y-114376745D01*
X188142835Y-114565103D01*
X188103061Y-114765062D01*
X187559773Y-114765062D01*
X187547433Y-113180390D01*
X187728102Y-113255226D01*
X187928061Y-113295000D01*
X188131939Y-113295000D01*
X188331898Y-113255226D01*
X188520256Y-113177205D01*
X188689774Y-113063937D01*
X188833937Y-112919774D01*
X188947205Y-112750256D01*
X189025226Y-112561898D01*
X189065000Y-112361939D01*
X189065000Y-112158061D01*
X189025226Y-111958102D01*
X188947205Y-111769744D01*
X188833937Y-111600226D01*
X188689774Y-111456063D01*
X188520256Y-111342795D01*
X188331898Y-111264774D01*
X188131939Y-111225000D01*
X187928061Y-111225000D01*
X187728102Y-111264774D01*
X187539744Y-111342795D01*
X187533158Y-111347196D01*
X187505303Y-107770000D01*
X191013000Y-107770000D01*
X191013000Y-114260000D01*
X191015440Y-114284776D01*
X191022667Y-114308601D01*
X191034403Y-114330557D01*
X191050197Y-114349803D01*
X191069443Y-114365597D01*
X191091399Y-114377333D01*
X191115224Y-114384560D01*
X191140000Y-114387000D01*
X196311617Y-114387000D01*
X196316526Y-114391909D01*
X196486044Y-114505177D01*
X196674402Y-114583198D01*
X196874361Y-114622972D01*
X197078239Y-114622972D01*
X197278198Y-114583198D01*
X197466556Y-114505177D01*
X197636074Y-114391909D01*
X197643275Y-114384708D01*
X197644776Y-114384560D01*
X197668601Y-114377333D01*
X197690557Y-114365597D01*
X197709803Y-114349803D01*
X197725597Y-114330557D01*
X197737333Y-114308601D01*
X197744560Y-114284776D01*
X197744708Y-114283275D01*
X197780237Y-114247746D01*
X197893505Y-114078228D01*
X197971526Y-113889870D01*
X198011300Y-113689911D01*
X198011300Y-113486033D01*
X197971526Y-113286074D01*
X197913418Y-113145789D01*
X197957205Y-113080256D01*
X198035226Y-112891898D01*
X198075000Y-112691939D01*
X198075000Y-112585000D01*
X201006928Y-112585000D01*
X201010000Y-113124250D01*
X201168750Y-113283000D01*
X202343000Y-113283000D01*
X202343000Y-112108750D01*
X202184250Y-111950000D01*
X201645000Y-111946928D01*
X201520518Y-111959188D01*
X201400820Y-111995498D01*
X201290506Y-112054463D01*
X201193815Y-112133815D01*
X201114463Y-112230506D01*
X201055498Y-112340820D01*
X201019188Y-112460518D01*
X201006928Y-112585000D01*
X198075000Y-112585000D01*
X198075000Y-112488061D01*
X198035226Y-112288102D01*
X197957205Y-112099744D01*
X197843937Y-111930226D01*
X197747000Y-111833289D01*
X197747000Y-111275190D01*
X197857205Y-111110256D01*
X197935226Y-110921898D01*
X197975000Y-110721939D01*
X197975000Y-110518061D01*
X197935226Y-110318102D01*
X197857205Y-110129744D01*
X197747000Y-109964810D01*
X197747000Y-107770000D01*
X197744560Y-107745224D01*
X197737333Y-107721399D01*
X197725597Y-107699443D01*
X197709803Y-107680197D01*
X197690557Y-107664403D01*
X197668601Y-107652667D01*
X197644776Y-107645440D01*
X197620000Y-107643000D01*
X191140000Y-107643000D01*
X191115224Y-107645440D01*
X191091399Y-107652667D01*
X191069443Y-107664403D01*
X191050197Y-107680197D01*
X191034403Y-107699443D01*
X191022667Y-107721399D01*
X191015440Y-107745224D01*
X191013000Y-107770000D01*
X187505303Y-107770000D01*
X187501317Y-107258061D01*
X201005000Y-107258061D01*
X201005000Y-107461939D01*
X201044774Y-107661898D01*
X201122795Y-107850256D01*
X201236063Y-108019774D01*
X201380226Y-108163937D01*
X201549744Y-108277205D01*
X201738102Y-108355226D01*
X201938061Y-108395000D01*
X202141939Y-108395000D01*
X202341898Y-108355226D01*
X202530256Y-108277205D01*
X202699774Y-108163937D01*
X202843937Y-108019774D01*
X202957205Y-107850256D01*
X203035226Y-107661898D01*
X203036968Y-107653137D01*
X205915000Y-107653137D01*
X205915000Y-107866863D01*
X205956696Y-108076483D01*
X206038485Y-108273940D01*
X206157225Y-108451647D01*
X206308353Y-108602775D01*
X206486060Y-108721515D01*
X206683517Y-108803304D01*
X206893137Y-108845000D01*
X207106863Y-108845000D01*
X207316483Y-108803304D01*
X207513940Y-108721515D01*
X207691647Y-108602775D01*
X207842775Y-108451647D01*
X207961515Y-108273940D01*
X208043304Y-108076483D01*
X208085000Y-107866863D01*
X208085000Y-107653137D01*
X208043304Y-107443517D01*
X207961515Y-107246060D01*
X207842775Y-107068353D01*
X207691647Y-106917225D01*
X207513940Y-106798485D01*
X207316483Y-106716696D01*
X207106863Y-106675000D01*
X206893137Y-106675000D01*
X206683517Y-106716696D01*
X206486060Y-106798485D01*
X206308353Y-106917225D01*
X206157225Y-107068353D01*
X206038485Y-107246060D01*
X205956696Y-107443517D01*
X205915000Y-107653137D01*
X203036968Y-107653137D01*
X203075000Y-107461939D01*
X203075000Y-107258061D01*
X203035226Y-107058102D01*
X202957205Y-106869744D01*
X202843937Y-106700226D01*
X202727296Y-106583585D01*
X202859064Y-106451816D01*
X202972332Y-106282298D01*
X203050353Y-106093940D01*
X203090127Y-105893981D01*
X203090127Y-105690103D01*
X203050353Y-105490144D01*
X202972332Y-105301786D01*
X202859064Y-105132268D01*
X202714901Y-104988105D01*
X202545383Y-104874837D01*
X202357025Y-104796816D01*
X202157066Y-104757042D01*
X201953188Y-104757042D01*
X201753229Y-104796816D01*
X201564871Y-104874837D01*
X201395353Y-104988105D01*
X201251190Y-105132268D01*
X201137922Y-105301786D01*
X201059901Y-105490144D01*
X201020127Y-105690103D01*
X201020127Y-105893981D01*
X201059901Y-106093940D01*
X201137922Y-106282298D01*
X201251190Y-106451816D01*
X201367832Y-106568458D01*
X201236063Y-106700226D01*
X201122795Y-106869744D01*
X201044774Y-107058102D01*
X201005000Y-107258061D01*
X187501317Y-107258061D01*
X187359284Y-89018061D01*
X189705000Y-89018061D01*
X189705000Y-89221939D01*
X189744774Y-89421898D01*
X189822795Y-89610256D01*
X189936063Y-89779774D01*
X190080226Y-89923937D01*
X190249744Y-90037205D01*
X190438102Y-90115226D01*
X190638061Y-90155000D01*
X190841939Y-90155000D01*
X190999222Y-90123715D01*
X191014774Y-90201898D01*
X191092795Y-90390256D01*
X191206063Y-90559774D01*
X191350226Y-90703937D01*
X191519744Y-90817205D01*
X191708102Y-90895226D01*
X191908061Y-90935000D01*
X192111939Y-90935000D01*
X192311898Y-90895226D01*
X192500256Y-90817205D01*
X192669774Y-90703937D01*
X192813937Y-90559774D01*
X192927205Y-90390256D01*
X193005226Y-90201898D01*
X193045000Y-90001939D01*
X193045000Y-89798061D01*
X193005226Y-89598102D01*
X192927205Y-89409744D01*
X192879409Y-89338212D01*
X195665000Y-89338212D01*
X195665000Y-89561788D01*
X195708617Y-89781067D01*
X195794176Y-89987624D01*
X195918388Y-90173520D01*
X196076480Y-90331612D01*
X196262376Y-90455824D01*
X196468933Y-90541383D01*
X196688212Y-90585000D01*
X196911788Y-90585000D01*
X197131067Y-90541383D01*
X197337624Y-90455824D01*
X197523520Y-90331612D01*
X197681612Y-90173520D01*
X197805824Y-89987624D01*
X197891383Y-89781067D01*
X197935000Y-89561788D01*
X197935000Y-89338212D01*
X197891383Y-89118933D01*
X197805824Y-88912376D01*
X197681612Y-88726480D01*
X197523520Y-88568388D01*
X197337624Y-88444176D01*
X197131067Y-88358617D01*
X196911788Y-88315000D01*
X196688212Y-88315000D01*
X196468933Y-88358617D01*
X196262376Y-88444176D01*
X196076480Y-88568388D01*
X195918388Y-88726480D01*
X195794176Y-88912376D01*
X195708617Y-89118933D01*
X195665000Y-89338212D01*
X192879409Y-89338212D01*
X192813937Y-89240226D01*
X192669774Y-89096063D01*
X192622976Y-89064794D01*
X192821898Y-89025226D01*
X193010256Y-88947205D01*
X193179774Y-88833937D01*
X193323937Y-88689774D01*
X193437205Y-88520256D01*
X193515226Y-88331898D01*
X193555000Y-88131939D01*
X193555000Y-87948061D01*
X200364972Y-87948061D01*
X200364972Y-88151939D01*
X200404746Y-88351898D01*
X200482767Y-88540256D01*
X200596035Y-88709774D01*
X200740198Y-88853937D01*
X200909716Y-88967205D01*
X201098074Y-89045226D01*
X201298033Y-89085000D01*
X201501911Y-89085000D01*
X201701870Y-89045226D01*
X201890228Y-88967205D01*
X202059746Y-88853937D01*
X202203909Y-88709774D01*
X202317177Y-88540256D01*
X202395198Y-88351898D01*
X202434972Y-88151939D01*
X202434972Y-88065000D01*
X202621939Y-88065000D01*
X202821898Y-88025226D01*
X203010256Y-87947205D01*
X203179774Y-87833937D01*
X203323937Y-87689774D01*
X203437205Y-87520256D01*
X203515226Y-87331898D01*
X203555000Y-87131939D01*
X203555000Y-86928061D01*
X203515226Y-86728102D01*
X203437205Y-86539744D01*
X203323937Y-86370226D01*
X203179774Y-86226063D01*
X203010256Y-86112795D01*
X202821898Y-86034774D01*
X202621939Y-85995000D01*
X202418061Y-85995000D01*
X202218102Y-86034774D01*
X202029744Y-86112795D01*
X201860226Y-86226063D01*
X201716063Y-86370226D01*
X201602795Y-86539744D01*
X201524774Y-86728102D01*
X201485000Y-86928061D01*
X201485000Y-87015000D01*
X201298033Y-87015000D01*
X201098074Y-87054774D01*
X200909716Y-87132795D01*
X200740198Y-87246063D01*
X200596035Y-87390226D01*
X200482767Y-87559744D01*
X200404746Y-87748102D01*
X200364972Y-87948061D01*
X193555000Y-87948061D01*
X193555000Y-87928061D01*
X193515226Y-87728102D01*
X193437205Y-87539744D01*
X193323937Y-87370226D01*
X193179774Y-87226063D01*
X193010256Y-87112795D01*
X192821898Y-87034774D01*
X192621939Y-86995000D01*
X192418061Y-86995000D01*
X192218102Y-87034774D01*
X192029744Y-87112795D01*
X191860226Y-87226063D01*
X191716063Y-87370226D01*
X191602795Y-87539744D01*
X191524774Y-87728102D01*
X191485000Y-87928061D01*
X191485000Y-88131939D01*
X191524774Y-88331898D01*
X191602795Y-88520256D01*
X191716063Y-88689774D01*
X191860226Y-88833937D01*
X191907024Y-88865206D01*
X191750778Y-88896285D01*
X191735226Y-88818102D01*
X191657205Y-88629744D01*
X191543937Y-88460226D01*
X191399774Y-88316063D01*
X191230256Y-88202795D01*
X191041898Y-88124774D01*
X190841939Y-88085000D01*
X190638061Y-88085000D01*
X190438102Y-88124774D01*
X190249744Y-88202795D01*
X190080226Y-88316063D01*
X189936063Y-88460226D01*
X189822795Y-88629744D01*
X189744774Y-88818102D01*
X189705000Y-89018061D01*
X187359284Y-89018061D01*
X187356896Y-88711442D01*
X187378102Y-88720226D01*
X187578061Y-88760000D01*
X187781939Y-88760000D01*
X187981898Y-88720226D01*
X188170256Y-88642205D01*
X188339774Y-88528937D01*
X188483937Y-88384774D01*
X188597205Y-88215256D01*
X188675226Y-88026898D01*
X188715000Y-87826939D01*
X188715000Y-87623061D01*
X188675226Y-87423102D01*
X188597205Y-87234744D01*
X188483937Y-87065226D01*
X188339774Y-86921063D01*
X188170256Y-86807795D01*
X187981898Y-86729774D01*
X187781939Y-86690000D01*
X187578061Y-86690000D01*
X187378102Y-86729774D01*
X187341583Y-86744901D01*
X187317132Y-83604999D01*
X189805976Y-83604999D01*
X189798658Y-83622667D01*
X189758884Y-83822626D01*
X189758884Y-84026504D01*
X189798658Y-84226463D01*
X189876679Y-84414821D01*
X189989947Y-84584339D01*
X190134110Y-84728502D01*
X190303628Y-84841770D01*
X190491986Y-84919791D01*
X190691945Y-84959565D01*
X190895823Y-84959565D01*
X191095782Y-84919791D01*
X191284140Y-84841770D01*
X191453658Y-84728502D01*
X191593514Y-84588646D01*
X191626480Y-84621612D01*
X191812376Y-84745824D01*
X191916660Y-84789020D01*
X191913587Y-84791073D01*
X191769424Y-84935236D01*
X191656156Y-85104754D01*
X191578135Y-85293112D01*
X191538361Y-85493071D01*
X191538361Y-85696949D01*
X191578135Y-85896908D01*
X191656156Y-86085266D01*
X191769424Y-86254784D01*
X191913587Y-86398947D01*
X192083105Y-86512215D01*
X192271463Y-86590236D01*
X192471422Y-86630010D01*
X192675300Y-86630010D01*
X192875259Y-86590236D01*
X193063617Y-86512215D01*
X193233135Y-86398947D01*
X193377298Y-86254784D01*
X193490566Y-86085266D01*
X193568587Y-85896908D01*
X193608361Y-85696949D01*
X193608361Y-85493071D01*
X193568587Y-85293112D01*
X193490566Y-85104754D01*
X193377298Y-84935236D01*
X193233135Y-84791073D01*
X193063617Y-84677805D01*
X193017815Y-84658833D01*
X193073520Y-84621612D01*
X193231612Y-84463520D01*
X193355824Y-84277624D01*
X193441383Y-84071067D01*
X193485000Y-83851788D01*
X193485000Y-83628212D01*
X193480383Y-83604999D01*
X197879880Y-83604999D01*
X198094874Y-83819994D01*
X197938388Y-83976480D01*
X197814176Y-84162376D01*
X197728617Y-84368933D01*
X197685000Y-84588212D01*
X197685000Y-84811788D01*
X197728617Y-85031067D01*
X197814176Y-85237624D01*
X197867513Y-85317449D01*
X197844176Y-85352376D01*
X197758617Y-85558933D01*
X197715000Y-85778212D01*
X197715000Y-86001788D01*
X197758617Y-86221067D01*
X197844176Y-86427624D01*
X197968388Y-86613520D01*
X198126480Y-86771612D01*
X198312376Y-86895824D01*
X198518933Y-86981383D01*
X198738212Y-87025000D01*
X198961788Y-87025000D01*
X199181067Y-86981383D01*
X199387624Y-86895824D01*
X199573520Y-86771612D01*
X199731612Y-86613520D01*
X199855824Y-86427624D01*
X199941383Y-86221067D01*
X199985000Y-86001788D01*
X199985000Y-85778212D01*
X199941383Y-85558933D01*
X199855824Y-85352376D01*
X199802487Y-85272551D01*
X199825824Y-85237624D01*
X199911383Y-85031067D01*
X199955000Y-84811788D01*
X199955000Y-84588212D01*
X199916160Y-84392950D01*
X199943622Y-84378271D01*
X200116448Y-84236436D01*
X200258283Y-84063610D01*
X200363675Y-83866434D01*
X200428576Y-83652486D01*
X200450490Y-83429987D01*
X200428576Y-83207488D01*
X200363675Y-82993540D01*
X200258283Y-82796364D01*
X200151988Y-82666844D01*
X199555543Y-82070400D01*
X203832526Y-82070400D01*
X203742587Y-82160339D01*
G37*
G04 #@! TD.AperFunction*
D23*
X186632652Y-97959864D02*
X186573001Y-118529632D01*
X186575369Y-118554415D01*
X186582527Y-118578260D01*
X186594199Y-118600251D01*
X186609937Y-118619542D01*
X186629137Y-118635392D01*
X186651059Y-118647191D01*
X186674862Y-118654487D01*
X186699897Y-118657000D01*
X193200022Y-118662263D01*
X193175000Y-118788061D01*
X193175000Y-118991939D01*
X193214774Y-119191898D01*
X193292795Y-119380256D01*
X193406063Y-119549774D01*
X193550226Y-119693937D01*
X193719744Y-119807205D01*
X193908102Y-119885226D01*
X194108061Y-119925000D01*
X194311939Y-119925000D01*
X194511898Y-119885226D01*
X194700256Y-119807205D01*
X194869774Y-119693937D01*
X195013937Y-119549774D01*
X195127205Y-119380256D01*
X195205226Y-119191898D01*
X195245000Y-118991939D01*
X195245000Y-118788061D01*
X195220303Y-118663899D01*
X198927092Y-118666901D01*
X198973194Y-120073000D01*
X198946091Y-120073000D01*
X198925226Y-119968102D01*
X198847205Y-119779744D01*
X198733937Y-119610226D01*
X198589774Y-119466063D01*
X198420256Y-119352795D01*
X198231898Y-119274774D01*
X198031939Y-119235000D01*
X197828061Y-119235000D01*
X197628102Y-119274774D01*
X197439744Y-119352795D01*
X197270226Y-119466063D01*
X197126063Y-119610226D01*
X197012795Y-119779744D01*
X196934774Y-119968102D01*
X196913909Y-120073000D01*
X196800000Y-120073000D01*
X196775224Y-120075440D01*
X196751399Y-120082667D01*
X196729443Y-120094403D01*
X196710197Y-120110197D01*
X196694403Y-120129443D01*
X196682667Y-120151399D01*
X196675440Y-120175224D01*
X196673000Y-120200000D01*
X196673000Y-122082728D01*
X196597205Y-121899744D01*
X196483937Y-121730226D01*
X196339774Y-121586063D01*
X196170256Y-121472795D01*
X195981898Y-121394774D01*
X195781939Y-121355000D01*
X195578061Y-121355000D01*
X195378102Y-121394774D01*
X195189744Y-121472795D01*
X195020226Y-121586063D01*
X194876063Y-121730226D01*
X194762795Y-121899744D01*
X194684774Y-122088102D01*
X194645000Y-122288061D01*
X194645000Y-122491939D01*
X194684774Y-122691898D01*
X194762795Y-122880256D01*
X194876063Y-123049774D01*
X195020226Y-123193937D01*
X195189744Y-123307205D01*
X195378102Y-123385226D01*
X195578061Y-123425000D01*
X195781939Y-123425000D01*
X195981898Y-123385226D01*
X196170256Y-123307205D01*
X196339774Y-123193937D01*
X196483937Y-123049774D01*
X196597205Y-122880256D01*
X196673000Y-122697272D01*
X196673000Y-124398083D01*
X196590256Y-124342795D01*
X196401898Y-124264774D01*
X196201939Y-124225000D01*
X195998061Y-124225000D01*
X195798102Y-124264774D01*
X195609744Y-124342795D01*
X195440226Y-124456063D01*
X195296063Y-124600226D01*
X195182795Y-124769744D01*
X195104774Y-124958102D01*
X195065000Y-125158061D01*
X195065000Y-125361939D01*
X195104774Y-125561898D01*
X195182795Y-125750256D01*
X195296063Y-125919774D01*
X195440226Y-126063937D01*
X195609744Y-126177205D01*
X195798102Y-126255226D01*
X195998061Y-126295000D01*
X196201939Y-126295000D01*
X196401898Y-126255226D01*
X196590256Y-126177205D01*
X196759774Y-126063937D01*
X196903937Y-125919774D01*
X197017205Y-125750256D01*
X197095226Y-125561898D01*
X197129534Y-125389418D01*
X198939896Y-125402681D01*
X198908644Y-131473400D01*
X197420311Y-131473400D01*
X197553937Y-131339774D01*
X197667205Y-131170256D01*
X197745226Y-130981898D01*
X197785000Y-130781939D01*
X197785000Y-130578061D01*
X197745226Y-130378102D01*
X197667205Y-130189744D01*
X197553937Y-130020226D01*
X197409774Y-129876063D01*
X197240256Y-129762795D01*
X197051898Y-129684774D01*
X196851939Y-129645000D01*
X196648061Y-129645000D01*
X196448102Y-129684774D01*
X196259744Y-129762795D01*
X196090226Y-129876063D01*
X195946063Y-130020226D01*
X195832795Y-130189744D01*
X195754774Y-130378102D01*
X195715000Y-130578061D01*
X195715000Y-130781939D01*
X195754774Y-130981898D01*
X195832795Y-131170256D01*
X195946063Y-131339774D01*
X196079689Y-131473400D01*
X188971695Y-131473400D01*
X189007205Y-131420256D01*
X189085226Y-131231898D01*
X189125000Y-131031939D01*
X189125000Y-130828061D01*
X189085226Y-130628102D01*
X189007205Y-130439744D01*
X188893937Y-130270226D01*
X188749774Y-130126063D01*
X188692900Y-130088061D01*
X190485000Y-130088061D01*
X190485000Y-130291939D01*
X190524774Y-130491898D01*
X190602795Y-130680256D01*
X190716063Y-130849774D01*
X190860226Y-130993937D01*
X191029744Y-131107205D01*
X191218102Y-131185226D01*
X191418061Y-131225000D01*
X191621939Y-131225000D01*
X191821898Y-131185226D01*
X192010256Y-131107205D01*
X192179774Y-130993937D01*
X192323937Y-130849774D01*
X192437205Y-130680256D01*
X192515226Y-130491898D01*
X192555000Y-130291939D01*
X192555000Y-130088061D01*
X192515226Y-129888102D01*
X192437205Y-129699744D01*
X192323937Y-129530226D01*
X192179774Y-129386063D01*
X192010256Y-129272795D01*
X191821898Y-129194774D01*
X191621939Y-129155000D01*
X191418061Y-129155000D01*
X191218102Y-129194774D01*
X191029744Y-129272795D01*
X190860226Y-129386063D01*
X190716063Y-129530226D01*
X190602795Y-129699744D01*
X190524774Y-129888102D01*
X190485000Y-130088061D01*
X188692900Y-130088061D01*
X188580256Y-130012795D01*
X188391898Y-129934774D01*
X188191939Y-129895000D01*
X187988061Y-129895000D01*
X187788102Y-129934774D01*
X187599744Y-130012795D01*
X187430226Y-130126063D01*
X187286063Y-130270226D01*
X187172795Y-130439744D01*
X187094774Y-130628102D01*
X187055000Y-130828061D01*
X187055000Y-131031939D01*
X187094774Y-131231898D01*
X187172795Y-131420256D01*
X187208305Y-131473400D01*
X138013795Y-131473400D01*
X138084338Y-129838061D01*
X167435002Y-129838061D01*
X167435002Y-130041939D01*
X167474776Y-130241898D01*
X167552797Y-130430256D01*
X167666065Y-130599774D01*
X167810228Y-130743937D01*
X167979746Y-130857205D01*
X168168104Y-130935226D01*
X168368063Y-130975000D01*
X168571941Y-130975000D01*
X168771900Y-130935226D01*
X168960258Y-130857205D01*
X169129776Y-130743937D01*
X169273939Y-130599774D01*
X169387207Y-130430256D01*
X169465228Y-130241898D01*
X169505002Y-130041939D01*
X169505002Y-129838061D01*
X169465228Y-129638102D01*
X169387207Y-129449744D01*
X169379401Y-129438061D01*
X183325000Y-129438061D01*
X183325000Y-129641939D01*
X183364774Y-129841898D01*
X183442795Y-130030256D01*
X183556063Y-130199774D01*
X183700226Y-130343937D01*
X183869744Y-130457205D01*
X184058102Y-130535226D01*
X184258061Y-130575000D01*
X184461939Y-130575000D01*
X184661898Y-130535226D01*
X184850256Y-130457205D01*
X185019774Y-130343937D01*
X185163937Y-130199774D01*
X185277205Y-130030256D01*
X185355226Y-129841898D01*
X185395000Y-129641939D01*
X185395000Y-129438061D01*
X185355226Y-129238102D01*
X185277205Y-129049744D01*
X185163937Y-128880226D01*
X185019774Y-128736063D01*
X184850256Y-128622795D01*
X184661898Y-128544774D01*
X184461939Y-128505000D01*
X184258061Y-128505000D01*
X184058102Y-128544774D01*
X183869744Y-128622795D01*
X183700226Y-128736063D01*
X183556063Y-128880226D01*
X183442795Y-129049744D01*
X183364774Y-129238102D01*
X183325000Y-129438061D01*
X169379401Y-129438061D01*
X169273939Y-129280226D01*
X169129776Y-129136063D01*
X168960258Y-129022795D01*
X168771900Y-128944774D01*
X168571941Y-128905000D01*
X168368063Y-128905000D01*
X168168104Y-128944774D01*
X167979746Y-129022795D01*
X167810228Y-129136063D01*
X167666065Y-129280226D01*
X167552797Y-129449744D01*
X167474776Y-129638102D01*
X167435002Y-129838061D01*
X138084338Y-129838061D01*
X138174064Y-127758061D01*
X164975000Y-127758061D01*
X164975000Y-127961939D01*
X165014774Y-128161898D01*
X165092795Y-128350256D01*
X165206063Y-128519774D01*
X165350226Y-128663937D01*
X165519744Y-128777205D01*
X165708102Y-128855226D01*
X165908061Y-128895000D01*
X166111939Y-128895000D01*
X166311898Y-128855226D01*
X166500256Y-128777205D01*
X166669774Y-128663937D01*
X166813937Y-128519774D01*
X166927205Y-128350256D01*
X167005226Y-128161898D01*
X167045000Y-127961939D01*
X167045000Y-127758061D01*
X167005226Y-127558102D01*
X166927205Y-127369744D01*
X166813937Y-127200226D01*
X166669774Y-127056063D01*
X166500256Y-126942795D01*
X166311898Y-126864774D01*
X166111939Y-126825000D01*
X165908061Y-126825000D01*
X165708102Y-126864774D01*
X165519744Y-126942795D01*
X165350226Y-127056063D01*
X165206063Y-127200226D01*
X165092795Y-127369744D01*
X165014774Y-127558102D01*
X164975000Y-127758061D01*
X138174064Y-127758061D01*
X138211658Y-126886567D01*
X145109702Y-126862002D01*
X155144347Y-126947436D01*
X155182795Y-127040256D01*
X155296063Y-127209774D01*
X155440226Y-127353937D01*
X155609744Y-127467205D01*
X155798102Y-127545226D01*
X155998061Y-127585000D01*
X156201939Y-127585000D01*
X156401898Y-127545226D01*
X156590256Y-127467205D01*
X156759774Y-127353937D01*
X156903937Y-127209774D01*
X157017205Y-127040256D01*
X157048936Y-126963652D01*
X164488919Y-127026995D01*
X164513715Y-127024766D01*
X164537600Y-127017742D01*
X164559656Y-127006194D01*
X164579035Y-126990564D01*
X164594992Y-126971454D01*
X164606915Y-126949598D01*
X164614344Y-126925836D01*
X164616999Y-126899423D01*
X164606114Y-124504763D01*
X164745561Y-124532500D01*
X164847221Y-124532500D01*
X164927753Y-124575546D01*
X165071014Y-124619003D01*
X165220000Y-124633677D01*
X165257333Y-124630000D01*
X172280310Y-124630000D01*
X172243769Y-125845000D01*
X172048061Y-125845000D01*
X171848102Y-125884774D01*
X171659744Y-125962795D01*
X171490226Y-126076063D01*
X171346063Y-126220226D01*
X171232795Y-126389744D01*
X171154774Y-126578102D01*
X171115000Y-126778061D01*
X171115000Y-126981939D01*
X171154774Y-127181898D01*
X171232795Y-127370256D01*
X171346063Y-127539774D01*
X171490226Y-127683937D01*
X171659744Y-127797205D01*
X171848102Y-127875226D01*
X172048061Y-127915000D01*
X172251939Y-127915000D01*
X172451898Y-127875226D01*
X172640256Y-127797205D01*
X172807447Y-127685492D01*
X173409361Y-128467465D01*
X173421196Y-128480790D01*
X173440615Y-128496370D01*
X173462700Y-128507863D01*
X173486602Y-128514826D01*
X173511404Y-128516992D01*
X176676404Y-128481992D01*
X176699318Y-128479650D01*
X176723169Y-128472511D01*
X176745168Y-128460856D01*
X176764471Y-128445133D01*
X176780336Y-128425946D01*
X176792153Y-128404032D01*
X176799468Y-128380235D01*
X176801999Y-128355467D01*
X176804639Y-127638061D01*
X181545000Y-127638061D01*
X181545000Y-127841939D01*
X181584774Y-128041898D01*
X181662795Y-128230256D01*
X181776063Y-128399774D01*
X181920226Y-128543937D01*
X182089744Y-128657205D01*
X182278102Y-128735226D01*
X182478061Y-128775000D01*
X182681939Y-128775000D01*
X182881898Y-128735226D01*
X183070256Y-128657205D01*
X183239774Y-128543937D01*
X183383937Y-128399774D01*
X183497205Y-128230256D01*
X183575226Y-128041898D01*
X183615000Y-127841939D01*
X183615000Y-127838061D01*
X187065000Y-127838061D01*
X187065000Y-128041939D01*
X187104774Y-128241898D01*
X187182795Y-128430256D01*
X187296063Y-128599774D01*
X187440226Y-128743937D01*
X187609744Y-128857205D01*
X187798102Y-128935226D01*
X187998061Y-128975000D01*
X188201939Y-128975000D01*
X188401898Y-128935226D01*
X188590256Y-128857205D01*
X188759774Y-128743937D01*
X188903937Y-128599774D01*
X189017205Y-128430256D01*
X189095226Y-128241898D01*
X189135000Y-128041939D01*
X189135000Y-127838061D01*
X189095226Y-127638102D01*
X189017205Y-127449744D01*
X188910856Y-127290581D01*
X192015150Y-127290581D01*
X192015150Y-127494459D01*
X192054924Y-127694418D01*
X192132945Y-127882776D01*
X192246213Y-128052294D01*
X192390376Y-128196457D01*
X192559894Y-128309725D01*
X192748252Y-128387746D01*
X192948211Y-128427520D01*
X193152089Y-128427520D01*
X193352048Y-128387746D01*
X193540406Y-128309725D01*
X193709924Y-128196457D01*
X193848320Y-128058061D01*
X194205000Y-128058061D01*
X194205000Y-128261939D01*
X194244774Y-128461898D01*
X194322795Y-128650256D01*
X194436063Y-128819774D01*
X194580226Y-128963937D01*
X194749744Y-129077205D01*
X194938102Y-129155226D01*
X195138061Y-129195000D01*
X195341939Y-129195000D01*
X195541898Y-129155226D01*
X195730256Y-129077205D01*
X195899774Y-128963937D01*
X196043937Y-128819774D01*
X196157205Y-128650256D01*
X196235226Y-128461898D01*
X196275000Y-128261939D01*
X196275000Y-128058061D01*
X196235226Y-127858102D01*
X196157205Y-127669744D01*
X196043937Y-127500226D01*
X195899774Y-127356063D01*
X195730256Y-127242795D01*
X195541898Y-127164774D01*
X195341939Y-127125000D01*
X195138061Y-127125000D01*
X194938102Y-127164774D01*
X194749744Y-127242795D01*
X194580226Y-127356063D01*
X194436063Y-127500226D01*
X194322795Y-127669744D01*
X194244774Y-127858102D01*
X194205000Y-128058061D01*
X193848320Y-128058061D01*
X193854087Y-128052294D01*
X193967355Y-127882776D01*
X194045376Y-127694418D01*
X194085150Y-127494459D01*
X194085150Y-127290581D01*
X194045376Y-127090622D01*
X193967355Y-126902264D01*
X193854087Y-126732746D01*
X193709924Y-126588583D01*
X193540406Y-126475315D01*
X193352048Y-126397294D01*
X193152089Y-126357520D01*
X192948211Y-126357520D01*
X192748252Y-126397294D01*
X192559894Y-126475315D01*
X192390376Y-126588583D01*
X192246213Y-126732746D01*
X192132945Y-126902264D01*
X192054924Y-127090622D01*
X192015150Y-127290581D01*
X188910856Y-127290581D01*
X188903937Y-127280226D01*
X188759774Y-127136063D01*
X188590256Y-127022795D01*
X188401898Y-126944774D01*
X188201939Y-126905000D01*
X187998061Y-126905000D01*
X187798102Y-126944774D01*
X187609744Y-127022795D01*
X187440226Y-127136063D01*
X187296063Y-127280226D01*
X187182795Y-127449744D01*
X187104774Y-127638102D01*
X187065000Y-127838061D01*
X183615000Y-127838061D01*
X183615000Y-127638061D01*
X183575226Y-127438102D01*
X183497205Y-127249744D01*
X183383937Y-127080226D01*
X183239774Y-126936063D01*
X183070256Y-126822795D01*
X182881898Y-126744774D01*
X182681939Y-126705000D01*
X182478061Y-126705000D01*
X182278102Y-126744774D01*
X182089744Y-126822795D01*
X181920226Y-126936063D01*
X181776063Y-127080226D01*
X181662795Y-127249744D01*
X181584774Y-127438102D01*
X181545000Y-127638061D01*
X176804639Y-127638061D01*
X176815712Y-124630000D01*
X182706604Y-124630000D01*
X182705000Y-124638063D01*
X182705000Y-124841941D01*
X182744774Y-125041900D01*
X182822795Y-125230258D01*
X182936063Y-125399776D01*
X183080226Y-125543939D01*
X183249744Y-125657207D01*
X183438102Y-125735228D01*
X183638061Y-125775002D01*
X183841939Y-125775002D01*
X184041898Y-125735228D01*
X184230256Y-125657207D01*
X184399774Y-125543939D01*
X184543937Y-125399776D01*
X184657205Y-125230258D01*
X184735226Y-125041900D01*
X184762493Y-124904818D01*
X184763410Y-124905000D01*
X184967288Y-124905000D01*
X185167247Y-124865226D01*
X185355605Y-124787205D01*
X185502727Y-124688901D01*
X185494774Y-124708102D01*
X185455000Y-124908061D01*
X185455000Y-125111939D01*
X185494774Y-125311898D01*
X185572795Y-125500256D01*
X185686063Y-125669774D01*
X185830226Y-125813937D01*
X185999744Y-125927205D01*
X186188102Y-126005226D01*
X186388061Y-126045000D01*
X186591939Y-126045000D01*
X186791898Y-126005226D01*
X186980256Y-125927205D01*
X187149774Y-125813937D01*
X187293937Y-125669774D01*
X187407205Y-125500256D01*
X187485226Y-125311898D01*
X187525000Y-125111939D01*
X187525000Y-124908061D01*
X187485226Y-124708102D01*
X187407205Y-124519744D01*
X187293937Y-124350226D01*
X187206772Y-124263061D01*
X191445000Y-124263061D01*
X191445000Y-124466939D01*
X191484774Y-124666898D01*
X191562795Y-124855256D01*
X191676063Y-125024774D01*
X191820226Y-125168937D01*
X191989744Y-125282205D01*
X192178102Y-125360226D01*
X192378061Y-125400000D01*
X192581939Y-125400000D01*
X192781898Y-125360226D01*
X192970256Y-125282205D01*
X193139774Y-125168937D01*
X193283937Y-125024774D01*
X193397205Y-124855256D01*
X193475226Y-124666898D01*
X193515000Y-124466939D01*
X193515000Y-124263061D01*
X193475226Y-124063102D01*
X193397205Y-123874744D01*
X193283937Y-123705226D01*
X193139774Y-123561063D01*
X192970256Y-123447795D01*
X192781898Y-123369774D01*
X192581939Y-123330000D01*
X192378061Y-123330000D01*
X192178102Y-123369774D01*
X191989744Y-123447795D01*
X191820226Y-123561063D01*
X191676063Y-123705226D01*
X191562795Y-123874744D01*
X191484774Y-124063102D01*
X191445000Y-124263061D01*
X187206772Y-124263061D01*
X187149774Y-124206063D01*
X186980256Y-124092795D01*
X186791898Y-124014774D01*
X186591939Y-123975000D01*
X186388061Y-123975000D01*
X186188102Y-124014774D01*
X185999744Y-124092795D01*
X185852622Y-124191099D01*
X185860575Y-124171898D01*
X185900349Y-123971939D01*
X185900349Y-123768061D01*
X185860575Y-123568102D01*
X185782554Y-123379744D01*
X185669286Y-123210226D01*
X185525123Y-123066063D01*
X185355605Y-122952795D01*
X185167247Y-122874774D01*
X184967288Y-122835000D01*
X184763410Y-122835000D01*
X184563451Y-122874774D01*
X184375093Y-122952795D01*
X184328268Y-122984082D01*
X184300226Y-122843102D01*
X184222205Y-122654744D01*
X184108937Y-122485226D01*
X183964774Y-122341063D01*
X183795256Y-122227795D01*
X183606898Y-122149774D01*
X183406939Y-122110000D01*
X183203061Y-122110000D01*
X183003102Y-122149774D01*
X182814744Y-122227795D01*
X182645226Y-122341063D01*
X182601289Y-122385000D01*
X178900971Y-122385000D01*
X179029774Y-122298937D01*
X179173937Y-122154774D01*
X179287205Y-121985256D01*
X179365226Y-121796898D01*
X179405000Y-121596939D01*
X179405000Y-121393061D01*
X179365226Y-121193102D01*
X179287205Y-121004744D01*
X179173937Y-120835226D01*
X179045867Y-120707156D01*
X179077205Y-120660256D01*
X179155226Y-120471898D01*
X179166751Y-120413956D01*
X179218102Y-120435226D01*
X179418061Y-120475000D01*
X179621939Y-120475000D01*
X179821898Y-120435226D01*
X180010256Y-120357205D01*
X180179774Y-120243937D01*
X180323937Y-120099774D01*
X180437205Y-119930256D01*
X180515226Y-119741898D01*
X180555000Y-119541939D01*
X180555000Y-119338061D01*
X180515226Y-119138102D01*
X180437205Y-118949744D01*
X180323937Y-118780226D01*
X180179774Y-118636063D01*
X180010256Y-118522795D01*
X179821898Y-118444774D01*
X179621939Y-118405000D01*
X179418061Y-118405000D01*
X179218102Y-118444774D01*
X179145133Y-118474999D01*
X177649321Y-118474999D01*
X177611998Y-118471323D01*
X177574675Y-118474999D01*
X177574666Y-118474999D01*
X177463013Y-118485996D01*
X177319752Y-118529453D01*
X177187723Y-118600025D01*
X177085824Y-118683651D01*
X176770043Y-118683651D01*
X176764291Y-117998114D01*
X183644475Y-117998114D01*
X183644475Y-118201992D01*
X183684249Y-118401951D01*
X183762270Y-118590309D01*
X183875538Y-118759827D01*
X184019701Y-118903990D01*
X184189219Y-119017258D01*
X184377577Y-119095279D01*
X184577536Y-119135053D01*
X184781414Y-119135053D01*
X184981373Y-119095279D01*
X185169731Y-119017258D01*
X185339249Y-118903990D01*
X185483412Y-118759827D01*
X185596680Y-118590309D01*
X185674701Y-118401951D01*
X185714475Y-118201992D01*
X185714475Y-117998114D01*
X185674701Y-117798155D01*
X185596680Y-117609797D01*
X185483412Y-117440279D01*
X185339249Y-117296116D01*
X185169731Y-117182848D01*
X184981373Y-117104827D01*
X184781414Y-117065053D01*
X184577536Y-117065053D01*
X184377577Y-117104827D01*
X184189219Y-117182848D01*
X184019701Y-117296116D01*
X183875538Y-117440279D01*
X183762270Y-117609797D01*
X183684249Y-117798155D01*
X183644475Y-117998114D01*
X176764291Y-117998114D01*
X176758067Y-117256565D01*
X182510432Y-117236999D01*
X182536490Y-117234207D01*
X182560213Y-117226652D01*
X182582006Y-117214614D01*
X182601031Y-117198557D01*
X183394144Y-116383282D01*
X183519744Y-116467205D01*
X183708102Y-116545226D01*
X183908061Y-116585000D01*
X184111939Y-116585000D01*
X184311898Y-116545226D01*
X184500256Y-116467205D01*
X184669774Y-116353937D01*
X184813937Y-116209774D01*
X184927205Y-116040256D01*
X185005226Y-115851898D01*
X185045000Y-115651939D01*
X185045000Y-115448061D01*
X185005226Y-115248102D01*
X184927205Y-115059744D01*
X184827241Y-114910137D01*
X185106031Y-114623557D01*
X185122383Y-114602807D01*
X185133549Y-114580555D01*
X185140158Y-114556552D01*
X185141958Y-114531721D01*
X185071958Y-111821721D01*
X185069913Y-111802071D01*
X185063040Y-111778143D01*
X185051630Y-111756015D01*
X185036123Y-111736538D01*
X185017114Y-111720460D01*
X184995334Y-111708400D01*
X184971619Y-111700821D01*
X184946881Y-111698014D01*
X184922071Y-111700087D01*
X184898143Y-111706960D01*
X184876015Y-111718370D01*
X184856538Y-111733877D01*
X182075994Y-114433237D01*
X182053937Y-114400226D01*
X181909774Y-114256063D01*
X181740256Y-114142795D01*
X181551898Y-114064774D01*
X181351939Y-114025000D01*
X181148061Y-114025000D01*
X180948102Y-114064774D01*
X180759744Y-114142795D01*
X180590226Y-114256063D01*
X180446063Y-114400226D01*
X180332795Y-114569744D01*
X180254774Y-114758102D01*
X180215000Y-114958061D01*
X180215000Y-115031663D01*
X175548514Y-115062649D01*
X175548514Y-114730544D01*
X175608102Y-114755226D01*
X175808061Y-114795000D01*
X176011939Y-114795000D01*
X176211898Y-114755226D01*
X176400256Y-114677205D01*
X176569774Y-114563937D01*
X176713937Y-114419774D01*
X176827205Y-114250256D01*
X176905226Y-114061898D01*
X176945000Y-113861939D01*
X176945000Y-113658061D01*
X176905226Y-113458102D01*
X176827205Y-113269744D01*
X176713937Y-113100226D01*
X176569774Y-112956063D01*
X176400256Y-112842795D01*
X176211898Y-112764774D01*
X176011939Y-112725000D01*
X175808061Y-112725000D01*
X175608102Y-112764774D01*
X175549296Y-112789132D01*
X175548514Y-112781190D01*
X175548514Y-112781181D01*
X175537517Y-112669528D01*
X175494060Y-112526267D01*
X175473638Y-112488061D01*
X175423488Y-112394237D01*
X175352313Y-112307511D01*
X175328515Y-112278513D01*
X175299516Y-112254715D01*
X175115000Y-112070198D01*
X175115000Y-112008061D01*
X175075226Y-111808102D01*
X174997205Y-111619744D01*
X174883937Y-111450226D01*
X174739774Y-111306063D01*
X174570256Y-111192795D01*
X174381898Y-111114774D01*
X174181939Y-111075000D01*
X173978061Y-111075000D01*
X173778102Y-111114774D01*
X173589744Y-111192795D01*
X173420226Y-111306063D01*
X173276063Y-111450226D01*
X173162795Y-111619744D01*
X173084774Y-111808102D01*
X173045000Y-112008061D01*
X173045000Y-112211939D01*
X173084774Y-112411898D01*
X173162795Y-112600256D01*
X173276063Y-112769774D01*
X173420226Y-112913937D01*
X173589744Y-113027205D01*
X173778102Y-113105226D01*
X173978061Y-113145000D01*
X174028515Y-113145000D01*
X174028515Y-113252275D01*
X173991939Y-113245000D01*
X173788061Y-113245000D01*
X173588102Y-113284774D01*
X173399744Y-113362795D01*
X173230226Y-113476063D01*
X173086063Y-113620226D01*
X172972795Y-113789744D01*
X172894774Y-113978102D01*
X172855000Y-114178061D01*
X172855000Y-114381939D01*
X172894774Y-114581898D01*
X172972795Y-114770256D01*
X173086063Y-114939774D01*
X173230226Y-115083937D01*
X173399744Y-115197205D01*
X173588102Y-115275226D01*
X173718309Y-115301126D01*
X170898034Y-118262414D01*
X170885671Y-118277582D01*
X170873547Y-118299327D01*
X170865899Y-118323019D01*
X170863020Y-118347749D01*
X170857064Y-118683651D01*
X170728452Y-118683651D01*
X170680000Y-118635199D01*
X170680000Y-115757323D01*
X170683676Y-115720000D01*
X170680000Y-115682677D01*
X170680000Y-115682667D01*
X170669003Y-115571014D01*
X170625546Y-115427753D01*
X170554974Y-115295724D01*
X170460001Y-115179999D01*
X170431003Y-115156201D01*
X169785000Y-114510199D01*
X169785000Y-114448061D01*
X169745226Y-114248102D01*
X169667205Y-114059744D01*
X169553937Y-113890226D01*
X169409774Y-113746063D01*
X169240256Y-113632795D01*
X169051898Y-113554774D01*
X168851939Y-113515000D01*
X168648061Y-113515000D01*
X168448102Y-113554774D01*
X168259744Y-113632795D01*
X168090226Y-113746063D01*
X167946063Y-113890226D01*
X167832795Y-114059744D01*
X167754774Y-114248102D01*
X167715000Y-114448061D01*
X167715000Y-114651939D01*
X167754774Y-114851898D01*
X167832795Y-115040256D01*
X167946063Y-115209774D01*
X168090226Y-115353937D01*
X168259744Y-115467205D01*
X168448102Y-115545226D01*
X168648061Y-115585000D01*
X168710199Y-115585000D01*
X169160001Y-116034803D01*
X169160000Y-118912677D01*
X169156324Y-118950000D01*
X169160000Y-118987322D01*
X169160000Y-118987332D01*
X169170997Y-119098985D01*
X169209435Y-119225700D01*
X169214454Y-119242246D01*
X169285026Y-119374276D01*
X169320080Y-119416989D01*
X169379999Y-119490001D01*
X169409003Y-119513804D01*
X169849847Y-119954648D01*
X169873650Y-119983652D01*
X169946797Y-120043682D01*
X169989374Y-120078625D01*
X170068648Y-120120998D01*
X170121404Y-120149197D01*
X170264665Y-120192654D01*
X170376318Y-120203651D01*
X170376328Y-120203651D01*
X170413651Y-120207327D01*
X170450974Y-120203651D01*
X170830114Y-120203651D01*
X170813020Y-121167749D01*
X170814200Y-121187419D01*
X170820016Y-121211627D01*
X170830442Y-121234235D01*
X170845079Y-121254374D01*
X170934525Y-121355001D01*
X164591797Y-121355001D01*
X164585539Y-119978061D01*
X167145000Y-119978061D01*
X167145000Y-120181939D01*
X167184774Y-120381898D01*
X167262795Y-120570256D01*
X167376063Y-120739774D01*
X167520226Y-120883937D01*
X167689744Y-120997205D01*
X167878102Y-121075226D01*
X168078061Y-121115000D01*
X168281939Y-121115000D01*
X168481898Y-121075226D01*
X168670256Y-120997205D01*
X168839774Y-120883937D01*
X168983937Y-120739774D01*
X169097205Y-120570256D01*
X169175226Y-120381898D01*
X169215000Y-120181939D01*
X169215000Y-119978061D01*
X169175226Y-119778102D01*
X169097205Y-119589744D01*
X168983937Y-119420226D01*
X168839774Y-119276063D01*
X168670256Y-119162795D01*
X168481898Y-119084774D01*
X168281939Y-119045000D01*
X168078061Y-119045000D01*
X167878102Y-119084774D01*
X167689744Y-119162795D01*
X167520226Y-119276063D01*
X167376063Y-119420226D01*
X167262795Y-119589744D01*
X167184774Y-119778102D01*
X167145000Y-119978061D01*
X164585539Y-119978061D01*
X164578001Y-118319824D01*
X165244933Y-118319824D01*
X165244933Y-118523702D01*
X165284707Y-118723661D01*
X165362728Y-118912019D01*
X165475996Y-119081537D01*
X165620159Y-119225700D01*
X165789677Y-119338968D01*
X165978035Y-119416989D01*
X166177994Y-119456763D01*
X166381872Y-119456763D01*
X166581831Y-119416989D01*
X166770189Y-119338968D01*
X166939707Y-119225700D01*
X167083870Y-119081537D01*
X167197138Y-118912019D01*
X167275159Y-118723661D01*
X167314933Y-118523702D01*
X167314933Y-118319824D01*
X167275159Y-118119865D01*
X167197138Y-117931507D01*
X167083870Y-117761989D01*
X166939707Y-117617826D01*
X166770189Y-117504558D01*
X166581831Y-117426537D01*
X166381872Y-117386763D01*
X166177994Y-117386763D01*
X165978035Y-117426537D01*
X165789677Y-117504558D01*
X165620159Y-117617826D01*
X165475996Y-117761989D01*
X165362728Y-117931507D01*
X165284707Y-118119865D01*
X165244933Y-118319824D01*
X164578001Y-118319824D01*
X164554226Y-113089350D01*
X166043068Y-111600509D01*
X166442300Y-111593989D01*
X166396063Y-111640226D01*
X166282795Y-111809744D01*
X166204774Y-111998102D01*
X166165000Y-112198061D01*
X166165000Y-112401939D01*
X166204774Y-112601898D01*
X166282795Y-112790256D01*
X166396063Y-112959774D01*
X166540226Y-113103937D01*
X166709744Y-113217205D01*
X166898102Y-113295226D01*
X167098061Y-113335000D01*
X167301939Y-113335000D01*
X167501898Y-113295226D01*
X167690256Y-113217205D01*
X167859774Y-113103937D01*
X168003937Y-112959774D01*
X168036298Y-112911342D01*
X168118102Y-112945226D01*
X168318061Y-112985000D01*
X168521939Y-112985000D01*
X168721898Y-112945226D01*
X168910256Y-112867205D01*
X169079774Y-112753937D01*
X169223937Y-112609774D01*
X169337205Y-112440256D01*
X169415226Y-112251898D01*
X169455000Y-112051939D01*
X169455000Y-111848061D01*
X169415226Y-111648102D01*
X169372986Y-111546126D01*
X170120045Y-111533926D01*
X170102790Y-111559749D01*
X170024769Y-111748107D01*
X169984995Y-111948066D01*
X169984995Y-112151944D01*
X170024769Y-112351903D01*
X170102790Y-112540261D01*
X170216058Y-112709779D01*
X170360221Y-112853942D01*
X170529739Y-112967210D01*
X170718097Y-113045231D01*
X170918056Y-113085005D01*
X171121934Y-113085005D01*
X171321893Y-113045231D01*
X171510251Y-112967210D01*
X171679769Y-112853942D01*
X171823932Y-112709779D01*
X171937200Y-112540261D01*
X172015221Y-112351903D01*
X172054995Y-112151944D01*
X172054995Y-111948066D01*
X172015221Y-111748107D01*
X171937200Y-111559749D01*
X171900516Y-111504848D01*
X172382074Y-111496983D01*
X172406807Y-111494139D01*
X172430510Y-111486523D01*
X172452272Y-111474430D01*
X172471257Y-111458324D01*
X172486735Y-111438824D01*
X172498111Y-111416678D01*
X172504948Y-111392739D01*
X172506923Y-111374417D01*
X172656923Y-107064417D01*
X172656970Y-107057232D01*
X172579573Y-103506625D01*
X173127852Y-103460852D01*
X175159284Y-105492284D01*
X175190130Y-105529870D01*
X175340116Y-105652960D01*
X175511233Y-105744424D01*
X175653691Y-105787638D01*
X175696905Y-105800747D01*
X175704299Y-105801475D01*
X175677660Y-105935401D01*
X175677660Y-106139279D01*
X175717434Y-106339238D01*
X175795455Y-106527596D01*
X175908723Y-106697114D01*
X175999444Y-106787835D01*
X175924774Y-106968102D01*
X175885000Y-107168061D01*
X175885000Y-107371939D01*
X175924774Y-107571898D01*
X175938021Y-107603879D01*
X175891898Y-107584774D01*
X175691939Y-107545000D01*
X175488061Y-107545000D01*
X175288102Y-107584774D01*
X175099744Y-107662795D01*
X174930226Y-107776063D01*
X174786063Y-107920226D01*
X174672795Y-108089744D01*
X174594774Y-108278102D01*
X174555000Y-108478061D01*
X174555000Y-108681939D01*
X174594774Y-108881898D01*
X174672795Y-109070256D01*
X174786063Y-109239774D01*
X174930226Y-109383937D01*
X175099744Y-109497205D01*
X175288102Y-109575226D01*
X175488061Y-109615000D01*
X175691939Y-109615000D01*
X175891898Y-109575226D01*
X176080256Y-109497205D01*
X176249774Y-109383937D01*
X176393937Y-109239774D01*
X176507205Y-109070256D01*
X176585226Y-108881898D01*
X176625000Y-108681939D01*
X176625000Y-108478061D01*
X176585226Y-108278102D01*
X176571979Y-108246121D01*
X176618102Y-108265226D01*
X176818061Y-108305000D01*
X177021939Y-108305000D01*
X177221898Y-108265226D01*
X177410256Y-108187205D01*
X177579774Y-108073937D01*
X177723937Y-107929774D01*
X177837205Y-107760256D01*
X177915226Y-107571898D01*
X177955000Y-107371939D01*
X177955000Y-107168711D01*
X178040226Y-107253937D01*
X178209744Y-107367205D01*
X178398102Y-107445226D01*
X178598061Y-107485000D01*
X178801939Y-107485000D01*
X179001898Y-107445226D01*
X179190256Y-107367205D01*
X179359774Y-107253937D01*
X179503937Y-107109774D01*
X179533111Y-107066112D01*
X182962570Y-110495571D01*
X182972795Y-110520256D01*
X183086063Y-110689774D01*
X183230226Y-110833937D01*
X183399744Y-110947205D01*
X183588102Y-111025226D01*
X183788061Y-111065000D01*
X183991939Y-111065000D01*
X184191898Y-111025226D01*
X184380256Y-110947205D01*
X184549774Y-110833937D01*
X184693937Y-110689774D01*
X184807205Y-110520256D01*
X184885226Y-110331898D01*
X184925000Y-110131939D01*
X184925000Y-109928061D01*
X184885226Y-109728102D01*
X184807205Y-109539744D01*
X184693937Y-109370226D01*
X184549774Y-109226063D01*
X184380256Y-109112795D01*
X184355571Y-109102570D01*
X181465887Y-106212887D01*
X181568102Y-106255226D01*
X181768061Y-106295000D01*
X181830199Y-106295000D01*
X182606201Y-107071003D01*
X182629999Y-107100001D01*
X182745724Y-107194974D01*
X182877753Y-107265546D01*
X183021014Y-107309003D01*
X183132667Y-107320000D01*
X183132675Y-107320000D01*
X183170000Y-107323676D01*
X183207325Y-107320000D01*
X183914776Y-107320000D01*
X184048102Y-107375226D01*
X184248061Y-107415000D01*
X184451939Y-107415000D01*
X184651898Y-107375226D01*
X184840256Y-107297205D01*
X185009774Y-107183937D01*
X185153937Y-107039774D01*
X185267205Y-106870256D01*
X185345226Y-106681898D01*
X185385000Y-106481939D01*
X185385000Y-106278061D01*
X185345226Y-106078102D01*
X185267205Y-105889744D01*
X185153937Y-105720226D01*
X185009774Y-105576063D01*
X184840256Y-105462795D01*
X184651898Y-105384774D01*
X184451939Y-105345000D01*
X184248061Y-105345000D01*
X184048102Y-105384774D01*
X183859744Y-105462795D01*
X183690226Y-105576063D01*
X183546063Y-105720226D01*
X183492760Y-105800000D01*
X183484802Y-105800000D01*
X182905000Y-105220199D01*
X182905000Y-105158061D01*
X182865226Y-104958102D01*
X182787205Y-104769744D01*
X182673937Y-104600226D01*
X182529774Y-104456063D01*
X182360256Y-104342795D01*
X182171898Y-104264774D01*
X181971939Y-104225000D01*
X181909802Y-104225000D01*
X179865919Y-102181118D01*
X179842116Y-102152114D01*
X179726391Y-102057141D01*
X179661847Y-102022641D01*
X180217000Y-101677889D01*
X180221444Y-101674999D01*
X180936841Y-101188221D01*
X180951898Y-101185226D01*
X181140256Y-101107205D01*
X181309774Y-100993937D01*
X181453937Y-100849774D01*
X181470356Y-100825200D01*
X181785777Y-100610579D01*
X182975000Y-101799803D01*
X182975000Y-101861939D01*
X183014774Y-102061898D01*
X183092795Y-102250256D01*
X183206063Y-102419774D01*
X183350226Y-102563937D01*
X183519744Y-102677205D01*
X183708102Y-102755226D01*
X183908061Y-102795000D01*
X184111939Y-102795000D01*
X184311898Y-102755226D01*
X184500256Y-102677205D01*
X184669774Y-102563937D01*
X184813937Y-102419774D01*
X184927205Y-102250256D01*
X185005226Y-102061898D01*
X185045000Y-101861939D01*
X185045000Y-101658061D01*
X185005226Y-101458102D01*
X184927205Y-101269744D01*
X184813937Y-101100226D01*
X184799805Y-101086094D01*
X184877205Y-100970256D01*
X184955226Y-100781898D01*
X184995000Y-100581939D01*
X184995000Y-100378061D01*
X184955226Y-100178102D01*
X184877205Y-99989744D01*
X184763937Y-99820226D01*
X184619774Y-99676063D01*
X184450256Y-99562795D01*
X184261898Y-99484774D01*
X184061939Y-99445000D01*
X183999802Y-99445000D01*
X183796930Y-99242128D01*
X185755767Y-97909275D01*
X186632652Y-97959864D01*
G04 #@! TA.AperFunction,Conductor*
D24*
G36*
X186632652Y-97959864D02*
G01*
X186573001Y-118529632D01*
X186575369Y-118554415D01*
X186582527Y-118578260D01*
X186594199Y-118600251D01*
X186609937Y-118619542D01*
X186629137Y-118635392D01*
X186651059Y-118647191D01*
X186674862Y-118654487D01*
X186699897Y-118657000D01*
X193200022Y-118662263D01*
X193175000Y-118788061D01*
X193175000Y-118991939D01*
X193214774Y-119191898D01*
X193292795Y-119380256D01*
X193406063Y-119549774D01*
X193550226Y-119693937D01*
X193719744Y-119807205D01*
X193908102Y-119885226D01*
X194108061Y-119925000D01*
X194311939Y-119925000D01*
X194511898Y-119885226D01*
X194700256Y-119807205D01*
X194869774Y-119693937D01*
X195013937Y-119549774D01*
X195127205Y-119380256D01*
X195205226Y-119191898D01*
X195245000Y-118991939D01*
X195245000Y-118788061D01*
X195220303Y-118663899D01*
X198927092Y-118666901D01*
X198973194Y-120073000D01*
X198946091Y-120073000D01*
X198925226Y-119968102D01*
X198847205Y-119779744D01*
X198733937Y-119610226D01*
X198589774Y-119466063D01*
X198420256Y-119352795D01*
X198231898Y-119274774D01*
X198031939Y-119235000D01*
X197828061Y-119235000D01*
X197628102Y-119274774D01*
X197439744Y-119352795D01*
X197270226Y-119466063D01*
X197126063Y-119610226D01*
X197012795Y-119779744D01*
X196934774Y-119968102D01*
X196913909Y-120073000D01*
X196800000Y-120073000D01*
X196775224Y-120075440D01*
X196751399Y-120082667D01*
X196729443Y-120094403D01*
X196710197Y-120110197D01*
X196694403Y-120129443D01*
X196682667Y-120151399D01*
X196675440Y-120175224D01*
X196673000Y-120200000D01*
X196673000Y-122082728D01*
X196597205Y-121899744D01*
X196483937Y-121730226D01*
X196339774Y-121586063D01*
X196170256Y-121472795D01*
X195981898Y-121394774D01*
X195781939Y-121355000D01*
X195578061Y-121355000D01*
X195378102Y-121394774D01*
X195189744Y-121472795D01*
X195020226Y-121586063D01*
X194876063Y-121730226D01*
X194762795Y-121899744D01*
X194684774Y-122088102D01*
X194645000Y-122288061D01*
X194645000Y-122491939D01*
X194684774Y-122691898D01*
X194762795Y-122880256D01*
X194876063Y-123049774D01*
X195020226Y-123193937D01*
X195189744Y-123307205D01*
X195378102Y-123385226D01*
X195578061Y-123425000D01*
X195781939Y-123425000D01*
X195981898Y-123385226D01*
X196170256Y-123307205D01*
X196339774Y-123193937D01*
X196483937Y-123049774D01*
X196597205Y-122880256D01*
X196673000Y-122697272D01*
X196673000Y-124398083D01*
X196590256Y-124342795D01*
X196401898Y-124264774D01*
X196201939Y-124225000D01*
X195998061Y-124225000D01*
X195798102Y-124264774D01*
X195609744Y-124342795D01*
X195440226Y-124456063D01*
X195296063Y-124600226D01*
X195182795Y-124769744D01*
X195104774Y-124958102D01*
X195065000Y-125158061D01*
X195065000Y-125361939D01*
X195104774Y-125561898D01*
X195182795Y-125750256D01*
X195296063Y-125919774D01*
X195440226Y-126063937D01*
X195609744Y-126177205D01*
X195798102Y-126255226D01*
X195998061Y-126295000D01*
X196201939Y-126295000D01*
X196401898Y-126255226D01*
X196590256Y-126177205D01*
X196759774Y-126063937D01*
X196903937Y-125919774D01*
X197017205Y-125750256D01*
X197095226Y-125561898D01*
X197129534Y-125389418D01*
X198939896Y-125402681D01*
X198908644Y-131473400D01*
X197420311Y-131473400D01*
X197553937Y-131339774D01*
X197667205Y-131170256D01*
X197745226Y-130981898D01*
X197785000Y-130781939D01*
X197785000Y-130578061D01*
X197745226Y-130378102D01*
X197667205Y-130189744D01*
X197553937Y-130020226D01*
X197409774Y-129876063D01*
X197240256Y-129762795D01*
X197051898Y-129684774D01*
X196851939Y-129645000D01*
X196648061Y-129645000D01*
X196448102Y-129684774D01*
X196259744Y-129762795D01*
X196090226Y-129876063D01*
X195946063Y-130020226D01*
X195832795Y-130189744D01*
X195754774Y-130378102D01*
X195715000Y-130578061D01*
X195715000Y-130781939D01*
X195754774Y-130981898D01*
X195832795Y-131170256D01*
X195946063Y-131339774D01*
X196079689Y-131473400D01*
X188971695Y-131473400D01*
X189007205Y-131420256D01*
X189085226Y-131231898D01*
X189125000Y-131031939D01*
X189125000Y-130828061D01*
X189085226Y-130628102D01*
X189007205Y-130439744D01*
X188893937Y-130270226D01*
X188749774Y-130126063D01*
X188692900Y-130088061D01*
X190485000Y-130088061D01*
X190485000Y-130291939D01*
X190524774Y-130491898D01*
X190602795Y-130680256D01*
X190716063Y-130849774D01*
X190860226Y-130993937D01*
X191029744Y-131107205D01*
X191218102Y-131185226D01*
X191418061Y-131225000D01*
X191621939Y-131225000D01*
X191821898Y-131185226D01*
X192010256Y-131107205D01*
X192179774Y-130993937D01*
X192323937Y-130849774D01*
X192437205Y-130680256D01*
X192515226Y-130491898D01*
X192555000Y-130291939D01*
X192555000Y-130088061D01*
X192515226Y-129888102D01*
X192437205Y-129699744D01*
X192323937Y-129530226D01*
X192179774Y-129386063D01*
X192010256Y-129272795D01*
X191821898Y-129194774D01*
X191621939Y-129155000D01*
X191418061Y-129155000D01*
X191218102Y-129194774D01*
X191029744Y-129272795D01*
X190860226Y-129386063D01*
X190716063Y-129530226D01*
X190602795Y-129699744D01*
X190524774Y-129888102D01*
X190485000Y-130088061D01*
X188692900Y-130088061D01*
X188580256Y-130012795D01*
X188391898Y-129934774D01*
X188191939Y-129895000D01*
X187988061Y-129895000D01*
X187788102Y-129934774D01*
X187599744Y-130012795D01*
X187430226Y-130126063D01*
X187286063Y-130270226D01*
X187172795Y-130439744D01*
X187094774Y-130628102D01*
X187055000Y-130828061D01*
X187055000Y-131031939D01*
X187094774Y-131231898D01*
X187172795Y-131420256D01*
X187208305Y-131473400D01*
X138013795Y-131473400D01*
X138084338Y-129838061D01*
X167435002Y-129838061D01*
X167435002Y-130041939D01*
X167474776Y-130241898D01*
X167552797Y-130430256D01*
X167666065Y-130599774D01*
X167810228Y-130743937D01*
X167979746Y-130857205D01*
X168168104Y-130935226D01*
X168368063Y-130975000D01*
X168571941Y-130975000D01*
X168771900Y-130935226D01*
X168960258Y-130857205D01*
X169129776Y-130743937D01*
X169273939Y-130599774D01*
X169387207Y-130430256D01*
X169465228Y-130241898D01*
X169505002Y-130041939D01*
X169505002Y-129838061D01*
X169465228Y-129638102D01*
X169387207Y-129449744D01*
X169379401Y-129438061D01*
X183325000Y-129438061D01*
X183325000Y-129641939D01*
X183364774Y-129841898D01*
X183442795Y-130030256D01*
X183556063Y-130199774D01*
X183700226Y-130343937D01*
X183869744Y-130457205D01*
X184058102Y-130535226D01*
X184258061Y-130575000D01*
X184461939Y-130575000D01*
X184661898Y-130535226D01*
X184850256Y-130457205D01*
X185019774Y-130343937D01*
X185163937Y-130199774D01*
X185277205Y-130030256D01*
X185355226Y-129841898D01*
X185395000Y-129641939D01*
X185395000Y-129438061D01*
X185355226Y-129238102D01*
X185277205Y-129049744D01*
X185163937Y-128880226D01*
X185019774Y-128736063D01*
X184850256Y-128622795D01*
X184661898Y-128544774D01*
X184461939Y-128505000D01*
X184258061Y-128505000D01*
X184058102Y-128544774D01*
X183869744Y-128622795D01*
X183700226Y-128736063D01*
X183556063Y-128880226D01*
X183442795Y-129049744D01*
X183364774Y-129238102D01*
X183325000Y-129438061D01*
X169379401Y-129438061D01*
X169273939Y-129280226D01*
X169129776Y-129136063D01*
X168960258Y-129022795D01*
X168771900Y-128944774D01*
X168571941Y-128905000D01*
X168368063Y-128905000D01*
X168168104Y-128944774D01*
X167979746Y-129022795D01*
X167810228Y-129136063D01*
X167666065Y-129280226D01*
X167552797Y-129449744D01*
X167474776Y-129638102D01*
X167435002Y-129838061D01*
X138084338Y-129838061D01*
X138174064Y-127758061D01*
X164975000Y-127758061D01*
X164975000Y-127961939D01*
X165014774Y-128161898D01*
X165092795Y-128350256D01*
X165206063Y-128519774D01*
X165350226Y-128663937D01*
X165519744Y-128777205D01*
X165708102Y-128855226D01*
X165908061Y-128895000D01*
X166111939Y-128895000D01*
X166311898Y-128855226D01*
X166500256Y-128777205D01*
X166669774Y-128663937D01*
X166813937Y-128519774D01*
X166927205Y-128350256D01*
X167005226Y-128161898D01*
X167045000Y-127961939D01*
X167045000Y-127758061D01*
X167005226Y-127558102D01*
X166927205Y-127369744D01*
X166813937Y-127200226D01*
X166669774Y-127056063D01*
X166500256Y-126942795D01*
X166311898Y-126864774D01*
X166111939Y-126825000D01*
X165908061Y-126825000D01*
X165708102Y-126864774D01*
X165519744Y-126942795D01*
X165350226Y-127056063D01*
X165206063Y-127200226D01*
X165092795Y-127369744D01*
X165014774Y-127558102D01*
X164975000Y-127758061D01*
X138174064Y-127758061D01*
X138211658Y-126886567D01*
X145109702Y-126862002D01*
X155144347Y-126947436D01*
X155182795Y-127040256D01*
X155296063Y-127209774D01*
X155440226Y-127353937D01*
X155609744Y-127467205D01*
X155798102Y-127545226D01*
X155998061Y-127585000D01*
X156201939Y-127585000D01*
X156401898Y-127545226D01*
X156590256Y-127467205D01*
X156759774Y-127353937D01*
X156903937Y-127209774D01*
X157017205Y-127040256D01*
X157048936Y-126963652D01*
X164488919Y-127026995D01*
X164513715Y-127024766D01*
X164537600Y-127017742D01*
X164559656Y-127006194D01*
X164579035Y-126990564D01*
X164594992Y-126971454D01*
X164606915Y-126949598D01*
X164614344Y-126925836D01*
X164616999Y-126899423D01*
X164606114Y-124504763D01*
X164745561Y-124532500D01*
X164847221Y-124532500D01*
X164927753Y-124575546D01*
X165071014Y-124619003D01*
X165220000Y-124633677D01*
X165257333Y-124630000D01*
X172280310Y-124630000D01*
X172243769Y-125845000D01*
X172048061Y-125845000D01*
X171848102Y-125884774D01*
X171659744Y-125962795D01*
X171490226Y-126076063D01*
X171346063Y-126220226D01*
X171232795Y-126389744D01*
X171154774Y-126578102D01*
X171115000Y-126778061D01*
X171115000Y-126981939D01*
X171154774Y-127181898D01*
X171232795Y-127370256D01*
X171346063Y-127539774D01*
X171490226Y-127683937D01*
X171659744Y-127797205D01*
X171848102Y-127875226D01*
X172048061Y-127915000D01*
X172251939Y-127915000D01*
X172451898Y-127875226D01*
X172640256Y-127797205D01*
X172807447Y-127685492D01*
X173409361Y-128467465D01*
X173421196Y-128480790D01*
X173440615Y-128496370D01*
X173462700Y-128507863D01*
X173486602Y-128514826D01*
X173511404Y-128516992D01*
X176676404Y-128481992D01*
X176699318Y-128479650D01*
X176723169Y-128472511D01*
X176745168Y-128460856D01*
X176764471Y-128445133D01*
X176780336Y-128425946D01*
X176792153Y-128404032D01*
X176799468Y-128380235D01*
X176801999Y-128355467D01*
X176804639Y-127638061D01*
X181545000Y-127638061D01*
X181545000Y-127841939D01*
X181584774Y-128041898D01*
X181662795Y-128230256D01*
X181776063Y-128399774D01*
X181920226Y-128543937D01*
X182089744Y-128657205D01*
X182278102Y-128735226D01*
X182478061Y-128775000D01*
X182681939Y-128775000D01*
X182881898Y-128735226D01*
X183070256Y-128657205D01*
X183239774Y-128543937D01*
X183383937Y-128399774D01*
X183497205Y-128230256D01*
X183575226Y-128041898D01*
X183615000Y-127841939D01*
X183615000Y-127838061D01*
X187065000Y-127838061D01*
X187065000Y-128041939D01*
X187104774Y-128241898D01*
X187182795Y-128430256D01*
X187296063Y-128599774D01*
X187440226Y-128743937D01*
X187609744Y-128857205D01*
X187798102Y-128935226D01*
X187998061Y-128975000D01*
X188201939Y-128975000D01*
X188401898Y-128935226D01*
X188590256Y-128857205D01*
X188759774Y-128743937D01*
X188903937Y-128599774D01*
X189017205Y-128430256D01*
X189095226Y-128241898D01*
X189135000Y-128041939D01*
X189135000Y-127838061D01*
X189095226Y-127638102D01*
X189017205Y-127449744D01*
X188910856Y-127290581D01*
X192015150Y-127290581D01*
X192015150Y-127494459D01*
X192054924Y-127694418D01*
X192132945Y-127882776D01*
X192246213Y-128052294D01*
X192390376Y-128196457D01*
X192559894Y-128309725D01*
X192748252Y-128387746D01*
X192948211Y-128427520D01*
X193152089Y-128427520D01*
X193352048Y-128387746D01*
X193540406Y-128309725D01*
X193709924Y-128196457D01*
X193848320Y-128058061D01*
X194205000Y-128058061D01*
X194205000Y-128261939D01*
X194244774Y-128461898D01*
X194322795Y-128650256D01*
X194436063Y-128819774D01*
X194580226Y-128963937D01*
X194749744Y-129077205D01*
X194938102Y-129155226D01*
X195138061Y-129195000D01*
X195341939Y-129195000D01*
X195541898Y-129155226D01*
X195730256Y-129077205D01*
X195899774Y-128963937D01*
X196043937Y-128819774D01*
X196157205Y-128650256D01*
X196235226Y-128461898D01*
X196275000Y-128261939D01*
X196275000Y-128058061D01*
X196235226Y-127858102D01*
X196157205Y-127669744D01*
X196043937Y-127500226D01*
X195899774Y-127356063D01*
X195730256Y-127242795D01*
X195541898Y-127164774D01*
X195341939Y-127125000D01*
X195138061Y-127125000D01*
X194938102Y-127164774D01*
X194749744Y-127242795D01*
X194580226Y-127356063D01*
X194436063Y-127500226D01*
X194322795Y-127669744D01*
X194244774Y-127858102D01*
X194205000Y-128058061D01*
X193848320Y-128058061D01*
X193854087Y-128052294D01*
X193967355Y-127882776D01*
X194045376Y-127694418D01*
X194085150Y-127494459D01*
X194085150Y-127290581D01*
X194045376Y-127090622D01*
X193967355Y-126902264D01*
X193854087Y-126732746D01*
X193709924Y-126588583D01*
X193540406Y-126475315D01*
X193352048Y-126397294D01*
X193152089Y-126357520D01*
X192948211Y-126357520D01*
X192748252Y-126397294D01*
X192559894Y-126475315D01*
X192390376Y-126588583D01*
X192246213Y-126732746D01*
X192132945Y-126902264D01*
X192054924Y-127090622D01*
X192015150Y-127290581D01*
X188910856Y-127290581D01*
X188903937Y-127280226D01*
X188759774Y-127136063D01*
X188590256Y-127022795D01*
X188401898Y-126944774D01*
X188201939Y-126905000D01*
X187998061Y-126905000D01*
X187798102Y-126944774D01*
X187609744Y-127022795D01*
X187440226Y-127136063D01*
X187296063Y-127280226D01*
X187182795Y-127449744D01*
X187104774Y-127638102D01*
X187065000Y-127838061D01*
X183615000Y-127838061D01*
X183615000Y-127638061D01*
X183575226Y-127438102D01*
X183497205Y-127249744D01*
X183383937Y-127080226D01*
X183239774Y-126936063D01*
X183070256Y-126822795D01*
X182881898Y-126744774D01*
X182681939Y-126705000D01*
X182478061Y-126705000D01*
X182278102Y-126744774D01*
X182089744Y-126822795D01*
X181920226Y-126936063D01*
X181776063Y-127080226D01*
X181662795Y-127249744D01*
X181584774Y-127438102D01*
X181545000Y-127638061D01*
X176804639Y-127638061D01*
X176815712Y-124630000D01*
X182706604Y-124630000D01*
X182705000Y-124638063D01*
X182705000Y-124841941D01*
X182744774Y-125041900D01*
X182822795Y-125230258D01*
X182936063Y-125399776D01*
X183080226Y-125543939D01*
X183249744Y-125657207D01*
X183438102Y-125735228D01*
X183638061Y-125775002D01*
X183841939Y-125775002D01*
X184041898Y-125735228D01*
X184230256Y-125657207D01*
X184399774Y-125543939D01*
X184543937Y-125399776D01*
X184657205Y-125230258D01*
X184735226Y-125041900D01*
X184762493Y-124904818D01*
X184763410Y-124905000D01*
X184967288Y-124905000D01*
X185167247Y-124865226D01*
X185355605Y-124787205D01*
X185502727Y-124688901D01*
X185494774Y-124708102D01*
X185455000Y-124908061D01*
X185455000Y-125111939D01*
X185494774Y-125311898D01*
X185572795Y-125500256D01*
X185686063Y-125669774D01*
X185830226Y-125813937D01*
X185999744Y-125927205D01*
X186188102Y-126005226D01*
X186388061Y-126045000D01*
X186591939Y-126045000D01*
X186791898Y-126005226D01*
X186980256Y-125927205D01*
X187149774Y-125813937D01*
X187293937Y-125669774D01*
X187407205Y-125500256D01*
X187485226Y-125311898D01*
X187525000Y-125111939D01*
X187525000Y-124908061D01*
X187485226Y-124708102D01*
X187407205Y-124519744D01*
X187293937Y-124350226D01*
X187206772Y-124263061D01*
X191445000Y-124263061D01*
X191445000Y-124466939D01*
X191484774Y-124666898D01*
X191562795Y-124855256D01*
X191676063Y-125024774D01*
X191820226Y-125168937D01*
X191989744Y-125282205D01*
X192178102Y-125360226D01*
X192378061Y-125400000D01*
X192581939Y-125400000D01*
X192781898Y-125360226D01*
X192970256Y-125282205D01*
X193139774Y-125168937D01*
X193283937Y-125024774D01*
X193397205Y-124855256D01*
X193475226Y-124666898D01*
X193515000Y-124466939D01*
X193515000Y-124263061D01*
X193475226Y-124063102D01*
X193397205Y-123874744D01*
X193283937Y-123705226D01*
X193139774Y-123561063D01*
X192970256Y-123447795D01*
X192781898Y-123369774D01*
X192581939Y-123330000D01*
X192378061Y-123330000D01*
X192178102Y-123369774D01*
X191989744Y-123447795D01*
X191820226Y-123561063D01*
X191676063Y-123705226D01*
X191562795Y-123874744D01*
X191484774Y-124063102D01*
X191445000Y-124263061D01*
X187206772Y-124263061D01*
X187149774Y-124206063D01*
X186980256Y-124092795D01*
X186791898Y-124014774D01*
X186591939Y-123975000D01*
X186388061Y-123975000D01*
X186188102Y-124014774D01*
X185999744Y-124092795D01*
X185852622Y-124191099D01*
X185860575Y-124171898D01*
X185900349Y-123971939D01*
X185900349Y-123768061D01*
X185860575Y-123568102D01*
X185782554Y-123379744D01*
X185669286Y-123210226D01*
X185525123Y-123066063D01*
X185355605Y-122952795D01*
X185167247Y-122874774D01*
X184967288Y-122835000D01*
X184763410Y-122835000D01*
X184563451Y-122874774D01*
X184375093Y-122952795D01*
X184328268Y-122984082D01*
X184300226Y-122843102D01*
X184222205Y-122654744D01*
X184108937Y-122485226D01*
X183964774Y-122341063D01*
X183795256Y-122227795D01*
X183606898Y-122149774D01*
X183406939Y-122110000D01*
X183203061Y-122110000D01*
X183003102Y-122149774D01*
X182814744Y-122227795D01*
X182645226Y-122341063D01*
X182601289Y-122385000D01*
X178900971Y-122385000D01*
X179029774Y-122298937D01*
X179173937Y-122154774D01*
X179287205Y-121985256D01*
X179365226Y-121796898D01*
X179405000Y-121596939D01*
X179405000Y-121393061D01*
X179365226Y-121193102D01*
X179287205Y-121004744D01*
X179173937Y-120835226D01*
X179045867Y-120707156D01*
X179077205Y-120660256D01*
X179155226Y-120471898D01*
X179166751Y-120413956D01*
X179218102Y-120435226D01*
X179418061Y-120475000D01*
X179621939Y-120475000D01*
X179821898Y-120435226D01*
X180010256Y-120357205D01*
X180179774Y-120243937D01*
X180323937Y-120099774D01*
X180437205Y-119930256D01*
X180515226Y-119741898D01*
X180555000Y-119541939D01*
X180555000Y-119338061D01*
X180515226Y-119138102D01*
X180437205Y-118949744D01*
X180323937Y-118780226D01*
X180179774Y-118636063D01*
X180010256Y-118522795D01*
X179821898Y-118444774D01*
X179621939Y-118405000D01*
X179418061Y-118405000D01*
X179218102Y-118444774D01*
X179145133Y-118474999D01*
X177649321Y-118474999D01*
X177611998Y-118471323D01*
X177574675Y-118474999D01*
X177574666Y-118474999D01*
X177463013Y-118485996D01*
X177319752Y-118529453D01*
X177187723Y-118600025D01*
X177085824Y-118683651D01*
X176770043Y-118683651D01*
X176764291Y-117998114D01*
X183644475Y-117998114D01*
X183644475Y-118201992D01*
X183684249Y-118401951D01*
X183762270Y-118590309D01*
X183875538Y-118759827D01*
X184019701Y-118903990D01*
X184189219Y-119017258D01*
X184377577Y-119095279D01*
X184577536Y-119135053D01*
X184781414Y-119135053D01*
X184981373Y-119095279D01*
X185169731Y-119017258D01*
X185339249Y-118903990D01*
X185483412Y-118759827D01*
X185596680Y-118590309D01*
X185674701Y-118401951D01*
X185714475Y-118201992D01*
X185714475Y-117998114D01*
X185674701Y-117798155D01*
X185596680Y-117609797D01*
X185483412Y-117440279D01*
X185339249Y-117296116D01*
X185169731Y-117182848D01*
X184981373Y-117104827D01*
X184781414Y-117065053D01*
X184577536Y-117065053D01*
X184377577Y-117104827D01*
X184189219Y-117182848D01*
X184019701Y-117296116D01*
X183875538Y-117440279D01*
X183762270Y-117609797D01*
X183684249Y-117798155D01*
X183644475Y-117998114D01*
X176764291Y-117998114D01*
X176758067Y-117256565D01*
X182510432Y-117236999D01*
X182536490Y-117234207D01*
X182560213Y-117226652D01*
X182582006Y-117214614D01*
X182601031Y-117198557D01*
X183394144Y-116383282D01*
X183519744Y-116467205D01*
X183708102Y-116545226D01*
X183908061Y-116585000D01*
X184111939Y-116585000D01*
X184311898Y-116545226D01*
X184500256Y-116467205D01*
X184669774Y-116353937D01*
X184813937Y-116209774D01*
X184927205Y-116040256D01*
X185005226Y-115851898D01*
X185045000Y-115651939D01*
X185045000Y-115448061D01*
X185005226Y-115248102D01*
X184927205Y-115059744D01*
X184827241Y-114910137D01*
X185106031Y-114623557D01*
X185122383Y-114602807D01*
X185133549Y-114580555D01*
X185140158Y-114556552D01*
X185141958Y-114531721D01*
X185071958Y-111821721D01*
X185069913Y-111802071D01*
X185063040Y-111778143D01*
X185051630Y-111756015D01*
X185036123Y-111736538D01*
X185017114Y-111720460D01*
X184995334Y-111708400D01*
X184971619Y-111700821D01*
X184946881Y-111698014D01*
X184922071Y-111700087D01*
X184898143Y-111706960D01*
X184876015Y-111718370D01*
X184856538Y-111733877D01*
X182075994Y-114433237D01*
X182053937Y-114400226D01*
X181909774Y-114256063D01*
X181740256Y-114142795D01*
X181551898Y-114064774D01*
X181351939Y-114025000D01*
X181148061Y-114025000D01*
X180948102Y-114064774D01*
X180759744Y-114142795D01*
X180590226Y-114256063D01*
X180446063Y-114400226D01*
X180332795Y-114569744D01*
X180254774Y-114758102D01*
X180215000Y-114958061D01*
X180215000Y-115031663D01*
X175548514Y-115062649D01*
X175548514Y-114730544D01*
X175608102Y-114755226D01*
X175808061Y-114795000D01*
X176011939Y-114795000D01*
X176211898Y-114755226D01*
X176400256Y-114677205D01*
X176569774Y-114563937D01*
X176713937Y-114419774D01*
X176827205Y-114250256D01*
X176905226Y-114061898D01*
X176945000Y-113861939D01*
X176945000Y-113658061D01*
X176905226Y-113458102D01*
X176827205Y-113269744D01*
X176713937Y-113100226D01*
X176569774Y-112956063D01*
X176400256Y-112842795D01*
X176211898Y-112764774D01*
X176011939Y-112725000D01*
X175808061Y-112725000D01*
X175608102Y-112764774D01*
X175549296Y-112789132D01*
X175548514Y-112781190D01*
X175548514Y-112781181D01*
X175537517Y-112669528D01*
X175494060Y-112526267D01*
X175473638Y-112488061D01*
X175423488Y-112394237D01*
X175352313Y-112307511D01*
X175328515Y-112278513D01*
X175299516Y-112254715D01*
X175115000Y-112070198D01*
X175115000Y-112008061D01*
X175075226Y-111808102D01*
X174997205Y-111619744D01*
X174883937Y-111450226D01*
X174739774Y-111306063D01*
X174570256Y-111192795D01*
X174381898Y-111114774D01*
X174181939Y-111075000D01*
X173978061Y-111075000D01*
X173778102Y-111114774D01*
X173589744Y-111192795D01*
X173420226Y-111306063D01*
X173276063Y-111450226D01*
X173162795Y-111619744D01*
X173084774Y-111808102D01*
X173045000Y-112008061D01*
X173045000Y-112211939D01*
X173084774Y-112411898D01*
X173162795Y-112600256D01*
X173276063Y-112769774D01*
X173420226Y-112913937D01*
X173589744Y-113027205D01*
X173778102Y-113105226D01*
X173978061Y-113145000D01*
X174028515Y-113145000D01*
X174028515Y-113252275D01*
X173991939Y-113245000D01*
X173788061Y-113245000D01*
X173588102Y-113284774D01*
X173399744Y-113362795D01*
X173230226Y-113476063D01*
X173086063Y-113620226D01*
X172972795Y-113789744D01*
X172894774Y-113978102D01*
X172855000Y-114178061D01*
X172855000Y-114381939D01*
X172894774Y-114581898D01*
X172972795Y-114770256D01*
X173086063Y-114939774D01*
X173230226Y-115083937D01*
X173399744Y-115197205D01*
X173588102Y-115275226D01*
X173718309Y-115301126D01*
X170898034Y-118262414D01*
X170885671Y-118277582D01*
X170873547Y-118299327D01*
X170865899Y-118323019D01*
X170863020Y-118347749D01*
X170857064Y-118683651D01*
X170728452Y-118683651D01*
X170680000Y-118635199D01*
X170680000Y-115757323D01*
X170683676Y-115720000D01*
X170680000Y-115682677D01*
X170680000Y-115682667D01*
X170669003Y-115571014D01*
X170625546Y-115427753D01*
X170554974Y-115295724D01*
X170460001Y-115179999D01*
X170431003Y-115156201D01*
X169785000Y-114510199D01*
X169785000Y-114448061D01*
X169745226Y-114248102D01*
X169667205Y-114059744D01*
X169553937Y-113890226D01*
X169409774Y-113746063D01*
X169240256Y-113632795D01*
X169051898Y-113554774D01*
X168851939Y-113515000D01*
X168648061Y-113515000D01*
X168448102Y-113554774D01*
X168259744Y-113632795D01*
X168090226Y-113746063D01*
X167946063Y-113890226D01*
X167832795Y-114059744D01*
X167754774Y-114248102D01*
X167715000Y-114448061D01*
X167715000Y-114651939D01*
X167754774Y-114851898D01*
X167832795Y-115040256D01*
X167946063Y-115209774D01*
X168090226Y-115353937D01*
X168259744Y-115467205D01*
X168448102Y-115545226D01*
X168648061Y-115585000D01*
X168710199Y-115585000D01*
X169160001Y-116034803D01*
X169160000Y-118912677D01*
X169156324Y-118950000D01*
X169160000Y-118987322D01*
X169160000Y-118987332D01*
X169170997Y-119098985D01*
X169209435Y-119225700D01*
X169214454Y-119242246D01*
X169285026Y-119374276D01*
X169320080Y-119416989D01*
X169379999Y-119490001D01*
X169409003Y-119513804D01*
X169849847Y-119954648D01*
X169873650Y-119983652D01*
X169946797Y-120043682D01*
X169989374Y-120078625D01*
X170068648Y-120120998D01*
X170121404Y-120149197D01*
X170264665Y-120192654D01*
X170376318Y-120203651D01*
X170376328Y-120203651D01*
X170413651Y-120207327D01*
X170450974Y-120203651D01*
X170830114Y-120203651D01*
X170813020Y-121167749D01*
X170814200Y-121187419D01*
X170820016Y-121211627D01*
X170830442Y-121234235D01*
X170845079Y-121254374D01*
X170934525Y-121355001D01*
X164591797Y-121355001D01*
X164585539Y-119978061D01*
X167145000Y-119978061D01*
X167145000Y-120181939D01*
X167184774Y-120381898D01*
X167262795Y-120570256D01*
X167376063Y-120739774D01*
X167520226Y-120883937D01*
X167689744Y-120997205D01*
X167878102Y-121075226D01*
X168078061Y-121115000D01*
X168281939Y-121115000D01*
X168481898Y-121075226D01*
X168670256Y-120997205D01*
X168839774Y-120883937D01*
X168983937Y-120739774D01*
X169097205Y-120570256D01*
X169175226Y-120381898D01*
X169215000Y-120181939D01*
X169215000Y-119978061D01*
X169175226Y-119778102D01*
X169097205Y-119589744D01*
X168983937Y-119420226D01*
X168839774Y-119276063D01*
X168670256Y-119162795D01*
X168481898Y-119084774D01*
X168281939Y-119045000D01*
X168078061Y-119045000D01*
X167878102Y-119084774D01*
X167689744Y-119162795D01*
X167520226Y-119276063D01*
X167376063Y-119420226D01*
X167262795Y-119589744D01*
X167184774Y-119778102D01*
X167145000Y-119978061D01*
X164585539Y-119978061D01*
X164578001Y-118319824D01*
X165244933Y-118319824D01*
X165244933Y-118523702D01*
X165284707Y-118723661D01*
X165362728Y-118912019D01*
X165475996Y-119081537D01*
X165620159Y-119225700D01*
X165789677Y-119338968D01*
X165978035Y-119416989D01*
X166177994Y-119456763D01*
X166381872Y-119456763D01*
X166581831Y-119416989D01*
X166770189Y-119338968D01*
X166939707Y-119225700D01*
X167083870Y-119081537D01*
X167197138Y-118912019D01*
X167275159Y-118723661D01*
X167314933Y-118523702D01*
X167314933Y-118319824D01*
X167275159Y-118119865D01*
X167197138Y-117931507D01*
X167083870Y-117761989D01*
X166939707Y-117617826D01*
X166770189Y-117504558D01*
X166581831Y-117426537D01*
X166381872Y-117386763D01*
X166177994Y-117386763D01*
X165978035Y-117426537D01*
X165789677Y-117504558D01*
X165620159Y-117617826D01*
X165475996Y-117761989D01*
X165362728Y-117931507D01*
X165284707Y-118119865D01*
X165244933Y-118319824D01*
X164578001Y-118319824D01*
X164554226Y-113089350D01*
X166043068Y-111600509D01*
X166442300Y-111593989D01*
X166396063Y-111640226D01*
X166282795Y-111809744D01*
X166204774Y-111998102D01*
X166165000Y-112198061D01*
X166165000Y-112401939D01*
X166204774Y-112601898D01*
X166282795Y-112790256D01*
X166396063Y-112959774D01*
X166540226Y-113103937D01*
X166709744Y-113217205D01*
X166898102Y-113295226D01*
X167098061Y-113335000D01*
X167301939Y-113335000D01*
X167501898Y-113295226D01*
X167690256Y-113217205D01*
X167859774Y-113103937D01*
X168003937Y-112959774D01*
X168036298Y-112911342D01*
X168118102Y-112945226D01*
X168318061Y-112985000D01*
X168521939Y-112985000D01*
X168721898Y-112945226D01*
X168910256Y-112867205D01*
X169079774Y-112753937D01*
X169223937Y-112609774D01*
X169337205Y-112440256D01*
X169415226Y-112251898D01*
X169455000Y-112051939D01*
X169455000Y-111848061D01*
X169415226Y-111648102D01*
X169372986Y-111546126D01*
X170120045Y-111533926D01*
X170102790Y-111559749D01*
X170024769Y-111748107D01*
X169984995Y-111948066D01*
X169984995Y-112151944D01*
X170024769Y-112351903D01*
X170102790Y-112540261D01*
X170216058Y-112709779D01*
X170360221Y-112853942D01*
X170529739Y-112967210D01*
X170718097Y-113045231D01*
X170918056Y-113085005D01*
X171121934Y-113085005D01*
X171321893Y-113045231D01*
X171510251Y-112967210D01*
X171679769Y-112853942D01*
X171823932Y-112709779D01*
X171937200Y-112540261D01*
X172015221Y-112351903D01*
X172054995Y-112151944D01*
X172054995Y-111948066D01*
X172015221Y-111748107D01*
X171937200Y-111559749D01*
X171900516Y-111504848D01*
X172382074Y-111496983D01*
X172406807Y-111494139D01*
X172430510Y-111486523D01*
X172452272Y-111474430D01*
X172471257Y-111458324D01*
X172486735Y-111438824D01*
X172498111Y-111416678D01*
X172504948Y-111392739D01*
X172506923Y-111374417D01*
X172656923Y-107064417D01*
X172656970Y-107057232D01*
X172579573Y-103506625D01*
X173127852Y-103460852D01*
X175159284Y-105492284D01*
X175190130Y-105529870D01*
X175340116Y-105652960D01*
X175511233Y-105744424D01*
X175653691Y-105787638D01*
X175696905Y-105800747D01*
X175704299Y-105801475D01*
X175677660Y-105935401D01*
X175677660Y-106139279D01*
X175717434Y-106339238D01*
X175795455Y-106527596D01*
X175908723Y-106697114D01*
X175999444Y-106787835D01*
X175924774Y-106968102D01*
X175885000Y-107168061D01*
X175885000Y-107371939D01*
X175924774Y-107571898D01*
X175938021Y-107603879D01*
X175891898Y-107584774D01*
X175691939Y-107545000D01*
X175488061Y-107545000D01*
X175288102Y-107584774D01*
X175099744Y-107662795D01*
X174930226Y-107776063D01*
X174786063Y-107920226D01*
X174672795Y-108089744D01*
X174594774Y-108278102D01*
X174555000Y-108478061D01*
X174555000Y-108681939D01*
X174594774Y-108881898D01*
X174672795Y-109070256D01*
X174786063Y-109239774D01*
X174930226Y-109383937D01*
X175099744Y-109497205D01*
X175288102Y-109575226D01*
X175488061Y-109615000D01*
X175691939Y-109615000D01*
X175891898Y-109575226D01*
X176080256Y-109497205D01*
X176249774Y-109383937D01*
X176393937Y-109239774D01*
X176507205Y-109070256D01*
X176585226Y-108881898D01*
X176625000Y-108681939D01*
X176625000Y-108478061D01*
X176585226Y-108278102D01*
X176571979Y-108246121D01*
X176618102Y-108265226D01*
X176818061Y-108305000D01*
X177021939Y-108305000D01*
X177221898Y-108265226D01*
X177410256Y-108187205D01*
X177579774Y-108073937D01*
X177723937Y-107929774D01*
X177837205Y-107760256D01*
X177915226Y-107571898D01*
X177955000Y-107371939D01*
X177955000Y-107168711D01*
X178040226Y-107253937D01*
X178209744Y-107367205D01*
X178398102Y-107445226D01*
X178598061Y-107485000D01*
X178801939Y-107485000D01*
X179001898Y-107445226D01*
X179190256Y-107367205D01*
X179359774Y-107253937D01*
X179503937Y-107109774D01*
X179533111Y-107066112D01*
X182962570Y-110495571D01*
X182972795Y-110520256D01*
X183086063Y-110689774D01*
X183230226Y-110833937D01*
X183399744Y-110947205D01*
X183588102Y-111025226D01*
X183788061Y-111065000D01*
X183991939Y-111065000D01*
X184191898Y-111025226D01*
X184380256Y-110947205D01*
X184549774Y-110833937D01*
X184693937Y-110689774D01*
X184807205Y-110520256D01*
X184885226Y-110331898D01*
X184925000Y-110131939D01*
X184925000Y-109928061D01*
X184885226Y-109728102D01*
X184807205Y-109539744D01*
X184693937Y-109370226D01*
X184549774Y-109226063D01*
X184380256Y-109112795D01*
X184355571Y-109102570D01*
X181465887Y-106212887D01*
X181568102Y-106255226D01*
X181768061Y-106295000D01*
X181830199Y-106295000D01*
X182606201Y-107071003D01*
X182629999Y-107100001D01*
X182745724Y-107194974D01*
X182877753Y-107265546D01*
X183021014Y-107309003D01*
X183132667Y-107320000D01*
X183132675Y-107320000D01*
X183170000Y-107323676D01*
X183207325Y-107320000D01*
X183914776Y-107320000D01*
X184048102Y-107375226D01*
X184248061Y-107415000D01*
X184451939Y-107415000D01*
X184651898Y-107375226D01*
X184840256Y-107297205D01*
X185009774Y-107183937D01*
X185153937Y-107039774D01*
X185267205Y-106870256D01*
X185345226Y-106681898D01*
X185385000Y-106481939D01*
X185385000Y-106278061D01*
X185345226Y-106078102D01*
X185267205Y-105889744D01*
X185153937Y-105720226D01*
X185009774Y-105576063D01*
X184840256Y-105462795D01*
X184651898Y-105384774D01*
X184451939Y-105345000D01*
X184248061Y-105345000D01*
X184048102Y-105384774D01*
X183859744Y-105462795D01*
X183690226Y-105576063D01*
X183546063Y-105720226D01*
X183492760Y-105800000D01*
X183484802Y-105800000D01*
X182905000Y-105220199D01*
X182905000Y-105158061D01*
X182865226Y-104958102D01*
X182787205Y-104769744D01*
X182673937Y-104600226D01*
X182529774Y-104456063D01*
X182360256Y-104342795D01*
X182171898Y-104264774D01*
X181971939Y-104225000D01*
X181909802Y-104225000D01*
X179865919Y-102181118D01*
X179842116Y-102152114D01*
X179726391Y-102057141D01*
X179661847Y-102022641D01*
X180217000Y-101677889D01*
X180221444Y-101674999D01*
X180936841Y-101188221D01*
X180951898Y-101185226D01*
X181140256Y-101107205D01*
X181309774Y-100993937D01*
X181453937Y-100849774D01*
X181470356Y-100825200D01*
X181785777Y-100610579D01*
X182975000Y-101799803D01*
X182975000Y-101861939D01*
X183014774Y-102061898D01*
X183092795Y-102250256D01*
X183206063Y-102419774D01*
X183350226Y-102563937D01*
X183519744Y-102677205D01*
X183708102Y-102755226D01*
X183908061Y-102795000D01*
X184111939Y-102795000D01*
X184311898Y-102755226D01*
X184500256Y-102677205D01*
X184669774Y-102563937D01*
X184813937Y-102419774D01*
X184927205Y-102250256D01*
X185005226Y-102061898D01*
X185045000Y-101861939D01*
X185045000Y-101658061D01*
X185005226Y-101458102D01*
X184927205Y-101269744D01*
X184813937Y-101100226D01*
X184799805Y-101086094D01*
X184877205Y-100970256D01*
X184955226Y-100781898D01*
X184995000Y-100581939D01*
X184995000Y-100378061D01*
X184955226Y-100178102D01*
X184877205Y-99989744D01*
X184763937Y-99820226D01*
X184619774Y-99676063D01*
X184450256Y-99562795D01*
X184261898Y-99484774D01*
X184061939Y-99445000D01*
X183999802Y-99445000D01*
X183796930Y-99242128D01*
X185755767Y-97909275D01*
X186632652Y-97959864D01*
G37*
G04 #@! TD.AperFunction*
M02*
