G04 #@! TF.GenerationSoftware,KiCad,Pcbnew,(5.1.10)-1*
G04 #@! TF.CreationDate,2021-08-05T17:19:02-07:00*
G04 #@! TF.ProjectId,laser,6c617365-722e-46b6-9963-61645f706362,rev?*
G04 #@! TF.SameCoordinates,Original*
G04 #@! TF.FileFunction,Legend,Bot*
G04 #@! TF.FilePolarity,Positive*
%FSLAX46Y46*%
G04 Gerber Fmt 4.6, Leading zero omitted, Abs format (unit mm)*
G04 Created by KiCad (PCBNEW (5.1.10)-1) date 2021-08-05 17:19:02*
%MOMM*%
%LPD*%
G01*
G04 APERTURE LIST*
%ADD10C,0.150000*%
%ADD11C,0.120000*%
%ADD12C,0.200000*%
%ADD13C,0.100000*%
%ADD14C,0.254000*%
%ADD15C,0.900000*%
%ADD16C,4.200000*%
%ADD17C,4.500000*%
%ADD18C,1.650000*%
%ADD19R,1.650000X1.650000*%
%ADD20R,1.525000X0.700000*%
%ADD21R,1.800000X0.450000*%
%ADD22C,1.524000*%
G04 APERTURE END LIST*
D10*
X149862380Y-84037380D02*
X149862380Y-83037380D01*
X149624285Y-83037380D01*
X149481428Y-83085000D01*
X149386190Y-83180238D01*
X149338571Y-83275476D01*
X149290952Y-83465952D01*
X149290952Y-83608809D01*
X149338571Y-83799285D01*
X149386190Y-83894523D01*
X149481428Y-83989761D01*
X149624285Y-84037380D01*
X149862380Y-84037380D01*
X148481428Y-83989761D02*
X148576666Y-84037380D01*
X148767142Y-84037380D01*
X148862380Y-83989761D01*
X148910000Y-83894523D01*
X148910000Y-83513571D01*
X148862380Y-83418333D01*
X148767142Y-83370714D01*
X148576666Y-83370714D01*
X148481428Y-83418333D01*
X148433809Y-83513571D01*
X148433809Y-83608809D01*
X148910000Y-83704047D01*
X148052857Y-83989761D02*
X147957619Y-84037380D01*
X147767142Y-84037380D01*
X147671904Y-83989761D01*
X147624285Y-83894523D01*
X147624285Y-83846904D01*
X147671904Y-83751666D01*
X147767142Y-83704047D01*
X147910000Y-83704047D01*
X148005238Y-83656428D01*
X148052857Y-83561190D01*
X148052857Y-83513571D01*
X148005238Y-83418333D01*
X147910000Y-83370714D01*
X147767142Y-83370714D01*
X147671904Y-83418333D01*
X147195714Y-84037380D02*
X147195714Y-83370714D01*
X147195714Y-83037380D02*
X147243333Y-83085000D01*
X147195714Y-83132619D01*
X147148095Y-83085000D01*
X147195714Y-83037380D01*
X147195714Y-83132619D01*
X146290952Y-83370714D02*
X146290952Y-84180238D01*
X146338571Y-84275476D01*
X146386190Y-84323095D01*
X146481428Y-84370714D01*
X146624285Y-84370714D01*
X146719523Y-84323095D01*
X146290952Y-83989761D02*
X146386190Y-84037380D01*
X146576666Y-84037380D01*
X146671904Y-83989761D01*
X146719523Y-83942142D01*
X146767142Y-83846904D01*
X146767142Y-83561190D01*
X146719523Y-83465952D01*
X146671904Y-83418333D01*
X146576666Y-83370714D01*
X146386190Y-83370714D01*
X146290952Y-83418333D01*
X145814761Y-83370714D02*
X145814761Y-84037380D01*
X145814761Y-83465952D02*
X145767142Y-83418333D01*
X145671904Y-83370714D01*
X145529047Y-83370714D01*
X145433809Y-83418333D01*
X145386190Y-83513571D01*
X145386190Y-84037380D01*
X144529047Y-83989761D02*
X144624285Y-84037380D01*
X144814761Y-84037380D01*
X144910000Y-83989761D01*
X144957619Y-83894523D01*
X144957619Y-83513571D01*
X144910000Y-83418333D01*
X144814761Y-83370714D01*
X144624285Y-83370714D01*
X144529047Y-83418333D01*
X144481428Y-83513571D01*
X144481428Y-83608809D01*
X144957619Y-83704047D01*
X143624285Y-84037380D02*
X143624285Y-83037380D01*
X143624285Y-83989761D02*
X143719523Y-84037380D01*
X143910000Y-84037380D01*
X144005238Y-83989761D01*
X144052857Y-83942142D01*
X144100476Y-83846904D01*
X144100476Y-83561190D01*
X144052857Y-83465952D01*
X144005238Y-83418333D01*
X143910000Y-83370714D01*
X143719523Y-83370714D01*
X143624285Y-83418333D01*
X142386190Y-84037380D02*
X142386190Y-83037380D01*
X142386190Y-83418333D02*
X142290952Y-83370714D01*
X142100476Y-83370714D01*
X142005238Y-83418333D01*
X141957619Y-83465952D01*
X141910000Y-83561190D01*
X141910000Y-83846904D01*
X141957619Y-83942142D01*
X142005238Y-83989761D01*
X142100476Y-84037380D01*
X142290952Y-84037380D01*
X142386190Y-83989761D01*
X141576666Y-83370714D02*
X141338571Y-84037380D01*
X141100476Y-83370714D02*
X141338571Y-84037380D01*
X141433809Y-84275476D01*
X141481428Y-84323095D01*
X141576666Y-84370714D01*
X140719523Y-83942142D02*
X140671904Y-83989761D01*
X140719523Y-84037380D01*
X140767142Y-83989761D01*
X140719523Y-83942142D01*
X140719523Y-84037380D01*
X140719523Y-83418333D02*
X140671904Y-83465952D01*
X140719523Y-83513571D01*
X140767142Y-83465952D01*
X140719523Y-83418333D01*
X140719523Y-83513571D01*
X154076666Y-85687380D02*
X154552857Y-85687380D01*
X154552857Y-84687380D01*
X153600476Y-85687380D02*
X153695714Y-85639761D01*
X153743333Y-85592142D01*
X153790952Y-85496904D01*
X153790952Y-85211190D01*
X153743333Y-85115952D01*
X153695714Y-85068333D01*
X153600476Y-85020714D01*
X153457619Y-85020714D01*
X153362380Y-85068333D01*
X153314761Y-85115952D01*
X153267142Y-85211190D01*
X153267142Y-85496904D01*
X153314761Y-85592142D01*
X153362380Y-85639761D01*
X153457619Y-85687380D01*
X153600476Y-85687380D01*
X152838571Y-85687380D02*
X152838571Y-85020714D01*
X152838571Y-84687380D02*
X152886190Y-84735000D01*
X152838571Y-84782619D01*
X152790952Y-84735000D01*
X152838571Y-84687380D01*
X152838571Y-84782619D01*
X151933809Y-85639761D02*
X152029047Y-85687380D01*
X152219523Y-85687380D01*
X152314761Y-85639761D01*
X152362380Y-85592142D01*
X152410000Y-85496904D01*
X152410000Y-85211190D01*
X152362380Y-85115952D01*
X152314761Y-85068333D01*
X152219523Y-85020714D01*
X152029047Y-85020714D01*
X151933809Y-85068333D01*
X150410000Y-85163571D02*
X150267142Y-85211190D01*
X150219523Y-85258809D01*
X150171904Y-85354047D01*
X150171904Y-85496904D01*
X150219523Y-85592142D01*
X150267142Y-85639761D01*
X150362380Y-85687380D01*
X150743333Y-85687380D01*
X150743333Y-84687380D01*
X150410000Y-84687380D01*
X150314761Y-84735000D01*
X150267142Y-84782619D01*
X150219523Y-84877857D01*
X150219523Y-84973095D01*
X150267142Y-85068333D01*
X150314761Y-85115952D01*
X150410000Y-85163571D01*
X150743333Y-85163571D01*
X149743333Y-85687380D02*
X149743333Y-85020714D01*
X149743333Y-84687380D02*
X149790952Y-84735000D01*
X149743333Y-84782619D01*
X149695714Y-84735000D01*
X149743333Y-84687380D01*
X149743333Y-84782619D01*
X149124285Y-85687380D02*
X149219523Y-85639761D01*
X149267142Y-85544523D01*
X149267142Y-84687380D01*
X148600476Y-85687380D02*
X148695714Y-85639761D01*
X148743333Y-85544523D01*
X148743333Y-84687380D01*
X147790952Y-85687380D02*
X147790952Y-85163571D01*
X147838571Y-85068333D01*
X147933809Y-85020714D01*
X148124285Y-85020714D01*
X148219523Y-85068333D01*
X147790952Y-85639761D02*
X147886190Y-85687380D01*
X148124285Y-85687380D01*
X148219523Y-85639761D01*
X148267142Y-85544523D01*
X148267142Y-85449285D01*
X148219523Y-85354047D01*
X148124285Y-85306428D01*
X147886190Y-85306428D01*
X147790952Y-85258809D01*
X146886190Y-85020714D02*
X146886190Y-85687380D01*
X147314761Y-85020714D02*
X147314761Y-85544523D01*
X147267142Y-85639761D01*
X147171904Y-85687380D01*
X147029047Y-85687380D01*
X146933809Y-85639761D01*
X146886190Y-85592142D01*
X146552857Y-85020714D02*
X146171904Y-85020714D01*
X146410000Y-84687380D02*
X146410000Y-85544523D01*
X146362380Y-85639761D01*
X146267142Y-85687380D01*
X146171904Y-85687380D01*
X144267142Y-85687380D02*
X144314761Y-85687380D01*
X144410000Y-85639761D01*
X144552857Y-85496904D01*
X144790952Y-85211190D01*
X144886190Y-85068333D01*
X144933809Y-84925476D01*
X144933809Y-84830238D01*
X144886190Y-84735000D01*
X144790952Y-84687380D01*
X144743333Y-84687380D01*
X144648095Y-84735000D01*
X144600476Y-84830238D01*
X144600476Y-84877857D01*
X144648095Y-84973095D01*
X144695714Y-85020714D01*
X144981428Y-85211190D01*
X145029047Y-85258809D01*
X145076666Y-85354047D01*
X145076666Y-85496904D01*
X145029047Y-85592142D01*
X144981428Y-85639761D01*
X144886190Y-85687380D01*
X144743333Y-85687380D01*
X144648095Y-85639761D01*
X144600476Y-85592142D01*
X144457619Y-85401666D01*
X144410000Y-85258809D01*
X144410000Y-85163571D01*
X142790952Y-84687380D02*
X142790952Y-85401666D01*
X142838571Y-85544523D01*
X142933809Y-85639761D01*
X143076666Y-85687380D01*
X143171904Y-85687380D01*
X141886190Y-85020714D02*
X141886190Y-85687380D01*
X142314761Y-85020714D02*
X142314761Y-85544523D01*
X142267142Y-85639761D01*
X142171904Y-85687380D01*
X142029047Y-85687380D01*
X141933809Y-85639761D01*
X141886190Y-85592142D01*
X141267142Y-85687380D02*
X141362380Y-85639761D01*
X141410000Y-85544523D01*
X141410000Y-84687380D01*
X140886190Y-85687380D02*
X140886190Y-85020714D01*
X140886190Y-84687380D02*
X140933809Y-84735000D01*
X140886190Y-84782619D01*
X140838571Y-84735000D01*
X140886190Y-84687380D01*
X140886190Y-84782619D01*
X139981428Y-85687380D02*
X139981428Y-85163571D01*
X140029047Y-85068333D01*
X140124285Y-85020714D01*
X140314761Y-85020714D01*
X140410000Y-85068333D01*
X139981428Y-85639761D02*
X140076666Y-85687380D01*
X140314761Y-85687380D01*
X140410000Y-85639761D01*
X140457619Y-85544523D01*
X140457619Y-85449285D01*
X140410000Y-85354047D01*
X140314761Y-85306428D01*
X140076666Y-85306428D01*
X139981428Y-85258809D01*
X138743333Y-85687380D02*
X138743333Y-84687380D01*
X138314761Y-85639761D02*
X138219523Y-85687380D01*
X138029047Y-85687380D01*
X137933809Y-85639761D01*
X137886190Y-85544523D01*
X137886190Y-85496904D01*
X137933809Y-85401666D01*
X138029047Y-85354047D01*
X138171904Y-85354047D01*
X138267142Y-85306428D01*
X138314761Y-85211190D01*
X138314761Y-85163571D01*
X138267142Y-85068333D01*
X138171904Y-85020714D01*
X138029047Y-85020714D01*
X137933809Y-85068333D01*
X137029047Y-85687380D02*
X137029047Y-85163571D01*
X137076666Y-85068333D01*
X137171904Y-85020714D01*
X137362380Y-85020714D01*
X137457619Y-85068333D01*
X137029047Y-85639761D02*
X137124285Y-85687380D01*
X137362380Y-85687380D01*
X137457619Y-85639761D01*
X137505238Y-85544523D01*
X137505238Y-85449285D01*
X137457619Y-85354047D01*
X137362380Y-85306428D01*
X137124285Y-85306428D01*
X137029047Y-85258809D01*
X136124285Y-85687380D02*
X136124285Y-85163571D01*
X136171904Y-85068333D01*
X136267142Y-85020714D01*
X136457619Y-85020714D01*
X136552857Y-85068333D01*
X136124285Y-85639761D02*
X136219523Y-85687380D01*
X136457619Y-85687380D01*
X136552857Y-85639761D01*
X136600476Y-85544523D01*
X136600476Y-85449285D01*
X136552857Y-85354047D01*
X136457619Y-85306428D01*
X136219523Y-85306428D01*
X136124285Y-85258809D01*
X135219523Y-85639761D02*
X135314761Y-85687380D01*
X135505238Y-85687380D01*
X135600476Y-85639761D01*
X135648095Y-85592142D01*
X135695714Y-85496904D01*
X135695714Y-85211190D01*
X135648095Y-85115952D01*
X135600476Y-85068333D01*
X135505238Y-85020714D01*
X135314761Y-85020714D01*
X135219523Y-85068333D01*
D11*
X204598748Y-95040000D02*
X206021252Y-95040000D01*
X204598748Y-92320000D02*
X206021252Y-92320000D01*
X185552936Y-86065000D02*
X186007064Y-86065000D01*
X185552936Y-87535000D02*
X186007064Y-87535000D01*
X187003748Y-88890000D02*
X188426252Y-88890000D01*
X187003748Y-91610000D02*
X188426252Y-91610000D01*
X188366252Y-95710000D02*
X186943748Y-95710000D01*
X188366252Y-92990000D02*
X186943748Y-92990000D01*
X184858748Y-81960000D02*
X186281252Y-81960000D01*
X184858748Y-84680000D02*
X186281252Y-84680000D01*
X206026252Y-91650000D02*
X204603748Y-91650000D01*
X206026252Y-88930000D02*
X204603748Y-88930000D01*
X196756252Y-85350000D02*
X195333748Y-85350000D01*
X196756252Y-82630000D02*
X195333748Y-82630000D01*
X196786252Y-88690000D02*
X195363748Y-88690000D01*
X196786252Y-85970000D02*
X195363748Y-85970000D01*
X171410000Y-110392164D02*
X171410000Y-110607836D01*
X172130000Y-110392164D02*
X172130000Y-110607836D01*
X179060000Y-104092164D02*
X179060000Y-104307836D01*
X178340000Y-104092164D02*
X178340000Y-104307836D01*
X203240000Y-97587836D02*
X203240000Y-97372164D01*
X202520000Y-97587836D02*
X202520000Y-97372164D01*
X190240000Y-85457836D02*
X190240000Y-85242164D01*
X190960000Y-85457836D02*
X190960000Y-85242164D01*
X192060000Y-85457836D02*
X192060000Y-85242164D01*
X191340000Y-85457836D02*
X191340000Y-85242164D01*
X160230000Y-86417836D02*
X160230000Y-86202164D01*
X160950000Y-86417836D02*
X160950000Y-86202164D01*
X177400000Y-86047836D02*
X177400000Y-85832164D01*
X178120000Y-86047836D02*
X178120000Y-85832164D01*
X163977836Y-119430000D02*
X163762164Y-119430000D01*
X163977836Y-120150000D02*
X163762164Y-120150000D01*
X163947836Y-121310000D02*
X163732164Y-121310000D01*
X163947836Y-120590000D02*
X163732164Y-120590000D01*
X172610000Y-110402164D02*
X172610000Y-110617836D01*
X173330000Y-110402164D02*
X173330000Y-110617836D01*
X179740000Y-104142164D02*
X179740000Y-104357836D01*
X180460000Y-104142164D02*
X180460000Y-104357836D01*
X200110000Y-111357836D02*
X200110000Y-111142164D01*
X200830000Y-111357836D02*
X200830000Y-111142164D01*
D12*
X205648000Y-101045000D02*
X208848000Y-101045000D01*
X208848000Y-101045000D02*
X208848000Y-96145000D01*
X208848000Y-96145000D02*
X205648000Y-96145000D01*
X205648000Y-96145000D02*
X205648000Y-101045000D01*
X203773000Y-101200000D02*
X205298000Y-101200000D01*
X192890000Y-117990000D02*
X197490000Y-117990000D01*
X197490000Y-117990000D02*
X197490000Y-107790000D01*
X197490000Y-107790000D02*
X192890000Y-107790000D01*
X192890000Y-107790000D02*
X192890000Y-117990000D01*
X190740000Y-117690000D02*
X192540000Y-117690000D01*
D11*
X202266359Y-96330000D02*
X202573641Y-96330000D01*
X202266359Y-95570000D02*
X202573641Y-95570000D01*
X188263641Y-115650000D02*
X187956359Y-115650000D01*
X188263641Y-116410000D02*
X187956359Y-116410000D01*
X206381000Y-126732000D02*
G75*
G03*
X206381000Y-126732000I-381000J0D01*
G01*
X167411252Y-85100000D02*
X165988748Y-85100000D01*
X167411252Y-87820000D02*
X165988748Y-87820000D01*
X181501252Y-87410000D02*
X180078748Y-87410000D01*
X181501252Y-84690000D02*
X180078748Y-84690000D01*
D10*
X206429047Y-96337142D02*
X206476666Y-96384761D01*
X206619523Y-96432380D01*
X206714761Y-96432380D01*
X206857619Y-96384761D01*
X206952857Y-96289523D01*
X207000476Y-96194285D01*
X207048095Y-96003809D01*
X207048095Y-95860952D01*
X207000476Y-95670476D01*
X206952857Y-95575238D01*
X206857619Y-95480000D01*
X206714761Y-95432380D01*
X206619523Y-95432380D01*
X206476666Y-95480000D01*
X206429047Y-95527619D01*
X206048095Y-95527619D02*
X206000476Y-95480000D01*
X205905238Y-95432380D01*
X205667142Y-95432380D01*
X205571904Y-95480000D01*
X205524285Y-95527619D01*
X205476666Y-95622857D01*
X205476666Y-95718095D01*
X205524285Y-95860952D01*
X206095714Y-96432380D01*
X205476666Y-96432380D01*
X204524285Y-96432380D02*
X205095714Y-96432380D01*
X204810000Y-96432380D02*
X204810000Y-95432380D01*
X204905238Y-95575238D01*
X205000476Y-95670476D01*
X205095714Y-95718095D01*
X204190952Y-95432380D02*
X203571904Y-95432380D01*
X203905238Y-95813333D01*
X203762380Y-95813333D01*
X203667142Y-95860952D01*
X203619523Y-95908571D01*
X203571904Y-96003809D01*
X203571904Y-96241904D01*
X203619523Y-96337142D01*
X203667142Y-96384761D01*
X203762380Y-96432380D01*
X204048095Y-96432380D01*
X204143333Y-96384761D01*
X204190952Y-96337142D01*
D13*
X188389285Y-85609285D02*
X188639285Y-85252142D01*
X188817857Y-85609285D02*
X188817857Y-84859285D01*
X188532142Y-84859285D01*
X188460714Y-84895000D01*
X188425000Y-84930714D01*
X188389285Y-85002142D01*
X188389285Y-85109285D01*
X188425000Y-85180714D01*
X188460714Y-85216428D01*
X188532142Y-85252142D01*
X188817857Y-85252142D01*
X188103571Y-84930714D02*
X188067857Y-84895000D01*
X187996428Y-84859285D01*
X187817857Y-84859285D01*
X187746428Y-84895000D01*
X187710714Y-84930714D01*
X187675000Y-85002142D01*
X187675000Y-85073571D01*
X187710714Y-85180714D01*
X188139285Y-85609285D01*
X187675000Y-85609285D01*
X187210714Y-84859285D02*
X187139285Y-84859285D01*
X187067857Y-84895000D01*
X187032142Y-84930714D01*
X186996428Y-85002142D01*
X186960714Y-85145000D01*
X186960714Y-85323571D01*
X186996428Y-85466428D01*
X187032142Y-85537857D01*
X187067857Y-85573571D01*
X187139285Y-85609285D01*
X187210714Y-85609285D01*
X187282142Y-85573571D01*
X187317857Y-85537857D01*
X187353571Y-85466428D01*
X187389285Y-85323571D01*
X187389285Y-85145000D01*
X187353571Y-85002142D01*
X187317857Y-84930714D01*
X187282142Y-84895000D01*
X187210714Y-84859285D01*
X186675000Y-84930714D02*
X186639285Y-84895000D01*
X186567857Y-84859285D01*
X186389285Y-84859285D01*
X186317857Y-84895000D01*
X186282142Y-84930714D01*
X186246428Y-85002142D01*
X186246428Y-85073571D01*
X186282142Y-85180714D01*
X186710714Y-85609285D01*
X186246428Y-85609285D01*
D10*
X188834047Y-92907142D02*
X188881666Y-92954761D01*
X189024523Y-93002380D01*
X189119761Y-93002380D01*
X189262619Y-92954761D01*
X189357857Y-92859523D01*
X189405476Y-92764285D01*
X189453095Y-92573809D01*
X189453095Y-92430952D01*
X189405476Y-92240476D01*
X189357857Y-92145238D01*
X189262619Y-92050000D01*
X189119761Y-92002380D01*
X189024523Y-92002380D01*
X188881666Y-92050000D01*
X188834047Y-92097619D01*
X188453095Y-92097619D02*
X188405476Y-92050000D01*
X188310238Y-92002380D01*
X188072142Y-92002380D01*
X187976904Y-92050000D01*
X187929285Y-92097619D01*
X187881666Y-92192857D01*
X187881666Y-92288095D01*
X187929285Y-92430952D01*
X188500714Y-93002380D01*
X187881666Y-93002380D01*
X186929285Y-93002380D02*
X187500714Y-93002380D01*
X187215000Y-93002380D02*
X187215000Y-92002380D01*
X187310238Y-92145238D01*
X187405476Y-92240476D01*
X187500714Y-92288095D01*
X185976904Y-93002380D02*
X186548333Y-93002380D01*
X186262619Y-93002380D02*
X186262619Y-92002380D01*
X186357857Y-92145238D01*
X186453095Y-92240476D01*
X186548333Y-92288095D01*
X188769047Y-96907142D02*
X188816666Y-96954761D01*
X188959523Y-97002380D01*
X189054761Y-97002380D01*
X189197619Y-96954761D01*
X189292857Y-96859523D01*
X189340476Y-96764285D01*
X189388095Y-96573809D01*
X189388095Y-96430952D01*
X189340476Y-96240476D01*
X189292857Y-96145238D01*
X189197619Y-96050000D01*
X189054761Y-96002380D01*
X188959523Y-96002380D01*
X188816666Y-96050000D01*
X188769047Y-96097619D01*
X188388095Y-96097619D02*
X188340476Y-96050000D01*
X188245238Y-96002380D01*
X188007142Y-96002380D01*
X187911904Y-96050000D01*
X187864285Y-96097619D01*
X187816666Y-96192857D01*
X187816666Y-96288095D01*
X187864285Y-96430952D01*
X188435714Y-97002380D01*
X187816666Y-97002380D01*
X187197619Y-96002380D02*
X187102380Y-96002380D01*
X187007142Y-96050000D01*
X186959523Y-96097619D01*
X186911904Y-96192857D01*
X186864285Y-96383333D01*
X186864285Y-96621428D01*
X186911904Y-96811904D01*
X186959523Y-96907142D01*
X187007142Y-96954761D01*
X187102380Y-97002380D01*
X187197619Y-97002380D01*
X187292857Y-96954761D01*
X187340476Y-96907142D01*
X187388095Y-96811904D01*
X187435714Y-96621428D01*
X187435714Y-96383333D01*
X187388095Y-96192857D01*
X187340476Y-96097619D01*
X187292857Y-96050000D01*
X187197619Y-96002380D01*
X186388095Y-97002380D02*
X186197619Y-97002380D01*
X186102380Y-96954761D01*
X186054761Y-96907142D01*
X185959523Y-96764285D01*
X185911904Y-96573809D01*
X185911904Y-96192857D01*
X185959523Y-96097619D01*
X186007142Y-96050000D01*
X186102380Y-96002380D01*
X186292857Y-96002380D01*
X186388095Y-96050000D01*
X186435714Y-96097619D01*
X186483333Y-96192857D01*
X186483333Y-96430952D01*
X186435714Y-96526190D01*
X186388095Y-96573809D01*
X186292857Y-96621428D01*
X186102380Y-96621428D01*
X186007142Y-96573809D01*
X185959523Y-96526190D01*
X185911904Y-96430952D01*
X190869047Y-83117142D02*
X190916666Y-83164761D01*
X191059523Y-83212380D01*
X191154761Y-83212380D01*
X191297619Y-83164761D01*
X191392857Y-83069523D01*
X191440476Y-82974285D01*
X191488095Y-82783809D01*
X191488095Y-82640952D01*
X191440476Y-82450476D01*
X191392857Y-82355238D01*
X191297619Y-82260000D01*
X191154761Y-82212380D01*
X191059523Y-82212380D01*
X190916666Y-82260000D01*
X190869047Y-82307619D01*
X190488095Y-82307619D02*
X190440476Y-82260000D01*
X190345238Y-82212380D01*
X190107142Y-82212380D01*
X190011904Y-82260000D01*
X189964285Y-82307619D01*
X189916666Y-82402857D01*
X189916666Y-82498095D01*
X189964285Y-82640952D01*
X190535714Y-83212380D01*
X189916666Y-83212380D01*
X189297619Y-82212380D02*
X189202380Y-82212380D01*
X189107142Y-82260000D01*
X189059523Y-82307619D01*
X189011904Y-82402857D01*
X188964285Y-82593333D01*
X188964285Y-82831428D01*
X189011904Y-83021904D01*
X189059523Y-83117142D01*
X189107142Y-83164761D01*
X189202380Y-83212380D01*
X189297619Y-83212380D01*
X189392857Y-83164761D01*
X189440476Y-83117142D01*
X189488095Y-83021904D01*
X189535714Y-82831428D01*
X189535714Y-82593333D01*
X189488095Y-82402857D01*
X189440476Y-82307619D01*
X189392857Y-82260000D01*
X189297619Y-82212380D01*
X188392857Y-82640952D02*
X188488095Y-82593333D01*
X188535714Y-82545714D01*
X188583333Y-82450476D01*
X188583333Y-82402857D01*
X188535714Y-82307619D01*
X188488095Y-82260000D01*
X188392857Y-82212380D01*
X188202380Y-82212380D01*
X188107142Y-82260000D01*
X188059523Y-82307619D01*
X188011904Y-82402857D01*
X188011904Y-82450476D01*
X188059523Y-82545714D01*
X188107142Y-82593333D01*
X188202380Y-82640952D01*
X188392857Y-82640952D01*
X188488095Y-82688571D01*
X188535714Y-82736190D01*
X188583333Y-82831428D01*
X188583333Y-83021904D01*
X188535714Y-83117142D01*
X188488095Y-83164761D01*
X188392857Y-83212380D01*
X188202380Y-83212380D01*
X188107142Y-83164761D01*
X188059523Y-83117142D01*
X188011904Y-83021904D01*
X188011904Y-82831428D01*
X188059523Y-82736190D01*
X188107142Y-82688571D01*
X188202380Y-82640952D01*
X206384047Y-93017142D02*
X206431666Y-93064761D01*
X206574523Y-93112380D01*
X206669761Y-93112380D01*
X206812619Y-93064761D01*
X206907857Y-92969523D01*
X206955476Y-92874285D01*
X207003095Y-92683809D01*
X207003095Y-92540952D01*
X206955476Y-92350476D01*
X206907857Y-92255238D01*
X206812619Y-92160000D01*
X206669761Y-92112380D01*
X206574523Y-92112380D01*
X206431666Y-92160000D01*
X206384047Y-92207619D01*
X206003095Y-92207619D02*
X205955476Y-92160000D01*
X205860238Y-92112380D01*
X205622142Y-92112380D01*
X205526904Y-92160000D01*
X205479285Y-92207619D01*
X205431666Y-92302857D01*
X205431666Y-92398095D01*
X205479285Y-92540952D01*
X206050714Y-93112380D01*
X205431666Y-93112380D01*
X204812619Y-92112380D02*
X204717380Y-92112380D01*
X204622142Y-92160000D01*
X204574523Y-92207619D01*
X204526904Y-92302857D01*
X204479285Y-92493333D01*
X204479285Y-92731428D01*
X204526904Y-92921904D01*
X204574523Y-93017142D01*
X204622142Y-93064761D01*
X204717380Y-93112380D01*
X204812619Y-93112380D01*
X204907857Y-93064761D01*
X204955476Y-93017142D01*
X205003095Y-92921904D01*
X205050714Y-92731428D01*
X205050714Y-92493333D01*
X205003095Y-92302857D01*
X204955476Y-92207619D01*
X204907857Y-92160000D01*
X204812619Y-92112380D01*
X203622142Y-92445714D02*
X203622142Y-93112380D01*
X203860238Y-92064761D02*
X204098333Y-92779047D01*
X203479285Y-92779047D01*
D13*
X197194285Y-86517857D02*
X197230000Y-86553571D01*
X197337142Y-86589285D01*
X197408571Y-86589285D01*
X197515714Y-86553571D01*
X197587142Y-86482142D01*
X197622857Y-86410714D01*
X197658571Y-86267857D01*
X197658571Y-86160714D01*
X197622857Y-86017857D01*
X197587142Y-85946428D01*
X197515714Y-85875000D01*
X197408571Y-85839285D01*
X197337142Y-85839285D01*
X197230000Y-85875000D01*
X197194285Y-85910714D01*
X196908571Y-85910714D02*
X196872857Y-85875000D01*
X196801428Y-85839285D01*
X196622857Y-85839285D01*
X196551428Y-85875000D01*
X196515714Y-85910714D01*
X196480000Y-85982142D01*
X196480000Y-86053571D01*
X196515714Y-86160714D01*
X196944285Y-86589285D01*
X196480000Y-86589285D01*
X196015714Y-85839285D02*
X195944285Y-85839285D01*
X195872857Y-85875000D01*
X195837142Y-85910714D01*
X195801428Y-85982142D01*
X195765714Y-86125000D01*
X195765714Y-86303571D01*
X195801428Y-86446428D01*
X195837142Y-86517857D01*
X195872857Y-86553571D01*
X195944285Y-86589285D01*
X196015714Y-86589285D01*
X196087142Y-86553571D01*
X196122857Y-86517857D01*
X196158571Y-86446428D01*
X196194285Y-86303571D01*
X196194285Y-86125000D01*
X196158571Y-85982142D01*
X196122857Y-85910714D01*
X196087142Y-85875000D01*
X196015714Y-85839285D01*
X195480000Y-85910714D02*
X195444285Y-85875000D01*
X195372857Y-85839285D01*
X195194285Y-85839285D01*
X195122857Y-85875000D01*
X195087142Y-85910714D01*
X195051428Y-85982142D01*
X195051428Y-86053571D01*
X195087142Y-86160714D01*
X195515714Y-86589285D01*
X195051428Y-86589285D01*
D10*
X199282142Y-86210952D02*
X199329761Y-86163333D01*
X199377380Y-86020476D01*
X199377380Y-85925238D01*
X199329761Y-85782380D01*
X199234523Y-85687142D01*
X199139285Y-85639523D01*
X198948809Y-85591904D01*
X198805952Y-85591904D01*
X198615476Y-85639523D01*
X198520238Y-85687142D01*
X198425000Y-85782380D01*
X198377380Y-85925238D01*
X198377380Y-86020476D01*
X198425000Y-86163333D01*
X198472619Y-86210952D01*
X198472619Y-86591904D02*
X198425000Y-86639523D01*
X198377380Y-86734761D01*
X198377380Y-86972857D01*
X198425000Y-87068095D01*
X198472619Y-87115714D01*
X198567857Y-87163333D01*
X198663095Y-87163333D01*
X198805952Y-87115714D01*
X199377380Y-86544285D01*
X199377380Y-87163333D01*
X198377380Y-87782380D02*
X198377380Y-87877619D01*
X198425000Y-87972857D01*
X198472619Y-88020476D01*
X198567857Y-88068095D01*
X198758333Y-88115714D01*
X198996428Y-88115714D01*
X199186904Y-88068095D01*
X199282142Y-88020476D01*
X199329761Y-87972857D01*
X199377380Y-87877619D01*
X199377380Y-87782380D01*
X199329761Y-87687142D01*
X199282142Y-87639523D01*
X199186904Y-87591904D01*
X198996428Y-87544285D01*
X198758333Y-87544285D01*
X198567857Y-87591904D01*
X198472619Y-87639523D01*
X198425000Y-87687142D01*
X198377380Y-87782380D01*
X199377380Y-89068095D02*
X199377380Y-88496666D01*
X199377380Y-88782380D02*
X198377380Y-88782380D01*
X198520238Y-88687142D01*
X198615476Y-88591904D01*
X198663095Y-88496666D01*
X170967142Y-109380952D02*
X171014761Y-109333333D01*
X171062380Y-109190476D01*
X171062380Y-109095238D01*
X171014761Y-108952380D01*
X170919523Y-108857142D01*
X170824285Y-108809523D01*
X170633809Y-108761904D01*
X170490952Y-108761904D01*
X170300476Y-108809523D01*
X170205238Y-108857142D01*
X170110000Y-108952380D01*
X170062380Y-109095238D01*
X170062380Y-109190476D01*
X170110000Y-109333333D01*
X170157619Y-109380952D01*
X170062380Y-110285714D02*
X170062380Y-109809523D01*
X170538571Y-109761904D01*
X170490952Y-109809523D01*
X170443333Y-109904761D01*
X170443333Y-110142857D01*
X170490952Y-110238095D01*
X170538571Y-110285714D01*
X170633809Y-110333333D01*
X170871904Y-110333333D01*
X170967142Y-110285714D01*
X171014761Y-110238095D01*
X171062380Y-110142857D01*
X171062380Y-109904761D01*
X171014761Y-109809523D01*
X170967142Y-109761904D01*
X170062380Y-110952380D02*
X170062380Y-111047619D01*
X170110000Y-111142857D01*
X170157619Y-111190476D01*
X170252857Y-111238095D01*
X170443333Y-111285714D01*
X170681428Y-111285714D01*
X170871904Y-111238095D01*
X170967142Y-111190476D01*
X171014761Y-111142857D01*
X171062380Y-111047619D01*
X171062380Y-110952380D01*
X171014761Y-110857142D01*
X170967142Y-110809523D01*
X170871904Y-110761904D01*
X170681428Y-110714285D01*
X170443333Y-110714285D01*
X170252857Y-110761904D01*
X170157619Y-110809523D01*
X170110000Y-110857142D01*
X170062380Y-110952380D01*
X170062380Y-112190476D02*
X170062380Y-111714285D01*
X170538571Y-111666666D01*
X170490952Y-111714285D01*
X170443333Y-111809523D01*
X170443333Y-112047619D01*
X170490952Y-112142857D01*
X170538571Y-112190476D01*
X170633809Y-112238095D01*
X170871904Y-112238095D01*
X170967142Y-112190476D01*
X171014761Y-112142857D01*
X171062380Y-112047619D01*
X171062380Y-111809523D01*
X171014761Y-111714285D01*
X170967142Y-111666666D01*
X177897142Y-103080952D02*
X177944761Y-103033333D01*
X177992380Y-102890476D01*
X177992380Y-102795238D01*
X177944761Y-102652380D01*
X177849523Y-102557142D01*
X177754285Y-102509523D01*
X177563809Y-102461904D01*
X177420952Y-102461904D01*
X177230476Y-102509523D01*
X177135238Y-102557142D01*
X177040000Y-102652380D01*
X176992380Y-102795238D01*
X176992380Y-102890476D01*
X177040000Y-103033333D01*
X177087619Y-103080952D01*
X176992380Y-103985714D02*
X176992380Y-103509523D01*
X177468571Y-103461904D01*
X177420952Y-103509523D01*
X177373333Y-103604761D01*
X177373333Y-103842857D01*
X177420952Y-103938095D01*
X177468571Y-103985714D01*
X177563809Y-104033333D01*
X177801904Y-104033333D01*
X177897142Y-103985714D01*
X177944761Y-103938095D01*
X177992380Y-103842857D01*
X177992380Y-103604761D01*
X177944761Y-103509523D01*
X177897142Y-103461904D01*
X176992380Y-104652380D02*
X176992380Y-104747619D01*
X177040000Y-104842857D01*
X177087619Y-104890476D01*
X177182857Y-104938095D01*
X177373333Y-104985714D01*
X177611428Y-104985714D01*
X177801904Y-104938095D01*
X177897142Y-104890476D01*
X177944761Y-104842857D01*
X177992380Y-104747619D01*
X177992380Y-104652380D01*
X177944761Y-104557142D01*
X177897142Y-104509523D01*
X177801904Y-104461904D01*
X177611428Y-104414285D01*
X177373333Y-104414285D01*
X177182857Y-104461904D01*
X177087619Y-104509523D01*
X177040000Y-104557142D01*
X176992380Y-104652380D01*
X176992380Y-105842857D02*
X176992380Y-105652380D01*
X177040000Y-105557142D01*
X177087619Y-105509523D01*
X177230476Y-105414285D01*
X177420952Y-105366666D01*
X177801904Y-105366666D01*
X177897142Y-105414285D01*
X177944761Y-105461904D01*
X177992380Y-105557142D01*
X177992380Y-105747619D01*
X177944761Y-105842857D01*
X177897142Y-105890476D01*
X177801904Y-105938095D01*
X177563809Y-105938095D01*
X177468571Y-105890476D01*
X177420952Y-105842857D01*
X177373333Y-105747619D01*
X177373333Y-105557142D01*
X177420952Y-105461904D01*
X177468571Y-105414285D01*
X177563809Y-105366666D01*
X205029047Y-95687142D02*
X205076666Y-95734761D01*
X205219523Y-95782380D01*
X205314761Y-95782380D01*
X205457619Y-95734761D01*
X205552857Y-95639523D01*
X205600476Y-95544285D01*
X205648095Y-95353809D01*
X205648095Y-95210952D01*
X205600476Y-95020476D01*
X205552857Y-94925238D01*
X205457619Y-94830000D01*
X205314761Y-94782380D01*
X205219523Y-94782380D01*
X205076666Y-94830000D01*
X205029047Y-94877619D01*
X204648095Y-94877619D02*
X204600476Y-94830000D01*
X204505238Y-94782380D01*
X204267142Y-94782380D01*
X204171904Y-94830000D01*
X204124285Y-94877619D01*
X204076666Y-94972857D01*
X204076666Y-95068095D01*
X204124285Y-95210952D01*
X204695714Y-95782380D01*
X204076666Y-95782380D01*
X203457619Y-94782380D02*
X203362380Y-94782380D01*
X203267142Y-94830000D01*
X203219523Y-94877619D01*
X203171904Y-94972857D01*
X203124285Y-95163333D01*
X203124285Y-95401428D01*
X203171904Y-95591904D01*
X203219523Y-95687142D01*
X203267142Y-95734761D01*
X203362380Y-95782380D01*
X203457619Y-95782380D01*
X203552857Y-95734761D01*
X203600476Y-95687142D01*
X203648095Y-95591904D01*
X203695714Y-95401428D01*
X203695714Y-95163333D01*
X203648095Y-94972857D01*
X203600476Y-94877619D01*
X203552857Y-94830000D01*
X203457619Y-94782380D01*
X202219523Y-94782380D02*
X202695714Y-94782380D01*
X202743333Y-95258571D01*
X202695714Y-95210952D01*
X202600476Y-95163333D01*
X202362380Y-95163333D01*
X202267142Y-95210952D01*
X202219523Y-95258571D01*
X202171904Y-95353809D01*
X202171904Y-95591904D01*
X202219523Y-95687142D01*
X202267142Y-95734761D01*
X202362380Y-95782380D01*
X202600476Y-95782380D01*
X202695714Y-95734761D01*
X202743333Y-95687142D01*
X191589047Y-87517142D02*
X191636666Y-87564761D01*
X191779523Y-87612380D01*
X191874761Y-87612380D01*
X192017619Y-87564761D01*
X192112857Y-87469523D01*
X192160476Y-87374285D01*
X192208095Y-87183809D01*
X192208095Y-87040952D01*
X192160476Y-86850476D01*
X192112857Y-86755238D01*
X192017619Y-86660000D01*
X191874761Y-86612380D01*
X191779523Y-86612380D01*
X191636666Y-86660000D01*
X191589047Y-86707619D01*
X191208095Y-86707619D02*
X191160476Y-86660000D01*
X191065238Y-86612380D01*
X190827142Y-86612380D01*
X190731904Y-86660000D01*
X190684285Y-86707619D01*
X190636666Y-86802857D01*
X190636666Y-86898095D01*
X190684285Y-87040952D01*
X191255714Y-87612380D01*
X190636666Y-87612380D01*
X190017619Y-86612380D02*
X189922380Y-86612380D01*
X189827142Y-86660000D01*
X189779523Y-86707619D01*
X189731904Y-86802857D01*
X189684285Y-86993333D01*
X189684285Y-87231428D01*
X189731904Y-87421904D01*
X189779523Y-87517142D01*
X189827142Y-87564761D01*
X189922380Y-87612380D01*
X190017619Y-87612380D01*
X190112857Y-87564761D01*
X190160476Y-87517142D01*
X190208095Y-87421904D01*
X190255714Y-87231428D01*
X190255714Y-86993333D01*
X190208095Y-86802857D01*
X190160476Y-86707619D01*
X190112857Y-86660000D01*
X190017619Y-86612380D01*
X188827142Y-86612380D02*
X189017619Y-86612380D01*
X189112857Y-86660000D01*
X189160476Y-86707619D01*
X189255714Y-86850476D01*
X189303333Y-87040952D01*
X189303333Y-87421904D01*
X189255714Y-87517142D01*
X189208095Y-87564761D01*
X189112857Y-87612380D01*
X188922380Y-87612380D01*
X188827142Y-87564761D01*
X188779523Y-87517142D01*
X188731904Y-87421904D01*
X188731904Y-87183809D01*
X188779523Y-87088571D01*
X188827142Y-87040952D01*
X188922380Y-86993333D01*
X189112857Y-86993333D01*
X189208095Y-87040952D01*
X189255714Y-87088571D01*
X189303333Y-87183809D01*
X193217142Y-84230952D02*
X193264761Y-84183333D01*
X193312380Y-84040476D01*
X193312380Y-83945238D01*
X193264761Y-83802380D01*
X193169523Y-83707142D01*
X193074285Y-83659523D01*
X192883809Y-83611904D01*
X192740952Y-83611904D01*
X192550476Y-83659523D01*
X192455238Y-83707142D01*
X192360000Y-83802380D01*
X192312380Y-83945238D01*
X192312380Y-84040476D01*
X192360000Y-84183333D01*
X192407619Y-84230952D01*
X192407619Y-84611904D02*
X192360000Y-84659523D01*
X192312380Y-84754761D01*
X192312380Y-84992857D01*
X192360000Y-85088095D01*
X192407619Y-85135714D01*
X192502857Y-85183333D01*
X192598095Y-85183333D01*
X192740952Y-85135714D01*
X193312380Y-84564285D01*
X193312380Y-85183333D01*
X193312380Y-86135714D02*
X193312380Y-85564285D01*
X193312380Y-85850000D02*
X192312380Y-85850000D01*
X192455238Y-85754761D01*
X192550476Y-85659523D01*
X192598095Y-85564285D01*
X192312380Y-86754761D02*
X192312380Y-86850000D01*
X192360000Y-86945238D01*
X192407619Y-86992857D01*
X192502857Y-87040476D01*
X192693333Y-87088095D01*
X192931428Y-87088095D01*
X193121904Y-87040476D01*
X193217142Y-86992857D01*
X193264761Y-86945238D01*
X193312380Y-86850000D01*
X193312380Y-86754761D01*
X193264761Y-86659523D01*
X193217142Y-86611904D01*
X193121904Y-86564285D01*
X192931428Y-86516666D01*
X192693333Y-86516666D01*
X192502857Y-86564285D01*
X192407619Y-86611904D01*
X192360000Y-86659523D01*
X192312380Y-86754761D01*
X162107142Y-85190952D02*
X162154761Y-85143333D01*
X162202380Y-85000476D01*
X162202380Y-84905238D01*
X162154761Y-84762380D01*
X162059523Y-84667142D01*
X161964285Y-84619523D01*
X161773809Y-84571904D01*
X161630952Y-84571904D01*
X161440476Y-84619523D01*
X161345238Y-84667142D01*
X161250000Y-84762380D01*
X161202380Y-84905238D01*
X161202380Y-85000476D01*
X161250000Y-85143333D01*
X161297619Y-85190952D01*
X161202380Y-85524285D02*
X161202380Y-86143333D01*
X161583333Y-85810000D01*
X161583333Y-85952857D01*
X161630952Y-86048095D01*
X161678571Y-86095714D01*
X161773809Y-86143333D01*
X162011904Y-86143333D01*
X162107142Y-86095714D01*
X162154761Y-86048095D01*
X162202380Y-85952857D01*
X162202380Y-85667142D01*
X162154761Y-85571904D01*
X162107142Y-85524285D01*
X161202380Y-86762380D02*
X161202380Y-86857619D01*
X161250000Y-86952857D01*
X161297619Y-87000476D01*
X161392857Y-87048095D01*
X161583333Y-87095714D01*
X161821428Y-87095714D01*
X162011904Y-87048095D01*
X162107142Y-87000476D01*
X162154761Y-86952857D01*
X162202380Y-86857619D01*
X162202380Y-86762380D01*
X162154761Y-86667142D01*
X162107142Y-86619523D01*
X162011904Y-86571904D01*
X161821428Y-86524285D01*
X161583333Y-86524285D01*
X161392857Y-86571904D01*
X161297619Y-86619523D01*
X161250000Y-86667142D01*
X161202380Y-86762380D01*
X161202380Y-87429047D02*
X161202380Y-88095714D01*
X162202380Y-87667142D01*
X176857142Y-84730952D02*
X176904761Y-84683333D01*
X176952380Y-84540476D01*
X176952380Y-84445238D01*
X176904761Y-84302380D01*
X176809523Y-84207142D01*
X176714285Y-84159523D01*
X176523809Y-84111904D01*
X176380952Y-84111904D01*
X176190476Y-84159523D01*
X176095238Y-84207142D01*
X176000000Y-84302380D01*
X175952380Y-84445238D01*
X175952380Y-84540476D01*
X176000000Y-84683333D01*
X176047619Y-84730952D01*
X175952380Y-85064285D02*
X175952380Y-85683333D01*
X176333333Y-85350000D01*
X176333333Y-85492857D01*
X176380952Y-85588095D01*
X176428571Y-85635714D01*
X176523809Y-85683333D01*
X176761904Y-85683333D01*
X176857142Y-85635714D01*
X176904761Y-85588095D01*
X176952380Y-85492857D01*
X176952380Y-85207142D01*
X176904761Y-85111904D01*
X176857142Y-85064285D01*
X175952380Y-86302380D02*
X175952380Y-86397619D01*
X176000000Y-86492857D01*
X176047619Y-86540476D01*
X176142857Y-86588095D01*
X176333333Y-86635714D01*
X176571428Y-86635714D01*
X176761904Y-86588095D01*
X176857142Y-86540476D01*
X176904761Y-86492857D01*
X176952380Y-86397619D01*
X176952380Y-86302380D01*
X176904761Y-86207142D01*
X176857142Y-86159523D01*
X176761904Y-86111904D01*
X176571428Y-86064285D01*
X176333333Y-86064285D01*
X176142857Y-86111904D01*
X176047619Y-86159523D01*
X176000000Y-86207142D01*
X175952380Y-86302380D01*
X176380952Y-87207142D02*
X176333333Y-87111904D01*
X176285714Y-87064285D01*
X176190476Y-87016666D01*
X176142857Y-87016666D01*
X176047619Y-87064285D01*
X176000000Y-87111904D01*
X175952380Y-87207142D01*
X175952380Y-87397619D01*
X176000000Y-87492857D01*
X176047619Y-87540476D01*
X176142857Y-87588095D01*
X176190476Y-87588095D01*
X176285714Y-87540476D01*
X176333333Y-87492857D01*
X176380952Y-87397619D01*
X176380952Y-87207142D01*
X176428571Y-87111904D01*
X176476190Y-87064285D01*
X176571428Y-87016666D01*
X176761904Y-87016666D01*
X176857142Y-87064285D01*
X176904761Y-87111904D01*
X176952380Y-87207142D01*
X176952380Y-87397619D01*
X176904761Y-87492857D01*
X176857142Y-87540476D01*
X176761904Y-87588095D01*
X176571428Y-87588095D01*
X176476190Y-87540476D01*
X176428571Y-87492857D01*
X176380952Y-87397619D01*
X164989047Y-118987142D02*
X165036666Y-119034761D01*
X165179523Y-119082380D01*
X165274761Y-119082380D01*
X165417619Y-119034761D01*
X165512857Y-118939523D01*
X165560476Y-118844285D01*
X165608095Y-118653809D01*
X165608095Y-118510952D01*
X165560476Y-118320476D01*
X165512857Y-118225238D01*
X165417619Y-118130000D01*
X165274761Y-118082380D01*
X165179523Y-118082380D01*
X165036666Y-118130000D01*
X164989047Y-118177619D01*
X164131904Y-118415714D02*
X164131904Y-119082380D01*
X164370000Y-118034761D02*
X164608095Y-118749047D01*
X163989047Y-118749047D01*
X163417619Y-118082380D02*
X163322380Y-118082380D01*
X163227142Y-118130000D01*
X163179523Y-118177619D01*
X163131904Y-118272857D01*
X163084285Y-118463333D01*
X163084285Y-118701428D01*
X163131904Y-118891904D01*
X163179523Y-118987142D01*
X163227142Y-119034761D01*
X163322380Y-119082380D01*
X163417619Y-119082380D01*
X163512857Y-119034761D01*
X163560476Y-118987142D01*
X163608095Y-118891904D01*
X163655714Y-118701428D01*
X163655714Y-118463333D01*
X163608095Y-118272857D01*
X163560476Y-118177619D01*
X163512857Y-118130000D01*
X163417619Y-118082380D01*
X162750952Y-118082380D02*
X162131904Y-118082380D01*
X162465238Y-118463333D01*
X162322380Y-118463333D01*
X162227142Y-118510952D01*
X162179523Y-118558571D01*
X162131904Y-118653809D01*
X162131904Y-118891904D01*
X162179523Y-118987142D01*
X162227142Y-119034761D01*
X162322380Y-119082380D01*
X162608095Y-119082380D01*
X162703333Y-119034761D01*
X162750952Y-118987142D01*
X164819047Y-122607142D02*
X164866666Y-122654761D01*
X165009523Y-122702380D01*
X165104761Y-122702380D01*
X165247619Y-122654761D01*
X165342857Y-122559523D01*
X165390476Y-122464285D01*
X165438095Y-122273809D01*
X165438095Y-122130952D01*
X165390476Y-121940476D01*
X165342857Y-121845238D01*
X165247619Y-121750000D01*
X165104761Y-121702380D01*
X165009523Y-121702380D01*
X164866666Y-121750000D01*
X164819047Y-121797619D01*
X163961904Y-122035714D02*
X163961904Y-122702380D01*
X164200000Y-121654761D02*
X164438095Y-122369047D01*
X163819047Y-122369047D01*
X163247619Y-121702380D02*
X163152380Y-121702380D01*
X163057142Y-121750000D01*
X163009523Y-121797619D01*
X162961904Y-121892857D01*
X162914285Y-122083333D01*
X162914285Y-122321428D01*
X162961904Y-122511904D01*
X163009523Y-122607142D01*
X163057142Y-122654761D01*
X163152380Y-122702380D01*
X163247619Y-122702380D01*
X163342857Y-122654761D01*
X163390476Y-122607142D01*
X163438095Y-122511904D01*
X163485714Y-122321428D01*
X163485714Y-122083333D01*
X163438095Y-121892857D01*
X163390476Y-121797619D01*
X163342857Y-121750000D01*
X163247619Y-121702380D01*
X162057142Y-122035714D02*
X162057142Y-122702380D01*
X162295238Y-121654761D02*
X162533333Y-122369047D01*
X161914285Y-122369047D01*
X174607142Y-109390952D02*
X174654761Y-109343333D01*
X174702380Y-109200476D01*
X174702380Y-109105238D01*
X174654761Y-108962380D01*
X174559523Y-108867142D01*
X174464285Y-108819523D01*
X174273809Y-108771904D01*
X174130952Y-108771904D01*
X173940476Y-108819523D01*
X173845238Y-108867142D01*
X173750000Y-108962380D01*
X173702380Y-109105238D01*
X173702380Y-109200476D01*
X173750000Y-109343333D01*
X173797619Y-109390952D01*
X173702380Y-110295714D02*
X173702380Y-109819523D01*
X174178571Y-109771904D01*
X174130952Y-109819523D01*
X174083333Y-109914761D01*
X174083333Y-110152857D01*
X174130952Y-110248095D01*
X174178571Y-110295714D01*
X174273809Y-110343333D01*
X174511904Y-110343333D01*
X174607142Y-110295714D01*
X174654761Y-110248095D01*
X174702380Y-110152857D01*
X174702380Y-109914761D01*
X174654761Y-109819523D01*
X174607142Y-109771904D01*
X173702380Y-110962380D02*
X173702380Y-111057619D01*
X173750000Y-111152857D01*
X173797619Y-111200476D01*
X173892857Y-111248095D01*
X174083333Y-111295714D01*
X174321428Y-111295714D01*
X174511904Y-111248095D01*
X174607142Y-111200476D01*
X174654761Y-111152857D01*
X174702380Y-111057619D01*
X174702380Y-110962380D01*
X174654761Y-110867142D01*
X174607142Y-110819523D01*
X174511904Y-110771904D01*
X174321428Y-110724285D01*
X174083333Y-110724285D01*
X173892857Y-110771904D01*
X173797619Y-110819523D01*
X173750000Y-110867142D01*
X173702380Y-110962380D01*
X174035714Y-112152857D02*
X174702380Y-112152857D01*
X173654761Y-111914761D02*
X174369047Y-111676666D01*
X174369047Y-112295714D01*
X181507142Y-103130952D02*
X181554761Y-103083333D01*
X181602380Y-102940476D01*
X181602380Y-102845238D01*
X181554761Y-102702380D01*
X181459523Y-102607142D01*
X181364285Y-102559523D01*
X181173809Y-102511904D01*
X181030952Y-102511904D01*
X180840476Y-102559523D01*
X180745238Y-102607142D01*
X180650000Y-102702380D01*
X180602380Y-102845238D01*
X180602380Y-102940476D01*
X180650000Y-103083333D01*
X180697619Y-103130952D01*
X180602380Y-104035714D02*
X180602380Y-103559523D01*
X181078571Y-103511904D01*
X181030952Y-103559523D01*
X180983333Y-103654761D01*
X180983333Y-103892857D01*
X181030952Y-103988095D01*
X181078571Y-104035714D01*
X181173809Y-104083333D01*
X181411904Y-104083333D01*
X181507142Y-104035714D01*
X181554761Y-103988095D01*
X181602380Y-103892857D01*
X181602380Y-103654761D01*
X181554761Y-103559523D01*
X181507142Y-103511904D01*
X180602380Y-104702380D02*
X180602380Y-104797619D01*
X180650000Y-104892857D01*
X180697619Y-104940476D01*
X180792857Y-104988095D01*
X180983333Y-105035714D01*
X181221428Y-105035714D01*
X181411904Y-104988095D01*
X181507142Y-104940476D01*
X181554761Y-104892857D01*
X181602380Y-104797619D01*
X181602380Y-104702380D01*
X181554761Y-104607142D01*
X181507142Y-104559523D01*
X181411904Y-104511904D01*
X181221428Y-104464285D01*
X180983333Y-104464285D01*
X180792857Y-104511904D01*
X180697619Y-104559523D01*
X180650000Y-104607142D01*
X180602380Y-104702380D01*
X180602380Y-105369047D02*
X180602380Y-106035714D01*
X181602380Y-105607142D01*
D13*
X201987857Y-110520714D02*
X202023571Y-110485000D01*
X202059285Y-110377857D01*
X202059285Y-110306428D01*
X202023571Y-110199285D01*
X201952142Y-110127857D01*
X201880714Y-110092142D01*
X201737857Y-110056428D01*
X201630714Y-110056428D01*
X201487857Y-110092142D01*
X201416428Y-110127857D01*
X201345000Y-110199285D01*
X201309285Y-110306428D01*
X201309285Y-110377857D01*
X201345000Y-110485000D01*
X201380714Y-110520714D01*
X201309285Y-111163571D02*
X201309285Y-111020714D01*
X201345000Y-110949285D01*
X201380714Y-110913571D01*
X201487857Y-110842142D01*
X201630714Y-110806428D01*
X201916428Y-110806428D01*
X201987857Y-110842142D01*
X202023571Y-110877857D01*
X202059285Y-110949285D01*
X202059285Y-111092142D01*
X202023571Y-111163571D01*
X201987857Y-111199285D01*
X201916428Y-111235000D01*
X201737857Y-111235000D01*
X201666428Y-111199285D01*
X201630714Y-111163571D01*
X201595000Y-111092142D01*
X201595000Y-110949285D01*
X201630714Y-110877857D01*
X201666428Y-110842142D01*
X201737857Y-110806428D01*
X201309285Y-111699285D02*
X201309285Y-111770714D01*
X201345000Y-111842142D01*
X201380714Y-111877857D01*
X201452142Y-111913571D01*
X201595000Y-111949285D01*
X201773571Y-111949285D01*
X201916428Y-111913571D01*
X201987857Y-111877857D01*
X202023571Y-111842142D01*
X202059285Y-111770714D01*
X202059285Y-111699285D01*
X202023571Y-111627857D01*
X201987857Y-111592142D01*
X201916428Y-111556428D01*
X201773571Y-111520714D01*
X201595000Y-111520714D01*
X201452142Y-111556428D01*
X201380714Y-111592142D01*
X201345000Y-111627857D01*
X201309285Y-111699285D01*
X201309285Y-112627857D02*
X201309285Y-112270714D01*
X201666428Y-112235000D01*
X201630714Y-112270714D01*
X201595000Y-112342142D01*
X201595000Y-112520714D01*
X201630714Y-112592142D01*
X201666428Y-112627857D01*
X201737857Y-112663571D01*
X201916428Y-112663571D01*
X201987857Y-112627857D01*
X202023571Y-112592142D01*
X202059285Y-112520714D01*
X202059285Y-112342142D01*
X202023571Y-112270714D01*
X201987857Y-112235000D01*
D10*
X207928571Y-102467380D02*
X207928571Y-101467380D01*
X206880952Y-102372142D02*
X206928571Y-102419761D01*
X207071428Y-102467380D01*
X207166666Y-102467380D01*
X207309523Y-102419761D01*
X207404761Y-102324523D01*
X207452380Y-102229285D01*
X207500000Y-102038809D01*
X207500000Y-101895952D01*
X207452380Y-101705476D01*
X207404761Y-101610238D01*
X207309523Y-101515000D01*
X207166666Y-101467380D01*
X207071428Y-101467380D01*
X206928571Y-101515000D01*
X206880952Y-101562619D01*
X206500000Y-101562619D02*
X206452380Y-101515000D01*
X206357142Y-101467380D01*
X206119047Y-101467380D01*
X206023809Y-101515000D01*
X205976190Y-101562619D01*
X205928571Y-101657857D01*
X205928571Y-101753095D01*
X205976190Y-101895952D01*
X206547619Y-102467380D01*
X205928571Y-102467380D01*
X205309523Y-101467380D02*
X205214285Y-101467380D01*
X205119047Y-101515000D01*
X205071428Y-101562619D01*
X205023809Y-101657857D01*
X204976190Y-101848333D01*
X204976190Y-102086428D01*
X205023809Y-102276904D01*
X205071428Y-102372142D01*
X205119047Y-102419761D01*
X205214285Y-102467380D01*
X205309523Y-102467380D01*
X205404761Y-102419761D01*
X205452380Y-102372142D01*
X205500000Y-102276904D01*
X205547619Y-102086428D01*
X205547619Y-101848333D01*
X205500000Y-101657857D01*
X205452380Y-101562619D01*
X205404761Y-101515000D01*
X205309523Y-101467380D01*
X204119047Y-101800714D02*
X204119047Y-102467380D01*
X204357142Y-101419761D02*
X204595238Y-102134047D01*
X203976190Y-102134047D01*
D14*
X195764523Y-110440714D02*
X194494523Y-110440714D01*
X195643571Y-111771190D02*
X195704047Y-111710714D01*
X195764523Y-111529285D01*
X195764523Y-111408333D01*
X195704047Y-111226904D01*
X195583095Y-111105952D01*
X195462142Y-111045476D01*
X195220238Y-110985000D01*
X195038809Y-110985000D01*
X194796904Y-111045476D01*
X194675952Y-111105952D01*
X194555000Y-111226904D01*
X194494523Y-111408333D01*
X194494523Y-111529285D01*
X194555000Y-111710714D01*
X194615476Y-111771190D01*
X194494523Y-112859761D02*
X194494523Y-112617857D01*
X194555000Y-112496904D01*
X194615476Y-112436428D01*
X194796904Y-112315476D01*
X195038809Y-112255000D01*
X195522619Y-112255000D01*
X195643571Y-112315476D01*
X195704047Y-112375952D01*
X195764523Y-112496904D01*
X195764523Y-112738809D01*
X195704047Y-112859761D01*
X195643571Y-112920238D01*
X195522619Y-112980714D01*
X195220238Y-112980714D01*
X195099285Y-112920238D01*
X195038809Y-112859761D01*
X194978333Y-112738809D01*
X194978333Y-112496904D01*
X195038809Y-112375952D01*
X195099285Y-112315476D01*
X195220238Y-112255000D01*
X194494523Y-113766904D02*
X194494523Y-113887857D01*
X194555000Y-114008809D01*
X194615476Y-114069285D01*
X194736428Y-114129761D01*
X194978333Y-114190238D01*
X195280714Y-114190238D01*
X195522619Y-114129761D01*
X195643571Y-114069285D01*
X195704047Y-114008809D01*
X195764523Y-113887857D01*
X195764523Y-113766904D01*
X195704047Y-113645952D01*
X195643571Y-113585476D01*
X195522619Y-113525000D01*
X195280714Y-113464523D01*
X194978333Y-113464523D01*
X194736428Y-113525000D01*
X194615476Y-113585476D01*
X194555000Y-113645952D01*
X194494523Y-113766904D01*
X194615476Y-114674047D02*
X194555000Y-114734523D01*
X194494523Y-114855476D01*
X194494523Y-115157857D01*
X194555000Y-115278809D01*
X194615476Y-115339285D01*
X194736428Y-115399761D01*
X194857380Y-115399761D01*
X195038809Y-115339285D01*
X195764523Y-114613571D01*
X195764523Y-115399761D01*
D10*
X203539047Y-95007380D02*
X203872380Y-94531190D01*
X204110476Y-95007380D02*
X204110476Y-94007380D01*
X203729523Y-94007380D01*
X203634285Y-94055000D01*
X203586666Y-94102619D01*
X203539047Y-94197857D01*
X203539047Y-94340714D01*
X203586666Y-94435952D01*
X203634285Y-94483571D01*
X203729523Y-94531190D01*
X204110476Y-94531190D01*
X203158095Y-94102619D02*
X203110476Y-94055000D01*
X203015238Y-94007380D01*
X202777142Y-94007380D01*
X202681904Y-94055000D01*
X202634285Y-94102619D01*
X202586666Y-94197857D01*
X202586666Y-94293095D01*
X202634285Y-94435952D01*
X203205714Y-95007380D01*
X202586666Y-95007380D01*
X201967619Y-94007380D02*
X201872380Y-94007380D01*
X201777142Y-94055000D01*
X201729523Y-94102619D01*
X201681904Y-94197857D01*
X201634285Y-94388333D01*
X201634285Y-94626428D01*
X201681904Y-94816904D01*
X201729523Y-94912142D01*
X201777142Y-94959761D01*
X201872380Y-95007380D01*
X201967619Y-95007380D01*
X202062857Y-94959761D01*
X202110476Y-94912142D01*
X202158095Y-94816904D01*
X202205714Y-94626428D01*
X202205714Y-94388333D01*
X202158095Y-94197857D01*
X202110476Y-94102619D01*
X202062857Y-94055000D01*
X201967619Y-94007380D01*
X200777142Y-94340714D02*
X200777142Y-95007380D01*
X201015238Y-93959761D02*
X201253333Y-94674047D01*
X200634285Y-94674047D01*
D13*
X190166428Y-117539285D02*
X190416428Y-117182142D01*
X190595000Y-117539285D02*
X190595000Y-116789285D01*
X190309285Y-116789285D01*
X190237857Y-116825000D01*
X190202142Y-116860714D01*
X190166428Y-116932142D01*
X190166428Y-117039285D01*
X190202142Y-117110714D01*
X190237857Y-117146428D01*
X190309285Y-117182142D01*
X190595000Y-117182142D01*
X189845000Y-117539285D02*
X189845000Y-116789285D01*
X189559285Y-116789285D01*
X189487857Y-116825000D01*
X189452142Y-116860714D01*
X189416428Y-116932142D01*
X189416428Y-117039285D01*
X189452142Y-117110714D01*
X189487857Y-117146428D01*
X189559285Y-117182142D01*
X189845000Y-117182142D01*
X188702142Y-117539285D02*
X189130714Y-117539285D01*
X188916428Y-117539285D02*
X188916428Y-116789285D01*
X188987857Y-116896428D01*
X189059285Y-116967857D01*
X189130714Y-117003571D01*
X188380714Y-117539285D02*
X188380714Y-116789285D01*
X188202142Y-116789285D01*
X188095000Y-116825000D01*
X188023571Y-116896428D01*
X187987857Y-116967857D01*
X187952142Y-117110714D01*
X187952142Y-117217857D01*
X187987857Y-117360714D01*
X188023571Y-117432142D01*
X188095000Y-117503571D01*
X188202142Y-117539285D01*
X188380714Y-117539285D01*
X187309285Y-116789285D02*
X187452142Y-116789285D01*
X187523571Y-116825000D01*
X187559285Y-116860714D01*
X187630714Y-116967857D01*
X187666428Y-117110714D01*
X187666428Y-117396428D01*
X187630714Y-117467857D01*
X187595000Y-117503571D01*
X187523571Y-117539285D01*
X187380714Y-117539285D01*
X187309285Y-117503571D01*
X187273571Y-117467857D01*
X187237857Y-117396428D01*
X187237857Y-117217857D01*
X187273571Y-117146428D01*
X187309285Y-117110714D01*
X187380714Y-117075000D01*
X187523571Y-117075000D01*
X187595000Y-117110714D01*
X187630714Y-117146428D01*
X187666428Y-117217857D01*
X186773571Y-116789285D02*
X186702142Y-116789285D01*
X186630714Y-116825000D01*
X186595000Y-116860714D01*
X186559285Y-116932142D01*
X186523571Y-117075000D01*
X186523571Y-117253571D01*
X186559285Y-117396428D01*
X186595000Y-117467857D01*
X186630714Y-117503571D01*
X186702142Y-117539285D01*
X186773571Y-117539285D01*
X186845000Y-117503571D01*
X186880714Y-117467857D01*
X186916428Y-117396428D01*
X186952142Y-117253571D01*
X186952142Y-117075000D01*
X186916428Y-116932142D01*
X186880714Y-116860714D01*
X186845000Y-116825000D01*
X186773571Y-116789285D01*
X185809285Y-117539285D02*
X186237857Y-117539285D01*
X186023571Y-117539285D02*
X186023571Y-116789285D01*
X186095000Y-116896428D01*
X186166428Y-116967857D01*
X186237857Y-117003571D01*
D10*
X170597142Y-86410952D02*
X170644761Y-86363333D01*
X170692380Y-86220476D01*
X170692380Y-86125238D01*
X170644761Y-85982380D01*
X170549523Y-85887142D01*
X170454285Y-85839523D01*
X170263809Y-85791904D01*
X170120952Y-85791904D01*
X169930476Y-85839523D01*
X169835238Y-85887142D01*
X169740000Y-85982380D01*
X169692380Y-86125238D01*
X169692380Y-86220476D01*
X169740000Y-86363333D01*
X169787619Y-86410952D01*
X169692380Y-86744285D02*
X169692380Y-87363333D01*
X170073333Y-87030000D01*
X170073333Y-87172857D01*
X170120952Y-87268095D01*
X170168571Y-87315714D01*
X170263809Y-87363333D01*
X170501904Y-87363333D01*
X170597142Y-87315714D01*
X170644761Y-87268095D01*
X170692380Y-87172857D01*
X170692380Y-86887142D01*
X170644761Y-86791904D01*
X170597142Y-86744285D01*
X169692380Y-87982380D02*
X169692380Y-88077619D01*
X169740000Y-88172857D01*
X169787619Y-88220476D01*
X169882857Y-88268095D01*
X170073333Y-88315714D01*
X170311428Y-88315714D01*
X170501904Y-88268095D01*
X170597142Y-88220476D01*
X170644761Y-88172857D01*
X170692380Y-88077619D01*
X170692380Y-87982380D01*
X170644761Y-87887142D01*
X170597142Y-87839523D01*
X170501904Y-87791904D01*
X170311428Y-87744285D01*
X170073333Y-87744285D01*
X169882857Y-87791904D01*
X169787619Y-87839523D01*
X169740000Y-87887142D01*
X169692380Y-87982380D01*
X169692380Y-89220476D02*
X169692380Y-88744285D01*
X170168571Y-88696666D01*
X170120952Y-88744285D01*
X170073333Y-88839523D01*
X170073333Y-89077619D01*
X170120952Y-89172857D01*
X170168571Y-89220476D01*
X170263809Y-89268095D01*
X170501904Y-89268095D01*
X170597142Y-89220476D01*
X170644761Y-89172857D01*
X170692380Y-89077619D01*
X170692380Y-88839523D01*
X170644761Y-88744285D01*
X170597142Y-88696666D01*
X181929047Y-88727142D02*
X181976666Y-88774761D01*
X182119523Y-88822380D01*
X182214761Y-88822380D01*
X182357619Y-88774761D01*
X182452857Y-88679523D01*
X182500476Y-88584285D01*
X182548095Y-88393809D01*
X182548095Y-88250952D01*
X182500476Y-88060476D01*
X182452857Y-87965238D01*
X182357619Y-87870000D01*
X182214761Y-87822380D01*
X182119523Y-87822380D01*
X181976666Y-87870000D01*
X181929047Y-87917619D01*
X181595714Y-87822380D02*
X180976666Y-87822380D01*
X181310000Y-88203333D01*
X181167142Y-88203333D01*
X181071904Y-88250952D01*
X181024285Y-88298571D01*
X180976666Y-88393809D01*
X180976666Y-88631904D01*
X181024285Y-88727142D01*
X181071904Y-88774761D01*
X181167142Y-88822380D01*
X181452857Y-88822380D01*
X181548095Y-88774761D01*
X181595714Y-88727142D01*
X180357619Y-87822380D02*
X180262380Y-87822380D01*
X180167142Y-87870000D01*
X180119523Y-87917619D01*
X180071904Y-88012857D01*
X180024285Y-88203333D01*
X180024285Y-88441428D01*
X180071904Y-88631904D01*
X180119523Y-88727142D01*
X180167142Y-88774761D01*
X180262380Y-88822380D01*
X180357619Y-88822380D01*
X180452857Y-88774761D01*
X180500476Y-88727142D01*
X180548095Y-88631904D01*
X180595714Y-88441428D01*
X180595714Y-88203333D01*
X180548095Y-88012857D01*
X180500476Y-87917619D01*
X180452857Y-87870000D01*
X180357619Y-87822380D01*
X179167142Y-87822380D02*
X179357619Y-87822380D01*
X179452857Y-87870000D01*
X179500476Y-87917619D01*
X179595714Y-88060476D01*
X179643333Y-88250952D01*
X179643333Y-88631904D01*
X179595714Y-88727142D01*
X179548095Y-88774761D01*
X179452857Y-88822380D01*
X179262380Y-88822380D01*
X179167142Y-88774761D01*
X179119523Y-88727142D01*
X179071904Y-88631904D01*
X179071904Y-88393809D01*
X179119523Y-88298571D01*
X179167142Y-88250952D01*
X179262380Y-88203333D01*
X179452857Y-88203333D01*
X179548095Y-88250952D01*
X179595714Y-88298571D01*
X179643333Y-88393809D01*
%LPC*%
D15*
X207000000Y-103360000D03*
X207000000Y-107760000D03*
G36*
G01*
X206210000Y-94780001D02*
X206210000Y-92579999D01*
G75*
G02*
X206459999Y-92330000I249999J0D01*
G01*
X207110001Y-92330000D01*
G75*
G02*
X207360000Y-92579999I0J-249999D01*
G01*
X207360000Y-94780001D01*
G75*
G02*
X207110001Y-95030000I-249999J0D01*
G01*
X206459999Y-95030000D01*
G75*
G02*
X206210000Y-94780001I0J249999D01*
G01*
G37*
G36*
G01*
X203260000Y-94780001D02*
X203260000Y-92579999D01*
G75*
G02*
X203509999Y-92330000I249999J0D01*
G01*
X204160001Y-92330000D01*
G75*
G02*
X204410000Y-92579999I0J-249999D01*
G01*
X204410000Y-94780001D01*
G75*
G02*
X204160001Y-95030000I-249999J0D01*
G01*
X203509999Y-95030000D01*
G75*
G02*
X203260000Y-94780001I0J249999D01*
G01*
G37*
D16*
X205841600Y-129700000D03*
X205867000Y-83903800D03*
D17*
X126263400Y-93225600D03*
X152374600Y-93200200D03*
X152298400Y-121267200D03*
X126263400Y-121165600D03*
X130835400Y-129674600D03*
X130830000Y-83930000D03*
D18*
X207550000Y-115950000D03*
X205010000Y-115950000D03*
X202470000Y-115950000D03*
X207550000Y-113410000D03*
X205010000Y-113410000D03*
D19*
X202470000Y-113410000D03*
G36*
G01*
X186180000Y-87250002D02*
X186180000Y-86349998D01*
G75*
G02*
X186429998Y-86100000I249998J0D01*
G01*
X186955002Y-86100000D01*
G75*
G02*
X187205000Y-86349998I0J-249998D01*
G01*
X187205000Y-87250002D01*
G75*
G02*
X186955002Y-87500000I-249998J0D01*
G01*
X186429998Y-87500000D01*
G75*
G02*
X186180000Y-87250002I0J249998D01*
G01*
G37*
G36*
G01*
X184355000Y-87250002D02*
X184355000Y-86349998D01*
G75*
G02*
X184604998Y-86100000I249998J0D01*
G01*
X185130002Y-86100000D01*
G75*
G02*
X185380000Y-86349998I0J-249998D01*
G01*
X185380000Y-87250002D01*
G75*
G02*
X185130002Y-87500000I-249998J0D01*
G01*
X184604998Y-87500000D01*
G75*
G02*
X184355000Y-87250002I0J249998D01*
G01*
G37*
G36*
G01*
X188615000Y-91350001D02*
X188615000Y-89149999D01*
G75*
G02*
X188864999Y-88900000I249999J0D01*
G01*
X189515001Y-88900000D01*
G75*
G02*
X189765000Y-89149999I0J-249999D01*
G01*
X189765000Y-91350001D01*
G75*
G02*
X189515001Y-91600000I-249999J0D01*
G01*
X188864999Y-91600000D01*
G75*
G02*
X188615000Y-91350001I0J249999D01*
G01*
G37*
G36*
G01*
X185665000Y-91350001D02*
X185665000Y-89149999D01*
G75*
G02*
X185914999Y-88900000I249999J0D01*
G01*
X186565001Y-88900000D01*
G75*
G02*
X186815000Y-89149999I0J-249999D01*
G01*
X186815000Y-91350001D01*
G75*
G02*
X186565001Y-91600000I-249999J0D01*
G01*
X185914999Y-91600000D01*
G75*
G02*
X185665000Y-91350001I0J249999D01*
G01*
G37*
G36*
G01*
X186755000Y-93249999D02*
X186755000Y-95450001D01*
G75*
G02*
X186505001Y-95700000I-249999J0D01*
G01*
X185854999Y-95700000D01*
G75*
G02*
X185605000Y-95450001I0J249999D01*
G01*
X185605000Y-93249999D01*
G75*
G02*
X185854999Y-93000000I249999J0D01*
G01*
X186505001Y-93000000D01*
G75*
G02*
X186755000Y-93249999I0J-249999D01*
G01*
G37*
G36*
G01*
X189705000Y-93249999D02*
X189705000Y-95450001D01*
G75*
G02*
X189455001Y-95700000I-249999J0D01*
G01*
X188804999Y-95700000D01*
G75*
G02*
X188555000Y-95450001I0J249999D01*
G01*
X188555000Y-93249999D01*
G75*
G02*
X188804999Y-93000000I249999J0D01*
G01*
X189455001Y-93000000D01*
G75*
G02*
X189705000Y-93249999I0J-249999D01*
G01*
G37*
G36*
G01*
X186470000Y-84420001D02*
X186470000Y-82219999D01*
G75*
G02*
X186719999Y-81970000I249999J0D01*
G01*
X187370001Y-81970000D01*
G75*
G02*
X187620000Y-82219999I0J-249999D01*
G01*
X187620000Y-84420001D01*
G75*
G02*
X187370001Y-84670000I-249999J0D01*
G01*
X186719999Y-84670000D01*
G75*
G02*
X186470000Y-84420001I0J249999D01*
G01*
G37*
G36*
G01*
X183520000Y-84420001D02*
X183520000Y-82219999D01*
G75*
G02*
X183769999Y-81970000I249999J0D01*
G01*
X184420001Y-81970000D01*
G75*
G02*
X184670000Y-82219999I0J-249999D01*
G01*
X184670000Y-84420001D01*
G75*
G02*
X184420001Y-84670000I-249999J0D01*
G01*
X183769999Y-84670000D01*
G75*
G02*
X183520000Y-84420001I0J249999D01*
G01*
G37*
G36*
G01*
X204415000Y-89189999D02*
X204415000Y-91390001D01*
G75*
G02*
X204165001Y-91640000I-249999J0D01*
G01*
X203514999Y-91640000D01*
G75*
G02*
X203265000Y-91390001I0J249999D01*
G01*
X203265000Y-89189999D01*
G75*
G02*
X203514999Y-88940000I249999J0D01*
G01*
X204165001Y-88940000D01*
G75*
G02*
X204415000Y-89189999I0J-249999D01*
G01*
G37*
G36*
G01*
X207365000Y-89189999D02*
X207365000Y-91390001D01*
G75*
G02*
X207115001Y-91640000I-249999J0D01*
G01*
X206464999Y-91640000D01*
G75*
G02*
X206215000Y-91390001I0J249999D01*
G01*
X206215000Y-89189999D01*
G75*
G02*
X206464999Y-88940000I249999J0D01*
G01*
X207115001Y-88940000D01*
G75*
G02*
X207365000Y-89189999I0J-249999D01*
G01*
G37*
G36*
G01*
X195145000Y-82889999D02*
X195145000Y-85090001D01*
G75*
G02*
X194895001Y-85340000I-249999J0D01*
G01*
X194244999Y-85340000D01*
G75*
G02*
X193995000Y-85090001I0J249999D01*
G01*
X193995000Y-82889999D01*
G75*
G02*
X194244999Y-82640000I249999J0D01*
G01*
X194895001Y-82640000D01*
G75*
G02*
X195145000Y-82889999I0J-249999D01*
G01*
G37*
G36*
G01*
X198095000Y-82889999D02*
X198095000Y-85090001D01*
G75*
G02*
X197845001Y-85340000I-249999J0D01*
G01*
X197194999Y-85340000D01*
G75*
G02*
X196945000Y-85090001I0J249999D01*
G01*
X196945000Y-82889999D01*
G75*
G02*
X197194999Y-82640000I249999J0D01*
G01*
X197845001Y-82640000D01*
G75*
G02*
X198095000Y-82889999I0J-249999D01*
G01*
G37*
G36*
G01*
X195175000Y-86229999D02*
X195175000Y-88430001D01*
G75*
G02*
X194925001Y-88680000I-249999J0D01*
G01*
X194274999Y-88680000D01*
G75*
G02*
X194025000Y-88430001I0J249999D01*
G01*
X194025000Y-86229999D01*
G75*
G02*
X194274999Y-85980000I249999J0D01*
G01*
X194925001Y-85980000D01*
G75*
G02*
X195175000Y-86229999I0J-249999D01*
G01*
G37*
G36*
G01*
X198125000Y-86229999D02*
X198125000Y-88430001D01*
G75*
G02*
X197875001Y-88680000I-249999J0D01*
G01*
X197224999Y-88680000D01*
G75*
G02*
X196975000Y-88430001I0J249999D01*
G01*
X196975000Y-86229999D01*
G75*
G02*
X197224999Y-85980000I249999J0D01*
G01*
X197875001Y-85980000D01*
G75*
G02*
X198125000Y-86229999I0J-249999D01*
G01*
G37*
G36*
G01*
X171600000Y-109740000D02*
X171940000Y-109740000D01*
G75*
G02*
X172080000Y-109880000I0J-140000D01*
G01*
X172080000Y-110160000D01*
G75*
G02*
X171940000Y-110300000I-140000J0D01*
G01*
X171600000Y-110300000D01*
G75*
G02*
X171460000Y-110160000I0J140000D01*
G01*
X171460000Y-109880000D01*
G75*
G02*
X171600000Y-109740000I140000J0D01*
G01*
G37*
G36*
G01*
X171600000Y-110700000D02*
X171940000Y-110700000D01*
G75*
G02*
X172080000Y-110840000I0J-140000D01*
G01*
X172080000Y-111120000D01*
G75*
G02*
X171940000Y-111260000I-140000J0D01*
G01*
X171600000Y-111260000D01*
G75*
G02*
X171460000Y-111120000I0J140000D01*
G01*
X171460000Y-110840000D01*
G75*
G02*
X171600000Y-110700000I140000J0D01*
G01*
G37*
G36*
G01*
X178530000Y-104400000D02*
X178870000Y-104400000D01*
G75*
G02*
X179010000Y-104540000I0J-140000D01*
G01*
X179010000Y-104820000D01*
G75*
G02*
X178870000Y-104960000I-140000J0D01*
G01*
X178530000Y-104960000D01*
G75*
G02*
X178390000Y-104820000I0J140000D01*
G01*
X178390000Y-104540000D01*
G75*
G02*
X178530000Y-104400000I140000J0D01*
G01*
G37*
G36*
G01*
X178530000Y-103440000D02*
X178870000Y-103440000D01*
G75*
G02*
X179010000Y-103580000I0J-140000D01*
G01*
X179010000Y-103860000D01*
G75*
G02*
X178870000Y-104000000I-140000J0D01*
G01*
X178530000Y-104000000D01*
G75*
G02*
X178390000Y-103860000I0J140000D01*
G01*
X178390000Y-103580000D01*
G75*
G02*
X178530000Y-103440000I140000J0D01*
G01*
G37*
G36*
G01*
X203050000Y-98240000D02*
X202710000Y-98240000D01*
G75*
G02*
X202570000Y-98100000I0J140000D01*
G01*
X202570000Y-97820000D01*
G75*
G02*
X202710000Y-97680000I140000J0D01*
G01*
X203050000Y-97680000D01*
G75*
G02*
X203190000Y-97820000I0J-140000D01*
G01*
X203190000Y-98100000D01*
G75*
G02*
X203050000Y-98240000I-140000J0D01*
G01*
G37*
G36*
G01*
X203050000Y-97280000D02*
X202710000Y-97280000D01*
G75*
G02*
X202570000Y-97140000I0J140000D01*
G01*
X202570000Y-96860000D01*
G75*
G02*
X202710000Y-96720000I140000J0D01*
G01*
X203050000Y-96720000D01*
G75*
G02*
X203190000Y-96860000I0J-140000D01*
G01*
X203190000Y-97140000D01*
G75*
G02*
X203050000Y-97280000I-140000J0D01*
G01*
G37*
G36*
G01*
X190770000Y-85150000D02*
X190430000Y-85150000D01*
G75*
G02*
X190290000Y-85010000I0J140000D01*
G01*
X190290000Y-84730000D01*
G75*
G02*
X190430000Y-84590000I140000J0D01*
G01*
X190770000Y-84590000D01*
G75*
G02*
X190910000Y-84730000I0J-140000D01*
G01*
X190910000Y-85010000D01*
G75*
G02*
X190770000Y-85150000I-140000J0D01*
G01*
G37*
G36*
G01*
X190770000Y-86110000D02*
X190430000Y-86110000D01*
G75*
G02*
X190290000Y-85970000I0J140000D01*
G01*
X190290000Y-85690000D01*
G75*
G02*
X190430000Y-85550000I140000J0D01*
G01*
X190770000Y-85550000D01*
G75*
G02*
X190910000Y-85690000I0J-140000D01*
G01*
X190910000Y-85970000D01*
G75*
G02*
X190770000Y-86110000I-140000J0D01*
G01*
G37*
G36*
G01*
X191870000Y-86110000D02*
X191530000Y-86110000D01*
G75*
G02*
X191390000Y-85970000I0J140000D01*
G01*
X191390000Y-85690000D01*
G75*
G02*
X191530000Y-85550000I140000J0D01*
G01*
X191870000Y-85550000D01*
G75*
G02*
X192010000Y-85690000I0J-140000D01*
G01*
X192010000Y-85970000D01*
G75*
G02*
X191870000Y-86110000I-140000J0D01*
G01*
G37*
G36*
G01*
X191870000Y-85150000D02*
X191530000Y-85150000D01*
G75*
G02*
X191390000Y-85010000I0J140000D01*
G01*
X191390000Y-84730000D01*
G75*
G02*
X191530000Y-84590000I140000J0D01*
G01*
X191870000Y-84590000D01*
G75*
G02*
X192010000Y-84730000I0J-140000D01*
G01*
X192010000Y-85010000D01*
G75*
G02*
X191870000Y-85150000I-140000J0D01*
G01*
G37*
G36*
G01*
X160760000Y-86110000D02*
X160420000Y-86110000D01*
G75*
G02*
X160280000Y-85970000I0J140000D01*
G01*
X160280000Y-85690000D01*
G75*
G02*
X160420000Y-85550000I140000J0D01*
G01*
X160760000Y-85550000D01*
G75*
G02*
X160900000Y-85690000I0J-140000D01*
G01*
X160900000Y-85970000D01*
G75*
G02*
X160760000Y-86110000I-140000J0D01*
G01*
G37*
G36*
G01*
X160760000Y-87070000D02*
X160420000Y-87070000D01*
G75*
G02*
X160280000Y-86930000I0J140000D01*
G01*
X160280000Y-86650000D01*
G75*
G02*
X160420000Y-86510000I140000J0D01*
G01*
X160760000Y-86510000D01*
G75*
G02*
X160900000Y-86650000I0J-140000D01*
G01*
X160900000Y-86930000D01*
G75*
G02*
X160760000Y-87070000I-140000J0D01*
G01*
G37*
G36*
G01*
X177930000Y-85740000D02*
X177590000Y-85740000D01*
G75*
G02*
X177450000Y-85600000I0J140000D01*
G01*
X177450000Y-85320000D01*
G75*
G02*
X177590000Y-85180000I140000J0D01*
G01*
X177930000Y-85180000D01*
G75*
G02*
X178070000Y-85320000I0J-140000D01*
G01*
X178070000Y-85600000D01*
G75*
G02*
X177930000Y-85740000I-140000J0D01*
G01*
G37*
G36*
G01*
X177930000Y-86700000D02*
X177590000Y-86700000D01*
G75*
G02*
X177450000Y-86560000I0J140000D01*
G01*
X177450000Y-86280000D01*
G75*
G02*
X177590000Y-86140000I140000J0D01*
G01*
X177930000Y-86140000D01*
G75*
G02*
X178070000Y-86280000I0J-140000D01*
G01*
X178070000Y-86560000D01*
G75*
G02*
X177930000Y-86700000I-140000J0D01*
G01*
G37*
G36*
G01*
X164630000Y-119620000D02*
X164630000Y-119960000D01*
G75*
G02*
X164490000Y-120100000I-140000J0D01*
G01*
X164210000Y-120100000D01*
G75*
G02*
X164070000Y-119960000I0J140000D01*
G01*
X164070000Y-119620000D01*
G75*
G02*
X164210000Y-119480000I140000J0D01*
G01*
X164490000Y-119480000D01*
G75*
G02*
X164630000Y-119620000I0J-140000D01*
G01*
G37*
G36*
G01*
X163670000Y-119620000D02*
X163670000Y-119960000D01*
G75*
G02*
X163530000Y-120100000I-140000J0D01*
G01*
X163250000Y-120100000D01*
G75*
G02*
X163110000Y-119960000I0J140000D01*
G01*
X163110000Y-119620000D01*
G75*
G02*
X163250000Y-119480000I140000J0D01*
G01*
X163530000Y-119480000D01*
G75*
G02*
X163670000Y-119620000I0J-140000D01*
G01*
G37*
G36*
G01*
X163640000Y-120780000D02*
X163640000Y-121120000D01*
G75*
G02*
X163500000Y-121260000I-140000J0D01*
G01*
X163220000Y-121260000D01*
G75*
G02*
X163080000Y-121120000I0J140000D01*
G01*
X163080000Y-120780000D01*
G75*
G02*
X163220000Y-120640000I140000J0D01*
G01*
X163500000Y-120640000D01*
G75*
G02*
X163640000Y-120780000I0J-140000D01*
G01*
G37*
G36*
G01*
X164600000Y-120780000D02*
X164600000Y-121120000D01*
G75*
G02*
X164460000Y-121260000I-140000J0D01*
G01*
X164180000Y-121260000D01*
G75*
G02*
X164040000Y-121120000I0J140000D01*
G01*
X164040000Y-120780000D01*
G75*
G02*
X164180000Y-120640000I140000J0D01*
G01*
X164460000Y-120640000D01*
G75*
G02*
X164600000Y-120780000I0J-140000D01*
G01*
G37*
G36*
G01*
X172800000Y-109750000D02*
X173140000Y-109750000D01*
G75*
G02*
X173280000Y-109890000I0J-140000D01*
G01*
X173280000Y-110170000D01*
G75*
G02*
X173140000Y-110310000I-140000J0D01*
G01*
X172800000Y-110310000D01*
G75*
G02*
X172660000Y-110170000I0J140000D01*
G01*
X172660000Y-109890000D01*
G75*
G02*
X172800000Y-109750000I140000J0D01*
G01*
G37*
G36*
G01*
X172800000Y-110710000D02*
X173140000Y-110710000D01*
G75*
G02*
X173280000Y-110850000I0J-140000D01*
G01*
X173280000Y-111130000D01*
G75*
G02*
X173140000Y-111270000I-140000J0D01*
G01*
X172800000Y-111270000D01*
G75*
G02*
X172660000Y-111130000I0J140000D01*
G01*
X172660000Y-110850000D01*
G75*
G02*
X172800000Y-110710000I140000J0D01*
G01*
G37*
G36*
G01*
X179930000Y-103490000D02*
X180270000Y-103490000D01*
G75*
G02*
X180410000Y-103630000I0J-140000D01*
G01*
X180410000Y-103910000D01*
G75*
G02*
X180270000Y-104050000I-140000J0D01*
G01*
X179930000Y-104050000D01*
G75*
G02*
X179790000Y-103910000I0J140000D01*
G01*
X179790000Y-103630000D01*
G75*
G02*
X179930000Y-103490000I140000J0D01*
G01*
G37*
G36*
G01*
X179930000Y-104450000D02*
X180270000Y-104450000D01*
G75*
G02*
X180410000Y-104590000I0J-140000D01*
G01*
X180410000Y-104870000D01*
G75*
G02*
X180270000Y-105010000I-140000J0D01*
G01*
X179930000Y-105010000D01*
G75*
G02*
X179790000Y-104870000I0J140000D01*
G01*
X179790000Y-104590000D01*
G75*
G02*
X179930000Y-104450000I140000J0D01*
G01*
G37*
G36*
G01*
X200640000Y-111050000D02*
X200300000Y-111050000D01*
G75*
G02*
X200160000Y-110910000I0J140000D01*
G01*
X200160000Y-110630000D01*
G75*
G02*
X200300000Y-110490000I140000J0D01*
G01*
X200640000Y-110490000D01*
G75*
G02*
X200780000Y-110630000I0J-140000D01*
G01*
X200780000Y-110910000D01*
G75*
G02*
X200640000Y-111050000I-140000J0D01*
G01*
G37*
G36*
G01*
X200640000Y-112010000D02*
X200300000Y-112010000D01*
G75*
G02*
X200160000Y-111870000I0J140000D01*
G01*
X200160000Y-111590000D01*
G75*
G02*
X200300000Y-111450000I140000J0D01*
G01*
X200640000Y-111450000D01*
G75*
G02*
X200780000Y-111590000I0J-140000D01*
G01*
X200780000Y-111870000D01*
G75*
G02*
X200640000Y-112010000I-140000J0D01*
G01*
G37*
D20*
X204536000Y-100500000D03*
X204536000Y-99230000D03*
X204536000Y-97960000D03*
X204536000Y-96690000D03*
X209960000Y-96690000D03*
X209960000Y-97960000D03*
X209960000Y-99230000D03*
X209960000Y-100500000D03*
D21*
X191640000Y-117115000D03*
X191640000Y-116465000D03*
X191640000Y-115815000D03*
X191640000Y-115165000D03*
X191640000Y-114515000D03*
X191640000Y-113865000D03*
X191640000Y-113215000D03*
X191640000Y-112565000D03*
X191640000Y-111915000D03*
X191640000Y-111265000D03*
X191640000Y-110615000D03*
X191640000Y-109965000D03*
X191640000Y-109315000D03*
X191640000Y-108665000D03*
X198740000Y-108665000D03*
X198740000Y-109315000D03*
X198740000Y-109965000D03*
X198740000Y-110615000D03*
X198740000Y-111265000D03*
X198740000Y-111915000D03*
X198740000Y-112565000D03*
X198740000Y-113215000D03*
X198740000Y-113865000D03*
X198740000Y-114515000D03*
X198740000Y-115165000D03*
X198740000Y-115815000D03*
X198740000Y-116465000D03*
X198740000Y-117115000D03*
G36*
G01*
X201640000Y-96135000D02*
X201640000Y-95765000D01*
G75*
G02*
X201775000Y-95630000I135000J0D01*
G01*
X202045000Y-95630000D01*
G75*
G02*
X202180000Y-95765000I0J-135000D01*
G01*
X202180000Y-96135000D01*
G75*
G02*
X202045000Y-96270000I-135000J0D01*
G01*
X201775000Y-96270000D01*
G75*
G02*
X201640000Y-96135000I0J135000D01*
G01*
G37*
G36*
G01*
X202660000Y-96135000D02*
X202660000Y-95765000D01*
G75*
G02*
X202795000Y-95630000I135000J0D01*
G01*
X203065000Y-95630000D01*
G75*
G02*
X203200000Y-95765000I0J-135000D01*
G01*
X203200000Y-96135000D01*
G75*
G02*
X203065000Y-96270000I-135000J0D01*
G01*
X202795000Y-96270000D01*
G75*
G02*
X202660000Y-96135000I0J135000D01*
G01*
G37*
G36*
G01*
X188890000Y-115845000D02*
X188890000Y-116215000D01*
G75*
G02*
X188755000Y-116350000I-135000J0D01*
G01*
X188485000Y-116350000D01*
G75*
G02*
X188350000Y-116215000I0J135000D01*
G01*
X188350000Y-115845000D01*
G75*
G02*
X188485000Y-115710000I135000J0D01*
G01*
X188755000Y-115710000D01*
G75*
G02*
X188890000Y-115845000I0J-135000D01*
G01*
G37*
G36*
G01*
X187870000Y-115845000D02*
X187870000Y-116215000D01*
G75*
G02*
X187735000Y-116350000I-135000J0D01*
G01*
X187465000Y-116350000D01*
G75*
G02*
X187330000Y-116215000I0J135000D01*
G01*
X187330000Y-115845000D01*
G75*
G02*
X187465000Y-115710000I135000J0D01*
G01*
X187735000Y-115710000D01*
G75*
G02*
X187870000Y-115845000I0J-135000D01*
G01*
G37*
D22*
X206000000Y-119620000D03*
X206000000Y-122160000D03*
X206000000Y-124700000D03*
G36*
G01*
X168750000Y-85359999D02*
X168750000Y-87560001D01*
G75*
G02*
X168500001Y-87810000I-249999J0D01*
G01*
X167849999Y-87810000D01*
G75*
G02*
X167600000Y-87560001I0J249999D01*
G01*
X167600000Y-85359999D01*
G75*
G02*
X167849999Y-85110000I249999J0D01*
G01*
X168500001Y-85110000D01*
G75*
G02*
X168750000Y-85359999I0J-249999D01*
G01*
G37*
G36*
G01*
X165800000Y-85359999D02*
X165800000Y-87560001D01*
G75*
G02*
X165550001Y-87810000I-249999J0D01*
G01*
X164899999Y-87810000D01*
G75*
G02*
X164650000Y-87560001I0J249999D01*
G01*
X164650000Y-85359999D01*
G75*
G02*
X164899999Y-85110000I249999J0D01*
G01*
X165550001Y-85110000D01*
G75*
G02*
X165800000Y-85359999I0J-249999D01*
G01*
G37*
G36*
G01*
X179890000Y-84949999D02*
X179890000Y-87150001D01*
G75*
G02*
X179640001Y-87400000I-249999J0D01*
G01*
X178989999Y-87400000D01*
G75*
G02*
X178740000Y-87150001I0J249999D01*
G01*
X178740000Y-84949999D01*
G75*
G02*
X178989999Y-84700000I249999J0D01*
G01*
X179640001Y-84700000D01*
G75*
G02*
X179890000Y-84949999I0J-249999D01*
G01*
G37*
G36*
G01*
X182840000Y-84949999D02*
X182840000Y-87150001D01*
G75*
G02*
X182590001Y-87400000I-249999J0D01*
G01*
X181939999Y-87400000D01*
G75*
G02*
X181690000Y-87150001I0J249999D01*
G01*
X181690000Y-84949999D01*
G75*
G02*
X181939999Y-84700000I249999J0D01*
G01*
X182590001Y-84700000D01*
G75*
G02*
X182840000Y-84949999I0J-249999D01*
G01*
G37*
M02*
