G04 #@! TF.GenerationSoftware,KiCad,Pcbnew,(5.1.10-1-10_14)*
G04 #@! TF.CreationDate,2021-06-11T14:29:54-07:00*
G04 #@! TF.ProjectId,master4.2Vregulator,6d617374-6572-4342-9e32-56726567756c,rev?*
G04 #@! TF.SameCoordinates,Original*
G04 #@! TF.FileFunction,Paste,Top*
G04 #@! TF.FilePolarity,Positive*
%FSLAX46Y46*%
G04 Gerber Fmt 4.6, Leading zero omitted, Abs format (unit mm)*
G04 Created by KiCad (PCBNEW (5.1.10-1-10_14)) date 2021-06-11 14:29:54*
%MOMM*%
%LPD*%
G01*
G04 APERTURE LIST*
%ADD10R,0.850000X0.300000*%
G04 APERTURE END LIST*
D10*
X184710000Y-137790000D03*
X184710000Y-138290000D03*
X184710000Y-138790000D03*
X184710000Y-139290000D03*
X187610000Y-139290000D03*
X187610000Y-138790000D03*
X187610000Y-138290000D03*
X187610000Y-137790000D03*
X166650000Y-137790000D03*
X166650000Y-138290000D03*
X166650000Y-138790000D03*
X166650000Y-139290000D03*
X169550000Y-139290000D03*
X169550000Y-138790000D03*
X169550000Y-138290000D03*
X169550000Y-137790000D03*
X148590000Y-137790000D03*
X148590000Y-138290000D03*
X148590000Y-138790000D03*
X148590000Y-139290000D03*
X151490000Y-139290000D03*
X151490000Y-138790000D03*
X151490000Y-138290000D03*
X151490000Y-137790000D03*
X130530000Y-137790000D03*
X130530000Y-138290000D03*
X130530000Y-138790000D03*
X130530000Y-139290000D03*
X133430000Y-139290000D03*
X133430000Y-138790000D03*
X133430000Y-138290000D03*
X133430000Y-137790000D03*
X112470000Y-137790000D03*
X112470000Y-138290000D03*
X112470000Y-138790000D03*
X112470000Y-139290000D03*
X115370000Y-139290000D03*
X115370000Y-138790000D03*
X115370000Y-138290000D03*
X115370000Y-137790000D03*
X184710000Y-106770000D03*
X184710000Y-107270000D03*
X184710000Y-107770000D03*
X184710000Y-108270000D03*
X187610000Y-108270000D03*
X187610000Y-107770000D03*
X187610000Y-107270000D03*
X187610000Y-106770000D03*
X166650000Y-106770000D03*
X166650000Y-107270000D03*
X166650000Y-107770000D03*
X166650000Y-108270000D03*
X169550000Y-108270000D03*
X169550000Y-107770000D03*
X169550000Y-107270000D03*
X169550000Y-106770000D03*
X148590000Y-106770000D03*
X148590000Y-107270000D03*
X148590000Y-107770000D03*
X148590000Y-108270000D03*
X151490000Y-108270000D03*
X151490000Y-107770000D03*
X151490000Y-107270000D03*
X151490000Y-106770000D03*
X130530000Y-106770000D03*
X130530000Y-107270000D03*
X130530000Y-107770000D03*
X130530000Y-108270000D03*
X133430000Y-108270000D03*
X133430000Y-107770000D03*
X133430000Y-107270000D03*
X133430000Y-106770000D03*
X112470000Y-106770000D03*
X112470000Y-107270000D03*
X112470000Y-107770000D03*
X112470000Y-108270000D03*
X115370000Y-108270000D03*
X115370000Y-107770000D03*
X115370000Y-107270000D03*
X115370000Y-106770000D03*
X184710000Y-75750000D03*
X184710000Y-76250000D03*
X184710000Y-76750000D03*
X184710000Y-77250000D03*
X187610000Y-77250000D03*
X187610000Y-76750000D03*
X187610000Y-76250000D03*
X187610000Y-75750000D03*
X166650000Y-75750000D03*
X166650000Y-76250000D03*
X166650000Y-76750000D03*
X166650000Y-77250000D03*
X169550000Y-77250000D03*
X169550000Y-76750000D03*
X169550000Y-76250000D03*
X169550000Y-75750000D03*
X148590000Y-75750000D03*
X148590000Y-76250000D03*
X148590000Y-76750000D03*
X148590000Y-77250000D03*
X151490000Y-77250000D03*
X151490000Y-76750000D03*
X151490000Y-76250000D03*
X151490000Y-75750000D03*
X130530000Y-75750000D03*
X130530000Y-76250000D03*
X130530000Y-76750000D03*
X130530000Y-77250000D03*
X133430000Y-77250000D03*
X133430000Y-76750000D03*
X133430000Y-76250000D03*
X133430000Y-75750000D03*
X187620000Y-122270000D03*
X187620000Y-122770000D03*
X187620000Y-123270000D03*
X187620000Y-123770000D03*
X184720000Y-123770000D03*
X184720000Y-123270000D03*
X184720000Y-122770000D03*
X184720000Y-122270000D03*
X169560000Y-122270000D03*
X169560000Y-122770000D03*
X169560000Y-123270000D03*
X169560000Y-123770000D03*
X166660000Y-123770000D03*
X166660000Y-123270000D03*
X166660000Y-122770000D03*
X166660000Y-122270000D03*
X151500000Y-122270000D03*
X151500000Y-122770000D03*
X151500000Y-123270000D03*
X151500000Y-123770000D03*
X148600000Y-123770000D03*
X148600000Y-123270000D03*
X148600000Y-122770000D03*
X148600000Y-122270000D03*
X133440000Y-122270000D03*
X133440000Y-122770000D03*
X133440000Y-123270000D03*
X133440000Y-123770000D03*
X130540000Y-123770000D03*
X130540000Y-123270000D03*
X130540000Y-122770000D03*
X130540000Y-122270000D03*
X115380000Y-122270000D03*
X115380000Y-122770000D03*
X115380000Y-123270000D03*
X115380000Y-123770000D03*
X112480000Y-123770000D03*
X112480000Y-123270000D03*
X112480000Y-122770000D03*
X112480000Y-122270000D03*
X187620000Y-91250000D03*
X187620000Y-91750000D03*
X187620000Y-92250000D03*
X187620000Y-92750000D03*
X184720000Y-92750000D03*
X184720000Y-92250000D03*
X184720000Y-91750000D03*
X184720000Y-91250000D03*
X169560000Y-91250000D03*
X169560000Y-91750000D03*
X169560000Y-92250000D03*
X169560000Y-92750000D03*
X166660000Y-92750000D03*
X166660000Y-92250000D03*
X166660000Y-91750000D03*
X166660000Y-91250000D03*
X151500000Y-91250000D03*
X151500000Y-91750000D03*
X151500000Y-92250000D03*
X151500000Y-92750000D03*
X148600000Y-92750000D03*
X148600000Y-92250000D03*
X148600000Y-91750000D03*
X148600000Y-91250000D03*
X133440000Y-91250000D03*
X133440000Y-91750000D03*
X133440000Y-92250000D03*
X133440000Y-92750000D03*
X130540000Y-92750000D03*
X130540000Y-92250000D03*
X130540000Y-91750000D03*
X130540000Y-91250000D03*
X115380000Y-91250000D03*
X115380000Y-91750000D03*
X115380000Y-92250000D03*
X115380000Y-92750000D03*
X112480000Y-92750000D03*
X112480000Y-92250000D03*
X112480000Y-91750000D03*
X112480000Y-91250000D03*
X187620000Y-60230000D03*
X187620000Y-60730000D03*
X187620000Y-61230000D03*
X187620000Y-61730000D03*
X184720000Y-61730000D03*
X184720000Y-61230000D03*
X184720000Y-60730000D03*
X184720000Y-60230000D03*
X169560000Y-60230000D03*
X169560000Y-60730000D03*
X169560000Y-61230000D03*
X169560000Y-61730000D03*
X166660000Y-61730000D03*
X166660000Y-61230000D03*
X166660000Y-60730000D03*
X166660000Y-60230000D03*
X151500000Y-60230000D03*
X151500000Y-60730000D03*
X151500000Y-61230000D03*
X151500000Y-61730000D03*
X148600000Y-61730000D03*
X148600000Y-61230000D03*
X148600000Y-60730000D03*
X148600000Y-60230000D03*
X133440000Y-60230000D03*
X133440000Y-60730000D03*
X133440000Y-61230000D03*
X133440000Y-61730000D03*
X130540000Y-61730000D03*
X130540000Y-61230000D03*
X130540000Y-60730000D03*
X130540000Y-60230000D03*
X112480000Y-60230000D03*
X112480000Y-60730000D03*
X112480000Y-61230000D03*
X112480000Y-61730000D03*
X115380000Y-61730000D03*
X115380000Y-61230000D03*
X115380000Y-60730000D03*
X115380000Y-60230000D03*
X115370000Y-75750000D03*
X115370000Y-76250000D03*
X115370000Y-76750000D03*
X115370000Y-77250000D03*
X112470000Y-77250000D03*
X112470000Y-76750000D03*
X112470000Y-76250000D03*
X112470000Y-75750000D03*
M02*
