M48
METRIC,TZ
T1C1.000
%
G90
G05
T1
X108840Y-72690
X108840Y-75230
X108840Y-77770
X108840Y-80310
X108840Y-103710
X108840Y-106250
X108840Y-108790
X108840Y-111330
X108840Y-134730
X108840Y-137270
X108840Y-139810
X108840Y-142350
X108850Y-57170
X108850Y-59710
X108850Y-62250
X108850Y-64790
X108850Y-88190
X108850Y-90730
X108850Y-93270
X108850Y-95810
X108850Y-119210
X108850Y-121750
X108850Y-124290
X108850Y-126830
X119000Y-72690
X119000Y-75230
X119000Y-77770
X119000Y-80310
X119000Y-103710
X119000Y-106250
X119000Y-108790
X119000Y-111330
X119000Y-134730
X119000Y-137270
X119000Y-139810
X119000Y-142350
X119010Y-57170
X119010Y-59710
X119010Y-62250
X119010Y-64790
X119010Y-88190
X119010Y-90730
X119010Y-93270
X119010Y-95810
X119010Y-119210
X119010Y-121750
X119010Y-124290
X119010Y-126830
X126900Y-72690
X126900Y-75230
X126900Y-77770
X126900Y-80310
X126900Y-103710
X126900Y-106250
X126900Y-108790
X126900Y-111330
X126900Y-134730
X126900Y-137270
X126900Y-139810
X126900Y-142350
X126910Y-57170
X126910Y-59710
X126910Y-62250
X126910Y-64790
X126910Y-88190
X126910Y-90730
X126910Y-93270
X126910Y-95810
X126910Y-119210
X126910Y-121750
X126910Y-124290
X126910Y-126830
X137060Y-72690
X137060Y-75230
X137060Y-77770
X137060Y-80310
X137060Y-103710
X137060Y-106250
X137060Y-108790
X137060Y-111330
X137060Y-134730
X137060Y-137270
X137060Y-139810
X137060Y-142350
X137070Y-57170
X137070Y-59710
X137070Y-62250
X137070Y-64790
X137070Y-88190
X137070Y-90730
X137070Y-93270
X137070Y-95810
X137070Y-119210
X137070Y-121750
X137070Y-124290
X137070Y-126830
X144960Y-72690
X144960Y-75230
X144960Y-77770
X144960Y-80310
X144960Y-103710
X144960Y-106250
X144960Y-108790
X144960Y-111330
X144960Y-134730
X144960Y-137270
X144960Y-139810
X144960Y-142350
X144970Y-57170
X144970Y-59710
X144970Y-62250
X144970Y-64790
X144970Y-88190
X144970Y-90730
X144970Y-93270
X144970Y-95810
X144970Y-119210
X144970Y-121750
X144970Y-124290
X144970Y-126830
X155120Y-72690
X155120Y-75230
X155120Y-77770
X155120Y-80310
X155120Y-103710
X155120Y-106250
X155120Y-108790
X155120Y-111330
X155120Y-134730
X155120Y-137270
X155120Y-139810
X155120Y-142350
X155130Y-57170
X155130Y-59710
X155130Y-62250
X155130Y-64790
X155130Y-88190
X155130Y-90730
X155130Y-93270
X155130Y-95810
X155130Y-119210
X155130Y-121750
X155130Y-124290
X155130Y-126830
X163020Y-72690
X163020Y-75230
X163020Y-77770
X163020Y-80310
X163020Y-103710
X163020Y-106250
X163020Y-108790
X163020Y-111330
X163020Y-134730
X163020Y-137270
X163020Y-139810
X163020Y-142350
X163030Y-57170
X163030Y-59710
X163030Y-62250
X163030Y-64790
X163030Y-88190
X163030Y-90730
X163030Y-93270
X163030Y-95810
X163030Y-119210
X163030Y-121750
X163030Y-124290
X163030Y-126830
X173180Y-72690
X173180Y-75230
X173180Y-77770
X173180Y-80310
X173180Y-103710
X173180Y-106250
X173180Y-108790
X173180Y-111330
X173180Y-134730
X173180Y-137270
X173180Y-139810
X173180Y-142350
X173190Y-57170
X173190Y-59710
X173190Y-62250
X173190Y-64790
X173190Y-88190
X173190Y-90730
X173190Y-93270
X173190Y-95810
X173190Y-119210
X173190Y-121750
X173190Y-124290
X173190Y-126830
X181080Y-72690
X181080Y-75230
X181080Y-77770
X181080Y-80310
X181080Y-103710
X181080Y-106250
X181080Y-108790
X181080Y-111330
X181080Y-134730
X181080Y-137270
X181080Y-139810
X181080Y-142350
X181090Y-57170
X181090Y-59710
X181090Y-62250
X181090Y-64790
X181090Y-88190
X181090Y-90730
X181090Y-93270
X181090Y-95810
X181090Y-119210
X181090Y-121750
X181090Y-124290
X181090Y-126830
X191240Y-72690
X191240Y-75230
X191240Y-77770
X191240Y-80310
X191240Y-103710
X191240Y-106250
X191240Y-108790
X191240Y-111330
X191240Y-134730
X191240Y-137270
X191240Y-139810
X191240Y-142350
X191250Y-57170
X191250Y-59710
X191250Y-62250
X191250Y-64790
X191250Y-88190
X191250Y-90730
X191250Y-93270
X191250Y-95810
X191250Y-119210
X191250Y-121750
X191250Y-124290
X191250Y-126830
T0
M30
