G04 #@! TF.GenerationSoftware,KiCad,Pcbnew,(5.1.10-1-10_14)*
G04 #@! TF.CreationDate,2021-06-11T14:29:54-07:00*
G04 #@! TF.ProjectId,master4.2Vregulator,6d617374-6572-4342-9e32-56726567756c,rev?*
G04 #@! TF.SameCoordinates,Original*
G04 #@! TF.FileFunction,Copper,L2,Bot*
G04 #@! TF.FilePolarity,Positive*
%FSLAX46Y46*%
G04 Gerber Fmt 4.6, Leading zero omitted, Abs format (unit mm)*
G04 Created by KiCad (PCBNEW (5.1.10-1-10_14)) date 2021-06-11 14:29:54*
%MOMM*%
%LPD*%
G01*
G04 APERTURE LIST*
G04 #@! TA.AperFunction,ComponentPad*
%ADD10C,1.500000*%
G04 #@! TD*
G04 APERTURE END LIST*
D10*
X181080000Y-134730000D03*
X181080000Y-139810000D03*
X181080000Y-137270000D03*
X181080000Y-142350000D03*
X191240000Y-142350000D03*
X191240000Y-139810000D03*
X191240000Y-137270000D03*
X191240000Y-134730000D03*
X163020000Y-134730000D03*
X163020000Y-139810000D03*
X163020000Y-137270000D03*
X163020000Y-142350000D03*
X173180000Y-142350000D03*
X173180000Y-139810000D03*
X173180000Y-137270000D03*
X173180000Y-134730000D03*
X144960000Y-134730000D03*
X144960000Y-139810000D03*
X144960000Y-137270000D03*
X144960000Y-142350000D03*
X155120000Y-142350000D03*
X155120000Y-139810000D03*
X155120000Y-137270000D03*
X155120000Y-134730000D03*
X126900000Y-134730000D03*
X126900000Y-139810000D03*
X126900000Y-137270000D03*
X126900000Y-142350000D03*
X137060000Y-142350000D03*
X137060000Y-139810000D03*
X137060000Y-137270000D03*
X137060000Y-134730000D03*
X108840000Y-134730000D03*
X108840000Y-139810000D03*
X108840000Y-137270000D03*
X108840000Y-142350000D03*
X119000000Y-142350000D03*
X119000000Y-139810000D03*
X119000000Y-137270000D03*
X119000000Y-134730000D03*
X181080000Y-103710000D03*
X181080000Y-108790000D03*
X181080000Y-106250000D03*
X181080000Y-111330000D03*
X191240000Y-111330000D03*
X191240000Y-108790000D03*
X191240000Y-106250000D03*
X191240000Y-103710000D03*
X163020000Y-103710000D03*
X163020000Y-108790000D03*
X163020000Y-106250000D03*
X163020000Y-111330000D03*
X173180000Y-111330000D03*
X173180000Y-108790000D03*
X173180000Y-106250000D03*
X173180000Y-103710000D03*
X144960000Y-103710000D03*
X144960000Y-108790000D03*
X144960000Y-106250000D03*
X144960000Y-111330000D03*
X155120000Y-111330000D03*
X155120000Y-108790000D03*
X155120000Y-106250000D03*
X155120000Y-103710000D03*
X126900000Y-103710000D03*
X126900000Y-108790000D03*
X126900000Y-106250000D03*
X126900000Y-111330000D03*
X137060000Y-111330000D03*
X137060000Y-108790000D03*
X137060000Y-106250000D03*
X137060000Y-103710000D03*
X108840000Y-103710000D03*
X108840000Y-108790000D03*
X108840000Y-106250000D03*
X108840000Y-111330000D03*
X119000000Y-111330000D03*
X119000000Y-108790000D03*
X119000000Y-106250000D03*
X119000000Y-103710000D03*
X181080000Y-72690000D03*
X181080000Y-77770000D03*
X181080000Y-75230000D03*
X181080000Y-80310000D03*
X191240000Y-80310000D03*
X191240000Y-77770000D03*
X191240000Y-75230000D03*
X191240000Y-72690000D03*
X163020000Y-72690000D03*
X163020000Y-77770000D03*
X163020000Y-75230000D03*
X163020000Y-80310000D03*
X173180000Y-80310000D03*
X173180000Y-77770000D03*
X173180000Y-75230000D03*
X173180000Y-72690000D03*
X144960000Y-72690000D03*
X144960000Y-77770000D03*
X144960000Y-75230000D03*
X144960000Y-80310000D03*
X155120000Y-80310000D03*
X155120000Y-77770000D03*
X155120000Y-75230000D03*
X155120000Y-72690000D03*
X126900000Y-72690000D03*
X126900000Y-77770000D03*
X126900000Y-75230000D03*
X126900000Y-80310000D03*
X137060000Y-80310000D03*
X137060000Y-77770000D03*
X137060000Y-75230000D03*
X137060000Y-72690000D03*
X181090000Y-119210000D03*
X181090000Y-121750000D03*
X181090000Y-124290000D03*
X181090000Y-126830000D03*
X191250000Y-126830000D03*
X191250000Y-124290000D03*
X191250000Y-121750000D03*
X191250000Y-119210000D03*
X163030000Y-119210000D03*
X163030000Y-121750000D03*
X163030000Y-124290000D03*
X163030000Y-126830000D03*
X173190000Y-126830000D03*
X173190000Y-124290000D03*
X173190000Y-121750000D03*
X173190000Y-119210000D03*
X144970000Y-119210000D03*
X144970000Y-121750000D03*
X144970000Y-124290000D03*
X144970000Y-126830000D03*
X155130000Y-126830000D03*
X155130000Y-124290000D03*
X155130000Y-121750000D03*
X155130000Y-119210000D03*
X126910000Y-119210000D03*
X126910000Y-121750000D03*
X126910000Y-124290000D03*
X126910000Y-126830000D03*
X137070000Y-126830000D03*
X137070000Y-124290000D03*
X137070000Y-121750000D03*
X137070000Y-119210000D03*
X108850000Y-119210000D03*
X108850000Y-121750000D03*
X108850000Y-124290000D03*
X108850000Y-126830000D03*
X119010000Y-126830000D03*
X119010000Y-124290000D03*
X119010000Y-121750000D03*
X119010000Y-119210000D03*
X181090000Y-88190000D03*
X181090000Y-90730000D03*
X181090000Y-93270000D03*
X181090000Y-95810000D03*
X191250000Y-95810000D03*
X191250000Y-93270000D03*
X191250000Y-90730000D03*
X191250000Y-88190000D03*
X163030000Y-88190000D03*
X163030000Y-90730000D03*
X163030000Y-93270000D03*
X163030000Y-95810000D03*
X173190000Y-95810000D03*
X173190000Y-93270000D03*
X173190000Y-90730000D03*
X173190000Y-88190000D03*
X144970000Y-88190000D03*
X144970000Y-90730000D03*
X144970000Y-93270000D03*
X144970000Y-95810000D03*
X155130000Y-95810000D03*
X155130000Y-93270000D03*
X155130000Y-90730000D03*
X155130000Y-88190000D03*
X126910000Y-88190000D03*
X126910000Y-90730000D03*
X126910000Y-93270000D03*
X126910000Y-95810000D03*
X137070000Y-95810000D03*
X137070000Y-93270000D03*
X137070000Y-90730000D03*
X137070000Y-88190000D03*
X108850000Y-88190000D03*
X108850000Y-90730000D03*
X108850000Y-93270000D03*
X108850000Y-95810000D03*
X119010000Y-95810000D03*
X119010000Y-93270000D03*
X119010000Y-90730000D03*
X119010000Y-88190000D03*
X181090000Y-57170000D03*
X181090000Y-59710000D03*
X181090000Y-62250000D03*
X181090000Y-64790000D03*
X191250000Y-64790000D03*
X191250000Y-62250000D03*
X191250000Y-59710000D03*
X191250000Y-57170000D03*
X163030000Y-57170000D03*
X163030000Y-59710000D03*
X163030000Y-62250000D03*
X163030000Y-64790000D03*
X173190000Y-64790000D03*
X173190000Y-62250000D03*
X173190000Y-59710000D03*
X173190000Y-57170000D03*
X144970000Y-57170000D03*
X144970000Y-59710000D03*
X144970000Y-62250000D03*
X144970000Y-64790000D03*
X155130000Y-64790000D03*
X155130000Y-62250000D03*
X155130000Y-59710000D03*
X155130000Y-57170000D03*
X126910000Y-57170000D03*
X126910000Y-59710000D03*
X126910000Y-62250000D03*
X126910000Y-64790000D03*
X137070000Y-64790000D03*
X137070000Y-62250000D03*
X137070000Y-59710000D03*
X137070000Y-57170000D03*
X119010000Y-57170000D03*
X119010000Y-59710000D03*
X119010000Y-62250000D03*
X119010000Y-64790000D03*
X108850000Y-64790000D03*
X108850000Y-62250000D03*
X108850000Y-59710000D03*
X108850000Y-57170000D03*
X119000000Y-72690000D03*
X119000000Y-75230000D03*
X119000000Y-77770000D03*
X119000000Y-80310000D03*
X108840000Y-80310000D03*
X108840000Y-75230000D03*
X108840000Y-77770000D03*
X108840000Y-72690000D03*
M02*
